<?xml version="1.0" encoding="UTF-8"?>
<svg xmlns="http://www.w3.org/2000/svg" width="100" height="100" viewBox="0 0 100 100" shape-rendering="crispEdges" role="img">
  <title>icons8-mage-staff-100</title>
  <desc>Pixel-perfect vector conversion from the provided PNG icon. Transparent background preserved.</desc>
  <path fill="#ffff00" fill-opacity="0.0039" d="M22 0h1v1h-1z M25 0h1v1h-1z M36 5h1v1h-1z M26 7h1v1h-1z M28 12h1v1h-1z M25 53h1v1h-1z"/>
  <path fill="#7f0000" fill-opacity="0.0078" d="M30 52h1v1h-1z M70 53h1v1h-1z"/>
  <path fill="#7f7f7f" fill-opacity="0.0078" d="M30 58h1v1h-1z"/>
  <path fill="#ffff00" fill-opacity="0.0078" d="M74 1h1v1h-1z M63 6h1v1h-1z M2 26h1v1h-1z M13 30h1v1h-1z M16 36h1v1h-1z M11 39h1v1h-1z M6 42h1v1h-1z M21 49h1v1h-1z M16 55h1v1h-1z"/>
  <path fill="#555555" fill-opacity="0.0118" d="M33 70h1v1h-1z"/>
  <path fill="#ffaa00" fill-opacity="0.0118" d="M43 0h1v1h-1z M46 2h1v1h-1z M49 4h1v1h-1z M21 33h1v1h-1z M83 36h1v1h-1z M88 39h1v1h-1z M93 42h1v1h-1z M78 49h1v1h-1z M83 55h1v1h-1z"/>
  <path fill="#7f3f3f" fill-opacity="0.0157" d="M71 60h1v1h-1z"/>
  <path fill="#ffbf00" fill-opacity="0.0157" d="M79 0h1v1h-1z M84 9h1v1h-1z M97 26h1v1h-1z M86 30h1v1h-1z"/>
  <path fill="#ffcc00" fill-opacity="0.0196" d="M17 56h1v1h-1z M82 56h1v1h-1z"/>
  <path fill="#7f2a2a" fill-opacity="0.0235" d="M36 73h1v1h-1z"/>
  <path fill="#916d48" fill-opacity="0.0275" d="M68 70h1v1h-1z"/>
  <path fill="#ffb600" fill-opacity="0.0275" d="M72 2h1v1h-1z M61 7h1v1h-1z M75 7h1v1h-1z M15 9h1v1h-1z"/>
  <path fill="#ffbf00" fill-opacity="0.0314" d="M27 1h1v1h-1z M38 6h1v1h-1z M11 23h1v1h-1z"/>
  <path fill="#ffc600" fill-opacity="0.0353" d="M0 24h1v1h-1z M5 27h1v1h-1z M16 31h1v1h-1z M77 54h1v1h-1z M16 56h1v1h-1z M83 56h1v1h-1z"/>
  <path fill="#ffcc00" fill-opacity="0.0392" d="M25 5h1v1h-1z M29 12h1v1h-1z"/>
  <path fill="#5c4545" fill-opacity="0.0431" d="M71 52h1v1h-1z"/>
  <path fill="#ffb900" fill-opacity="0.0431" d="M11 45h1v1h-1z M88 45h1v1h-1z"/>
  <path fill="#7f5555" fill-opacity="0.0471" d="M69 54h1v1h-1z"/>
  <path fill="#ffbf00" fill-opacity="0.0471" d="M22 48h1v1h-1z M17 54h1v1h-1z"/>
  <path fill="#ffc400" fill-opacity="0.051" d="M19 10h1v1h-1z M80 10h1v1h-1z M94 27h1v1h-1z M83 31h1v1h-1z M22 54h1v1h-1z"/>
  <path fill="#915b48" fill-opacity="0.0549" d="M71 62h1v1h-1z"/>
  <path fill="#885544" fill-opacity="0.0588" d="M30 63h1v1h-1z"/>
  <path fill="#ffbb00" fill-opacity="0.0588" d="M77 48h1v1h-1z M82 54h1v1h-1z"/>
  <path fill="#ffc300" fill-opacity="0.0667" d="M88 23h1v1h-1z"/>
  <path fill="#8d6355" fill-opacity="0.0706" d="M70 56h1v1h-1z"/>
  <path fill="#ffc600" fill-opacity="0.0706" d="M29 2h1v1h-1z M40 7h1v1h-1z M18 35h1v1h-1z M13 38h1v1h-1z M8 41h1v1h-1z M3 44h1v1h-1z"/>
  <path fill="#7f4c3f" fill-opacity="0.0784" d="M34 71h1v1h-1z"/>
  <path fill="#795548" fill-opacity="0.0824" d="M35 72h1v1h-1z"/>
  <path fill="#856155" fill-opacity="0.0824" d="M76 46h1v1h-1z M71 61h1v1h-1z"/>
  <path fill="#ffc50b" fill-opacity="0.0863" d="M70 3h1v1h-1z M81 35h1v1h-1z M86 38h1v1h-1z M91 41h1v1h-1z M96 44h1v1h-1z"/>
  <path fill="#85584d" fill-opacity="0.0902" d="M32 54h1v1h-1z"/>
  <path fill="#ffbc0b" fill-opacity="0.0902" d="M76 5h1v1h-1z M76 11h1v1h-1z"/>
  <path fill="#ffbf0a" fill-opacity="0.0941" d="M72 52h1v1h-1z"/>
  <path fill="#ffc10a" fill-opacity="0.098" d="M57 1h1v1h-1z M54 3h1v1h-1z M51 5h1v1h-1z M19 32h1v1h-1z"/>
  <path fill="#ffc409" fill-opacity="0.102" d="M12 23h1v1h-1z M1 24h1v1h-1z M99 24h1v1h-1z M8 28h1v1h-1z M23 44h1v1h-1z"/>
  <path fill="#714b42" fill-opacity="0.1059" d="M65 73h1v1h-1z"/>
  <path fill="#ffbf09" fill-opacity="0.1098" d="M24 3h1v1h-1z"/>
  <path fill="#ffc308" fill-opacity="0.1176" d="M31 3h1v1h-1z M28 10h1v1h-1z M27 52h1v1h-1z"/>
  <path fill="#ffbd08" fill-opacity="0.1216" d="M23 11h1v1h-1z M23 47h1v1h-1z M18 53h1v1h-1z"/>
  <path fill="#ffbf07" fill-opacity="0.1255" d="M91 28h1v1h-1z M80 32h1v1h-1z"/>
  <path fill="#ffc107" fill-opacity="0.1294" d="M10 45h1v1h-1z M89 45h1v1h-1z"/>
  <path fill="#ffbd07" fill-opacity="0.1373" d="M76 47h1v1h-1z M81 53h1v1h-1z"/>
  <path fill="#865c4d" fill-opacity="0.1412" d="M30 59h1v1h-1z"/>
  <path fill="#ffbf07" fill-opacity="0.1412" d="M68 4h1v1h-1z"/>
  <path fill="#895b4e" fill-opacity="0.1529" d="M70 66h1v1h-1z"/>
  <path fill="#ffc406" fill-opacity="0.1529" d="M80 55h1v1h-1z"/>
  <path fill="#ffbf06" fill-opacity="0.1569" d="M44 1h1v1h-1z M47 3h1v1h-1z M50 5h1v1h-1z"/>
  <path fill="#ffc006" fill-opacity="0.1608" d="M10 8h1v1h-1z M89 8h1v1h-1z"/>
  <path fill="#73483c" fill-opacity="0.1647" d="M67 71h1v1h-1z"/>
  <path fill="#ffc305" fill-opacity="0.1686" d="M87 23h1v1h-1z M98 24h1v1h-1z M0 25h1v1h-1z M11 29h1v1h-1z M22 44h1v1h-1z M78 44h1v1h-1z"/>
  <path fill="#ffbf05" fill-opacity="0.1725" d="M8 8h1v1h-1z M91 8h1v1h-1z"/>
  <path fill="#ffc005" fill-opacity="0.1765" d="M73 10h1v1h-1z"/>
  <path fill="#ffc205" fill-opacity="0.1804" d="M77 3h1v1h-1z"/>
  <path fill="#ffc305" fill-opacity="0.1843" d="M19 55h1v1h-1z"/>
  <path fill="#895b51" fill-opacity="0.1961" d="M69 68h1v1h-1z"/>
  <path fill="#875f55" fill-opacity="0.2" d="M30 62h1v1h-1z"/>
  <path fill="#ffc305" fill-opacity="0.2" d="M85 9h1v1h-1z M27 12h1v1h-1z M13 23h1v1h-1z M2 24h1v1h-1z M99 25h1v1h-1z M88 29h1v1h-1z M20 34h1v1h-1z M15 37h1v1h-1z M75 53h1v1h-1z"/>
  <path fill="#ffbf04" fill-opacity="0.2039" d="M10 40h1v1h-1z"/>
  <path fill="#674b42" fill-opacity="0.2118" d="M66 72h1v1h-1z"/>
  <path fill="#ffc104" fill-opacity="0.2118" d="M33 4h1v1h-1z"/>
  <path fill="#ffc109" fill-opacity="0.2118" d="M72 12h1v1h-1z"/>
  <path fill="#ffc209" fill-opacity="0.2157" d="M2 45h1v1h-1z M97 45h1v1h-1z"/>
  <path fill="#ffbf09" fill-opacity="0.2196" d="M9 45h1v1h-1z M90 45h1v1h-1z"/>
  <path fill="#ffc008" fill-opacity="0.2235" d="M23 1h1v1h-1z M27 8h1v1h-1z M5 43h1v1h-1z M94 43h1v1h-1z"/>
  <path fill="#ffc108" fill-opacity="0.2275" d="M79 34h1v1h-1z M84 37h1v1h-1z M19 52h1v1h-1z"/>
  <path fill="#ffc208" fill-opacity="0.2314" d="M89 40h1v1h-1z M24 46h1v1h-1z"/>
  <path fill="#885d50" fill-opacity="0.2353" d="M30 60h1v1h-1z"/>
  <path fill="#ffbf08" fill-opacity="0.2353" d="M77 0h1v1h-1z M66 5h1v1h-1z M3 26h1v1h-1z M14 30h1v1h-1z M21 44h1v1h-1z"/>
  <path fill="#ffc208" fill-opacity="0.2471" d="M80 52h1v1h-1z"/>
  <path fill="#875f4f" fill-opacity="0.251" d="M30 61h1v1h-1z"/>
  <path fill="#895f4f" fill-opacity="0.2627" d="M31 56h1v1h-1z"/>
  <path fill="#ffbf07" fill-opacity="0.2667" d="M14 9h1v1h-1z M86 23h1v1h-1z M97 24h1v1h-1z M79 44h1v1h-1z M24 53h1v1h-1z"/>
  <path fill="#ffc107" fill-opacity="0.2745" d="M18 10h1v1h-1z M81 10h1v1h-1z"/>
  <path fill="#a87c3e" fill-opacity="0.2902" d="M77 44h1v1h-1z"/>
  <path fill="#ffc206" fill-opacity="0.298" d="M41 0h1v1h-1z M8 45h1v1h-1z M91 45h1v1h-1z"/>
  <path fill="#704c45" fill-opacity="0.302" d="M32 68h1v1h-1z"/>
  <path fill="#ffc006" fill-opacity="0.302" d="M24 0h1v1h-1z M75 1h1v1h-1z M35 5h1v1h-1z M64 6h1v1h-1z M77 11h1v1h-1z M14 23h1v1h-1z M3 24h1v1h-1z M96 26h1v1h-1z M85 30h1v1h-1z"/>
  <path fill="#6f4b44" fill-opacity="0.3059" d="M31 66h1v1h-1z"/>
  <path fill="#ffc006" fill-opacity="0.3059" d="M78 1h1v1h-1z M74 8h1v1h-1z"/>
  <path fill="#ffc006" fill-opacity="0.3333" d="M59 0h1v1h-1z M41 1h1v7h-1z M56 2h1v1h-1z M53 4h1v1h-1z M6 27h1v1h-1z M17 31h1v1h-1z M20 44h1v1h-1z M78 54h1v1h-1z"/>
  <path fill="#ffbf05" fill-opacity="0.349" d="M60 0h1v1h-1z"/>
  <path fill="#f3b80e" fill-opacity="0.3529" d="M29 51h1v1h-1z"/>
  <path fill="#6a4a3f" fill-opacity="0.3647" d="M24 44h1v1h-1z"/>
  <path fill="#ffc008" fill-opacity="0.3686" d="M73 2h1v1h-1z M26 6h1v1h-1z M62 7h1v1h-1z M22 11h1v1h-1z M73 12h1v1h-1z M15 23h1v1h-1z M85 23h1v1h-1z M4 24h1v1h-1z M96 24h1v1h-1z M17 36h1v1h-1z M12 39h1v1h-1z M7 42h1v1h-1z M80 44h1v1h-1z M20 51h1v1h-1z"/>
  <path fill="#ffc107" fill-opacity="0.3765" d="M7 45h1v1h-1z M92 45h1v1h-1z"/>
  <path fill="#885c4f" fill-opacity="0.3882" d="M70 57h1v1h-1z M39 97h1v1h-1z"/>
  <path fill="#ffc107" fill-opacity="0.3922" d="M9 8h1v1h-1z M90 8h1v1h-1z"/>
  <path fill="#ffbf07" fill-opacity="0.3961" d="M79 51h1v1h-1z"/>
  <path fill="#ffc007" fill-opacity="0.4" d="M26 1h1v1h-1z M37 6h1v1h-1z M93 27h1v1h-1z M82 31h1v1h-1z M21 54h1v1h-1z"/>
  <path fill="#875c51" fill-opacity="0.4196" d="M39 76h1v21h-1z"/>
  <path fill="#ffc107" fill-opacity="0.4196" d="M60 1h1v7h-1z"/>
  <path fill="#ffc006" fill-opacity="0.4353" d="M86 9h1v1h-1z M26 12h1v1h-1z M84 23h1v1h-1z M95 24h1v1h-1z M9 28h1v1h-1z M20 32h1v1h-1z M82 36h1v1h-1z M87 39h1v1h-1z M92 42h1v1h-1z M19 44h1v1h-1z M81 44h1v1h-1z M73 52h1v1h-1z"/>
  <path fill="#704c45" fill-opacity="0.4431" d="M38 74h1v1h-1z"/>
  <path fill="#82584d" fill-opacity="0.451" d="M39 75h1v1h-1z"/>
  <path fill="#ffc006" fill-opacity="0.451" d="M75 6h1v1h-1z"/>
  <path fill="#ffc006" fill-opacity="0.4627" d="M6 45h1v1h-1z M93 45h1v1h-1z"/>
  <path fill="#895e51" fill-opacity="0.4667" d="M62 97h1v1h-1z"/>
  <path fill="#ffc006" fill-opacity="0.4667" d="M42 0h1v1h-1z M45 2h1v1h-1z M48 4h1v1h-1z M9 9h1v1h-1z M11 11h1v1h-1z M12 12h1v1h-1z M13 13h1v1h-1z M14 14h1v1h-1z M15 15h1v1h-1z M17 17h1v1h-1z M18 18h1v1h-1z M19 19h1v1h-1z M20 20h1v1h-1z M21 21h1v1h-1z M16 23h1v1h-1z M5 24h1v1h-1z"/>
  <path fill="#ffc006" fill-opacity="0.498" d="M90 9h1v1h-1z M88 11h1v1h-1z M87 12h1v1h-1z M86 13h1v1h-1z M85 14h1v1h-1z M84 15h1v1h-1z M82 17h1v1h-1z M81 18h1v1h-1z M80 19h1v1h-1z M79 20h1v1h-1z M78 21h1v1h-1z"/>
  <path fill="#895d51" fill-opacity="0.502" d="M70 65h1v1h-1z M62 75h1v22h-1z"/>
  <path fill="#ffc107" fill-opacity="0.502" d="M28 2h1v1h-1z M71 3h1v1h-1z M39 7h1v1h-1z M13 9h1v1h-1z M10 10h1v1h-1z M89 10h1v1h-1z M16 16h1v1h-1z M83 16h1v1h-1z M1 25h1v1h-1z M90 28h1v1h-1z M12 29h1v1h-1z M79 32h1v1h-1z M18 44h1v1h-1z M82 44h1v1h-1z M26 52h1v1h-1z"/>
  <path fill="#ffc007" fill-opacity="0.5098" d="M25 4h1v1h-1z M17 10h1v1h-1z M82 10h1v1h-1z M29 11h1v1h-1z"/>
  <path fill="#ffc007" fill-opacity="0.5294" d="M78 0h1v1h-1z"/>
  <path fill="#885d50" fill-opacity="0.5333" d="M69 55h1v1h-1z"/>
  <path fill="#ffc107" fill-opacity="0.5333" d="M78 11h1v1h-1z M83 23h1v1h-1z M94 24h1v1h-1z M81 55h1v1h-1z"/>
  <path fill="#ffc107" fill-opacity="0.5373" d="M22 22h1v1h-1z M77 22h1v1h-1z"/>
  <path fill="#ffc007" fill-opacity="0.5412" d="M21 50h1v1h-1z M78 50h1v1h-1z"/>
  <path fill="#885e50" fill-opacity="0.549" d="M68 69h1v1h-1z"/>
  <path fill="#ffc107" fill-opacity="0.5529" d="M5 45h1v1h-1z M94 45h1v1h-1z"/>
  <path fill="#ffc007" fill-opacity="0.5569" d="M23 0h1v1h-1z"/>
  <path fill="#ffc107" fill-opacity="0.5686" d="M30 3h1v1h-1z M69 4h1v1h-1z M17 23h1v1h-1z M6 24h1v1h-1z M98 25h1v1h-1z M87 29h1v1h-1z M19 35h1v1h-1z M14 38h1v1h-1z M9 41h1v1h-1z M4 44h1v1h-1z M17 44h1v1h-1z"/>
  <path fill="#6c4940" fill-opacity="0.5725" d="M63 74h1v1h-1z"/>
  <path fill="#ffc106" fill-opacity="0.5882" d="M72 11h1v1h-1z"/>
  <path fill="#ffc006" fill-opacity="0.5922" d="M76 4h1v1h-1z M22 33h1v1h-1z"/>
  <path fill="#ffc106" fill-opacity="0.6" d="M21 11h1v1h-1z M74 12h1v1h-1z M4 26h1v1h-1z M15 30h1v1h-1z M83 44h1v1h-1z M76 53h1v1h-1z M18 55h1v1h-1z"/>
  <path fill="#ffc006" fill-opacity="0.6235" d="M17 55h1v1h-1z M82 55h1v1h-1z"/>
  <path fill="#895e51" fill-opacity="0.6275" d="M76 45h1v1h-1z"/>
  <path fill="#ffc106" fill-opacity="0.6314" d="M4 45h1v1h-1z M95 45h1v1h-1z"/>
  <path fill="#ffc106" fill-opacity="0.6353" d="M18 23h1v1h-1z M82 23h1v1h-1z M7 24h1v1h-1z M93 24h1v1h-1z M80 35h1v1h-1z M85 38h1v1h-1z M90 41h1v1h-1z M95 44h1v1h-1z"/>
  <path fill="#ffc107" fill-opacity="0.6471" d="M3 45h1v1h-1z M96 45h1v1h-1z"/>
  <path fill="#ffc107" fill-opacity="0.651" d="M24 2h1v1h-1z"/>
  <path fill="#ffc007" fill-opacity="0.6549" d="M28 9h1v1h-1z"/>
  <path fill="#8a5f50" fill-opacity="0.6588" d="M78 33h1v1h-1z"/>
  <path fill="#ffc107" fill-opacity="0.6627" d="M30 13h1v1h-1z"/>
  <path fill="#885e51" fill-opacity="0.6667" d="M31 57h1v1h-1z"/>
  <path fill="#ffc107" fill-opacity="0.6667" d="M67 5h1v1h-1z M87 9h1v1h-1z M25 12h1v1h-1z M95 26h1v1h-1z M84 30h1v1h-1z M16 44h1v1h-1z M23 53h1v1h-1z"/>
  <path fill="#ffc107" fill-opacity="0.6941" d="M58 1h1v1h-1z M55 3h1v1h-1z M52 5h1v1h-1z M22 49h1v1h-1z"/>
  <path fill="#6a493f" fill-opacity="0.698" d="M32 53h1v1h-1z"/>
  <path fill="#895e51" fill-opacity="0.698" d="M32 55h1v1h-1z"/>
  <path fill="#ffc007" fill-opacity="0.702" d="M32 4h1v1h-1z M81 23h1v1h-1z M92 24h1v1h-1z M7 27h1v1h-1z M18 31h1v1h-1z M84 44h1v1h-1z"/>
  <path fill="#885e50" fill-opacity="0.7098" d="M70 58h1v1h-1z M69 67h1v1h-1z"/>
  <path fill="#ffc107" fill-opacity="0.7137" d="M77 49h1v1h-1z"/>
  <path fill="#6c4b40" fill-opacity="0.7176" d="M33 69h1v1h-1z"/>
  <path fill="#ebbe15" fill-opacity="0.7294" d="M41 8h1v1h-1z"/>
  <path fill="#e5be19" fill-opacity="0.7333" d="M60 8h1v1h-1z"/>
  <path fill="#ffc106" fill-opacity="0.7333" d="M12 9h1v1h-1z M29 13h1v1h-1z M19 23h1v1h-1z M8 24h1v1h-1z M28 51h1v1h-1z M79 54h1v1h-1z"/>
  <path fill="#ffc006" fill-opacity="0.7412" d="M77 2h1v1h-1z M73 9h1v1h-1z"/>
  <path fill="#ffc106" fill-opacity="0.749" d="M16 10h1v1h-1z M83 10h1v1h-1z"/>
  <path fill="#895e51" fill-opacity="0.7647" d="M70 64h1v1h-1z"/>
  <path fill="#ffc006" fill-opacity="0.7686" d="M34 5h1v1h-1z M79 11h1v1h-1z M92 27h1v1h-1z M10 28h1v1h-1z M81 31h1v1h-1z M21 32h1v1h-1z M15 44h1v1h-1z M85 44h1v1h-1z"/>
  <path fill="#ffc106" fill-opacity="0.7765" d="M43 1h1v1h-1z M76 1h1v1h-1z M46 3h1v1h-1z M49 5h1v1h-1z M65 6h1v1h-1z"/>
  <path fill="#6a4940" fill-opacity="0.7804" d="M31 65h1v1h-1z"/>
  <path fill="#6c4a41" fill-opacity="0.7804" d="M37 73h1v1h-1z"/>
  <path fill="#68473e" fill-opacity="0.7843" d="M31 52h1v1h-1z"/>
  <path fill="#68483f" fill-opacity="0.7843" d="M69 53h1v1h-1z"/>
  <path fill="#ffc007" fill-opacity="0.7882" d="M27 7h1v1h-1z M21 34h1v1h-1z M16 37h1v1h-1z M11 40h1v1h-1z"/>
  <path fill="#ffc007" fill-opacity="0.8" d="M80 23h1v1h-1z M91 24h1v1h-1z M20 54h1v1h-1z"/>
  <path fill="#ffc107" fill-opacity="0.8078" d="M6 43h1v1h-1z M93 43h1v1h-1z"/>
  <path fill="#ffc107" fill-opacity="0.8118" d="M83 37h1v1h-1z M88 40h1v1h-1z"/>
  <path fill="#ffc007" fill-opacity="0.8196" d="M23 48h1v1h-1z M18 54h1v1h-1z"/>
  <path fill="#ffc107" fill-opacity="0.8235" d="M25 1h1v1h-1z M36 6h1v1h-1z M74 52h1v1h-1z"/>
  <path fill="#ffc007" fill-opacity="0.8353" d="M20 11h1v1h-1z M75 12h1v1h-1z M20 23h1v1h-1z M9 24h1v1h-1z M89 28h1v1h-1z M14 44h1v1h-1z M86 44h1v1h-1z M76 48h1v1h-1z M81 54h1v1h-1z"/>
  <path fill="#775246" fill-opacity="0.8471" d="M67 70h1v1h-1z"/>
  <path fill="#ffc007" fill-opacity="0.8471" d="M74 2h1v1h-1z M63 7h1v1h-1z"/>
  <path fill="#ffc007" fill-opacity="0.851" d="M25 52h1v1h-1z"/>
  <path fill="#ffc106" fill-opacity="0.8627" d="M74 7h1v1h-1z"/>
  <path fill="#67483e" fill-opacity="0.8667" d="M30 51h1v1h-1z"/>
  <path fill="#65453c" fill-opacity="0.8745" d="M70 52h1v1h-1z"/>
  <path fill="#895d51" fill-opacity="0.8745" d="M70 59h1v1h-1z"/>
  <path fill="#ffc106" fill-opacity="0.8745" d="M2 25h1v1h-1z M13 29h1v1h-1z"/>
  <path fill="#ffc006" fill-opacity="0.8824" d="M26 5h1v1h-1z M30 12h1v1h-1z"/>
  <path fill="#64453c" fill-opacity="0.8941" d="M64 73h1v1h-1z"/>
  <path fill="#66473d" fill-opacity="0.898" d="M34 70h1v1h-1z"/>
  <path fill="#ffc006" fill-opacity="0.898" d="M97 25h1v1h-1z M86 29h1v1h-1z"/>
  <path fill="#6f4e39" fill-opacity="0.902" d="M25 45h1v1h-1z"/>
  <path fill="#c99329" fill-opacity="0.902" d="M78 32h1v1h-1z"/>
  <path fill="#ffc006" fill-opacity="0.902" d="M24 12h1v1h-1z M21 23h1v1h-1z M79 23h1v1h-1z M10 24h1v1h-1z M90 24h1v1h-1z M13 44h1v1h-1z"/>
  <path fill="#66453d" fill-opacity="0.9059" d="M32 67h1v1h-1z"/>
  <path fill="#ffc106" fill-opacity="0.9098" d="M27 2h1v1h-1z M38 7h1v1h-1z"/>
  <path fill="#67473e" fill-opacity="0.9137" d="M36 72h1v1h-1z"/>
  <path fill="#ffc006" fill-opacity="0.9137" d="M24 47h1v1h-1z M19 53h1v1h-1z"/>
  <path fill="#ffc006" fill-opacity="0.9176" d="M88 9h1v1h-1z"/>
  <path fill="#875d50" fill-opacity="0.9216" d="M68 54h1v1h-1z"/>
  <path fill="#ffc106" fill-opacity="0.9216" d="M18 36h1v1h-1z M13 39h1v1h-1z M8 42h1v1h-1z"/>
  <path fill="#ffc106" fill-opacity="0.9255" d="M72 3h1v1h-1z M61 8h1v1h-1z M80 53h1v1h-1z"/>
  <path fill="#785248" fill-opacity="0.9294" d="M33 54h1v1h-1z"/>
  <path fill="#ffc007" fill-opacity="0.9294" d="M57 2h1v1h-1z M54 4h1v1h-1z"/>
  <path fill="#895e51" fill-opacity="0.9333" d="M40 97h22v1h-22z"/>
  <path fill="#66453d" fill-opacity="0.9373" d="M35 71h1v1h-1z"/>
  <path fill="#ffc107" fill-opacity="0.9373" d="M81 36h1v1h-1z M86 39h1v1h-1z M91 42h1v1h-1z M87 44h1v1h-1z"/>
  <path fill="#8b604f" fill-opacity="0.9412" d="M75 46h1v1h-1z"/>
  <path fill="#885e51" fill-opacity="0.9451" d="M31 58h1v1h-1z M70 63h1v1h-1z"/>
  <path fill="#ffc007" fill-opacity="0.9451" d="M75 5h1v1h-1z M11 9h1v1h-1z M71 12h1v1h-1z M28 13h1v1h-1z"/>
  <path fill="#d9a11d" fill-opacity="0.949" d="M75 47h1v1h-1z"/>
  <path fill="#ffc007" fill-opacity="0.949" d="M5 26h1v1h-1z M16 30h1v1h-1z"/>
  <path fill="#ffc106" fill-opacity="0.9529" d="M71 13h1v1h-1z"/>
  <path fill="#ffc107" fill-opacity="0.9529" d="M29 3h1v1h-1z M40 8h1v1h-1z M77 53h1v1h-1z"/>
  <path fill="#714e43" fill-opacity="0.9569" d="M62 74h1v1h-1z"/>
  <path fill="#ffc007" fill-opacity="0.9608" d="M25 3h1v1h-1z M15 10h1v1h-1z M84 10h1v1h-1z"/>
  <path fill="#62443c" fill-opacity="0.9647" d="M31 64h1v1h-1z"/>
  <path fill="#ffc007" fill-opacity="0.9647" d="M70 4h1v1h-1z M29 10h1v1h-1z M94 26h1v1h-1z M83 30h1v1h-1z"/>
  <path fill="#614339" fill-opacity="0.9686" d="M65 72h1v1h-1z"/>
  <path fill="#ffc107" fill-opacity="0.9686" d="M44 2h1v1h-1z M47 4h1v1h-1z M78 23h1v1h-1z M89 24h1v1h-1z M12 44h1v1h-1z M22 53h1v1h-1z"/>
  <path fill="#6c4c39" fill-opacity="0.9725" d="M71 51h1v1h-1z"/>
  <path fill="#885d51" fill-opacity="0.9725" d="M69 56h1v1h-1z"/>
  <path fill="#f0b50c" fill-opacity="0.9725" d="M25 46h1v1h-1z"/>
  <path fill="#ffc107" fill-opacity="0.9725" d="M20 52h1v1h-1z"/>
  <path fill="#946749" fill-opacity="0.9765" d="M78 34h1v1h-1z"/>
  <path fill="#ffc007" fill-opacity="0.9765" d="M80 11h1v1h-1z"/>
  <path fill="#5f4139" fill-opacity="0.9804" d="M66 71h1v1h-1z"/>
  <path fill="#f5b90c" fill-opacity="0.9804" d="M72 51h1v1h-1z"/>
  <path fill="#ffc007" fill-opacity="0.9804" d="M79 52h1v1h-1z"/>
  <path fill="#604239" fill-opacity="0.9843" d="M39 74h1v1h-1z"/>
  <path fill="#895e51" fill-opacity="0.9843" d="M70 60h1v1h-1z"/>
  <path fill="#ffc107" fill-opacity="0.9843" d="M8 27h1v1h-1z M19 31h1v1h-1z"/>
  <path fill="#41b191" fill-opacity="0.9882" d="M51 6h1v1h-1z"/>
  <path fill="#885e50" fill-opacity="0.9882" d="M68 68h1v1h-1z"/>
  <path fill="#ffc107" fill-opacity="0.9882" d="M76 3h1v1h-1z M68 5h1v1h-1z M72 10h1v1h-1z M19 11h1v1h-1z"/>
  <path fill="#ffc007" fill-opacity="0.9922" d="M31 4h1v1h-1z M91 27h1v1h-1z M80 31h1v1h-1z M20 35h1v1h-1z M15 38h1v1h-1z M10 41h1v1h-1z M5 44h1v1h-1z M27 51h1v1h-1z"/>
  <path fill="#43b090" fill-opacity="0.9961" d="M50 6h1v1h-1z"/>
  <path fill="#6f4e36" fill-opacity="0.9961" d="M24 43h1v1h-1z"/>
  <path fill="#885e51" fill-opacity="0.9961" d="M76 44h1v1h-1z"/>
  <path fill="#fbbd09" fill-opacity="0.9961" d="M79 35h1v1h-1z"/>
  <path fill="#ffc007" fill-opacity="0.9961" d="M24 1h1v1h-1z M28 8h1v1h-1z M76 12h1v1h-1z M84 38h1v1h-1z M89 41h1v1h-1z M94 44h1v1h-1z M80 54h1v1h-1z"/>
  <path fill="#00abc0" d="M38 35h1v1h-1z M39 36h1v1h-1z M55 40h1v1h-1z"/>
  <path fill="#00acc1" d="M46 7h10v5h-10z M44 8h2v5h-2z M56 8h2v32h-2z M42 9h2v6h-2z M58 9h2v30h-2z M41 10h1v7h-1z M60 10h1v28h-1z M39 11h2v7h-2z M61 11h2v26h-2z M38 12h1v23h-1z M46 12h2v1h-2z M53 12h3v2h-3z M63 12h1v24h-1z M44 13h1v1h-1z M37 14h1v20h-1z M54 14h2v26h-2z M64 14h1v20h-1z M36 15h1v18h-1z M65 15h1v18h-1z M53 16h1v25h-1z M35 17h1v14h-1z M49 17h4v24h-4z M66 17h1v14h-1z M39 18h1v3h-1z M47 18h2v23h-2z M46 19h1v21h-1z M67 19h1v10h-1z M34 20h1v8h-1z M45 20h1v20h-1z M44 23h1v17h-1z M39 26h2v10h-2z M42 26h2v13h-2z M41 27h1v11h-1z M40 36h1v1h-1z M54 40h1v1h-1z"/>
  <path fill="#01aabf" d="M61 37h1v1h-1z"/>
  <path fill="#01abbf" d="M34 28h1v1h-1z M64 34h1v1h-1z"/>
  <path fill="#01abc0" d="M46 40h1v1h-1z"/>
  <path fill="#01acc0" d="M61 10h1v1h-1z M64 13h1v1h-1z M34 19h1v1h-1z"/>
  <path fill="#01acc1" d="M53 15h1v1h-1z M44 22h1v1h-1z"/>
  <path fill="#02adbf" d="M40 10h1v1h-1z"/>
  <path fill="#02adc1" d="M39 25h1v1h-1z M41 26h1v1h-1z"/>
  <path fill="#03a8bc" d="M37 34h1v1h-1z"/>
  <path fill="#03a9bd" d="M40 37h1v1h-1z"/>
  <path fill="#03acbf" d="M37 13h1v1h-1z"/>
  <path fill="#04a8bb" d="M66 31h1v1h-1z"/>
  <path fill="#05adbd" d="M66 16h1v1h-1z"/>
  <path fill="#05aec2" d="M42 15h1v1h-1z"/>
  <path fill="#06a5b8" d="M58 39h1v1h-1z"/>
  <path fill="#06adbc" d="M58 8h1v1h-1z"/>
  <path fill="#07a3b6" d="M35 31h1v1h-1z M43 39h1v1h-1z"/>
  <path fill="#09adba" d="M43 8h1v1h-1z"/>
  <path fill="#0a9fb1" d="M65 33h1v1h-1z"/>
  <path fill="#0bb0c4" d="M52 12h1v1h-1z"/>
  <path fill="#0c9dae" d="M60 38h1v1h-1z"/>
  <path fill="#0e9bac" d="M67 29h1v1h-1z"/>
  <path fill="#0f9aaa" d="M41 38h1v1h-1z"/>
  <path fill="#0f9aab" d="M36 33h1v1h-1z"/>
  <path fill="#0fadb6" d="M35 16h1v1h-1z"/>
  <path fill="#0fb1c5" d="M40 18h1v1h-1z"/>
  <path fill="#12b2c5" d="M53 14h1v1h-1z"/>
  <path fill="#1395a4" d="M56 40h1v1h-1z"/>
  <path fill="#13b2c6" d="M45 13h1v1h-1z"/>
  <path fill="#14aeb3" d="M60 9h1v1h-1z M65 14h1v1h-1z"/>
  <path fill="#1593a1" d="M45 40h1v1h-1z"/>
  <path fill="#1593a2" d="M34 29h1v1h-1z"/>
  <path fill="#1aaeae" d="M41 9h1v1h-1z"/>
  <path fill="#1eafab" d="M56 7h1v1h-1z M36 14h1v1h-1z"/>
  <path fill="#1eb6c8" d="M52 16h1v1h-1z"/>
  <path fill="#208590" d="M50 41h2v1h-2z"/>
  <path fill="#20aeaa" d="M67 18h1v1h-1z"/>
  <path fill="#20b6c9" d="M43 25h1v1h-1z"/>
  <path fill="#21939f" d="M68 24h1v1h-1z"/>
  <path fill="#21b7c9" d="M39 21h1v1h-1z"/>
  <path fill="#2496a1" d="M68 23h1v1h-1z"/>
  <path fill="#24afa7" d="M45 7h1v1h-1z"/>
  <path fill="#257f89" d="M49 41h1v1h-1z"/>
  <path fill="#258088" d="M52 41h1v1h-1z"/>
  <path fill="#258d97" d="M68 25h1v1h-1z"/>
  <path fill="#26b8ca" d="M48 17h1v1h-1z"/>
  <path fill="#2b7980" d="M66 32h1v1h-1z"/>
  <path fill="#2c8d96" d="M33 24h1v1h-1z"/>
  <path fill="#2d777d" d="M63 36h1v1h-1z"/>
  <path fill="#2e757b" d="M59 39h1v1h-1z"/>
  <path fill="#2f7479" d="M67 30h1v1h-1z"/>
  <path fill="#2f878e" d="M33 25h1v1h-1z"/>
  <path fill="#2f8f99" d="M33 23h1v1h-1z"/>
  <path fill="#307379" d="M53 41h1v1h-1z"/>
  <path fill="#30bccd" d="M48 12h1v1h-1z"/>
  <path fill="#317277" d="M35 32h1v1h-1z M48 41h1v1h-1z"/>
  <path fill="#317f85" d="M68 26h1v1h-1z"/>
  <path fill="#327076" d="M42 39h1v1h-1z"/>
  <path fill="#329899" d="M68 22h1v1h-1z"/>
  <path fill="#32b09c" d="M34 18h1v1h-1z"/>
  <path fill="#336f73" d="M64 35h1v1h-1z"/>
  <path fill="#336f74" d="M38 36h1v1h-1z"/>
  <path fill="#346d72" d="M62 37h1v1h-1z"/>
  <path fill="#346e72" d="M57 40h1v1h-1z"/>
  <path fill="#34bdce" d="M44 21h1v1h-1z"/>
  <path fill="#366b70" d="M34 30h1v1h-1z"/>
  <path fill="#376b6e" d="M44 40h1v1h-1z"/>
  <path fill="#38787c" d="M33 26h1v1h-1z"/>
  <path fill="#39676a" d="M39 37h1v1h-1z"/>
  <path fill="#39686b" d="M37 35h1v1h-1z"/>
  <path fill="#3e6163" d="M54 41h1v1h-1z"/>
  <path fill="#405f61" d="M47 41h1v1h-1z"/>
  <path fill="#406e6f" d="M68 27h1v1h-1z"/>
  <path fill="#40948e" d="M33 22h1v1h-1z"/>
  <path fill="#435b5c" d="M65 34h1v1h-1z"/>
  <path fill="#465857" d="M61 38h1v1h-1z"/>
  <path fill="#46c3d2" d="M39 22h1v1h-1z"/>
  <path fill="#496767" d="M33 27h1v1h-1z"/>
  <path fill="#4a5451" d="M40 38h1v1h-1z"/>
  <path fill="#4b5350" d="M36 34h1v1h-1z"/>
  <path fill="#4cc5d3" d="M46 18h1v1h-1z M39 24h1v1h-1z"/>
  <path fill="#50c6d4" d="M45 19h1v1h-1z"/>
  <path fill="#534943" d="M67 31h1v1h-1z"/>
  <path fill="#53b384" d="M52 6h1v1h-1z"/>
  <path fill="#544742" d="M55 41h1v1h-1z"/>
  <path fill="#554640" d="M46 41h1v1h-1z"/>
  <path fill="#55b383" d="M49 6h1v1h-1z"/>
  <path fill="#56453f" d="M58 40h1v1h-1z"/>
  <path fill="#57433d" d="M34 31h1v1h-1z M43 40h1v1h-1z"/>
  <path fill="#57443d" d="M66 33h1v1h-1z"/>
  <path fill="#58433c" d="M60 39h1v1h-1z"/>
  <path fill="#59413a" d="M41 39h1v1h-1z"/>
  <path fill="#59423b" d="M35 33h1v1h-1z"/>
  <path fill="#595550" d="M68 28h1v1h-1z"/>
  <path fill="#59c9d7" d="M49 12h1v1h-1z"/>
  <path fill="#5b3f37" d="M34 32h1v1h-1z M67 32h1v1h-1z M35 34h1v1h-1z M66 34h1v1h-1z M36 35h1v2h-1z M65 35h1v2h-1z M37 36h1v2h-1z M64 36h1v3h-1z M38 37h1v3h-1z M63 37h1v3h-1z M39 38h1v3h-1z M62 38h1v3h-1z M40 39h1v3h-1z M61 39h1v3h-1z M41 40h2v2h-2z M59 40h2v2h-2z M43 41h3v4h-3z M56 41h3v2h-3z M42 42h1v2h-1z M46 42h10v3h-10z M59 42h1v1h-1z M56 43h2v1h-2z M25 44h1v1h-1z M26 45h1v1h-1z M44 45h6v1h-6z M27 46h1v1h-1z M45 46h6v1h-6z M28 47h2v2h-2z M46 47h5v1h-5z M30 48h1v3h-1z M47 48h5v1h-5z M29 49h1v1h-1z M31 49h1v3h-1z M48 49h4v1h-4z M65 49h5v1h-5z M32 50h2v3h-2z M50 50h3v1h-3z M66 50h6v1h-6z M34 51h1v3h-1z M51 51h2v1h-2z M67 51h4v1h-4z M35 52h1v3h-1z M52 52h2v1h-2z M68 52h2v1h-2z M36 53h2v3h-2z M53 53h1v1h-1z M38 54h1v3h-1z M54 54h1v1h-1z M39 55h1v3h-1z M37 56h1v1h-1z M40 56h1v3h-1z M41 57h1v3h-1z M42 58h1v3h-1z M43 59h1v3h-1z M44 60h1v3h-1z M45 61h1v3h-1z M46 62h1v3h-1z M47 63h1v3h-1z M32 65h1v2h-1z M48 65h1v2h-1z M33 66h2v2h-2z M49 66h1v2h-1z M60 66h1v2h-1z M35 67h1v4h-1z M61 67h2v3h-2z M34 68h1v2h-1z M36 68h2v4h-2z M50 68h1v1h-1z M63 68h1v6h-1z M38 69h1v4h-1z M64 69h1v4h-1z M39 70h1v4h-1z M62 70h1v2h-1z M65 70h1v2h-1z M40 71h1v4h-1z M37 72h1v1h-1z M41 72h1v4h-1z M42 73h1v3h-1z M43 74h1v3h-1z M44 75h1v3h-1z M45 77h1v2h-1z M46 79h1v1h-1z"/>
  <path fill="#5b3f38" d="M41 42h1v1h-1z"/>
  <path fill="#5b4038" d="M58 43h1v1h-1z M33 53h1v1h-1z M66 70h1v1h-1z"/>
  <path fill="#5c3f37" d="M66 35h1v1h-1z M37 38h1v1h-1z M63 48h1v1h-1z M64 49h1v1h-1z M49 50h1v1h-1z M50 51h1v1h-1z M33 65h1v1h-1z M36 67h1v1h-1z M38 73h1v1h-1z M46 78h1v1h-1z M47 80h1v1h-1z"/>
  <path fill="#5c3f38" d="M50 45h1v1h-1z"/>
  <path fill="#5c4037" d="M24 42h1v1h-1z M28 46h1v1h-1z M40 70h1v1h-1z"/>
  <path fill="#5c4038" d="M27 47h1v1h-1z M36 52h1v1h-1z M51 52h1v1h-1z M38 57h1v1h-1z M33 68h1v1h-1z M41 71h1v1h-1z"/>
  <path fill="#5c4138" d="M35 35h1v1h-1z M52 53h1v1h-1z M42 76h1v1h-1z"/>
  <path fill="#5d4038" d="M60 42h1v1h-1z M34 54h1v1h-1z M53 54h1v1h-1z M54 55h1v1h-1z M65 69h1v1h-1z M62 72h1v1h-1z"/>
  <path fill="#5d4138" d="M48 64h1v1h-1z M45 76h1v1h-1z"/>
  <path fill="#5e4138" d="M65 37h1v1h-1z M56 44h1v1h-1z M39 58h1v1h-1z M43 58h1v1h-1z M42 72h1v1h-1z"/>
  <path fill="#5e4139" d="M27 45h1v1h-1z M32 49h1v1h-1z M42 57h1v1h-1z M44 59h1v1h-1z M59 65h1v2h-1z M39 69h1v1h-1z M50 69h1v1h-1z"/>
  <path fill="#5f4139" d="M25 43h1v1h-1z M26 44h1v1h-1z M52 49h1v1h-1z"/>
  <path fill="#5f423a" d="M64 48h1v1h-1z M70 49h1v1h-1z M41 56h1v1h-1z M61 66h1v1h-1z M64 68h1v1h-1z M43 77h1v1h-1z"/>
  <path fill="#5fcbd8" d="M39 23h1v1h-1z"/>
  <path fill="#60423a" d="M67 33h1v1h-1z M51 47h1v1h-1z M62 48h1v1h-1z M53 51h1v1h-1z M43 73h1v1h-1z"/>
  <path fill="#604339" d="M36 37h1v1h-1z"/>
  <path fill="#60433b" d="M65 50h1v1h-1z"/>
  <path fill="#61423a" d="M45 60h1v1h-1z"/>
  <path fill="#61433a" d="M40 55h1v1h-1z"/>
  <path fill="#61443b" d="M35 51h1v1h-1z"/>
  <path fill="#62433b" d="M35 55h1v1h-1z"/>
  <path fill="#624439" d="M26 46h1v1h-1z"/>
  <path fill="#62443b" d="M35 66h1v1h-1z M49 68h1v1h-1z"/>
  <path fill="#63443b" d="M40 59h1v1h-1z"/>
  <path fill="#63443c" d="M34 33h1v1h-1z M39 54h1v1h-1z M32 64h1v1h-1z M38 68h1v1h-1z M47 81h1v1h-1z"/>
  <path fill="#635049" d="M33 28h1v1h-1z"/>
  <path fill="#64453c" d="M51 45h1v1h-1z M65 48h1v1h-1z M55 56h1v1h-1z M46 61h1v1h-1z M60 68h1v1h-1z M44 78h1v1h-1z"/>
  <path fill="#64453d" d="M48 82h1v1h-1z"/>
  <path fill="#64cdd9" d="M41 17h1v1h-1z"/>
  <path fill="#65453c" d="M68 53h1v1h-1z"/>
  <path fill="#65463c" d="M46 80h1v1h-1z"/>
  <path fill="#65463d" d="M61 70h1v1h-1z"/>
  <path fill="#66463d" d="M31 48h1v1h-1z M54 53h1v1h-1z M51 70h1v1h-1z M45 79h1v1h-1z"/>
  <path fill="#66473e" d="M66 51h1v1h-1z M50 67h1v1h-1z M44 74h1v1h-1z"/>
  <path fill="#66cdda" d="M51 12h1v1h-1z"/>
  <path fill="#67463d" d="M52 45h1v1h-1z"/>
  <path fill="#67b576" d="M63 11h1v1h-1z"/>
  <path fill="#68483e" d="M67 52h1v1h-1z M63 67h1v1h-1z"/>
  <path fill="#68b575" d="M59 8h1v1h-1z"/>
  <path fill="#69483e" d="M66 48h1v1h-1z M48 67h1v1h-1z"/>
  <path fill="#69483f" d="M38 53h1v1h-1z M41 60h1v1h-1z M62 73h1v1h-1z"/>
  <path fill="#69493f" d="M58 65h1v1h-1z"/>
  <path fill="#6a493f" d="M68 29h1v1h-1z M46 77h1v1h-1z"/>
  <path fill="#6a4940" d="M51 71h1v1h-1z"/>
  <path fill="#6a4a3f" d="M63 40h1v1h-1z"/>
  <path fill="#6ab474" d="M66 15h1v1h-1z"/>
  <path fill="#6acedb" d="M44 14h1v1h-1z"/>
  <path fill="#6b4a40" d="M59 43h1v1h-1z M53 45h1v1h-1z M31 63h1v1h-1z M49 65h1v1h-1z"/>
  <path fill="#6c4b40" d="M36 56h1v1h-1z M40 75h1v1h-1z M47 79h1v1h-1z"/>
  <path fill="#6c4b41" d="M47 62h1v1h-1z"/>
  <path fill="#6d4a40" d="M66 36h1v1h-1z M34 50h1v1h-1z"/>
  <path fill="#6d4b41" d="M33 29h1v1h-1z M42 61h1v1h-1z"/>
  <path fill="#6e4b42" d="M62 41h1v1h-1z M57 44h1v1h-1z"/>
  <path fill="#6e4c41" d="M38 40h1v1h-1z"/>
  <path fill="#6e4c42" d="M64 39h1v1h-1z M30 47h1v1h-1z"/>
  <path fill="#6f4c42" d="M67 48h1v1h-1z"/>
  <path fill="#6f4d42" d="M68 30h1v1h-1z M35 36h1v1h-1z M48 81h1v1h-1z"/>
  <path fill="#6fb570" d="M53 6h1v1h-1z"/>
  <path fill="#704d42" d="M39 41h1v1h-1z"/>
  <path fill="#704d43" d="M67 34h1v1h-1z M43 45h1v1h-1z M44 46h1v1h-1z M45 47h1v1h-1z M71 49h1v1h-1z M47 66h1v1h-1z M37 67h1v1h-1z"/>
  <path fill="#714e43" d="M63 49h1v1h-1z M43 62h1v1h-1z M34 65h1v1h-1z"/>
  <path fill="#714e44" d="M46 48h1v1h-1z M51 69h1v1h-1z"/>
  <path fill="#71b56f" d="M68 21h1v1h-1z"/>
  <path fill="#71d1dc" d="M50 12h1v1h-1z"/>
  <path fill="#724e43" d="M37 39h1v1h-1z M55 55h1v1h-1z"/>
  <path fill="#724e44" d="M33 30h1v1h-1z"/>
  <path fill="#724f44" d="M46 65h1v1h-1z"/>
  <path fill="#72b56e" d="M42 8h1v1h-1z"/>
  <path fill="#734f45" d="M34 34h1v1h-1z M54 45h1v1h-1z M47 49h1v1h-1z M53 50h1v1h-1z M45 64h1v1h-1z M60 65h1v1h-1z"/>
  <path fill="#73b56d" d="M48 6h1v1h-1z"/>
  <path fill="#745045" d="M52 48h1v1h-1z M48 50h1v1h-1z M37 52h1v1h-1z M55 57h1v1h-1z M44 63h1v1h-1z"/>
  <path fill="#755145" d="M40 42h1v1h-1z"/>
  <path fill="#765146" d="M42 44h1v1h-1z M61 48h1v1h-1z M45 75h1v1h-1z"/>
  <path fill="#765147" d="M68 31h1v1h-1z M51 46h1v1h-1z M37 57h1v1h-1z"/>
  <path fill="#775146" d="M59 67h1v1h-1z"/>
  <path fill="#775247" d="M29 46h1v1h-1z M49 51h1v1h-1z M48 63h1v1h-1z"/>
  <path fill="#775348" d="M41 76h1v1h-1z"/>
  <path fill="#785247" d="M61 42h1v1h-1z M50 70h1v1h-1z"/>
  <path fill="#785248" d="M62 66h1v1h-1z"/>
  <path fill="#785347" d="M65 38h1v1h-1z M68 48h1v1h-1z M58 64h1v1h-1z"/>
  <path fill="#785348" d="M41 43h1v1h-1z"/>
  <path fill="#78b669" d="M38 11h1v1h-1z"/>
  <path fill="#795348" d="M24 41h1v1h-1z M54 52h1v1h-1z"/>
  <path fill="#795448" d="M33 49h1v1h-1z M50 52h1v1h-1z M66 69h1v1h-1z"/>
  <path fill="#79563a" d="M72 50h1v1h-1z"/>
  <path fill="#7a5349" d="M33 31h1v1h-1z M61 71h1v1h-1z"/>
  <path fill="#7a5448" d="M41 70h1v1h-1z"/>
  <path fill="#7ab668" d="M57 7h1v1h-1z M62 10h1v1h-1z"/>
  <path fill="#7b5549" d="M54 56h1v1h-1z"/>
  <path fill="#7bb667" d="M64 12h1v1h-1z M35 15h1v1h-1z M67 17h1v1h-1z"/>
  <path fill="#7c554a" d="M36 38h1v1h-1z M51 53h1v1h-1z M38 58h1v1h-1z M42 71h1v1h-1z M49 83h1v1h-1z"/>
  <path fill="#7c5937" d="M29 50h1v1h-1z"/>
  <path fill="#7d564a" d="M40 69h1v1h-1z"/>
  <path fill="#7e564a" d="M50 66h1v1h-1z M60 69h1v1h-1z"/>
  <path fill="#7e564b" d="M52 54h1v1h-1z"/>
  <path fill="#7e574b" d="M25 42h1v1h-1z M28 45h1v1h-1z M55 45h1v1h-1z M64 50h1v1h-1z M53 55h1v1h-1z M48 83h1v1h-1z"/>
  <path fill="#7ed5e0" d="M40 19h1v1h-1z"/>
  <path fill="#7f574b" d="M65 68h1v1h-1z"/>
  <path fill="#7f574c" d="M49 84h1v1h-1z"/>
  <path fill="#7f584c" d="M36 66h1v1h-1z"/>
  <path fill="#80574b" d="M43 57h1v1h-1z"/>
  <path fill="#80584b" d="M42 77h1v1h-1z"/>
  <path fill="#80584c" d="M27 44h1v1h-1z M36 51h1v1h-1z M55 54h1v1h-1z M42 56h1v1h-1z M44 58h1v1h-1z M33 64h1v1h-1z M57 64h1v1h-1z M51 68h1v1h-1z"/>
  <path fill="#81584d" d="M68 32h1v1h-1z"/>
  <path fill="#81594c" d="M58 44h1v1h-1z M34 55h1v1h-1z M43 72h1v1h-1z M51 72h1v1h-1z M47 78h1v1h-1z"/>
  <path fill="#81b763" d="M44 7h1v1h-1z"/>
  <path fill="#82594d" d="M67 35h1v1h-1z M45 59h1v1h-1z"/>
  <path fill="#83594d" d="M26 43h1v1h-1z M49 69h1v1h-1z"/>
  <path fill="#835a4e" d="M32 48h1v1h-1z M69 48h1v1h-1z M41 55h1v1h-1z M39 59h1v1h-1z M39 68h1v1h-1z M48 80h1v1h-1z"/>
  <path fill="#83b762" d="M33 21h1v1h-1z"/>
  <path fill="#845a4d" d="M46 76h1v1h-1z"/>
  <path fill="#845a4f" d="M33 32h1v1h-1z M66 37h1v1h-1z M43 78h1v1h-1z"/>
  <path fill="#845b4e" d="M60 43h1v1h-1z M40 54h1v1h-1z M46 60h1v1h-1z M49 64h1v1h-1z M58 66h1v1h-1z M44 73h1v1h-1z"/>
  <path fill="#855b4f" d="M34 35h1v1h-1z M72 49h1v1h-1z M65 51h1v1h-1z M56 57h1v1h-1z M46 81h1v1h-1z"/>
  <path fill="#855c4f" d="M64 67h1v1h-1z M47 82h1v1h-1z"/>
  <path fill="#855e36" d="M28 49h1v1h-1z"/>
  <path fill="#865c4f" d="M39 53h1v1h-1z M40 60h1v1h-1z"/>
  <path fill="#865c50" d="M35 37h1v1h-1z M61 47h1v1h-1z M48 68h1v1h-1z M45 80h1v1h-1z"/>
  <path fill="#875c50" d="M44 79h1v1h-1z"/>
  <path fill="#875d50" d="M53 49h1v1h-1z M35 50h1v1h-1z M67 53h1v1h-1z M35 56h1v1h-1z M56 58h1v1h-1z M47 61h1v1h-1z M32 63h1v1h-1z M59 64h1v1h-1z M61 65h1v1h-1z M52 72h1v1h-1z M61 72h1v1h-1z"/>
  <path fill="#875d51" d="M38 67h1v1h-1z"/>
  <path fill="#876038" d="M23 40h1v1h-1z"/>
  <path fill="#885c50" d="M60 48h1v1h-1z M62 49h1v1h-1z M66 52h1v1h-1z"/>
  <path fill="#885d50" d="M56 45h1v1h-1z M31 47h1v1h-1z M52 47h1v1h-1z M60 47h1v1h-1z M54 51h1v1h-1z M31 62h1v1h-1z M35 65h1v1h-1z M49 85h1v1h-1z"/>
  <path fill="#885e51" d="M68 33h1v1h-1z M37 40h1v1h-1z M64 40h1v1h-1z M38 41h1v1h-1z M63 41h1v1h-1z M43 46h1v1h-1z M38 52h1v1h-1z M41 61h1v1h-1z M42 62h1v1h-1z M59 68h1v1h-1z M49 82h1v1h-1z"/>
  <path fill="#895d50" d="M47 67h1v1h-1z M45 74h1v1h-1z"/>
  <path fill="#895e51" d="M32 23h1v25h-1z M69 23h1v25h-1z M31 24h1v23h-1z M70 24h1v25h-1z M29 25h2v21h-2z M71 25h2v24h-2z M28 26h1v19h-1z M73 26h1v23h-1z M27 27h1v17h-1z M74 27h1v20h-1z M26 28h1v15h-1z M75 28h1v18h-1z M25 30h1v12h-1z M76 30h1v14h-1z M24 32h1v9h-1z M77 32h1v10h-1z M33 33h1v16h-1z M68 34h1v14h-1z M78 35h1v4h-1z M34 36h1v14h-1z M67 36h1v12h-1z M23 37h1v1h-1z M35 38h1v12h-1z M66 38h1v10h-1z M36 39h1v12h-1z M65 39h1v9h-1z M37 41h1v11h-1z M64 41h1v7h-1z M38 42h2v10h-2z M62 42h2v6h-2z M40 43h1v11h-1z M61 43h1v4h-1z M41 44h1v11h-1z M59 44h2v3h-2z M42 45h1v11h-1z M57 45h2v19h-2z M30 46h1v1h-1z M52 46h5v1h-5z M43 47h2v10h-2z M53 47h4v2h-4z M59 47h1v17h-1z M45 48h1v11h-1z M46 49h1v11h-1z M54 49h3v2h-3z M60 49h2v16h-2z M47 50h1v11h-1z M62 50h2v16h-2z M48 51h1v12h-1z M55 51h2v3h-2z M64 51h1v16h-1z M39 52h1v1h-1z M49 52h1v12h-1z M65 52h1v16h-1z M50 53h1v13h-1z M66 53h1v16h-1z M51 54h1v14h-1z M56 54h1v3h-1z M67 54h1v16h-1z M33 55h1v9h-1z M52 55h1v17h-1z M68 55h1v13h-1z M32 56h1v7h-1z M34 56h1v9h-1z M53 56h1v41h-1z M35 57h2v8h-2z M44 57h1v1h-1z M54 57h1v40h-1z M69 57h1v10h-1z M37 58h1v9h-1z M55 58h1v39h-1z M31 59h1v3h-1z M38 59h1v8h-1z M56 59h1v38h-1z M39 60h1v8h-1z M40 61h1v8h-1z M70 61h1v2h-1z M41 62h1v8h-1z M42 63h2v8h-2z M44 64h1v9h-1z M36 65h1v1h-1z M45 65h1v9h-1z M57 65h1v32h-1z M46 66h1v10h-1z M63 66h1v1h-1z M58 67h1v30h-1z M47 68h1v10h-1z M48 69h1v11h-1z M59 69h1v28h-1z M49 70h1v12h-1z M60 70h1v27h-1z M43 71h1v1h-1z M50 71h1v26h-1z M51 73h2v24h-2z M61 73h1v24h-1z M40 76h1v21h-1z M41 77h1v20h-1z M42 78h1v19h-1z M43 79h1v18h-1z M44 80h1v17h-1z M45 81h1v16h-1z M46 82h1v15h-1z M47 83h1v14h-1z M48 84h1v13h-1z M49 86h1v11h-1z"/>
  <path fill="#895f51" d="M71 24h1v1h-1z M23 36h1v1h-1z M77 42h1v1h-1z"/>
  <path fill="#89b85d" d="M39 10h1v1h-1z"/>
  <path fill="#89d9e2" d="M46 13h1v1h-1z"/>
  <path fill="#8a5f50" d="M74 47h1v1h-1z"/>
  <path fill="#8c604f" d="M23 38h1v1h-1z"/>
  <path fill="#8c614f" d="M30 24h1v1h-1z"/>
  <path fill="#8cb85b" d="M37 12h1v1h-1z"/>
  <path fill="#8d624e" d="M77 31h1v1h-1z"/>
  <path fill="#8e624e" d="M76 29h1v1h-1z M78 39h1v1h-1z"/>
  <path fill="#8eb75a" d="M34 17h1v1h-1z"/>
  <path fill="#8f644d" d="M23 35h1v1h-1z"/>
  <path fill="#906546" d="M23 39h1v1h-1z"/>
  <path fill="#90682e" d="M23 41h1v1h-1z"/>
  <path fill="#91dbe4" d="M51 16h1v1h-1z"/>
  <path fill="#92664c" d="M25 29h1v1h-1z"/>
  <path fill="#93664b" d="M24 31h1v1h-1z"/>
  <path fill="#97dde6" d="M42 16h1v1h-1z"/>
  <path fill="#98b852" d="M54 6h1v1h-1z"/>
  <path fill="#9ab950" d="M68 20h1v1h-1z"/>
  <path fill="#9adee6" d="M43 15h1v1h-1z"/>
  <path fill="#9cb94f" d="M47 6h1v1h-1z"/>
  <path fill="#9d712d" d="M27 48h1v1h-1z"/>
  <path fill="#9ddfe7" d="M47 17h1v1h-1z"/>
  <path fill="#9edfe7" d="M40 25h1v1h-1z"/>
  <path fill="#9f7143" d="M70 23h1v1h-1z"/>
  <path fill="#9fe0e8" d="M43 24h1v1h-1z"/>
  <path fill="#a07242" d="M23 34h1v1h-1z"/>
  <path fill="#a27241" d="M74 26h1v1h-1z"/>
  <path fill="#a37441" d="M31 23h1v1h-1z"/>
  <path fill="#a57640" d="M78 40h1v1h-1z"/>
  <path fill="#a6773f" d="M73 25h1v1h-1z"/>
  <path fill="#a6e2e9" d="M44 20h1v1h-1z"/>
  <path fill="#a7773e" d="M27 26h1v1h-1z"/>
  <path fill="#aa793c" d="M75 27h1v1h-1z"/>
  <path fill="#adba43" d="M33 20h1v1h-1z"/>
  <path fill="#ae7e3a" d="M77 43h1v1h-1z"/>
  <path fill="#aebb42" d="M65 13h1v1h-1z"/>
  <path fill="#b07f38" d="M28 25h1v1h-1z"/>
  <path fill="#b0ba41" d="M61 9h1v1h-1z"/>
  <path fill="#b18037" d="M73 49h1v1h-1z"/>
  <path fill="#b68335" d="M77 30h1v1h-1z"/>
  <path fill="#b78535" d="M26 27h1v1h-1z"/>
  <path fill="#b7e8ed" d="M50 16h1v1h-1z"/>
  <path fill="#bb8832" d="M23 33h1v1h-1z"/>
  <path fill="#bbbc38" d="M40 9h1v1h-1z"/>
  <path fill="#bc8831" d="M72 24h1v1h-1z"/>
  <path fill="#bf8c2f" d="M24 30h1v1h-1z"/>
  <path fill="#c0bb35" d="M36 13h1v1h-1z"/>
  <path fill="#c18f20" d="M26 47h1v1h-1z"/>
  <path fill="#c2ebf0" d="M52 13h1v1h-1z"/>
  <path fill="#c48f2c" d="M74 48h1v1h-1z"/>
  <path fill="#c8932a" d="M76 28h1v1h-1z"/>
  <path fill="#c99329" d="M78 41h1v1h-1z"/>
  <path fill="#cbeef2" d="M43 23h1v1h-1z"/>
  <path fill="#cc9627" d="M29 24h1v1h-1z"/>
  <path fill="#cdeff3" d="M42 25h1v1h-1z"/>
  <path fill="#d19a23" d="M25 28h1v1h-1z"/>
  <path fill="#d39d22" d="M69 22h1v1h-1z"/>
  <path fill="#d39e16" d="M23 42h1v1h-1z"/>
  <path fill="#d5bd26" d="M55 6h1v1h-1z"/>
  <path fill="#d5f1f5" d="M40 20h1v1h-1z"/>
  <path fill="#d7be24" d="M68 19h1v1h-1z"/>
  <path fill="#d7f2f5" d="M52 15h1v1h-1z"/>
  <path fill="#d8a020" d="M23 32h1v1h-1z"/>
  <path fill="#d9a11f" d="M32 22h1v1h-1z"/>
  <path fill="#d9be23" d="M46 6h1v1h-1z"/>
  <path fill="#dbf3f6" d="M49 16h1v1h-1z"/>
  <path fill="#e1be1d" d="M67 16h1v1h-1z"/>
  <path fill="#e1f5f8" d="M47 13h1v1h-1z"/>
  <path fill="#e2a819" d="M71 23h1v1h-1z"/>
  <path fill="#e2bf1c" d="M58 7h1v1h-1z"/>
  <path fill="#e6ad17" d="M30 23h1v1h-1z"/>
  <path fill="#e8c017" d="M43 7h1v1h-1z"/>
  <path fill="#e9bf17" d="M33 19h1v1h-1z"/>
  <path fill="#e9f8fa" d="M43 22h1v1h-1z"/>
  <path fill="#ebf8fa" d="M41 18h1v1h-1z"/>
  <path fill="#edb212" d="M78 42h1v1h-1z"/>
  <path fill="#edbf15" d="M66 14h1v1h-1z"/>
  <path fill="#eeb312" d="M79 37h1v1h-1z"/>
  <path fill="#f0c012" d="M34 16h1v1h-1z"/>
  <path fill="#f0fafb" d="M45 14h1v1h-1z"/>
  <path fill="#f1b510" d="M77 29h1v1h-1z"/>
  <path fill="#f4b80d" d="M79 36h1v1h-1z"/>
  <path fill="#f4c00f" d="M35 14h1v1h-1z"/>
  <path fill="#f4fbfc" d="M45 18h1v1h-1z"/>
  <path fill="#f7ba0c" d="M24 29h1v1h-1z M78 31h1v1h-1z"/>
  <path fill="#f8bc0c" d="M22 37h1v1h-1z"/>
  <path fill="#f9bb0b" d="M74 25h1v1h-1z M75 26h1v1h-1z M79 38h1v1h-1z"/>
  <path fill="#fafdfe" d="M41 25h1v1h-1z"/>
  <path fill="#fbbe0a" d="M26 26h1v1h-1z"/>
  <path fill="#fcbe09" d="M73 24h1v1h-1z M23 31h1v1h-1z"/>
  <path fill="#fcbf09" d="M27 25h1v1h-1z M73 50h1v1h-1z"/>
  <path fill="#fdbf08" d="M22 36h1v1h-1z M28 50h1v1h-1z"/>
  <path fill="#fdfeff" d="M46 17h1v1h-1z"/>
  <path fill="#fec008" d="M70 22h1v1h-1z M28 24h1v1h-1z M76 27h1v1h-1z M74 49h1v1h-1z"/>
  <path fill="#fec108" d="M63 10h1v1h-1z M64 11h1v1h-1z"/>
  <path fill="#feffff" d="M44 19h1v1h-1z"/>
  <path fill="#ffc007" d="M32 14h1v1h-1z M31 22h1v1h-1z M22 38h1v1h-1z"/>
  <path fill="#ffc107" d="M42 1h1v7h-1z M59 1h1v7h-1z M77 1h1v1h-1z M25 2h2v1h-2z M43 2h1v5h-1z M58 2h1v5h-1z M75 2h2v1h-2z M26 3h3v2h-3z M44 3h2v4h-2z M56 3h2v4h-2z M73 3h3v2h-3z M29 4h2v6h-2z M46 4h1v2h-1z M55 4h1v2h-1z M71 4h2v6h-2z M27 5h2v2h-2z M31 5h3v9h-3z M47 5h2v1h-2z M53 5h2v1h-2z M69 5h2v17h-2z M73 5h2v2h-2z M34 6h2v8h-2z M66 6h3v8h-3z M28 7h1v1h-1z M36 7h2v5h-2z M64 7h2v4h-2z M73 7h1v2h-1z M38 8h2v2h-2z M62 8h2v2h-2z M10 9h1v1h-1z M89 9h1v1h-1z M11 10h4v1h-4z M30 10h1v2h-1z M38 10h1v1h-1z M71 10h1v2h-1z M85 10h4v1h-4z M12 11h7v1h-7z M65 11h1v2h-1z M81 11h7v1h-7z M13 12h11v1h-11z M36 12h1v1h-1z M77 12h10v1h-10z M14 13h14v1h-14z M72 13h14v1h-14z M15 14h17v1h-17z M33 14h2v2h-2z M67 14h2v2h-2z M71 14h14v1h-14z M16 15h17v1h-17z M71 15h13v1h-13z M17 16h17v1h-17z M68 16h1v3h-1z M71 16h12v1h-12z M18 17h16v1h-16z M71 17h11v1h-11z M19 18h15v1h-15z M71 18h10v1h-10z M20 19h13v1h-13z M71 19h9v1h-9z M21 20h12v1h-12z M71 20h8v1h-8z M22 21h11v1h-11z M71 21h7v1h-7z M23 22h8v1h-8z M71 22h6v1h-6z M22 23h8v1h-8z M72 23h6v1h-6z M11 24h17v1h-17z M74 24h15v1h-15z M3 25h24v1h-24z M75 25h22v1h-22z M6 26h20v1h-20z M76 26h18v1h-18z M9 27h17v1h-17z M77 27h14v1h-14z M11 28h14v1h-14z M77 28h12v1h-12z M14 29h10v1h-10z M78 29h8v1h-8z M17 30h7v1h-7z M78 30h5v1h-5z M20 31h3v1h-3z M79 31h1v1h-1z M22 32h1v1h-1z M22 34h1v2h-1z M21 35h1v9h-1z M19 36h2v8h-2z M80 36h1v8h-1z M17 37h2v7h-2z M81 37h2v7h-2z M16 38h1v6h-1z M83 38h1v6h-1z M14 39h2v5h-2z M22 39h1v5h-1z M79 39h1v5h-1z M84 39h2v5h-2z M12 40h2v4h-2z M86 40h2v4h-2z M11 41h1v4h-1z M88 41h1v4h-1z M9 42h2v3h-2z M89 42h2v3h-2z M7 43h2v2h-2z M23 43h1v1h-1z M78 43h1v1h-1z M91 43h2v2h-2z M6 44h1v1h-1z M93 44h1v1h-1z M25 47h1v5h-1z M24 48h1v5h-1z M26 48h1v4h-1z M75 48h1v5h-1z M23 49h1v4h-1z M27 49h1v2h-1z M76 49h1v4h-1z M22 50h1v3h-1z M74 50h1v2h-1z M77 50h1v3h-1z M21 51h1v3h-1z M73 51h1v1h-1z M78 51h1v3h-1z M20 53h1v1h-1z M79 53h1v1h-1z M19 54h1v1h-1z"/>
  <path fill="#ffffff" d="M48 13h4v3h-4z M46 14h2v3h-2z M52 14h1v1h-1z M44 15h2v3h-2z M43 16h1v6h-1z M48 16h1v1h-1z M42 17h1v8h-1z M44 18h1v1h-1z M41 19h1v6h-1z M40 21h1v4h-1z"/>
</svg>