<?xml version="1.0" encoding="UTF-8"?>
<svg xmlns="http://www.w3.org/2000/svg" width="100" height="100" viewBox="0 0 100 100" shape-rendering="crispEdges" role="img">
  <title>icons8-monster-face-100</title>
  <desc>Pixel-perfect vector conversion from the provided PNG icon. Transparent background preserved.</desc>
  <path fill="#000000" fill-opacity="0.0039" d="M10 20h1v1h-1z M95 26h1v1h-1z M5 29h1v1h-1z M93 31h1v1h-1z M8 34h1v1h-1z"/>
  <path fill="#7f7f7f" fill-opacity="0.0078" d="M89 20h1v1h-1z M21 24h1v1h-1z M84 47h1v1h-1z"/>
  <path fill="#55aa55" fill-opacity="0.0118" d="M39 11h1v1h-1z M60 11h1v1h-1z M34 13h1v1h-1z M65 13h1v1h-1z M29 16h1v1h-1z M70 16h1v1h-1z M78 24h1v1h-1z M15 47h1v1h-1z M82 82h1v1h-1z M18 83h1v1h-1z"/>
  <path fill="#7f3f3f" fill-opacity="0.0157" d="M6 31h1v1h-1z M86 39h1v1h-1z"/>
  <path fill="#7fbf3f" fill-opacity="0.0157" d="M17 82h1v1h-1z M81 83h1v1h-1z"/>
  <path fill="#663333" fill-opacity="0.0196" d="M4 26h1v1h-1z"/>
  <path fill="#7f5555" fill-opacity="0.0235" d="M7 14h1v1h-1z M13 39h1v1h-1z"/>
  <path fill="#7faa55" fill-opacity="0.0235" d="M43 10h1v1h-1z M56 10h1v1h-1z"/>
  <path fill="#715538" fill-opacity="0.0353" d="M90 35h1v1h-1z"/>
  <path fill="#73b945" fill-opacity="0.0431" d="M85 57h1v1h-1z"/>
  <path fill="#6a553f" fill-opacity="0.0471" d="M92 14h1v1h-1z M12 38h1v1h-1z"/>
  <path fill="#7faa3f" fill-opacity="0.0471" d="M14 57h1v1h-1z"/>
  <path fill="#754e3a" fill-opacity="0.051" d="M87 38h1v1h-1z"/>
  <path fill="#6d4848" fill-opacity="0.0549" d="M9 35h1v1h-1z"/>
  <path fill="#77bb44" fill-opacity="0.0588" d="M86 74h1v1h-1z"/>
  <path fill="#7faf3f" fill-opacity="0.0627" d="M13 74h1v1h-1z"/>
  <path fill="#78b43c" fill-opacity="0.0667" d="M86 66h1v1h-1z"/>
  <path fill="#714646" fill-opacity="0.0706" d="M14 24h1v1h-1z M89 36h1v1h-1z"/>
  <path fill="#7fb846" fill-opacity="0.0706" d="M13 66h1v1h-1z"/>
  <path fill="#78ae43" fill-opacity="0.0745" d="M26 87h1v1h-1z M73 87h1v1h-1z"/>
  <path fill="#724c3f" fill-opacity="0.0784" d="M88 37h1v1h-1z"/>
  <path fill="#7fb23f" fill-opacity="0.0784" d="M28 17h1v1h-1z"/>
  <path fill="#6d483c" fill-opacity="0.0824" d="M10 36h1v1h-1z"/>
  <path fill="#685145" fill-opacity="0.0863" d="M85 24h1v1h-1z"/>
  <path fill="#7fad45" fill-opacity="0.0863" d="M84 79h1v1h-1z"/>
  <path fill="#6e4d42" fill-opacity="0.0902" d="M6 10h1v1h-1z M93 10h1v1h-1z M8 17h1v1h-1z M16 25h1v1h-1z"/>
  <path fill="#79b142" fill-opacity="0.0902" d="M71 17h1v1h-1z M22 23h1v1h-1z M84 48h1v1h-1z M15 79h1v1h-1z"/>
  <path fill="#6a4a3f" fill-opacity="0.0941" d="M11 37h1v1h-1z"/>
  <path fill="#7fb43f" fill-opacity="0.0941" d="M85 77h1v1h-1z M78 85h1v1h-1z"/>
  <path fill="#7ab73d" fill-opacity="0.098" d="M76 86h1v1h-1z"/>
  <path fill="#6b4e44" fill-opacity="0.102" d="M83 25h1v1h-1z"/>
  <path fill="#7fb044" fill-opacity="0.102" d="M77 23h1v1h-1z M21 85h1v1h-1z M23 86h1v1h-1z"/>
  <path fill="#714b42" fill-opacity="0.1059" d="M95 14h1v1h-1z"/>
  <path fill="#7ab342" fill-opacity="0.1059" d="M15 48h1v1h-1z M14 77h1v1h-1z"/>
  <path fill="#6e4c44" fill-opacity="0.1176" d="M91 17h1v1h-1z M9 19h1v1h-1z"/>
  <path fill="#6c4d3d" fill-opacity="0.1294" d="M94 11h1v1h-1z M19 26h1v1h-1z"/>
  <path fill="#704b43" fill-opacity="0.1333" d="M80 26h1v1h-1z"/>
  <path fill="#7fb13f" fill-opacity="0.1412" d="M68 15h1v1h-1z M20 26h1v1h-1z"/>
  <path fill="#7cb344" fill-opacity="0.1451" d="M31 15h1v1h-1z"/>
  <path fill="#78b543" fill-opacity="0.149" d="M79 26h1v1h-1z"/>
  <path fill="#6f4e41" fill-opacity="0.1529" d="M90 19h1v1h-1z M95 25h1v1h-1z"/>
  <path fill="#7cb041" fill-opacity="0.1529" d="M85 58h1v1h-1z"/>
  <path fill="#6c4c3f" fill-opacity="0.1569" d="M4 14h1v1h-1z"/>
  <path fill="#79b23f" fill-opacity="0.1569" d="M55 10h1v1h-1z"/>
  <path fill="#6f4a3e" fill-opacity="0.1608" d="M92 32h1v1h-1z"/>
  <path fill="#7cb444" fill-opacity="0.1608" d="M44 10h1v1h-1z"/>
  <path fill="#79b042" fill-opacity="0.1647" d="M14 58h1v1h-1z"/>
  <path fill="#6a4d41" fill-opacity="0.1686" d="M5 11h1v1h-1z"/>
  <path fill="#6c4b41" fill-opacity="0.1843" d="M7 32h1v1h-1z"/>
  <path fill="#7cb341" fill-opacity="0.1843" d="M86 67h1v1h-1z"/>
  <path fill="#7ab43f" fill-opacity="0.1882" d="M13 67h1v1h-1z"/>
  <path fill="#7ab242" fill-opacity="0.1961" d="M84 49h1v1h-1z"/>
  <path fill="#7ab03f" fill-opacity="0.2039" d="M72 18h1v1h-1z"/>
  <path fill="#6e4c43" fill-opacity="0.2078" d="M4 25h1v1h-1z"/>
  <path fill="#7db243" fill-opacity="0.2078" d="M62 12h1v1h-1z M27 18h1v1h-1z M15 49h1v1h-1z"/>
  <path fill="#7ab342" fill-opacity="0.2118" d="M37 12h1v1h-1z M23 22h1v1h-1z"/>
  <path fill="#6c4d40" fill-opacity="0.2314" d="M94 28h1v1h-1z"/>
  <path fill="#7db140" fill-opacity="0.2314" d="M76 22h1v1h-1z"/>
  <path fill="#7bb343" fill-opacity="0.251" d="M86 73h1v1h-1z"/>
  <path fill="#7db442" fill-opacity="0.2549" d="M72 87h1v1h-1z"/>
  <path fill="#7bb141" fill-opacity="0.2588" d="M59 11h1v1h-1z M26 19h1v1h-1z M27 87h1v1h-1z"/>
  <path fill="#7db240" fill-opacity="0.2627" d="M40 11h1v1h-1z"/>
  <path fill="#7bb443" fill-opacity="0.2667" d="M33 14h1v1h-1z M85 59h1v1h-1z"/>
  <path fill="#7db142" fill-opacity="0.2706" d="M13 73h1v1h-1z"/>
  <path fill="#6b4b40" fill-opacity="0.2784" d="M5 28h1v1h-1z"/>
  <path fill="#7db340" fill-opacity="0.2784" d="M14 59h1v1h-1z"/>
  <path fill="#7bb443" fill-opacity="0.2824" d="M73 19h1v1h-1z"/>
  <path fill="#6c4c42" fill-opacity="0.2863" d="M7 15h1v1h-1z"/>
  <path fill="#7cb341" fill-opacity="0.2902" d="M75 21h1v1h-1z"/>
  <path fill="#7ab440" fill-opacity="0.2941" d="M24 21h1v1h-1z"/>
  <path fill="#7cb143" fill-opacity="0.298" d="M84 50h1v1h-1z M86 68h1v1h-1z"/>
  <path fill="#7ab242" fill-opacity="0.302" d="M13 68h1v1h-1z"/>
  <path fill="#6b4b41" fill-opacity="0.3059" d="M93 30h1v1h-1z M84 40h1v1h-1z"/>
  <path fill="#6d4d40" fill-opacity="0.3098" d="M95 15h1v1h-1z"/>
  <path fill="#7ab140" fill-opacity="0.3098" d="M45 10h1v1h-1z M54 10h1v1h-1z"/>
  <path fill="#7cb242" fill-opacity="0.3137" d="M15 50h1v1h-1z"/>
  <path fill="#7bb442" fill-opacity="0.3333" d="M66 14h1v1h-1z M74 20h1v1h-1z M20 84h1v1h-1z"/>
  <path fill="#7cb141" fill-opacity="0.3373" d="M64 13h1v1h-1z"/>
  <path fill="#6c4c40" fill-opacity="0.3412" d="M15 40h1v1h-1z"/>
  <path fill="#7bb243" fill-opacity="0.3412" d="M35 13h1v1h-1z M25 20h1v1h-1z"/>
  <path fill="#6e4b3f" fill-opacity="0.3451" d="M92 15h1v1h-1z"/>
  <path fill="#6c4a3f" fill-opacity="0.3608" d="M11 22h1v1h-1z"/>
  <path fill="#7cb442" fill-opacity="0.3608" d="M83 80h1v1h-1z"/>
  <path fill="#6d4c41" fill-opacity="0.3647" d="M6 30h1v1h-1z"/>
  <path fill="#6c4b41" fill-opacity="0.3686" d="M18 26h1v1h-1z"/>
  <path fill="#7cb341" fill-opacity="0.3686" d="M86 72h1v1h-1z"/>
  <path fill="#6e4b40" fill-opacity="0.3725" d="M4 15h1v1h-1z"/>
  <path fill="#7bb343" fill-opacity="0.3725" d="M16 80h1v1h-1z"/>
  <path fill="#6c4d3f" fill-opacity="0.3765" d="M95 24h1v1h-1z"/>
  <path fill="#6b4c41" fill-opacity="0.3804" d="M81 26h1v1h-1z"/>
  <path fill="#7cb341" fill-opacity="0.3843" d="M85 60h1v1h-1z"/>
  <path fill="#7bb142" fill-opacity="0.3882" d="M13 72h1v1h-1z M28 87h1v1h-1z M71 87h1v1h-1z"/>
  <path fill="#7cb242" fill-opacity="0.3922" d="M14 60h1v1h-1z"/>
  <path fill="#6e4b41" fill-opacity="0.4" d="M6 11h1v1h-1z"/>
  <path fill="#7db441" fill-opacity="0.4" d="M79 84h1v1h-1z"/>
  <path fill="#7bb242" fill-opacity="0.4039" d="M84 51h1v1h-1z"/>
  <path fill="#7db242" fill-opacity="0.4078" d="M86 69h1v1h-1z"/>
  <path fill="#6d4b41" fill-opacity="0.4118" d="M88 22h1v1h-1z"/>
  <path fill="#7db240" fill-opacity="0.4157" d="M13 69h1v1h-1z"/>
  <path fill="#7bb242" fill-opacity="0.4196" d="M15 51h1v1h-1z"/>
  <path fill="#6d4a41" fill-opacity="0.4275" d="M4 24h1v1h-1z"/>
  <path fill="#6b4b40" fill-opacity="0.4353" d="M12 23h1v1h-1z"/>
  <path fill="#6c4c41" fill-opacity="0.4431" d="M91 33h1v1h-1z"/>
  <path fill="#7cb241" fill-opacity="0.4431" d="M46 10h1v1h-1z M53 10h1v1h-1z"/>
  <path fill="#6d4c40" fill-opacity="0.4471" d="M93 11h1v1h-1z"/>
  <path fill="#7cb342" fill-opacity="0.451" d="M86 71h1v1h-1z"/>
  <path fill="#7bb241" fill-opacity="0.4549" d="M69 16h1v1h-1z M86 70h1v1h-1z"/>
  <path fill="#7cb241" fill-opacity="0.4588" d="M85 76h1v1h-1z"/>
  <path fill="#7bb342" fill-opacity="0.4627" d="M30 16h1v1h-1z M13 71h1v1h-1z M29 87h1v1h-1z M70 87h1v1h-1z"/>
  <path fill="#7cb442" fill-opacity="0.4667" d="M13 70h1v1h-1z"/>
  <path fill="#6c4c41" fill-opacity="0.4706" d="M10 21h1v1h-1z"/>
  <path fill="#6d4b41" fill-opacity="0.4745" d="M87 23h1v1h-1z M15 25h1v1h-1z"/>
  <path fill="#7cb242" fill-opacity="0.4824" d="M14 76h1v1h-1z M75 86h1v1h-1z"/>
  <path fill="#7bb241" fill-opacity="0.4863" d="M78 25h1v1h-1z"/>
  <path fill="#7cb341" fill-opacity="0.4902" d="M24 86h1v1h-1z"/>
  <path fill="#6d4c40" fill-opacity="0.4941" d="M84 25h1v1h-1z"/>
  <path fill="#7bb242" fill-opacity="0.4941" d="M47 10h1v1h-1z M52 10h1v1h-1z M21 25h1v1h-1z"/>
  <path fill="#6c4c40" fill-opacity="0.498" d="M95 16h1v1h-1z M8 33h1v1h-1z"/>
  <path fill="#7cb242" fill-opacity="0.498" d="M85 61h1v1h-1z"/>
  <path fill="#7cb341" fill-opacity="0.5059" d="M84 52h1v1h-1z M14 61h1v1h-1z"/>
  <path fill="#6d4b40" fill-opacity="0.5137" d="M94 12h1v1h-1z"/>
  <path fill="#6d4c41" fill-opacity="0.5216" d="M8 18h1v1h-1z M89 21h1v1h-1z"/>
  <path fill="#7cb241" fill-opacity="0.5216" d="M58 11h1v1h-1z M15 52h1v1h-1z M30 87h1v1h-1z M69 87h1v1h-1z"/>
  <path fill="#7bb242" fill-opacity="0.5255" d="M41 11h1v1h-1z"/>
  <path fill="#6d4b40" fill-opacity="0.5294" d="M6 12h1v1h-1z"/>
  <path fill="#7bb241" fill-opacity="0.5333" d="M31 87h38v1h-38z"/>
  <path fill="#7cb241" fill-opacity="0.5373" d="M48 10h1v1h-1z M51 10h1v1h-1z"/>
  <path fill="#6d4b40" fill-opacity="0.5412" d="M85 39h1v1h-1z"/>
  <path fill="#79aa42" fill-opacity="0.5412" d="M16 41h1v1h-1z"/>
  <path fill="#7aa842" fill-opacity="0.5451" d="M83 41h1v1h-1z"/>
  <path fill="#6c4b41" fill-opacity="0.5529" d="M95 23h1v1h-1z"/>
  <path fill="#6d4b40" fill-opacity="0.5569" d="M4 16h1v1h-1z"/>
  <path fill="#6d4b41" fill-opacity="0.5686" d="M5 12h1v1h-1z M91 18h1v1h-1z"/>
  <path fill="#7cb342" fill-opacity="0.5686" d="M83 42h1v1h-1z"/>
  <path fill="#6d4c40" fill-opacity="0.5765" d="M94 27h1v1h-1z M14 39h1v1h-1z"/>
  <path fill="#7bb241" fill-opacity="0.5765" d="M16 42h1v1h-1z"/>
  <path fill="#7cb341" fill-opacity="0.5804" d="M19 83h1v1h-1z"/>
  <path fill="#6d4b41" fill-opacity="0.5843" d="M93 12h1v1h-1z"/>
  <path fill="#7bb342" fill-opacity="0.5843" d="M38 12h1v1h-1z M61 12h1v1h-1z"/>
  <path fill="#7bb341" fill-opacity="0.5922" d="M84 78h1v1h-1z M82 81h1v1h-1z"/>
  <path fill="#7bb242" fill-opacity="0.6" d="M49 10h2v1h-2z M77 85h1v1h-1z"/>
  <path fill="#6d4c40" fill-opacity="0.6039" d="M4 23h1v1h-1z"/>
  <path fill="#7cb242" fill-opacity="0.6039" d="M15 78h1v1h-1z M17 81h1v1h-1z M22 85h1v1h-1z"/>
  <path fill="#7bb341" fill-opacity="0.6078" d="M80 83h1v1h-1z"/>
  <path fill="#7cb341" fill-opacity="0.6118" d="M84 53h1v1h-1z M85 62h1v1h-1z"/>
  <path fill="#7cb342" fill-opacity="0.6196" d="M14 62h1v1h-1z"/>
  <path fill="#6d4b41" fill-opacity="0.6235" d="M5 27h1v1h-1z"/>
  <path fill="#7bb341" fill-opacity="0.6235" d="M15 53h1v1h-1z"/>
  <path fill="#6c4c41" fill-opacity="0.6275" d="M7 16h1v1h-1z M95 17h1v1h-1z"/>
  <path fill="#6c4c41" fill-opacity="0.6431" d="M90 34h1v1h-1z"/>
  <path fill="#7cb342" fill-opacity="0.651" d="M83 43h1v1h-1z"/>
  <path fill="#6d4b41" fill-opacity="0.6588" d="M13 24h1v1h-1z"/>
  <path fill="#7cb341" fill-opacity="0.6588" d="M16 43h1v1h-1z"/>
  <path fill="#6c4b40" fill-opacity="0.6627" d="M95 22h1v1h-1z"/>
  <path fill="#7cb242" fill-opacity="0.6667" d="M81 82h1v1h-1z"/>
  <path fill="#6c4c41" fill-opacity="0.6706" d="M9 34h1v1h-1z"/>
  <path fill="#7bb242" fill-opacity="0.6784" d="M18 82h1v1h-1z"/>
  <path fill="#6c4c40" fill-opacity="0.6824" d="M92 16h1v1h-1z M4 17h1v1h-1z"/>
  <path fill="#6d4b41" fill-opacity="0.6863" d="M86 24h1v1h-1z"/>
  <path fill="#6c4c40" fill-opacity="0.7098" d="M4 22h1v1h-1z"/>
  <path fill="#6c4c41" fill-opacity="0.7176" d="M17 26h1v1h-1z M13 38h1v1h-1z"/>
  <path fill="#7cb241" fill-opacity="0.7176" d="M84 54h1v1h-1z"/>
  <path fill="#6c4b40" fill-opacity="0.7255" d="M95 18h1v1h-1z M9 20h1v1h-1z"/>
  <path fill="#7cb342" fill-opacity="0.7255" d="M85 63h1v1h-1z"/>
  <path fill="#6d4b40" fill-opacity="0.7294" d="M86 38h1v1h-1z"/>
  <path fill="#7bb341" fill-opacity="0.7294" d="M29 17h1v1h-1z M15 54h1v1h-1z"/>
  <path fill="#6d4c41" fill-opacity="0.7333" d="M82 26h1v1h-1z"/>
  <path fill="#7cb241" fill-opacity="0.7333" d="M83 44h1v1h-1z M14 63h1v1h-1z"/>
  <path fill="#7bb342" fill-opacity="0.7373" d="M22 24h1v1h-1z"/>
  <path fill="#6d4b40" fill-opacity="0.7412" d="M6 13h1v1h-1z"/>
  <path fill="#7bb241" fill-opacity="0.7451" d="M67 15h1v1h-1z M16 44h1v1h-1z"/>
  <path fill="#6d4c41" fill-opacity="0.749" d="M90 20h1v1h-1z"/>
  <path fill="#7cb241" fill-opacity="0.749" d="M32 15h1v1h-1z"/>
  <path fill="#7bb342" fill-opacity="0.7529" d="M70 17h1v1h-1z M77 24h1v1h-1z"/>
  <path fill="#6c4c40" fill-opacity="0.7569" d="M95 21h1v1h-1z"/>
  <path fill="#6d4c40" fill-opacity="0.7608" d="M92 31h1v1h-1z"/>
  <path fill="#7cb341" fill-opacity="0.7647" d="M57 11h1v1h-1z"/>
  <path fill="#7bb342" fill-opacity="0.7686" d="M42 11h1v1h-1z"/>
  <path fill="#6c4c40" fill-opacity="0.7725" d="M4 18h1v1h-1z"/>
  <path fill="#6d4b40" fill-opacity="0.7765" d="M95 20h1v1h-1z"/>
  <path fill="#7bb341" fill-opacity="0.7765" d="M36 13h1v1h-1z M63 13h1v1h-1z"/>
  <path fill="#6c4b41" fill-opacity="0.7804" d="M95 19h1v1h-1z M89 35h1v1h-1z"/>
  <path fill="#6d4c40" fill-opacity="0.7882" d="M93 29h1v1h-1z"/>
  <path fill="#6d4b41" fill-opacity="0.7961" d="M93 13h1v1h-1z M87 37h1v1h-1z"/>
  <path fill="#7bb242" fill-opacity="0.8" d="M85 75h1v1h-1z M74 86h1v1h-1z"/>
  <path fill="#7cb341" fill-opacity="0.8039" d="M25 86h1v1h-1z"/>
  <path fill="#6c4b41" fill-opacity="0.8078" d="M4 21h1v1h-1z M7 31h1v1h-1z"/>
  <path fill="#7cb242" fill-opacity="0.8118" d="M14 75h1v1h-1z"/>
  <path fill="#6d4c40" fill-opacity="0.8157" d="M94 13h1v1h-1z M10 35h1v1h-1z M88 36h1v1h-1z"/>
  <path fill="#7bb242" fill-opacity="0.8157" d="M34 14h1v1h-1z M83 45h1v1h-1z"/>
  <path fill="#6c4b40" fill-opacity="0.8196" d="M12 37h1v1h-1z"/>
  <path fill="#7cb341" fill-opacity="0.8196" d="M84 55h1v1h-1z"/>
  <path fill="#6c4c41" fill-opacity="0.8275" d="M4 19h1v2h-1z M6 29h1v1h-1z"/>
  <path fill="#7cb242" fill-opacity="0.8275" d="M16 45h1v1h-1z"/>
  <path fill="#6d4b40" fill-opacity="0.8314" d="M11 36h1v1h-1z"/>
  <path fill="#7bb342" fill-opacity="0.8314" d="M15 55h1v1h-1z"/>
  <path fill="#7bb241" fill-opacity="0.8392" d="M65 14h1v1h-1z M85 64h1v1h-1z"/>
  <path fill="#7bb342" fill-opacity="0.8471" d="M14 64h1v1h-1z"/>
  <path fill="#6c4b41" fill-opacity="0.8745" d="M5 13h1v1h-1z"/>
  <path fill="#7cb341" fill-opacity="0.8863" d="M28 18h1v1h-1z M71 18h1v1h-1z"/>
  <path fill="#7cb241" fill-opacity="0.8941" d="M83 46h1v1h-1z"/>
  <path fill="#6c4c41" fill-opacity="0.902" d="M94 26h1v1h-1z"/>
  <path fill="#7bb242" fill-opacity="0.9059" d="M23 23h1v1h-1z"/>
  <path fill="#7cb341" fill-opacity="0.9098" d="M60 12h1v1h-1z M16 46h1v1h-1z"/>
  <path fill="#7bb341" fill-opacity="0.9137" d="M39 12h1v1h-1z M76 23h1v1h-1z"/>
  <path fill="#7cb341" fill-opacity="0.9255" d="M84 56h1v1h-1z"/>
  <path fill="#6d4c41" fill-opacity="0.9333" d="M14 25h1v1h-1z"/>
  <path fill="#7cb242" fill-opacity="0.9333" d="M15 56h1v1h-1z M83 79h1v1h-1z M21 84h1v1h-1z"/>
  <path fill="#6c4b41" fill-opacity="0.9373" d="M5 26h1v1h-1z"/>
  <path fill="#7bb342" fill-opacity="0.9373" d="M16 79h1v1h-1z"/>
  <path fill="#6c4c40" fill-opacity="0.9451" d="M85 25h1v1h-1z"/>
  <path fill="#7bb241" fill-opacity="0.9451" d="M78 84h1v1h-1z"/>
  <path fill="#6c4b41" fill-opacity="0.949" d="M6 14h1v1h-1z"/>
  <path fill="#7cb342" fill-opacity="0.949" d="M27 19h1v1h-1z"/>
  <path fill="#7bb342" fill-opacity="0.9529" d="M14 65h1v1h-1z"/>
  <path fill="#747741" fill-opacity="0.9569" d="M83 40h1v1h-1z"/>
  <path fill="#7cb241" fill-opacity="0.9569" d="M72 19h1v1h-1z M24 22h1v1h-1z M85 65h1v1h-1z"/>
  <path fill="#6c4b41" fill-opacity="0.9647" d="M8 19h1v1h-1z"/>
  <path fill="#747841" fill-opacity="0.9647" d="M16 40h1v1h-1z"/>
  <path fill="#7cb342" fill-opacity="0.9647" d="M31 16h1v1h-1z M68 16h1v1h-1z M75 22h1v1h-1z"/>
  <path fill="#7bb242" fill-opacity="0.9686" d="M21 26h1v1h-1z M84 77h1v1h-1z"/>
  <path fill="#6c4c40" fill-opacity="0.9725" d="M7 17h1v1h-1z M91 32h1v1h-1z"/>
  <path fill="#7cb241" fill-opacity="0.9725" d="M56 11h1v1h-1z M78 26h1v1h-1z"/>
  <path fill="#7bb341" fill-opacity="0.9765" d="M43 11h1v1h-1z M26 20h1v1h-1z M73 20h1v1h-1z M15 77h1v1h-1z"/>
  <path fill="#6d4c41" fill-opacity="0.9804" d="M93 14h1v1h-1z M91 19h1v1h-1z M8 32h1v1h-1z"/>
  <path fill="#789642" fill-opacity="0.9804" d="M20 27h1v1h-1z"/>
  <path fill="#7cb242" fill-opacity="0.9804" d="M74 21h1v1h-1z M83 47h1v1h-1z M76 85h1v1h-1z"/>
  <path fill="#6c4c41" fill-opacity="0.9843" d="M92 17h1v1h-1z M16 26h1v1h-1z"/>
  <path fill="#779842" fill-opacity="0.9843" d="M79 27h1v1h-1z"/>
  <path fill="#7bb242" fill-opacity="0.9843" d="M25 21h1v1h-1z M23 85h1v1h-1z"/>
  <path fill="#6d4b40" fill-opacity="0.9882" d="M11 23h1v1h-1z M83 26h1v1h-1z"/>
  <path fill="#7cb341" fill-opacity="0.9882" d="M16 47h1v1h-1z"/>
  <path fill="#7bb341" fill-opacity="0.9922" d="M14 74h1v1h-1z M85 74h1v1h-1z"/>
  <path fill="#6d4c41" fill-opacity="0.9961" d="M10 22h1v1h-1z M88 23h1v1h-1z M84 39h1v1h-1z"/>
  <path fill="#7cb242" fill-opacity="0.9961" d="M26 86h1v1h-1z M73 86h1v1h-1z"/>
  <path fill="#000000" d="M32 36h2v5h-2z M66 36h2v5h-2z M34 37h3v6h-3z M63 37h3v6h-3z M37 38h2v5h-2z M61 38h2v5h-2z M39 39h2v2h-2z M59 39h2v2h-2z M33 41h1v1h-1z M39 41h1v1h-1z M60 41h1v1h-1z M66 41h1v1h-1z"/>
  <path fill="#010402" d="M34 36h1v1h-1z M65 36h1v1h-1z"/>
  <path fill="#040d04" d="M39 38h1v1h-1z M60 38h1v1h-1z"/>
  <path fill="#071909" d="M37 37h1v1h-1z M62 37h1v1h-1z"/>
  <path fill="#0b270d" d="M35 36h1v1h-1z M64 36h1v1h-1z"/>
  <path fill="#0f3412" d="M33 35h1v1h-1z M66 35h1v1h-1z M40 38h1v1h-1z M59 38h1v1h-1z"/>
  <path fill="#134216" d="M38 37h1v1h-1z M61 37h1v1h-1z"/>
  <path fill="#174f1b" d="M36 36h1v1h-1z M63 36h1v1h-1z"/>
  <path fill="#19581e" d="M34 35h1v1h-1z M65 35h1v1h-1z"/>
  <path fill="#1b5d20" d="M39 37h1v1h-1z M60 37h1v1h-1z"/>
  <path fill="#1b5e20" d="M27 26h5v6h-5z M68 26h5v6h-5z M26 27h1v4h-1z M32 27h2v7h-2z M66 27h2v7h-2z M73 27h1v4h-1z M34 28h3v7h-3z M63 28h3v7h-3z M37 29h2v8h-2z M61 29h2v8h-2z M39 30h2v7h-2z M59 30h2v7h-2z M41 31h3v7h-3z M56 31h3v7h-3z M28 32h4v1h-4z M44 32h2v6h-2z M54 32h2v6h-2z M68 32h4v1h-4z M30 33h2v1h-2z M46 33h1v5h-1z M53 33h1v5h-1z M68 33h2v1h-2z M33 34h1v1h-1z M66 34h1v1h-1z M35 35h2v1h-2z M63 35h2v1h-2z M40 37h1v1h-1z M59 37h1v1h-1z M42 38h3v1h-3z M55 38h3v1h-3z M43 57h14v11h-14z M40 58h3v10h-3z M57 58h3v10h-3z M32 62h2v6h-2z M66 62h2v6h-2z M31 63h1v5h-1z M34 63h1v9h-1z M65 63h1v9h-1z M68 63h1v5h-1z M30 64h1v4h-1z M35 64h1v8h-1z M39 64h1v5h-1z M60 64h1v5h-1z M64 64h1v8h-1z M69 64h1v4h-1z M29 65h1v4h-1z M36 65h3v5h-3z M61 65h3v5h-3z M70 65h1v4h-1z M28 66h1v11h-1z M71 66h1v11h-1z M27 67h1v9h-1z M72 67h1v9h-1z M33 68h1v1h-1z M40 68h1v1h-1z M46 68h8v1h-8z M59 68h1v1h-1z M66 68h1v1h-1z M26 69h1v7h-1z M49 69h2v1h-2z M73 69h1v7h-1z M36 70h1v1h-1z M63 70h1v1h-1z"/>
  <path fill="#1c5e20" d="M41 68h1v1h-1z M58 68h1v1h-1z"/>
  <path fill="#1c5e21" d="M26 31h1v1h-1z M73 31h1v1h-1z"/>
  <path fill="#1c5f21" d="M33 69h1v1h-1z M66 69h1v1h-1z"/>
  <path fill="#1c6020" d="M34 27h1v1h-1z M65 27h1v1h-1z"/>
  <path fill="#1d5f20" d="M32 34h1v1h-1z M67 34h1v1h-1z M45 38h1v1h-1z M54 38h1v1h-1z"/>
  <path fill="#1d5f22" d="M33 61h1v1h-1z"/>
  <path fill="#1d6020" d="M41 30h1v1h-1z M58 30h1v1h-1z"/>
  <path fill="#1d6021" d="M70 25h1v1h-1z"/>
  <path fill="#1e5d1e" d="M41 38h1v1h-1z M58 38h1v1h-1z"/>
  <path fill="#1e6023" d="M66 61h1v1h-1z M32 68h1v1h-1z M67 68h1v1h-1z"/>
  <path fill="#1e6121" d="M29 25h1v1h-1z M25 29h1v1h-1z M29 64h1v1h-1z M70 64h1v1h-1z M25 72h1v1h-1z M74 72h1v1h-1z"/>
  <path fill="#1f6122" d="M74 29h1v1h-1z M27 76h1v1h-1z"/>
  <path fill="#206221" d="M69 63h1v1h-1z M25 73h1v1h-1z M74 73h1v1h-1z M72 76h1v1h-1z"/>
  <path fill="#206322" d="M28 65h1v1h-1z"/>
  <path fill="#216322" d="M30 63h1v1h-1z"/>
  <path fill="#216422" d="M71 65h1v1h-1z"/>
  <path fill="#226422" d="M27 32h1v1h-1z M72 32h1v1h-1z"/>
  <path fill="#226423" d="M28 25h1v1h-1z M71 25h1v1h-1z M25 28h1v1h-1z M26 68h1v1h-1z"/>
  <path fill="#236522" d="M74 28h1v1h-1z M73 68h1v1h-1z"/>
  <path fill="#246623" d="M32 26h1v1h-1z M67 26h1v1h-1z M42 57h1v1h-1z M57 57h1v1h-1z"/>
  <path fill="#256724" d="M26 26h1v1h-1z M73 26h1v1h-1z M52 35h1v1h-1z"/>
  <path fill="#266724" d="M47 35h1v1h-1z"/>
  <path fill="#27662c" d="M69 68h1v1h-1z"/>
  <path fill="#276721" d="M39 29h1v1h-1z"/>
  <path fill="#276924" d="M25 71h1v1h-1z"/>
  <path fill="#286721" d="M60 29h1v1h-1z"/>
  <path fill="#28672d" d="M30 68h1v1h-1z"/>
  <path fill="#286925" d="M31 62h1v1h-1z M74 71h1v1h-1z"/>
  <path fill="#286a25" d="M68 62h1v1h-1z"/>
  <path fill="#2b6c26" d="M25 74h1v1h-1z"/>
  <path fill="#2b6d25" d="M74 74h1v1h-1z"/>
  <path fill="#2e6f26" d="M37 28h1v1h-1z M62 28h1v1h-1z M44 31h1v1h-1z M55 31h1v1h-1z M52 34h1v1h-1z M72 66h1v1h-1z"/>
  <path fill="#2f6f27" d="M27 66h1v1h-1z"/>
  <path fill="#307127" d="M47 34h1v1h-1z"/>
  <path fill="#315b1d" d="M62 70h1v1h-1z"/>
  <path fill="#335a1d" d="M45 68h1v1h-1z M37 70h1v1h-1z"/>
  <path fill="#337328" d="M30 25h1v1h-1z M69 25h1v1h-1z M25 30h1v1h-1z M74 30h1v1h-1z"/>
  <path fill="#337329" d="M52 36h1v1h-1z"/>
  <path fill="#345b1c" d="M54 68h1v1h-1z"/>
  <path fill="#346e38" d="M70 69h1v1h-1z"/>
  <path fill="#347429" d="M47 36h1v1h-1z"/>
  <path fill="#357529" d="M49 56h2v1h-2z"/>
  <path fill="#365a1c" d="M57 68h1v1h-1z M64 72h1v1h-1z"/>
  <path fill="#36703b" d="M29 69h1v1h-1z"/>
  <path fill="#373200" d="M32 41h1v1h-1z M33 42h1v1h-1z"/>
  <path fill="#375a1c" d="M42 68h1v1h-1z"/>
  <path fill="#38713c" d="M65 62h1v1h-1z"/>
  <path fill="#393400" d="M67 41h1v1h-1z M66 42h1v1h-1z"/>
  <path fill="#39591c" d="M35 72h1v1h-1z"/>
  <path fill="#39723d" d="M34 62h1v1h-1z"/>
  <path fill="#39782a" d="M48 56h1v1h-1z M51 56h1v1h-1z"/>
  <path fill="#3a792b" d="M53 32h1v1h-1z"/>
  <path fill="#3b7a2b" d="M46 32h1v1h-1z"/>
  <path fill="#3b7b2b" d="M25 70h1v1h-1z"/>
  <path fill="#3d4204" d="M32 35h1v1h-1z"/>
  <path fill="#3d7b2c" d="M47 56h1v1h-1z M52 56h1v1h-1z M41 57h1v1h-1z M32 61h1v1h-1z"/>
  <path fill="#3d7c2c" d="M35 27h1v1h-1z M64 27h1v1h-1z M42 30h1v1h-1z M57 30h1v1h-1z M58 57h1v1h-1z M67 61h1v1h-1z M74 70h1v1h-1z"/>
  <path fill="#3f4204" d="M67 35h1v1h-1z"/>
  <path fill="#3f7d2c" d="M72 25h1v1h-1z"/>
  <path fill="#3f7e2d" d="M27 25h1v1h-1z M25 27h1v1h-1z"/>
  <path fill="#40751b" d="M29 33h1v1h-1z M70 33h1v1h-1z"/>
  <path fill="#407e2d" d="M74 27h1v1h-1z"/>
  <path fill="#41802d" d="M26 76h1v1h-1z"/>
  <path fill="#43581a" d="M63 71h1v1h-1z"/>
  <path fill="#437847" d="M31 68h1v1h-1z"/>
  <path fill="#437947" d="M68 68h1v1h-1z"/>
  <path fill="#43812e" d="M73 76h1v1h-1z"/>
  <path fill="#443e00" d="M60 42h1v1h-1z"/>
  <path fill="#453f00" d="M36 43h1v1h-1z M63 43h1v1h-1z"/>
  <path fill="#45581a" d="M48 69h1v1h-1z"/>
  <path fill="#464000" d="M31 38h1v1h-1z M68 38h1v1h-1z"/>
  <path fill="#46832f" d="M46 56h1v1h-1z"/>
  <path fill="#468430" d="M53 56h1v1h-1z"/>
  <path fill="#474100" d="M39 42h1v1h-1z"/>
  <path fill="#47581a" d="M51 69h1v1h-1z M36 71h1v1h-1z"/>
  <path fill="#494300" d="M59 41h1v1h-1z"/>
  <path fill="#49571a" d="M44 68h1v1h-1z M55 68h1v1h-1z"/>
  <path fill="#4a7d4d" d="M34 72h1v1h-1z"/>
  <path fill="#4b5719" d="M43 68h1v1h-1z M56 68h1v1h-1z"/>
  <path fill="#4b8830" d="M33 26h1v1h-1z M66 26h1v1h-1z"/>
  <path fill="#4b8931" d="M25 75h1v1h-1z"/>
  <path fill="#4c4600" d="M40 41h1v1h-1z"/>
  <path fill="#4c8830" d="M40 29h1v1h-1z"/>
  <path fill="#4c892f" d="M59 29h1v1h-1z"/>
  <path fill="#4d7f51" d="M39 63h1v1h-1z M38 64h1v1h-1z M65 72h1v1h-1z"/>
  <path fill="#4d8a31" d="M53 38h1v1h-1z M74 75h1v1h-1z"/>
  <path fill="#4e5719" d="M60 69h1v1h-1z"/>
  <path fill="#4e8052" d="M61 64h1v1h-1z"/>
  <path fill="#4e8a31" d="M46 38h1v1h-1z"/>
  <path fill="#4f8053" d="M60 63h1v1h-1z"/>
  <path fill="#508153" d="M63 64h1v1h-1z"/>
  <path fill="#518254" d="M36 64h1v1h-1z"/>
  <path fill="#518d32" d="M26 67h1v1h-1z"/>
  <path fill="#525718" d="M39 69h1v1h-1z"/>
  <path fill="#528e33" d="M45 56h1v1h-1z M54 56h1v1h-1z"/>
  <path fill="#528f34" d="M47 33h1v1h-1z"/>
  <path fill="#538f34" d="M52 33h1v1h-1z M73 67h1v1h-1z"/>
  <path fill="#558b2f" d="M73 35h1v9h-1z M26 36h1v8h-1z M27 43h1v2h-1z M72 43h1v2h-1z M28 45h1v2h-1z M71 45h1v1h-1z M29 46h1v1h-1z M70 46h1v1h-1z M30 47h2v1h-2z M68 47h2v1h-2z M31 48h9v1h-9z M60 48h9v1h-9z M43 78h13v3h-13z M41 79h2v2h-2z M56 79h4v2h-4z M38 80h3v1h-3z M60 80h2v2h-2z M37 81h3v1h-3z M59 81h1v1h-1z M62 81h1v1h-1z"/>
  <path fill="#558b30" d="M26 35h1v1h-1z M71 46h1v1h-1z M56 78h1v1h-1z M40 79h1v1h-1z"/>
  <path fill="#568c2f" d="M28 44h1v1h-1z M69 46h1v1h-1z M36 81h1v1h-1z M40 81h1v1h-1z M63 81h1v1h-1z"/>
  <path fill="#568c30" d="M25 39h1v1h-1z M74 39h1v1h-1z M35 49h1v1h-1z M64 49h1v1h-1z"/>
  <path fill="#568c31" d="M27 33h1v1h-1z M72 33h1v1h-1z"/>
  <path fill="#568d30" d="M27 45h1v1h-1z"/>
  <path fill="#57865a" d="M33 70h1v1h-1z"/>
  <path fill="#578c2e" d="M71 44h1v1h-1z M30 46h1v1h-1z"/>
  <path fill="#578c30" d="M72 45h1v1h-1z M70 47h1v1h-1z"/>
  <path fill="#578d30" d="M42 46h1v1h-1z M29 47h1v1h-1z"/>
  <path fill="#579335" d="M40 57h1v1h-1z M59 57h1v1h-1z"/>
  <path fill="#58865b" d="M66 70h1v1h-1z"/>
  <path fill="#588d30" d="M57 46h1v1h-1z"/>
  <path fill="#588e31" d="M25 40h1v1h-1z"/>
  <path fill="#589335" d="M25 69h1v1h-1z"/>
  <path fill="#589436" d="M38 28h1v1h-1z M61 28h1v1h-1z"/>
  <path fill="#598f30" d="M74 40h1v1h-1z M65 49h1v1h-1z"/>
  <path fill="#598f31" d="M25 38h1v1h-1z M41 47h1v1h-1z M34 49h1v1h-1z M36 49h1v1h-1z M63 49h1v1h-1z M35 82h1v1h-1z M64 82h1v1h-1z"/>
  <path fill="#598f32" d="M58 47h1v1h-1z"/>
  <path fill="#599436" d="M31 25h1v1h-1z M68 25h1v1h-1z M74 69h1v1h-1z"/>
  <path fill="#5a885e" d="M64 63h1v1h-1z"/>
  <path fill="#5a9031" d="M74 38h1v1h-1z"/>
  <path fill="#5a9032" d="M58 81h1v1h-1z"/>
  <path fill="#5a9132" d="M41 81h1v1h-1z"/>
  <path fill="#5a9536" d="M45 31h1v1h-1z M54 31h1v1h-1z"/>
  <path fill="#5b885f" d="M35 63h1v1h-1z"/>
  <path fill="#5b9737" d="M26 32h1v1h-1z"/>
  <path fill="#5c5400" d="M31 39h1v1h-1z"/>
  <path fill="#5c9637" d="M73 32h1v1h-1z"/>
  <path fill="#5d8f2d" d="M40 47h1v1h-1z"/>
  <path fill="#5d9332" d="M33 49h1v1h-1z"/>
  <path fill="#5d9333" d="M25 41h1v1h-1z M74 41h1v1h-1z M66 49h1v1h-1z M49 77h2v1h-2z"/>
  <path fill="#5e5600" d="M68 39h1v1h-1z M35 43h1v1h-1z M64 43h1v1h-1z"/>
  <path fill="#5e902c" d="M27 34h1v1h-1z M29 45h1v1h-1z"/>
  <path fill="#5e902d" d="M72 34h1v1h-1z M70 45h1v1h-1z M59 47h1v1h-1z"/>
  <path fill="#5e9230" d="M56 45h1v1h-1z"/>
  <path fill="#5e9433" d="M25 37h1v1h-1z M42 78h1v1h-1z M57 78h1v1h-1z M37 80h1v1h-1z M62 80h1v1h-1z"/>
  <path fill="#5e9434" d="M74 37h1v1h-1z M57 81h1v1h-1z"/>
  <path fill="#5e9534" d="M51 77h1v1h-1z M42 81h1v1h-1z"/>
  <path fill="#5e9938" d="M52 37h1v1h-1z"/>
  <path fill="#5f8816" d="M31 34h1v1h-1z M68 34h1v1h-1z"/>
  <path fill="#5f9230" d="M43 45h1v1h-1z"/>
  <path fill="#5f9533" d="M48 77h1v1h-1z"/>
  <path fill="#5f9534" d="M37 49h1v1h-1z M62 49h1v1h-1z"/>
  <path fill="#5f9634" d="M39 79h1v1h-1z"/>
  <path fill="#5f9938" d="M47 37h1v1h-1z"/>
  <path fill="#605800" d="M31 37h1v1h-1z"/>
  <path fill="#60922c" d="M72 42h1v1h-1z M32 47h1v1h-1z M67 47h1v1h-1z"/>
  <path fill="#609534" d="M60 79h1v1h-1z"/>
  <path fill="#609635" d="M26 44h1v1h-1z"/>
  <path fill="#609734" d="M30 48h1v1h-1z M34 82h1v1h-1z"/>
  <path fill="#609735" d="M73 44h1v1h-1z"/>
  <path fill="#609a38" d="M44 56h1v1h-1z M55 56h1v1h-1z"/>
  <path fill="#61922c" d="M27 42h1v1h-1z"/>
  <path fill="#619735" d="M69 48h1v1h-1z M47 77h1v1h-1z M52 77h1v1h-1z M63 82h1v1h-1z M65 82h1v1h-1z"/>
  <path fill="#619835" d="M56 81h1v1h-1z M36 82h1v1h-1z"/>
  <path fill="#619c39" d="M70 63h1v1h-1z"/>
  <path fill="#625a00" d="M68 37h1v1h-1z M37 43h1v1h-1z M62 43h1v1h-1z"/>
  <path fill="#629935" d="M43 81h1v1h-1z"/>
  <path fill="#629d39" d="M25 31h1v1h-1z"/>
  <path fill="#639936" d="M26 34h1v1h-1z"/>
  <path fill="#639d39" d="M29 63h1v1h-1z"/>
  <path fill="#649a36" d="M73 34h1v1h-1z M59 48h1v1h-1z"/>
  <path fill="#649a37" d="M40 48h1v1h-1z"/>
  <path fill="#649e39" d="M74 31h1v1h-1z"/>
  <path fill="#649e3a" d="M28 64h1v1h-1z M71 64h1v1h-1z"/>
  <path fill="#668f1d" d="M71 33h1v1h-1z"/>
  <path fill="#669b36" d="M55 81h1v1h-1z"/>
  <path fill="#669c37" d="M53 77h1v1h-1z M44 81h1v1h-1z"/>
  <path fill="#669d37" d="M46 77h1v1h-1z"/>
  <path fill="#669d38" d="M55 44h1v1h-1z"/>
  <path fill="#66a03a" d="M36 27h1v1h-1z M63 27h1v1h-1z M43 30h1v1h-1z M56 30h1v1h-1z"/>
  <path fill="#67901d" d="M28 33h1v1h-1z"/>
  <path fill="#679068" d="M70 76h1v1h-1z"/>
  <path fill="#679e38" d="M25 42h1v1h-1z M44 44h1v1h-1z M32 49h1v1h-1z M67 49h1v1h-1z"/>
  <path fill="#679e39" d="M74 42h1v1h-1z"/>
  <path fill="#689e38" d="M35 81h1v1h-1z M64 81h1v1h-1z"/>
  <path fill="#689f38" d="M42 17h2v5h-2z M40 18h2v3h-2z M44 18h1v4h-1z M41 21h1v1h-1z M56 21h1v3h-1z M55 22h1v2h-1z M57 22h1v2h-1z M22 53h2v2h-2z M32 53h3v2h-3z M72 53h4v4h-4z M21 54h1v1h-1z M71 54h1v2h-1z M22 55h1v1h-1z M33 55h1v1h-1z M73 57h2v1h-2z M78 61h2v3h-2z M80 62h1v1h-1z M20 63h2v3h-2z M19 64h1v1h-1z M54 81h1v1h-1z"/>
  <path fill="#689f39" d="M23 55h1v1h-1z"/>
  <path fill="#68a038" d="M76 55h1v1h-1z"/>
  <path fill="#69926b" d="M29 76h1v1h-1z"/>
  <path fill="#69a038" d="M56 24h1v1h-1z M25 36h1v1h-1z M45 81h1v1h-1z"/>
  <path fill="#69a039" d="M41 17h1v1h-1z M74 36h1v1h-1z M38 49h1v1h-1z M21 53h1v1h-1z M24 54h1v1h-1z M32 55h1v1h-1z M19 65h1v1h-1z M41 78h1v1h-1z M62 82h1v1h-1z"/>
  <path fill="#69a139" d="M55 21h1v1h-1z M76 54h1v1h-1z"/>
  <path fill="#6a9f38" d="M61 49h1v1h-1z M58 78h1v1h-1z"/>
  <path fill="#6aa039" d="M53 81h1v1h-1z M37 82h1v1h-1z"/>
  <path fill="#6aa139" d="M80 61h1v1h-1z M46 81h1v1h-1z"/>
  <path fill="#6aa33c" d="M30 62h1v1h-1z M69 62h1v1h-1z"/>
  <path fill="#6ba139" d="M54 77h1v1h-1z"/>
  <path fill="#6ba13a" d="M72 57h1v1h-1z M77 62h1v1h-1z"/>
  <path fill="#6ba239" d="M42 22h1v1h-1z M33 52h1v1h-1z M19 63h1v1h-1z M80 63h1v1h-1z"/>
  <path fill="#6ba23a" d="M22 52h1v1h-1z M24 53h1v1h-1z M71 56h1v1h-1z M75 57h1v1h-1z M22 64h1v1h-1z M45 77h1v1h-1z"/>
  <path fill="#6ba339" d="M73 52h1v1h-1z"/>
  <path fill="#6ca23a" d="M74 52h1v1h-1z"/>
  <path fill="#6ca33a" d="M40 21h1v1h-1z M55 24h1v1h-1z M34 55h1v1h-1z"/>
  <path fill="#6ca33b" d="M47 81h2v1h-2z M51 81h2v1h-2z"/>
  <path fill="#6d4c41" d="M5 14h1v12h-1z M94 14h1v12h-1z M6 15h1v14h-1z M93 15h1v14h-1z M7 18h1v13h-1z M92 18h1v13h-1z M8 20h1v12h-1z M91 20h1v12h-1z M9 21h1v13h-1z M90 21h1v13h-1z M89 22h1v13h-1z M10 23h1v12h-1z M11 24h2v12h-2z M87 24h2v12h-2z M13 25h1v13h-1z M86 25h1v13h-1z M14 26h2v13h-2z M84 26h2v13h-2z M16 27h4v1h-4z M80 27h4v1h-4z M16 28h3v2h-3z M81 28h3v2h-3z M16 30h2v2h-2z M82 30h2v2h-2z M16 32h1v4h-1z M83 32h1v5h-1z M12 36h1v1h-1z M87 36h1v1h-1z M15 39h1v1h-1z"/>
  <path fill="#6d4d41" d="M16 36h1v1h-1z"/>
  <path fill="#6d4e41" d="M82 32h1v1h-1z"/>
  <path fill="#6d4f41" d="M17 32h1v1h-1z"/>
  <path fill="#6d6702" d="M58 39h1v1h-1z"/>
  <path fill="#6da43a" d="M43 22h1v1h-1z M23 52h1v1h-1z"/>
  <path fill="#6da43b" d="M45 19h1v1h-1z M54 22h1v1h-1z"/>
  <path fill="#6e5741" d="M83 37h1v1h-1z"/>
  <path fill="#6ea43a" d="M76 56h1v1h-1z"/>
  <path fill="#6ea53b" d="M44 17h1v1h-1z M45 20h1v1h-1z M57 21h1v1h-1z M54 23h1v1h-1z M32 52h1v1h-1z M50 81h1v1h-1z"/>
  <path fill="#6ea53c" d="M49 81h1v1h-1z"/>
  <path fill="#6ea73d" d="M27 65h1v1h-1z"/>
  <path fill="#6f5841" d="M16 37h1v1h-1z"/>
  <path fill="#6f6902" d="M41 39h1v1h-1z"/>
  <path fill="#6fa63b" d="M31 54h1v1h-1z"/>
  <path fill="#6fa63c" d="M71 47h1v1h-1z"/>
  <path fill="#6fa73c" d="M22 65h1v1h-1z"/>
  <path fill="#6fa73d" d="M72 65h1v1h-1z"/>
  <path fill="#706141" d="M81 30h1v1h-1z"/>
  <path fill="#706241" d="M18 30h1v1h-1z M16 38h1v1h-1z M83 38h1v1h-1z"/>
  <path fill="#70a63c" d="M41 22h1v1h-1z M27 46h1v1h-1z M72 46h1v1h-1z M77 61h1v1h-1z M61 82h1v1h-1z"/>
  <path fill="#70a73c" d="M28 47h1v1h-1z M71 53h1v1h-1z M21 55h1v1h-1z M77 63h1v1h-1z M20 66h1v1h-1z M38 82h1v1h-1z"/>
  <path fill="#70a83c" d="M31 53h1v1h-1z"/>
  <path fill="#716641" d="M80 28h1v1h-1z"/>
  <path fill="#716842" d="M19 28h1v1h-1z"/>
  <path fill="#716941" d="M17 33h1v1h-1z"/>
  <path fill="#71a44f" d="M66 60h1v1h-1z"/>
  <path fill="#71a73d" d="M38 79h1v1h-1z M61 79h1v1h-1z"/>
  <path fill="#71a83d" d="M22 63h1v1h-1z"/>
  <path fill="#71a93f" d="M43 56h1v1h-1z"/>
  <path fill="#726941" d="M82 33h1v1h-1z"/>
  <path fill="#726e41" d="M16 39h1v1h-1z M83 39h1v1h-1z"/>
  <path fill="#72a44f" d="M33 60h1v1h-1z"/>
  <path fill="#72a639" d="M54 42h1v1h-1z"/>
  <path fill="#72a83d" d="M79 64h1v1h-1z"/>
  <path fill="#72a93d" d="M45 18h1v1h-1z M57 24h1v1h-1z M34 52h1v1h-1z M72 52h1v1h-1z M76 53h1v1h-1z M79 60h1v1h-1z M21 66h1v1h-1z M44 77h1v1h-1z M55 77h1v1h-1z"/>
  <path fill="#72aa3e" d="M26 25h1v1h-1z M73 25h1v1h-1z M25 26h1v1h-1z M74 26h1v1h-1z M56 56h1v1h-1z"/>
  <path fill="#72ab3e" d="M34 26h1v1h-1z M65 26h1v1h-1z M41 29h1v1h-1z M58 29h1v1h-1z"/>
  <path fill="#73a739" d="M45 42h1v1h-1z"/>
  <path fill="#73aa3d" d="M75 52h1v1h-1z"/>
  <path fill="#73aa3e" d="M78 60h1v1h-1z M20 62h1v1h-1z"/>
  <path fill="#73ab3e" d="M78 64h1v1h-1z"/>
  <path fill="#74aa3e" d="M42 47h1v1h-1z M36 80h1v1h-1z M63 80h1v1h-1z"/>
  <path fill="#74aa3f" d="M74 43h1v1h-1z"/>
  <path fill="#74ab3e" d="M25 43h1v1h-1z M31 49h1v1h-1z M68 49h1v1h-1z M24 55h1v1h-1z"/>
  <path fill="#74ac3e" d="M56 46h1v1h-1z M57 47h1v1h-1z"/>
  <path fill="#758342" d="M82 34h1v1h-1z"/>
  <path fill="#758442" d="M17 34h1v1h-1z"/>
  <path fill="#75ab3f" d="M43 46h1v1h-1z"/>
  <path fill="#75ac3e" d="M40 17h1v1h-1z M35 54h1v1h-1z"/>
  <path fill="#75ac3f" d="M39 19h1v1h-1z M60 82h1v1h-1z"/>
  <path fill="#75ad3f" d="M21 62h1v1h-1z"/>
  <path fill="#768842" d="M81 31h1v1h-1z"/>
  <path fill="#768a42" d="M18 31h1v1h-1z"/>
  <path fill="#76ac3f" d="M29 48h1v1h-1z"/>
  <path fill="#76ad3f" d="M44 22h1v1h-1z M25 35h1v1h-1z M26 45h1v1h-1z M73 45h1v1h-1z M70 48h1v1h-1z M39 49h1v1h-1z M21 52h1v1h-1z M39 82h1v1h-1z"/>
  <path fill="#76ad40" d="M28 77h1v1h-1z"/>
  <path fill="#76ae3f" d="M45 21h1v1h-1z M40 78h1v1h-1z"/>
  <path fill="#77ad3f" d="M74 35h1v1h-1z M60 49h1v1h-1z M59 78h1v1h-1z"/>
  <path fill="#77ae3f" d="M42 16h1v1h-1z M39 20h1v1h-1z M54 21h1v1h-1z M35 53h1v1h-1z M31 55h1v1h-1z M73 58h1v1h-1z"/>
  <path fill="#77ae40" d="M58 22h1v1h-1z M31 61h1v1h-1z M68 61h1v1h-1z M33 83h1v1h-1z M66 83h1v1h-1z"/>
  <path fill="#77ae41" d="M39 57h1v1h-1z M60 57h1v1h-1z"/>
  <path fill="#77af41" d="M71 77h1v1h-1z"/>
  <path fill="#789741" d="M80 29h1v1h-1z"/>
  <path fill="#789941" d="M19 29h1v1h-1z"/>
  <path fill="#789942" d="M82 35h1v1h-1z"/>
  <path fill="#78ae40" d="M24 52h1v1h-1z"/>
  <path fill="#78af40" d="M26 33h1v1h-1z M71 57h1v1h-1z M74 58h1v1h-1z M81 62h1v1h-1z M18 64h1v1h-1z M19 66h1v1h-1z M34 83h1v1h-1z M65 83h1v1h-1z"/>
  <path fill="#78af41" d="M73 33h1v1h-1z M58 48h1v1h-1z"/>
  <path fill="#78b040" d="M58 23h1v1h-1z M33 56h1v1h-1z"/>
  <path fill="#799b42" d="M17 35h1v1h-1z"/>
  <path fill="#79af41" d="M43 16h1v1h-1z"/>
  <path fill="#79b040" d="M54 43h1v1h-1z M55 45h1v1h-1z M41 48h1v1h-1z M22 56h1v1h-1z M76 57h1v1h-1z"/>
  <path fill="#79b041" d="M54 24h1v1h-1z M25 68h1v1h-1z M74 68h1v1h-1z"/>
  <path fill="#79b141" d="M39 18h1v1h-1z M44 45h1v1h-1z M23 56h1v1h-1z M80 64h1v1h-1z"/>
  <path fill="#7ab041" d="M45 43h1v1h-1z M80 60h1v1h-1z"/>
  <path fill="#7ab141" d="M41 16h1v1h-1z M56 20h1v1h-1z M32 25h1v1h-1z M67 25h1v1h-1z M39 28h1v1h-1z M60 28h1v1h-1z M20 54h1v1h-1z M70 55h1v1h-1z M19 62h1v1h-1z M25 76h1v1h-1z M43 77h1v1h-1z M56 77h1v1h-1z"/>
  <path fill="#7ab241" d="M40 22h1v1h-1z M31 52h1v1h-1z"/>
  <path fill="#7bab42" d="M81 32h1v1h-1z"/>
  <path fill="#7bac42" d="M18 32h1v1h-1z"/>
  <path fill="#7bae40" d="M62 75h1v1h-1z"/>
  <path fill="#7bb142" d="M26 66h1v1h-1z M73 66h1v1h-1z M74 76h1v1h-1z M29 77h1v1h-1z"/>
  <path fill="#7bb241" d="M47 32h1v1h-1z M52 32h1v1h-1z M70 54h1v1h-1z M35 55h1v1h-1z M81 61h1v1h-1z M81 63h1v1h-1z M18 65h1v1h-1z M27 77h1v1h-1z M40 82h1v1h-1z M59 82h1v1h-1z"/>
  <path fill="#7bb242" d="M20 53h1v1h-1z M32 56h1v1h-1z M18 63h1v1h-1z M22 66h1v1h-1z M65 81h1v1h-1z M33 82h1v1h-1z M66 82h1v1h-1z"/>
  <path fill="#7bb341" d="M71 52h1v1h-1z M75 58h1v1h-1z M77 64h1v1h-1z M72 77h1v1h-1z"/>
  <path fill="#7cae40" d="M37 75h1v1h-1z"/>
  <path fill="#7cb041" d="M41 74h1v1h-1z M58 74h1v1h-1z"/>
  <path fill="#7cb042" d="M17 36h1v1h-1z M82 36h1v1h-1z"/>
  <path fill="#7cb242" d="M45 17h1v1h-1z M39 21h1v1h-1z M46 31h1v1h-1z M53 31h1v1h-1z M77 55h1v1h-1z M34 56h1v1h-1z M77 60h1v1h-1z M34 81h1v1h-1z"/>
  <path fill="#7cb341" d="M58 21h1v1h-1z M76 52h1v1h-1z M22 62h1v1h-1z"/>
  <path fill="#7cb342" d="M44 11h12v6h-12z M40 12h4v4h-4z M56 12h4v8h-4z M37 13h3v5h-3z M60 13h3v15h-3z M35 14h2v13h-2z M63 14h2v13h-2z M33 15h2v11h-2z M65 15h2v11h-2z M32 16h1v9h-1z M40 16h1v1h-1z M67 16h1v9h-1z M30 17h2v8h-2z M46 17h10v4h-10z M68 17h2v8h-2z M29 18h1v7h-1z M37 18h2v10h-2z M70 18h1v7h-1z M28 19h1v6h-1z M71 19h1v6h-1z M27 20h1v5h-1z M57 20h3v1h-3z M72 20h1v5h-1z M26 21h1v4h-1z M46 21h8v10h-8z M59 21h1v8h-1z M73 21h1v4h-1z M25 22h1v4h-1z M39 22h1v6h-1z M45 22h1v9h-1z M74 22h1v4h-1z M24 23h1v29h-1z M40 23h5v6h-5z M75 23h1v29h-1z M23 24h1v28h-1z M58 24h1v5h-1z M76 24h1v28h-1z M22 25h1v27h-1z M54 25h4v5h-4z M77 25h1v30h-1z M21 27h1v25h-1z M78 27h1v33h-1z M20 28h1v25h-1z M79 28h1v32h-1z M42 29h3v1h-3z M19 30h1v32h-1z M44 30h1v1h-1z M54 30h2v1h-2z M80 30h1v30h-1z M47 31h6v1h-6z M25 32h1v3h-1z M48 32h4v24h-4z M74 32h1v3h-1z M18 33h1v30h-1z M81 33h1v28h-1z M17 37h1v44h-1z M82 37h1v44h-1z M47 38h1v18h-1z M52 38h1v18h-1z M46 39h1v17h-1z M53 39h1v17h-1z M25 44h1v24h-1z M45 44h1v12h-1z M54 44h1v12h-1z M74 44h1v8h-1z M26 46h1v20h-1z M44 46h1v10h-1z M55 46h1v10h-1z M73 46h1v6h-1z M27 47h1v18h-1z M43 47h1v9h-1z M56 47h1v9h-1z M72 47h1v5h-1z M16 48h1v31h-1z M28 48h1v16h-1z M42 48h1v9h-1z M57 48h1v9h-1z M71 48h1v4h-1z M83 48h1v31h-1z M29 49h2v13h-2z M40 49h2v8h-2z M58 49h2v8h-2z M69 49h2v5h-2z M31 50h9v2h-9z M60 50h9v7h-9z M35 52h5v1h-5z M36 53h4v4h-4z M69 54h1v8h-1z M20 55h1v7h-1z M21 56h1v6h-1z M24 56h1v30h-1z M31 56h1v5h-1z M35 56h1v3h-1z M70 56h1v7h-1z M77 56h1v4h-1z M15 57h1v20h-1z M22 57h2v5h-2z M32 57h3v2h-3z M36 57h3v1h-3z M61 57h8v1h-8z M84 57h1v20h-1z M36 58h1v1h-1z M64 58h5v1h-5z M71 58h2v6h-2z M76 58h1v27h-1z M32 59h2v1h-2z M66 59h3v1h-3z M73 59h3v7h-3z M32 60h1v1h-1z M67 60h2v1h-2z M23 62h1v23h-1z M29 62h1v1h-1z M72 64h1v1h-1z M81 64h1v18h-1z M77 65h4v18h-4z M14 66h1v8h-1z M18 66h1v16h-1z M74 66h2v2h-2z M85 66h1v8h-1z M19 67h4v16h-4z M75 68h1v18h-1z M48 73h4v4h-4z M42 74h6v3h-6z M52 74h6v3h-6z M38 75h4v3h-4z M58 75h4v3h-4z M34 76h4v4h-4z M62 76h4v4h-4z M25 77h2v9h-2z M30 77h4v5h-4z M42 77h1v1h-1z M57 77h1v1h-1z M66 77h5v5h-5z M73 77h2v9h-2z M27 78h3v9h-3z M38 78h2v1h-2z M60 78h2v1h-2z M71 78h2v9h-2z M34 80h2v1h-2z M64 80h2v1h-2z M30 82h3v5h-3z M41 82h18v5h-18z M67 82h4v5h-4z M20 83h3v1h-3z M35 83h6v4h-6z M59 83h6v4h-6z M77 83h3v1h-3z M22 84h1v1h-1z M33 84h2v3h-2z M65 84h2v3h-2z M77 84h1v1h-1z"/>
  <path fill="#7db244" d="M34 59h1v1h-1z M65 59h1v1h-1z"/>
  <path fill="#7db344" d="M63 58h1v1h-1z"/>
  <path fill="#7eae40" d="M47 73h1v1h-1z M52 73h1v1h-1z"/>
  <path fill="#7fb051" d="M66 76h1v1h-1z"/>
  <path fill="#7fb053" d="M33 76h1v1h-1z"/>
  <path fill="#80ab64" d="M37 58h1v1h-1z"/>
  <path fill="#819b37" d="M46 73h1v1h-1z M53 73h1v1h-1z"/>
  <path fill="#819d12" d="M43 39h1v1h-1z M56 39h1v1h-1z"/>
  <path fill="#84a386" d="M37 64h1v1h-1z M62 64h1v1h-1z M70 70h1v1h-1z"/>
  <path fill="#84a387" d="M29 70h1v1h-1z"/>
  <path fill="#87852b" d="M63 75h1v1h-1z"/>
  <path fill="#878f30" d="M40 74h1v1h-1z"/>
  <path fill="#879030" d="M59 74h1v1h-1z"/>
  <path fill="#88ad74" d="M35 59h1v1h-1z"/>
  <path fill="#88ae74" d="M64 59h1v1h-1z"/>
  <path fill="#89842a" d="M36 75h1v1h-1z"/>
  <path fill="#89882c" d="M45 73h1v1h-1z M54 73h1v1h-1z"/>
  <path fill="#89a78b" d="M39 62h1v1h-1z M60 62h1v1h-1z"/>
  <path fill="#8aa88c" d="M39 58h1v1h-1z"/>
  <path fill="#8ab070" d="M62 58h1v1h-1z"/>
  <path fill="#8bb076" d="M67 76h1v1h-1z"/>
  <path fill="#8ca98e" d="M60 58h1v1h-1z"/>
  <path fill="#8da98f" d="M39 59h1v3h-1z M60 59h1v3h-1z"/>
  <path fill="#8db178" d="M32 76h1v1h-1z"/>
  <path fill="#91ac93" d="M70 75h1v1h-1z"/>
  <path fill="#92b226" d="M45 41h1v1h-1z"/>
  <path fill="#93a80f" d="M44 39h1v1h-1z M55 39h1v1h-1z"/>
  <path fill="#93ad1e" d="M72 35h1v1h-1z M39 47h1v1h-1z M60 47h1v1h-1z"/>
  <path fill="#94ae1e" d="M44 43h1v1h-1z"/>
  <path fill="#94ae96" d="M29 75h1v1h-1z"/>
  <path fill="#94b225" d="M54 41h1v1h-1z"/>
  <path fill="#95af1d" d="M27 35h1v1h-1z"/>
  <path fill="#96b01d" d="M72 41h1v1h-1z"/>
  <path fill="#96b01e" d="M55 43h1v1h-1z"/>
  <path fill="#98b01d" d="M33 47h1v1h-1z M66 47h1v1h-1z"/>
  <path fill="#98b11c" d="M27 41h1v1h-1z"/>
  <path fill="#9a701f" d="M55 73h1v1h-1z"/>
  <path fill="#9a7020" d="M44 73h1v1h-1z"/>
  <path fill="#9ab11c" d="M58 46h1v1h-1z"/>
  <path fill="#9ab21c" d="M41 46h1v1h-1z"/>
  <path fill="#9f6a1c" d="M60 74h1v1h-1z"/>
  <path fill="#a0691b" d="M39 74h1v1h-1z"/>
  <path fill="#a1ba98" d="M68 76h1v1h-1z"/>
  <path fill="#a2b61a" d="M71 43h1v1h-1z M68 46h1v1h-1z"/>
  <path fill="#a34a0d" d="M47 69h1v1h-1z"/>
  <path fill="#a3bb9b" d="M31 76h1v1h-1z"/>
  <path fill="#a4b719" d="M28 43h1v1h-1z M31 46h1v1h-1z"/>
  <path fill="#a54a0d" d="M52 69h1v1h-1z"/>
  <path fill="#a6baa7" d="M70 71h1v1h-1z"/>
  <path fill="#a7baa8" d="M32 69h1v1h-1z"/>
  <path fill="#a7bca3" d="M38 58h1v1h-1z"/>
  <path fill="#a84a0c" d="M49 70h1v1h-1z"/>
  <path fill="#a89a00" d="M31 40h1v1h-1z"/>
  <path fill="#a99b00" d="M34 43h1v1h-1z"/>
  <path fill="#a9bcaa" d="M67 69h1v1h-1z M29 71h1v1h-1z"/>
  <path fill="#aa9c00" d="M68 40h1v1h-1z M65 43h1v1h-1z"/>
  <path fill="#aabdac" d="M70 74h1v1h-1z"/>
  <path fill="#ab4a0c" d="M50 70h1v1h-1z"/>
  <path fill="#abb70c" d="M42 39h1v1h-1z M57 39h1v1h-1z"/>
  <path fill="#ae490b" d="M59 69h1v1h-1z"/>
  <path fill="#aebfaf" d="M29 74h1v1h-1z"/>
  <path fill="#af490b" d="M40 69h1v1h-1z"/>
  <path fill="#afa100" d="M31 36h1v1h-1z"/>
  <path fill="#b1c1b3" d="M33 71h1v1h-1z"/>
  <path fill="#b25913" d="M43 73h1v1h-1z M56 73h1v1h-1z"/>
  <path fill="#b2a300" d="M68 36h1v1h-1z M61 43h1v1h-1z"/>
  <path fill="#b2c1b3" d="M34 73h1v1h-1z"/>
  <path fill="#b2c2b3" d="M34 61h1v1h-1z"/>
  <path fill="#b3a400" d="M38 43h1v1h-1z"/>
  <path fill="#b3c4af" d="M61 58h1v1h-1z"/>
  <path fill="#b4c3b5" d="M66 71h1v1h-1z"/>
  <path fill="#b5c4b6" d="M65 61h1v1h-1z"/>
  <path fill="#b6470a" d="M61 70h1v1h-1z"/>
  <path fill="#b6c4b7" d="M70 72h1v1h-1z"/>
  <path fill="#b7c110" d="M54 39h1v1h-1z"/>
  <path fill="#b7c111" d="M45 39h1v1h-1z"/>
  <path fill="#b8c6b9" d="M29 72h1v1h-1z M70 73h1v1h-1z"/>
  <path fill="#b9470a" d="M38 70h1v1h-1z"/>
  <path fill="#bcad00" d="M58 40h1v1h-1z"/>
  <path fill="#bcc8bd" d="M29 73h1v1h-1z M65 73h1v1h-1z"/>
  <path fill="#bdcabc" d="M69 76h1v1h-1z"/>
  <path fill="#bec512" d="M56 44h1v1h-1z"/>
  <path fill="#bec815" d="M45 40h1v1h-1z"/>
  <path fill="#bfaf00" d="M41 40h1v1h-1z"/>
  <path fill="#c0c815" d="M54 40h1v1h-1z"/>
  <path fill="#c0ccbf" d="M30 76h1v1h-1z"/>
  <path fill="#c1c409" d="M30 34h1v1h-1z M69 34h1v1h-1z"/>
  <path fill="#c1c811" d="M43 44h1v1h-1z"/>
  <path fill="#c2ccc1" d="M34 60h1v1h-1z M65 60h1v1h-1z"/>
  <path fill="#c34e0c" d="M61 74h1v1h-1z"/>
  <path fill="#c3c811" d="M42 45h1v1h-1z"/>
  <path fill="#c49f7a" d="M64 75h1v1h-1z"/>
  <path fill="#c4c910" d="M57 45h1v1h-1z"/>
  <path fill="#c54d0c" d="M38 74h1v1h-1z"/>
  <path fill="#c59f7a" d="M35 75h1v1h-1z"/>
  <path fill="#c5c910" d="M38 47h1v1h-1z"/>
  <path fill="#c6ca10" d="M72 36h1v1h-1z M61 47h1v1h-1z"/>
  <path fill="#c7cb0f" d="M27 36h1v1h-1z"/>
  <path fill="#c8cb0f" d="M65 47h1v1h-1z"/>
  <path fill="#c8cc0f" d="M34 47h1v1h-1z"/>
  <path fill="#c8d1c8" d="M63 59h1v1h-1z"/>
  <path fill="#c9cc0f" d="M72 40h1v1h-1z"/>
  <path fill="#c9d1c9" d="M36 59h1v1h-1z"/>
  <path fill="#cacd0f" d="M27 40h1v1h-1z"/>
  <path fill="#cb480b" d="M64 73h1v1h-1z"/>
  <path fill="#cccd0e" d="M29 44h1v1h-1z"/>
  <path fill="#cdce0e" d="M69 45h1v1h-1z"/>
  <path fill="#cecf0d" d="M30 45h1v1h-1z"/>
  <path fill="#cf4909" d="M57 73h1v1h-1z"/>
  <path fill="#d04407" d="M35 73h1v1h-1z"/>
  <path fill="#d04809" d="M42 73h1v1h-1z"/>
  <path fill="#d0d00d" d="M70 44h1v1h-1z"/>
  <path fill="#d0d5d1" d="M30 69h1v1h-1z"/>
  <path fill="#d0d6d1" d="M69 69h1v1h-1z"/>
  <path fill="#d5d9d6" d="M64 62h1v1h-1z"/>
  <path fill="#d6dad7" d="M35 62h1v1h-1z"/>
  <path fill="#d7c7bb" d="M65 75h1v1h-1z"/>
  <path fill="#dac9bf" d="M34 75h1v1h-1z"/>
  <path fill="#dedfde" d="M38 63h1v1h-1z M61 63h1v1h-1z"/>
  <path fill="#dfd809" d="M72 37h1v1h-1z M37 47h1v1h-1z M62 47h1v1h-1z"/>
  <path fill="#dfdfdf" d="M36 63h1v1h-1z M63 63h1v1h-1z"/>
  <path fill="#e0d908" d="M27 37h1v1h-1z"/>
  <path fill="#e0d909" d="M72 39h1v1h-1z"/>
  <path fill="#e0e0e0" d="M37 59h2v4h-2z M61 59h2v4h-2z M35 60h2v2h-2z M63 60h2v2h-2z M36 62h1v1h-1z M63 62h1v1h-1z M37 63h1v1h-1z M62 63h1v1h-1z M31 69h1v7h-1z M68 69h1v7h-1z M30 70h1v6h-1z M32 70h1v6h-1z M67 70h1v6h-1z M69 70h1v6h-1z M33 72h1v4h-1z M66 72h1v4h-1z M34 74h1v1h-1z M65 74h1v1h-1z"/>
  <path fill="#e1da08" d="M27 39h1v1h-1z M35 47h1v1h-1z M64 47h1v1h-1z"/>
  <path fill="#e54104" d="M62 71h1v1h-1z"/>
  <path fill="#e7d400" d="M32 42h1v1h-1z"/>
  <path fill="#e84103" d="M46 69h1v1h-1z M37 71h1v1h-1z"/>
  <path fill="#e8d500" d="M67 42h1v1h-1z"/>
  <path fill="#e94003" d="M53 69h1v1h-1z"/>
  <path fill="#ea4003" d="M63 72h1v1h-1z"/>
  <path fill="#ec4003" d="M58 69h1v1h-1z M36 72h1v1h-1z"/>
  <path fill="#ecdf05" d="M44 42h1v1h-1z M36 47h1v1h-1z M63 47h1v1h-1z"/>
  <path fill="#ed3f03" d="M41 69h1v1h-1z"/>
  <path fill="#ede005" d="M27 38h1v1h-1z M72 38h1v1h-1z M55 42h1v1h-1z"/>
  <path fill="#efdb00" d="M59 42h1v1h-1z"/>
  <path fill="#f04002" d="M49 72h2v1h-2z"/>
  <path fill="#f0dc00" d="M40 42h1v1h-1z"/>
  <path fill="#f0e204" d="M71 34h1v1h-1z M40 46h1v1h-1z M59 46h1v1h-1z"/>
  <path fill="#f18563" d="M64 74h1v1h-1z"/>
  <path fill="#f1e204" d="M28 34h1v1h-1z"/>
  <path fill="#f33f02" d="M58 73h1v1h-1z M62 74h1v1h-1z"/>
  <path fill="#f43f02" d="M41 73h1v1h-1z M37 74h1v1h-1z"/>
  <path fill="#f47952" d="M35 74h1v1h-1z"/>
  <path fill="#f4e303" d="M71 42h1v1h-1z M67 46h1v1h-1z"/>
  <path fill="#f4e403" d="M32 46h1v1h-1z"/>
  <path fill="#f5e403" d="M28 42h1v1h-1z"/>
  <path fill="#f93e01" d="M48 72h1v1h-1z M51 72h1v1h-1z"/>
  <path fill="#fce700" d="M31 41h1v1h-1z"/>
  <path fill="#fde800" d="M68 41h1v1h-1z M33 43h1v1h-1z M66 43h1v1h-1z"/>
  <path fill="#fe3d00" d="M48 70h1v1h-1z M51 70h1v1h-1z"/>
  <path fill="#fee900" d="M29 34h1v1h-1z M70 34h1v1h-1z M31 35h1v1h-1z M68 35h1v1h-1z M39 43h1v1h-1z M60 43h1v1h-1z"/>
  <path fill="#ff3d00" d="M42 69h4v4h-4z M54 69h4v4h-4z M39 70h3v3h-3z M46 70h2v3h-2z M52 70h2v3h-2z M58 70h3v3h-3z M38 71h1v3h-1z M48 71h4v1h-4z M61 71h1v3h-1z M37 72h1v2h-1z M62 72h1v2h-1z M36 73h1v2h-1z M39 73h2v1h-2z M59 73h2v1h-2z M63 73h1v2h-1z"/>
  <path fill="#ffea00" d="M28 35h3v7h-3z M69 35h3v7h-3z M42 40h3v2h-3z M55 40h3v2h-3z M41 41h1v5h-1z M58 41h1v5h-1z M29 42h3v2h-3z M42 42h2v2h-2z M56 42h2v2h-2z M68 42h3v2h-3z M32 43h1v3h-1z M40 43h1v3h-1z M59 43h1v3h-1z M67 43h1v3h-1z M30 44h2v1h-2z M33 44h7v3h-7z M42 44h1v1h-1z M57 44h1v1h-1z M60 44h7v3h-7z M68 44h2v1h-2z M31 45h1v1h-1z M68 45h1v1h-1z"/>
</svg>