<?xml version="1.0" encoding="UTF-8"?>
<svg xmlns="http://www.w3.org/2000/svg" width="100" height="100" viewBox="0 0 100 100" shape-rendering="crispEdges" role="img">
  <title>icons8-pixel-star-100</title>
  <desc>Pixel-perfect vector conversion from the provided PNG icon. Transparent background preserved.</desc>
  <path fill="#ffaa00" fill-opacity="0.0118" d="M20 52h1v1h-1z M79 52h1v1h-1z"/>
  <path fill="#ffcc33" fill-opacity="0.0196" d="M18 72h1v1h-1z M81 72h1v1h-1z"/>
  <path fill="#ffcc33" fill-opacity="0.0392" d="M22 62h1v1h-1z M77 62h1v1h-1z"/>
  <path fill="#ffce24" fill-opacity="0.0824" d="M21 52h6v1h-6z M73 52h6v1h-6z M22 63h1v9h-1z M77 63h1v9h-1z M19 72h3v1h-3z M78 72h3v1h-3z"/>
  <path fill="#ffc824" fill-opacity="0.1098" d="M45 8h1v1h-1z M54 8h1v1h-1z M41 16h1v1h-1z M58 16h1v1h-1z"/>
  <path fill="#ffc727" fill-opacity="0.1255" d="M31 87h1v1h-1z M68 87h1v1h-1z"/>
  <path fill="#ffcc26" fill-opacity="0.1569" d="M22 72h1v1h-1z M77 72h1v1h-1z"/>
  <path fill="#ffc82a" fill-opacity="0.1647" d="M41 81h1v1h-1z M58 81h1v1h-1z"/>
  <path fill="#ffc929" fill-opacity="0.1686" d="M45 9h1v7h-1z M54 9h1v7h-1z M20 46h1v6h-1z M79 46h1v6h-1z"/>
  <path fill="#ffcb27" fill-opacity="0.251" d="M18 73h1v8h-1z M81 73h1v8h-1z M32 81h9v1h-9z M59 81h9v1h-9z M31 82h1v5h-1z M68 82h1v5h-1z"/>
  <path fill="#ffc927" fill-opacity="0.2784" d="M14 91h1v1h-1z M85 91h1v1h-1z"/>
  <path fill="#ffc829" fill-opacity="0.3137" d="M14 81h1v1h-1z M85 81h1v1h-1z"/>
  <path fill="#ffc927" fill-opacity="0.3333" d="M42 16h3v1h-3z M55 16h3v1h-3z M41 17h1v8h-1z M58 17h1v8h-1z"/>
  <path fill="#ffca28" fill-opacity="0.4157" d="M12 45h1v1h-1z M87 45h1v1h-1z"/>
  <path fill="#ffca28" fill-opacity="0.4196" d="M14 82h1v9h-1z M85 82h1v9h-1z"/>
  <path fill="#ffca28" fill-opacity="0.4392" d="M31 81h1v1h-1z M68 81h1v1h-1z"/>
  <path fill="#ffcb28" fill-opacity="0.4431" d="M45 16h1v1h-1z M54 16h1v1h-1z"/>
  <path fill="#ffc927" fill-opacity="0.4824" d="M4 39h1v1h-1z M95 39h1v1h-1z"/>
  <path fill="#ffc927" fill-opacity="0.502" d="M12 40h1v5h-1z M87 40h1v5h-1z M23 62h4v1h-4z M73 62h4v1h-4z M21 87h10v1h-10z M69 87h10v1h-10z"/>
  <path fill="#ffc927" fill-opacity="0.5569" d="M4 33h1v1h-1z M95 33h1v1h-1z M20 91h1v1h-1z M79 91h1v1h-1z"/>
  <path fill="#ffc927" fill-opacity="0.5843" d="M35 25h1v8h-1z M64 25h1v8h-1z M5 39h7v1h-7z M88 39h7v1h-7z"/>
  <path fill="#ffc928" fill-opacity="0.6706" d="M46 8h8v1h-8z M5 33h30v1h-30z M65 33h30v1h-30z M41 75h1v6h-1z M58 75h1v6h-1z M15 91h5v1h-5z M80 91h5v1h-5z"/>
  <path fill="#ffc927" fill-opacity="0.7529" d="M15 81h3v1h-3z M82 81h3v1h-3z"/>
  <path fill="#ffc928" fill-opacity="0.7922" d="M12 39h1v1h-1z M87 39h1v1h-1z"/>
  <path fill="#ffca28" fill-opacity="0.8157" d="M18 81h1v1h-1z M81 81h1v1h-1z"/>
  <path fill="#ffca27" fill-opacity="0.8353" d="M4 34h1v5h-1z M95 34h1v5h-1z M13 45h7v1h-7z M80 45h7v1h-7z M20 88h1v3h-1z M79 88h1v3h-1z"/>
  <path fill="#ffc928" fill-opacity="0.8627" d="M35 33h1v1h-1z M64 33h1v1h-1z M20 45h1v1h-1z M79 45h1v1h-1z"/>
  <path fill="#ffc928" fill-opacity="0.9176" d="M20 87h1v1h-1z M79 87h1v1h-1z"/>
  <path fill="#ffc928" fill-opacity="0.9216" d="M27 53h1v9h-1z M72 53h1v9h-1z"/>
  <path fill="#ffca27" fill-opacity="0.9255" d="M27 52h1v1h-1z M72 52h1v1h-1z"/>
  <path fill="#ffc927" fill-opacity="0.9608" d="M27 62h1v1h-1z M72 62h1v1h-1z"/>
  <path fill="#ffca28" d="M46 9h8v66h-8z M42 17h4v58h-4z M54 17h4v58h-4z M36 25h6v50h-6z M58 25h6v50h-6z M5 34h31v5h-31z M64 34h31v5h-31z M13 39h23v6h-23z M64 39h23v6h-23z M21 45h15v7h-15z M64 45h15v7h-15z M28 52h8v29h-8z M64 52h8v29h-8z M23 63h5v24h-5z M72 63h5v24h-5z M19 73h4v14h-4z M77 73h4v14h-4z M36 75h5v6h-5z M59 75h5v6h-5z M28 81h3v6h-3z M69 81h3v6h-3z M15 82h4v9h-4z M81 82h4v9h-4z M19 87h1v4h-1z M80 87h1v4h-1z"/>
</svg>