<?xml version="1.0" encoding="UTF-8"?>
<svg xmlns="http://www.w3.org/2000/svg" width="100" height="100" viewBox="0 0 100 100" shape-rendering="crispEdges" role="img">
  <title>icons8-minecraft-pig-100</title>
  <desc>Pixel-perfect vector conversion from the provided PNG icon. Transparent background preserved.</desc>
  <path fill="#ef9b9b" fill-opacity="0.251" d="M12 12h1v1h-1z M87 12h1v1h-1z M12 87h1v1h-1z M87 87h1v1h-1z"/>
  <path fill="#ef9999" fill-opacity="0.502" d="M13 12h16v1h-16z M38 12h49v1h-49z M12 13h1v30h-1z M87 13h1v30h-1z M12 53h1v34h-1z M87 53h1v34h-1z M13 87h74v1h-74z"/>
  <path fill="#de9191" fill-opacity="0.5216" d="M12 52h1v1h-1z M87 52h1v1h-1z"/>
  <path fill="#c28183" fill-opacity="0.5647" d="M12 43h1v1h-1z M87 43h1v1h-1z"/>
  <path fill="#ea8a8a" fill-opacity="0.6275" d="M37 12h1v1h-1z"/>
  <path fill="#e88383" fill-opacity="0.7098" d="M29 12h1v1h-1z"/>
  <path fill="#685357" fill-opacity="0.7529" d="M12 44h1v8h-1z M87 44h1v8h-1z"/>
  <path fill="#e87f7f" fill-opacity="0.7529" d="M30 12h7v1h-7z"/>
  <path fill="#263238" d="M13 44h7v8h-7z M80 44h7v8h-7z"/>
  <path fill="#666367" d="M20 44h1v8h-1z M79 44h1v8h-1z"/>
  <path fill="#bd8081" d="M13 43h7v1h-7z M80 43h7v1h-7z"/>
  <path fill="#c7898b" d="M20 43h1v1h-1z M79 43h1v1h-1z"/>
  <path fill="#de9192" d="M13 52h7v1h-7z M80 52h7v1h-7z"/>
  <path fill="#e29495" d="M20 52h1v1h-1z M79 52h1v1h-1z"/>
  <path fill="#e57373" d="M30 13h7v16h-7z M34 63h7v7h-7z M59 63h7v7h-7z"/>
  <path fill="#e67979" d="M29 13h1v16h-1z"/>
  <path fill="#e98283" d="M34 70h7v1h-7z M59 70h7v1h-7z"/>
  <path fill="#ea8787" d="M37 13h1v16h-1z"/>
  <path fill="#ec8b8c" d="M33 63h1v7h-1z M66 63h1v7h-1z"/>
  <path fill="#ed9595" d="M29 29h1v1h-1z"/>
  <path fill="#ee9192" d="M41 63h1v7h-1z M58 63h1v7h-1z"/>
  <path fill="#ee9393" d="M30 29h7v1h-7z"/>
  <path fill="#ee9696" d="M37 29h1v1h-1z"/>
  <path fill="#ef9395" d="M33 70h1v1h-1z M66 70h1v1h-1z"/>
  <path fill="#ef9a9a" d="M13 13h16v30h-16z M38 13h49v30h-49z M29 30h9v13h-9z M30 43h40v11h-40z M13 53h17v34h-17z M70 53h17v34h-17z M30 54h3v33h-3z M67 54h3v33h-3z M33 80h34v7h-34z"/>
  <path fill="#ef9b9b" d="M29 52h1v1h-1z M70 52h1v1h-1z"/>
  <path fill="#f09e9e" d="M29 43h1v1h-1z M70 43h1v1h-1z"/>
  <path fill="#f0a2a2" d="M21 52h8v1h-8z M71 52h8v1h-8z"/>
  <path fill="#f19b9d" d="M41 70h1v1h-1z M58 70h1v1h-1z"/>
  <path fill="#f1a0a0" d="M33 79h1v1h-1z M66 79h1v1h-1z"/>
  <path fill="#f2a0a3" d="M34 62h7v1h-7z M59 62h7v1h-7z"/>
  <path fill="#f2a3a3" d="M34 79h32v1h-32z"/>
  <path fill="#f2abab" d="M29 44h1v8h-1z M70 44h1v8h-1z"/>
  <path fill="#f3a3a6" d="M33 62h1v1h-1z M66 62h1v1h-1z"/>
  <path fill="#f3b3b3" d="M21 43h8v1h-8z M71 43h8v1h-8z"/>
  <path fill="#f6afb2" d="M41 62h1v1h-1z M58 62h1v1h-1z"/>
  <path fill="#f8b6b9" d="M33 54h1v1h-1z M66 54h1v1h-1z"/>
  <path fill="#fabcc0" d="M33 55h1v7h-1z M66 55h1v7h-1z M33 71h1v8h-1z M66 71h1v8h-1z"/>
  <path fill="#fcc4c8" d="M34 54h32v1h-32z"/>
  <path fill="#ffcdd2" d="M34 55h32v7h-32z M42 62h16v17h-16z M34 71h8v8h-8z M58 71h8v8h-8z"/>
  <path fill="#ffffff" d="M21 44h8v8h-8z M71 44h8v8h-8z"/>
</svg>