<?xml version="1.0" encoding="UTF-8"?>
<svg xmlns="http://www.w3.org/2000/svg" width="100" height="100" viewBox="0 0 100 100" shape-rendering="crispEdges" role="img">
  <title>icons8-spades-100</title>
  <desc>Pixel-perfect vector conversion from the provided PNG icon. Transparent background preserved.</desc>
  <path fill="#000000" fill-opacity="0.0039" d="M76 34h1v1h-1z M79 37h1v1h-1z M15 59h1v1h-1z M84 59h1v1h-1z M19 65h1v1h-1z M80 65h1v1h-1z M42 69h1v1h-1z M57 69h1v1h-1z M35 86h1v1h-1z"/>
  <path fill="#7f7f7f" fill-opacity="0.0078" d="M77 35h1v1h-1z M16 61h1v1h-1z M83 61h1v1h-1z"/>
  <path fill="#555555" fill-opacity="0.0118" d="M53 16h1v1h-1z M67 27h1v1h-1z M23 34h1v1h-1z M20 37h1v1h-1z M56 73h1v1h-1z"/>
  <path fill="#3f3f7f" fill-opacity="0.0157" d="M46 16h1v1h-1z M32 27h1v1h-1z M43 73h1v1h-1z M60 81h1v1h-1z M36 85h1v1h-1z M63 85h1v1h-1z"/>
  <path fill="#336666" fill-opacity="0.0196" d="M54 17h1v1h-1z M22 35h1v1h-1z M78 36h1v1h-1z M76 68h1v1h-1z M39 81h1v1h-1z"/>
  <path fill="#555555" fill-opacity="0.0235" d="M45 17h1v1h-1z M71 30h1v1h-1z M23 68h1v1h-1z"/>
  <path fill="#48486d" fill-opacity="0.0275" d="M44 18h1v1h-1z M21 36h1v1h-1z"/>
  <path fill="#3f5f5f" fill-opacity="0.0314" d="M55 18h1v1h-1z M28 30h1v1h-1z M74 69h1v1h-1z"/>
  <path fill="#385571" fill-opacity="0.0353" d="M39 22h1v1h-1z M82 41h1v1h-1z M85 48h1v1h-1z M25 69h1v1h-1z M39 70h1v1h-1z M60 70h1v1h-1z"/>
  <path fill="#4c6666" fill-opacity="0.0392" d="M60 22h1v1h-1z"/>
  <path fill="#455c5c" fill-opacity="0.0431" d="M17 41h1v1h-1z M14 48h1v1h-1z"/>
  <path fill="#4e6262" fill-opacity="0.051" d="M64 25h1v1h-1z"/>
  <path fill="#445566" fill-opacity="0.0588" d="M37 84h1v1h-1z"/>
  <path fill="#3f5f5f" fill-opacity="0.0627" d="M52 15h1v1h-1z"/>
  <path fill="#4b5a69" fill-opacity="0.0667" d="M47 15h1v1h-1z M62 84h1v1h-1z"/>
  <path fill="#465563" fill-opacity="0.0706" d="M49 12h2v1h-2z M71 70h1v1h-1z"/>
  <path fill="#435d5d" fill-opacity="0.0745" d="M43 19h1v1h-1z M35 25h1v1h-1z M28 70h1v1h-1z"/>
  <path fill="#3f5966" fill-opacity="0.0784" d="M85 55h1v1h-1z"/>
  <path fill="#485561" fill-opacity="0.0824" d="M56 19h1v1h-1z"/>
  <path fill="#455c68" fill-opacity="0.0863" d="M14 55h1v1h-1z"/>
  <path fill="#475b66" fill-opacity="0.098" d="M84 45h1v1h-1z"/>
  <path fill="#485b64" fill-opacity="0.1098" d="M68 28h1v1h-1z M83 43h1v1h-1z"/>
  <path fill="#465760" fill-opacity="0.1137" d="M15 45h1v1h-1z"/>
  <path fill="#415a62" fill-opacity="0.1216" d="M16 43h1v1h-1z"/>
  <path fill="#475767" fill-opacity="0.1255" d="M72 31h1v1h-1z"/>
  <path fill="#455c64" fill-opacity="0.1294" d="M31 28h1v1h-1z"/>
  <path fill="#445967" fill-opacity="0.1451" d="M54 67h1v1h-1z"/>
  <path fill="#435764" fill-opacity="0.149" d="M27 31h1v1h-1z"/>
  <path fill="#435d6b" fill-opacity="0.149" d="M45 67h1v1h-1z"/>
  <path fill="#445763" fill-opacity="0.1608" d="M58 78h1v1h-1z"/>
  <path fill="#425b61" fill-opacity="0.1647" d="M57 20h1v1h-1z"/>
  <path fill="#475864" fill-opacity="0.1686" d="M38 23h1v1h-1z M41 78h1v1h-1z"/>
  <path fill="#455c62" fill-opacity="0.1725" d="M51 14h1v1h-1z M42 20h1v1h-1z M61 23h1v1h-1z"/>
  <path fill="#445a66" fill-opacity="0.1765" d="M82 62h1v1h-1z M42 76h1v1h-1z"/>
  <path fill="#425863" fill-opacity="0.1804" d="M55 71h1v1h-1z M35 87h1v1h-1z M64 87h1v1h-1z"/>
  <path fill="#465c61" fill-opacity="0.1843" d="M48 14h1v1h-1z M81 40h1v1h-1z M17 62h1v1h-1z M57 76h1v1h-1z"/>
  <path fill="#455a64" fill-opacity="0.1882" d="M85 49h1v1h-1z"/>
  <path fill="#475b66" fill-opacity="0.1961" d="M44 71h1v1h-1z"/>
  <path fill="#445862" fill-opacity="0.2039" d="M18 40h1v1h-1z M14 49h1v1h-1z"/>
  <path fill="#435b65" fill-opacity="0.2078" d="M77 67h1v1h-1z"/>
  <path fill="#455866" fill-opacity="0.2157" d="M22 67h1v1h-1z"/>
  <path fill="#465765" fill-opacity="0.2275" d="M84 58h1v1h-1z"/>
  <path fill="#455a63" fill-opacity="0.2314" d="M65 26h1v1h-1z"/>
  <path fill="#445966" fill-opacity="0.2353" d="M73 32h1v1h-1z M85 54h1v1h-1z M38 83h1v1h-1z"/>
  <path fill="#475b64" fill-opacity="0.2392" d="M40 80h1v1h-1z"/>
  <path fill="#455a62" fill-opacity="0.2431" d="M15 58h1v1h-1z"/>
  <path fill="#445965" fill-opacity="0.2471" d="M14 54h1v1h-1z M61 83h1v1h-1z"/>
  <path fill="#435b63" fill-opacity="0.251" d="M59 80h1v1h-1z"/>
  <path fill="#465a62" fill-opacity="0.2549" d="M34 26h1v1h-1z"/>
  <path fill="#465863" fill-opacity="0.2706" d="M38 70h1v1h-1z"/>
  <path fill="#455b62" fill-opacity="0.2745" d="M54 68h1v1h-1z M61 70h1v1h-1z"/>
  <path fill="#445963" fill-opacity="0.2902" d="M56 74h1v1h-1z"/>
  <path fill="#445862" fill-opacity="0.2941" d="M41 69h1v1h-1z"/>
  <path fill="#465a64" fill-opacity="0.298" d="M26 32h1v1h-1z M45 68h1v1h-1z M58 69h1v1h-1z"/>
  <path fill="#435a64" fill-opacity="0.3098" d="M43 74h1v1h-1z"/>
  <path fill="#465962" fill-opacity="0.3137" d="M70 70h1v1h-1z"/>
  <path fill="#455b64" fill-opacity="0.3176" d="M69 29h1v1h-1z M29 70h1v1h-1z"/>
  <path fill="#435965" fill-opacity="0.3255" d="M85 50h1v1h-1z"/>
  <path fill="#455b64" fill-opacity="0.3294" d="M58 21h1v1h-1z M43 68h1v1h-1z"/>
  <path fill="#455a63" fill-opacity="0.3333" d="M14 50h1v1h-1z M56 68h1v1h-1z"/>
  <path fill="#465a63" fill-opacity="0.3412" d="M85 53h1v1h-1z M83 60h1v1h-1z"/>
  <path fill="#445864" fill-opacity="0.349" d="M14 53h1v1h-1z"/>
  <path fill="#465964" fill-opacity="0.3569" d="M16 60h1v1h-1z"/>
  <path fill="#455863" fill-opacity="0.3608" d="M41 21h1v1h-1z"/>
  <path fill="#435964" fill-opacity="0.3686" d="M37 24h1v1h-1z"/>
  <path fill="#455a64" fill-opacity="0.3765" d="M74 33h1v1h-1z"/>
  <path fill="#445963" fill-opacity="0.3804" d="M30 29h1v1h-1z"/>
  <path fill="#465b62" fill-opacity="0.3843" d="M85 51h1v1h-1z M73 69h1v1h-1z"/>
  <path fill="#455a64" fill-opacity="0.3882" d="M26 69h1v1h-1z"/>
  <path fill="#445963" fill-opacity="0.3922" d="M14 51h1v1h-1z M81 63h1v1h-1z"/>
  <path fill="#445a64" fill-opacity="0.3961" d="M14 52h1v1h-1z M85 52h1v1h-1z"/>
  <path fill="#455963" fill-opacity="0.4039" d="M80 39h1v1h-1z"/>
  <path fill="#445a64" fill-opacity="0.4078" d="M18 63h1v1h-1z"/>
  <path fill="#455a63" fill-opacity="0.4314" d="M78 66h1v1h-1z"/>
  <path fill="#445965" fill-opacity="0.4353" d="M62 24h1v1h-1z M25 33h1v1h-1z"/>
  <path fill="#445b64" fill-opacity="0.4392" d="M75 68h1v1h-1z"/>
  <path fill="#455a63" fill-opacity="0.4431" d="M84 46h1v1h-1z"/>
  <path fill="#455964" fill-opacity="0.4471" d="M21 66h1v1h-1z M24 68h1v1h-1z"/>
  <path fill="#455a63" fill-opacity="0.4627" d="M19 39h1v1h-1z"/>
  <path fill="#445a64" fill-opacity="0.4667" d="M37 70h1v1h-1z M62 70h1v1h-1z"/>
  <path fill="#445963" fill-opacity="0.4706" d="M15 46h1v1h-1z"/>
  <path fill="#455963" fill-opacity="0.502" d="M33 27h1v1h-1z M66 27h1v1h-1z M60 82h1v1h-1z"/>
  <path fill="#445963" fill-opacity="0.5137" d="M39 82h1v1h-1z"/>
  <path fill="#455a64" fill-opacity="0.5176" d="M69 70h1v1h-1z"/>
  <path fill="#455a63" fill-opacity="0.5216" d="M79 38h1v1h-1z M30 70h1v1h-1z"/>
  <path fill="#445964" fill-opacity="0.5255" d="M75 34h1v1h-1z"/>
  <path fill="#455a63" fill-opacity="0.5333" d="M36 87h28v1h-28z"/>
  <path fill="#445964" fill-opacity="0.5373" d="M82 42h1v1h-1z"/>
  <path fill="#445a63" fill-opacity="0.5412" d="M55 72h1v1h-1z"/>
  <path fill="#455964" fill-opacity="0.5451" d="M80 64h1v1h-1z"/>
  <path fill="#445a63" fill-opacity="0.5529" d="M19 64h1v1h-1z"/>
  <path fill="#455a63" fill-opacity="0.5647" d="M79 65h1v1h-1z M44 72h1v1h-1z"/>
  <path fill="#445964" fill-opacity="0.5686" d="M40 22h1v1h-1z M54 69h1v1h-1z"/>
  <path fill="#455a63" fill-opacity="0.5725" d="M50 13h1v1h-1z M20 65h1v1h-1z"/>
  <path fill="#455a64" fill-opacity="0.5765" d="M20 38h1v1h-1z M83 44h1v1h-1z"/>
  <path fill="#445963" fill-opacity="0.5804" d="M84 57h1v1h-1z"/>
  <path fill="#445a63" fill-opacity="0.5843" d="M49 13h1v1h-1z M17 42h1v1h-1z"/>
  <path fill="#455963" fill-opacity="0.5922" d="M45 69h1v1h-1z"/>
  <path fill="#445a64" fill-opacity="0.5961" d="M15 57h1v1h-1z"/>
  <path fill="#445a64" fill-opacity="0.6" d="M70 30h1v1h-1z M76 35h1v1h-1z"/>
  <path fill="#455963" fill-opacity="0.6039" d="M24 34h1v1h-1z M63 86h1v1h-1z"/>
  <path fill="#455a64" fill-opacity="0.6078" d="M29 30h1v1h-1z"/>
  <path fill="#445963" fill-opacity="0.6118" d="M16 44h1v1h-1z M36 86h1v1h-1z"/>
  <path fill="#455a63" fill-opacity="0.6314" d="M78 37h1v1h-1z M57 77h1v1h-1z"/>
  <path fill="#455964" fill-opacity="0.6353" d="M59 22h1v1h-1z M63 25h1v1h-1z"/>
  <path fill="#445a64" fill-opacity="0.6392" d="M36 70h1v1h-1z M63 70h1v1h-1z M42 77h1v1h-1z"/>
  <path fill="#455a63" fill-opacity="0.651" d="M77 36h1v1h-1z"/>
  <path fill="#455a64" fill-opacity="0.6667" d="M53 17h1v1h-1z M23 35h1v1h-1z M31 70h1v1h-1z M68 70h1v1h-1z M58 79h1v1h-1z"/>
  <path fill="#455a63" fill-opacity="0.6745" d="M46 17h1v1h-1z M40 69h1v1h-1z"/>
  <path fill="#455964" fill-opacity="0.6784" d="M59 69h1v1h-1z"/>
  <path fill="#445963" fill-opacity="0.6824" d="M36 25h1v1h-1z M41 79h1v1h-1z"/>
  <path fill="#445a64" fill-opacity="0.6863" d="M22 36h1v1h-1z"/>
  <path fill="#455963" fill-opacity="0.6902" d="M45 18h1v1h-1z"/>
  <path fill="#455963" fill-opacity="0.6941" d="M21 37h1v1h-1z"/>
  <path fill="#445963" fill-opacity="0.702" d="M54 18h1v1h-1z"/>
  <path fill="#455a64" fill-opacity="0.7059" d="M62 85h1v1h-1z"/>
  <path fill="#445963" fill-opacity="0.7137" d="M37 85h1v1h-1z"/>
  <path fill="#455a64" fill-opacity="0.7176" d="M52 16h1v1h-1z M44 67h1v1h-1z"/>
  <path fill="#455a63" fill-opacity="0.7216" d="M55 67h1v1h-1z"/>
  <path fill="#445964" fill-opacity="0.7255" d="M56 75h1v1h-1z"/>
  <path fill="#445a64" fill-opacity="0.7294" d="M47 16h1v1h-1z"/>
  <path fill="#455a63" fill-opacity="0.7333" d="M35 70h1v1h-1z M64 70h1v1h-1z"/>
  <path fill="#445964" fill-opacity="0.7451" d="M72 69h1v1h-1z M43 75h1v1h-1z"/>
  <path fill="#455964" fill-opacity="0.749" d="M67 28h1v1h-1z"/>
  <path fill="#455a63" fill-opacity="0.7529" d="M44 19h1v1h-1z M27 69h1v1h-1z"/>
  <path fill="#445964" fill-opacity="0.7569" d="M32 70h1v1h-1z M67 70h1v1h-1z"/>
  <path fill="#445963" fill-opacity="0.7608" d="M84 47h1v1h-1z"/>
  <path fill="#455a63" fill-opacity="0.7647" d="M55 19h1v1h-1z"/>
  <path fill="#445a63" fill-opacity="0.7725" d="M32 28h1v1h-1z"/>
  <path fill="#455a64" fill-opacity="0.7765" d="M17 61h1v1h-1z"/>
  <path fill="#455963" fill-opacity="0.7804" d="M15 47h1v1h-1z"/>
  <path fill="#445a64" fill-opacity="0.7882" d="M82 61h1v1h-1z"/>
  <path fill="#455a64" fill-opacity="0.7961" d="M71 31h1v1h-1z M34 70h1v1h-1z M65 70h1v1h-1z"/>
  <path fill="#445a64" fill-opacity="0.8" d="M33 70h1v1h-1z M66 70h1v1h-1z"/>
  <path fill="#455a64" fill-opacity="0.8196" d="M28 31h1v1h-1z M59 81h1v1h-1z"/>
  <path fill="#445964" fill-opacity="0.8275" d="M39 23h1v1h-1z"/>
  <path fill="#445a63" fill-opacity="0.8314" d="M83 59h1v1h-1z M53 66h1v1h-1z M42 68h1v1h-1z M40 81h1v1h-1z"/>
  <path fill="#455964" fill-opacity="0.8353" d="M60 23h1v1h-1z M81 41h1v1h-1z M57 68h1v1h-1z"/>
  <path fill="#455a64" fill-opacity="0.8392" d="M16 59h1v1h-1z M76 67h1v1h-1z"/>
  <path fill="#445a64" fill-opacity="0.8431" d="M46 66h1v1h-1z"/>
  <path fill="#445964" fill-opacity="0.8471" d="M23 67h1v1h-1z"/>
  <path fill="#455a63" fill-opacity="0.851" d="M51 15h1v1h-1z M18 41h1v1h-1z M84 56h1v1h-1z"/>
  <path fill="#445964" fill-opacity="0.8588" d="M48 15h1v1h-1z"/>
  <path fill="#455a63" fill-opacity="0.8627" d="M56 20h1v1h-1z"/>
  <path fill="#455a64" fill-opacity="0.8667" d="M15 56h1v1h-1z"/>
  <path fill="#445963" fill-opacity="0.8706" d="M43 20h1v1h-1z M54 70h1v1h-1z"/>
  <path fill="#445a63" fill-opacity="0.8745" d="M38 84h1v1h-1z"/>
  <path fill="#455964" fill-opacity="0.8784" d="M64 26h1v1h-1z M45 70h1v1h-1z"/>
  <path fill="#445a64" fill-opacity="0.8863" d="M61 84h1v1h-1z"/>
  <path fill="#445963" fill-opacity="0.8902" d="M35 26h1v1h-1z"/>
  <path fill="#455a64" fill-opacity="0.898" d="M55 73h1v1h-1z"/>
  <path fill="#455a64" fill-opacity="0.9059" d="M74 68h1v1h-1z"/>
  <path fill="#455a64" fill-opacity="0.9098" d="M25 68h1v1h-1z M44 73h1v1h-1z"/>
  <path fill="#445a64" fill-opacity="0.9176" d="M72 32h1v1h-1z"/>
  <path fill="#455a63" fill-opacity="0.9216" d="M45 66h1v1h-1z"/>
  <path fill="#455964" fill-opacity="0.9255" d="M54 66h1v1h-1z"/>
  <path fill="#445a64" fill-opacity="0.9294" d="M68 29h1v1h-1z"/>
  <path fill="#455a63" fill-opacity="0.9412" d="M57 21h1v1h-1z"/>
  <path fill="#445964" fill-opacity="0.949" d="M27 32h1v1h-1z"/>
  <path fill="#455a63" fill-opacity="0.9529" d="M42 21h1v1h-1z M31 29h1v1h-1z"/>
  <path fill="#445964" fill-opacity="0.9569" d="M39 69h1v1h-1z"/>
  <path fill="#445963" fill-opacity="0.9608" d="M38 24h1v1h-1z M60 69h1v1h-1z"/>
  <path fill="#455a63" fill-opacity="0.9647" d="M61 24h1v1h-1z"/>
  <path fill="#455964" fill-opacity="0.9686" d="M82 43h1v1h-1z M81 62h1v1h-1z M53 67h1v1h-1z"/>
  <path fill="#445a63" fill-opacity="0.9725" d="M80 40h1v1h-1z M83 45h1v1h-1z M18 62h1v1h-1z"/>
  <path fill="#445a64" fill-opacity="0.9765" d="M73 33h1v1h-1z M17 43h1v1h-1z M84 48h1v1h-1z M46 67h1v1h-1z"/>
  <path fill="#455963" fill-opacity="0.9804" d="M19 40h1v1h-1z M16 45h1v1h-1z M15 48h1v1h-1z M22 66h1v1h-1z M77 66h1v1h-1z"/>
  <path fill="#455a63" fill-opacity="0.9843" d="M49 14h2v1h-2z M65 27h1v1h-1z"/>
  <path fill="#445a64" fill-opacity="0.9882" d="M34 27h1v1h-1z M26 33h1v1h-1z M42 78h1v1h-1z M57 78h1v1h-1z M39 83h1v1h-1z"/>
  <path fill="#445963" fill-opacity="0.9922" d="M28 69h1v1h-1z M71 69h1v1h-1z M60 83h1v1h-1z"/>
  <path fill="#445a64" fill-opacity="0.9961" d="M46 65h1v1h-1z M53 65h1v1h-1z"/>
  <path fill="#455a64" fill-opacity="0.9961" d="M43 76h1v1h-1z M41 80h1v1h-1z M58 80h1v1h-1z"/>
  <path fill="#455a64" d="M49 15h2v72h-2z M48 16h1v71h-1z M51 16h1v71h-1z M47 17h1v70h-1z M52 17h1v70h-1z M46 18h1v47h-1z M53 18h1v47h-1z M45 19h1v47h-1z M54 19h1v47h-1z M44 20h1v47h-1z M55 20h1v47h-1z M43 21h1v47h-1z M56 21h1v47h-1z M41 22h2v46h-2z M57 22h2v46h-2z M40 23h1v46h-1z M59 23h1v46h-1z M39 24h1v45h-1z M60 24h1v45h-1z M37 25h2v45h-2z M61 25h2v45h-2z M36 26h1v44h-1z M63 26h1v44h-1z M35 27h1v43h-1z M64 27h1v43h-1z M33 28h2v42h-2z M65 28h2v42h-2z M32 29h1v41h-1z M67 29h1v41h-1z M30 30h2v40h-2z M68 30h2v40h-2z M29 31h1v39h-1z M70 31h1v39h-1z M28 32h1v37h-1z M71 32h1v37h-1z M27 33h1v36h-1z M72 33h1v36h-1z M25 34h2v34h-2z M73 34h2v34h-2z M24 35h1v33h-1z M75 35h1v33h-1z M23 36h1v31h-1z M76 36h1v31h-1z M22 37h1v29h-1z M77 37h1v29h-1z M21 38h1v28h-1z M78 38h1v28h-1z M20 39h1v26h-1z M79 39h1v26h-1z M19 41h1v23h-1z M80 41h1v23h-1z M18 42h1v20h-1z M81 42h1v20h-1z M17 44h1v17h-1z M82 44h1v17h-1z M16 46h1v13h-1z M83 46h1v13h-1z M15 49h1v7h-1z M84 49h1v7h-1z M26 68h1v1h-1z M41 68h1v1h-1z M46 68h1v19h-1z M53 68h1v19h-1z M58 68h1v1h-1z M73 68h1v1h-1z M45 71h1v16h-1z M54 71h1v16h-1z M44 74h1v13h-1z M55 74h1v13h-1z M56 76h1v11h-1z M43 77h1v10h-1z M42 79h1v8h-1z M57 79h1v8h-1z M41 81h1v6h-1z M58 81h1v6h-1z M40 82h1v5h-1z M59 82h1v5h-1z M39 84h1v3h-1z M60 84h1v3h-1z M38 85h1v2h-1z M61 85h1v2h-1z M37 86h1v1h-1z M62 86h1v1h-1z"/>
</svg>