<?xml version="1.0" encoding="UTF-8"?>
<svg xmlns="http://www.w3.org/2000/svg" width="100" height="100" viewBox="0 0 100 100" role="img" aria-labelledby="title" shape-rendering="crispEdges">
  <title id="title">icons8 best terraria 100</title>
  <desc>Pixel-perfect vector conversion from the supplied PNG, preserving transparency.</desc>
  <path fill="#555555" fill-opacity="0.0235" d="M83 77h1v1h-1z"/>
  <path fill="#4c4c4c" fill-opacity="0.0392" d="M20 18h1v1h-1zM87 47h1v1h-1z"/>
  <path fill="#484848" fill-opacity="0.0549" d="M8 22h1v1h-1zM8 27h1v1h-1zM16 52h1v1h-1zM33 52h1v1h-1z"/>
  <path fill="#3c3c3c" fill-opacity="0.0667" d="M95 27h1v1h-1zM45 39h1v1h-1zM45 47h1v1h-1zM4 52h1v1h-1zM45 89h1v1h-1z"/>
  <path fill="#3c3c3c" fill-opacity="0.0824" d="M9 22h3v1h-3zM17 22h3v1h-3zM9 27h3v1h-3zM34 27h3v1h-3zM92 27h3v1h-3zM33 31h1v1h-1zM42 47h3v1h-3zM84 47h3v1h-3zM5 52h3v1h-3zM13 52h3v1h-3zM34 52h3v1h-3zM80 77h3v1h-3z"/>
  <path fill="#3f3f3f" fill-opacity="0.1255" d="M45 6h1v1h-1zM12 18h1v1h-1zM37 31h1v1h-1zM45 43h1v1h-1zM12 56h1v1h-1zM37 56h1v1h-1z"/>
  <path fill="#414141" fill-opacity="0.1373" d="M41 35h1v1h-1z"/>
  <path fill="#414141" fill-opacity="0.1529" d="M79 2h1v1h-1zM45 72h1v1h-1zM45 97h1v1h-1z"/>
  <path fill="#424242" fill-opacity="0.1647" d="M16 18h1v1h-1zM41 43h1v1h-1zM8 56h1v1h-1z"/>
  <path fill="#414141" fill-opacity="0.1686" d="M79 3h1v3h-1zM45 7h1v3h-1zM20 19h1v3h-1zM29 32h1v3h-1zM45 40h1v3h-1zM45 69h1v3h-1zM79 78h1v3h-1zM45 90h1v7h-1z"/>
  <path fill="#434343" fill-opacity="0.1922" d="M41 10h1v1h-1zM33 35h1v1h-1z"/>
  <path fill="#434343" fill-opacity="0.2078" d="M95 18h1v1h-1zM37 39h1v1h-1zM87 60h1v1h-1z"/>
  <path fill="#454545" fill-opacity="0.2431" d="M79 77h1v1h-1z"/>
  <path fill="#4a4a4a" fill-opacity="0.2431" d="M20 22h1v1h-1z"/>
  <path fill="#404040" fill-opacity="0.2471" d="M83 6h1v1h-1zM41 68h1v1h-1zM83 81h1v1h-1z"/>
  <path fill="#434343" fill-opacity="0.251" d="M13 18h3v1h-3zM21 18h8v1h-8zM92 18h3v1h-3zM30 31h3v1h-3zM38 31h3v1h-3zM46 31h4v1h-4zM38 43h3v1h-3zM9 56h3v1h-3zM38 56h3v1h-3z"/>
  <path fill="#404040" fill-opacity="0.2784" d="M91 14h1v1h-1z"/>
  <path fill="#414141" fill-opacity="0.2902" d="M87 10h1v1h-1z"/>
  <path fill="#414141" fill-opacity="0.3059" d="M58 2h1v1h-1zM83 97h1v1h-1z"/>
  <path fill="#424242" fill-opacity="0.3333" d="M58 3h1v3h-1zM83 7h1v3h-1zM41 11h1v3h-1zM33 28h1v3h-1zM41 32h1v3h-1zM33 36h1v3h-1zM83 44h1v3h-1zM41 57h1v11h-1zM83 61h1v16h-1zM83 82h1v15h-1z"/>
  <path fill="#414141" fill-opacity="0.349" d="M29 14h1v1h-1zM45 35h1v1h-1zM95 35h1v1h-1zM4 39h1v1h-1z"/>
  <path fill="#424242" fill-opacity="0.3765" d="M87 43h1v1h-1z"/>
  <path fill="#424242" fill-opacity="0.3882" d="M91 39h1v1h-1z"/>
  <path fill="#484848" fill-opacity="0.4" d="M29 31h1v1h-1z"/>
  <path fill="#454545" fill-opacity="0.4039" d="M33 27h1v1h-1z"/>
  <path fill="#474a42" fill-opacity="0.4039" d="M83 47h1v1h-1z"/>
  <path fill="#424242" fill-opacity="0.4196" d="M30 14h11v1h-11zM88 14h3v1h-3zM42 35h3v1h-3zM92 35h3v1h-3zM5 39h3v1h-3zM34 39h3v1h-3zM46 39h4v1h-4zM84 60h3v1h-3zM46 89h4v1h-4z"/>
  <path fill="#414141" fill-opacity="0.4588" d="M62 2h1v1h-1z"/>
  <path fill="#414141" fill-opacity="0.502" d="M62 3h1v3h-1zM87 11h1v3h-1zM12 19h1v3h-1zM12 28h1v3h-1zM37 28h1v3h-1zM8 31h1v1h-1zM37 40h1v3h-1zM87 40h1v3h-1zM12 53h1v3h-1zM37 53h1v3h-1zM87 48h1v12h-1z"/>
  <path fill="#424242" fill-opacity="0.5412" d="M37 27h1v1h-1z"/>
  <path fill="#484240" fill-opacity="0.5412" d="M41 31h1v1h-1z"/>
  <path fill="#4b493b" fill-opacity="0.5412" d="M41 56h1v1h-1z"/>
  <path fill="#474740" fill-opacity="0.5608" d="M12 22h1v1h-1zM12 27h1v1h-1zM37 52h1v1h-1z"/>
  <path fill="#474747" fill-opacity="0.5608" d="M12 52h1v1h-1z"/>
  <path fill="#424242" fill-opacity="0.5843" d="M42 10h3v1h-3zM84 10h3v1h-3zM30 35h3v1h-3zM21 39h4v1h-4zM88 39h3v1h-3z"/>
  <path fill="#414141" fill-opacity="0.6118" d="M41 14h1v1h-1z"/>
  <path fill="#414141" fill-opacity="0.6235" d="M95 31h1v1h-1zM20 43h1v1h-1z"/>
  <path fill="#4f4c39" fill-opacity="0.6667" d="M33 39h1v1h-1z"/>
  <path fill="#414141" fill-opacity="0.6706" d="M91 15h1v3h-1zM16 19h1v3h-1zM8 23h1v4h-1zM91 28h1v3h-1zM8 32h1v7h-1zM91 36h1v3h-1zM41 44h1v3h-1zM16 44h1v8h-1zM33 48h1v4h-1zM8 53h1v3h-1z"/>
  <path fill="#4d4b39" fill-opacity="0.6745" d="M37 43h1v1h-1z"/>
  <path fill="#484341" fill-opacity="0.6863" d="M45 10h1v1h-1z"/>
  <path fill="#4b4a3b" fill-opacity="0.6863" d="M29 35h1v1h-1z"/>
  <path fill="#424040" fill-opacity="0.7098" d="M91 27h1v1h-1z"/>
  <path fill="#454545" fill-opacity="0.7098" d="M8 52h1v1h-1z"/>
  <path fill="#46463d" fill-opacity="0.7098" d="M16 22h1v1h-1zM41 47h1v1h-1z"/>
  <path fill="#566a46" fill-opacity="0.7137" d="M83 60h1v1h-1z"/>
  <path fill="#424242" fill-opacity="0.7529" d="M46 6h8v1h-8zM59 6h3v1h-3zM71 6h4v1h-4zM80 6h3v1h-3zM9 31h3v1h-3zM92 31h3v1h-3zM17 43h3v1h-3zM25 43h4v1h-4zM46 43h4v1h-4zM84 43h3v1h-3zM42 68h3v1h-3zM80 81h3v1h-3z"/>
  <path fill="#414141" fill-opacity="0.7647" d="M54 2h1v1h-1zM70 2h1v1h-1zM29 47h1v1h-1z"/>
  <path fill="#4e4442" fill-opacity="0.7686" d="M87 14h1v1h-1z"/>
  <path fill="#453f3d" fill-opacity="0.7765" d="M83 10h1v1h-1z"/>
  <path fill="#45403f" fill-opacity="0.7922" d="M91 18h1v1h-1z"/>
  <path fill="#433f3e" fill-opacity="0.8196" d="M79 6h1v1h-1z"/>
  <path fill="#474340" fill-opacity="0.8196" d="M79 81h1v1h-1z"/>
  <path fill="#5d4b46" fill-opacity="0.8196" d="M45 68h1v1h-1z"/>
  <path fill="#414141" fill-opacity="0.8353" d="M54 3h1v3h-1zM70 3h1v3h-1zM58 6h1v1h-1zM29 15h1v3h-1zM95 19h1v8h-1zM45 32h1v3h-1zM95 32h1v3h-1zM20 40h1v3h-1zM83 43h1v1h-1zM29 44h1v3h-1zM4 40h1v12h-1zM45 48h1v4h-1zM54 48h1v4h-1z"/>
  <path fill="#463d3a" fill-opacity="0.851" d="M87 39h1v1h-1z"/>
  <path fill="#453c3b" fill-opacity="0.8627" d="M91 35h1v1h-1z"/>
  <path fill="#696969" fill-opacity="0.8627" d="M8 39h1v1h-1z"/>
  <path fill="#4c4442" fill-opacity="0.902" d="M45 31h1v1h-1z"/>
  <path fill="#5e5e5e" fill-opacity="0.902" d="M29 18h1v1h-1z"/>
  <path fill="#424242" fill-opacity="0.9216" d="M55 2h3v1h-3zM63 2h7v1h-7zM75 2h4v1h-4zM30 47h3v1h-3zM50 47h4v1h-4zM46 52h8v1h-8zM46 72h4v1h-4zM46 97h37v1h-37z"/>
  <path fill="#534640" fill-opacity="0.9255" d="M62 6h1v1h-1z"/>
  <path fill="#737373" fill-opacity="0.9255" d="M12 31h1v1h-1z"/>
  <path fill="#414141" fill-opacity="0.9608" d="M54 6h1v1h-1z"/>
  <path fill="#473a37" fill-opacity="0.9608" d="M91 31h1v1h-1z"/>
  <path fill="#5c5c5c" fill-opacity="0.9608" d="M16 43h1v1h-1z"/>
  <path fill="#5b5b5b" fill-opacity="0.9647" d="M20 39h1v1h-1z"/>
  <path fill="#4a3835" fill-opacity="0.9843" d="M70 6h1v1h-1z"/>
  <path fill="#6a6326" fill-opacity="0.9843" d="M29 43h1v1h-1z"/>
  <path fill="#414141" fill-opacity="0.9882" d="M54 52h1v1h-1z"/>
  <path fill="#696227" fill-opacity="0.9922" d="M33 47h1v1h-1z"/>
  <path fill="#726a21" fill-opacity="0.9961" d="M45 52h1v1h-1z"/>
  <path fill="#d2927e" fill-opacity="0.9961" d="M54 47h1v1h-1z"/>
  <path fill="#33691e" d="M55 86h3v3h-3zM63 86h3v4h-3zM50 90h4v3h-4zM59 90h11v3h-11z"/>
  <path fill="#365f27" d="M50 93h4v1h-4zM59 93h11v1h-11z"/>
  <path fill="#366324" d="M54 86h1v3h-1z"/>
  <path fill="#375e28" d="M62 89h1v1h-1z"/>
  <path fill="#385c2a" d="M58 90h1v3h-1z"/>
  <path fill="#39582d" d="M55 89h3v1h-3z"/>
  <path fill="#3a582f" d="M54 89h1v1h-1z"/>
  <path fill="#3b5233" d="M50 89h4v1h-4zM59 89h3v1h-3z"/>
  <path fill="#3b5431" d="M58 89h1v1h-1z"/>
  <path fill="#3b5630" d="M62 86h1v3h-1zM58 93h1v1h-1z"/>
  <path fill="#3d4f36" d="M58 86h1v3h-1z"/>
  <path fill="#3f5f29" d="M70 90h1v3h-1z"/>
  <path fill="#40473e" d="M54 93h1v1h-1z"/>
  <path fill="#40493c" d="M54 90h1v3h-1z"/>
  <path fill="#40592e" d="M70 93h1v1h-1z"/>
  <path fill="#424242" d="M63 3h7v3h-7zM75 3h4v3h-4zM55 3h3v4h-3zM46 7h16v3h-16zM71 7h4v3h-4zM80 7h3v3h-3zM84 11h3v3h-3zM42 11h3v4h-3zM30 15h15v3h-15zM88 15h3v3h-3zM42 18h3v4h-3zM13 19h3v3h-3zM21 19h8v3h-8zM92 19h3v8h-3zM9 23h3v4h-3zM17 23h3v4h-3zM34 23h7v4h-7zM55 23h3v4h-3zM38 27h3v4h-3zM13 28h3v3h-3zM30 28h3v3h-3zM46 28h8v3h-8zM59 28h7v3h-7zM71 28h4v3h-4zM88 28h3v3h-3zM25 32h4v3h-4zM42 32h3v3h-3zM67 32h3v3h-3zM92 32h3v3h-3zM50 31h4v8h-4zM59 31h3v8h-3zM9 32h3v7h-3zM21 36h4v3h-4zM30 36h3v3h-3zM88 36h3v3h-3zM75 32h4v8h-4zM17 40h3v3h-3zM25 40h4v3h-4zM34 40h3v3h-3zM46 40h4v3h-4zM75 40h12v3h-12zM80 43h3v4h-3zM30 44h3v3h-3zM38 44h3v3h-3zM50 44h4v3h-4zM71 44h4v3h-4zM5 40h3v12h-3zM13 44h3v8h-3zM34 48h3v4h-3zM42 48h3v4h-3zM55 48h15v4h-15zM55 52h1v1h-1zM9 53h3v3h-3zM38 53h3v3h-3zM46 53h10v3h-10zM84 48h3v12h-3zM71 61h12v3h-12zM71 64h4v1h-4zM42 57h3v11h-3zM57 65h18v3h-18zM57 68h9v1h-9zM46 69h20v3h-20zM80 64h3v13h-3zM75 78h4v3h-4zM50 72h4v17h-4zM59 72h3v17h-3zM80 82h3v12h-3zM46 90h4v4h-4zM55 90h3v4h-3zM46 94h37v3h-37z"/>
  <path fill="#434141" d="M88 27h3v1h-3z"/>
  <path fill="#434541" d="M79 43h1v1h-1z"/>
  <path fill="#44403f" d="M79 7h1v3h-1z"/>
  <path fill="#453e3d" d="M88 18h3v1h-3z"/>
  <path fill="#454942" d="M79 64h1v1h-1z"/>
  <path fill="#463d3b" d="M83 11h1v3h-1z"/>
  <path fill="#464141" d="M50 27h4v1h-4zM59 27h7v1h-7z"/>
  <path fill="#464342" d="M42 22h3v1h-3zM46 27h4v1h-4zM71 27h4v1h-4zM75 77h4v1h-4z"/>
  <path fill="#464441" d="M58 72h1v1h-1z"/>
  <path fill="#473c39" d="M88 35h3v1h-3z"/>
  <path fill="#474747" d="M30 27h3v1h-3zM9 52h3v1h-3z"/>
  <path fill="#483b38" d="M87 36h1v3h-1zM79 39h1v1h-1z"/>
  <path fill="#484442" d="M79 93h1v1h-1z"/>
  <path fill="#48473f" d="M13 22h3v1h-3zM13 27h3v1h-3zM38 47h3v1h-3zM38 52h3v1h-3z"/>
  <path fill="#485041" d="M79 72h1v1h-1z"/>
  <path fill="#493936" d="M71 10h4v1h-4zM80 10h3v1h-3zM80 39h7v1h-7z"/>
  <path fill="#494442" d="M45 11h1v11h-1zM79 73h1v4h-1zM79 82h1v11h-1z"/>
  <path fill="#494640" d="M62 72h1v1h-1z"/>
  <path fill="#495240" d="M79 44h1v3h-1zM79 65h1v7h-1z"/>
  <path fill="#4a3834" d="M87 35h1v1h-1z"/>
  <path fill="#4a3935" d="M91 19h1v8h-1zM91 32h1v3h-1z"/>
  <path fill="#4a423f" d="M54 23h1v4h-1z"/>
  <path fill="#4a4a4a" d="M41 18h1v1h-1z"/>
  <path fill="#4a4e45" d="M71 47h4v1h-4zM80 47h3v1h-3zM66 68h1v1h-1z"/>
  <path fill="#4b3733" d="M67 6h3v1h-3zM75 6h4v1h-4zM88 31h3v1h-3z"/>
  <path fill="#4b3b37" d="M79 10h1v1h-1z"/>
  <path fill="#4b4b4b" d="M29 28h1v3h-1z"/>
  <path fill="#4b593f" d="M75 43h4v1h-4z"/>
  <path fill="#4c3631" d="M70 7h1v3h-1zM79 36h1v3h-1z"/>
  <path fill="#4c4441" d="M45 22h1v1h-1zM42 31h3v1h-3zM67 31h3v1h-3z"/>
  <path fill="#4d352f" d="M84 22h3v1h-3z"/>
  <path fill="#4d3631" d="M79 11h1v3h-1zM83 35h1v1h-1z"/>
  <path fill="#4d3833" d="M87 31h1v1h-1z"/>
  <path fill="#4d403d" d="M75 31h4v1h-4z"/>
  <path fill="#4d4b3b" d="M29 36h1v3h-1z"/>
  <path fill="#4d4d4d" d="M21 22h8v1h-8z"/>
  <path fill="#4e342e" d="M67 7h3v3h-3zM75 7h4v3h-4zM71 11h4v3h-4zM80 11h3v3h-3zM50 15h8v3h-8zM71 19h8v3h-8zM84 19h7v3h-7zM59 19h3v4h-3zM88 22h3v5h-3zM50 23h4v4h-4zM59 23h7v4h-7zM80 23h3v4h-3zM75 28h4v3h-4zM84 32h7v3h-7zM84 35h3v1h-3zM80 36h7v3h-7z"/>
  <path fill="#4e352f" d="M87 22h1v1h-1z"/>
  <path fill="#4e3833" d="M84 31h3v1h-3z"/>
  <path fill="#4e3a35" d="M83 19h1v3h-1zM83 32h1v3h-1z"/>
  <path fill="#4e4e4e" d="M38 18h3v1h-3zM25 31h4v1h-4z"/>
  <path fill="#4f4941" d="M54 72h1v1h-1z"/>
  <path fill="#4f4f4f" d="M29 27h1v1h-1z"/>
  <path fill="#4f5a43" d="M79 47h1v1h-1z"/>
  <path fill="#503a34" d="M83 22h1v1h-1z"/>
  <path fill="#503d38" d="M79 35h1v1h-1z"/>
  <path fill="#504542" d="M41 23h1v8h-1zM66 28h1v3h-1z"/>
  <path fill="#51362f" d="M71 22h8v1h-8zM75 27h4v1h-4z"/>
  <path fill="#513b36" d="M71 14h4v1h-4zM80 14h3v1h-3zM80 35h3v1h-3z"/>
  <path fill="#51413d" d="M87 18h1v1h-1z"/>
  <path fill="#514540" d="M66 27h1v1h-1z"/>
  <path fill="#515948" d="M70 48h1v4h-1z"/>
  <path fill="#523d37" d="M83 31h1v1h-1z"/>
  <path fill="#524b40" d="M55 72h3v1h-3zM63 72h3v1h-3z"/>
  <path fill="#524f37" d="M34 43h3v1h-3zM42 56h3v1h-3z"/>
  <path fill="#52693d" d="M75 64h4v1h-4z"/>
  <path fill="#533831" d="M79 23h1v4h-1z"/>
  <path fill="#533b35" d="M58 23h1v4h-1z"/>
  <path fill="#533d38" d="M87 23h1v4h-1z"/>
  <path fill="#533e39" d="M70 10h1v1h-1z"/>
  <path fill="#53433e" d="M83 14h1v1h-1z"/>
  <path fill="#535353" d="M33 23h1v4h-1z"/>
  <path fill="#543e38" d="M79 14h1v1h-1z"/>
  <path fill="#544641" d="M84 14h3v1h-3z"/>
  <path fill="#55423d" d="M66 6h1v1h-1z"/>
  <path fill="#563a33" d="M50 18h8v1h-8z"/>
  <path fill="#563f39" d="M67 10h3v1h-3zM75 10h4v1h-4z"/>
  <path fill="#575434" d="M33 40h1v3h-1zM41 53h1v3h-1z"/>
  <path fill="#575757" d="M20 23h1v4h-1zM21 35h4v1h-4z"/>
  <path fill="#583c34" d="M58 19h1v4h-1zM66 23h1v4h-1z"/>
  <path fill="#584641" d="M87 27h1v1h-1z"/>
  <path fill="#584742" d="M62 7h1v3h-1zM87 15h1v3h-1zM87 28h1v3h-1z"/>
  <path fill="#585858" d="M37 18h1v1h-1z"/>
  <path fill="#58644a" d="M67 68h8v1h-8z"/>
  <path fill="#59423b" d="M66 7h1v3h-1z"/>
  <path fill="#595532" d="M41 52h1v1h-1z"/>
  <path fill="#595638" d="M58 85h1v1h-1z"/>
  <path fill="#5b4741" d="M46 10h16v1h-16z"/>
  <path fill="#5c3f37" d="M62 22h1v1h-1z"/>
  <path fill="#5c5c5c" d="M12 44h1v8h-1z"/>
  <path fill="#5d4037" d="M62 19h1v3h-1z"/>
  <path fill="#5d443d" d="M84 18h3v1h-3z"/>
  <path fill="#5d5830" d="M30 39h3v1h-3z"/>
  <path fill="#5d5831" d="M33 43h1v1h-1z"/>
  <path fill="#5d6f25" d="M66 89h1v1h-1z"/>
  <path fill="#5e592e" d="M29 39h1v1h-1z"/>
  <path fill="#5f5f5f" d="M17 39h3v1h-3z"/>
  <path fill="#604239" d="M50 14h8v1h-8zM58 18h1v1h-1z"/>
  <path fill="#606060" d="M30 18h7v1h-7z"/>
  <path fill="#60704e" d="M83 48h1v8h-1zM66 69h1v3h-1z"/>
  <path fill="#62473e" d="M70 11h1v3h-1zM83 18h1v1h-1z"/>
  <path fill="#624941" d="M63 6h3v1h-3zM75 81h4v1h-4zM71 93h8v1h-8z"/>
  <path fill="#624e48" d="M45 67h1v1h-1z"/>
  <path fill="#62504c" d="M70 31h1v1h-1z"/>
  <path fill="#62544f" d="M70 32h1v3h-1zM45 57h1v7h-1z"/>
  <path fill="#625d2d" d="M12 23h1v4h-1zM37 44h1v8h-1z"/>
  <path fill="#626262" d="M41 22h1v1h-1z"/>
  <path fill="#627b49" d="M83 56h1v1h-1z"/>
  <path fill="#63443a" d="M58 15h1v3h-1zM83 23h1v4h-1z"/>
  <path fill="#638047" d="M83 57h1v3h-1z"/>
  <path fill="#64483e" d="M66 10h1v1h-1z"/>
  <path fill="#644a41" d="M62 10h1v1h-1z"/>
  <path fill="#646464" d="M41 19h1v3h-1zM16 40h1v3h-1zM8 44h1v8h-1z"/>
  <path fill="#655844" d="M45 56h1v1h-1z"/>
  <path fill="#66463d" d="M59 18h3v1h-3zM71 18h8v1h-8zM79 22h1v1h-1zM79 27h1v1h-1z"/>
  <path fill="#664940" d="M70 14h1v1h-1zM79 31h1v1h-1z"/>
  <path fill="#664a41" d="M45 27h1v4h-1zM70 27h1v4h-1zM79 32h1v3h-1z"/>
  <path fill="#665049" d="M56 68h1v1h-1z"/>
  <path fill="#666034" d="M62 85h1v1h-1z"/>
  <path fill="#669139" d="M75 72h4v1h-4z"/>
  <path fill="#669939" d="M75 47h4v1h-4z"/>
  <path fill="#676128" d="M25 35h4v1h-4zM25 39h4v1h-4z"/>
  <path fill="#677c50" d="M75 60h4v1h-4z"/>
  <path fill="#678848" d="M79 60h1v1h-1z"/>
  <path fill="#68483e" d="M79 19h1v3h-1zM70 19h1v4h-1zM79 28h1v3h-1z"/>
  <path fill="#686868" d="M13 43h3v1h-3z"/>
  <path fill="#688b45" d="M71 60h4v1h-4zM80 60h3v1h-3z"/>
  <path fill="#689f38" d="M75 44h4v3h-4zM71 57h4v3h-4zM80 57h3v3h-3zM63 61h7v3h-7zM75 65h4v7h-4z"/>
  <path fill="#69493e" d="M58 14h1v1h-1z"/>
  <path fill="#69493f" d="M62 18h1v1h-1z"/>
  <path fill="#694b41" d="M55 22h3v1h-3z"/>
  <path fill="#6a4a40" d="M50 22h4v1h-4zM63 22h3v1h-3zM80 22h3v1h-3zM80 27h3v1h-3z"/>
  <path fill="#6a4b41" d="M54 22h1v1h-1z"/>
  <path fill="#6a6a66" d="M16 27h1v1h-1z"/>
  <path fill="#6a9146" d="M70 64h1v1h-1z"/>
  <path fill="#6b4b40" d="M66 22h1v1h-1z"/>
  <path fill="#6b6b6b" d="M16 28h1v3h-1z"/>
  <path fill="#6b714a" d="M66 72h1v1h-1z"/>
  <path fill="#6c4b40" d="M70 18h1v1h-1zM79 18h1v1h-1zM83 27h1v1h-1z"/>
  <path fill="#6c5751" d="M45 64h1v1h-1z"/>
  <path fill="#6d4c41" d="M63 7h3v4h-3zM46 11h24v3h-24zM75 11h4v4h-4zM59 14h11v1h-11zM59 15h28v3h-28zM46 14h4v5h-4zM63 18h7v4h-7zM80 18h3v4h-3zM46 19h12v3h-12zM46 22h4v1h-4zM67 22h3v1h-3zM42 23h8v4h-8zM67 23h12v4h-12zM84 23h3v5h-3zM42 27h3v4h-3zM67 27h3v4h-3zM80 28h7v3h-7zM80 31h3v4h-3zM71 73h8v4h-8zM71 77h4v5h-4zM71 82h8v3h-8zM75 85h4v5h-4zM71 90h8v3h-8z"/>
  <path fill="#6d6625" d="M16 23h1v4h-1zM33 44h1v3h-1zM41 48h1v4h-1z"/>
  <path fill="#6d6d6d" d="M20 36h1v3h-1z"/>
  <path fill="#6e9a45" d="M63 64h7v1h-7z"/>
  <path fill="#6ea33f" d="M70 61h1v3h-1z"/>
  <path fill="#71544a" d="M56 65h1v3h-1z"/>
  <path fill="#717171" d="M38 22h3v1h-3z"/>
  <path fill="#71a740" d="M79 57h1v3h-1z"/>
  <path fill="#726a21" d="M30 43h3v1h-3z"/>
  <path fill="#72964d" d="M62 64h1v1h-1z"/>
  <path fill="#73584f" d="M45 66h1v1h-1z"/>
  <path fill="#757575" d="M38 19h3v3h-3zM30 23h3v4h-3zM25 28h4v3h-4zM21 32h4v3h-4zM17 36h3v3h-3zM9 39h3v1h-3zM13 40h3v3h-3zM9 44h3v8h-3z"/>
  <path fill="#75aa43" d="M71 56h4v1h-4zM80 56h3v1h-3z"/>
  <path fill="#769256" d="M57 64h5v1h-5z"/>
  <path fill="#786e1e" d="M29 40h1v3h-1zM45 53h1v3h-1z"/>
  <path fill="#787878" d="M25 27h4v1h-4z"/>
  <path fill="#7a6058" d="M58 27h1v1h-1z"/>
  <path fill="#7a7529" d="M66 86h1v3h-1z"/>
  <path fill="#7b7b7b" d="M29 23h1v4h-1z"/>
  <path fill="#7c5d53" d="M45 65h1v1h-1z"/>
  <path fill="#7cb049" d="M79 56h1v1h-1z"/>
  <path fill="#7d731a" d="M34 47h3v1h-3zM42 52h3v1h-3z"/>
  <path fill="#7d7d7d" d="M21 31h4v1h-4z"/>
  <path fill="#7dae4c" d="M70 60h1v1h-1z"/>
  <path fill="#7eb24b" d="M63 60h7v1h-7z"/>
  <path fill="#7f712c" d="M54 85h1v1h-1z"/>
  <path fill="#808080" d="M20 35h1v1h-1zM12 32h1v7h-1zM16 39h1v1h-1zM12 43h1v1h-1z"/>
  <path fill="#80a15a" d="M56 52h1v1h-1z"/>
  <path fill="#816439" d="M58 73h1v12h-1z"/>
  <path fill="#81655c" d="M58 28h1v11h-1z"/>
  <path fill="#827717" d="M13 23h3v4h-3zM25 36h4v3h-4zM30 40h3v3h-3zM34 44h3v3h-3zM38 48h3v4h-3zM42 53h3v3h-3z"/>
  <path fill="#82b64e" d="M62 61h1v3h-1z"/>
  <path fill="#848484" d="M8 43h1v1h-1z"/>
  <path fill="#848856" d="M56 64h1v1h-1z"/>
  <path fill="#858585" d="M12 39h1v1h-1z"/>
  <path fill="#85aa5c" d="M56 53h1v3h-1z"/>
  <path fill="#868686" d="M17 35h3v1h-3z"/>
  <path fill="#888888" d="M37 22h1v1h-1z"/>
  <path fill="#8c792a" d="M55 85h3v1h-3zM63 85h3v1h-3z"/>
  <path fill="#8d8d8d" d="M37 19h1v3h-1zM12 40h1v3h-1z"/>
  <path fill="#8dbf58" d="M62 60h1v1h-1z"/>
  <path fill="#8eae5e" d="M56 56h1v1h-1z"/>
  <path fill="#916e63" d="M50 39h4v1h-4zM59 39h3v1h-3z"/>
  <path fill="#91af5e" d="M56 57h1v7h-1z"/>
  <path fill="#929292" d="M13 39h3v1h-3z"/>
  <path fill="#92b75f" d="M71 72h4v1h-4z"/>
  <path fill="#946937" d="M71 85h4v1h-4zM71 89h4v1h-4z"/>
  <path fill="#94c55d" d="M70 57h1v3h-1z"/>
  <path fill="#959595" d="M8 40h1v3h-1z"/>
  <path fill="#95c162" d="M57 52h13v1h-13z"/>
  <path fill="#95c65f" d="M70 56h1v1h-1z"/>
  <path fill="#96c262" d="M70 52h1v1h-1z"/>
  <path fill="#9a9a9a" d="M16 36h1v3h-1z"/>
  <path fill="#9bbe5e" d="M70 72h1v1h-1z"/>
  <path fill="#9ccc65" d="M71 48h12v5h-12zM57 53h26v3h-26zM57 56h13v4h-13zM75 56h4v4h-4zM57 60h5v4h-5zM67 69h8v3h-8z"/>
  <path fill="#9e9e9e" d="M13 31h3v1h-3z"/>
  <path fill="#9ebf5d" d="M67 72h3v1h-3z"/>
  <path fill="#a17534" d="M62 73h1v12h-1z"/>
  <path fill="#a1a1a1" d="M9 43h3v1h-3z"/>
  <path fill="#a2a2a2" d="M29 22h1v1h-1z"/>
  <path fill="#a7a7a7" d="M16 35h1v1h-1z"/>
  <path fill="#a97f2d" d="M70 89h1v1h-1z"/>
  <path fill="#a9a9a9" d="M29 19h1v3h-1zM16 31h1v1h-1z"/>
  <path fill="#aaaaaa" d="M20 32h1v3h-1z"/>
  <path fill="#ae842b" d="M67 89h3v1h-3z"/>
  <path fill="#aeaeae" d="M20 31h1v1h-1z"/>
  <path fill="#b07f70" d="M67 35h3v1h-3z"/>
  <path fill="#b3852b" d="M66 85h1v1h-1z"/>
  <path fill="#b39f9a" d="M62 31h1v1h-1z"/>
  <path fill="#b3b3b3" d="M33 22h4v1h-4zM17 27h3v1h-3z"/>
  <path fill="#b4b4b4" d="M30 22h3v1h-3zM20 27h1v1h-1z"/>
  <path fill="#b68373" d="M58 39h1v1h-1z"/>
  <path fill="#bd8675" d="M70 35h1v1h-1z"/>
  <path fill="#bdbdbd" d="M30 19h7v3h-7zM21 23h8v4h-8zM21 27h4v1h-4zM17 28h8v3h-8zM17 31h3v1h-3zM13 32h7v3h-7zM13 35h3v4h-3zM9 40h3v3h-3z"/>
  <path fill="#cc8a2f" d="M70 73h1v12h-1z"/>
  <path fill="#cdb8b2" d="M62 32h1v7h-1z"/>
  <path fill="#ceb8b2" d="M66 31h1v1h-1z"/>
  <path fill="#d0785c" d="M55 56h1v1h-1zM46 68h10v1h-10z"/>
  <path fill="#d0917d" d="M71 31h4v1h-4zM50 43h4v1h-4zM46 56h6v1h-6z"/>
  <path fill="#d2927f" d="M54 27h1v1h-1z"/>
  <path fill="#d67c5f" d="M54 56h1v1h-1z"/>
  <path fill="#d7aca0" d="M62 39h1v1h-1z"/>
  <path fill="#e0962b" d="M54 73h1v12h-1z"/>
  <path fill="#e09a84" d="M54 28h1v11h-1zM54 44h1v3h-1z"/>
  <path fill="#e8d5cf" d="M66 32h1v3h-1z"/>
  <path fill="#e99a28" d="M70 85h1v1h-1z"/>
  <path fill="#eca089" d="M54 39h1v1h-1z"/>
  <path fill="#efe0db" d="M63 31h3v1h-3z"/>
  <path fill="#f08c6d" d="M52 56h1v1h-1z"/>
  <path fill="#f0a38b" d="M55 27h3v1h-3zM55 47h11v1h-11z"/>
  <path fill="#f38c6b" d="M71 43h4v1h-4zM53 56h1v1h-1z"/>
  <path fill="#f3dcd4" d="M66 35h1v1h-1z"/>
  <path fill="#f48d6b" d="M70 47h1v1h-1z"/>
  <path fill="#f59b7f" d="M66 47h1v1h-1z"/>
  <path fill="#f8a78e" d="M54 43h1v1h-1z"/>
  <path fill="#fa8c6a" d="M70 44h1v3h-1z"/>
  <path fill="#fa9d81" d="M70 43h1v1h-1z"/>
  <path fill="#fafafa" d="M63 32h3v7h-3z"/>
  <path fill="#fcd9ce" d="M63 39h3v1h-3z"/>
  <path fill="#fce0d8" d="M66 36h1v3h-1z"/>
  <path fill="#fdcaba" d="M66 39h1v1h-1z"/>
  <path fill="#fe8c68" d="M67 47h3v1h-3z"/>
  <path fill="#ff8a65" d="M71 40h4v3h-4zM67 44h3v3h-3zM53 57h3v8h-3zM46 65h10v3h-10z"/>
  <path fill="#ff8c67" d="M52 64h1v1h-1z"/>
  <path fill="#ff8c68" d="M52 57h1v7h-1z"/>
  <path fill="#ff9d7e" d="M71 39h4v1h-4zM46 64h6v1h-6z"/>
  <path fill="#ffa083" d="M66 44h1v3h-1z"/>
  <path fill="#ffa386" d="M67 43h3v1h-3z"/>
  <path fill="#ffa58a" d="M70 40h1v3h-1z"/>
  <path fill="#ffa726" d="M55 73h3v12h-3zM63 73h7v12h-7zM67 85h3v1h-3zM67 86h8v3h-8z"/>
  <path fill="#ffa88d" d="M66 43h1v1h-1z"/>
  <path fill="#ffa98e" d="M70 39h1v1h-1z"/>
  <path fill="#ffab91" d="M71 32h4v4h-4zM67 36h8v3h-8zM55 28h3v12h-3zM67 39h3v1h-3zM50 40h20v3h-20zM55 43h11v4h-11zM46 57h6v7h-6z"/>
</svg>