<?xml version="1.0" encoding="UTF-8"?>
<svg xmlns="http://www.w3.org/2000/svg" width="100" height="100" viewBox="0 0 100 100" shape-rendering="crispEdges" role="img">
  <title>icons8-minecraft-logo-100</title>
  <desc>Pixel-perfect vector conversion from the provided PNG icon. Transparent background preserved.</desc>
  <path fill="#000000" fill-opacity="0.0039" d="M87 16h1v1h-1z M14 34h1v1h-1z M91 59h1v1h-1z"/>
  <path fill="#000000" fill-opacity="0.0078" d="M45 14h1v1h-1z M86 14h1v1h-1z M92 54h1v1h-1z M7 56h1v1h-1z M58 82h1v1h-1z"/>
  <path fill="#005555" fill-opacity="0.0118" d="M62 12h1v1h-1z M50 21h1v1h-1z M15 31h1v1h-1z"/>
  <path fill="#3f3f3f" fill-opacity="0.0157" d="M93 49h1v1h-1z"/>
  <path fill="#333333" fill-opacity="0.0196" d="M85 12h1v1h-1z M16 28h1v1h-1z M94 44h1v1h-1z M8 53h1v1h-1z"/>
  <path fill="#2a2a2a" fill-opacity="0.0235" d="M46 79h1v1h-1z"/>
  <path fill="#242448" fill-opacity="0.0275" d="M54 22h1v1h-1z M95 33h1v1h-1z M95 39h1v1h-1z"/>
  <path fill="#1f3f3f" fill-opacity="0.0314" d="M45 83h1v1h-1z"/>
  <path fill="#1c3838" fill-opacity="0.0353" d="M44 87h1v1h-1z"/>
  <path fill="#193333" fill-opacity="0.0392" d="M9 50h1v1h-1z"/>
  <path fill="#2e2e2e" fill-opacity="0.0431" d="M52 24h1v1h-1z M17 25h1v1h-1z M49 77h1v1h-1z"/>
  <path fill="#2a2a3f" fill-opacity="0.0471" d="M47 17h1v1h-1z M94 31h1v1h-1z"/>
  <path fill="#273a3a" fill-opacity="0.051" d="M59 83h1v1h-1z"/>
  <path fill="#1f2f3f" fill-opacity="0.0627" d="M10 47h1v1h-1z"/>
  <path fill="#2d2d3c" fill-opacity="0.0667" d="M18 22h1v1h-1z M55 22h1v1h-1z M93 29h1v1h-1z M50 77h4v1h-4z"/>
  <path fill="#2a3838" fill-opacity="0.0706" d="M86 83h1v1h-1z"/>
  <path fill="#24303c" fill-opacity="0.0824" d="M60 21h1v1h-1z M87 78h1v1h-1z"/>
  <path fill="#222e39" fill-opacity="0.0863" d="M54 77h1v1h-1z"/>
  <path fill="#213737" fill-opacity="0.0902" d="M11 44h1v1h-1z"/>
  <path fill="#2a3535" fill-opacity="0.0941" d="M19 19h1v1h-1z"/>
  <path fill="#283333" fill-opacity="0.098" d="M44 13h1v1h-1z M92 27h1v1h-1z M88 73h1v1h-1z M55 78h1v1h-1z"/>
  <path fill="#242d36" fill-opacity="0.1098" d="M4 66h1v1h-1z"/>
  <path fill="#233434" fill-opacity="0.1137" d="M89 68h1v1h-1z"/>
  <path fill="#576946" fill-opacity="0.1137" d="M56 22h1v1h-1z"/>
  <path fill="#22333b" fill-opacity="0.1176" d="M49 20h1v1h-1z"/>
  <path fill="#293139" fill-opacity="0.1216" d="M91 25h1v1h-1z"/>
  <path fill="#272f37" fill-opacity="0.1255" d="M53 25h1v1h-1z M12 41h1v1h-1z M90 63h1v1h-1z"/>
  <path fill="#557345" fill-opacity="0.1294" d="M57 22h3v1h-3z"/>
  <path fill="#253434" fill-opacity="0.1333" d="M20 16h1v1h-1z"/>
  <path fill="#233138" fill-opacity="0.1412" d="M61 17h1v1h-1z M91 58h1v1h-1z"/>
  <path fill="#282e35" fill-opacity="0.149" d="M5 63h1v1h-1z M47 75h1v1h-1z M60 84h1v1h-1z"/>
  <path fill="#263339" fill-opacity="0.1569" d="M90 23h1v1h-1z M92 53h1v1h-1z M4 69h1v1h-1z"/>
  <path fill="#253137" fill-opacity="0.1608" d="M85 87h1v1h-1z"/>
  <path fill="#232f35" fill-opacity="0.1686" d="M13 38h1v1h-1z"/>
  <path fill="#283439" fill-opacity="0.1725" d="M93 48h1v1h-1z"/>
  <path fill="#273338" fill-opacity="0.1765" d="M21 13h1v1h-1z"/>
  <path fill="#263137" fill-opacity="0.1804" d="M5 70h1v1h-1z M6 71h1v1h-1z M48 76h1v1h-1z"/>
  <path fill="#253036" fill-opacity="0.1843" d="M7 72h1v1h-1z"/>
  <path fill="#252f3a" fill-opacity="0.1882" d="M94 43h1v1h-1z M8 73h1v1h-1z"/>
  <path fill="#243439" fill-opacity="0.1922" d="M46 16h1v1h-1z"/>
  <path fill="#233338" fill-opacity="0.1961" d="M62 13h1v1h-1z M6 60h1v1h-1z M10 75h1v1h-1z M11 76h1v1h-1z"/>
  <path fill="#283237" fill-opacity="0.2" d="M89 21h1v1h-1z M51 23h1v1h-1z M56 79h1v1h-1z"/>
  <path fill="#273135" fill-opacity="0.2039" d="M14 35h1v1h-1z M95 38h1v1h-1z M9 74h1v1h-1z"/>
  <path fill="#23313a" fill-opacity="0.2235" d="M12 77h1v1h-1z M46 78h1v1h-1z"/>
  <path fill="#273039" fill-opacity="0.2275" d="M13 78h1v1h-1z M14 79h1v1h-1z"/>
  <path fill="#263338" fill-opacity="0.2314" d="M43 12h1v1h-1z M15 80h1v1h-1z"/>
  <path fill="#263337" fill-opacity="0.2353" d="M16 81h1v1h-1z"/>
  <path fill="#253236" fill-opacity="0.2392" d="M88 19h1v1h-1z M7 57h1v1h-1z M17 82h1v1h-1z M45 82h1v1h-1z"/>
  <path fill="#273337" fill-opacity="0.251" d="M15 32h1v1h-1z M44 86h1v1h-1z"/>
  <path fill="#253038" fill-opacity="0.2667" d="M86 82h1v1h-1z M18 83h1v1h-1z"/>
  <path fill="#243337" fill-opacity="0.2706" d="M19 84h1v1h-1z M61 85h1v1h-1z M22 87h1v1h-1z"/>
  <path fill="#243336" fill-opacity="0.2745" d="M20 85h1v1h-1z"/>
  <path fill="#273239" fill-opacity="0.2784" d="M8 54h1v1h-1z M21 86h1v1h-1z"/>
  <path fill="#263037" fill-opacity="0.2863" d="M87 17h1v1h-1z M87 77h1v1h-1z"/>
  <path fill="#253337" fill-opacity="0.2902" d="M16 29h1v1h-1z"/>
  <path fill="#243239" fill-opacity="0.298" d="M88 72h1v1h-1z"/>
  <path fill="#263339" fill-opacity="0.3137" d="M89 67h1v1h-1z"/>
  <path fill="#253137" fill-opacity="0.3216" d="M9 51h1v1h-1z"/>
  <path fill="#243137" fill-opacity="0.3255" d="M17 26h1v1h-1z"/>
  <path fill="#273339" fill-opacity="0.3333" d="M86 15h1v1h-1z M48 19h1v1h-1z M90 62h1v1h-1z"/>
  <path fill="#253137" fill-opacity="0.3451" d="M91 57h1v1h-1z"/>
  <path fill="#263137" fill-opacity="0.3608" d="M92 52h1v1h-1z"/>
  <path fill="#263136" fill-opacity="0.3647" d="M10 48h1v1h-1z M57 80h1v1h-1z"/>
  <path fill="#253038" fill-opacity="0.3686" d="M18 23h1v1h-1z"/>
  <path fill="#253237" fill-opacity="0.3765" d="M93 47h1v1h-1z"/>
  <path fill="#243137" fill-opacity="0.3804" d="M85 13h1v1h-1z M61 18h1v1h-1z"/>
  <path fill="#263338" fill-opacity="0.3922" d="M95 34h1v1h-1z M94 42h1v1h-1z"/>
  <path fill="#253237" fill-opacity="0.4" d="M11 45h1v1h-1z"/>
  <path fill="#314038" fill-opacity="0.4039" d="M60 22h1v1h-1z"/>
  <path fill="#243138" fill-opacity="0.4078" d="M95 37h1v1h-1z"/>
  <path fill="#263237" fill-opacity="0.4157" d="M19 20h1v1h-1z"/>
  <path fill="#253337" fill-opacity="0.4314" d="M62 14h1v1h-1z M63 87h1v1h-1z"/>
  <path fill="#273237" fill-opacity="0.4353" d="M22 12h1v1h-1z"/>
  <path fill="#263238" fill-opacity="0.4392" d="M94 32h1v1h-1z M4 67h1v1h-1z"/>
  <path fill="#263137" fill-opacity="0.4471" d="M45 15h1v1h-1z M12 42h1v1h-1z M62 86h1v1h-1z"/>
  <path fill="#253236" fill-opacity="0.4549" d="M20 17h1v1h-1z M85 86h1v1h-1z"/>
  <path fill="#253238" fill-opacity="0.4588" d="M84 12h1v1h-1z"/>
  <path fill="#263138" fill-opacity="0.4627" d="M63 12h1v1h-1z M50 22h1v1h-1z"/>
  <path fill="#263137" fill-opacity="0.4667" d="M23 12h20v1h-20z M64 12h20v1h-20z"/>
  <path fill="#263337" fill-opacity="0.4706" d="M86 81h1v1h-1z"/>
  <path fill="#253238" fill-opacity="0.4745" d="M46 77h1v1h-1z"/>
  <path fill="#253238" fill-opacity="0.4784" d="M5 64h1v1h-1z"/>
  <path fill="#253137" fill-opacity="0.4863" d="M93 30h1v1h-1z M13 39h1v1h-1z M87 76h1v1h-1z M45 81h1v1h-1z"/>
  <path fill="#263238" fill-opacity="0.498" d="M21 14h1v1h-1z M44 85h1v1h-1z"/>
  <path fill="#253137" fill-opacity="0.502" d="M88 71h1v1h-1z"/>
  <path fill="#263238" fill-opacity="0.5137" d="M6 61h1v1h-1z M89 66h1v1h-1z"/>
  <path fill="#263137" fill-opacity="0.5255" d="M14 36h1v1h-1z"/>
  <path fill="#253138" fill-opacity="0.5294" d="M92 28h1v1h-1z"/>
  <path fill="#253238" fill-opacity="0.5333" d="M90 61h1v1h-1z M23 87h21v1h-21z M64 87h21v1h-21z"/>
  <path fill="#263138" fill-opacity="0.5451" d="M58 81h1v1h-1z"/>
  <path fill="#263138" fill-opacity="0.549" d="M91 56h1v1h-1z"/>
  <path fill="#253237" fill-opacity="0.5569" d="M7 58h1v1h-1z"/>
  <path fill="#253137" fill-opacity="0.5608" d="M92 51h1v1h-1z"/>
  <path fill="#253138" fill-opacity="0.5647" d="M15 33h1v1h-1z"/>
  <path fill="#263237" fill-opacity="0.5725" d="M54 23h1v1h-1z"/>
  <path fill="#253137" fill-opacity="0.5804" d="M91 26h1v1h-1z M93 46h1v1h-1z"/>
  <path fill="#253237" fill-opacity="0.5922" d="M94 41h1v1h-1z"/>
  <path fill="#263237" fill-opacity="0.5961" d="M47 18h1v1h-1z"/>
  <path fill="#263238" fill-opacity="0.6" d="M8 55h1v1h-1z"/>
  <path fill="#253137" fill-opacity="0.6078" d="M52 25h1v1h-1z M16 30h1v1h-1z M95 36h1v1h-1z"/>
  <path fill="#253237" fill-opacity="0.6157" d="M61 19h1v1h-1z"/>
  <path fill="#263138" fill-opacity="0.6235" d="M90 24h1v1h-1z"/>
  <path fill="#253238" fill-opacity="0.6392" d="M9 52h1v1h-1z"/>
  <path fill="#263237" fill-opacity="0.651" d="M17 27h1v1h-1z"/>
  <path fill="#263238" fill-opacity="0.6549" d="M85 85h1v1h-1z"/>
  <path fill="#253137" fill-opacity="0.6667" d="M62 15h1v1h-1z"/>
  <path fill="#253238" fill-opacity="0.6706" d="M89 22h1v1h-1z M86 80h1v1h-1z"/>
  <path fill="#263137" fill-opacity="0.6824" d="M10 49h1v1h-1z"/>
  <path fill="#253137" fill-opacity="0.6863" d="M18 24h1v1h-1z M87 75h1v1h-1z"/>
  <path fill="#263137" fill-opacity="0.702" d="M53 26h1v1h-1z M88 70h1v1h-1z M59 82h1v1h-1z"/>
  <path fill="#263138" fill-opacity="0.7098" d="M4 68h1v1h-1z"/>
  <path fill="#253238" fill-opacity="0.7137" d="M88 20h1v1h-1z"/>
  <path fill="#253237" fill-opacity="0.7176" d="M89 65h1v1h-1z"/>
  <path fill="#253137" fill-opacity="0.7216" d="M11 46h1v1h-1z M46 76h1v1h-1z"/>
  <path fill="#263138" fill-opacity="0.7294" d="M44 14h1v1h-1z"/>
  <path fill="#263237" fill-opacity="0.7333" d="M19 21h1v1h-1z M45 80h1v1h-1z"/>
  <path fill="#253237" fill-opacity="0.7373" d="M90 60h1v1h-1z"/>
  <path fill="#253138" fill-opacity="0.7451" d="M44 84h1v1h-1z"/>
  <path fill="#253138" fill-opacity="0.749" d="M91 55h1v1h-1z"/>
  <path fill="#263237" fill-opacity="0.7529" d="M49 21h1v1h-1z"/>
  <path fill="#263237" fill-opacity="0.7569" d="M95 35h1v1h-1z"/>
  <path fill="#253138" fill-opacity="0.7647" d="M12 43h1v1h-1z M92 50h1v1h-1z"/>
  <path fill="#253237" fill-opacity="0.7725" d="M20 18h1v1h-1z"/>
  <path fill="#263237" fill-opacity="0.7765" d="M87 18h1v1h-1z"/>
  <path fill="#263138" fill-opacity="0.7843" d="M93 45h1v1h-1z"/>
  <path fill="#253237" fill-opacity="0.7922" d="M55 77h1v1h-1z"/>
  <path fill="#253238" fill-opacity="0.7961" d="M94 40h1v1h-1z M5 65h1v1h-1z"/>
  <path fill="#263137" fill-opacity="0.8039" d="M13 40h1v1h-1z"/>
  <path fill="#263137" fill-opacity="0.8078" d="M86 16h1v1h-1z"/>
  <path fill="#263238" fill-opacity="0.8157" d="M21 15h1v1h-1z"/>
  <path fill="#263238" fill-opacity="0.8314" d="M60 83h1v1h-1z"/>
  <path fill="#7f964f" fill-opacity="0.8314" d="M10 68h15v1h-15z"/>
  <path fill="#263238" fill-opacity="0.8353" d="M6 62h1v1h-1z"/>
  <path fill="#7a8f4d" fill-opacity="0.8353" d="M9 68h1v1h-1z"/>
  <path fill="#253137" fill-opacity="0.8431" d="M14 37h1v1h-1z"/>
  <path fill="#253137" fill-opacity="0.8471" d="M51 24h1v1h-1z"/>
  <path fill="#253238" fill-opacity="0.851" d="M61 20h1v1h-1z M54 24h1v1h-1z"/>
  <path fill="#6f874a" fill-opacity="0.851" d="M25 68h1v1h-1z"/>
  <path fill="#253238" fill-opacity="0.8549" d="M46 17h1v1h-1z"/>
  <path fill="#74874d" fill-opacity="0.8549" d="M53 68h17v1h-17z"/>
  <path fill="#263237" fill-opacity="0.8588" d="M85 84h1v1h-1z"/>
  <path fill="#253238" fill-opacity="0.8706" d="M7 59h1v1h-1z"/>
  <path fill="#283438" fill-opacity="0.8706" d="M85 14h1v1h-1z"/>
  <path fill="#253238" fill-opacity="0.8745" d="M86 79h1v1h-1z"/>
  <path fill="#263137" fill-opacity="0.8824" d="M15 34h1v1h-1z"/>
  <path fill="#263238" fill-opacity="0.8902" d="M94 33h1v1h-1z"/>
  <path fill="#263237" fill-opacity="0.8941" d="M87 74h1v1h-1z M56 78h1v1h-1z"/>
  <path fill="#596a46" fill-opacity="0.898" d="M52 68h1v1h-1z"/>
  <path fill="#253138" fill-opacity="0.902" d="M62 16h1v1h-1z"/>
  <path fill="#253138" fill-opacity="0.9059" d="M8 56h1v1h-1z M5 69h1v1h-1z M48 75h1v1h-1z"/>
  <path fill="#263138" fill-opacity="0.9098" d="M88 69h1v1h-1z"/>
  <path fill="#516443" fill-opacity="0.9098" d="M70 68h1v1h-1z"/>
  <path fill="#263237" fill-opacity="0.9137" d="M16 31h1v1h-1z"/>
  <path fill="#253138" fill-opacity="0.9216" d="M43 13h1v1h-1z M89 64h1v1h-1z M6 70h1v1h-1z M7 71h1v1h-1z"/>
  <path fill="#253138" fill-opacity="0.9255" d="M93 31h1v1h-1z M8 72h1v1h-1z M9 73h1v1h-1z M47 74h1v1h-1z"/>
  <path fill="#253137" fill-opacity="0.9294" d="M11 75h1v1h-1z"/>
  <path fill="#253237" fill-opacity="0.9333" d="M48 20h1v1h-1z M9 53h1v1h-1z M90 59h1v1h-1z M12 76h1v1h-1z M61 84h1v1h-1z"/>
  <path fill="#263237" fill-opacity="0.9373" d="M17 28h1v1h-1z M10 74h1v1h-1z"/>
  <path fill="#263138" fill-opacity="0.9412" d="M49 76h1v1h-1z"/>
  <path fill="#263138" fill-opacity="0.9451" d="M92 29h1v1h-1z"/>
  <path fill="#253137" fill-opacity="0.949" d="M91 54h1v1h-1z M13 77h1v1h-1z M14 78h1v1h-1z M15 79h1v1h-1z"/>
  <path fill="#253237" fill-opacity="0.9529" d="M46 75h1v1h-1z M16 80h1v1h-1z M17 81h1v1h-1z"/>
  <path fill="#253238" fill-opacity="0.9569" d="M10 50h1v1h-1z M18 82h1v1h-1z"/>
  <path fill="#263138" fill-opacity="0.9608" d="M92 49h1v1h-1z M45 79h1v1h-1z"/>
  <path fill="#263137" fill-opacity="0.9647" d="M18 25h1v1h-1z M57 79h1v1h-1z M19 83h1v1h-1z"/>
  <path fill="#263137" fill-opacity="0.9686" d="M91 27h1v1h-1z M93 44h1v1h-1z M44 83h1v1h-1z M20 84h1v1h-1z M21 85h1v1h-1z M22 86h1v1h-1z"/>
  <path fill="#263237" fill-opacity="0.9725" d="M45 16h1v1h-1z"/>
  <path fill="#253238" fill-opacity="0.9765" d="M50 23h1v1h-1z M94 39h1v1h-1z M11 47h1v1h-1z"/>
  <path fill="#253138" fill-opacity="0.9804" d="M19 22h1v1h-1z M90 25h1v1h-1z"/>
  <path fill="#253137" fill-opacity="0.9843" d="M62 85h1v1h-1z"/>
  <path fill="#263137" fill-opacity="0.9882" d="M12 44h1v1h-1z"/>
  <path fill="#263238" fill-opacity="0.9922" d="M20 19h1v1h-1z M89 23h1v1h-1z"/>
  <path fill="#263238" fill-opacity="0.9961" d="M61 21h1v1h-1z M13 41h1v1h-1z M5 66h1v1h-1z M85 83h1v1h-1z"/>
  <path fill="#263238" d="M22 13h21v3h-21z M63 13h22v3h-22z M43 14h1v11h-1z M44 15h1v10h-1z M85 15h1v68h-1z M21 16h4v1h-4z M42 16h1v9h-1z M63 16h2v1h-2z M83 16h2v71h-2z M21 17h3v3h-3z M45 17h1v18h-1z M62 17h2v4h-2z M86 17h1v62h-1z M41 18h1v7h-1z M46 18h1v17h-1z M82 18h1v69h-1z M47 19h1v16h-1z M87 19h1v55h-1z M20 20h3v5h-3z M40 21h1v4h-1z M48 21h1v14h-1z M62 21h1v4h-1z M88 21h1v48h-1z M49 22h1v13h-1z M61 22h1v3h-1z M81 22h1v65h-1z M19 23h1v10h-1z M23 23h17v2h-17z M55 23h6v1h-6z M63 23h9v2h-9z M50 24h1v11h-1z M55 24h2v1h-2z M58 24h3v1h-3z M89 24h1v40h-1z M20 25h2v2h-2z M51 25h1v10h-1z M54 25h2v4h-2z M71 25h1v2h-1z M18 26h1v10h-1z M52 26h1v9h-1z M90 26h1v33h-1z M20 27h1v3h-1z M44 27h1v8h-1z M53 27h1v8h-1z M80 27h1v55h-1z M70 28h1v3h-1z M91 28h1v26h-1z M17 29h1v10h-1z M54 29h1v3h-1z M43 30h1v5h-1z M92 30h1v19h-1z M79 31h1v49h-1z M16 32h1v11h-1z M69 32h1v3h-1z M93 32h1v12h-1z M42 34h1v1h-1z M54 34h15v1h-15z M70 34h9v1h-9z M94 34h1v5h-1z M15 35h1v12h-1z M78 35h1v44h-1z M14 38h1v11h-1z M77 40h1v38h-1z M13 42h1v10h-1z M12 45h1v10h-1z M76 45h1v31h-1z M16 46h5v1h-5z M33 46h5v3h-5z M51 46h6v3h-6z M20 47h1v3h-1z M32 47h1v28h-1z M11 48h1v11h-1z M33 49h4v4h-4z M51 49h5v4h-5z M75 49h1v26h-1z M19 50h1v4h-1z M50 50h1v8h-1z M10 51h1v11h-1z M31 51h1v23h-1z M18 53h1v4h-1z M20 53h11v1h-11z M33 53h3v23h-3z M51 53h4v4h-4z M74 53h1v20h-1z M9 54h1v11h-1z M30 54h1v19h-1z M49 54h1v3h-1z M8 57h1v11h-1z M17 57h1v5h-1z M36 57h1v22h-1z M51 57h3v4h-3z M29 58h1v14h-1z M73 58h1v14h-1z M37 59h1v21h-1z M7 60h1v11h-1z M16 60h1v2h-1z M38 60h1v22h-1z M50 60h1v11h-1z M18 61h11v1h-11z M39 61h1v22h-1z M51 61h2v4h-2z M28 62h1v9h-1z M40 62h1v25h-1z M72 62h1v8h-1z M6 63h1v7h-1z M41 63h1v24h-1z M27 65h1v5h-1z M42 65h1v22h-1z M49 65h1v5h-1z M51 65h1v7h-1z M43 66h1v21h-1z M5 67h1v2h-1z M44 67h1v16h-1z M71 67h1v2h-1z M26 68h1v1h-1z M45 68h1v11h-1z M8 69h1v3h-1z M9 70h1v3h-1z M46 70h1v5h-1z M52 70h1v7h-1z M10 71h1v3h-1z M47 71h1v3h-1z M53 71h1v6h-1z M11 72h1v3h-1z M48 72h1v3h-1z M12 73h1v3h-1z M49 73h3v3h-3z M54 73h1v4h-1z M13 74h1v3h-1z M55 74h1v3h-1z M14 75h1v3h-1z M56 75h1v3h-1z M15 76h1v3h-1z M34 76h2v1h-2z M50 76h2v1h-2z M57 76h1v3h-1z M16 77h1v3h-1z M35 77h1v1h-1z M58 77h1v4h-1z M17 78h1v3h-1z M18 79h1v3h-1z M59 79h1v3h-1z M19 80h1v3h-1z M60 80h1v3h-1z M20 81h1v3h-1z M61 81h1v3h-1z M21 82h1v3h-1z M62 82h1v3h-1z M22 83h1v3h-1z M23 84h17v3h-17z M63 84h18v3h-18z"/>
  <path fill="#263338" d="M8 68h1v1h-1z"/>
  <path fill="#273238" d="M46 69h1v1h-1z M72 70h1v1h-1z M54 72h1v1h-1z M37 80h1v1h-1z"/>
  <path fill="#273338" d="M64 17h1v1h-1z M63 21h1v1h-1z M57 24h1v1h-1z M56 25h1v1h-1z M71 27h1v1h-1z M70 31h1v1h-1z M76 44h1v1h-1z M37 49h1v1h-1z"/>
  <path fill="#273339" d="M37 58h1v1h-1z M49 64h1v1h-1z M36 79h1v1h-1z"/>
  <path fill="#273438" d="M44 26h1v1h-1z M69 31h1v1h-1z"/>
  <path fill="#273439" d="M17 39h1v1h-1z M12 55h1v1h-1z M52 65h1v1h-1z"/>
  <path fill="#283338" d="M71 66h1v1h-1z"/>
  <path fill="#283339" d="M42 64h1v1h-1z M63 83h1v1h-1z"/>
  <path fill="#283439" d="M74 73h1v1h-1z M79 80h1v1h-1z"/>
  <path fill="#283538" d="M70 27h1v1h-1z M54 32h1v1h-1z M27 64h1v1h-1z"/>
  <path fill="#293339" d="M35 78h1v1h-1z M59 78h1v1h-1z"/>
  <path fill="#293638" d="M23 20h1v1h-1z M80 26h1v1h-1z M18 36h1v1h-1z M19 47h1v1h-1z M13 52h1v1h-1z M49 53h1v1h-1z M29 57h1v1h-1z M73 57h1v1h-1z M53 61h1v1h-1z"/>
  <path fill="#2a3439" d="M47 70h1v1h-1z M39 83h1v1h-1z"/>
  <path fill="#2a353a" d="M48 68h1v1h-1z"/>
  <path fill="#2a3739" d="M15 47h1v1h-1z M20 52h1v1h-1z M36 53h1v1h-1z M17 56h1v1h-1z"/>
  <path fill="#2a3839" d="M41 17h1v1h-1z M19 49h1v1h-1z M30 52h1v1h-1z"/>
  <path fill="#2b343a" d="M50 58h1v1h-1z"/>
  <path fill="#2b353a" d="M38 59h1v1h-1z M55 73h1v1h-1z M34 77h1v1h-1z"/>
  <path fill="#2b3938" d="M82 17h1v1h-1z M75 48h1v1h-1z M31 50h1v1h-1z M54 57h1v1h-1z"/>
  <path fill="#2c3a39" d="M24 17h1v1h-1z M19 33h1v1h-1z M54 33h1v1h-1z M14 49h1v1h-1z M9 65h1v1h-1z"/>
  <path fill="#2c3c39" d="M41 16h1v1h-1z M16 47h3v1h-3z M21 52h9v1h-9z"/>
  <path fill="#2d3b39" d="M82 16h1v1h-1z"/>
  <path fill="#2d3c39" d="M42 33h1v1h-1z M77 39h1v1h-1z"/>
  <path fill="#2e363b" d="M43 65h1v1h-1z M33 76h1v1h-1z M76 76h1v1h-1z"/>
  <path fill="#2e3d3a" d="M50 49h1v1h-1z M55 53h1v1h-1z"/>
  <path fill="#2e3e39" d="M28 60h1v1h-1z"/>
  <path fill="#2f3f39" d="M55 29h1v1h-1z"/>
  <path fill="#2f3f3a" d="M40 20h1v1h-1z M79 30h1v1h-1z M72 61h1v1h-1z"/>
  <path fill="#30373c" d="M71 69h1v1h-1z"/>
  <path fill="#30383c" d="M48 71h1v1h-1z"/>
  <path fill="#30383d" d="M60 79h1v1h-1z"/>
  <path fill="#303f3a" d="M26 67h1v1h-1z"/>
  <path fill="#30413a" d="M20 30h1v1h-1z M10 62h1v1h-1z"/>
  <path fill="#31393d" d="M51 72h1v1h-1z"/>
  <path fill="#31423a" d="M70 33h1v1h-1z M38 46h1v1h-1z"/>
  <path fill="#32393d" d="M50 59h1v1h-1z"/>
  <path fill="#32423a" d="M20 50h1v1h-1z M18 57h1v1h-1z"/>
  <path fill="#32443a" d="M81 21h1v1h-1z M56 49h1v1h-1z M74 52h1v1h-1z"/>
  <path fill="#33393d" d="M32 75h1v1h-1z"/>
  <path fill="#333a3d" d="M56 74h1v1h-1z"/>
  <path fill="#333a3e" d="M39 60h1v1h-1z"/>
  <path fill="#343a3e" d="M49 57h1v1h-1z"/>
  <path fill="#34463a" d="M43 29h1v1h-1z"/>
  <path fill="#34473b" d="M63 22h1v1h-1z M18 52h1v1h-1z"/>
  <path fill="#35473a" d="M16 59h1v1h-1z"/>
  <path fill="#35483a" d="M76 43h1v1h-1z"/>
  <path fill="#363b3e" d="M31 74h1v1h-1z M78 79h1v1h-1z"/>
  <path fill="#363b3f" d="M52 69h1v1h-1z"/>
  <path fill="#36493b" d="M16 43h1v1h-1z M11 59h1v1h-1z"/>
  <path fill="#373c3f" d="M44 66h1v1h-1z M73 72h1v1h-1z"/>
  <path fill="#374a3b" d="M21 27h1v1h-1z M70 32h1v1h-1z M78 33h1v1h-1z"/>
  <path fill="#383d40" d="M49 63h1v1h-1z"/>
  <path fill="#384b3b" d="M64 18h1v1h-1z M71 28h1v1h-1z M32 46h1v1h-1z"/>
  <path fill="#384c3b" d="M68 33h1v1h-1z"/>
  <path fill="#394d3c" d="M56 26h1v1h-1z M71 65h1v1h-1z M52 66h1v1h-1z"/>
  <path fill="#3a3d40" d="M30 73h1v1h-1z"/>
  <path fill="#3a4d3b" d="M72 24h1v1h-1z"/>
  <path fill="#3a4e3c" d="M37 50h1v1h-1z"/>
  <path fill="#3b503c" d="M69 30h1v1h-1z M27 62h1v1h-1z"/>
  <path fill="#3c3e41" d="M48 67h1v1h-1z"/>
  <path fill="#3d523c" d="M12 56h1v1h-1z M73 56h1v1h-1z"/>
  <path fill="#3d533c" d="M44 25h1v1h-1z M80 25h1v1h-1z M70 26h1v1h-1z M17 40h1v1h-1z M19 54h1v1h-1z M53 62h1v1h-1z"/>
  <path fill="#3e4041" d="M29 72h1v1h-1z M49 72h1v1h-1z M61 80h1v1h-1z"/>
  <path fill="#3f4043" d="M80 83h1v1h-1z"/>
  <path fill="#3f553c" d="M27 63h1v1h-1z"/>
  <path fill="#3f563d" d="M49 52h1v1h-1z"/>
  <path fill="#3f573d" d="M65 16h1v1h-1z M75 47h1v1h-1z"/>
  <path fill="#404144" d="M80 82h1v1h-1z"/>
  <path fill="#414243" d="M57 75h1v1h-1z"/>
  <path fill="#41583c" d="M21 47h1v1h-1z"/>
  <path fill="#424243" d="M40 61h1v1h-1z M75 75h1v1h-1z"/>
  <path fill="#424244" d="M9 69h1v1h-1z"/>
  <path fill="#424344" d="M10 70h1v1h-1z"/>
  <path fill="#42593d" d="M21 46h1v1h-1z"/>
  <path fill="#425a3d" d="M25 16h1v1h-1z M72 23h1v1h-1z M36 54h1v1h-1z M29 56h1v1h-1z M54 58h1v1h-1z"/>
  <path fill="#434344" d="M11 71h1v1h-1z M28 71h1v1h-1z M50 71h1v1h-1z"/>
  <path fill="#435c3d" d="M23 21h1v1h-1z M18 37h1v1h-1z M77 38h1v1h-1z M19 48h1v1h-1z M13 53h1v1h-1z M17 55h1v1h-1z"/>
  <path fill="#444345" d="M23 83h1v1h-1z"/>
  <path fill="#455f3e" d="M31 49h1v1h-1z"/>
  <path fill="#464545" d="M45 67h1v1h-1z"/>
  <path fill="#464546" d="M53 70h1v1h-1z"/>
  <path fill="#46603e" d="M79 29h1v1h-1z M55 54h1v1h-1z M72 60h1v1h-1z"/>
  <path fill="#474647" d="M12 72h1v1h-1z M13 73h1v1h-1z M64 83h1v1h-1z"/>
  <path fill="#47613e" d="M42 32h1v1h-1z"/>
  <path fill="#47623e" d="M26 16h15v1h-15z M66 16h16v1h-16z M55 33h13v1h-13z M71 33h7v1h-7z M50 48h1v1h-1z"/>
  <path fill="#484646" d="M24 83h15v1h-15z M65 83h15v1h-15z"/>
  <path fill="#484a45" d="M48 56h1v1h-1z"/>
  <path fill="#494646" d="M14 74h1v1h-1z"/>
  <path fill="#494747" d="M27 70h1v1h-1z"/>
  <path fill="#4a5443" d="M36 56h1v1h-1z"/>
  <path fill="#4a653e" d="M24 18h1v1h-1z M81 20h1v1h-1z M19 34h1v1h-1z M14 50h1v1h-1z M74 51h1v1h-1z M9 66h1v1h-1z"/>
  <path fill="#4a663e" d="M18 60h1v1h-1z"/>
  <path fill="#4b673f" d="M56 50h1v1h-1z"/>
  <path fill="#4c683f" d="M26 66h1v1h-1z"/>
  <path fill="#4c6a3e" d="M40 19h1v1h-1z"/>
  <path fill="#4d4848" d="M15 75h1v1h-1z M62 81h1v1h-1z"/>
  <path fill="#4d4948" d="M16 76h1v1h-1z"/>
  <path fill="#4d693f" d="M55 30h1v1h-1z M76 42h1v1h-1z M38 47h1v1h-1z"/>
  <path fill="#4e4949" d="M17 77h1v1h-1z M77 78h1v1h-1z"/>
  <path fill="#4f4a4a" d="M26 69h1v1h-1z"/>
  <path fill="#4f6c40" d="M19 60h9v1h-9z"/>
  <path fill="#4f6d3f" d="M43 28h1v1h-1z M57 46h1v1h-1z M20 51h1v1h-1z M10 63h1v1h-1z M71 64h1v1h-1z"/>
  <path fill="#4f6e3f" d="M18 58h1v1h-1z M28 59h1v1h-1z"/>
  <path fill="#504b49" d="M49 62h1v1h-1z M72 71h1v1h-1z"/>
  <path fill="#506e40" d="M20 31h1v1h-1z"/>
  <path fill="#51703f" d="M64 19h1v1h-1z M71 29h1v1h-1z"/>
  <path fill="#517040" d="M18 51h1v1h-1z M16 58h1v1h-1z M52 67h1v1h-1z"/>
  <path fill="#524c4a" d="M49 70h1v1h-1z"/>
  <path fill="#527140" d="M72 25h1v1h-1z"/>
  <path fill="#52723f" d="M48 55h1v1h-1z"/>
  <path fill="#534b4b" d="M41 62h1v1h-1z M18 78h1v1h-1z"/>
  <path fill="#534d4b" d="M19 79h1v1h-1z"/>
  <path fill="#537240" d="M73 55h1v1h-1z"/>
  <path fill="#544d4b" d="M58 76h1v1h-1z"/>
  <path fill="#547340" d="M39 22h1v1h-1z M80 24h1v1h-1z"/>
  <path fill="#547540" d="M69 29h1v1h-1z"/>
  <path fill="#554d4c" d="M48 66h1v1h-1z M20 80h1v1h-1z"/>
  <path fill="#557641" d="M37 51h1v1h-1z M11 60h1v1h-1z M17 62h10v1h-10z M53 63h1v1h-1z"/>
  <path fill="#567740" d="M70 25h1v1h-1z M21 28h1v1h-1z M16 44h1v1h-1z"/>
  <path fill="#577841" d="M75 46h1v1h-1z"/>
  <path fill="#584f4d" d="M38 82h1v1h-1z"/>
  <path fill="#584f4e" d="M46 68h1v1h-1z"/>
  <path fill="#587941" d="M56 27h1v1h-1z"/>
  <path fill="#594f4d" d="M54 71h1v1h-1z"/>
  <path fill="#59504d" d="M21 81h1v1h-1z"/>
  <path fill="#597c41" d="M54 59h1v1h-1z"/>
  <path fill="#5a514e" d="M22 82h1v1h-1z"/>
  <path fill="#5a7c41" d="M77 37h1v1h-1z"/>
  <path fill="#5a7e42" d="M49 51h1v1h-1z"/>
  <path fill="#5c7f41" d="M22 25h1v1h-1z M12 57h1v1h-1z"/>
  <path fill="#5c8142" d="M79 28h1v1h-1z"/>
  <path fill="#5d524e" d="M79 81h1v1h-1z"/>
  <path fill="#5d5350" d="M74 74h1v1h-1z"/>
  <path fill="#5d8042" d="M17 41h1v1h-1z M72 59h1v1h-1z"/>
  <path fill="#5d8141" d="M23 22h1v1h-1z"/>
  <path fill="#5d8242" d="M21 48h1v1h-1z M19 55h1v1h-1z M36 55h1v1h-1z"/>
  <path fill="#5e534f" d="M37 57h1v1h-1z"/>
  <path fill="#5e8242" d="M77 35h1v1h-1z"/>
  <path fill="#5e8342" d="M55 55h1v1h-1z M16 62h1v1h-1z"/>
  <path fill="#5f8442" d="M29 55h1v1h-1z"/>
  <path fill="#608542" d="M74 50h1v1h-1z M17 54h1v1h-1z"/>
  <path fill="#608543" d="M81 19h1v1h-1z"/>
  <path fill="#615451" d="M37 81h1v1h-1z"/>
  <path fill="#625551" d="M63 82h1v1h-1z"/>
  <path fill="#628843" d="M42 31h1v1h-1z M31 48h1v1h-1z M13 54h1v1h-1z"/>
  <path fill="#628942" d="M42 35h35v1h-35z M18 38h1v1h-1z M16 45h1v1h-1z"/>
  <path fill="#635652" d="M42 63h1v1h-1z"/>
  <path fill="#638a43" d="M76 41h1v1h-1z M50 47h1v1h-1z M56 51h1v1h-1z"/>
  <path fill="#665753" d="M59 77h1v1h-1z"/>
  <path fill="#665853" d="M48 69h1v1h-1z"/>
  <path fill="#668e43" d="M78 32h1v1h-1z M71 63h1v1h-1z"/>
  <path fill="#678f44" d="M57 47h1v1h-1z"/>
  <path fill="#685853" d="M36 80h1v1h-1z"/>
  <path fill="#685954" d="M49 61h1v1h-1z"/>
  <path fill="#689143" d="M38 48h1v1h-1z"/>
  <path fill="#695954" d="M47 69h1v1h-1z"/>
  <path fill="#699144" d="M24 19h1v1h-1z M19 35h1v1h-1z M14 51h1v1h-1z M9 67h1v1h-1z"/>
  <path fill="#699244" d="M29 54h1v1h-1z M26 65h1v1h-1z"/>
  <path fill="#6a9344" d="M64 20h1v1h-1z M71 30h1v1h-1z"/>
  <path fill="#6a9444" d="M80 23h1v1h-1z M55 31h1v1h-1z M73 54h1v1h-1z"/>
  <path fill="#6b9544" d="M72 26h1v1h-1z M43 27h1v1h-1z M15 61h1v1h-1z"/>
  <path fill="#6b9645" d="M40 18h1v1h-1z"/>
  <path fill="#6c5b55" d="M55 72h1v1h-1z"/>
  <path fill="#6c9644" d="M28 58h1v1h-1z M18 59h1v1h-1z"/>
  <path fill="#6d5b55" d="M48 65h1v1h-1z M35 79h1v1h-1z"/>
  <path fill="#6d5b56" d="M76 77h1v1h-1z"/>
  <path fill="#6d9944" d="M68 32h1v1h-1z M75 45h1v1h-1z"/>
  <path fill="#6e5c56" d="M38 58h1v1h-1z"/>
  <path fill="#6e9945" d="M18 50h1v1h-1z M48 54h1v1h-1z M16 57h1v1h-1z M53 64h1v1h-1z"/>
  <path fill="#6f9a45" d="M69 28h1v1h-1z"/>
  <path fill="#6f9b45" d="M20 32h1v1h-1z M15 48h1v1h-1z M30 51h1v1h-1z M10 64h1v1h-1z"/>
  <path fill="#6f9c45" d="M70 67h1v1h-1z"/>
  <path fill="#705d57" d="M71 70h1v1h-1z"/>
  <path fill="#709c45" d="M77 36h1v1h-1z M37 52h1v1h-1z"/>
  <path fill="#729f46" d="M54 60h1v1h-1z"/>
  <path fill="#735f57" d="M34 78h1v1h-1z"/>
  <path fill="#73a146" d="M72 58h1v1h-1z"/>
  <path fill="#745f58" d="M43 64h1v1h-1z"/>
  <path fill="#74a246" d="M39 21h1v1h-1z M79 27h1v1h-1z"/>
  <path fill="#74a346" d="M56 28h1v1h-1z"/>
  <path fill="#75a446" d="M41 34h1v1h-1z M11 61h1v1h-1z"/>
  <path fill="#76a447" d="M49 50h1v1h-1z"/>
  <path fill="#76a546" d="M21 29h1v1h-1z"/>
  <path fill="#77625a" d="M33 77h1v1h-1z M60 78h1v1h-1z"/>
  <path fill="#77a546" d="M55 56h1v1h-1z"/>
  <path fill="#77a646" d="M17 45h3v1h-3z M33 45h6v1h-6z M52 45h5v1h-5z M74 49h1v1h-1z M20 54h9v1h-9z"/>
  <path fill="#77a746" d="M81 18h1v1h-1z"/>
  <path fill="#77a847" d="M51 45h1v1h-1z"/>
  <path fill="#78615a" d="M48 70h1v1h-1z"/>
  <path fill="#78625b" d="M78 80h1v1h-1z"/>
  <path fill="#786959" d="M37 56h11v1h-11z"/>
  <path fill="#78a747" d="M20 45h1v1h-1z"/>
  <path fill="#79635b" d="M73 73h1v1h-1z"/>
  <path fill="#7aaa47" d="M76 40h1v1h-1z"/>
  <path fill="#7aab47" d="M21 49h1v1h-1z M19 56h1v1h-1z"/>
  <path fill="#7b635b" d="M49 58h1v1h-1z M39 59h1v1h-1z M32 76h1v1h-1z"/>
  <path fill="#7b645c" d="M56 73h1v1h-1z"/>
  <path fill="#7bac47" d="M41 35h1v1h-1z M56 52h1v1h-1z"/>
  <path fill="#7cad47" d="M57 45h1v1h-1z"/>
  <path fill="#7cad48" d="M22 26h1v1h-1z M17 42h1v1h-1z M12 58h1v1h-1z"/>
  <path fill="#7cae48" d="M15 60h1v1h-1z"/>
  <path fill="#7d655d" d="M50 72h1v1h-1z"/>
  <path fill="#7daf48" d="M78 31h1v1h-1z"/>
  <path fill="#7db047" d="M17 53h1v1h-1z M71 62h1v1h-1z"/>
  <path fill="#7eb047" d="M32 45h1v1h-1z"/>
  <path fill="#7f665d" d="M44 65h1v1h-1z"/>
  <path fill="#7fb148" d="M42 30h1v1h-1z M50 46h1v1h-1z"/>
  <path fill="#7fb248" d="M57 48h1v1h-1z"/>
  <path fill="#7fb348" d="M31 47h1v1h-1z"/>
  <path fill="#80b348" d="M57 25h1v1h-1z"/>
  <path fill="#81675e" d="M49 71h1v1h-1z M31 75h1v1h-1z"/>
  <path fill="#81b448" d="M73 53h1v1h-1z"/>
  <path fill="#81b548" d="M80 22h1v1h-1z M18 39h1v1h-1z M13 55h1v1h-1z"/>
  <path fill="#81b648" d="M64 21h1v1h-1z M71 31h1v1h-1z"/>
  <path fill="#82675e" d="M49 60h1v1h-1z"/>
  <path fill="#82675f" d="M61 79h1v1h-1z"/>
  <path fill="#82b649" d="M38 49h1v1h-1z"/>
  <path fill="#83685f" d="M75 76h1v1h-1z"/>
  <path fill="#83b848" d="M65 17h1v1h-1z M72 27h1v1h-1z"/>
  <path fill="#84695f" d="M70 69h1v1h-1z M30 74h1v1h-1z"/>
  <path fill="#84b848" d="M75 44h1v1h-1z"/>
  <path fill="#84ba49" d="M43 26h1v1h-1z M53 65h1v1h-1z"/>
  <path fill="#85695f" d="M40 60h1v1h-1z M57 74h1v1h-1z"/>
  <path fill="#85b949" d="M24 22h15v1h-15z M64 22h8v1h-8z"/>
  <path fill="#85bb49" d="M24 20h1v1h-1z M55 32h1v1h-1z M19 36h1v1h-1z M14 52h1v1h-1z M26 64h1v1h-1z"/>
  <path fill="#866a60" d="M48 64h1v1h-1z"/>
  <path fill="#86bc49" d="M68 31h1v1h-1z M70 66h1v1h-1z"/>
  <path fill="#86bc4a" d="M69 27h1v1h-1z"/>
  <path fill="#876a60" d="M48 57h1v1h-1z"/>
  <path fill="#876b60" d="M53 69h1v1h-1z M29 73h1v1h-1z"/>
  <path fill="#876b61" d="M45 66h1v1h-1z"/>
  <path fill="#87bd49" d="M40 17h1v1h-1z M48 53h1v1h-1z M28 57h1v1h-1z"/>
  <path fill="#87be49" d="M18 49h1v1h-1z M37 53h1v1h-1z M16 56h1v1h-1z M54 61h1v1h-1z"/>
  <path fill="#886c61" d="M72 72h1v1h-1z"/>
  <path fill="#88bf4a" d="M79 26h1v1h-1z M21 45h1v1h-1z M30 50h1v1h-1z M72 57h1v1h-1z M15 62h1v1h-1z"/>
  <path fill="#896b61" d="M28 72h1v1h-1z M77 79h1v1h-1z"/>
  <path fill="#89bf49" d="M25 17h1v1h-1z M20 33h1v1h-1z M15 49h1v1h-1z M10 65h1v1h-1z"/>
  <path fill="#89c24a" d="M81 17h1v1h-1z M41 33h1v1h-1z M39 45h1v1h-1z"/>
  <path fill="#8a6c62" d="M11 70h1v1h-1z M12 71h1v1h-1z M62 80h1v1h-1z"/>
  <path fill="#8a6d62" d="M10 69h1v1h-1z"/>
  <path fill="#8ac149" d="M39 20h1v1h-1z M72 22h1v1h-1z M56 29h1v1h-1z M49 49h1v1h-1z M11 62h1v1h-1z M25 67h1v1h-1z"/>
  <path fill="#8ac14a" d="M74 48h1v1h-1z M55 57h1v1h-1z"/>
  <path fill="#8ac24a" d="M21 30h1v1h-1z M76 39h1v1h-1z M56 53h1v1h-1z"/>
  <path fill="#8b6d62" d="M27 71h1v1h-1z"/>
  <path fill="#8b6e63" d="M47 68h1v1h-1z M15 74h1v1h-1z"/>
  <path fill="#8bc34a" d="M26 17h14v3h-14z M66 17h15v5h-15z M25 18h1v4h-1z M65 18h1v4h-1z M26 20h13v2h-13z M24 21h1v1h-1z M73 22h7v4h-7z M23 25h21v1h-21z M58 25h12v2h-12z M23 26h20v4h-20z M57 26h1v7h-1z M73 26h6v5h-6z M22 27h1v25h-1z M58 27h11v4h-11z M72 28h1v5h-1z M23 30h19v3h-19z M56 30h1v3h-1z M21 31h1v14h-1z M58 31h10v2h-10z M73 31h5v2h-5z M71 32h1v1h-1z M23 33h18v12h-18z M20 34h1v11h-1z M41 36h36v3h-36z M19 37h1v8h-1z M41 39h35v5h-35z M18 40h1v5h-1z M17 43h1v2h-1z M41 44h34v1h-34z M23 45h9v2h-9z M40 45h11v1h-11z M58 45h17v3h-17z M39 46h11v3h-11z M23 47h8v3h-8z M16 48h3v1h-3z M58 48h16v5h-16z M16 49h2v4h-2z M39 49h10v4h-10z M57 49h1v19h-1z M15 50h1v10h-1z M21 50h1v2h-1z M23 50h7v2h-7z M38 50h1v6h-1z M14 53h1v15h-1z M16 53h1v3h-1z M39 53h9v3h-9z M58 53h15v4h-15z M37 54h1v2h-1z M56 54h1v14h-1z M20 55h9v2h-9z M13 56h1v12h-1z M19 57h9v3h-9z M58 57h14v5h-14z M55 58h1v10h-1z M12 59h1v9h-1z M54 62h1v6h-1z M58 62h13v4h-13z M11 63h1v5h-1z M15 63h12v1h-12z M15 64h11v3h-11z M10 66h1v2h-1z M53 66h1v2h-1z M58 66h12v2h-12z M15 67h10v1h-10z"/>
  <path fill="#8c6d62" d="M41 61h1v1h-1z M46 67h1v1h-1z M26 70h1v1h-1z M54 70h1v1h-1z M13 72h1v1h-1z M14 73h1v1h-1z M16 75h1v1h-1z M58 75h1v1h-1z M74 75h1v1h-1z M17 76h1v1h-1z M79 82h1v1h-1z"/>
  <path fill="#8c6e63" d="M25 69h1v1h-1z M18 77h1v1h-1z"/>
  <path fill="#8d6e63" d="M38 57h10v1h-10z M39 58h10v1h-10z M40 59h10v1h-10z M41 60h8v1h-8z M42 61h7v2h-7z M43 63h6v1h-6z M44 64h4v1h-4z M45 65h3v1h-3z M46 66h2v1h-2z M47 67h1v1h-1z M11 69h14v1h-14z M54 69h16v1h-16z M12 70h14v1h-14z M55 70h16v2h-16z M13 71h14v1h-14z M71 71h1v12h-1z M14 72h14v1h-14z M56 72h15v1h-15z M15 73h14v1h-14z M57 73h14v1h-14z M72 73h1v10h-1z M16 74h14v1h-14z M58 74h13v1h-13z M73 74h1v9h-1z M17 75h14v1h-14z M59 75h12v2h-12z M18 76h14v1h-14z M74 76h1v7h-1z M19 77h14v2h-14z M60 77h11v1h-11z M75 77h1v6h-1z M33 78h1v5h-1z M61 78h10v1h-10z M76 78h1v5h-1z M20 79h13v1h-13z M34 79h1v4h-1z M62 79h9v1h-9z M21 80h12v1h-12z M35 80h1v3h-1z M63 80h8v2h-8z M77 80h1v3h-1z M22 81h11v1h-11z M36 81h1v2h-1z M78 81h1v2h-1z M23 82h10v1h-10z M37 82h1v1h-1z M64 82h7v1h-7z"/>
</svg>