<?xml version="1.0" encoding="UTF-8"?>
<svg xmlns="http://www.w3.org/2000/svg" width="100" height="100" viewBox="0 0 100 100" role="img" aria-labelledby="title" shape-rendering="crispEdges">
  <title id="title">icons8 bad piggies 100</title>
  <desc>Pixel-perfect vector conversion from the supplied PNG, preserving transparency.</desc>
  <path fill="#00ff00" fill-opacity="0.0039" d="M81 29h1v1h-1zM85 33h1v1h-1zM11 35h1v1h-1zM16 84h1v1h-1zM76 89h1v1h-1zM27 90h1v1h-1z"/>
  <path fill="#00ff7f" fill-opacity="0.0078" d="M25 10h1v1h-1zM42 16h1v1h-1zM9 38h1v1h-1zM95 66h1v1h-1zM93 72h1v1h-1zM10 78h1v1h-1z"/>
  <path fill="#00aa55" fill-opacity="0.0118" d="M15 25h1v1h-1zM86 82h1v1h-1zM85 83h1v1h-1z"/>
  <path fill="#00bf3f" fill-opacity="0.0157" d="M16 26h1v1h-1zM84 32h1v1h-1zM4 50h1v1h-1zM95 52h1v1h-1zM92 74h1v1h-1zM87 81h1v1h-1zM19 86h1v1h-1z"/>
  <path fill="#00cc66" fill-opacity="0.0196" d="M64 15h1v1h-1zM82 30h1v1h-1z"/>
  <path fill="#00d455" fill-opacity="0.0235" d="M12 16h1v1h-1zM40 93h1v1h-1z"/>
  <path fill="#00b648" fill-opacity="0.0275" d="M83 31h1v1h-1z"/>
  <path fill="#00c655" fill-opacity="0.0353" d="M4 65h1v1h-1zM15 83h1v1h-1zM62 93h1v1h-1z"/>
  <path fill="#00cc4c" fill-opacity="0.0392" d="M8 75h1v1h-1z"/>
  <path fill="#00bf55" fill-opacity="0.0471" d="M50 7h1v1h-1zM12 34h1v1h-1zM81 86h1v1h-1z"/>
  <path fill="#00c44e" fill-opacity="0.051" d="M63 17h1v1h-1z"/>
  <path fill="#00c85b" fill-opacity="0.0549" d="M77 26h1v1h-1zM6 44h1v1h-1zM67 92h1v1h-1z"/>
  <path fill="#00cc55" fill-opacity="0.0588" d="M13 22h1v1h-1zM90 40h1v1h-1z"/>
  <path fill="#00cf4f" fill-opacity="0.0627" d="M74 24h1v1h-1zM11 79h1v1h-1z"/>
  <path fill="#00c35a" fill-opacity="0.0667" d="M62 7h1v1h-1zM13 14h1v1h-1zM29 14h1v1h-1zM93 46h1v1h-1z"/>
  <path fill="#00c655" fill-opacity="0.0706" d="M52 6h1v1h-1zM49 8h1v1h-1zM30 16h1v1h-1z"/>
  <path fill="#00c950" fill-opacity="0.0745" d="M88 37h1v1h-1zM8 40h1v1h-1zM6 71h1v1h-1z"/>
  <path fill="#00cc59" fill-opacity="0.0784" d="M19 10h1v1h-1zM37 17h1v1h-1zM90 77h1v1h-1z"/>
  <path fill="#00c255" fill-opacity="0.0824" d="M15 12h1v1h-1zM14 82h1v1h-1z"/>
  <path fill="#00c551" fill-opacity="0.0863" d="M66 20h1v1h-1zM25 89h1v1h-1z"/>
  <path fill="#00c74d" fill-opacity="0.0902" d="M12 19h1v1h-1z"/>
  <path fill="#00c955" fill-opacity="0.0941" d="M63 8h1v1h-1zM12 80h1v1h-1z"/>
  <path fill="#00cc51" fill-opacity="0.098" d="M94 69h1v1h-1zM13 81h1v1h-1z"/>
  <path fill="#00c44e" fill-opacity="0.102" d="M7 73h1v1h-1zM21 87h1v1h-1z"/>
  <path fill="#00c851" fill-opacity="0.1098" d="M43 16h1v1h-1zM7 42h1v1h-1z"/>
  <path fill="#00c552" fill-opacity="0.1216" d="M60 6h1v1h-1zM73 90h1v1h-1zM35 92h1v1h-1z"/>
  <path fill="#00c855" fill-opacity="0.1294" d="M31 91h1v1h-1zM41 93h1v1h-1z"/>
  <path fill="#00c450" fill-opacity="0.1373" d="M13 33h1v1h-1zM23 88h1v1h-1z"/>
  <path fill="#00c655" fill-opacity="0.1412" d="M5 47h1v1h-1z"/>
  <path fill="#00c752" fill-opacity="0.1451" d="M91 42h1v1h-1z"/>
  <path fill="#00c950" fill-opacity="0.149" d="M18 28h1v1h-1z"/>
  <path fill="#00ca55" fill-opacity="0.1529" d="M31 19h1v1h-1z"/>
  <path fill="#00c552" fill-opacity="0.1569" d="M14 13h1v1h-1zM94 49h1v1h-1z"/>
  <path fill="#00c855" fill-opacity="0.1647" d="M12 17h1v1h-1zM10 37h1v1h-1z"/>
  <path fill="#00c953" fill-opacity="0.1686" d="M17 29h1v1h-1zM92 44h1v1h-1zM95 53h1v1h-1zM95 65h1v1h-1z"/>
  <path fill="#00c655" fill-opacity="0.1765" d="M34 18h1v1h-1zM18 85h1v1h-1z"/>
  <path fill="#00c851" fill-opacity="0.1843" d="M70 91h1v1h-1zM61 93h1v1h-1z"/>
  <path fill="#00c955" fill-opacity="0.1882" d="M63 19h1v1h-1z"/>
  <path fill="#00c553" fill-opacity="0.1922" d="M78 27h1v1h-1zM4 51h1v1h-1z"/>
  <path fill="#00c651" fill-opacity="0.1961" d="M12 18h1v1h-1z"/>
  <path fill="#00c855" fill-opacity="0.2" d="M44 16h1v1h-1zM14 32h1v1h-1zM5 68h1v1h-1zM79 87h1v1h-1z"/>
  <path fill="#00c953" fill-opacity="0.2039" d="M87 36h1v1h-1z"/>
  <path fill="#00ca51" fill-opacity="0.2078" d="M72 23h1v1h-1zM16 30h1v1h-1z"/>
  <path fill="#00c655" fill-opacity="0.2118" d="M4 64h1v1h-1zM82 85h1v1h-1z"/>
  <path fill="#00c955" fill-opacity="0.2235" d="M68 21h1v1h-1zM9 76h1v1h-1z"/>
  <path fill="#00c553" fill-opacity="0.2275" d="M64 10h1v1h-1zM45 16h1v1h-1z"/>
  <path fill="#00c652" fill-opacity="0.2314" d="M48 10h1v1h-1zM17 11h1v1h-1zM70 22h1v1h-1z"/>
  <path fill="#00c755" fill-opacity="0.2353" d="M28 90h1v1h-1z"/>
  <path fill="#00c853" fill-opacity="0.2392" d="M89 78h1v1h-1z"/>
  <path fill="#00c952" fill-opacity="0.2431" d="M62 18h1v1h-1z"/>
  <path fill="#00c655" fill-opacity="0.2471" d="M42 93h1v1h-1z"/>
  <path fill="#00c852" fill-opacity="0.2549" d="M15 31h1v1h-1z"/>
  <path fill="#00c851" fill-opacity="0.2588" d="M24 10h1v1h-1z"/>
  <path fill="#00c652" fill-opacity="0.2667" d="M46 16h1v1h-1zM66 92h1v1h-1z"/>
  <path fill="#00c751" fill-opacity="0.2706" d="M26 11h1v1h-1zM64 14h1v1h-1zM91 75h1v1h-1z"/>
  <path fill="#00c851" fill-opacity="0.2941" d="M75 89h1v1h-1z"/>
  <path fill="#00c953" fill-opacity="0.298" d="M28 13h1v1h-1zM77 88h1v1h-1z"/>
  <path fill="#00c853" fill-opacity="0.3098" d="M38 17h1v1h-1zM95 54h1v1h-1zM93 71h1v1h-1z"/>
  <path fill="#00c852" fill-opacity="0.3137" d="M47 16h1v1h-1z"/>
  <path fill="#00c951" fill-opacity="0.3176" d="M14 23h1v1h-1zM89 39h1v1h-1zM95 64h1v1h-1z"/>
  <path fill="#00c851" fill-opacity="0.3294" d="M18 27h1v1h-1zM36 92h1v1h-1zM60 93h1v1h-1z"/>
  <path fill="#00c754" fill-opacity="0.3451" d="M20 10h1v1h-1z"/>
  <path fill="#00c853" fill-opacity="0.349" d="M53 6h1v1h-1z"/>
  <path fill="#00c852" fill-opacity="0.3647" d="M43 93h1v1h-1z"/>
  <path fill="#00c854" fill-opacity="0.3686" d="M75 25h1v1h-1z"/>
  <path fill="#00c754" fill-opacity="0.3804" d="M92 73h1v1h-1z"/>
  <path fill="#00c853" fill-opacity="0.3843" d="M86 35h1v1h-1z"/>
  <path fill="#00c852" fill-opacity="0.3882" d="M4 52h1v1h-1zM83 84h1v1h-1z"/>
  <path fill="#00c753" fill-opacity="0.3961" d="M79 28h1v1h-1z"/>
  <path fill="#00c852" fill-opacity="0.4" d="M94 68h1v1h-1z"/>
  <path fill="#00c854" fill-opacity="0.4039" d="M4 63h1v1h-1z"/>
  <path fill="#00c953" fill-opacity="0.4078" d="M6 45h1v1h-1z"/>
  <path fill="#00c752" fill-opacity="0.4118" d="M59 6h1v1h-1z"/>
  <path fill="#00c853" fill-opacity="0.4196" d="M27 12h1v1h-1zM11 36h1v1h-1zM9 39h1v1h-1z"/>
  <path fill="#00c852" fill-opacity="0.4235" d="M93 47h1v1h-1zM94 50h1v1h-1zM32 91h1v1h-1z"/>
  <path fill="#00c651" fill-opacity="0.4275" d="M88 79h1v1h-1z"/>
  <path fill="#00c752" fill-opacity="0.4353" d="M64 13h1v1h-1zM17 84h1v1h-1zM20 86h1v1h-1zM59 93h1v1h-1z"/>
  <path fill="#00c851" fill-opacity="0.4392" d="M30 17h1v1h-1zM32 19h1v1h-1z"/>
  <path fill="#00c853" fill-opacity="0.4431" d="M5 48h1v1h-1zM95 63h1v1h-1z"/>
  <path fill="#00c752" fill-opacity="0.4471" d="M95 55h1v1h-1z"/>
  <path fill="#00c752" fill-opacity="0.4706" d="M65 20h1v1h-1zM6 70h1v1h-1z"/>
  <path fill="#00c853" fill-opacity="0.4784" d="M23 10h1v1h-1zM13 21h1v1h-1zM26 89h1v1h-1zM69 91h1v1h-1zM44 93h1v1h-1z"/>
  <path fill="#00c753" fill-opacity="0.4902" d="M64 11h1v1h-1zM65 92h1v1h-1z"/>
  <path fill="#00c852" fill-opacity="0.4941" d="M8 74h1v1h-1z"/>
  <path fill="#00c852" fill-opacity="0.498" d="M5 67h1v1h-1z"/>
  <path fill="#00c753" fill-opacity="0.502" d="M21 10h1v1h-1z"/>
  <path fill="#00c753" fill-opacity="0.5059" d="M72 90h1v1h-1z"/>
  <path fill="#00c852" fill-opacity="0.5098" d="M10 77h1v1h-1z"/>
  <path fill="#00c853" fill-opacity="0.5137" d="M37 92h1v1h-1z"/>
  <path fill="#00c853" fill-opacity="0.5176" d="M58 93h1v1h-1z"/>
  <path fill="#00c753" fill-opacity="0.5255" d="M4 53h1v1h-1z"/>
  <path fill="#00c853" fill-opacity="0.5294" d="M63 16h1v1h-1z"/>
  <path fill="#00c852" fill-opacity="0.5333" d="M22 10h1v1h-1z"/>
  <path fill="#00c753" fill-opacity="0.5373" d="M29 90h1v1h-1z"/>
  <path fill="#00c753" fill-opacity="0.5412" d="M62 19h1v1h-1z"/>
  <path fill="#00c853" fill-opacity="0.549" d="M64 12h1v1h-1zM35 18h1v1h-1zM7 43h1v1h-1z"/>
  <path fill="#00c853" fill-opacity="0.5529" d="M54 6h1v1h-1zM39 17h1v1h-1zM8 41h1v1h-1zM45 93h1v1h-1z"/>
  <path fill="#00c752" fill-opacity="0.5569" d="M51 7h1v1h-1zM29 15h1v1h-1zM4 62h1v1h-1z"/>
  <path fill="#00c853" fill-opacity="0.5647" d="M85 34h1v1h-1z"/>
  <path fill="#00c852" fill-opacity="0.5686" d="M80 29h1v1h-1zM95 62h1v1h-1z"/>
  <path fill="#00c853" fill-opacity="0.5725" d="M7 72h1v1h-1z"/>
  <path fill="#00c753" fill-opacity="0.5765" d="M13 15h1v1h-1z"/>
  <path fill="#00c852" fill-opacity="0.5843" d="M95 56h1v1h-1z"/>
  <path fill="#00c752" fill-opacity="0.5922" d="M73 24h1v1h-1zM90 41h1v1h-1zM84 83h1v1h-1zM22 87h1v1h-1z"/>
  <path fill="#00c752" fill-opacity="0.5961" d="M48 11h1v1h-1zM15 24h1v1h-1zM24 88h1v1h-1z"/>
  <path fill="#00c853" fill-opacity="0.6" d="M80 86h1v1h-1z"/>
  <path fill="#00c752" fill-opacity="0.6157" d="M57 93h1v1h-1z"/>
  <path fill="#00c852" fill-opacity="0.6196" d="M58 6h1v1h-1zM17 26h1v1h-1z"/>
  <path fill="#00c853" fill-opacity="0.6235" d="M87 80h1v1h-1zM46 93h1v1h-1z"/>
  <path fill="#00c752" fill-opacity="0.6314" d="M84 33h1v1h-1z"/>
  <path fill="#00c753" fill-opacity="0.6353" d="M61 7h1v1h-1zM81 30h1v1h-1zM90 76h1v1h-1z"/>
  <path fill="#00c852" fill-opacity="0.6392" d="M91 43h1v1h-1z"/>
  <path fill="#00c852" fill-opacity="0.6431" d="M67 21h1v1h-1zM16 25h1v1h-1zM92 45h1v1h-1z"/>
  <path fill="#00c752" fill-opacity="0.651" d="M85 82h1v1h-1zM16 83h1v1h-1z"/>
  <path fill="#00c853" fill-opacity="0.6588" d="M49 9h1v1h-1zM4 54h1v1h-1z"/>
  <path fill="#00c852" fill-opacity="0.6627" d="M4 61h1v1h-1zM86 81h1v1h-1z"/>
  <path fill="#00c752" fill-opacity="0.6667" d="M76 26h1v1h-1zM88 38h1v1h-1z"/>
  <path fill="#00c753" fill-opacity="0.6706" d="M12 35h1v1h-1z"/>
  <path fill="#00c853" fill-opacity="0.6745" d="M38 92h1v1h-1z"/>
  <path fill="#00c753" fill-opacity="0.6824" d="M55 6h1v1h-1zM16 12h1v1h-1zM95 57h1v1h-1z"/>
  <path fill="#00c753" fill-opacity="0.6863" d="M94 51h1v1h-1z"/>
  <path fill="#00c752" fill-opacity="0.6902" d="M95 61h1v1h-1z"/>
  <path fill="#00c853" fill-opacity="0.6941" d="M83 32h1v1h-1zM95 58h1v1h-1zM47 93h1v1h-1z"/>
  <path fill="#00c853" fill-opacity="0.698" d="M94 67h1v1h-1zM33 91h1v1h-1zM56 93h1v1h-1z"/>
  <path fill="#00c752" fill-opacity="0.702" d="M57 6h1v1h-1z"/>
  <path fill="#00c753" fill-opacity="0.7059" d="M95 59h1v1h-1zM93 70h1v1h-1zM11 78h1v1h-1z"/>
  <path fill="#00c853" fill-opacity="0.7098" d="M18 11h1v1h-1zM82 31h1v1h-1zM64 92h1v1h-1z"/>
  <path fill="#00c853" fill-opacity="0.7176" d="M40 17h1v1h-1zM95 60h1v1h-1zM74 89h1v1h-1z"/>
  <path fill="#00c753" fill-opacity="0.7216" d="M71 23h1v1h-1z"/>
  <path fill="#00c853" fill-opacity="0.7333" d="M56 6h1v1h-1zM5 49h1v1h-1zM55 93h1v1h-1z"/>
  <path fill="#00c752" fill-opacity="0.7373" d="M63 9h1v1h-1z"/>
  <path fill="#00c753" fill-opacity="0.7412" d="M69 22h1v1h-1z"/>
  <path fill="#00c753" fill-opacity="0.7451" d="M48 93h1v1h-1z"/>
  <path fill="#00c852" fill-opacity="0.7529" d="M4 55h1v1h-1z"/>
  <path fill="#00c852" fill-opacity="0.7647" d="M4 60h1v1h-1z"/>
  <path fill="#00c853" fill-opacity="0.7686" d="M5 66h1v1h-1z"/>
  <path fill="#00c852" fill-opacity="0.7725" d="M54 93h1v1h-1z"/>
  <path fill="#00c752" fill-opacity="0.7765" d="M30 18h1v1h-1z"/>
  <path fill="#00c852" fill-opacity="0.7843" d="M10 38h1v1h-1zM6 46h1v1h-1zM68 91h1v1h-1z"/>
  <path fill="#00c852" fill-opacity="0.7882" d="M78 87h1v1h-1z"/>
  <path fill="#00c752" fill-opacity="0.7961" d="M15 82h1v1h-1zM76 88h1v1h-1z"/>
  <path fill="#00c852" fill-opacity="0.8" d="M49 93h3v1h-3zM53 93h1v1h-1z"/>
  <path fill="#00c852" fill-opacity="0.8078" d="M4 56h1v1h-1z"/>
  <path fill="#00c752" fill-opacity="0.8118" d="M33 19h1v1h-1z"/>
  <path fill="#00c753" fill-opacity="0.8157" d="M12 79h1v1h-1zM19 85h1v1h-1zM52 93h1v1h-1z"/>
  <path fill="#00c852" fill-opacity="0.8196" d="M50 8h1v1h-1zM48 12h1v1h-1zM93 48h1v1h-1zM4 59h1v1h-1z"/>
  <path fill="#00c753" fill-opacity="0.8275" d="M13 34h1v1h-1zM14 81h1v1h-1z"/>
  <path fill="#00c752" fill-opacity="0.8314" d="M36 18h1v1h-1z"/>
  <path fill="#00c752" fill-opacity="0.8353" d="M91 74h1v1h-1zM30 90h1v1h-1z"/>
  <path fill="#00c853" fill-opacity="0.8392" d="M64 20h1v1h-1zM6 69h1v1h-1z"/>
  <path fill="#00c853" fill-opacity="0.8431" d="M4 58h1v1h-1zM39 92h1v1h-1z"/>
  <path fill="#00c752" fill-opacity="0.8471" d="M13 20h1v1h-1zM92 72h1v1h-1z"/>
  <path fill="#00c753" fill-opacity="0.851" d="M41 17h1v1h-1zM9 75h1v1h-1z"/>
  <path fill="#00c853" fill-opacity="0.8549" d="M25 11h1v1h-1zM4 57h1v1h-1z"/>
  <path fill="#00c852" fill-opacity="0.8588" d="M77 27h1v1h-1zM13 80h1v1h-1zM27 89h1v1h-1z"/>
  <path fill="#00c853" fill-opacity="0.8627" d="M62 8h1v1h-1z"/>
  <path fill="#00c752" fill-opacity="0.8706" d="M81 85h1v1h-1z"/>
  <path fill="#00c853" fill-opacity="0.8745" d="M87 37h1v1h-1zM71 90h1v1h-1z"/>
  <path fill="#00c752" fill-opacity="0.8824" d="M63 92h1v1h-1z"/>
  <path fill="#00c753" fill-opacity="0.8863" d="M19 28h1v1h-1z"/>
  <path fill="#00c852" fill-opacity="0.8941" d="M14 14h1v1h-1z"/>
  <path fill="#00c853" fill-opacity="0.898" d="M15 13h1v1h-1zM28 14h1v1h-1zM18 29h1v1h-1zM89 40h1v1h-1z"/>
  <path fill="#00c753" fill-opacity="0.902" d="M62 17h1v1h-1zM89 77h1v1h-1z"/>
  <path fill="#00c752" fill-opacity="0.9059" d="M74 25h1v1h-1z"/>
  <path fill="#00c853" fill-opacity="0.9098" d="M19 27h1v1h-1zM34 91h1v1h-1z"/>
  <path fill="#00c853" fill-opacity="0.9137" d="M14 33h1v1h-1z"/>
  <path fill="#00c852" fill-opacity="0.9176" d="M63 15h1v1h-1z"/>
  <path fill="#00c752" fill-opacity="0.9216" d="M14 22h1v1h-1z"/>
  <path fill="#00c753" fill-opacity="0.9255" d="M17 30h1v1h-1z"/>
  <path fill="#00c852" fill-opacity="0.9333" d="M61 19h1v1h-1z"/>
  <path fill="#00c753" fill-opacity="0.9373" d="M48 16h1v1h-1zM9 40h1v1h-1zM94 66h1v1h-1z"/>
  <path fill="#00c752" fill-opacity="0.9412" d="M94 52h1v1h-1z"/>
  <path fill="#00c752" fill-opacity="0.9451" d="M13 16h1v1h-1zM7 44h1v1h-1z"/>
  <path fill="#00c853" fill-opacity="0.949" d="M15 32h1v1h-1zM21 86h1v1h-1z"/>
  <path fill="#00c852" fill-opacity="0.9529" d="M29 16h1v1h-1zM16 31h1v1h-1zM8 73h1v1h-1z"/>
  <path fill="#00c752" fill-opacity="0.9569" d="M5 50h1v1h-1zM7 71h1v1h-1z"/>
  <path fill="#00c753" fill-opacity="0.9608" d="M48 13h1v1h-1z"/>
  <path fill="#00c852" fill-opacity="0.9647" d="M52 7h1v1h-1zM11 37h1v1h-1z"/>
  <path fill="#00c852" fill-opacity="0.9686" d="M78 28h1v1h-1zM86 36h1v1h-1zM8 42h1v1h-1zM92 46h1v1h-1zM18 84h1v1h-1zM25 88h1v1h-1z"/>
  <path fill="#00c853" fill-opacity="0.9725" d="M48 15h1v1h-1zM42 17h1v1h-1zM31 20h1v1h-1zM66 21h1v1h-1zM82 84h1v1h-1z"/>
  <path fill="#00c752" fill-opacity="0.9765" d="M61 18h1v1h-1z"/>
  <path fill="#00c752" fill-opacity="0.9804" d="M5 65h1v1h-1zM88 78h1v1h-1zM23 87h1v1h-1z"/>
  <path fill="#00c853" fill-opacity="0.9843" d="M90 42h1v1h-1zM40 92h1v1h-1z"/>
  <path fill="#00c852" fill-opacity="0.9882" d="M60 7h1v1h-1zM19 11h1v1h-1zM93 69h1v1h-1zM10 76h1v1h-1zM67 91h1v1h-1z"/>
  <path fill="#00c752" fill-opacity="0.9922" d="M26 12h1v1h-1zM48 14h1v1h-1zM30 19h1v1h-1zM72 24h1v1h-1zM91 44h1v1h-1zM79 86h1v1h-1zM73 89h1v1h-1z"/>
  <path fill="#00c753" fill-opacity="0.9961" d="M27 13h1v1h-1zM37 18h1v1h-1zM62 92h1v1h-1z"/>
  <path fill="#00c652" d="M28 33h1v1h-1zM65 78h1v1h-1z"/>
  <path fill="#00c752" d="M29 34h1v1h-1zM29 77h1v1h-1zM31 79h1v1h-1z"/>
  <path fill="#00c753" d="M29 71h1v1h-1z"/>
  <path fill="#00c853" d="M53 7h7v1h-7zM51 8h11v1h-11zM50 9h13v1h-13zM49 10h5v1h-5zM59 10h5v1h-5zM20 11h5v1h-5zM49 11h4v1h-4zM60 11h4v1h-4zM17 12h9v1h-9zM16 13h11v1h-11zM61 12h3v3h-3zM15 14h4v1h-4zM23 14h5v1h-5zM24 15h5v1h-5zM49 12h3v5h-3zM14 15h3v2h-3zM61 15h2v2h-2zM25 16h4v1h-4zM43 17h9v1h-9zM60 17h2v1h-2zM38 18h16v1h-16zM59 18h2v1h-2zM13 17h3v3h-3zM25 17h5v3h-5zM34 19h27v1h-27zM14 20h2v1h-2zM25 20h6v1h-6zM32 20h32v1h-32zM14 21h3v1h-3zM25 21h41v1h-41zM15 22h3v1h-3zM24 22h45v1h-45zM15 23h56v1h-56zM16 24h56v1h-56zM17 25h57v1h-57zM18 26h58v1h-58zM20 27h57v1h-57zM20 28h58v1h-58zM19 29h61v1h-61zM18 30h63v1h-63zM17 31h65v1h-65zM16 32h67v1h-67zM15 33h4v1h-4zM29 33h41v1h-41zM79 33h5v1h-5zM14 34h2v1h-2zM30 34h39v1h-39zM81 34h4v1h-4zM13 35h2v1h-2zM83 35h3v1h-3zM30 35h38v2h-38zM84 36h2v1h-2zM12 36h2v2h-2zM29 37h12v1h-12zM52 37h17v1h-17zM84 37h3v1h-3zM11 38h3v1h-3zM20 38h18v1h-18zM56 38h21v1h-21zM84 38h4v1h-4zM10 39h5v1h-5zM18 39h17v1h-17zM58 39h21v1h-21zM83 39h6v1h-6zM10 40h24v1h-24zM60 40h29v1h-29zM9 41h23v1h-23zM61 41h29v1h-29zM9 42h22v1h-22zM63 42h27v1h-27zM8 43h11v1h-11zM24 43h6v1h-6zM64 43h10v1h-10zM78 43h13v1h-13zM8 44h9v1h-9zM27 44h2v1h-2zM65 44h6v1h-6zM81 44h10v1h-10zM7 45h9v1h-9zM65 45h5v1h-5zM82 45h10v1h-10zM7 46h8v1h-8zM66 46h3v1h-3zM83 46h9v1h-9zM6 47h8v1h-8zM67 47h1v1h-1zM84 47h9v1h-9zM85 48h8v1h-8zM6 48h7v3h-7zM85 49h9v2h-9zM86 51h8v2h-8zM86 53h9v4h-9zM5 51h7v7h-7zM85 57h10v3h-10zM5 58h8v2h-8zM5 60h9v2h-9zM84 60h11v2h-11zM5 62h10v1h-10zM83 62h12v1h-12zM5 63h12v1h-12zM68 63h3v1h-3zM81 63h14v1h-14zM5 64h14v1h-14zM25 64h1v1h-1zM68 64h5v1h-5zM79 64h16v1h-16zM6 65h20v1h-20zM68 65h27v1h-27zM6 66h21v1h-21zM67 66h27v1h-27zM6 67h22v1h-22zM66 67h28v1h-28zM6 68h16v1h-16zM24 68h4v1h-4zM66 68h6v1h-6zM74 68h20v1h-20zM7 69h14v1h-14zM25 69h4v1h-4zM65 69h6v1h-6zM7 70h13v1h-13zM25 70h5v1h-5zM64 70h6v1h-6zM75 69h18v3h-18zM8 71h12v1h-12zM66 71h4v1h-4zM25 71h4v2h-4zM8 72h8v1h-8zM17 72h4v1h-4zM67 72h4v1h-4zM75 72h4v1h-4zM80 72h12v1h-12zM81 73h11v1h-11zM9 73h5v2h-5zM19 73h10v2h-10zM67 73h10v2h-10zM82 74h9v2h-9zM10 75h4v1h-4zM19 75h4v1h-4zM27 75h2v1h-2zM67 75h2v1h-2zM73 75h4v2h-4zM11 76h3v1h-3zM19 76h3v1h-3zM67 76h1v1h-1zM81 76h9v1h-9zM28 76h1v2h-1zM11 77h5v1h-5zM17 77h5v1h-5zM66 77h2v1h-2zM73 77h6v1h-6zM80 77h9v1h-9zM12 78h11v1h-11zM27 78h3v1h-3zM66 78h3v1h-3zM73 78h15v1h-15zM13 79h11v1h-11zM26 79h5v1h-5zM64 79h6v1h-6zM72 79h16v1h-16zM14 80h19v1h-19zM63 80h24v1h-24zM15 81h20v1h-20zM61 81h25v1h-25zM16 82h22v1h-22zM58 82h27v1h-27zM17 83h26v1h-26zM53 83h31v1h-31zM19 84h63v1h-63zM20 85h61v1h-61zM22 86h57v1h-57zM24 87h54v1h-54zM26 88h50v1h-50zM28 89h45v1h-45zM31 90h40v1h-40zM35 91h32v1h-32zM41 92h21v1h-21z"/>
  <path fill="#01c350" d="M30 78h1v1h-1z"/>
  <path fill="#01c351" d="M63 70h1v1h-1z"/>
  <path fill="#01c451" d="M77 38h1v1h-1zM52 83h1v1h-1z"/>
  <path fill="#01c552" d="M78 33h1v1h-1zM16 34h1v1h-1zM68 35h1v2h-1zM79 39h1v1h-1z"/>
  <path fill="#01c652" d="M16 20h1v1h-1zM22 77h1v1h-1zM27 77h1v1h-1z"/>
  <path fill="#01c852" d="M65 68h1v1h-1z"/>
  <path fill="#01c853" d="M60 12h1v1h-1zM52 17h1v1h-1zM14 73h1v1h-1zM14 76h1v1h-1zM22 76h1v1h-1zM27 76h1v1h-1z"/>
  <path fill="#01c854" d="M19 43h1v1h-1zM67 48h1v1h-1zM83 61h1v1h-1zM69 62h1v1h-1z"/>
  <path fill="#01c952" d="M35 39h1v1h-1zM64 44h1v1h-1zM64 69h1v1h-1zM30 70h1v1h-1z"/>
  <path fill="#02c04f" d="M29 36h1v1h-1zM62 80h1v1h-1z"/>
  <path fill="#02c14f" d="M57 82h1v1h-1z"/>
  <path fill="#02c250" d="M70 33h1v1h-1zM60 81h1v1h-1zM43 83h1v1h-1z"/>
  <path fill="#02c552" d="M17 15h1v1h-1zM71 79h1v1h-1z"/>
  <path fill="#02c652" d="M58 10h1v1h-1zM60 16h1v1h-1zM16 72h1v1h-1zM16 77h1v1h-1z"/>
  <path fill="#02c753" d="M79 72h1v1h-1zM79 77h1v1h-1z"/>
  <path fill="#02c854" d="M26 44h1v1h-1z"/>
  <path fill="#02c951" d="M41 37h1v1h-1zM67 65h1v1h-1z"/>
  <path fill="#03ba4c" d="M82 35h1v1h-1z"/>
  <path fill="#03bb4d" d="M83 36h1v1h-1z"/>
  <path fill="#03be4e" d="M35 81h1v1h-1zM38 82h1v1h-1z"/>
  <path fill="#03c652" d="M20 71h1v1h-1zM70 71h1v1h-1z"/>
  <path fill="#03c951" d="M28 45h1v1h-1zM66 47h1v1h-1z"/>
  <path fill="#03c955" d="M82 62h1v1h-1z"/>
  <path fill="#04b84b" d="M51 83h1v1h-1z"/>
  <path fill="#04ba4c" d="M14 38h1v1h-1zM33 80h1v1h-1z"/>
  <path fill="#04c451" d="M24 21h1v1h-1zM24 79h2v1h-2z"/>
  <path fill="#04c452" d="M23 22h1v1h-1z"/>
  <path fill="#04ca50" d="M28 68h1v1h-1z"/>
  <path fill="#05b348" d="M77 33h1v1h-1zM50 83h1v1h-1z"/>
  <path fill="#05b449" d="M19 38h1v1h-1z"/>
  <path fill="#05b44a" d="M66 76h1v1h-1z"/>
  <path fill="#05b64a" d="M19 33h1v1h-1zM14 36h1v1h-1zM44 83h1v1h-1z"/>
  <path fill="#05c251" d="M20 70h1v1h-1zM70 70h1v1h-1z"/>
  <path fill="#05c351" d="M70 79h1v1h-1z"/>
  <path fill="#05c451" d="M22 14h1v1h-1z"/>
  <path fill="#05c956" d="M84 48h1v1h-1z"/>
  <path fill="#05ca50" d="M62 42h1v1h-1z"/>
  <path fill="#06b047" d="M71 33h1v1h-1zM15 39h1v1h-1z"/>
  <path fill="#06b148" d="M15 35h1v1h-1z"/>
  <path fill="#06b248" d="M66 72h1v1h-1z"/>
  <path fill="#06b249" d="M29 35h1v1h-1zM45 83h1v1h-1z"/>
  <path fill="#06c251" d="M58 18h1v1h-1z"/>
  <path fill="#06c957" d="M12 57h1v1h-1zM14 61h1v1h-1z"/>
  <path fill="#06cb4f" d="M32 41h1v1h-1zM63 43h1v1h-1zM29 69h1v1h-1z"/>
  <path fill="#07ab45" d="M80 34h1v1h-1z"/>
  <path fill="#07ab46" d="M27 33h1v1h-1z"/>
  <path fill="#07ac45" d="M82 39h1v1h-1zM49 83h1v1h-1z"/>
  <path fill="#07ac46" d="M46 83h1v1h-1z"/>
  <path fill="#07c150" d="M23 68h1v1h-1zM73 68h1v1h-1z"/>
  <path fill="#07c151" d="M16 17h1v1h-1zM68 76h1v1h-1z"/>
  <path fill="#08a743" d="M83 38h1v1h-1zM56 82h1v1h-1z"/>
  <path fill="#08a844" d="M17 39h1v1h-1zM48 83h1v1h-1z"/>
  <path fill="#08aa45" d="M28 37h1v1h-1z"/>
  <path fill="#08bf50" d="M18 73h1v1h-1z"/>
  <path fill="#08c04f" d="M59 11h1v1h-1zM81 74h1v1h-1z"/>
  <path fill="#08c050" d="M81 75h1v1h-1zM18 76h1v1h-1z"/>
  <path fill="#09a341" d="M65 71h1v1h-1z"/>
  <path fill="#09a543" d="M72 33h1v1h-1z"/>
  <path fill="#09a643" d="M69 37h1v1h-1zM47 83h1v1h-1z"/>
  <path fill="#09be4f" d="M22 68h1v1h-1zM72 68h1v1h-1zM68 77h1v1h-1z"/>
  <path fill="#09ca59" d="M71 44h1v1h-1zM15 62h1v1h-1z"/>
  <path fill="#0a9f3f" d="M14 37h1v1h-1z"/>
  <path fill="#0aa03f" d="M29 72h1v1h-1z"/>
  <path fill="#0aa040" d="M76 33h1v1h-1zM80 39h1v1h-1z"/>
  <path fill="#0aa241" d="M78 38h1v1h-1zM29 76h1v1h-1z"/>
  <path fill="#0aa340" d="M39 82h1v1h-1z"/>
  <path fill="#0abe4f" d="M54 10h1v1h-1zM19 14h1v1h-1z"/>
  <path fill="#0acd4c" d="M55 38h1v1h-1z"/>
  <path fill="#0b9d3e" d="M59 81h1v1h-1z"/>
  <path fill="#0b9e3f" d="M73 33h1v1h-1zM23 37h1v1h-1zM63 79h1v1h-1z"/>
  <path fill="#0b9f3f" d="M20 33h1v1h-1z"/>
  <path fill="#0bbc4e" d="M24 72h1v1h-1zM74 72h1v1h-1zM72 75h1v1h-1z"/>
  <path fill="#0bbd4f" d="M18 22h1v1h-1z"/>
  <path fill="#0bcd4c" d="M26 65h1v1h-1z"/>
  <path fill="#0c963c" d="M22 37h1v1h-1z"/>
  <path fill="#0c983c" d="M24 37h1v1h-1z"/>
  <path fill="#0c993c" d="M26 33h1v1h-1zM75 33h1v1h-1z"/>
  <path fill="#0c9a3d" d="M17 34h1v1h-1z"/>
  <path fill="#0c9b3d" d="M69 34h1v1h-1z"/>
  <path fill="#0c9b3e" d="M83 37h1v1h-1z"/>
  <path fill="#0ccd4b" d="M29 44h1v1h-1z"/>
  <path fill="#0cce4a" d="M68 62h1v1h-1z"/>
  <path fill="#0d963b" d="M36 81h1v1h-1z"/>
  <path fill="#0d973b" d="M74 33h1v1h-1zM30 71h1v1h-1z"/>
  <path fill="#0dba4d" d="M16 19h1v1h-1z"/>
  <path fill="#0dbb4e" d="M59 17h1v1h-1z"/>
  <path fill="#0dcb5c" d="M80 44h1v1h-1z"/>
  <path fill="#0dce4a" d="M51 37h1v1h-1z"/>
  <path fill="#0e8f38" d="M25 37h1v1h-1zM66 75h1v1h-1z"/>
  <path fill="#0e9038" d="M16 39h1v1h-1zM81 39h1v1h-1z"/>
  <path fill="#0e9139" d="M32 79h1v1h-1z"/>
  <path fill="#0eb94e" d="M77 73h1v1h-1z"/>
  <path fill="#0eba4d" d="M60 13h1v1h-1zM77 76h1v1h-1z"/>
  <path fill="#0f8b35" d="M61 80h1v1h-1z"/>
  <path fill="#0f8c36" d="M55 82h1v1h-1z"/>
  <path fill="#0f8d37" d="M65 77h1v1h-1z"/>
  <path fill="#0f8e37" d="M66 73h1v1h-1z"/>
  <path fill="#0f8f37" d="M25 33h1v1h-1z"/>
  <path fill="#108734" d="M74 37h1v1h-1z"/>
  <path fill="#108834" d="M64 78h1v1h-1zM40 82h1v1h-1z"/>
  <path fill="#108935" d="M21 37h1v1h-1z"/>
  <path fill="#108b35" d="M21 33h1v1h-1z"/>
  <path fill="#10b84c" d="M60 15h1v1h-1zM17 21h1v1h-1z"/>
  <path fill="#10d048" d="M31 42h1v1h-1z"/>
  <path fill="#118333" d="M66 74h1v1h-1z"/>
  <path fill="#118432" d="M22 33h1v1h-1z"/>
  <path fill="#118834" d="M24 33h1v1h-1z"/>
  <path fill="#11b64c" d="M24 16h1v1h-1zM21 72h1v1h-1zM71 72h1v1h-1zM14 75h1v1h-1zM26 75h1v1h-1z"/>
  <path fill="#11b74c" d="M16 18h1v1h-1zM72 78h1v1h-1z"/>
  <path fill="#11cc5e" d="M23 43h1v1h-1zM13 48h1v1h-1z"/>
  <path fill="#11d047" d="M42 37h1v1h-1z"/>
  <path fill="#128031" d="M26 37h1v1h-1zM73 37h1v1h-1z"/>
  <path fill="#128131" d="M75 37h1v1h-1zM34 80h1v1h-1z"/>
  <path fill="#128231" d="M23 33h1v1h-1z"/>
  <path fill="#128332" d="M79 34h1v1h-1z"/>
  <path fill="#12b54c" d="M23 75h1v1h-1z"/>
  <path fill="#12b64c" d="M14 74h1v1h-1z"/>
  <path fill="#12d047" d="M59 40h1v1h-1zM30 43h1v1h-1z"/>
  <path fill="#137b2e" d="M29 73h1v1h-1z"/>
  <path fill="#137c2f" d="M81 35h1v1h-1z"/>
  <path fill="#137e2f" d="M29 75h1v1h-1zM31 78h1v1h-1z"/>
  <path fill="#13b44b" d="M52 12h1v1h-1zM21 14h1v1h-1z"/>
  <path fill="#13b54b" d="M54 18h1v1h-1z"/>
  <path fill="#13d146" d="M38 38h1v1h-1z"/>
  <path fill="#14782d" d="M72 37h1v1h-1z"/>
  <path fill="#147a2d" d="M27 37h1v1h-1zM54 82h1v1h-1z"/>
  <path fill="#147a2e" d="M18 38h1v1h-1z"/>
  <path fill="#147b2e" d="M30 77h1v1h-1z"/>
  <path fill="#15742a" d="M76 37h1v1h-1z"/>
  <path fill="#15752b" d="M58 81h1v1h-1z"/>
  <path fill="#15762c" d="M28 34h1v1h-1z"/>
  <path fill="#15772c" d="M41 82h1v1h-1z"/>
  <path fill="#15b24a" d="M57 10h1v1h-1zM20 14h1v1h-1z"/>
  <path fill="#15cd61" d="M74 43h1v1h-1zM85 51h1v1h-1z"/>
  <path fill="#167029" d="M18 34h1v1h-1zM16 35h1v1h-1zM20 37h1v1h-1z"/>
  <path fill="#16722a" d="M29 74h1v1h-1z"/>
  <path fill="#16b24a" d="M60 14h1v1h-1z"/>
  <path fill="#16cd62" d="M17 44h1v1h-1zM84 59h1v1h-1z"/>
  <path fill="#176d27" d="M79 38h1v1h-1zM64 71h1v1h-1z"/>
  <path fill="#176e27" d="M70 37h1v1h-1z"/>
  <path fill="#177029" d="M37 81h1v1h-1z"/>
  <path fill="#17b049" d="M23 15h1v1h-1z"/>
  <path fill="#17cd63" d="M77 43h1v1h-1z"/>
  <path fill="#186825" d="M71 37h1v1h-1zM31 71h1v1h-1z"/>
  <path fill="#186a25" d="M53 82h1v1h-1z"/>
  <path fill="#18af49" d="M52 16h1v1h-1zM26 78h1v1h-1z"/>
  <path fill="#196524" d="M82 36h1v1h-1zM62 79h1v1h-1z"/>
  <path fill="#196724" d="M42 82h1v1h-1z"/>
  <path fill="#19ae49" d="M24 69h1v1h-1zM74 69h1v1h-1zM69 75h1v1h-1zM23 78h1v1h-1z"/>
  <path fill="#1a6021" d="M15 38h1v1h-1zM33 79h1v1h-1z"/>
  <path fill="#1a6121" d="M70 34h1v1h-1z"/>
  <path fill="#1a6122" d="M78 34h1v1h-1zM15 36h1v1h-1z"/>
  <path fill="#1a6222" d="M28 36h1v1h-1zM77 37h1v1h-1zM60 80h1v1h-1z"/>
  <path fill="#1a6322" d="M69 36h1v1h-1z"/>
  <path fill="#1a6323" d="M69 35h1v1h-1z"/>
  <path fill="#1ace65" d="M20 43h1v1h-1z"/>
  <path fill="#1b5e20" d="M19 34h9v1h-9zM71 34h7v1h-7zM17 35h12v1h-12zM70 35h11v1h-11zM16 36h12v1h-12zM70 36h12v1h-12zM15 37h5v1h-5zM78 37h5v1h-5zM16 38h2v1h-2zM80 38h3v1h-3zM38 51h3v1h-3zM37 52h5v1h-5zM52 53h4v1h-4zM51 54h6v2h-6zM36 53h7v6h-7zM51 56h7v3h-7zM51 59h6v1h-6zM37 59h5v2h-5zM52 60h5v1h-5zM38 61h3v1h-3zM53 61h2v1h-2zM63 71h1v1h-1zM63 72h2v1h-2zM63 73h3v3h-3zM30 72h3v5h-3zM42 75h1v2h-1zM53 75h1v2h-1zM63 76h2v1h-2zM31 77h3v1h-3zM41 77h2v1h-2zM62 77h3v1h-3zM52 77h3v2h-3zM32 78h2v1h-2zM41 78h3v1h-3zM62 78h2v1h-2zM34 79h1v1h-1zM40 79h4v1h-4zM52 79h4v1h-4zM61 79h1v1h-1zM36 80h9v1h-9zM51 80h9v1h-9zM38 81h8v1h-8zM49 81h8v1h-8zM43 82h9v1h-9z"/>
  <path fill="#1b5f20" d="M55 61h1v1h-1zM52 82h1v1h-1z"/>
  <path fill="#1b5f21" d="M65 72h1v1h-1zM65 76h1v1h-1zM57 81h1v1h-1z"/>
  <path fill="#1b6020" d="M35 80h1v1h-1z"/>
  <path fill="#1bd541" d="M57 39h1v1h-1z"/>
  <path fill="#1c6020" d="M41 51h1v1h-1zM42 59h1v1h-1z"/>
  <path fill="#1cab47" d="M80 76h1v1h-1z"/>
  <path fill="#1cab48" d="M55 10h1v1h-1z"/>
  <path fill="#1cd540" d="M66 66h1v1h-1z"/>
  <path fill="#1d5f22" d="M60 79h1v1h-1z"/>
  <path fill="#1d611f" d="M57 55h1v1h-1z"/>
  <path fill="#1d621f" d="M50 57h1v1h-1z"/>
  <path fill="#1daa47" d="M53 11h1v1h-1zM80 73h1v1h-1z"/>
  <path fill="#1e6023" d="M46 81h1v1h-1z"/>
  <path fill="#1e641f" d="M39 50h1v1h-1z"/>
  <path fill="#1ea947" d="M57 18h1v1h-1zM22 22h1v1h-1z"/>
  <path fill="#1ed63f" d="M50 37h1v1h-1z"/>
  <path fill="#1f6123" d="M52 76h1v1h-1z"/>
  <path fill="#1f651f" d="M51 60h1v1h-1z"/>
  <path fill="#1fa846" d="M56 10h1v1h-1z"/>
  <path fill="#20671e" d="M37 51h1v1h-1zM52 61h1v1h-1z"/>
  <path fill="#20a646" d="M24 20h1v1h-1z"/>
  <path fill="#20cf69" d="M27 45h1v1h-1z"/>
  <path fill="#20d73d" d="M65 46h1v1h-1z"/>
  <path fill="#212121" d="M22 51h3v2h-3zM72 51h4v2h-4zM21 53h4v1h-4zM71 53h5v1h-5zM22 54h3v1h-3zM72 54h4v1h-4zM23 55h2v1h-2zM73 55h2v1h-2z"/>
  <path fill="#216226" d="M62 71h1v1h-1zM43 77h1v1h-1z"/>
  <path fill="#21691e" d="M50 56h1v1h-1zM36 59h1v1h-1z"/>
  <path fill="#222421" d="M25 51h1v1h-1z"/>
  <path fill="#226327" d="M61 78h1v1h-1zM39 79h1v1h-1z"/>
  <path fill="#22a445" d="M21 69h1v1h-1zM71 69h1v1h-1z"/>
  <path fill="#22a545" d="M69 78h1v1h-1z"/>
  <path fill="#22d83c" d="M43 37h1v1h-1zM34 40h1v1h-1z"/>
  <path fill="#232323" d="M21 52h1v1h-1zM71 52h1v1h-1z"/>
  <path fill="#236428" d="M35 79h1v1h-1z"/>
  <path fill="#246e1d" d="M57 59h1v1h-1z"/>
  <path fill="#24a344" d="M17 16h1v1h-1zM18 74h1v2h-1z"/>
  <path fill="#25652a" d="M51 79h1v1h-1z"/>
  <path fill="#25a244" d="M53 17h1v1h-1zM55 18h1v1h-1zM15 73h1v1h-1zM15 76h1v1h-1z"/>
  <path fill="#25d06c" d="M73 64h1v1h-1z"/>
  <path fill="#262626" d="M76 53h1v1h-1z"/>
  <path fill="#26711c" d="M56 53h1v1h-1z"/>
  <path fill="#26721c" d="M54 52h1v1h-1z"/>
  <path fill="#26a044" d="M18 15h1v1h-1z"/>
  <path fill="#26a143" d="M19 22h1v1h-1z"/>
  <path fill="#26d06d" d="M68 47h1v1h-1zM85 56h1v1h-1z"/>
  <path fill="#27731c" d="M42 52h1v1h-1zM50 58h1v1h-1z"/>
  <path fill="#289e43" d="M56 18h1v1h-1z"/>
  <path fill="#28d16e" d="M24 64h1v1h-1z"/>
  <path fill="#29682e" d="M56 79h1v1h-1z"/>
  <path fill="#2a9c41" d="M52 13h1v1h-1z"/>
  <path fill="#2ad16f" d="M13 59h1v1h-1z"/>
  <path fill="#2adb37" d="M36 39h1v1h-1zM67 64h1v1h-1z"/>
  <path fill="#2b6930" d="M52 75h1v1h-1z"/>
  <path fill="#2b7a1b" d="M53 52h1v1h-1z"/>
  <path fill="#2b9b42" d="M23 72h1v1h-1zM73 72h1v1h-1z"/>
  <path fill="#2bd170" d="M12 51h1v1h-1zM78 64h1v1h-1z"/>
  <path fill="#2bdc35" d="M68 61h1v1h-1z"/>
  <path fill="#2c2c2c" d="M76 52h1v1h-1z"/>
  <path fill="#2c9a41" d="M52 15h1v1h-1zM24 17h1v1h-1z"/>
  <path fill="#2c9b41" d="M72 76h1v1h-1z"/>
  <path fill="#2cdd35" d="M49 37h1v1h-1z"/>
  <path fill="#2d6b31" d="M62 76h1v1h-1z"/>
  <path fill="#2d7d1b" d="M40 50h1v1h-1z"/>
  <path fill="#2d9940" d="M77 75h1v1h-1z"/>
  <path fill="#2d9941" d="M77 74h1v1h-1z"/>
  <path fill="#2e6b32" d="M40 78h1v1h-1z"/>
  <path fill="#2e9840" d="M59 12h1v1h-1zM72 77h1v1h-1z"/>
  <path fill="#2f6c33" d="M34 78h1v1h-1z"/>
  <path fill="#2f811a" d="M32 71h1v1h-1z"/>
  <path fill="#2f9740" d="M23 21h1v1h-1zM17 76h1v1h-1z"/>
  <path fill="#2f9840" d="M21 22h1v1h-1zM24 71h1v1h-1zM74 71h1v1h-1zM22 72h1v1h-1zM72 72h1v1h-1zM71 75h1v1h-1z"/>
  <path fill="#2fde33" d="M44 37h1v1h-1z"/>
  <path fill="#309640" d="M58 11h1v1h-1z"/>
  <path fill="#30973f" d="M17 73h1v1h-1z"/>
  <path fill="#30d273" d="M75 43h1v1h-1z"/>
  <path fill="#318619" d="M38 50h1v1h-1z"/>
  <path fill="#31da30" d="M62 70h1v1h-1z"/>
  <path fill="#31df31" d="M54 38h1v1h-1z"/>
  <path fill="#32943e" d="M17 20h1v1h-1z"/>
  <path fill="#32943f" d="M52 14h1v1h-1zM24 75h2v1h-2z"/>
  <path fill="#32953e" d="M59 16h1v1h-1zM20 22h1v1h-1z"/>
  <path fill="#32df31" d="M48 37h1v1h-1zM27 66h1v1h-1z"/>
  <path fill="#32e031" d="M66 48h1v1h-1z"/>
  <path fill="#338819" d="M41 61h1v1h-1z"/>
  <path fill="#338918" d="M36 52h1v1h-1z"/>
  <path fill="#33923e" d="M78 73h1v1h-1z"/>
  <path fill="#33933e" d="M78 76h1v1h-1z"/>
  <path fill="#33943e" d="M24 19h1v1h-1z"/>
  <path fill="#33d375" d="M76 43h1v1h-1z"/>
  <path fill="#348a18" d="M50 55h1v1h-1zM43 56h1v1h-1z"/>
  <path fill="#34923d" d="M58 17h1v1h-1zM23 76h1v1h-1z"/>
  <path fill="#34923e" d="M24 70h1v1h-1zM74 70h1v1h-1zM70 75h1v1h-1zM26 76h1v1h-1z"/>
  <path fill="#34e02f" d="M45 37h1v1h-1z"/>
  <path fill="#353535" d="M23 50h1v1h-1zM73 50h1v1h-1z"/>
  <path fill="#35551a" d="M25 52h1v1h-1z"/>
  <path fill="#35d377" d="M22 43h1v1h-1z"/>
  <path fill="#368f3c" d="M18 21h1v1h-1zM23 77h1v1h-1z"/>
  <path fill="#36903d" d="M22 15h1v1h-1zM24 18h1v1h-1zM21 71h1v1h-1zM71 71h1v1h-1zM26 77h1v1h-1z"/>
  <path fill="#36913d" d="M71 78h1v1h-1z"/>
  <path fill="#36d477" d="M21 43h1v1h-1zM19 64h1v1h-1z"/>
  <path fill="#36e12e" d="M60 41h1v1h-1z"/>
  <path fill="#378e3c" d="M24 78h2v1h-2z"/>
  <path fill="#378f17" d="M43 55h1v1h-1z"/>
  <path fill="#378f3c" d="M79 73h1v1h-1z"/>
  <path fill="#378f3d" d="M79 76h1v1h-1z"/>
  <path fill="#37e22d" d="M46 37h2v1h-2z"/>
  <path fill="#38723c" d="M50 80h1v1h-1z"/>
  <path fill="#388e3c" d="M54 11h4v1h-4zM53 12h6v1h-6zM53 13h7v3h-7zM19 15h3v1h-3zM18 16h6v1h-6zM53 16h6v1h-6zM54 17h4v1h-4zM17 17h7v3h-7zM18 20h6v1h-6zM19 21h4v1h-4zM22 69h1v1h-1zM72 69h1v1h-1zM21 70h3v1h-3zM71 70h3v1h-3zM22 71h2v1h-2zM72 71h2v1h-2zM16 73h1v1h-1zM15 74h3v2h-3zM78 74h3v2h-3zM70 76h2v1h-2zM24 76h2v2h-2zM69 77h3v1h-3zM70 78h1v1h-1z"/>
  <path fill="#388f3d" d="M23 69h1v1h-1zM73 69h1v1h-1zM16 76h1v1h-1zM69 76h1v1h-1z"/>
  <path fill="#389217" d="M53 74h1v1h-1z"/>
  <path fill="#393939" d="M24 50h1v1h-1zM74 50h1v1h-1z"/>
  <path fill="#39733d" d="M55 78h1v1h-1zM44 79h1v1h-1z"/>
  <path fill="#39d479" d="M83 47h1v1h-1z"/>
  <path fill="#3a9516" d="M51 53h1v1h-1z"/>
  <path fill="#3ad57a" d="M71 63h1v1h-1z"/>
  <path fill="#3ae32b" d="M39 38h1v1h-1zM65 67h1v1h-1z"/>
  <path fill="#3b9616" d="M57 54h1v1h-1z"/>
  <path fill="#3b9716" d="M43 57h1v1h-1z"/>
  <path fill="#3cd57b" d="M70 45h1v1h-1z"/>
  <path fill="#3d9b15" d="M37 61h1v1h-1z"/>
  <path fill="#3de42a" d="M31 70h1v1h-1z"/>
  <path fill="#3e9c15" d="M55 52h1v1h-1z"/>
  <path fill="#3f7743" d="M48 81h1v1h-1z"/>
  <path fill="#3f9e14" d="M42 60h1v1h-1z"/>
  <path fill="#40d67e" d="M12 56h1v1h-1z"/>
  <path fill="#41a014" d="M50 59h1v1h-1z"/>
  <path fill="#41e627" d="M64 45h1v1h-1z"/>
  <path fill="#43a513" d="M43 54h1v1h-1zM35 56h1v1h-1z"/>
  <path fill="#43d680" d="M85 52h1v1h-1z"/>
  <path fill="#43e726" d="M26 64h1v1h-1z"/>
  <path fill="#44a613" d="M56 61h1v1h-1z"/>
  <path fill="#44d781" d="M80 63h1v1h-1z"/>
  <path fill="#457c49" d="M43 76h1v1h-1z"/>
  <path fill="#45a912" d="M35 55h1v1h-1z"/>
  <path fill="#45e824" d="M63 69h1v1h-1z"/>
  <path fill="#477d4b" d="M41 76h1v1h-1zM47 81h1v1h-1z"/>
  <path fill="#47d783" d="M81 45h1v1h-1z"/>
  <path fill="#497e4d" d="M33 76h1v1h-1z"/>
  <path fill="#498b12" d="M25 53h1v1h-1z"/>
  <path fill="#4a4a4a" d="M22 55h1v1h-1zM72 55h1v1h-1z"/>
  <path fill="#4ab111" d="M35 57h1v1h-1z"/>
  <path fill="#4ad885" d="M85 55h1v1h-1z"/>
  <path fill="#4aeb21" d="M64 68h1v1h-1z"/>
  <path fill="#4bb214" d="M52 74h1v1h-1z"/>
  <path fill="#4bd886" d="M69 46h1v1h-1z"/>
  <path fill="#4beb20" d="M33 41h1v1h-1z"/>
  <path fill="#4c8150" d="M43 75h1v1h-1z"/>
  <path fill="#4cb611" d="M52 52h1v1h-1zM39 62h1v1h-1z"/>
  <path fill="#4cd886" d="M14 47h1v1h-1z"/>
  <path fill="#4db710" d="M43 58h1v1h-1zM36 60h1v1h-1z"/>
  <path fill="#4e8252" d="M45 80h1v1h-1z"/>
  <path fill="#4eb810" d="M54 62h1v1h-1z"/>
  <path fill="#4eda85" d="M67 49h1v1h-1z"/>
  <path fill="#505050" d="M21 54h1v1h-1zM71 54h1v1h-1z"/>
  <path fill="#50bd0f" d="M57 60h1v1h-1z"/>
  <path fill="#50e937" d="M28 46h1v1h-1z"/>
  <path fill="#50ed1d" d="M53 38h1v1h-1zM61 42h1v1h-1z"/>
  <path fill="#518454" d="M54 76h1v1h-1z"/>
  <path fill="#51ee1c" d="M56 39h1v1h-1zM28 67h1v1h-1z"/>
  <path fill="#52bf0f" d="M35 54h1v1h-1zM53 62h1v1h-1z"/>
  <path fill="#545454" d="M75 55h1v1h-1z"/>
  <path fill="#54ef1a" d="M30 69h1v1h-1z"/>
  <path fill="#55f019" d="M63 44h1v1h-1z"/>
  <path fill="#56f018" d="M58 40h1v1h-1z"/>
  <path fill="#57f117" d="M40 38h1v1h-1z"/>
  <path fill="#58c90d" d="M50 54h1v1h-1z"/>
  <path fill="#58db8e" d="M17 63h1v1h-1z"/>
  <path fill="#59f216" d="M29 68h1v1h-1z"/>
  <path fill="#5ace0c" d="M43 53h1v1h-1zM58 57h1v1h-1zM40 62h1v1h-1z"/>
  <path fill="#5af216" d="M62 43h1v1h-1z"/>
  <path fill="#5bb80c" d="M25 54h1v1h-1z"/>
  <path fill="#5bcf0c" d="M42 74h1v1h-1z"/>
  <path fill="#5bdc90" d="M82 46h1v1h-1zM12 52h1v1h-1zM85 53h1v1h-1z"/>
  <path fill="#5cd00b" d="M51 61h1v1h-1z"/>
  <path fill="#5cd10b" d="M35 58h1v1h-1z"/>
  <path fill="#5cf315" d="M67 63h1v1h-1z"/>
  <path fill="#5d8d61" d="M62 72h1v1h-1z"/>
  <path fill="#5dd30b" d="M41 50h1v1h-1zM42 51h1v1h-1z"/>
  <path fill="#5df314" d="M37 39h1v1h-1zM29 45h1v1h-1z"/>
  <path fill="#5ed50a" d="M58 56h1v1h-1z"/>
  <path fill="#5fd70a" d="M38 62h1v1h-1z"/>
  <path fill="#5fdc93" d="M25 44h1v1h-1zM16 45h1v1h-1z"/>
  <path fill="#60dd94" d="M84 49h1v1h-1z"/>
  <path fill="#62dd95" d="M85 54h1v1h-1zM12 55h1v1h-1z"/>
  <path fill="#62f610" d="M32 42h1v1h-1zM66 65h1v1h-1z"/>
  <path fill="#646464" d="M76 54h1v1h-1z"/>
  <path fill="#649268" d="M59 79h1v1h-1z"/>
  <path fill="#64e008" d="M58 58h1v1h-1zM55 62h1v1h-1z"/>
  <path fill="#64f70f" d="M35 40h1v1h-1z"/>
  <path fill="#65e108" d="M37 50h1v1h-1z"/>
  <path fill="#66f70e" d="M65 47h1v1h-1z"/>
  <path fill="#67de98" d="M23 64h1v1h-1z"/>
  <path fill="#67e608" d="M36 51h1v1h-1z"/>
  <path fill="#68de99" d="M74 64h1v1h-1z"/>
  <path fill="#68ef42" d="M68 60h1v1h-1z"/>
  <path fill="#69956c" d="M62 75h1v1h-1z"/>
  <path fill="#69e30b" d="M43 74h1v1h-1z"/>
  <path fill="#69e808" d="M35 53h1v1h-1z"/>
  <path fill="#69f90c" d="M30 44h1v1h-1z"/>
  <path fill="#6aea07" d="M50 60h1v1h-1z"/>
  <path fill="#6aeb07" d="M43 59h1v1h-1z"/>
  <path fill="#6af90b" d="M66 49h1v1h-1z"/>
  <path fill="#6af90c" d="M31 43h1v1h-1z"/>
  <path fill="#6bdf9b" d="M77 64h1v1h-1z"/>
  <path fill="#6de09d" d="M83 60h1v1h-1z"/>
  <path fill="#6def06" d="M56 52h1v1h-1zM57 53h1v1h-1z"/>
  <path fill="#6dfb0a" d="M52 38h1v1h-1z"/>
  <path fill="#6ee09d" d="M20 64h1v1h-1z"/>
  <path fill="#6ee614" d="M33 71h1v1h-1z"/>
  <path fill="#6ef106" d="M52 62h1v1h-1z"/>
  <path fill="#6f6f6f" d="M21 51h1v1h-1zM71 51h1v1h-1z"/>
  <path fill="#6ffc08" d="M27 65h1v1h-1z"/>
  <path fill="#70e111" d="M25 55h1v1h-1z"/>
  <path fill="#70f405" d="M58 55h1v1h-1z"/>
  <path fill="#729b75" d="M36 79h1v1h-1zM38 79h1v1h-1z"/>
  <path fill="#72e1a0" d="M12 53h1v1h-1z"/>
  <path fill="#72f904" d="M42 61h1v1h-1z"/>
  <path fill="#72fd06" d="M41 38h1v1h-1zM59 41h1v1h-1z"/>
  <path fill="#73e1a1" d="M72 44h1v1h-1z"/>
  <path fill="#73fd0a" d="M26 63h1v1h-1z"/>
  <path fill="#74fb04" d="M35 59h1v1h-1z"/>
  <path fill="#74fc03" d="M51 52h1v1h-1z"/>
  <path fill="#74fd08" d="M61 70h1v1h-1z"/>
  <path fill="#74fe05" d="M55 39h1v1h-1z"/>
  <path fill="#75fc04" d="M43 52h1v1h-1z"/>
  <path fill="#75fd03" d="M58 59h1v1h-1z"/>
  <path fill="#75fe03" d="M36 61h1v1h-1zM41 62h1v1h-1z"/>
  <path fill="#75fe04" d="M65 66h1v1h-1zM32 70h1v1h-1z"/>
  <path fill="#76fe03" d="M57 61h1v1h-1z"/>
  <path fill="#76ff03" d="M42 38h10v1h-10zM38 39h17v1h-17zM36 40h22v1h-22zM34 41h25v1h-25zM33 42h28v1h-28zM32 43h30v1h-30zM31 44h32v1h-32zM30 45h34v1h-34zM29 46h36v2h-36zM28 48h38v2h-38zM27 50h10v1h-10zM42 50h25v1h-25zM27 51h9v1h-9zM43 51h24v1h-24zM26 52h10v1h-10zM57 52h10v1h-10zM44 52h7v2h-7zM58 53h10v2h-10zM26 53h9v7h-9zM44 54h6v6h-6zM59 55h9v5h-9zM43 60h7v1h-7zM26 60h10v2h-10zM58 60h10v2h-10zM43 61h8v1h-8zM26 62h12v1h-12zM42 62h10v1h-10zM56 62h12v1h-12zM27 63h40v2h-40zM28 65h38v1h-38zM28 66h37v1h-37zM29 67h36v1h-36zM30 68h34v1h-34zM31 69h32v1h-32zM33 70h28v1h-28zM34 71h26v1h-26zM36 72h21v1h-21zM39 73h15v1h-15zM46 74h1v1h-1z"/>
  <path fill="#77e2a3" d="M15 46h1v1h-1z"/>
  <path fill="#77f40e" d="M26 51h1v1h-1z"/>
  <path fill="#77ff04" d="M27 49h1v1h-1zM57 72h1v1h-1zM54 73h1v1h-1z"/>
  <path fill="#78e2a4" d="M12 54h1v1h-1z"/>
  <path fill="#78ff06" d="M47 74h1v1h-1z"/>
  <path fill="#78ff07" d="M28 47h1v1h-1z"/>
  <path fill="#79ff08" d="M25 58h1v1h-1z"/>
  <path fill="#79ff09" d="M25 57h1v1h-1z"/>
  <path fill="#7ce3a7" d="M79 44h1v1h-1z"/>
  <path fill="#7cff0f" d="M67 52h1v1h-1z"/>
  <path fill="#7da380" d="M57 79h1v1h-1z"/>
  <path fill="#7dfe11" d="M45 74h1v1h-1z"/>
  <path fill="#7e7e7e" d="M22 50h1v1h-1zM72 50h1v1h-1z"/>
  <path fill="#7efe13" d="M48 74h1v1h-1z"/>
  <path fill="#7fe3a9" d="M13 49h1v1h-1z"/>
  <path fill="#7ffd17" d="M44 74h1v1h-1z"/>
  <path fill="#80ff15" d="M25 56h1v1h-1z"/>
  <path fill="#80ff16" d="M25 59h1v1h-1z"/>
  <path fill="#82a785" d="M62 73h1v1h-1z"/>
  <path fill="#838383" d="M76 51h1v1h-1z"/>
  <path fill="#84e4ac" d="M70 62h1v1h-1zM75 64h1v1h-1z"/>
  <path fill="#85ff1e" d="M49 74h1v1h-1z"/>
  <path fill="#86aa89" d="M62 74h1v1h-1zM51 78h1v1h-1z"/>
  <path fill="#87e5ae" d="M22 64h1v1h-1zM76 64h1v1h-1z"/>
  <path fill="#88e5af" d="M84 58h1v1h-1z"/>
  <path fill="#88ff25" d="M38 73h1v1h-1z"/>
  <path fill="#898989" d="M25 50h1v1h-1zM75 50h1v1h-1z"/>
  <path fill="#8aac8c" d="M41 75h1v1h-1z"/>
  <path fill="#8ae6b0" d="M18 44h1v1h-1zM21 64h1v1h-1z"/>
  <path fill="#8bad8d" d="M33 75h1v1h-1z"/>
  <path fill="#8de351" d="M41 74h1v1h-1z"/>
  <path fill="#8ee7b3" d="M14 60h1v1h-1z"/>
  <path fill="#8eff2e" d="M55 73h1v1h-1z"/>
  <path fill="#90b192" d="M33 72h1v1h-1z"/>
  <path fill="#91ff35" d="M25 60h1v1h-1z"/>
  <path fill="#92e7b5" d="M69 61h1v1h-1z"/>
  <path fill="#92ff37" d="M35 72h1v1h-1z"/>
  <path fill="#93e8b6" d="M81 62h1v1h-1z"/>
  <path fill="#94ff39" d="M50 74h1v1h-1z"/>
  <path fill="#95b498" d="M54 75h1v1h-1z"/>
  <path fill="#97b69a" d="M58 79h1v1h-1z"/>
  <path fill="#98b69a" d="M37 79h1v1h-1z"/>
  <path fill="#9bff47" d="M68 58h1v1h-1z"/>
  <path fill="#9cb99e" d="M61 77h1v1h-1z"/>
  <path fill="#9cfe52" d="M68 59h1v1h-1z"/>
  <path fill="#9cff48" d="M58 72h1v1h-1z"/>
  <path fill="#9cff49" d="M68 57h1v1h-1z"/>
  <path fill="#9dff4a" d="M60 71h1v1h-1z"/>
  <path fill="#9ff48b" d="M67 50h1v1h-1z"/>
  <path fill="#9ffe53" d="M67 51h1v1h-1z"/>
  <path fill="#a0fd52" d="M51 74h1v1h-1z"/>
  <path fill="#a0ff51" d="M27 48h1v1h-1z"/>
  <path fill="#a3ff55" d="M68 56h1v1h-1z"/>
  <path fill="#a5ecc2" d="M13 58h1v1h-1zM82 61h1v1h-1z"/>
  <path fill="#aac3ac" d="M33 73h1v2h-1z"/>
  <path fill="#abff65" d="M25 61h1v1h-1z"/>
  <path fill="#adfc6b" d="M26 50h1v1h-1z"/>
  <path fill="#aec6af" d="M44 78h1v1h-1z"/>
  <path fill="#b0eeca" d="M16 62h1v1h-1z"/>
  <path fill="#b2ff72" d="M68 55h1v1h-1z"/>
  <path fill="#b3ff73" d="M37 73h1v1h-1z"/>
  <path fill="#bad6b0" d="M54 74h1v1h-1z"/>
  <path fill="#baff81" d="M56 73h1v1h-1z"/>
  <path fill="#bcd0bd" d="M40 77h1v1h-1z"/>
  <path fill="#bed1bf" d="M34 77h1v1h-1zM60 78h1v1h-1z"/>
  <path fill="#c1f2d5" d="M15 61h1v1h-1z"/>
  <path fill="#c2f4cd" d="M25 63h1v1h-1z"/>
  <path fill="#c5ff94" d="M68 54h1v1h-1z"/>
  <path fill="#c6f3d9" d="M72 63h1v1h-1z"/>
  <path fill="#c8f3da" d="M26 45h1v1h-1zM84 50h1v1h-1z"/>
  <path fill="#c9f3db" d="M24 44h1v1h-1z"/>
  <path fill="#cadacb" d="M55 77h1v1h-1z"/>
  <path fill="#ccf4dd" d="M68 48h1v1h-1z"/>
  <path fill="#cedccf" d="M49 80h1v1h-1z"/>
  <path fill="#cff5df" d="M79 63h1v1h-1z"/>
  <path fill="#cfffa6" d="M40 74h1v1h-1z"/>
  <path fill="#d1f5e0" d="M73 44h1v1h-1z"/>
  <path fill="#d1ffaa" d="M25 62h1v1h-1z"/>
  <path fill="#d1ffab" d="M34 72h1v1h-1z"/>
  <path fill="#d5e1d6" d="M39 78h1v1h-1z"/>
  <path fill="#d6e2d7" d="M51 77h1v1h-1z"/>
  <path fill="#d7e3d8" d="M35 78h1v1h-1z"/>
  <path fill="#d7f6e4" d="M78 44h1v1h-1z"/>
  <path fill="#d9f2c8" d="M61 71h1v1h-1z"/>
  <path fill="#dbf7e7" d="M83 48h1v1h-1z"/>
  <path fill="#dbffbd" d="M59 72h1v1h-1z"/>
  <path fill="#dcdcdc" d="M23 56h1v1h-1zM73 56h1v1h-1z"/>
  <path fill="#dcf7e7" d="M18 63h1v1h-1z"/>
  <path fill="#ddf8e8" d="M71 45h1v1h-1z"/>
  <path fill="#dee8df" d="M50 79h1v1h-1z"/>
  <path fill="#dff8e9" d="M84 57h1v1h-1z"/>
  <path fill="#e0e0e0" d="M21 55h1v1h-1zM71 55h1v1h-1zM24 56h1v1h-1zM74 56h1v1h-1z"/>
  <path fill="#e1eae1" d="M46 80h1v1h-1z"/>
  <path fill="#e1f9eb" d="M19 44h1v1h-1z"/>
  <path fill="#e1ffc9" d="M68 53h1v1h-1z"/>
  <path fill="#e3f9ec" d="M13 50h1v1h-1z"/>
  <path fill="#e4ece5" d="M56 78h1v1h-1z"/>
  <path fill="#e4f9ed" d="M80 45h1v1h-1z"/>
  <path fill="#e4ffcd" d="M36 73h1v1h-1z"/>
  <path fill="#e6faee" d="M27 46h1v1h-1z"/>
  <path fill="#e8e8e8" d="M76 55h1v1h-1z"/>
  <path fill="#e9ffd6" d="M27 47h1v1h-1zM26 49h1v1h-1z"/>
  <path fill="#eaffd8" d="M57 73h1v1h-1z"/>
  <path fill="#ebebeb" d="M20 53h1v1h-1zM70 53h1v1h-1z"/>
  <path fill="#edffde" d="M39 74h1v1h-1z"/>
  <path fill="#eefbf4" d="M14 48h1v1h-1z"/>
  <path fill="#effcf4" d="M17 45h1v1h-1z"/>
  <path fill="#f2f6f2" d="M45 79h1v1h-1z"/>
  <path fill="#f2fcf6" d="M69 47h1v1h-1z"/>
  <path fill="#f3fcf7" d="M13 57h1v1h-1z"/>
  <path fill="#f4f4f4" d="M20 52h1v1h-1zM70 52h1v1h-1z"/>
  <path fill="#f5f5f5" d="M21 50h1v1h-1zM71 50h1v1h-1z"/>
  <path fill="#f5fdf8" d="M83 59h1v1h-1z"/>
  <path fill="#f6fdf9" d="M70 46h1v1h-1z"/>
  <path fill="#f7f9f7" d="M44 77h1v1h-1z"/>
  <path fill="#f9f9f9" d="M76 50h1v1h-1z"/>
  <path fill="#f9fbf9" d="M61 76h1v1h-1z"/>
  <path fill="#fafafa" d="M77 53h1v1h-1z"/>
  <path fill="#fafefc" d="M81 46h1v1h-1zM82 47h1v1h-1z"/>
  <path fill="#fcfff9" d="M68 52h1v1h-1z"/>
  <path fill="#fdfdfd" d="M77 52h1v1h-1zM22 56h1v1h-1zM72 56h1v1h-1z"/>
  <path fill="#fdfefd" d="M51 76h1v1h-1z"/>
  <path fill="#fdfffe" d="M84 51h1v1h-1zM14 59h1v1h-1z"/>
  <path fill="#fefffe" d="M23 44h1v1h-1zM16 46h1v1h-1zM15 47h1v1h-1zM71 62h1v1h-1z"/>
  <path fill="#ffffff" d="M20 44h3v1h-3zM74 44h4v1h-4zM18 45h8v1h-8zM72 45h8v1h-8zM17 46h10v1h-10zM71 46h10v1h-10zM16 47h11v1h-11zM70 47h12v1h-12zM15 48h12v1h-12zM69 48h14v1h-14zM14 49h12v1h-12zM68 49h16v1h-16zM14 50h7v1h-7zM68 50h3v2h-3zM77 50h7v2h-7zM13 51h8v1h-8zM13 52h7v2h-7zM69 52h1v2h-1zM78 52h7v2h-7zM13 54h8v2h-8zM69 54h2v2h-2zM77 54h8v2h-8zM13 56h9v1h-9zM69 56h3v1h-3zM75 56h10v1h-10zM14 57h11v2h-11zM69 57h15v2h-15zM15 59h10v2h-10zM69 59h14v2h-14zM16 61h9v1h-9zM70 61h12v1h-12zM17 62h8v1h-8zM72 62h9v1h-9zM19 63h6v1h-6zM73 63h6v1h-6zM60 72h2v1h-2zM34 73h2v1h-2zM58 73h4v1h-4zM34 74h5v1h-5zM55 74h7v2h-7zM44 75h8v1h-8zM34 75h7v2h-7zM44 76h7v1h-7zM55 76h6v1h-6zM35 77h5v1h-5zM56 77h5v1h-5zM45 77h6v2h-6zM36 78h3v1h-3zM57 78h3v1h-3zM46 79h4v1h-4zM47 80h2v1h-2z"/>
</svg>