<?xml version="1.0" encoding="UTF-8"?>
<svg xmlns="http://www.w3.org/2000/svg" width="100" height="100" viewBox="0 0 100 100" role="img" aria-labelledby="title" shape-rendering="crispEdges">
  <title id="title">icons8 clubs 100</title>
  <desc>Pixel-perfect vector conversion from the supplied PNG, preserving transparency.</desc>
  <path fill="#000000" fill-opacity="0.0039" d="M38 41h1v1h-1zM61 41h1v1h-1zM46 62h1v1h-1zM53 62h1v1h-1zM35 86h1v1h-1z"/>
  <path fill="#7f7f7f" fill-opacity="0.0078" d="M41 14h1v1h-1zM14 43h1v1h-1zM85 43h1v1h-1zM22 66h1v1h-1zM77 66h1v1h-1z"/>
  <path fill="#555555" fill-opacity="0.0118" d="M58 14h1v1h-1zM62 18h1v1h-1zM35 30h1v1h-1zM64 30h1v1h-1zM81 39h1v1h-1zM30 66h1v1h-1zM56 73h1v1h-1z"/>
  <path fill="#3f3f7f" fill-opacity="0.0157" d="M37 18h1v1h-1zM18 39h1v1h-1zM41 43h1v1h-1zM58 43h1v1h-1zM69 66h1v1h-1zM43 73h1v1h-1zM60 81h1v1h-1zM36 85h1v1h-1zM63 85h1v1h-1z"/>
  <path fill="#336666" fill-opacity="0.0196" d="M63 40h1v1h-1zM39 81h1v1h-1z"/>
  <path fill="#555555" fill-opacity="0.0235" d="M13 45h1v1h-1z"/>
  <path fill="#48486d" fill-opacity="0.0275" d="M86 45h1v1h-1zM14 60h1v1h-1zM85 60h1v1h-1zM54 67h1v1h-1z"/>
  <path fill="#3f5f5f" fill-opacity="0.0314" d="M43 13h1v1h-1zM56 13h1v1h-1zM36 40h1v1h-1z"/>
  <path fill="#385571" fill-opacity="0.0353" d="M55 58h1v1h-1zM45 67h1v1h-1z"/>
  <path fill="#4c6666" fill-opacity="0.0392" d="M38 62h1v1h-1z"/>
  <path fill="#455c5c" fill-opacity="0.0431" d="M36 20h1v1h-1zM63 20h1v1h-1zM20 38h1v1h-1zM32 38h1v1h-1zM79 38h1v1h-1zM44 58h1v1h-1zM61 62h1v1h-1z"/>
  <path fill="#3f556a" fill-opacity="0.0471" d="M67 38h1v1h-1zM43 44h1v1h-1zM12 48h1v1h-1z"/>
  <path fill="#4e6262" fill-opacity="0.051" d="M40 15h1v1h-1zM87 48h1v1h-1zM13 58h1v1h-1z"/>
  <path fill="#485b5b" fill-opacity="0.0549" d="M53 12h1v1h-1zM84 42h1v1h-1zM56 44h1v1h-1zM86 58h1v1h-1zM81 64h1v1h-1z"/>
  <path fill="#445566" fill-opacity="0.0588" d="M46 12h1v1h-1zM60 38h1v1h-1zM15 42h1v1h-1zM18 64h1v1h-1zM37 84h1v1h-1z"/>
  <path fill="#3f5f5f" fill-opacity="0.0627" d="M59 15h1v1h-1zM82 40h1v1h-1z"/>
  <path fill="#4b5a69" fill-opacity="0.0667" d="M38 17h1v1h-1zM61 17h1v1h-1zM29 37h1v1h-1zM39 38h1v1h-1zM17 40h1v1h-1zM41 60h1v1h-1zM58 60h1v1h-1zM62 84h1v1h-1z"/>
  <path fill="#465563" fill-opacity="0.0706" d="M70 37h1v1h-1z"/>
  <path fill="#435d5d" fill-opacity="0.0745" d="M34 39h1v1h-1zM65 39h1v1h-1zM12 55h1v1h-1zM87 55h1v1h-1z"/>
  <path fill="#3f5966" fill-opacity="0.0784" d="M76 37h1v1h-1z"/>
  <path fill="#485561" fill-opacity="0.0824" d="M23 37h1v1h-1zM41 41h1v1h-1z"/>
  <path fill="#425863" fill-opacity="0.0902" d="M35 23h1v1h-1zM58 41h1v1h-1z"/>
  <path fill="#3f555f" fill-opacity="0.0941" d="M64 23h1v1h-1z"/>
  <path fill="#475b66" fill-opacity="0.098" d="M36 63h1v1h-1z"/>
  <path fill="#445862" fill-opacity="0.102" d="M15 61h1v1h-1zM63 63h1v1h-1z"/>
  <path fill="#485b64" fill-opacity="0.1098" d="M84 61h1v1h-1zM53 63h1v1h-1z"/>
  <path fill="#445d66" fill-opacity="0.1176" d="M46 63h1v1h-1z"/>
  <path fill="#475767" fill-opacity="0.1255" d="M79 65h1v1h-1z"/>
  <path fill="#455c64" fill-opacity="0.1294" d="M83 41h1v1h-1zM20 65h1v1h-1z"/>
  <path fill="#435a61" fill-opacity="0.1333" d="M60 16h1v1h-1zM38 36h1v1h-1zM16 41h1v1h-1z"/>
  <path fill="#415766" fill-opacity="0.1373" d="M39 16h1v1h-1zM17 63h1v1h-1z"/>
  <path fill="#465c63" fill-opacity="0.1412" d="M61 36h1v1h-1zM32 65h1v1h-1z"/>
  <path fill="#445967" fill-opacity="0.1451" d="M39 42h1v1h-1zM67 65h1v1h-1z"/>
  <path fill="#435764" fill-opacity="0.149" d="M60 42h1v1h-1z"/>
  <path fill="#475b62" fill-opacity="0.1529" d="M82 63h1v1h-1z"/>
  <path fill="#445763" fill-opacity="0.1608" d="M58 78h1v1h-1z"/>
  <path fill="#475864" fill-opacity="0.1686" d="M63 32h1v1h-1zM41 78h1v1h-1z"/>
  <path fill="#445a66" fill-opacity="0.1765" d="M42 44h1v1h-1zM42 76h1v1h-1z"/>
  <path fill="#425863" fill-opacity="0.1804" d="M36 32h1v1h-1zM57 44h1v1h-1zM34 64h1v1h-1zM65 64h1v1h-1zM55 71h1v1h-1zM35 87h1v1h-1zM64 87h1v1h-1z"/>
  <path fill="#465c61" fill-opacity="0.1843" d="M57 76h1v1h-1z"/>
  <path fill="#435862" fill-opacity="0.1922" d="M52 56h1v1h-1zM45 57h1v1h-1z"/>
  <path fill="#475b66" fill-opacity="0.1961" d="M44 71h1v1h-1z"/>
  <path fill="#465a64" fill-opacity="0.2" d="M64 29h1v1h-1zM54 57h1v1h-1z"/>
  <path fill="#425963" fill-opacity="0.2118" d="M47 56h1v1h-1z"/>
  <path fill="#465963" fill-opacity="0.2118" d="M35 29h1v1h-1zM44 45h1v1h-1z"/>
  <path fill="#455866" fill-opacity="0.2157" d="M83 62h1v1h-1z"/>
  <path fill="#445664" fill-opacity="0.2196" d="M55 45h1v1h-1z"/>
  <path fill="#445b64" fill-opacity="0.2196" d="M16 62h1v1h-1zM29 66h1v1h-1zM70 66h1v1h-1z"/>
  <path fill="#435962" fill-opacity="0.2235" d="M76 66h1v1h-1z"/>
  <path fill="#465765" fill-opacity="0.2275" d="M23 66h1v1h-1z"/>
  <path fill="#455a63" fill-opacity="0.2314" d="M62 34h1v1h-1z"/>
  <path fill="#445966" fill-opacity="0.2353" d="M38 83h1v1h-1z"/>
  <path fill="#475b64" fill-opacity="0.2392" d="M37 34h1v1h-1zM87 49h1v1h-1zM40 80h1v1h-1z"/>
  <path fill="#455a62" fill-opacity="0.2431" d="M52 12h1v1h-1zM60 61h1v1h-1z"/>
  <path fill="#445965" fill-opacity="0.2471" d="M47 12h1v1h-1zM12 49h1v1h-1zM61 83h1v1h-1z"/>
  <path fill="#435b63" fill-opacity="0.251" d="M59 80h1v1h-1z"/>
  <path fill="#455864" fill-opacity="0.2588" d="M87 54h1v1h-1z"/>
  <path fill="#445b62" fill-opacity="0.2627" d="M24 37h1v1h-1zM75 37h1v1h-1z"/>
  <path fill="#435a65" fill-opacity="0.2667" d="M12 54h1v1h-1z"/>
  <path fill="#465863" fill-opacity="0.2706" d="M39 61h1v1h-1z"/>
  <path fill="#455b62" fill-opacity="0.2745" d="M54 68h1v1h-1z"/>
  <path fill="#435863" fill-opacity="0.2824" d="M52 57h1v1h-1z"/>
  <path fill="#445963" fill-opacity="0.2902" d="M56 74h1v1h-1z"/>
  <path fill="#465a64" fill-opacity="0.298" d="M47 57h1v1h-1zM45 68h1v1h-1z"/>
  <path fill="#455963" fill-opacity="0.302" d="M28 37h1v1h-1z"/>
  <path fill="#445b65" fill-opacity="0.3059" d="M71 37h1v1h-1z"/>
  <path fill="#435a64" fill-opacity="0.3098" d="M42 59h1v1h-1zM43 74h1v1h-1z"/>
  <path fill="#465962" fill-opacity="0.3137" d="M57 59h1v1h-1z"/>
  <path fill="#455b64" fill-opacity="0.3176" d="M53 64h1v1h-1z"/>
  <path fill="#445a63" fill-opacity="0.3216" d="M35 24h1v1h-1z"/>
  <path fill="#435965" fill-opacity="0.3255" d="M59 39h1v1h-1z"/>
  <path fill="#455b64" fill-opacity="0.3294" d="M46 64h1v1h-1z"/>
  <path fill="#455a63" fill-opacity="0.3333" d="M42 14h1v1h-1z"/>
  <path fill="#445864" fill-opacity="0.3373" d="M64 24h1v1h-1zM40 39h1v1h-1zM37 41h1v1h-1z"/>
  <path fill="#465a63" fill-opacity="0.3412" d="M62 41h1v1h-1zM87 50h1v1h-1z"/>
  <path fill="#445864" fill-opacity="0.349" d="M57 42h1v1h-1zM12 50h1v1h-1z"/>
  <path fill="#445a63" fill-opacity="0.3529" d="M42 42h1v1h-1z"/>
  <path fill="#465964" fill-opacity="0.3569" d="M48 12h1v1h-1zM51 12h1v1h-1zM85 44h1v1h-1zM87 53h1v1h-1z"/>
  <path fill="#455863" fill-opacity="0.3608" d="M12 53h1v1h-1z"/>
  <path fill="#445a62" fill-opacity="0.3647" d="M25 37h1v1h-1zM74 37h1v1h-1zM14 44h1v1h-1z"/>
  <path fill="#455b63" fill-opacity="0.3725" d="M52 58h1v1h-1z"/>
  <path fill="#465b62" fill-opacity="0.3843" d="M31 38h1v1h-1zM86 46h1v1h-1z"/>
  <path fill="#455a64" fill-opacity="0.3882" d="M68 38h1v1h-1z"/>
  <path fill="#445963" fill-opacity="0.3922" d="M80 39h1v1h-1zM13 46h1v1h-1zM47 58h1v1h-1z"/>
  <path fill="#445a64" fill-opacity="0.3961" d="M55 13h1v1h-1zM19 39h1v1h-1z"/>
  <path fill="#465a64" fill-opacity="0.4" d="M57 14h1v1h-1zM62 19h1v1h-1z"/>
  <path fill="#455963" fill-opacity="0.4039" d="M44 13h1v1h-1z"/>
  <path fill="#455965" fill-opacity="0.4157" d="M37 19h1v1h-1z"/>
  <path fill="#445963" fill-opacity="0.4235" d="M35 25h1v1h-1z"/>
  <path fill="#435864" fill-opacity="0.4275" d="M64 28h1v1h-1zM78 38h1v1h-1z"/>
  <path fill="#455a63" fill-opacity="0.4314" d="M35 28h1v1h-1zM27 37h1v1h-1zM72 37h1v1h-1zM21 38h1v1h-1z"/>
  <path fill="#445965" fill-opacity="0.4353" d="M64 40h1v1h-1zM56 45h1v1h-1zM85 59h1v1h-1z"/>
  <path fill="#445b64" fill-opacity="0.4392" d="M46 56h1v1h-1zM86 57h1v1h-1z"/>
  <path fill="#455a63" fill-opacity="0.4431" d="M49 12h2v1h-2zM63 21h1v1h-1zM87 51h1v1h-1z"/>
  <path fill="#455964" fill-opacity="0.4471" d="M12 51h1v1h-1zM53 56h1v1h-1zM13 57h1v1h-1zM14 59h1v1h-1z"/>
  <path fill="#445a63" fill-opacity="0.451" d="M36 21h1v1h-1z"/>
  <path fill="#445a62" fill-opacity="0.4549" d="M26 37h1v1h-1zM73 37h1v1h-1zM75 66h1v1h-1z"/>
  <path fill="#455964" fill-opacity="0.4588" d="M40 43h1v1h-1zM12 52h1v1h-1zM87 52h1v1h-1zM24 66h1v1h-1z"/>
  <path fill="#445a64" fill-opacity="0.4667" d="M35 40h1v1h-1zM59 43h1v1h-1zM28 66h1v1h-1z"/>
  <path fill="#445963" fill-opacity="0.4706" d="M71 66h1v1h-1z"/>
  <path fill="#445964" fill-opacity="0.4784" d="M52 59h1v1h-1z"/>
  <path fill="#445963" fill-opacity="0.4824" d="M64 25h1v1h-1z"/>
  <path fill="#455963" fill-opacity="0.4902" d="M47 59h1v1h-1zM37 62h1v1h-1z"/>
  <path fill="#445a64" fill-opacity="0.498" d="M54 46h1v1h-1zM62 62h1v1h-1z"/>
  <path fill="#455963" fill-opacity="0.502" d="M43 45h1v1h-1zM60 82h1v1h-1z"/>
  <path fill="#445a64" fill-opacity="0.5098" d="M33 39h1v1h-1zM45 46h1v1h-1z"/>
  <path fill="#445963" fill-opacity="0.5137" d="M66 39h1v1h-1zM39 82h1v1h-1z"/>
  <path fill="#445964" fill-opacity="0.5255" d="M35 26h1v1h-1z"/>
  <path fill="#455a63" fill-opacity="0.5333" d="M36 87h28v1h-28z"/>
  <path fill="#445964" fill-opacity="0.5373" d="M64 27h1v1h-1zM60 37h1v1h-1z"/>
  <path fill="#445a63" fill-opacity="0.5412" d="M35 27h1v1h-1zM80 64h1v1h-1zM31 65h1v1h-1zM53 65h1v1h-1zM55 72h1v1h-1z"/>
  <path fill="#455964" fill-opacity="0.549" d="M64 26h1v1h-1zM19 64h1v1h-1zM68 65h1v1h-1z"/>
  <path fill="#445a63" fill-opacity="0.5529" d="M39 37h1v1h-1z"/>
  <path fill="#445964" fill-opacity="0.5569" d="M46 65h1v1h-1z"/>
  <path fill="#455963" fill-opacity="0.5608" d="M63 31h1v1h-1z"/>
  <path fill="#455a63" fill-opacity="0.5647" d="M44 72h1v1h-1z"/>
  <path fill="#445964" fill-opacity="0.5686" d="M56 58h1v1h-1zM54 69h1v1h-1z"/>
  <path fill="#455a63" fill-opacity="0.5725" d="M36 31h1v1h-1z"/>
  <path fill="#445a63" fill-opacity="0.5843" d="M78 65h1v1h-1zM25 66h1v1h-1zM74 66h1v1h-1z"/>
  <path fill="#455a64" fill-opacity="0.5882" d="M21 65h1v1h-1z"/>
  <path fill="#455963" fill-opacity="0.5922" d="M45 69h1v1h-1z"/>
  <path fill="#445a64" fill-opacity="0.5961" d="M27 66h1v1h-1zM72 66h1v1h-1z"/>
  <path fill="#445a64" fill-opacity="0.6" d="M64 63h1v1h-1z"/>
  <path fill="#455963" fill-opacity="0.6039" d="M63 86h1v1h-1z"/>
  <path fill="#445963" fill-opacity="0.6118" d="M36 86h1v1h-1z"/>
  <path fill="#445964" fill-opacity="0.6157" d="M40 60h1v1h-1z"/>
  <path fill="#445963" fill-opacity="0.6235" d="M59 60h1v1h-1z"/>
  <path fill="#445964" fill-opacity="0.6275" d="M52 60h1v1h-1z"/>
  <path fill="#455a63" fill-opacity="0.6314" d="M56 43h1v1h-1zM57 77h1v1h-1z"/>
  <path fill="#455964" fill-opacity="0.6353" d="M43 58h1v1h-1zM35 63h1v1h-1z"/>
  <path fill="#445a64" fill-opacity="0.6392" d="M43 43h1v1h-1zM42 77h1v1h-1z"/>
  <path fill="#455964" fill-opacity="0.6471" d="M47 60h1v1h-1z"/>
  <path fill="#445a63" fill-opacity="0.6549" d="M26 66h1v1h-1zM73 66h1v1h-1z"/>
  <path fill="#455a63" fill-opacity="0.6627" d="M58 40h1v1h-1z"/>
  <path fill="#455a64" fill-opacity="0.6667" d="M61 35h1v1h-1zM58 79h1v1h-1z"/>
  <path fill="#445963" fill-opacity="0.6706" d="M33 64h1v1h-1zM66 64h1v1h-1z"/>
  <path fill="#455a63" fill-opacity="0.6745" d="M41 40h1v1h-1z"/>
  <path fill="#455964" fill-opacity="0.6784" d="M38 35h1v1h-1z"/>
  <path fill="#445963" fill-opacity="0.6824" d="M41 79h1v1h-1z"/>
  <path fill="#445a64" fill-opacity="0.698" d="M84 43h1v1h-1zM52 55h1v1h-1z"/>
  <path fill="#445963" fill-opacity="0.702" d="M41 15h1v1h-1z"/>
  <path fill="#455a64" fill-opacity="0.7059" d="M62 33h1v1h-1zM15 43h1v1h-1zM86 47h1v1h-1zM62 85h1v1h-1z"/>
  <path fill="#445963" fill-opacity="0.7137" d="M13 47h1v1h-1zM37 85h1v1h-1z"/>
  <path fill="#455a63" fill-opacity="0.7216" d="M54 13h1v1h-1zM58 15h1v1h-1zM37 33h1v1h-1z"/>
  <path fill="#445964" fill-opacity="0.7255" d="M45 13h1v1h-1zM61 18h1v1h-1zM44 46h1v1h-1zM56 75h1v1h-1z"/>
  <path fill="#445a64" fill-opacity="0.7294" d="M55 46h1v1h-1z"/>
  <path fill="#455962" fill-opacity="0.7294" d="M47 55h1v1h-1z"/>
  <path fill="#455a63" fill-opacity="0.7333" d="M38 18h1v1h-1zM81 40h1v1h-1z"/>
  <path fill="#455964" fill-opacity="0.7373" d="M18 40h1v1h-1z"/>
  <path fill="#445964" fill-opacity="0.7451" d="M43 75h1v1h-1z"/>
  <path fill="#455964" fill-opacity="0.749" d="M77 38h1v1h-1z"/>
  <path fill="#455a63" fill-opacity="0.7529" d="M22 38h1v1h-1zM38 42h1v1h-1zM86 56h1v1h-1z"/>
  <path fill="#445963" fill-opacity="0.7608" d="M30 38h1v1h-1zM61 42h1v1h-1zM13 56h1v1h-1z"/>
  <path fill="#455a63" fill-opacity="0.7647" d="M69 38h1v1h-1z"/>
  <path fill="#435862" fill-opacity="0.7686" d="M46 47h1v1h-1z"/>
  <path fill="#445964" fill-opacity="0.7686" d="M53 66h1v1h-1z"/>
  <path fill="#445a63" fill-opacity="0.7725" d="M63 22h1v1h-1z"/>
  <path fill="#455963" fill-opacity="0.7804" d="M53 47h1v1h-1z"/>
  <path fill="#445a63" fill-opacity="0.7843" d="M36 22h1v1h-1z"/>
  <path fill="#445a64" fill-opacity="0.7882" d="M52 61h1v1h-1zM46 66h1v1h-1z"/>
  <path fill="#455963" fill-opacity="0.7922" d="M84 60h1v1h-1z"/>
  <path fill="#455a64" fill-opacity="0.7961" d="M41 44h1v1h-1z"/>
  <path fill="#445a64" fill-opacity="0.8" d="M58 44h1v1h-1zM15 60h1v1h-1z"/>
  <path fill="#445963" fill-opacity="0.8039" d="M47 61h1v1h-1z"/>
  <path fill="#455a64" fill-opacity="0.8196" d="M59 81h1v1h-1z"/>
  <path fill="#445a63" fill-opacity="0.8314" d="M40 81h1v1h-1z"/>
  <path fill="#455a64" fill-opacity="0.8392" d="M83 42h1v1h-1zM18 63h1v1h-1z"/>
  <path fill="#445a63" fill-opacity="0.8431" d="M59 16h1v1h-1zM82 41h1v1h-1zM16 42h1v1h-1zM44 57h1v1h-1z"/>
  <path fill="#445964" fill-opacity="0.8471" d="M40 16h1v1h-1zM17 41h1v1h-1zM55 57h1v1h-1z"/>
  <path fill="#455a63" fill-opacity="0.851" d="M39 17h1v1h-1zM60 17h1v1h-1zM44 44h1v1h-1z"/>
  <path fill="#455a63" fill-opacity="0.8549" d="M61 61h1v1h-1zM81 63h1v1h-1z"/>
  <path fill="#455a63" fill-opacity="0.8627" d="M55 44h1v1h-1z"/>
  <path fill="#455a64" fill-opacity="0.8667" d="M36 41h1v1h-1zM14 45h1v1h-1z"/>
  <path fill="#445963" fill-opacity="0.8706" d="M43 14h1v1h-1zM63 41h1v1h-1zM54 70h1v1h-1z"/>
  <path fill="#445a63" fill-opacity="0.8745" d="M85 45h1v1h-1zM38 61h1v1h-1zM38 84h1v1h-1z"/>
  <path fill="#455964" fill-opacity="0.8784" d="M45 70h1v1h-1z"/>
  <path fill="#445a64" fill-opacity="0.8863" d="M61 84h1v1h-1z"/>
  <path fill="#445963" fill-opacity="0.8902" d="M56 14h1v1h-1z"/>
  <path fill="#455a64" fill-opacity="0.898" d="M79 39h1v1h-1zM16 61h1v1h-1zM55 73h1v1h-1z"/>
  <path fill="#445963" fill-opacity="0.902" d="M62 20h1v1h-1zM20 39h1v1h-1zM41 59h1v1h-1zM30 65h1v1h-1zM77 65h1v1h-1z"/>
  <path fill="#455a64" fill-opacity="0.9059" d="M37 20h1v1h-1zM59 38h1v1h-1zM58 59h1v1h-1zM22 65h1v1h-1zM69 65h1v1h-1z"/>
  <path fill="#455a64" fill-opacity="0.9098" d="M83 61h1v1h-1zM44 73h1v1h-1z"/>
  <path fill="#445963" fill-opacity="0.9137" d="M40 38h1v1h-1zM14 58h1v1h-1z"/>
  <path fill="#445a64" fill-opacity="0.9176" d="M63 30h1v1h-1zM42 41h1v1h-1zM45 47h1v1h-1z"/>
  <path fill="#455a63" fill-opacity="0.9216" d="M36 30h1v1h-1zM54 47h1v1h-1zM85 58h1v1h-1z"/>
  <path fill="#455963" fill-opacity="0.9255" d="M52 48h1v1h-1z"/>
  <path fill="#455964" fill-opacity="0.9255" d="M57 41h1v1h-1zM17 62h1v1h-1zM82 62h1v1h-1z"/>
  <path fill="#445a64" fill-opacity="0.9294" d="M32 39h1v1h-1zM67 39h1v1h-1zM47 48h1v1h-1z"/>
  <path fill="#455964" fill-opacity="0.9373" d="M34 40h1v1h-1zM65 40h1v1h-1z"/>
  <path fill="#445964" fill-opacity="0.9451" d="M52 62h1v1h-1z"/>
  <path fill="#455a63" fill-opacity="0.9529" d="M36 62h1v1h-1zM47 62h1v1h-1z"/>
  <path fill="#445964" fill-opacity="0.9569" d="M63 62h1v1h-1z"/>
  <path fill="#455a63" fill-opacity="0.9647" d="M39 43h1v1h-1zM60 43h1v1h-1z"/>
  <path fill="#455964" fill-opacity="0.9686" d="M13 48h1v1h-1zM53 67h1v1h-1z"/>
  <path fill="#445a63" fill-opacity="0.9725" d="M39 36h1v1h-1zM57 45h1v1h-1zM86 48h1v1h-1zM20 64h1v1h-1zM79 64h1v1h-1z"/>
  <path fill="#445a64" fill-opacity="0.9765" d="M46 13h1v1h-1zM53 13h1v1h-1zM60 36h1v1h-1zM45 45h1v1h-1zM45 56h1v1h-1zM54 56h1v1h-1zM46 67h1v1h-1z"/>
  <path fill="#455963" fill-opacity="0.9804" d="M42 45h1v1h-1zM54 45h1v1h-1z"/>
  <path fill="#455a63" fill-opacity="0.9843" d="M13 55h1v1h-1z"/>
  <path fill="#445a64" fill-opacity="0.9882" d="M23 38h1v1h-1zM29 38h1v1h-1zM76 38h1v1h-1zM86 55h1v1h-1zM65 63h1v1h-1zM32 64h1v1h-1zM42 78h1v1h-1zM57 78h1v1h-1zM39 83h1v1h-1z"/>
  <path fill="#445963" fill-opacity="0.9922" d="M36 23h1v1h-1zM63 23h1v1h-1zM70 38h1v1h-1zM53 48h1v1h-1zM34 63h1v1h-1zM67 64h1v1h-1zM60 83h1v1h-1z"/>
  <path fill="#455a64" fill-opacity="0.9961" d="M37 32h1v1h-1zM62 32h1v1h-1zM46 48h1v1h-1zM39 60h1v1h-1zM60 60h1v1h-1zM43 76h1v1h-1zM41 80h1v1h-1zM58 80h1v1h-1z"/>
  <path fill="#445a64" d="M48 49h1v1h-1z"/>
  <path fill="#455a64" d="M47 13h6v1h-6zM44 14h12v1h-12zM42 15h16v1h-16zM41 16h18v1h-18zM40 17h20v1h-20zM39 18h22v1h-22zM38 19h24v2h-24zM37 21h26v3h-26zM36 24h28v6h-28zM37 30h26v2h-26zM38 32h24v3h-24zM39 35h22v1h-22zM40 36h20v2h-20zM24 38h5v1h-5zM71 38h5v1h-5zM41 38h18v2h-18zM21 39h11v1h-11zM68 39h11v1h-11zM19 40h15v1h-15zM42 40h16v1h-16zM66 40h15v1h-15zM18 41h18v1h-18zM64 41h18v1h-18zM43 41h14v2h-14zM17 42h21v1h-21zM62 42h21v1h-21zM16 43h23v1h-23zM44 43h12v1h-12zM61 43h23v1h-23zM15 44h26v1h-26zM45 44h10v1h-10zM59 44h26v1h-26zM15 45h27v1h-27zM58 45h27v1h-27zM46 45h8v2h-8zM14 46h30v1h-30zM56 46h30v1h-30zM14 47h31v1h-31zM47 47h6v1h-6zM55 47h31v1h-31zM14 48h32v1h-32zM48 48h4v1h-4zM54 48h32v1h-32zM13 49h35v1h-35zM49 49h38v1h-38zM13 50h74v5h-74zM14 55h33v1h-33zM53 55h33v1h-33zM14 56h31v1h-31zM55 56h31v1h-31zM14 57h30v1h-30zM56 57h30v1h-30zM15 58h28v1h-28zM57 58h28v1h-28zM15 59h26v1h-26zM59 59h26v1h-26zM16 60h23v1h-23zM61 60h23v1h-23zM17 61h21v1h-21zM62 61h21v1h-21zM48 55h4v8h-4zM18 62h18v1h-18zM64 62h18v1h-18zM19 63h15v1h-15zM66 63h15v1h-15zM21 64h11v1h-11zM68 64h11v1h-11zM23 65h7v1h-7zM70 65h7v1h-7zM47 63h6v5h-6zM46 68h8v3h-8zM45 71h10v3h-10zM44 74h12v2h-12zM44 76h13v1h-13zM43 77h14v2h-14zM42 79h16v2h-16zM41 81h18v1h-18zM40 82h20v2h-20zM39 84h22v1h-22zM38 85h24v1h-24zM37 86h26v1h-26z"/>
</svg>