<?xml version="1.0" encoding="UTF-8"?>
<svg xmlns="http://www.w3.org/2000/svg" width="100" height="100" viewBox="0 0 100 100" role="img" aria-labelledby="title" shape-rendering="crispEdges">
  <title id="title">icons8 ahri 100</title>
  <desc>Pixel-perfect vector conversion from the supplied PNG, preserving transparency.</desc>
  <path fill="#000000" fill-opacity="0.0039" d="M12 16h1v1h-1zM16 29h1v1h-1zM83 31h1v1h-1zM87 63h1v1h-1zM91 71h1v1h-1zM10 81h1v1h-1z"/>
  <path fill="#7f7f7f" fill-opacity="0.0078" d="M87 16h1v1h-1zM13 42h1v1h-1zM86 51h1v1h-1zM89 52h1v1h-1zM8 59h1v1h-1zM9 67h1v1h-1zM12 69h1v1h-1zM89 83h1v1h-1z"/>
  <path fill="#555555" fill-opacity="0.0118" d="M13 21h1v1h-1zM9 54h1v1h-1zM14 58h1v1h-1z"/>
  <path fill="#3f3f3f" fill-opacity="0.0157" d="M69 8h1v1h-1zM84 27h1v1h-1zM88 72h1v1h-1z"/>
  <path fill="#333333" fill-opacity="0.0196" d="M13 59h1v1h-1z"/>
  <path fill="#555555" fill-opacity="0.0235" d="M35 7h1v1h-1zM15 37h1v1h-1z"/>
  <path fill="#484848" fill-opacity="0.0275" d="M61 8h1v1h-1zM13 64h1v1h-1z"/>
  <path fill="#3f3f3f" fill-opacity="0.0314" d="M86 21h1v1h-1z"/>
  <path fill="#383838" fill-opacity="0.0353" d="M77 6h1v1h-1zM85 42h1v1h-1z"/>
  <path fill="#4c4c4c" fill-opacity="0.0392" d="M51 6h1v1h-1z"/>
  <path fill="#454545" fill-opacity="0.0431" d="M27 7h1v1h-1zM87 47h1v1h-1z"/>
  <path fill="#3f3f3f" fill-opacity="0.0471" d="M14 24h1v1h-1zM83 29h1v1h-1z"/>
  <path fill="#3a3a3a" fill-opacity="0.051" d="M88 77h1v1h-1z"/>
  <path fill="#484848" fill-opacity="0.0549" d="M84 51h1v1h-1z"/>
  <path fill="#3c3c3c" fill-opacity="0.0667" d="M16 34h1v1h-1zM11 75h1v1h-1z"/>
  <path fill="#464646" fill-opacity="0.0706" d="M22 6h1v1h-1zM65 9h1v1h-1z"/>
  <path fill="#434343" fill-opacity="0.0745" d="M88 49h1v1h-1zM10 82h1v1h-1z"/>
  <path fill="#3f3f3f" fill-opacity="0.0784" d="M83 32h1v1h-1z"/>
  <path fill="#3c3c3c" fill-opacity="0.0824" d="M89 68h1v1h-1z"/>
  <path fill="#454545" fill-opacity="0.0863" d="M33 8h1v1h-1z"/>
  <path fill="#424242" fill-opacity="0.0902" d="M39 6h1v1h-1zM86 45h1v1h-1z"/>
  <path fill="#3f3f3f" fill-opacity="0.0941" d="M14 40h1v1h-1zM12 45h1v1h-1z"/>
  <path fill="#3d3d3d" fill-opacity="0.098" d="M89 84h1v1h-1z"/>
  <path fill="#444444" fill-opacity="0.102" d="M85 24h1v1h-1z"/>
  <path fill="#424242" fill-opacity="0.1059" d="M86 61h1v1h-1zM88 66h1v1h-1z"/>
  <path fill="#3f3f3f" fill-opacity="0.1098" d="M8 68h1v1h-1z"/>
  <path fill="#464646" fill-opacity="0.1137" d="M12 15h1v1h-1zM8 60h1v1h-1z"/>
  <path fill="#444444" fill-opacity="0.1176" d="M87 15h1v1h-1z"/>
  <path fill="#454545" fill-opacity="0.1294" d="M14 57h1v1h-1z"/>
  <path fill="#414141" fill-opacity="0.1373" d="M53 7h1v1h-1zM30 8h1v1h-1z"/>
  <path fill="#3f3f3f" fill-opacity="0.1412" d="M14 59h1v1h-1z"/>
  <path fill="#414141" fill-opacity="0.1529" d="M85 58h1v1h-1z"/>
  <path fill="#3f3f3f" fill-opacity="0.1569" d="M73 7h1v1h-1zM84 39h1v1h-1zM12 70h1v1h-1z"/>
  <path fill="#444444" fill-opacity="0.1608" d="M67 9h1v1h-1zM84 52h1v1h-1z"/>
  <path fill="#424242" fill-opacity="0.1647" d="M90 70h1v1h-1zM10 83h1v1h-1z"/>
  <path fill="#3f3f3f" fill-opacity="0.1725" d="M60 8h1v1h-1zM11 48h1v1h-1zM10 51h1v1h-1z"/>
  <path fill="#424242" fill-opacity="0.1804" d="M10 64h1v1h-1zM87 72h1v1h-1z"/>
  <path fill="#414141" fill-opacity="0.1843" d="M83 33h1v1h-1z"/>
  <path fill="#3f3f3f" fill-opacity="0.1882" d="M13 20h1v1h-1z"/>
  <path fill="#434343" fill-opacity="0.1922" d="M11 62h1v1h-1z"/>
  <path fill="#414141" fill-opacity="0.2" d="M78 6h1v1h-1zM85 50h1v1h-1zM9 55h1v1h-1zM13 65h1v1h-1z"/>
  <path fill="#424242" fill-opacity="0.2118" d="M15 26h1v1h-1zM89 51h1v1h-1z"/>
  <path fill="#404040" fill-opacity="0.2157" d="M88 78h1v1h-1zM89 85h1v1h-1z"/>
  <path fill="#3f3f3f" fill-opacity="0.2196" d="M12 14h1v1h-1zM87 14h1v1h-1z"/>
  <path fill="#414141" fill-opacity="0.2275" d="M86 20h1v1h-1z"/>
  <path fill="#424242" fill-opacity="0.2392" d="M21 6h1v1h-1zM87 64h1v1h-1z"/>
  <path fill="#414141" fill-opacity="0.2431" d="M11 76h1v1h-1z"/>
  <path fill="#404040" fill-opacity="0.2471" d="M8 61h1v1h-1z"/>
  <path fill="#3f3f3f" fill-opacity="0.251" d="M17 30h1v1h-1z"/>
  <path fill="#434343" fill-opacity="0.251" d="M87 7h1v1h-1zM10 84h1v1h-1z"/>
  <path fill="#414141" fill-opacity="0.2588" d="M50 6h1v1h-1zM12 7h1v1h-1z"/>
  <path fill="#404040" fill-opacity="0.2627" d="M26 7h1v1h-1zM84 53h1v1h-1z"/>
  <path fill="#434343" fill-opacity="0.2667" d="M40 6h1v1h-1z"/>
  <path fill="#424242" fill-opacity="0.2706" d="M70 8h1v1h-1zM13 43h1v1h-1zM9 66h1v1h-1z"/>
  <path fill="#414141" fill-opacity="0.2745" d="M36 7h1v1h-1z"/>
  <path fill="#434343" fill-opacity="0.2824" d="M91 72h1v1h-1z"/>
  <path fill="#424242" fill-opacity="0.2863" d="M12 60h1v1h-1z"/>
  <path fill="#414141" fill-opacity="0.2902" d="M16 35h1v1h-1z"/>
  <path fill="#404040" fill-opacity="0.2941" d="M16 28h1v1h-1zM83 34h1v1h-1z"/>
  <path fill="#434343" fill-opacity="0.298" d="M89 72h1v1h-1z"/>
  <path fill="#424242" fill-opacity="0.302" d="M17 31h1v1h-1zM14 60h1v1h-1z"/>
  <path fill="#414141" fill-opacity="0.3059" d="M87 13h1v1h-1zM15 38h1v1h-1zM85 43h1v1h-1z"/>
  <path fill="#404040" fill-opacity="0.3098" d="M12 13h1v1h-1z"/>
  <path fill="#404040" fill-opacity="0.3255" d="M59 8h1v1h-1zM87 51h1v1h-1z"/>
  <path fill="#424242" fill-opacity="0.3294" d="M89 86h1v1h-1z"/>
  <path fill="#424242" fill-opacity="0.3333" d="M64 9h1v1h-1z"/>
  <path fill="#414141" fill-opacity="0.3373" d="M79 6h1v1h-1zM84 26h1v1h-1zM10 85h1v1h-1z"/>
  <path fill="#434343" fill-opacity="0.3412" d="M14 23h1v1h-1z"/>
  <path fill="#424242" fill-opacity="0.3451" d="M12 71h1v1h-1z"/>
  <path fill="#414141" fill-opacity="0.3529" d="M87 73h1v1h-1z"/>
  <path fill="#424242" fill-opacity="0.3608" d="M8 62h1v1h-1z"/>
  <path fill="#414141" fill-opacity="0.3647" d="M20 6h1v1h-1zM84 54h1v1h-1z"/>
  <path fill="#414141" fill-opacity="0.3686" d="M87 71h1v1h-1z"/>
  <path fill="#424242" fill-opacity="0.3765" d="M86 6h1v1h-1zM89 91h1v1h-1z"/>
  <path fill="#414141" fill-opacity="0.3804" d="M13 6h1v1h-1zM10 91h1v1h-1z"/>
  <path fill="#424242" fill-opacity="0.3882" d="M87 12h1v1h-1z"/>
  <path fill="#424242" fill-opacity="0.3922" d="M13 66h1v1h-1zM88 79h1v1h-1zM89 87h1v1h-1z"/>
  <path fill="#414141" fill-opacity="0.3961" d="M12 12h1v1h-1z"/>
  <path fill="#414141" fill-opacity="0.4" d="M74 7h1v1h-1z"/>
  <path fill="#414141" fill-opacity="0.4118" d="M85 23h1v1h-1zM11 77h1v1h-1z"/>
  <path fill="#424242" fill-opacity="0.4196" d="M13 19h1v1h-1zM10 86h1v1h-1z"/>
  <path fill="#424242" fill-opacity="0.4235" d="M87 11h1v1h-1z"/>
  <path fill="#414141" fill-opacity="0.4275" d="M12 11h1v1h-1zM84 49h1v1h-1z"/>
  <path fill="#424242" fill-opacity="0.4353" d="M10 52h1v1h-1z"/>
  <path fill="#424242" fill-opacity="0.4392" d="M41 6h1v1h-1zM84 40h1v1h-1zM89 88h1v1h-1z"/>
  <path fill="#414141" fill-opacity="0.4431" d="M80 6h1v1h-1zM29 8h1v1h-1zM87 10h1v1h-1zM83 28h1v1h-1zM83 35h1v1h-1zM9 56h1v1h-1zM13 58h1v1h-1zM8 63h1v1h-1z"/>
  <path fill="#434343" fill-opacity="0.4471" d="M12 10h1v1h-1z"/>
  <path fill="#414141" fill-opacity="0.4549" d="M58 8h1v1h-1zM86 19h1v1h-1z"/>
  <path fill="#424242" fill-opacity="0.4627" d="M49 6h1v1h-1zM12 9h1v1h-1zM87 9h1v1h-1zM85 59h1v1h-1z"/>
  <path fill="#424242" fill-opacity="0.4667" d="M19 6h1v1h-1zM84 55h1v1h-1zM10 87h1v1h-1z"/>
  <path fill="#414141" fill-opacity="0.4706" d="M12 8h1v1h-1zM87 8h1v1h-1zM12 46h1v1h-1z"/>
  <path fill="#414141" fill-opacity="0.4745" d="M14 41h1v1h-1zM86 62h1v1h-1z"/>
  <path fill="#424242" fill-opacity="0.4784" d="M14 61h1v1h-1z"/>
  <path fill="#424242" fill-opacity="0.4824" d="M87 48h1v1h-1zM89 89h1v1h-1z"/>
  <path fill="#424242" fill-opacity="0.4941" d="M34 8h1v1h-1zM10 88h1v1h-1z"/>
  <path fill="#424242" fill-opacity="0.498" d="M25 7h1v1h-1zM8 67h1v1h-1z"/>
  <path fill="#424242" fill-opacity="0.5137" d="M57 8h1v1h-1zM86 46h1v1h-1zM11 49h1v1h-1z"/>
  <path fill="#414141" fill-opacity="0.5176" d="M8 64h1v1h-1z"/>
  <path fill="#414141" fill-opacity="0.5216" d="M87 74h1v1h-1zM10 89h1v1h-1z"/>
  <path fill="#424242" fill-opacity="0.5255" d="M89 90h1v1h-1z"/>
  <path fill="#424242" fill-opacity="0.5294" d="M89 69h1v1h-1z"/>
  <path fill="#414141" fill-opacity="0.5373" d="M12 72h1v1h-1z"/>
  <path fill="#424242" fill-opacity="0.5451" d="M68 9h1v1h-1z"/>
  <path fill="#414141" fill-opacity="0.549" d="M10 90h1v1h-1z"/>
  <path fill="#414141" fill-opacity="0.5529" d="M56 8h1v1h-1z"/>
  <path fill="#424242" fill-opacity="0.5569" d="M88 67h1v1h-1zM11 78h1v1h-1z"/>
  <path fill="#414141" fill-opacity="0.5608" d="M81 6h1v1h-1zM88 80h1v1h-1z"/>
  <path fill="#414141" fill-opacity="0.5647" d="M17 32h1v1h-1z"/>
  <path fill="#424242" fill-opacity="0.5725" d="M18 6h1v1h-1zM42 6h1v1h-1z"/>
  <path fill="#414141" fill-opacity="0.5765" d="M37 7h1v1h-1zM71 8h1v1h-1z"/>
  <path fill="#414141" fill-opacity="0.5804" d="M84 56h1v1h-1z"/>
  <path fill="#424242" fill-opacity="0.5843" d="M13 67h1v1h-1z"/>
  <path fill="#424242" fill-opacity="0.5882" d="M8 65h1v1h-1zM90 72h1v1h-1z"/>
  <path fill="#414141" fill-opacity="0.5961" d="M48 6h1v1h-1z"/>
  <path fill="#424242" fill-opacity="0.6" d="M55 8h1v1h-1zM83 36h1v1h-1zM88 50h1v1h-1z"/>
  <path fill="#424242" fill-opacity="0.6039" d="M16 36h1v1h-1z"/>
  <path fill="#414141" fill-opacity="0.6078" d="M63 9h1v1h-1z"/>
  <path fill="#424242" fill-opacity="0.6157" d="M8 66h1v1h-1z"/>
  <path fill="#424242" fill-opacity="0.6196" d="M52 7h1v1h-1z"/>
  <path fill="#414141" fill-opacity="0.6235" d="M43 6h1v1h-1zM87 65h1v1h-1z"/>
  <path fill="#424242" fill-opacity="0.6353" d="M9 57h1v1h-1z"/>
  <path fill="#414141" fill-opacity="0.6431" d="M75 7h1v1h-1zM13 18h1v1h-1z"/>
  <path fill="#424242" fill-opacity="0.6471" d="M82 6h1v1h-1z"/>
  <path fill="#414141" fill-opacity="0.6549" d="M17 6h1v1h-1zM14 62h1v1h-1z"/>
  <path fill="#424242" fill-opacity="0.6667" d="M16 6h1v1h-1zM83 6h1v1h-1zM15 25h1v1h-1zM11 91h16v1h-16zM73 91h16v1h-16z"/>
  <path fill="#414141" fill-opacity="0.6706" d="M47 6h1v1h-1zM54 8h1v1h-1zM86 18h1v1h-1zM30 91h9v1h-9zM61 91h9v1h-9z"/>
  <path fill="#424242" fill-opacity="0.6745" d="M44 6h1v1h-1zM14 22h1v1h-1zM15 39h1v1h-1zM13 44h1v1h-1z"/>
  <path fill="#424242" fill-opacity="0.6784" d="M85 44h1v1h-1zM10 63h1v1h-1z"/>
  <path fill="#414141" fill-opacity="0.6863" d="M15 56h1v1h-1z"/>
  <path fill="#424242" fill-opacity="0.6902" d="M10 53h1v1h-1zM11 79h1v1h-1z"/>
  <path fill="#414141" fill-opacity="0.698" d="M9 65h1v1h-1zM87 75h1v1h-1z"/>
  <path fill="#424242" fill-opacity="0.7059" d="M14 56h1v1h-1z"/>
  <path fill="#424242" fill-opacity="0.7098" d="M14 6h1v1h-1zM85 6h1v1h-1zM29 91h1v1h-1zM70 91h1v1h-1z"/>
  <path fill="#414141" fill-opacity="0.7137" d="M11 61h1v1h-1z"/>
  <path fill="#414141" fill-opacity="0.7176" d="M84 41h1v1h-1z"/>
  <path fill="#424242" fill-opacity="0.7216" d="M24 7h1v1h-1zM88 51h1v1h-1z"/>
  <path fill="#424242" fill-opacity="0.7255" d="M12 73h1v1h-1z"/>
  <path fill="#414141" fill-opacity="0.7294" d="M15 6h1v1h-1zM84 6h1v1h-1zM32 9h1v1h-1z"/>
  <path fill="#414141" fill-opacity="0.7333" d="M45 6h2v1h-2zM85 22h1v1h-1z"/>
  <path fill="#424242" fill-opacity="0.7373" d="M28 8h1v1h-1zM88 81h1v1h-1z"/>
  <path fill="#414141" fill-opacity="0.7608" d="M16 27h1v1h-1zM90 71h1v1h-1z"/>
  <path fill="#876d45" fill-opacity="0.7608" d="M39 91h1v1h-1zM60 91h1v1h-1z"/>
  <path fill="#414141" fill-opacity="0.7647" d="M84 25h1v1h-1zM83 37h1v1h-1z"/>
  <path fill="#424242" fill-opacity="0.7725" d="M85 60h1v1h-1zM13 68h1v1h-1z"/>
  <path fill="#414141" fill-opacity="0.7765" d="M17 29h1v1h-1z"/>
  <path fill="#434343" fill-opacity="0.7882" d="M31 9h1v1h-1z"/>
  <path fill="#414141" fill-opacity="0.8078" d="M13 17h1v1h-1z"/>
  <path fill="#424242" fill-opacity="0.8118" d="M86 50h1v1h-1z"/>
  <path fill="#424242" fill-opacity="0.8157" d="M9 58h1v1h-1z"/>
  <path fill="#414141" fill-opacity="0.8235" d="M86 17h1v1h-1zM11 80h1v1h-1z"/>
  <path fill="#424242" fill-opacity="0.8314" d="M17 33h1v1h-1zM12 47h1v1h-1z"/>
  <path fill="#414141" fill-opacity="0.8392" d="M15 57h1v1h-1zM14 63h1v1h-1z"/>
  <path fill="#424242" fill-opacity="0.8431" d="M12 59h1v1h-1z"/>
  <path fill="#424242" fill-opacity="0.8471" d="M76 7h1v1h-1z"/>
  <path fill="#414141" fill-opacity="0.851" d="M83 49h1v1h-1zM88 71h1v1h-1z"/>
  <path fill="#414141" fill-opacity="0.8549" d="M11 50h1v1h-1zM84 57h1v1h-1zM86 63h1v1h-1z"/>
  <path fill="#424242" fill-opacity="0.8588" d="M62 9h1v1h-1zM82 30h1v1h-1z"/>
  <path fill="#424242" fill-opacity="0.8627" d="M15 55h1v1h-1z"/>
  <path fill="#414141" fill-opacity="0.8667" d="M14 42h1v1h-1zM88 82h1v1h-1z"/>
  <path fill="#414141" fill-opacity="0.8706" d="M87 76h1v1h-1zM27 91h1v1h-1zM72 91h1v1h-1z"/>
  <path fill="#424242" fill-opacity="0.8745" d="M38 7h1v1h-1z"/>
  <path fill="#424242" fill-opacity="0.8784" d="M83 27h1v1h-1z"/>
  <path fill="#414141" fill-opacity="0.8824" d="M72 8h1v1h-1z"/>
  <path fill="#414141" fill-opacity="0.8902" d="M28 91h1v1h-1zM71 91h1v1h-1z"/>
  <path fill="#cf994a" fill-opacity="0.8902" d="M40 91h20v1h-20z"/>
  <path fill="#424242" fill-opacity="0.902" d="M23 7h1v1h-1zM12 74h1v1h-1z"/>
  <path fill="#424242" fill-opacity="0.9059" d="M69 9h1v1h-1z"/>
  <path fill="#414141" fill-opacity="0.9098" d="M35 8h1v1h-1z"/>
  <path fill="#414141" fill-opacity="0.9255" d="M83 38h1v1h-1zM86 47h1v1h-1z"/>
  <path fill="#424242" fill-opacity="0.9255" d="M66 10h1v1h-1z"/>
  <path fill="#414141" fill-opacity="0.9294" d="M16 37h1v1h-1z"/>
  <path fill="#424242" fill-opacity="0.9333" d="M10 54h1v1h-1z"/>
  <path fill="#414141" fill-opacity="0.9412" d="M14 21h1v1h-1zM87 49h1v1h-1z"/>
  <path fill="#424242" fill-opacity="0.9529" d="M83 50h1v1h-1zM13 69h1v1h-1zM11 81h1v1h-1z"/>
  <path fill="#414141" fill-opacity="0.9569" d="M51 7h1v1h-1zM13 16h1v1h-1zM82 29h1v1h-1zM13 57h1v1h-1zM88 68h1v1h-1z"/>
  <path fill="#414141" fill-opacity="0.9608" d="M82 31h1v1h-1z"/>
  <path fill="#424242" fill-opacity="0.9647" d="M86 16h1v1h-1zM15 24h1v1h-1zM84 42h1v1h-1z"/>
  <path fill="#424242" fill-opacity="0.9686" d="M33 9h1v1h-1z"/>
  <path fill="#414141" fill-opacity="0.9725" d="M53 8h1v1h-1zM85 21h1v1h-1zM9 59h1v1h-1zM87 66h1v1h-1zM89 70h1v1h-1z"/>
  <path fill="#414141" fill-opacity="0.9765" d="M27 8h1v1h-1zM85 45h1v1h-1zM15 58h1v1h-1zM88 83h1v1h-1z"/>
  <path fill="#424242" fill-opacity="0.9804" d="M15 40h1v1h-1zM13 45h1v1h-1z"/>
  <path fill="#424242" fill-opacity="0.9843" d="M83 48h1v1h-1zM85 49h1v1h-1zM14 64h1v1h-1z"/>
  <path fill="#414141" fill-opacity="0.9882" d="M77 7h1v1h-1zM61 9h1v1h-1zM86 71h1v1h-1z"/>
  <path fill="#414141" fill-opacity="0.9922" d="M65 10h1v1h-1zM84 24h1v1h-1zM17 34h1v1h-1zM85 61h1v1h-1z"/>
  <path fill="#424242" fill-opacity="0.9961" d="M67 10h1v1h-1zM10 62h1v1h-1zM9 64h1v1h-1zM87 77h1v1h-1z"/>
  <path fill="#cbaa6e" fill-opacity="0.9961" d="M70 68h1v1h-1z"/>
  <path fill="#424242" d="M13 7h10v1h-10zM39 7h12v1h-12zM78 7h9v1h-9zM13 8h14v1h-14zM36 8h17v1h-17zM73 8h14v1h-14zM13 9h18v1h-18zM34 9h27v1h-27zM70 9h17v1h-17zM22 10h43v1h-43zM68 10h10v1h-10zM27 11h47v1h-47zM29 12h42v1h-42zM28 13h44v1h-44zM13 10h3v5h-3zM84 10h3v5h-3zM27 14h46v1h-46zM13 15h4v1h-4zM26 15h48v1h-48zM83 15h4v1h-4zM25 16h50v1h-50zM25 17h51v1h-51zM24 18h53v1h-53zM14 16h3v5h-3zM83 16h3v5h-3zM23 19h55v2h-55zM22 21h57v1h-57zM15 21h3v3h-3zM82 21h3v3h-3zM21 22h59v3h-59zM81 24h3v1h-3zM16 24h3v2h-3zM20 25h20v1h-20zM41 25h43v2h-43zM16 26h24v1h-24zM17 27h22v1h-22zM41 27h11v2h-11zM54 27h29v2h-29zM17 28h21v1h-21zM18 29h20v1h-20zM41 29h10v1h-10zM54 29h12v1h-12zM67 29h15v1h-15zM18 30h19v1h-19zM41 30h9v1h-9zM53 30h12v2h-12zM68 30h14v2h-14zM18 31h18v1h-18zM41 31h8v1h-8zM18 32h17v1h-17zM41 32h7v1h-7zM53 32h11v1h-11zM69 32h4v2h-4zM27 33h8v1h-8zM41 33h6v1h-6zM53 33h10v1h-10zM18 33h8v2h-8zM27 34h7v1h-7zM41 34h5v1h-5zM52 34h11v1h-11zM69 34h3v1h-3zM17 35h9v1h-9zM27 35h6v1h-6zM40 35h4v1h-4zM52 35h10v1h-10zM74 32h9v5h-9zM69 35h2v2h-2zM27 36h5v1h-5zM40 36h3v1h-3zM52 36h9v1h-9zM17 36h8v2h-8zM27 37h4v1h-4zM40 37h1v1h-1zM52 37h8v1h-8zM69 37h1v1h-1zM75 37h8v2h-8zM27 38h3v1h-3zM51 38h8v1h-8zM28 39h1v1h-1zM51 39h7v1h-7zM16 38h9v3h-9zM50 40h6v1h-6zM50 41h5v1h-5zM75 39h9v4h-9zM15 41h10v2h-10zM50 42h3v1h-3zM49 43h2v1h-2zM33 44h4v1h-4zM63 44h4v1h-4zM14 43h11v3h-11zM75 43h10v3h-10zM30 45h2v1h-2zM60 45h1v1h-1zM68 45h2v1h-2zM70 46h2v1h-2zM13 46h12v2h-12zM75 46h11v2h-11zM84 48h3v1h-3zM28 46h1v4h-1zM36 46h1v4h-1zM63 46h1v4h-1zM71 47h1v3h-1zM86 49h1v1h-1zM12 48h13v3h-13zM75 48h8v3h-8zM87 50h1v1h-1zM11 51h14v4h-14zM75 51h9v4h-9zM10 55h5v1h-5zM16 55h9v1h-9zM10 56h4v1h-4zM74 55h10v3h-10zM16 56h10v3h-10zM10 57h3v2h-3zM10 59h2v1h-2zM74 58h11v3h-11zM15 59h11v2h-11zM9 60h3v1h-3zM9 61h2v1h-2zM15 61h15v1h-15zM68 61h17v1h-17zM9 62h1v2h-1zM74 62h12v2h-12zM15 62h11v3h-11zM74 64h13v1h-13zM14 65h15v1h-15zM68 65h19v1h-19zM73 66h14v1h-14zM73 67h15v1h-15zM14 66h13v3h-13zM72 68h16v1h-16zM14 69h15v1h-15zM69 69h20v1h-20zM13 70h16v1h-16zM70 70h19v1h-19zM13 71h17v1h-17zM69 71h17v1h-17zM89 71h1v1h-1zM13 72h18v1h-18zM68 72h19v1h-19zM67 73h20v1h-20zM13 73h19v2h-19zM66 74h21v1h-21zM12 75h22v1h-22zM65 75h22v1h-22zM12 76h23v1h-23zM64 76h23v1h-23zM12 77h24v1h-24zM63 77h24v1h-24zM12 78h25v1h-25zM62 78h26v1h-26zM12 79h26v1h-26zM12 80h27v2h-27zM61 79h27v5h-27zM11 82h28v9h-28zM61 84h28v7h-28z"/>
  <path fill="#434242" d="M17 20h1v1h-1zM80 24h1v1h-1zM73 64h1v1h-1z"/>
  <path fill="#434243" d="M78 10h1v1h-1zM26 11h1v1h-1zM24 17h1v1h-1z"/>
  <path fill="#434342" d="M35 32h1v1h-1zM51 37h1v1h-1zM56 40h1v1h-1zM53 42h1v1h-1zM51 43h1v1h-1zM48 44h1v1h-1zM39 45h1v1h-1zM25 55h1v1h-1zM29 65h1v1h-1zM32 74h1v1h-1zM38 79h1v1h-1z"/>
  <path fill="#434343" d="M29 46h1v1h-1z"/>
  <path fill="#444243" d="M22 20h1v1h-1z"/>
  <path fill="#444343" d="M63 33h1v1h-1zM49 42h1v1h-1z"/>
  <path fill="#454443" d="M52 27h1v1h-1zM38 28h1v1h-1zM67 45h1v1h-1zM61 78h1v1h-1z"/>
  <path fill="#464344" d="M21 10h1v1h-1zM78 20h1v1h-1zM82 20h1v1h-1zM20 24h1v1h-1z"/>
  <path fill="#464543" d="M32 45h1v1h-1zM26 64h1v1h-1z"/>
  <path fill="#464544" d="M74 37h1v1h-1zM70 51h1v1h-1z"/>
  <path fill="#474644" d="M40 25h1v1h-1zM40 34h1v1h-1z"/>
  <path fill="#484445" d="M18 23h1v1h-1z"/>
  <path fill="#484641" d="M63 50h1v1h-1z"/>
  <path fill="#484744" d="M53 29h1v1h-1z"/>
  <path fill="#484745" d="M27 68h1v1h-1z"/>
  <path fill="#494744" d="M44 35h1v1h-1z"/>
  <path fill="#494745" d="M71 35h1v1h-1zM49 44h1v1h-1z"/>
  <path fill="#4a4446" d="M16 14h1v1h-1z"/>
  <path fill="#4a4845" d="M68 32h1v1h-1zM67 61h1v1h-1z"/>
  <path fill="#4b4547" d="M83 14h1v1h-1z"/>
  <path fill="#4b4841" d="M38 45h1v1h-1z"/>
  <path fill="#4b4945" d="M26 33h1v1h-1zM27 46h1v1h-1zM68 69h1v1h-1z"/>
  <path fill="#4c4547" d="M75 16h1v1h-1z"/>
  <path fill="#4c4945" d="M36 31h1v1h-1zM30 61h1v1h-1z"/>
  <path fill="#4c4a45" d="M73 32h1v1h-1z"/>
  <path fill="#4d4548" d="M74 15h1v1h-1z"/>
  <path fill="#4d4941" d="M61 45h1v1h-1z"/>
  <path fill="#4d4b48" d="M29 51h1v1h-1z"/>
  <path fill="#4e4649" d="M74 11h1v1h-1z"/>
  <path fill="#4e4a41" d="M36 50h1v1h-1z"/>
  <path fill="#4e4b46" d="M25 36h1v1h-1zM74 54h1v1h-1z"/>
  <path fill="#4f4c46" d="M27 39h1v1h-1zM62 44h1v1h-1zM29 69h1v1h-1z"/>
  <path fill="#4f4c47" d="M52 33h1v1h-1zM27 47h1v1h-1z"/>
  <path fill="#50464a" d="M76 17h1v1h-1z"/>
  <path fill="#504d47" d="M62 77h1v1h-1z"/>
  <path fill="#504f4e" d="M29 45h1v1h-1z"/>
  <path fill="#51474a" d="M81 23h1v1h-1z"/>
  <path fill="#514e46" d="M37 44h1v1h-1z"/>
  <path fill="#52474b" d="M28 12h1v1h-1zM19 25h1v1h-1z"/>
  <path fill="#524e47" d="M39 38h1v1h-1zM25 54h1v1h-1z"/>
  <path fill="#524e49" d="M30 53h1v1h-1z"/>
  <path fill="#53474c" d="M23 18h1v1h-1z"/>
  <path fill="#534e47" d="M72 46h1v1h-1z"/>
  <path fill="#534f48" d="M65 30h1v1h-1z"/>
  <path fill="#54524f" d="M32 44h1v1h-1z"/>
  <path fill="#545250" d="M70 45h1v1h-1z"/>
  <path fill="#55474d" d="M71 12h1v1h-1z"/>
  <path fill="#555048" d="M37 78h1v1h-1z"/>
  <path fill="#555049" d="M50 39h1v1h-1zM28 50h1v1h-1zM73 63h1v1h-1z"/>
  <path fill="#565149" d="M41 37h1v1h-1z"/>
  <path fill="#575249" d="M69 53h1v1h-1zM73 62h1v1h-1z"/>
  <path fill="#58484e" d="M16 13h1v1h-1z"/>
  <path fill="#585349" d="M55 41h1v1h-1z"/>
  <path fill="#585551" d="M67 44h1v1h-1z"/>
  <path fill="#59494f" d="M83 13h1v1h-1z"/>
  <path fill="#595349" d="M72 47h1v1h-1z"/>
  <path fill="#59534a" d="M39 37h1v1h-1z"/>
  <path fill="#5a4950" d="M79 10h1v1h-1z"/>
  <path fill="#5a544a" d="M74 38h1v1h-1z"/>
  <path fill="#5c4a51" d="M73 14h1v1h-1z"/>
  <path fill="#5d564b" d="M29 52h1v1h-1z"/>
  <path fill="#5d574b" d="M26 63h1v1h-1zM72 67h1v1h-1z"/>
  <path fill="#5f584b" d="M26 62h1v1h-1z"/>
  <path fill="#604b53" d="M16 10h1v1h-1zM20 10h1v1h-1zM83 10h1v1h-1z"/>
  <path fill="#60573e" d="M66 45h1v1h-1z"/>
  <path fill="#60594c" d="M49 31h1v1h-1zM48 32h1v1h-1z"/>
  <path fill="#614b53" d="M25 11h1v1h-1z"/>
  <path fill="#61594c" d="M63 76h1v1h-1z"/>
  <path fill="#625a4d" d="M71 50h1v1h-1zM73 60h1v1h-1z"/>
  <path fill="#634c55" d="M26 14h1v1h-1z"/>
  <path fill="#635b4d" d="M64 32h1v1h-1zM74 53h1v1h-1z"/>
  <path fill="#64593e" d="M33 45h1v1h-1z"/>
  <path fill="#645c4d" d="M28 40h1v1h-1z"/>
  <path fill="#654d56" d="M16 12h1v1h-1zM83 12h1v1h-1z"/>
  <path fill="#655d4b" d="M58 46h1v1h-1z"/>
  <path fill="#655d4e" d="M51 36h1v1h-1zM25 37h1v1h-1zM29 39h1v1h-1zM26 60h1v1h-1zM67 65h1v1h-1z"/>
  <path fill="#664d56" d="M27 13h1v1h-1zM17 19h1v1h-1z"/>
  <path fill="#665d4e" d="M37 30h1v1h-1zM50 30h1v1h-1zM30 38h1v1h-1zM25 53h1v1h-1z"/>
  <path fill="#665e4e" d="M26 34h1v1h-1z"/>
  <path fill="#674d57" d="M77 18h1v1h-1z"/>
  <path fill="#675e4e" d="M72 34h1v1h-1z"/>
  <path fill="#685f4f" d="M60 37h1v1h-1z"/>
  <path fill="#695f4f" d="M59 38h1v1h-1zM30 65h1v1h-1z"/>
  <path fill="#69604f" d="M53 27h1v1h-1zM61 36h1v1h-1z"/>
  <path fill="#6a604f" d="M31 37h1v1h-1zM36 77h1v1h-1z"/>
  <path fill="#6a6969" d="M69 46h1v1h-1z"/>
  <path fill="#6b6150" d="M53 28h1v1h-1zM70 52h1v1h-1z"/>
  <path fill="#6c5e3e" d="M37 45h1v1h-1z"/>
  <path fill="#6c6250" d="M67 30h1v1h-1z"/>
  <path fill="#6d4f5a" d="M82 19h1v1h-1z"/>
  <path fill="#6d5f3d" d="M40 46h1v1h-1z"/>
  <path fill="#6d6350" d="M47 33h1v1h-1z"/>
  <path fill="#6e6350" d="M27 40h1v1h-1z"/>
  <path fill="#6e6351" d="M66 61h1v1h-1zM71 68h1v1h-1z"/>
  <path fill="#6f613d" d="M62 45h1v1h-1z"/>
  <path fill="#6f6451" d="M40 33h1v1h-1z"/>
  <path fill="#6f654f" d="M41 46h1v1h-1z"/>
  <path fill="#706551" d="M74 39h1v1h-1z"/>
  <path fill="#71505c" d="M16 11h1v1h-1zM83 11h1v1h-1z"/>
  <path fill="#716551" d="M31 61h1v1h-1z"/>
  <path fill="#716652" d="M39 27h1v1h-1zM43 36h1v1h-1z"/>
  <path fill="#716654" d="M31 54h1v1h-1z"/>
  <path fill="#727170" d="M30 46h1v1h-1z"/>
  <path fill="#736752" d="M32 36h1v1h-1z"/>
  <path fill="#75515f" d="M25 15h1v1h-1zM79 21h1v1h-1z"/>
  <path fill="#75653c" d="M59 46h1v1h-1z"/>
  <path fill="#76525f" d="M80 10h1v1h-1z"/>
  <path fill="#766953" d="M72 66h1v1h-1z"/>
  <path fill="#776a53" d="M69 38h1v1h-1z"/>
  <path fill="#776a54" d="M74 52h1v1h-1z"/>
  <path fill="#777169" d="M70 50h1v1h-1z"/>
  <path fill="#785260" d="M80 23h1v1h-1z"/>
  <path fill="#786b56" d="M68 54h1v1h-1z"/>
  <path fill="#7a5361" d="M21 21h1v1h-1z"/>
  <path fill="#7a5362" d="M75 11h1v1h-1z"/>
  <path fill="#7a6c54" d="M25 52h1v1h-1zM64 75h1v1h-1z"/>
  <path fill="#7b5362" d="M19 10h1v1h-1z"/>
  <path fill="#7b6d55" d="M49 41h1v1h-1z"/>
  <path fill="#7c6a3b" d="M36 45h1v1h-1z"/>
  <path fill="#7c6e55" d="M58 39h1v1h-1zM69 70h1v1h-1z"/>
  <path fill="#7d5463" d="M72 13h1v1h-1z"/>
  <path fill="#7d6b3b" d="M63 45h1v1h-1z"/>
  <path fill="#7d6f55" d="M68 33h1v1h-1z"/>
  <path fill="#7d6f56" d="M51 29h1v1h-1zM33 35h1v1h-1zM25 38h1v1h-1zM52 43h1v1h-1z"/>
  <path fill="#807156" d="M62 35h1v1h-1z"/>
  <path fill="#807157" d="M35 76h1v1h-1z"/>
  <path fill="#817257" d="M66 29h1v1h-1z"/>
  <path fill="#825566" d="M18 22h1v1h-1zM20 23h1v1h-1z"/>
  <path fill="#826d3b" d="M65 45h1v1h-1z"/>
  <path fill="#827257" d="M52 32h1v1h-1zM48 43h1v1h-1z"/>
  <path fill="#82734f" d="M59 45h1v1h-1z"/>
  <path fill="#82745a" d="M61 44h1v1h-1z"/>
  <path fill="#837a6a" d="M31 44h1v1h-1z"/>
  <path fill="#837c72" d="M69 52h1v1h-1z"/>
  <path fill="#846f3a" d="M34 45h1v1h-1z"/>
  <path fill="#846f3b" d="M35 45h1v1h-1zM64 45h1v1h-1z"/>
  <path fill="#847457" d="M29 70h1v1h-1z"/>
  <path fill="#847b6b" d="M57 47h1v1h-1z"/>
  <path fill="#857558" d="M50 44h1v1h-1z"/>
  <path fill="#868178" d="M29 50h1v1h-1z"/>
  <path fill="#877659" d="M46 34h1v1h-1zM70 37h1v1h-1zM74 40h1v1h-1z"/>
  <path fill="#885769" d="M81 10h1v1h-1z"/>
  <path fill="#887759" d="M73 33h1v1h-1zM34 34h1v1h-1z"/>
  <path fill="#88795c" d="M38 44h1v1h-1z"/>
  <path fill="#887e6d" d="M68 44h1v1h-1z"/>
  <path fill="#897859" d="M26 35h1v1h-1z"/>
  <path fill="#8a586a" d="M18 10h1v1h-1z"/>
  <path fill="#8b795a" d="M74 51h1v1h-1zM65 74h1v1h-1z"/>
  <path fill="#8c586b" d="M24 11h1v1h-1z"/>
  <path fill="#8d596c" d="M17 18h1v1h-1z"/>
  <path fill="#8e7b5b" d="M25 51h1v1h-1z"/>
  <path fill="#8e7c5b" d="M54 42h1v1h-1zM27 60h7v1h-7zM64 60h9v1h-9z"/>
  <path fill="#8e826d" d="M42 47h1v1h-1z"/>
  <path fill="#8f596d" d="M81 22h1v1h-1z"/>
  <path fill="#8f7739" d="M35 46h1v3h-1zM64 46h1v3h-1z"/>
  <path fill="#8f7c53" d="M40 45h1v1h-1z"/>
  <path fill="#8f7c5b" d="M27 48h1v1h-1z"/>
  <path fill="#905a6e" d="M22 19h1v1h-1z"/>
  <path fill="#917346" d="M60 79h1v12h-1zM39 80h1v11h-1z"/>
  <path fill="#935b70" d="M82 18h1v1h-1z"/>
  <path fill="#938d83" d="M30 52h1v1h-1z"/>
  <path fill="#94805d" d="M25 39h1v1h-1zM34 75h1v1h-1z"/>
  <path fill="#948263" d="M28 45h1v1h-1z"/>
  <path fill="#955b71" d="M24 16h1v1h-1z"/>
  <path fill="#95815d" d="M40 32h1v1h-1z"/>
  <path fill="#96815d" d="M66 73h1v1h-1z"/>
  <path fill="#975b72" d="M82 10h1v1h-1z"/>
  <path fill="#98835e" d="M40 26h1v1h-1z"/>
  <path fill="#995c73" d="M17 10h1v1h-1z"/>
  <path fill="#9a855f" d="M57 40h1v1h-1z"/>
  <path fill="#9b855f" d="M50 38h1v1h-1zM65 61h1v1h-1zM66 65h1v1h-1z"/>
  <path fill="#9b8764" d="M71 45h1v1h-1z"/>
  <path fill="#9c5d74" d="M78 19h1v1h-1z"/>
  <path fill="#9c865f" d="M39 36h1v1h-1zM71 66h1v1h-1z"/>
  <path fill="#9c8660" d="M51 35h1v1h-1z"/>
  <path fill="#9c9485" d="M67 54h1v1h-1z"/>
  <path fill="#9d8760" d="M63 60h1v1h-1zM27 66h1v1h-1z"/>
  <path fill="#9e8137" d="M37 46h1v3h-1zM62 46h1v3h-1z"/>
  <path fill="#9e8860" d="M74 41h1v1h-1z"/>
  <path fill="#9f8138" d="M35 49h1v1h-1z"/>
  <path fill="#9f8860" d="M74 50h1v1h-1zM32 61h1v1h-1z"/>
  <path fill="#9f8861" d="M38 29h1v1h-1zM68 34h1v1h-1z"/>
  <path fill="#9f8961" d="M72 48h1v1h-1z"/>
  <path fill="#a08961" d="M31 65h1v1h-1z"/>
  <path fill="#a15f77" d="M72 12h1v1h-1z"/>
  <path fill="#a18a61" d="M63 34h1v1h-1z"/>
  <path fill="#a28b61" d="M35 33h1v1h-1zM25 50h1v1h-1zM34 60h1v1h-1z"/>
  <path fill="#a28b62" d="M27 67h1v1h-1z"/>
  <path fill="#a48537" d="M64 49h1v1h-1z"/>
  <path fill="#a48c62" d="M47 45h1v1h-1zM28 51h1v1h-1zM67 69h1v1h-1z"/>
  <path fill="#a55f79" d="M19 24h1v1h-1z"/>
  <path fill="#a58d62" d="M40 38h1v1h-1zM73 59h1v1h-1zM31 72h1v1h-1z"/>
  <path fill="#a58d63" d="M52 28h1v1h-1zM30 71h1v1h-1z"/>
  <path fill="#a7617b" d="M76 11h1v1h-1z"/>
  <path fill="#a78e63" d="M67 72h1v1h-1zM32 73h1v1h-1z"/>
  <path fill="#a88f64" d="M65 31h1v1h-1zM68 71h1v1h-1z"/>
  <path fill="#a9a6a2" d="M70 49h1v1h-1z"/>
  <path fill="#aa9164" d="M40 31h1v1h-1z"/>
  <path fill="#ab9265" d="M25 40h1v1h-1z"/>
  <path fill="#aba295" d="M32 54h1v1h-1z"/>
  <path fill="#ac8a36" d="M63 51h1v1h-1z"/>
  <path fill="#ac9265" d="M26 59h1v1h-1z"/>
  <path fill="#ad9365" d="M33 74h1v1h-1z"/>
  <path fill="#ada89f" d="M68 46h1v1h-1z"/>
  <path fill="#ae8b35" d="M62 49h1v1h-1zM36 51h1v1h-1z"/>
  <path fill="#ae9465" d="M26 36h1v1h-1zM72 62h1v1h-1z"/>
  <path fill="#aea79c" d="M68 53h1v1h-1z"/>
  <path fill="#b09566" d="M71 36h1v1h-1zM27 41h1v1h-1zM30 69h1v1h-1z"/>
  <path fill="#b19666" d="M72 64h1v1h-1z"/>
  <path fill="#b29767" d="M52 31h1v1h-1z"/>
  <path fill="#b36481" d="M17 17h1v1h-1z"/>
  <path fill="#b39767" d="M74 42h1v1h-1zM74 49h1v1h-1zM27 64h5v1h-5zM66 64h6v1h-6z"/>
  <path fill="#b3ab9a" d="M31 46h1v1h-1z"/>
  <path fill="#b48f36" d="M37 49h1v1h-1z"/>
  <path fill="#b49867" d="M45 35h1v1h-1zM70 66h1v1h-1z"/>
  <path fill="#b59968" d="M71 62h1v1h-1z"/>
  <path fill="#b66583" d="M82 17h1v1h-1z"/>
  <path fill="#b69a68" d="M25 49h1v1h-1zM71 51h1v1h-1zM65 64h1v1h-1z"/>
  <path fill="#b86684" d="M23 11h1v1h-1z"/>
  <path fill="#b89b69" d="M68 35h1v1h-1zM42 37h1v1h-1z"/>
  <path fill="#b89c69" d="M28 68h1v1h-1z"/>
  <path fill="#b99c69" d="M32 64h1v1h-1z"/>
  <path fill="#b9b6b4" d="M29 49h1v1h-1z"/>
  <path fill="#ba9d69" d="M73 58h1v1h-1z"/>
  <path fill="#baa47c" d="M30 44h1v1h-1z"/>
  <path fill="#bab8b6" d="M70 47h1v1h-1z"/>
  <path fill="#bb6686" d="M27 12h1v1h-1z"/>
  <path fill="#bc6787" d="M18 21h1v1h-1z"/>
  <path fill="#bca57a" d="M66 55h1v1h-1z"/>
  <path fill="#bea465" d="M41 47h1v1h-1z"/>
  <path fill="#bfa16b" d="M40 30h1v1h-1z"/>
  <path fill="#bfa87e" d="M33 55h1v1h-1z"/>
  <path fill="#c0a16b" d="M25 41h1v1h-1zM26 58h1v1h-1z"/>
  <path fill="#c0a87d" d="M69 44h1v1h-1z"/>
  <path fill="#c19c60" d="M39 79h1v1h-1z"/>
  <path fill="#c1a26c" d="M48 45h1v1h-1z"/>
  <path fill="#c2a36c" d="M67 31h1v1h-1zM36 32h1v1h-1zM70 62h1v1h-1z"/>
  <path fill="#c39a33" d="M39 46h1v1h-1z"/>
  <path fill="#c3a46c" d="M73 34h1v1h-1zM27 62h1v1h-1z"/>
  <path fill="#c4a46c" d="M49 40h1v1h-1z"/>
  <path fill="#c5a56d" d="M38 38h1v1h-1z"/>
  <path fill="#c66a8c" d="M81 21h1v1h-1z"/>
  <path fill="#c6c1b9" d="M31 53h1v1h-1z"/>
  <path fill="#c8a76e" d="M74 48h1v1h-1zM64 61h1v1h-1z"/>
  <path fill="#ca6b8e" d="M23 17h1v1h-1z"/>
  <path fill="#caa96e" d="M74 43h1v1h-1zM25 48h1v1h-1z"/>
  <path fill="#caa96f" d="M56 41h1v1h-1z"/>
  <path fill="#caaa5c" d="M58 47h1v1h-1z"/>
  <path fill="#cb9f32" d="M60 46h1v1h-1z"/>
  <path fill="#cba564" d="M60 78h1v1h-1z"/>
  <path fill="#cbaa6f" d="M68 36h1v1h-1zM27 49h1v1h-1z"/>
  <path fill="#cdab6f" d="M26 37h1v1h-1zM33 61h1v1h-1zM38 78h1v1h-1z"/>
  <path fill="#cdab70" d="M29 68h2v1h-2zM67 68h3v1h-3z"/>
  <path fill="#cdcac8" d="M29 47h1v1h-1zM70 48h1v1h-1z"/>
  <path fill="#ceac70" d="M68 37h1v1h-1zM73 57h1v1h-1z"/>
  <path fill="#cfad70" d="M39 35h1v1h-1z"/>
  <path fill="#d0ad70" d="M68 38h1v1h-1z"/>
  <path fill="#d0ae71" d="M61 77h1v1h-1z"/>
  <path fill="#d16d92" d="M80 22h1v1h-1z"/>
  <path fill="#d1ae71" d="M25 42h1v1h-1zM69 66h1v1h-1z"/>
  <path fill="#d2af71" d="M51 34h1v1h-1zM38 39h1v1h-1z"/>
  <path fill="#d3b071" d="M40 27h1v1h-1zM40 29h1v1h-1zM60 44h1v1h-1z"/>
  <path fill="#d46e94" d="M77 11h1v1h-1zM17 16h1v1h-1z"/>
  <path fill="#d4b072" d="M47 44h1v1h-1zM26 57h1v1h-1z"/>
  <path fill="#d56f95" d="M75 15h1v1h-1zM76 16h1v1h-1z"/>
  <path fill="#d5b172" d="M28 66h1v1h-1z"/>
  <path fill="#d66e95" d="M82 16h1v1h-1z"/>
  <path fill="#d68600" d="M41 70h2v1h-2zM57 70h2v1h-2zM43 71h14v1h-14z"/>
  <path fill="#d6b272" d="M64 33h1v1h-1zM32 55h1v1h-1zM69 62h1v1h-1z"/>
  <path fill="#d76f96" d="M20 22h1v1h-1z"/>
  <path fill="#d78804" d="M42 71h1v1h-1z"/>
  <path fill="#d78805" d="M43 70h1v1h-1zM56 70h1v1h-1z"/>
  <path fill="#d7a732" d="M35 50h1v1h-1z"/>
  <path fill="#d8b373" d="M40 28h1v1h-1zM28 62h1v1h-1z"/>
  <path fill="#d8b473" d="M73 35h1v1h-1z"/>
  <path fill="#d9b473" d="M52 30h1v1h-1zM53 43h1v1h-1z"/>
  <path fill="#da8d0d" d="M57 71h1v1h-1z"/>
  <path fill="#dad5d0" d="M42 48h1v1h-1z"/>
  <path fill="#db7098" d="M73 12h1v1h-1zM21 20h1v1h-1z"/>
  <path fill="#dbb674" d="M39 28h1v1h-1zM39 44h1v1h-1z"/>
  <path fill="#dbd7d6" d="M69 51h1v1h-1z"/>
  <path fill="#dc7098" d="M74 14h1v1h-1zM79 20h1v1h-1z"/>
  <path fill="#dc9112" d="M55 70h1v1h-1z"/>
  <path fill="#dc9214" d="M44 70h1v1h-1z"/>
  <path fill="#dcb674" d="M74 47h1v1h-1zM72 49h1v1h-1z"/>
  <path fill="#dd9215" d="M58 69h1v1h-1z"/>
  <path fill="#ddb775" d="M67 55h1v1h-1z"/>
  <path fill="#ddbe88" d="M56 48h1v1h-1z"/>
  <path fill="#ddd9d7" d="M29 48h1v1h-1z"/>
  <path fill="#de9519" d="M41 69h1v1h-1z"/>
  <path fill="#deb875" d="M72 35h1v1h-1zM51 44h1v1h-1zM25 47h1v1h-1z"/>
  <path fill="#dfb975" d="M25 43h1v1h-1zM29 53h1v1h-1z"/>
  <path fill="#dfdbd8" d="M57 48h1v1h-1z"/>
  <path fill="#e0971e" d="M54 70h1v1h-1z"/>
  <path fill="#e19a22" d="M45 70h1v1h-1z"/>
  <path fill="#e1ba76" d="M35 43h1v1h-1zM64 43h1v1h-1zM74 44h1v1h-1zM65 65h1v1h-1z"/>
  <path fill="#e2bb76" d="M30 54h1v1h-1z"/>
  <path fill="#e3739c" d="M22 11h1v1h-1z"/>
  <path fill="#e3bc77" d="M48 42h1v1h-1zM73 56h1v1h-1z"/>
  <path fill="#e49f2a" d="M53 70h1v1h-1z"/>
  <path fill="#e4a02d" d="M46 70h1v1h-1zM41 71h1v1h-1z"/>
  <path fill="#e4bc77" d="M37 31h1v1h-1zM44 36h1v1h-1zM50 37h1v1h-1zM34 43h1v1h-1z"/>
  <path fill="#e4e0de" d="M30 51h1v1h-1z"/>
  <path fill="#e5c286" d="M43 48h1v1h-1z"/>
  <path fill="#e6a433" d="M47 70h1v1h-1zM52 70h1v1h-1z"/>
  <path fill="#e6be78" d="M62 76h1v1h-1z"/>
  <path fill="#e7749f" d="M77 17h1v1h-1z"/>
  <path fill="#e7a434" d="M51 70h1v1h-1z"/>
  <path fill="#e7b432" d="M62 50h1v1h-1z"/>
  <path fill="#e7bf78" d="M65 43h1v1h-1z"/>
  <path fill="#e8a738" d="M48 70h1v1h-1z"/>
  <path fill="#e8c078" d="M26 56h1v1h-1zM32 65h1v1h-1z"/>
  <path fill="#e9a93c" d="M49 70h2v1h-2zM48 72h3v1h-3z"/>
  <path fill="#e9c079" d="M70 53h1v1h-1z"/>
  <path fill="#e9d4b2" d="M65 55h1v1h-1z"/>
  <path fill="#eaaa3f" d="M51 72h1v1h-1z"/>
  <path fill="#eab52f" d="M64 50h1v1h-1z"/>
  <path fill="#eac179" d="M68 39h1v1h-1zM69 54h1v1h-1z"/>
  <path fill="#ebac42" d="M40 70h1v1h-1z"/>
  <path fill="#ecae44" d="M47 72h1v1h-1zM52 72h1v1h-1z"/>
  <path fill="#ecc37a" d="M49 32h1v1h-1zM73 36h1v1h-1z"/>
  <path fill="#ecd7b6" d="M34 55h1v1h-1z"/>
  <path fill="#edb047" d="M46 72h1v1h-1z"/>
  <path fill="#edb149" d="M57 69h1v1h-1zM53 72h1v1h-1z"/>
  <path fill="#edc37a" d="M26 38h1v1h-1zM25 44h1v1h-1zM37 77h1v1h-1z"/>
  <path fill="#ede9e7" d="M66 54h1v1h-1z"/>
  <path fill="#eeb34c" d="M58 71h1v1h-1z"/>
  <path fill="#eeb730" d="M67 46h1v1h-1z"/>
  <path fill="#eec47a" d="M50 31h1v1h-1z"/>
  <path fill="#eeeae9" d="M33 54h1v1h-1z"/>
  <path fill="#ef76a3" d="M26 13h1v1h-1zM17 15h1v1h-1zM18 20h1v1h-1z"/>
  <path fill="#efc57a" d="M62 60h1v1h-1z"/>
  <path fill="#efc57b" d="M68 62h1v1h-1z"/>
  <path fill="#efeae6" d="M68 49h1v1h-1z"/>
  <path fill="#efeae7" d="M59 53h1v1h-1z"/>
  <path fill="#efebe7" d="M61 54h1v1h-1z"/>
  <path fill="#efebe8" d="M67 51h1v1h-1z"/>
  <path fill="#efebe9" d="M30 47h1v3h-1zM69 47h1v3h-1zM42 49h1v2h-1zM57 49h1v2h-1zM30 50h2v1h-2zM68 50h2v1h-2zM41 51h1v1h-1zM58 51h4v1h-4zM68 51h1v1h-1zM31 51h4v2h-4zM40 52h1v1h-1zM59 52h3v1h-3zM66 52h3v1h-3zM32 53h8v1h-8zM60 53h8v1h-8zM34 54h4v1h-4zM62 54h4v1h-4z"/>
  <path fill="#f076a4" d="M82 15h1v1h-1z"/>
  <path fill="#f0b652" d="M45 72h1v1h-1z"/>
  <path fill="#f0c67b" d="M29 40h1v1h-1zM28 41h1v1h-1zM68 66h1v1h-1z"/>
  <path fill="#f0e5d1" d="M58 50h1v1h-1z"/>
  <path fill="#f0e6d2" d="M39 52h1v1h-1z"/>
  <path fill="#f0e8db" d="M41 50h1v1h-1z"/>
  <path fill="#f0e9de" d="M33 50h1v1h-1z"/>
  <path fill="#f0e9df" d="M31 49h1v1h-1zM60 50h1v1h-1z"/>
  <path fill="#f0eae4" d="M38 54h1v1h-1z"/>
  <path fill="#f0eae5" d="M58 52h1v1h-1z"/>
  <path fill="#f1b855" d="M59 70h1v1h-1z"/>
  <path fill="#f1b92e" d="M32 46h1v1h-1z"/>
  <path fill="#f1c67b" d="M48 33h1v1h-1zM30 39h1v1h-1zM74 46h1v1h-1zM29 62h1v1h-1z"/>
  <path fill="#f1e3c5" d="M68 47h1v1h-1zM65 52h1v1h-1z"/>
  <path fill="#f1e4cb" d="M68 48h1v1h-1z"/>
  <path fill="#f1e6d3" d="M32 50h1v1h-1z"/>
  <path fill="#f1e8db" d="M41 52h1v1h-1z"/>
  <path fill="#f277a5" d="M26 12h1v1h-1zM73 13h1v1h-1zM22 18h1v1h-1zM19 23h1v1h-1z"/>
  <path fill="#f2b956" d="M54 72h1v1h-1z"/>
  <path fill="#f2c77b" d="M60 38h1v1h-1z"/>
  <path fill="#f2c77c" d="M61 37h1v1h-1zM31 38h1v1h-1zM25 46h1v1h-1zM57 46h1v1h-1zM68 70h1v1h-1z"/>
  <path fill="#f2dfb6" d="M31 47h1v1h-1z"/>
  <path fill="#f2dfb8" d="M59 50h1v1h-1z"/>
  <path fill="#f2e1bb" d="M31 48h1v1h-1z"/>
  <path fill="#f2e6d5" d="M40 53h1v1h-1z"/>
  <path fill="#f2e7d7" d="M57 51h1v1h-1z"/>
  <path fill="#f3bb2e" d="M37 50h1v1h-1z"/>
  <path fill="#f3c87c" d="M29 66h1v1h-1z"/>
  <path fill="#f3dfb2" d="M40 51h1v1h-1z"/>
  <path fill="#f3e4cf" d="M42 51h1v1h-1z"/>
  <path fill="#f478a6" d="M25 14h1v1h-1z"/>
  <path fill="#f4bc5c" d="M40 69h1v1h-1z"/>
  <path fill="#f4c97c" d="M35 60h1v1h-1z"/>
  <path fill="#f4d894" d="M62 52h1v1h-1z"/>
  <path fill="#f4d897" d="M67 50h1v1h-1z"/>
  <path fill="#f4d998" d="M41 49h1v1h-1z"/>
  <path fill="#f4d99a" d="M34 50h1v1h-1z"/>
  <path fill="#f4da9e" d="M35 52h1v1h-1z"/>
  <path fill="#f4dba5" d="M61 50h1v1h-1z"/>
  <path fill="#f4e3c7" d="M56 49h1v1h-1z"/>
  <path fill="#f4e3ca" d="M35 55h1v1h-1zM64 55h1v1h-1z"/>
  <path fill="#f578a6" d="M81 20h1v1h-1z"/>
  <path fill="#f5be60" d="M42 69h1v1h-1z"/>
  <path fill="#f5bf61" d="M44 72h1v1h-1z"/>
  <path fill="#f5c879" d="M58 45h1v1h-1z"/>
  <path fill="#f5c97c" d="M32 37h1v1h-1zM55 42h1v1h-1zM63 75h1v1h-1z"/>
  <path fill="#f5c97d" d="M27 45h1v1h-1z"/>
  <path fill="#f5ca7d" d="M59 39h1v1h-1zM63 43h1v1h-1zM64 64h1v1h-1zM66 68h1v1h-1z"/>
  <path fill="#f5d587" d="M58 49h1v1h-1z"/>
  <path fill="#f5e1c0" d="M60 54h1v1h-1zM36 55h1v1h-1z"/>
  <path fill="#f5e1c1" d="M63 55h1v1h-1z"/>
  <path fill="#f6bf63" d="M55 72h1v1h-1z"/>
  <path fill="#f6ca7d" d="M51 30h1v1h-1zM69 39h1v1h-1z"/>
  <path fill="#f6d072" d="M62 51h1v1h-1z"/>
  <path fill="#f6d27e" d="M64 52h1v1h-1z"/>
  <path fill="#f6d483" d="M38 52h1v1h-1z"/>
  <path fill="#f6d485" d="M66 51h1v1h-1z"/>
  <path fill="#f6e0be" d="M43 49h1v1h-1z"/>
  <path fill="#f7c166" d="M59 69h1v1h-1z"/>
  <path fill="#f7c95a" d="M36 52h1v1h-1z"/>
  <path fill="#f7c95b" d="M63 52h1v1h-1z"/>
  <path fill="#f7cb7d" d="M36 43h1v1h-1zM49 45h1v1h-1zM74 45h1v1h-1zM73 55h1v1h-1z"/>
  <path fill="#f7cc62" d="M35 51h1v1h-1z"/>
  <path fill="#f7cd65" d="M58 48h1v1h-1z"/>
  <path fill="#f7d076" d="M41 48h1v1h-1z"/>
  <path fill="#f7deb5" d="M39 54h1v1h-1z"/>
  <path fill="#f879a8" d="M78 11h1v1h-1z"/>
  <path fill="#f8cb5c" d="M37 52h1v1h-1z"/>
  <path fill="#f8cc7d" d="M66 30h1v1h-1zM67 32h1v1h-1zM39 34h1v1h-1zM47 34h1v1h-1zM39 39h1v1h-1zM66 43h1v1h-1zM42 46h1v1h-1z"/>
  <path fill="#f8cc7e" d="M62 36h1v1h-1zM41 38h1v1h-1zM33 43h1v1h-1zM71 67h1v1h-1zM36 76h1v1h-1z"/>
  <path fill="#f8dcab" d="M62 55h1v1h-1z"/>
  <path fill="#f8dcad" d="M56 50h1v1h-1z"/>
  <path fill="#f979a9" d="M78 18h1v1h-1z"/>
  <path fill="#f9bf2d" d="M38 46h1v1h-1z"/>
  <path fill="#f9c66e" d="M43 72h1v1h-1z"/>
  <path fill="#f9cc7e" d="M52 29h1v1h-1zM33 36h1v1h-1zM29 44h1v1h-1zM72 45h1v1h-1zM28 52h1v1h-1zM33 64h1v1h-1zM31 68h1v1h-1z"/>
  <path fill="#f9dba9" d="M37 55h1v1h-1z"/>
  <path fill="#fabf2e" d="M61 46h1v1h-1z"/>
  <path fill="#fac133" d="M32 49h1v1h-1z"/>
  <path fill="#fac235" d="M39 51h1v1h-1z"/>
  <path fill="#fac338" d="M40 50h1v1h-1z"/>
  <path fill="#fac33b" d="M67 49h1v1h-1z"/>
  <path fill="#fac870" d="M56 72h1v1h-1z"/>
  <path fill="#facd7d" d="M41 45h1v1h-1z"/>
  <path fill="#facd7e" d="M38 30h1v1h-1zM25 45h1v1h-1zM26 55h1v1h-1z"/>
  <path fill="#fad9a3" d="M43 50h1v1h-1z"/>
  <path fill="#fb7aaa" d="M24 15h1v1h-1z"/>
  <path fill="#fbc02d" d="M33 46h2v1h-2zM65 46h2v1h-2zM32 47h3v2h-3zM65 47h3v2h-3zM38 47h3v3h-3zM59 47h3v3h-3zM33 49h2v1h-2zM65 49h2v2h-2zM38 50h2v1h-2zM37 51h2v1h-2zM64 51h1v1h-1z"/>
  <path fill="#fbc02e" d="M65 51h1v1h-1z"/>
  <path fill="#fbce7e" d="M70 38h1v1h-1z"/>
  <path fill="#fbce7f" d="M65 32h1v1h-1zM27 50h1v1h-1zM63 61h1v1h-1z"/>
  <path fill="#fbd89c" d="M58 53h1v1h-1z"/>
  <path fill="#fccf7f" d="M51 33h1v1h-1zM34 35h1v1h-1zM49 39h1v1h-1zM70 44h1v1h-1zM64 74h1v1h-1z"/>
  <path fill="#fd7bab" d="M21 11h1v1h-1z"/>
  <path fill="#fdd07f" d="M73 37h1v1h-1zM34 61h1v1h-1z"/>
  <path fill="#fdd48b" d="M41 53h1v1h-1z"/>
  <path fill="#fdd48e" d="M57 52h1v1h-1z"/>
  <path fill="#fe7bac" d="M74 12h1v1h-1z"/>
  <path fill="#fecf7b" d="M40 71h1v1h-1z"/>
  <path fill="#fecf7c" d="M42 72h1v1h-1z"/>
  <path fill="#fed07e" d="M57 72h1v1h-1z"/>
  <path fill="#fed07f" d="M35 34h1v1h-1zM63 35h1v1h-1zM43 37h1v1h-1zM71 37h1v1h-1zM72 50h1v1h-1zM66 69h1v1h-1zM65 73h1v1h-1z"/>
  <path fill="#fed080" d="M38 37h1v1h-1zM58 40h1v1h-1zM56 47h1v1h-1zM71 52h1v1h-1zM35 75h1v1h-1z"/>
  <path fill="#fed387" d="M59 54h1v1h-1zM38 55h1v1h-1z"/>
  <path fill="#fed389" d="M42 52h1v1h-1zM61 55h1v1h-1z"/>
  <path fill="#ff7bac" d="M17 11h4v1h-4zM79 11h4v1h-4zM75 12h8v1h-8zM17 12h9v2h-9zM74 13h9v1h-9zM17 14h8v1h-8zM75 14h8v1h-8zM76 15h6v1h-6zM18 15h6v2h-6zM77 16h5v1h-5zM18 17h5v1h-5zM78 17h4v1h-4zM18 18h4v2h-4zM79 18h3v2h-3zM19 20h2v2h-2zM80 20h1v2h-1zM19 22h1v1h-1z"/>
  <path fill="#ffb74d" d="M59 80h1v1h-1zM40 81h2v1h-2zM57 81h3v1h-3zM40 82h3v1h-3zM55 82h5v1h-5zM40 83h6v1h-6zM53 83h7v1h-7zM40 84h20v7h-20z"/>
  <path fill="#ffb74e" d="M43 82h1v1h-1z"/>
  <path fill="#ffb84d" d="M52 83h1v1h-1z"/>
  <path fill="#ffb84f" d="M46 83h1v1h-1z"/>
  <path fill="#ffb952" d="M58 80h1v1h-1z"/>
  <path fill="#ffbc57" d="M54 82h1v1h-1zM51 83h1v1h-1z"/>
  <path fill="#ffbc58" d="M40 80h1v1h-1z"/>
  <path fill="#ffbd58" d="M56 81h1v1h-1z"/>
  <path fill="#ffbe5a" d="M47 83h1v1h-1z"/>
  <path fill="#ffbf5c" d="M59 79h1v1h-1z"/>
  <path fill="#ffbf5e" d="M44 82h1v1h-1zM50 83h1v1h-1z"/>
  <path fill="#ffc05f" d="M48 83h1v1h-1z"/>
  <path fill="#ffc060" d="M42 81h1v1h-1z"/>
  <path fill="#ffc261" d="M49 83h1v1h-1z"/>
  <path fill="#ffc76d" d="M53 82h1v1h-1z"/>
  <path fill="#ffc86d" d="M57 80h1v1h-1z"/>
  <path fill="#ffca72" d="M45 82h1v1h-1z"/>
  <path fill="#ffca73" d="M55 81h1v1h-1z"/>
  <path fill="#ffcc75" d="M41 80h1v1h-1z"/>
  <path fill="#ffce79" d="M43 81h1v1h-1z"/>
  <path fill="#ffcf7c" d="M58 79h1v1h-1zM52 82h1v1h-1z"/>
  <path fill="#ffd07e" d="M46 82h1v1h-1z"/>
  <path fill="#ffd07f" d="M40 79h1v1h-1z"/>
  <path fill="#ffd080" d="M59 78h1v1h-1z"/>
  <path fill="#ffd17f" d="M56 69h1v1h-1zM56 80h1v1h-1z"/>
  <path fill="#ffd180" d="M39 29h1v2h-1zM38 31h2v1h-2zM51 31h1v1h-1zM66 31h1v2h-1zM37 32h3v1h-3zM50 32h2v1h-2zM36 33h4v1h-4zM49 33h2v1h-2zM65 33h3v1h-3zM36 34h3v1h-3zM48 34h3v1h-3zM64 34h4v2h-4zM35 35h4v1h-4zM46 35h5v1h-5zM34 36h5v1h-5zM45 36h6v1h-6zM63 36h5v1h-5zM72 36h1v2h-1zM33 37h5v1h-5zM44 37h6v1h-6zM62 37h6v1h-6zM32 38h6v1h-6zM42 38h8v1h-8zM61 38h7v1h-7zM71 38h3v1h-3zM31 39h7v1h-7zM40 39h9v1h-9zM60 39h8v1h-8zM70 39h4v1h-4zM30 40h19v1h-19zM59 40h15v1h-15zM26 39h1v3h-1zM29 41h20v1h-20zM57 41h17v1h-17zM26 42h22v1h-22zM56 42h18v1h-18zM26 43h7v1h-7zM37 43h11v1h-11zM54 43h9v1h-9zM67 43h7v1h-7zM26 44h3v1h-3zM40 44h7v1h-7zM52 44h8v1h-8zM71 44h3v1h-3zM42 45h5v1h-5zM50 45h8v1h-8zM43 46h14v1h-14zM43 47h13v1h-13zM26 45h1v6h-1zM73 45h1v6h-1zM44 48h12v3h-12zM43 51h13v1h-13zM26 51h2v2h-2zM72 51h2v2h-2zM43 52h14v1h-14zM26 53h3v1h-3zM42 53h16v1h-16zM71 53h3v1h-3zM26 54h4v1h-4zM41 54h18v1h-18zM70 54h4v1h-4zM27 55h5v1h-5zM39 55h22v1h-22zM68 55h5v1h-5zM27 56h46v4h-46zM36 60h26v1h-26zM35 61h28v1h-28zM30 62h38v1h-38zM27 63h46v1h-46zM34 64h30v1h-30zM33 65h32v1h-32zM30 66h38v1h-38zM28 67h43v1h-43zM32 68h34v1h-34zM31 69h9v1h-9zM43 69h13v1h-13zM60 69h6v1h-6zM30 70h10v1h-10zM60 70h8v1h-8zM31 71h9v1h-9zM59 71h9v1h-9zM32 72h10v1h-10zM58 72h9v1h-9zM33 73h32v1h-32zM34 74h30v1h-30zM36 75h27v1h-27zM37 76h25v1h-25zM38 77h23v1h-23zM39 78h20v1h-20zM41 79h17v1h-17zM42 80h14v1h-14zM44 81h11v1h-11zM47 82h5v1h-5z"/>
  <path fill="#ffd182" d="M40 54h1v1h-1z"/>
  <path fill="#ffd282" d="M56 51h1v1h-1z"/>
</svg>