<?xml version="1.0" encoding="UTF-8"?>
<svg xmlns="http://www.w3.org/2000/svg" width="100" height="100" viewBox="0 0 100 100" role="img" aria-labelledby="title" shape-rendering="crispEdges">
  <title id="title">icons8 counter strike 100</title>
  <desc>Pixel-perfect vector conversion from the supplied PNG, preserving transparency.</desc>
  <path fill="#000000" fill-opacity="0.0039" d="M93 41h1v1h-1zM93 49h1v1h-1zM33 63h1v1h-1zM54 76h1v1h-1zM61 82h1v1h-1z"/>
  <path fill="#007f7f" fill-opacity="0.0078" d="M58 11h1v1h-1zM71 24h1v1h-1zM58 37h1v1h-1zM34 43h1v1h-1zM91 60h1v1h-1zM33 65h1v1h-1z"/>
  <path fill="#555555" fill-opacity="0.0118" d="M34 31h1v1h-1zM70 42h1v1h-1zM73 60h1v1h-1zM32 67h1v1h-1z"/>
  <path fill="#3f3f3f" fill-opacity="0.0157" d="M49 8h1v1h-1zM70 25h1v1h-1zM70 28h1v1h-1zM37 29h1v1h-1zM62 62h1v1h-1z"/>
  <path fill="#333366" fill-opacity="0.0196" d="M61 16h1v1h-1zM88 20h1v1h-1zM64 26h1v1h-1zM33 84h1v1h-1z"/>
  <path fill="#2a5555" fill-opacity="0.0235" d="M57 17h1v1h-1zM61 36h1v1h-1z"/>
  <path fill="#484848" fill-opacity="0.0275" d="M87 20h1v1h-1zM58 38h1v1h-1zM74 52h1v1h-1zM37 76h1v1h-1z"/>
  <path fill="#3f3f3f" fill-opacity="0.0314" d="M27 43h1v1h-1zM92 48h1v1h-1zM27 56h1v1h-1zM44 59h1v1h-1zM8 60h1v1h-1zM43 61h1v1h-1z"/>
  <path fill="#385555" fill-opacity="0.0353" d="M57 35h1v1h-1zM8 39h1v1h-1zM54 66h1v1h-1zM54 84h1v1h-1z"/>
  <path fill="#334c4c" fill-opacity="0.0392" d="M72 23h1v1h-1zM93 58h1v1h-1zM42 64h1v1h-1z"/>
  <path fill="#2e4545" fill-opacity="0.0431" d="M92 40h1v1h-1zM70 56h1v1h-1zM40 68h1v1h-1z"/>
  <path fill="#364848" fill-opacity="0.0549" d="M65 24h1v1h-1zM37 26h1v1h-1zM69 30h1v1h-1z"/>
  <path fill="#334455" fill-opacity="0.0588" d="M63 26h1v1h-1zM57 34h1v1h-1z"/>
  <path fill="#3c4b4b" fill-opacity="0.0667" d="M82 20h1v1h-1zM75 47h15v1h-15zM75 52h14v1h-14zM38 71h1v1h-1z"/>
  <path fill="#384655" fill-opacity="0.0706" d="M70 48h1v1h-1z"/>
  <path fill="#354350" fill-opacity="0.0745" d="M57 52h1v1h-1zM60 58h1v1h-1z"/>
  <path fill="#3c4855" fill-opacity="0.0824" d="M62 70h1v1h-1zM63 85h1v1h-1zM33 91h1v1h-1z"/>
  <path fill="#394551" fill-opacity="0.0863" d="M79 16h1v1h-1zM73 39h1v1h-1zM31 69h1v1h-1zM36 78h1v1h-1z"/>
  <path fill="#37424d" fill-opacity="0.0902" d="M45 17h1v1h-1zM39 20h1v1h-1zM37 28h1v1h-1z"/>
  <path fill="#354a4a" fill-opacity="0.0941" d="M60 16h1v1h-1zM72 51h1v1h-1zM59 89h1v1h-1z"/>
  <path fill="#334751" fill-opacity="0.098" d="M71 50h1v1h-1zM24 60h1v1h-1zM33 89h1v1h-1z"/>
  <path fill="#3a444e" fill-opacity="0.102" d="M38 22h1v1h-1zM37 27h1v1h-1zM59 35h1v1h-1zM24 39h1v1h-1zM62 84h1v1h-1z"/>
  <path fill="#34464f" fill-opacity="0.1137" d="M68 33h1v1h-1zM6 58h1v1h-1z"/>
  <path fill="#394a52" fill-opacity="0.1216" d="M43 17h1v1h-1zM6 41h1v1h-1z"/>
  <path fill="#37474f" fill-opacity="0.1255" d="M56 9h1v1h-1zM92 59h1v1h-1zM30 71h1v1h-1zM54 75h1v1h-1z"/>
  <path fill="#36454d" fill-opacity="0.1294" d="M79 17h1v1h-1zM50 63h1v1h-1z"/>
  <path fill="#344352" fill-opacity="0.1333" d="M90 39h1v1h-1z"/>
  <path fill="#3a4850" fill-opacity="0.1373" d="M70 43h1v1h-1z"/>
  <path fill="#354950" fill-opacity="0.149" d="M47 10h1v1h-1zM70 29h1v1h-1z"/>
  <path fill="#34474e" fill-opacity="0.1529" d="M58 16h1v1h-1zM27 85h1v1h-1z"/>
  <path fill="#374450" fill-opacity="0.1608" d="M65 86h1v1h-1z"/>
  <path fill="#36484e" fill-opacity="0.1647" d="M79 18h1v1h-1z"/>
  <path fill="#35474d" fill-opacity="0.1686" d="M61 17h1v1h-1zM65 36h1v1h-1zM70 44h1v4h-1z"/>
  <path fill="#344551" fill-opacity="0.1725" d="M62 69h1v1h-1z"/>
  <path fill="#38494f" fill-opacity="0.1765" d="M58 12h1v1h-1z"/>
  <path fill="#37484d" fill-opacity="0.1804" d="M54 8h1v1h-1zM48 9h1v1h-1zM71 58h1v1h-1zM49 61h1v1h-1zM61 81h1v1h-1z"/>
  <path fill="#364651" fill-opacity="0.1843" d="M57 45h1v1h-1z"/>
  <path fill="#35454f" fill-opacity="0.1882" d="M34 32h1v1h-1z"/>
  <path fill="#39484e" fill-opacity="0.1922" d="M46 12h1v1h-1zM41 18h1v1h-1z"/>
  <path fill="#38474c" fill-opacity="0.1961" d="M59 18h1v1h-1zM34 56h1v1h-1zM39 69h1v1h-1zM28 81h1v1h-1z"/>
  <path fill="#374650" fill-opacity="0.2" d="M59 56h1v1h-1zM66 89h1v1h-1z"/>
  <path fill="#35444e" fill-opacity="0.2039" d="M58 54h1v1h-1z"/>
  <path fill="#34484c" fill-opacity="0.2078" d="M56 51h1v1h-1zM27 91h1v1h-1z"/>
  <path fill="#37454e" fill-opacity="0.2157" d="M54 67h1v1h-1zM28 77h1v1h-1zM33 90h1v1h-1z"/>
  <path fill="#36484d" fill-opacity="0.2196" d="M74 60h1v1h-1zM62 63h1v1h-1zM29 75h1v1h-1z"/>
  <path fill="#354750" fill-opacity="0.2235" d="M72 59h1v1h-1z"/>
  <path fill="#38454d" fill-opacity="0.2314" d="M45 57h1v1h-1zM61 83h1v1h-1z"/>
  <path fill="#374850" fill-opacity="0.2353" d="M44 17h1v1h-1zM7 59h1v1h-1z"/>
  <path fill="#36474f" fill-opacity="0.2392" d="M40 19h1v1h-1zM7 40h1v1h-1zM34 57h1v1h-1z"/>
  <path fill="#384850" fill-opacity="0.2471" d="M78 18h1v1h-1z"/>
  <path fill="#37474f" fill-opacity="0.251" d="M62 36h1v1h-1zM90 60h1v1h-1zM62 68h1v1h-1zM33 83h1v1h-1z"/>
  <path fill="#36464e" fill-opacity="0.2549" d="M42 63h1v1h-1z"/>
  <path fill="#36454d" fill-opacity="0.2588" d="M34 50h1v1h-1z"/>
  <path fill="#35484f" fill-opacity="0.2627" d="M34 33h1v1h-1z"/>
  <path fill="#38474e" fill-opacity="0.2667" d="M63 18h15v1h-15z"/>
  <path fill="#364550" fill-opacity="0.2745" d="M46 58h1v1h-1z"/>
  <path fill="#38464d" fill-opacity="0.2824" d="M55 79h1v1h-1z"/>
  <path fill="#374550" fill-opacity="0.2863" d="M48 59h1v1h-1zM9 60h1v1h-1z"/>
  <path fill="#36474e" fill-opacity="0.2941" d="M9 39h1v1h-1zM54 85h1v1h-1z"/>
  <path fill="#354650" fill-opacity="0.298" d="M46 17h1v1h-1zM34 40h1v1h-1z"/>
  <path fill="#38454f" fill-opacity="0.302" d="M33 66h1v1h-1zM61 80h1v1h-1z"/>
  <path fill="#37474e" fill-opacity="0.3059" d="M71 41h1v1h-1z"/>
  <path fill="#36474d" fill-opacity="0.3098" d="M54 74h1v1h-1z"/>
  <path fill="#36464f" fill-opacity="0.3137" d="M54 47h1v1h-1z"/>
  <path fill="#35484e" fill-opacity="0.3176" d="M35 80h1v1h-1zM60 89h1v1h-1z"/>
  <path fill="#37474d" fill-opacity="0.3216" d="M51 64h1v1h-1zM28 80h1v1h-1z"/>
  <path fill="#36454e" fill-opacity="0.3294" d="M93 42h1v1h-1zM62 67h1v1h-1z"/>
  <path fill="#36484e" fill-opacity="0.3333" d="M80 16h1v1h-1zM34 34h1v1h-1zM61 79h1v1h-1z"/>
  <path fill="#384750" fill-opacity="0.3373" d="M55 80h1v1h-1z"/>
  <path fill="#37464f" fill-opacity="0.3412" d="M81 19h1v1h-1z"/>
  <path fill="#364750" fill-opacity="0.349" d="M50 8h1v1h-1zM35 31h1v1h-1zM23 60h1v1h-1zM75 60h1v1h-1zM37 75h1v1h-1z"/>
  <path fill="#35464f" fill-opacity="0.3529" d="M23 39h1v1h-1zM74 39h1v1h-1zM93 50h1v1h-1zM43 60h1v1h-1zM66 87h1v1h-1z"/>
  <path fill="#38464e" fill-opacity="0.3569" d="M89 39h1v1h-1z"/>
  <path fill="#36474f" fill-opacity="0.3647" d="M34 55h1v1h-1z"/>
  <path fill="#35454d" fill-opacity="0.3725" d="M72 40h1v1h-1z"/>
  <path fill="#37474f" fill-opacity="0.3765" d="M61 61h1v1h-1z"/>
  <path fill="#37464e" fill-opacity="0.3804" d="M54 48h1v1h-1zM26 58h1v1h-1z"/>
  <path fill="#36484f" fill-opacity="0.3882" d="M26 41h1v1h-1zM28 82h1v1h-1z"/>
  <path fill="#38474f" fill-opacity="0.3922" d="M55 78h1v1h-1z"/>
  <path fill="#37464e" fill-opacity="0.3961" d="M57 10h1v1h-1zM58 13h1v1h-1z"/>
  <path fill="#374650" fill-opacity="0.4" d="M62 18h1v1h-1zM64 25h1v1h-1zM10 39h13v1h-13zM75 39h14v1h-14zM34 58h1v1h-1zM10 60h13v1h-13zM76 60h14v1h-14z"/>
  <path fill="#36474f" fill-opacity="0.4039" d="M66 35h1v1h-1zM55 50h1v1h-1zM62 64h1v1h-1zM62 66h1v1h-1zM27 86h1v1h-1z"/>
  <path fill="#374650" fill-opacity="0.4118" d="M55 81h1v1h-1zM54 88h1v1h-1zM65 89h1v1h-1z"/>
  <path fill="#37484f" fill-opacity="0.4157" d="M68 32h1v1h-1zM61 78h1v1h-1z"/>
  <path fill="#36474e" fill-opacity="0.4196" d="M10 44h1v12h-1zM89 53h1v3h-1zM32 68h1v1h-1z"/>
  <path fill="#36464d" fill-opacity="0.4235" d="M34 35h1v1h-1z"/>
  <path fill="#37474e" fill-opacity="0.4314" d="M56 34h1v1h-1zM60 59h1v1h-1zM54 65h1v1h-1z"/>
  <path fill="#37474e" fill-opacity="0.4353" d="M35 41h1v1h-1z"/>
  <path fill="#36464f" fill-opacity="0.4392" d="M58 15h1v1h-1z"/>
  <path fill="#37464f" fill-opacity="0.451" d="M46 13h1v1h-1zM41 66h1v1h-1zM34 81h1v1h-1z"/>
  <path fill="#36464f" fill-opacity="0.4549" d="M38 23h1v1h-1zM89 52h1v1h-1z"/>
  <path fill="#36474e" fill-opacity="0.4588" d="M60 17h1v1h-1zM67 34h1v1h-1zM38 70h1v1h-1z"/>
  <path fill="#36474f" fill-opacity="0.4627" d="M81 20h1v1h-1z"/>
  <path fill="#37464f" fill-opacity="0.4667" d="M93 43h1v1h-1zM62 65h1v1h-1zM36 77h1v1h-1zM61 89h1v1h-1z"/>
  <path fill="#36474d" fill-opacity="0.4745" d="M93 57h1v1h-1zM25 59h1v1h-1z"/>
  <path fill="#36474f" fill-opacity="0.4784" d="M36 31h1v1h-1z"/>
  <path fill="#37464e" fill-opacity="0.4824" d="M25 40h1v1h-1z"/>
  <path fill="#37474e" fill-opacity="0.4863" d="M63 27h1v1h-1zM32 91h1v1h-1z"/>
  <path fill="#37474f" fill-opacity="0.4902" d="M65 25h1v1h-1zM63 36h1v1h-1zM54 73h1v1h-1z"/>
  <path fill="#36464e" fill-opacity="0.4941" d="M58 14h1v1h-1z"/>
  <path fill="#36464e" fill-opacity="0.498" d="M54 86h1v1h-1zM64 89h1v1h-1z"/>
  <path fill="#37474f" fill-opacity="0.502" d="M80 17h1v1h-1zM56 18h1v1h-1zM28 78h1v1h-1z"/>
  <path fill="#37474f" fill-opacity="0.5059" d="M64 27h1v1h-1z"/>
  <path fill="#36464f" fill-opacity="0.5137" d="M34 36h1v1h-1z"/>
  <path fill="#36474f" fill-opacity="0.5176" d="M30 72h1v1h-1z"/>
  <path fill="#37464f" fill-opacity="0.5255" d="M58 34h1v1h-1z"/>
  <path fill="#36474f" fill-opacity="0.5294" d="M56 46h1v1h-1zM35 49h1v1h-1z"/>
  <path fill="#36474e" fill-opacity="0.5333" d="M62 89h1v1h-1z"/>
  <path fill="#37464e" fill-opacity="0.5373" d="M46 16h1v1h-1zM6 57h1v1h-1zM28 79h1v1h-1z"/>
  <path fill="#37464f" fill-opacity="0.5412" d="M6 42h1v1h-1zM35 48h1v1h-1zM91 48h1v1h-1z"/>
  <path fill="#37474e" fill-opacity="0.5451" d="M35 40h1v1h-1z"/>
  <path fill="#36474e" fill-opacity="0.549" d="M60 35h1v1h-1z"/>
  <path fill="#36464f" fill-opacity="0.5529" d="M57 44h1v1h-1zM55 82h1v1h-1z"/>
  <path fill="#37474f" fill-opacity="0.5569" d="M56 17h1v1h-1z"/>
  <path fill="#37474e" fill-opacity="0.5608" d="M64 86h1v1h-1zM28 91h1v1h-1z"/>
  <path fill="#36464f" fill-opacity="0.5647" d="M64 24h1v1h-1zM63 89h1v1h-1z"/>
  <path fill="#36464f" fill-opacity="0.5686" d="M34 54h1v1h-1zM34 59h1v1h-1z"/>
  <path fill="#37474f" fill-opacity="0.5765" d="M64 36h1v1h-1z"/>
  <path fill="#37464f" fill-opacity="0.5804" d="M44 58h1v1h-1z"/>
  <path fill="#37464f" fill-opacity="0.5922" d="M80 18h1v1h-1zM57 19h1v1h-1z"/>
  <path fill="#37464e" fill-opacity="0.5961" d="M42 62h1v1h-1z"/>
  <path fill="#37474e" fill-opacity="0.6" d="M54 68h1v1h-1z"/>
  <path fill="#36474f" fill-opacity="0.6039" d="M53 8h1v1h-1zM89 22h1v1h-1zM71 23h1v1h-1zM37 31h1v1h-1zM40 67h1v1h-1z"/>
  <path fill="#36464e" fill-opacity="0.6078" d="M69 26h1v1h-1zM56 35h1v1h-1z"/>
  <path fill="#37464e" fill-opacity="0.6118" d="M35 47h1v1h-1zM34 53h1v1h-1zM31 70h1v1h-1z"/>
  <path fill="#37474f" fill-opacity="0.6157" d="M89 21h1v1h-1zM57 53h1v1h-1z"/>
  <path fill="#36474f" fill-opacity="0.6196" d="M46 14h1v1h-1zM54 72h1v1h-1zM55 77h1v1h-1zM31 91h1v1h-1z"/>
  <path fill="#36464e" fill-opacity="0.6235" d="M46 15h1v1h-1zM68 31h1v1h-1z"/>
  <path fill="#37474f" fill-opacity="0.6275" d="M91 40h1v1h-1z"/>
  <path fill="#37474f" fill-opacity="0.6314" d="M70 24h1v1h-1zM54 87h1v1h-1z"/>
  <path fill="#37464e" fill-opacity="0.6353" d="M61 77h1v1h-1zM66 88h1v1h-1z"/>
  <path fill="#36464e" fill-opacity="0.6392" d="M39 21h1v1h-1zM34 37h1v1h-1zM50 62h1v1h-1zM27 87h1v1h-1z"/>
  <path fill="#36474f" fill-opacity="0.6431" d="M28 83h1v1h-1z"/>
  <path fill="#37474e" fill-opacity="0.6471" d="M51 8h1v1h-1zM59 57h1v1h-1z"/>
  <path fill="#37464f" fill-opacity="0.6667" d="M52 8h1v1h-1zM29 91h2v1h-2z"/>
  <path fill="#36474e" fill-opacity="0.6745" d="M93 51h1v1h-1z"/>
  <path fill="#36464f" fill-opacity="0.6784" d="M33 82h1v1h-1z"/>
  <path fill="#37464f" fill-opacity="0.6824" d="M57 36h1v1h-1zM73 51h1v1h-1zM34 52h1v1h-1z"/>
  <path fill="#37474e" fill-opacity="0.6863" d="M55 9h1v1h-1zM55 46h1v1h-1z"/>
  <path fill="#37464f" fill-opacity="0.6902" d="M71 49h1v1h-1z"/>
  <path fill="#36464f" fill-opacity="0.6941" d="M54 71h1v1h-1z"/>
  <path fill="#36474e" fill-opacity="0.698" d="M57 43h1v1h-1z"/>
  <path fill="#37474e" fill-opacity="0.702" d="M92 49h1v1h-1zM49 60h1v1h-1z"/>
  <path fill="#37464f" fill-opacity="0.7059" d="M34 51h1v1h-1zM35 79h1v1h-1z"/>
  <path fill="#36464e" fill-opacity="0.7098" d="M38 24h1v1h-1z"/>
  <path fill="#36474e" fill-opacity="0.7137" d="M93 56h1v1h-1zM32 86h1v1h-1z"/>
  <path fill="#36474f" fill-opacity="0.7176" d="M55 83h1v1h-1z"/>
  <path fill="#37464e" fill-opacity="0.7216" d="M6 43h1v1h-1zM54 46h1v1h-1zM6 56h1v1h-1zM37 74h1v1h-1zM29 76h1v1h-1z"/>
  <path fill="#37474e" fill-opacity="0.7255" d="M92 41h1v1h-1zM30 73h1v1h-1z"/>
  <path fill="#36474f" fill-opacity="0.7294" d="M71 56h1v1h-1z"/>
  <path fill="#36464f" fill-opacity="0.7333" d="M47 11h1v1h-1zM11 43h16v1h-16zM75 43h18v1h-18zM54 49h1v1h-1zM11 56h16v1h-16zM72 56h17v1h-17zM34 60h1v1h-1z"/>
  <path fill="#37464e" fill-opacity="0.7373" d="M69 27h1v1h-1z"/>
  <path fill="#37474f" fill-opacity="0.7412" d="M35 46h1v1h-1zM71 57h1v1h-1z"/>
  <path fill="#37474f" fill-opacity="0.7451" d="M58 55h1v1h-1zM32 87h1v1h-1z"/>
  <path fill="#36464e" fill-opacity="0.749" d="M6 44h1v12h-1zM93 52h1v4h-1zM57 88h1v1h-1z"/>
  <path fill="#37474f" fill-opacity="0.7569" d="M52 64h1v1h-1z"/>
  <path fill="#36464e" fill-opacity="0.7647" d="M69 25h1v1h-1zM57 42h1v1h-1zM54 70h1v1h-1zM61 73h1v1h-1z"/>
  <path fill="#36474f" fill-opacity="0.7686" d="M42 18h1v1h-1zM91 59h1v1h-1z"/>
  <path fill="#36474e" fill-opacity="0.7725" d="M47 58h1v1h-1z"/>
  <path fill="#37464e" fill-opacity="0.7765" d="M63 25h1v1h-1zM55 88h1v1h-1z"/>
  <path fill="#37464f" fill-opacity="0.7804" d="M60 18h1v1h-1z"/>
  <path fill="#36474f" fill-opacity="0.7843" d="M56 19h1v1h-1z"/>
  <path fill="#36474e" fill-opacity="0.7882" d="M61 72h1v1h-1zM32 85h1v1h-1z"/>
  <path fill="#37474f" fill-opacity="0.7961" d="M83 22h1v1h-1zM34 38h1v1h-1zM56 88h1v1h-1z"/>
  <path fill="#37474e" fill-opacity="0.8" d="M84 22h1v1h-1zM53 64h1v1h-1zM54 69h1v1h-1zM27 88h1v1h-1z"/>
  <path fill="#36464f" fill-opacity="0.8039" d="M82 22h1v1h-1z"/>
  <path fill="#36464f" fill-opacity="0.8078" d="M79 19h1v1h-1zM65 26h1v1h-1zM36 40h1v1h-1zM27 90h1v1h-1z"/>
  <path fill="#37474e" fill-opacity="0.8157" d="M41 65h1v1h-1zM33 67h1v1h-1z"/>
  <path fill="#36464f" fill-opacity="0.8196" d="M60 60h1v1h-1z"/>
  <path fill="#36464e" fill-opacity="0.8235" d="M46 18h1v1h-1z"/>
  <path fill="#37464f" fill-opacity="0.8314" d="M49 9h1v1h-1z"/>
  <path fill="#37464f" fill-opacity="0.8353" d="M57 41h1v1h-1zM43 59h1v1h-1zM62 85h1v1h-1z"/>
  <path fill="#36474e" fill-opacity="0.8392" d="M92 58h1v1h-1z"/>
  <path fill="#36474f" fill-opacity="0.8431" d="M10 43h1v1h-1zM10 56h1v1h-1zM89 56h1v1h-1zM34 61h1v1h-1z"/>
  <path fill="#37464f" fill-opacity="0.8471" d="M68 30h1v1h-1z"/>
  <path fill="#37464e" fill-opacity="0.851" d="M56 33h1v1h-1z"/>
  <path fill="#36474f" fill-opacity="0.8549" d="M57 16h1v1h-1zM73 59h1v1h-1zM32 88h1v1h-1z"/>
  <path fill="#36474f" fill-opacity="0.8588" d="M85 22h1v1h-1zM35 45h1v1h-1z"/>
  <path fill="#36464e" fill-opacity="0.8627" d="M34 39h1v1h-1zM26 57h1v1h-1z"/>
  <path fill="#37474e" fill-opacity="0.8667" d="M80 22h2v1h-2zM26 42h1v1h-1zM39 68h1v1h-1zM61 74h1v1h-1z"/>
  <path fill="#36464e" fill-opacity="0.8784" d="M56 52h1v1h-1z"/>
  <path fill="#37474f" fill-opacity="0.8824" d="M58 19h1v1h-1zM58 88h1v1h-1z"/>
  <path fill="#37464e" fill-opacity="0.8902" d="M61 18h1v1h-1zM8 59h1v1h-1z"/>
  <path fill="#36464f" fill-opacity="0.8941" d="M71 42h1v1h-1zM61 76h1v1h-1z"/>
  <path fill="#36474f" fill-opacity="0.898" d="M84 21h1v1h-1zM8 40h1v1h-1zM28 84h1v1h-1zM61 84h1v1h-1zM27 89h1v1h-1z"/>
  <path fill="#37464e" fill-opacity="0.902" d="M36 76h1v1h-1z"/>
  <path fill="#37464f" fill-opacity="0.9059" d="M57 40h1v1h-1zM72 50h1v1h-1zM45 56h1v1h-1zM55 76h1v1h-1z"/>
  <path fill="#36474f" fill-opacity="0.9098" d="M30 74h1v1h-1z"/>
  <path fill="#36474e" fill-opacity="0.9137" d="M80 19h1v1h-1zM38 25h1v1h-1z"/>
  <path fill="#36464e" fill-opacity="0.9176" d="M86 22h1v1h-1zM61 62h1v1h-1z"/>
  <path fill="#37464f" fill-opacity="0.9216" d="M85 21h1v1h-1zM37 73h1v1h-1z"/>
  <path fill="#37474e" fill-opacity="0.9255" d="M79 22h1v1h-1zM38 30h1v1h-1zM57 33h1v1h-1zM46 57h1v1h-1z"/>
  <path fill="#36474e" fill-opacity="0.9294" d="M40 20h1v1h-1zM61 71h1v1h-1z"/>
  <path fill="#36464f" fill-opacity="0.9333" d="M73 22h6v1h-6zM88 22h1v1h-1zM90 48h1v1h-1zM42 61h1v1h-1z"/>
  <path fill="#37474e" fill-opacity="0.9373" d="M32 69h1v1h-1zM63 86h1v1h-1z"/>
  <path fill="#37474e" fill-opacity="0.9412" d="M48 10h1v1h-1zM57 11h1v1h-1zM7 58h1v1h-1z"/>
  <path fill="#37464f" fill-opacity="0.9451" d="M61 35h1v1h-1zM7 41h1v1h-1zM34 62h1v1h-1zM37 72h1v1h-1z"/>
  <path fill="#36464f" fill-opacity="0.949" d="M41 19h1v1h-1zM69 28h1v1h-1zM73 40h1v1h-1zM36 41h1v1h-1z"/>
  <path fill="#36474e" fill-opacity="0.9529" d="M56 10h1v1h-1zM60 82h1v1h-1z"/>
  <path fill="#37474f" fill-opacity="0.9569" d="M34 64h1v1h-1zM32 84h1v1h-1z"/>
  <path fill="#37464f" fill-opacity="0.9608" d="M66 24h1v1h-1zM38 31h1v1h-1zM59 34h1v1h-1zM35 44h1v1h-1zM55 84h1v1h-1z"/>
  <path fill="#36464e" fill-opacity="0.9647" d="M62 26h1v1h-1zM69 29h1v1h-1zM72 58h1v1h-1zM34 65h1v1h-1z"/>
  <path fill="#36474f" fill-opacity="0.9686" d="M83 21h1v1h-1zM87 22h1v1h-1zM63 28h1v1h-1zM35 42h1v1h-1zM38 69h1v1h-1zM61 75h1v1h-1z"/>
  <path fill="#36464f" fill-opacity="0.9725" d="M45 18h1v1h-1zM65 35h1v1h-1zM57 37h1v1h-1zM55 51h1v1h-1zM59 58h1v1h-1z"/>
  <path fill="#37464e" fill-opacity="0.9765" d="M57 39h1v1h-1zM24 40h1v1h-1zM35 50h1v1h-1zM24 59h1v1h-1zM51 63h1v1h-1z"/>
  <path fill="#37474e" fill-opacity="0.9804" d="M66 25h1v1h-1zM41 64h1v1h-1zM37 71h1v1h-1z"/>
  <path fill="#36474f" fill-opacity="0.9843" d="M86 21h1v1h-1zM39 22h1v1h-1zM64 28h1v1h-1zM31 71h1v1h-1zM35 78h1v1h-1z"/>
  <path fill="#36464e" fill-opacity="0.9882" d="M67 33h1v1h-1zM74 51h1v1h-1zM54 64h1v1h-1zM65 87h1v1h-1z"/>
  <path fill="#37464e" fill-opacity="0.9922" d="M72 22h1v1h-1zM38 29h1v1h-1zM56 45h1v1h-1zM71 48h1v1h-1zM57 54h1v1h-1zM44 57h1v1h-1zM48 58h1v1h-1zM50 61h1v1h-1zM33 81h1v1h-1z"/>
  <path fill="#37474f" fill-opacity="0.9961" d="M54 9h1v1h-1zM62 25h1v1h-1zM90 40h1v1h-1zM35 43h1v1h-1zM34 63h1v1h-1zM32 89h1v1h-1z"/>
  <path fill="#37474f" d="M50 9h4v1h-4zM49 10h7v1h-7zM48 11h9v1h-9zM47 12h11v4h-11zM47 16h10v1h-10zM47 17h9v2h-9zM43 18h2v1h-2zM42 19h14v1h-14zM59 19h20v1h-20zM41 20h40v1h-40zM40 21h43v1h-43zM87 21h2v1h-2zM40 22h32v1h-32zM39 23h32v1h-32zM39 24h25v1h-25zM67 24h3v1h-3zM39 25h23v1h-23zM67 25h2v1h-2zM38 26h24v1h-24zM66 26h3v1h-3zM38 27h25v2h-25zM65 27h4v2h-4zM39 29h30v1h-30zM39 30h29v2h-29zM35 32h33v1h-33zM58 33h9v1h-9zM60 34h7v1h-7zM35 33h21v3h-21zM62 35h3v1h-3zM35 36h22v2h-22zM35 38h23v1h-23zM35 39h22v1h-22zM9 40h15v1h-15zM74 40h16v1h-16zM37 40h20v2h-20zM8 41h18v1h-18zM72 41h20v1h-20zM7 42h19v1h-19zM72 42h21v1h-21zM36 42h21v3h-21zM36 45h20v1h-20zM71 43h4v5h-4zM72 48h18v1h-18zM36 46h18v4h-18zM72 49h20v1h-20zM36 50h19v1h-19zM73 50h20v1h-20zM35 51h20v1h-20zM75 51h18v1h-18zM35 52h21v1h-21zM35 53h22v2h-22zM35 55h23v1h-23zM7 43h3v14h-3zM90 52h3v5h-3zM35 56h10v1h-10zM46 56h13v1h-13zM7 57h19v1h-19zM47 57h12v1h-12zM72 57h21v1h-21zM35 57h9v2h-9zM8 58h18v1h-18zM49 58h10v1h-10zM73 58h19v1h-19zM9 59h15v1h-15zM49 59h11v1h-11zM74 59h17v1h-17zM35 59h8v2h-8zM50 60h10v1h-10zM51 61h10v2h-10zM35 61h7v3h-7zM52 63h10v1h-10zM35 64h6v2h-6zM34 66h7v1h-7zM34 67h6v1h-6zM33 68h6v1h-6zM33 69h5v1h-5zM55 64h7v7h-7zM32 70h6v1h-6zM32 71h5v1h-5zM31 72h6v3h-6zM55 71h6v5h-6zM30 75h7v1h-7zM30 76h6v1h-6zM29 77h7v1h-7zM29 78h6v3h-6zM56 76h5v6h-5zM56 82h4v1h-4zM29 81h4v3h-4zM56 83h5v2h-5zM29 84h3v1h-3zM55 85h7v1h-7zM55 86h8v1h-8zM55 87h10v1h-10zM59 88h7v1h-7zM28 85h4v5h-4zM28 90h5v1h-5z"/>
</svg>