<?xml version="1.0" encoding="UTF-8"?>
<svg xmlns="http://www.w3.org/2000/svg" width="100" height="100" viewBox="0 0 100 100" shape-rendering="crispEdges" role="img">
  <title>icons8-five-nights-at-freddys-100</title>
  <desc>Pixel-perfect vector conversion from the provided PNG icon. Transparent background preserved.</desc>
  <path fill="#ff0000" fill-opacity="0.0039" d="M19 54h1v1h-1z M63 92h1v1h-1z"/>
  <path fill="#7f7f7f" fill-opacity="0.0078" d="M36 5h1v1h-1z M22 43h1v1h-1z M22 49h1v1h-1z M77 49h1v1h-1z"/>
  <path fill="#555555" fill-opacity="0.0118" d="M62 16h1v1h-1z"/>
  <path fill="#aa5555" fill-opacity="0.0118" d="M77 43h1v1h-1z M77 46h1v1h-1z M81 57h1v1h-1z"/>
  <path fill="#7f7f7f" fill-opacity="0.0157" d="M32 26h1v1h-1z M22 46h1v1h-1z M18 57h1v1h-1z M80 65h1v1h-1z M36 92h1v1h-1z"/>
  <path fill="#333333" fill-opacity="0.0196" d="M43 4h1v1h-1z"/>
  <path fill="#996666" fill-opacity="0.0196" d="M17 22h1v1h-1z M82 22h1v1h-1z M67 26h1v1h-1z M19 65h1v1h-1z"/>
  <path fill="#7f7f55" fill-opacity="0.0235" d="M69 89h1v1h-1z"/>
  <path fill="#916d6d" fill-opacity="0.0275" d="M20 67h1v1h-1z M27 86h1v1h-1z M30 89h1v1h-1z"/>
  <path fill="#7f5f5f" fill-opacity="0.0314" d="M24 23h1v1h-1z M28 28h1v1h-1z M91 28h1v1h-1z M79 53h1v1h-1z M79 67h1v1h-1z"/>
  <path fill="#383838" fill-opacity="0.0353" d="M35 11h1v1h-1z"/>
  <path fill="#8d7155" fill-opacity="0.0353" d="M19 22h1v1h-1z M80 22h1v1h-1z M20 53h1v1h-1z"/>
  <path fill="#996666" fill-opacity="0.0392" d="M75 23h1v1h-1z M29 29h1v1h-1z M72 86h1v1h-1z"/>
  <path fill="#8b735c" fill-opacity="0.0431" d="M90 26h1v1h-1z M31 27h1v1h-1z M8 28h1v1h-1z M71 28h1v1h-1z M25 82h1v1h-1z"/>
  <path fill="#946a6a" fill-opacity="0.0471" d="M88 24h1v1h-1z M70 29h1v1h-1z M87 42h1v1h-1z M77 48h1v1h-1z"/>
  <path fill="#897562" fill-opacity="0.051" d="M9 26h1v1h-1z M68 27h1v1h-1z M91 36h1v1h-1z"/>
  <path fill="#484848" fill-opacity="0.0549" d="M34 6h1v2h-1z"/>
  <path fill="#916d5b" fill-opacity="0.0549" d="M11 24h1v1h-1z M12 42h1v1h-1z M22 48h1v1h-1z"/>
  <path fill="#886666" fill-opacity="0.0588" d="M89 40h1v1h-1z M77 47h1v1h-1z"/>
  <path fill="#3f3f3f" fill-opacity="0.0627" d="M54 4h1v1h-1z M68 20h1v1h-1z"/>
  <path fill="#8f6f5f" fill-opacity="0.0627" d="M8 36h1v1h-1z M22 47h1v1h-1z M74 82h1v1h-1z"/>
  <path fill="#3c3c3c" fill-opacity="0.0667" d="M31 20h1v1h-1z"/>
  <path fill="#876969" fill-opacity="0.0667" d="M18 22h1v1h-1z M81 22h1v1h-1z M10 40h1v1h-1z"/>
  <path fill="#8d7163" fill-opacity="0.0706" d="M69 28h1v1h-1z"/>
  <path fill="#936b5d" fill-opacity="0.0745" d="M30 28h1v1h-1z M75 71h1v1h-1z"/>
  <path fill="#3f3f3f" fill-opacity="0.0784" d="M62 15h1v1h-1z"/>
  <path fill="#8c7266" fill-opacity="0.0784" d="M21 52h1v1h-1z M81 61h1v1h-1z M24 71h1v1h-1z"/>
  <path fill="#3c3c3c" fill-opacity="0.0824" d="M63 9h1v1h-1z"/>
  <path fill="#916d61" fill-opacity="0.0824" d="M70 88h1v1h-1z"/>
  <path fill="#8b6868" fill-opacity="0.0863" d="M78 52h1v1h-1z M71 87h1v1h-1z"/>
  <path fill="#424242" fill-opacity="0.0902" d="M44 4h1v1h-1z"/>
  <path fill="#906e63" fill-opacity="0.0902" d="M85 43h1v1h-1z M18 61h1v1h-1z"/>
  <path fill="#8a6a5f" fill-opacity="0.0941" d="M14 43h1v1h-1z"/>
  <path fill="#896b62" fill-opacity="0.102" d="M88 41h1v1h-1z M28 87h1v1h-1z M29 88h1v1h-1z"/>
  <path fill="#8d715e" fill-opacity="0.1059" d="M89 25h1v1h-1z"/>
  <path fill="#3f3f3f" fill-opacity="0.1098" d="M61 5h1v1h-1z"/>
  <path fill="#886d64" fill-opacity="0.1098" d="M58 93h1v1h-1z"/>
  <path fill="#8c7260" fill-opacity="0.1137" d="M11 41h1v1h-1z"/>
  <path fill="#906e66" fill-opacity="0.1176" d="M86 23h1v1h-1z M10 25h1v1h-1z"/>
  <path fill="#8b6a62" fill-opacity="0.1216" d="M41 93h1v1h-1z"/>
  <path fill="#3f3f3f" fill-opacity="0.1255" d="M65 18h1v1h-1z"/>
  <path fill="#8f6f5f" fill-opacity="0.1255" d="M13 23h1v1h-1z M81 58h1v1h-1z"/>
  <path fill="#454545" fill-opacity="0.1294" d="M34 18h1v1h-1z"/>
  <path fill="#434343" fill-opacity="0.1333" d="M45 4h1v1h-1z M52 4h2v1h-2z M67 19h1v1h-1z"/>
  <path fill="#414141" fill-opacity="0.1373" d="M32 19h1v1h-1z"/>
  <path fill="#8a6d66" fill-opacity="0.1373" d="M65 91h1v1h-1z"/>
  <path fill="#8d7163" fill-opacity="0.1412" d="M18 58h1v1h-1z"/>
  <path fill="#896e60" fill-opacity="0.1451" d="M81 60h1v1h-1z M26 84h1v1h-1z"/>
  <path fill="#434343" fill-opacity="0.149" d="M46 4h1v1h-1z"/>
  <path fill="#8f6f62" fill-opacity="0.1529" d="M27 26h1v1h-1z"/>
  <path fill="#8c6c66" fill-opacity="0.1569" d="M67 90h1v1h-1z"/>
  <path fill="#8b6d61" fill-opacity="0.1647" d="M18 60h1v1h-1z"/>
  <path fill="#8e7064" fill-opacity="0.1686" d="M73 84h1v1h-1z"/>
  <path fill="#8b6e62" fill-opacity="0.1725" d="M72 26h1v1h-1z"/>
  <path fill="#8a6e63" fill-opacity="0.1804" d="M78 68h1v1h-1z M34 91h1v1h-1z"/>
  <path fill="#414141" fill-opacity="0.1843" d="M62 14h1v1h-1z"/>
  <path fill="#8d6c61" fill-opacity="0.1843" d="M28 29h1v1h-1z M32 90h1v1h-1z"/>
  <path fill="#3f3f3f" fill-opacity="0.1882" d="M35 10h1v1h-1z"/>
  <path fill="#434343" fill-opacity="0.1922" d="M51 4h1v1h-1z"/>
  <path fill="#8e7060" fill-opacity="0.1961" d="M21 68h1v1h-1z"/>
  <path fill="#414141" fill-opacity="0.2" d="M47 4h4v1h-4z"/>
  <path fill="#8c6e64" fill-opacity="0.2" d="M62 92h1v1h-1z"/>
  <path fill="#434343" fill-opacity="0.2078" d="M37 5h1v1h-1z"/>
  <path fill="#8b6e65" fill-opacity="0.2078" d="M71 29h1v1h-1z M77 51h1v1h-1z"/>
  <path fill="#8d6c63" fill-opacity="0.2118" d="M81 59h1v1h-1z"/>
  <path fill="#8f6f62" fill-opacity="0.2235" d="M22 51h1v1h-1z"/>
  <path fill="#8c6d65" fill-opacity="0.2275" d="M18 59h1v1h-1z"/>
  <path fill="#8e6c63" fill-opacity="0.2314" d="M90 38h1v1h-1z"/>
  <path fill="#8c6e61" fill-opacity="0.2353" d="M76 70h1v1h-1z"/>
  <path fill="#8e6c64" fill-opacity="0.2392" d="M37 92h1v1h-1z"/>
  <path fill="#434343" fill-opacity="0.251" d="M35 18h1v1h-1z M64 18h1v1h-1z"/>
  <path fill="#8b6f63" fill-opacity="0.251" d="M9 38h1v1h-1z M23 70h1v1h-1z M57 93h1v1h-1z"/>
  <path fill="#434343" fill-opacity="0.2667" d="M62 18h2v1h-2z"/>
  <path fill="#8c6f64" fill-opacity="0.2784" d="M65 25h1v1h-1z M91 29h1v1h-1z"/>
  <path fill="#8d6d63" fill-opacity="0.2824" d="M42 93h1v1h-1z"/>
  <path fill="#8b6c61" fill-opacity="0.2863" d="M34 25h1v1h-1z M91 35h1v1h-1z M77 69h1v1h-1z"/>
  <path fill="#434343" fill-opacity="0.298" d="M36 17h1v1h-1z"/>
  <path fill="#8c6e64" fill-opacity="0.298" d="M22 69h1v1h-1z"/>
  <path fill="#8c6f62" fill-opacity="0.3059" d="M25 24h1v1h-1z M8 29h1v1h-1z"/>
  <path fill="#8e6d64" fill-opacity="0.3098" d="M8 35h1v1h-1z"/>
  <path fill="#8c6f62" fill-opacity="0.3137" d="M21 43h1v1h-1z"/>
  <path fill="#8d6e61" fill-opacity="0.3176" d="M80 55h1v1h-1z"/>
  <path fill="#8b6c63" fill-opacity="0.3216" d="M78 43h1v1h-1z"/>
  <path fill="#8d6e62" fill-opacity="0.3255" d="M74 24h1v1h-1z M25 81h1v1h-1z"/>
  <path fill="#8b6d64" fill-opacity="0.3294" d="M80 64h1v1h-1z"/>
  <path fill="#8d6f63" fill-opacity="0.3333" d="M19 55h1v1h-1z"/>
  <path fill="#8e6d61" fill-opacity="0.3373" d="M23 23h1v1h-1z M74 81h1v1h-1z"/>
  <path fill="#434343" fill-opacity="0.3412" d="M63 8h1v1h-1z M62 13h1v1h-1z"/>
  <path fill="#896c63" fill-opacity="0.3412" d="M28 30h1v1h-1z"/>
  <path fill="#424242" fill-opacity="0.3451" d="M60 5h1v1h-1z"/>
  <path fill="#8d6e62" fill-opacity="0.3451" d="M76 23h1v1h-1z"/>
  <path fill="#8c6c64" fill-opacity="0.349" d="M19 64h1v1h-1z"/>
  <path fill="#414141" fill-opacity="0.3529" d="M63 6h1v1h-1z"/>
  <path fill="#8d6e63" fill-opacity="0.3529" d="M71 30h1v1h-1z"/>
  <path fill="#8b6d62" fill-opacity="0.3647" d="M56 93h1v1h-1z"/>
  <path fill="#424242" fill-opacity="0.3765" d="M36 16h1v1h-1z"/>
  <path fill="#8d6e63" fill-opacity="0.3804" d="M43 93h1v1h-1z"/>
  <path fill="#8d6e61" fill-opacity="0.3882" d="M26 25h1v1h-1z"/>
  <path fill="#8d6e62" fill-opacity="0.4157" d="M73 25h1v1h-1z M84 43h1v1h-1z"/>
  <path fill="#424242" fill-opacity="0.4196" d="M38 5h1v1h-1z"/>
  <path fill="#8c6d64" fill-opacity="0.4196" d="M79 66h1v1h-1z"/>
  <path fill="#8d6e63" fill-opacity="0.4235" d="M15 43h1v1h-1z"/>
  <path fill="#8c6e62" fill-opacity="0.4353" d="M20 66h1v1h-1z"/>
  <path fill="#424242" fill-opacity="0.4392" d="M35 9h1v1h-1z"/>
  <path fill="#424242" fill-opacity="0.451" d="M36 15h1v1h-1z"/>
  <path fill="#414141" fill-opacity="0.4549" d="M36 18h1v1h-1z"/>
  <path fill="#8c6e63" fill-opacity="0.4706" d="M55 93h1v1h-1z"/>
  <path fill="#414141" fill-opacity="0.4745" d="M68 21h1v1h-1z"/>
  <path fill="#424242" fill-opacity="0.4824" d="M31 21h1v1h-1z"/>
  <path fill="#8c6d63" fill-opacity="0.4824" d="M91 34h1v1h-1z"/>
  <path fill="#8d6c62" fill-opacity="0.4863" d="M90 27h1v1h-1z"/>
  <path fill="#8c6e63" fill-opacity="0.4902" d="M44 93h1v1h-1z"/>
  <path fill="#8d6d63" fill-opacity="0.4941" d="M85 23h1v1h-1z"/>
  <path fill="#424242" fill-opacity="0.498" d="M62 12h1v1h-1z"/>
  <path fill="#8c6e62" fill-opacity="0.498" d="M61 92h1v1h-1z"/>
  <path fill="#8d6d63" fill-opacity="0.502" d="M14 23h1v1h-1z M33 26h1v1h-1z M91 30h1v1h-1z M8 34h1v1h-1z"/>
  <path fill="#8c6e63" fill-opacity="0.5137" d="M9 27h1v1h-1z"/>
  <path fill="#8d6e62" fill-opacity="0.5176" d="M68 89h1v1h-1z M38 92h1v1h-1z"/>
  <path fill="#8c6e62" fill-opacity="0.5255" d="M8 30h1v1h-1z"/>
  <path fill="#424242" fill-opacity="0.5412" d="M35 6h1v1h-1z"/>
  <path fill="#8c6e63" fill-opacity="0.5412" d="M86 42h1v1h-1z"/>
  <path fill="#424242" fill-opacity="0.5451" d="M59 5h1v1h-1z"/>
  <path fill="#8d6e63" fill-opacity="0.5451" d="M72 85h1v1h-1z"/>
  <path fill="#414141" fill-opacity="0.5529" d="M36 14h1v1h-1z"/>
  <path fill="#8d6e63" fill-opacity="0.5529" d="M25 80h1v1h-1z M27 85h1v1h-1z"/>
  <path fill="#8d6d62" fill-opacity="0.5569" d="M13 42h1v1h-1z"/>
  <path fill="#8d6d63" fill-opacity="0.5647" d="M91 33h1v1h-1z M31 89h1v1h-1z M64 91h1v1h-1z"/>
  <path fill="#8c6e62" fill-opacity="0.5686" d="M66 26h1v1h-1z"/>
  <path fill="#8d6e63" fill-opacity="0.5725" d="M54 93h1v1h-1z"/>
  <path fill="#8c6d62" fill-opacity="0.5765" d="M45 93h1v1h-1z"/>
  <path fill="#8d6e62" fill-opacity="0.5804" d="M35 91h1v1h-1z"/>
  <path fill="#8d6e63" fill-opacity="0.5804" d="M76 42h1v1h-1z"/>
  <path fill="#8c6d63" fill-opacity="0.5843" d="M8 33h1v1h-1z"/>
  <path fill="#8c6f63" fill-opacity="0.5843" d="M23 42h1v1h-1z"/>
  <path fill="#8d6e62" fill-opacity="0.5882" d="M20 43h1v1h-1z M74 80h1v1h-1z"/>
  <path fill="#8c6d63" fill-opacity="0.5922" d="M79 43h1v1h-1z"/>
  <path fill="#8c6e62" fill-opacity="0.5961" d="M91 31h1v1h-1z"/>
  <path fill="#8d6e62" fill-opacity="0.6" d="M87 24h1v1h-1z"/>
  <path fill="#424242" fill-opacity="0.6039" d="M39 5h1v1h-1z"/>
  <path fill="#8d6e63" fill-opacity="0.6157" d="M80 63h1v1h-1z"/>
  <path fill="#8c6d62" fill-opacity="0.6196" d="M8 31h1v1h-1z"/>
  <path fill="#8d6e63" fill-opacity="0.6235" d="M12 24h1v1h-1z M74 72h1v1h-1z M26 83h1v1h-1z"/>
  <path fill="#8c6d62" fill-opacity="0.6275" d="M73 83h1v1h-1z M53 93h1v1h-1z"/>
  <path fill="#8c6d63" fill-opacity="0.6314" d="M16 43h1v1h-1z M83 43h1v1h-1z"/>
  <path fill="#8d6e63" fill-opacity="0.6353" d="M27 27h1v1h-1z"/>
  <path fill="#8c6d62" fill-opacity="0.6392" d="M19 63h1v1h-1z"/>
  <path fill="#8d6e63" fill-opacity="0.6431" d="M22 23h1v1h-1z M91 32h1v1h-1z"/>
  <path fill="#424242" fill-opacity="0.651" d="M63 7h1v1h-1z"/>
  <path fill="#8d6e62" fill-opacity="0.651" d="M77 23h1v1h-1z"/>
  <path fill="#8c6d63" fill-opacity="0.6549" d="M89 39h1v1h-1z M46 93h1v1h-1z"/>
  <path fill="#414141" fill-opacity="0.6588" d="M62 11h1v1h-1z"/>
  <path fill="#8d6d62" fill-opacity="0.6588" d="M8 32h1v1h-1z"/>
  <path fill="#8c6e63" fill-opacity="0.6627" d="M72 27h1v1h-1z"/>
  <path fill="#8d6d63" fill-opacity="0.6667" d="M79 54h1v1h-1z M47 93h1v1h-1z M52 93h1v1h-1z"/>
  <path fill="#8c6d64" fill-opacity="0.6745" d="M71 31h1v1h-1z"/>
  <path fill="#8c6d62" fill-opacity="0.6784" d="M28 31h1v1h-1z"/>
  <path fill="#8d6e62" fill-opacity="0.6784" d="M66 90h1v1h-1z"/>
  <path fill="#8c6d63" fill-opacity="0.6824" d="M10 39h1v1h-1z M20 54h1v1h-1z"/>
  <path fill="#414141" fill-opacity="0.6863" d="M58 5h1v1h-1z"/>
  <path fill="#8d6d63" fill-opacity="0.6863" d="M76 43h1v1h-1z"/>
  <path fill="#8d6d63" fill-opacity="0.6941" d="M90 37h1v1h-1z M51 93h1v1h-1z"/>
  <path fill="#8c6e62" fill-opacity="0.698" d="M23 43h1v1h-1z"/>
  <path fill="#424242" fill-opacity="0.7059" d="M68 22h1v1h-1z"/>
  <path fill="#424242" fill-opacity="0.7098" d="M36 13h1v1h-1z M31 22h1v1h-1z"/>
  <path fill="#8c6d62" fill-opacity="0.7098" d="M70 30h1v1h-1z M60 92h1v1h-1z M48 93h1v1h-1z"/>
  <path fill="#8d6e63" fill-opacity="0.7137" d="M9 37h1v1h-1z"/>
  <path fill="#414141" fill-opacity="0.7176" d="M35 8h1v1h-1z"/>
  <path fill="#8c6e62" fill-opacity="0.7176" d="M32 27h1v1h-1z M29 30h1v1h-1z M19 43h1v1h-1z M80 43h1v1h-1z"/>
  <path fill="#8d6d62" fill-opacity="0.7216" d="M33 90h1v1h-1z"/>
  <path fill="#8c6e63" fill-opacity="0.7255" d="M17 43h1v1h-1z M82 43h1v1h-1z"/>
  <path fill="#414141" fill-opacity="0.7333" d="M40 5h1v1h-1z"/>
  <path fill="#8c6e63" fill-opacity="0.7333" d="M18 43h1v1h-1z M81 43h1v1h-1z M80 56h1v1h-1z M49 93h2v1h-2z"/>
  <path fill="#8d6d63" fill-opacity="0.7373" d="M67 27h1v1h-1z"/>
  <path fill="#8c6e63" fill-opacity="0.7451" d="M19 56h1v1h-1z M25 79h1v1h-1z"/>
  <path fill="#414141" fill-opacity="0.749" d="M31 23h1v2h-1z M68 23h1v2h-1z"/>
  <path fill="#8d6d62" fill-opacity="0.749" d="M84 23h1v1h-1z"/>
  <path fill="#424242" fill-opacity="0.7569" d="M66 19h1v1h-1z"/>
  <path fill="#8d6d63" fill-opacity="0.7569" d="M15 23h1v1h-1z"/>
  <path fill="#8c6e62" fill-opacity="0.7608" d="M25 72h1v1h-1z M74 73h1v1h-1z M74 79h1v1h-1z M39 92h1v1h-1z"/>
  <path fill="#414141" fill-opacity="0.7647" d="M33 19h1v1h-1z"/>
  <path fill="#8d6d63" fill-opacity="0.7647" d="M69 88h1v1h-1z"/>
  <path fill="#424242" fill-opacity="0.7686" d="M62 6h1v1h-1z"/>
  <path fill="#8d6e62" fill-opacity="0.7725" d="M30 29h1v1h-1z M78 53h1v1h-1z"/>
  <path fill="#8c6e63" fill-opacity="0.7804" d="M74 71h1v1h-1z"/>
  <path fill="#8d6d63" fill-opacity="0.7843" d="M68 28h1v1h-1z M21 53h1v1h-1z"/>
  <path fill="#8c6e62" fill-opacity="0.7882" d="M31 28h1v1h-1z M69 29h1v1h-1z M22 42h1v1h-1z"/>
  <path fill="#8d6d62" fill-opacity="0.7922" d="M71 86h1v1h-1z"/>
  <path fill="#8d6e62" fill-opacity="0.8" d="M77 42h1v1h-1z M30 88h1v1h-1z"/>
  <path fill="#8c6d63" fill-opacity="0.8039" d="M28 86h1v1h-1z"/>
  <path fill="#424242" fill-opacity="0.8157" d="M57 5h1v1h-1z"/>
  <path fill="#8c6e63" fill-opacity="0.8157" d="M89 26h1v1h-1z"/>
  <path fill="#414141" fill-opacity="0.8235" d="M62 10h1v1h-1z"/>
  <path fill="#8c6e63" fill-opacity="0.8235" d="M87 41h1v1h-1z"/>
  <path fill="#8c6d62" fill-opacity="0.8314" d="M21 23h1v1h-1z M21 67h1v1h-1z"/>
  <path fill="#8d6e63" fill-opacity="0.8353" d="M78 23h1v1h-1z M10 26h1v1h-1z M12 41h1v1h-1z"/>
  <path fill="#8c6d62" fill-opacity="0.8392" d="M76 44h1v1h-1z M78 67h1v1h-1z"/>
  <path fill="#8b6d62" fill-opacity="0.8431" d="M25 71h1v1h-1z"/>
  <path fill="#8c6d63" fill-opacity="0.8471" d="M88 25h1v1h-1z"/>
  <path fill="#8d6e62" fill-opacity="0.851" d="M23 44h1v1h-1z"/>
  <path fill="#8d6d63" fill-opacity="0.8549" d="M29 87h1v1h-1z M70 87h1v1h-1z"/>
  <path fill="#8c6d62" fill-opacity="0.8588" d="M11 25h1v1h-1z M88 40h1v1h-1z"/>
  <path fill="#424242" fill-opacity="0.8627" d="M41 5h1v1h-1z"/>
  <path fill="#8d6e62" fill-opacity="0.8627" d="M25 78h1v1h-1z"/>
  <path fill="#8c6d63" fill-opacity="0.8667" d="M22 52h1v1h-1z"/>
  <path fill="#414141" fill-opacity="0.8706" d="M36 12h1v1h-1z"/>
  <path fill="#8d6e62" fill-opacity="0.8706" d="M11 40h1v1h-1z M79 65h1v1h-1z M25 73h1v1h-1z"/>
  <path fill="#8c6d63" fill-opacity="0.8745" d="M77 52h1v1h-1z"/>
  <path fill="#424242" fill-opacity="0.8784" d="M67 20h1v1h-1z"/>
  <path fill="#8d6e63" fill-opacity="0.8784" d="M24 24h1v1h-1z M80 62h1v1h-1z M20 65h1v1h-1z"/>
  <path fill="#414141" fill-opacity="0.8824" d="M32 20h1v1h-1z"/>
  <path fill="#8c6c62" fill-opacity="0.8824" d="M23 41h1v1h-1z"/>
  <path fill="#414141" fill-opacity="0.8863" d="M36 6h1v1h-1z"/>
  <path fill="#8d6d63" fill-opacity="0.8863" d="M64 25h1v1h-1z"/>
  <path fill="#8c6e62" fill-opacity="0.8902" d="M76 41h1v1h-1z"/>
  <path fill="#8d6e62" fill-opacity="0.8902" d="M75 24h1v1h-1z M19 62h1v1h-1z M74 74h1v1h-1z"/>
  <path fill="#8c6d63" fill-opacity="0.8941" d="M35 25h1v1h-1z M75 70h1v1h-1z M74 78h1v1h-1z M63 91h1v1h-1z"/>
  <path fill="#8c6d62" fill-opacity="0.902" d="M24 70h1v1h-1z"/>
  <path fill="#8c6d62" fill-opacity="0.9098" d="M59 92h1v1h-1z"/>
  <path fill="#414141" fill-opacity="0.9176" d="M61 18h1v1h-1z"/>
  <path fill="#424242" fill-opacity="0.9216" d="M56 5h1v1h-1z"/>
  <path fill="#424242" fill-opacity="0.9333" d="M61 17h1v1h-1z"/>
  <path fill="#8c6d63" fill-opacity="0.9373" d="M83 23h1v1h-1z M25 74h1v1h-1z M36 91h1v1h-1z M40 92h1v1h-1z"/>
  <path fill="#8d6e62" fill-opacity="0.9412" d="M16 23h1v1h-1z"/>
  <path fill="#8c6e63" fill-opacity="0.9451" d="M27 28h1v1h-1z M90 28h1v1h-1z"/>
  <path fill="#424242" fill-opacity="0.949" d="M42 5h1v1h-1z"/>
  <path fill="#8c6e62" fill-opacity="0.9529" d="M77 68h1v1h-1z M74 75h1v1h-1z M74 77h1v1h-1z M26 82h1v1h-1z"/>
  <path fill="#8d6d63" fill-opacity="0.9569" d="M9 28h1v1h-1z M76 45h1v1h-1z M25 77h1v1h-1z"/>
  <path fill="#8c6e62" fill-opacity="0.9608" d="M72 28h1v1h-1z M23 45h1v1h-1z M22 68h1v1h-1z"/>
  <path fill="#424242" fill-opacity="0.9647" d="M35 7h1v1h-1z"/>
  <path fill="#8c6d63" fill-opacity="0.9647" d="M76 69h1v1h-1z"/>
  <path fill="#8d6e63" fill-opacity="0.9686" d="M26 26h1v1h-1z"/>
  <path fill="#8c6e62" fill-opacity="0.9725" d="M23 69h1v1h-1z"/>
  <path fill="#8d6d63" fill-opacity="0.9765" d="M20 23h1v1h-1z M79 23h1v1h-1z M80 57h1v1h-1z M73 82h1v1h-1z M67 89h1v1h-1z"/>
  <path fill="#8c6e62" fill-opacity="0.9804" d="M86 24h1v1h-1z M73 26h1v1h-1z M85 42h1v1h-1z M19 57h1v1h-1z M25 76h1v1h-1z M74 76h1v1h-1z M27 84h1v1h-1z"/>
  <path fill="#8d6e62" fill-opacity="0.9804" d="M76 50h1v1h-1z"/>
  <path fill="#8d6d62" fill-opacity="0.9843" d="M13 24h1v1h-1z M90 36h1v1h-1z M14 42h1v1h-1z M72 84h1v1h-1z"/>
  <path fill="#8d6d63" fill-opacity="0.9843" d="M23 50h1v1h-1z"/>
  <path fill="#8c6e63" fill-opacity="0.9882" d="M27 33h1v1h-1z M9 36h1v1h-1z M25 75h1v1h-1z"/>
  <path fill="#414141" fill-opacity="0.9922" d="M55 5h1v1h-1z M62 9h1v1h-1z M36 11h1v1h-1z M61 16h1v1h-1z"/>
  <path fill="#8d6d62" fill-opacity="0.9922" d="M25 25h1v1h-1z M34 26h1v1h-1z M71 32h1v1h-1z M72 33h1v1h-1z M24 40h1v1h-1z M75 40h1v1h-1z M32 89h1v1h-1z M65 90h1v1h-1z"/>
  <path fill="#8e6e62" fill-opacity="0.9922" d="M28 32h1v1h-1z"/>
  <path fill="#424242" fill-opacity="0.9961" d="M61 6h1v1h-1z"/>
  <path fill="#8c6d62" fill-opacity="0.9961" d="M76 49h1v1h-1z"/>
  <path fill="#8c6e62" fill-opacity="0.9961" d="M24 39h1v1h-1z"/>
  <path fill="#8c6e63" fill-opacity="0.9961" d="M74 25h1v1h-1z M65 26h1v1h-1z M76 46h1v1h-1z M23 49h1v1h-1z"/>
  <path fill="#8d6d62" fill-opacity="0.9961" d="M75 39h1v1h-1z"/>
  <path fill="#424242" d="M43 5h12v3h-12z M37 6h6v2h-6z M55 6h6v19h-6z M36 7h1v4h-1z M61 7h2v2h-2z M37 8h4v17h-4z M46 8h9v17h-9z M61 9h1v7h-1z M41 17h5v3h-5z M34 19h3v6h-3z M61 19h5v6h-5z M33 20h1v5h-1z M66 20h1v5h-1z M32 21h1v4h-1z M67 21h1v4h-1z M36 35h7v3h-7z M58 35h6v3h-6z M35 36h1v3h-1z M43 36h2v3h-2z M56 36h2v3h-2z M64 36h2v3h-2z M34 37h1v1h-1z M45 37h1v1h-1z M55 37h1v1h-1z M36 38h1v1h-1z M42 38h1v1h-1z M58 38h1v1h-1z M38 42h5v3h-5z M57 42h5v3h-5z M36 43h2v3h-2z M43 43h2v2h-2z M55 43h2v2h-2z M62 43h1v3h-1z M45 44h1v2h-1z M54 44h1v2h-1z M63 44h1v2h-1z M35 45h1v2h-1z M38 45h1v1h-1z M44 45h1v1h-1z M55 45h1v1h-1z M61 45h1v1h-1z M64 45h1v2h-1z M34 46h1v6h-1z M46 46h1v6h-1z M53 46h1v6h-1z M65 46h1v6h-1z M35 52h1v1h-1z M45 52h1v5h-1z M54 52h1v5h-1z M64 52h1v1h-1z M36 53h1v1h-1z M44 53h1v4h-1z M46 53h8v4h-8z M55 53h1v4h-1z M63 53h1v1h-1z M43 54h1v3h-1z M56 54h1v2h-1z M42 55h1v1h-1z M57 55h1v1h-1z M47 57h6v1h-6z M36 59h1v1h-1z M63 59h1v1h-1z M32 61h1v1h-1z M67 61h1v1h-1z M34 65h1v1h-1z M65 65h1v1h-1z M69 71h1v3h-1z M30 72h2v2h-2z M68 72h1v4h-1z M32 73h36v4h-36z M31 74h1v2h-1z M33 77h4v1h-4z M42 77h1v4h-1z M48 77h4v4h-4z M57 77h1v4h-1z M63 77h4v1h-4z M34 78h3v1h-3z M63 78h3v1h-3z"/>
  <path fill="#434242" d="M63 43h1v1h-1z M30 74h1v1h-1z M69 74h1v1h-1z M63 79h1v1h-1z"/>
  <path fill="#434342" d="M55 36h1v1h-1z M55 38h1v1h-1z M35 44h1v1h-1z M64 44h1v1h-1z M36 79h1v1h-1z"/>
  <path fill="#434343" d="M64 35h1v1h-1z M66 37h1v1h-1z M46 45h1v1h-1z M53 45h1v1h-1z M56 56h1v1h-1z M30 71h1v1h-1z"/>
  <path fill="#434445" d="M40 48h1v1h-1z M59 48h1v1h-1z"/>
  <path fill="#444444" d="M41 20h1v1h-1z M46 57h1v1h-1z M53 57h1v1h-1z"/>
  <path fill="#454343" d="M63 38h1v1h-1z"/>
  <path fill="#454444" d="M46 52h1v1h-1z M53 52h1v1h-1z"/>
  <path fill="#454545" d="M43 45h1v1h-1z M56 45h1v1h-1z"/>
  <path fill="#464443" d="M65 45h1v1h-1z"/>
  <path fill="#464544" d="M34 45h1v1h-1z"/>
  <path fill="#464646" d="M39 45h1v1h-1z M35 51h1v1h-1z M64 51h1v1h-1z"/>
  <path fill="#474544" d="M34 36h1v1h-1z M34 38h1v1h-1z"/>
  <path fill="#474747" d="M60 45h1v1h-1z"/>
  <path fill="#484544" d="M43 42h1v1h-1z M56 42h1v1h-1z M64 53h1v1h-1z"/>
  <path fill="#484545" d="M35 53h1v1h-1z"/>
  <path fill="#484645" d="M68 76h1v1h-1z M67 77h1v1h-1z"/>
  <path fill="#484746" d="M42 54h1v1h-1z M57 54h1v1h-1z"/>
  <path fill="#484b4f" d="M40 49h1v1h-1z M59 49h1v1h-1z"/>
  <path fill="#494645" d="M43 35h1v1h-1z M59 38h1v1h-1z M31 76h1v1h-1z M32 77h1v1h-1z"/>
  <path fill="#494949" d="M45 20h1v1h-1z"/>
  <path fill="#4a4746" d="M57 35h1v1h-1z M45 36h1v1h-1z"/>
  <path fill="#4b4746" d="M47 48h1v1h-1z M49 52h2v1h-2z"/>
  <path fill="#4b4949" d="M32 72h1v1h-1z M67 72h1v1h-1z"/>
  <path fill="#4b4b4b" d="M42 20h3v1h-3z"/>
  <path fill="#4c4846" d="M37 38h1v1h-1z M52 48h1v1h-1z"/>
  <path fill="#4c4847" d="M41 38h1v1h-1z"/>
  <path fill="#4c4c4c" d="M41 8h1v1h-1z"/>
  <path fill="#4d4947" d="M47 49h1v1h-1z M52 49h1v1h-1z"/>
  <path fill="#4e4947" d="M37 42h1v1h-1z"/>
  <path fill="#4e4948" d="M47 47h1v1h-1z"/>
  <path fill="#4e4a48" d="M62 42h1v1h-1z"/>
  <path fill="#4e4e4e" d="M41 16h1v1h-1z"/>
  <path fill="#4f4947" d="M35 35h1v1h-1z"/>
  <path fill="#4f4948" d="M52 47h1v1h-1z"/>
  <path fill="#4f4a48" d="M45 38h1v1h-1z M66 48h1v1h-1z"/>
  <path fill="#4f4f4f" d="M43 53h1v1h-1z M56 53h1v1h-1z M56 77h1v1h-1z"/>
  <path fill="#504a48" d="M33 48h1v1h-1z M48 52h1v1h-1z M51 52h1v1h-1z"/>
  <path fill="#505050" d="M43 77h1v1h-1z"/>
  <path fill="#515151" d="M36 46h1v1h-1z M45 46h1v1h-1z M54 46h1v1h-1z M63 46h1v1h-1z"/>
  <path fill="#534c4a" d="M70 71h1v1h-1z"/>
  <path fill="#535353" d="M41 9h1v7h-1z M41 21h1v4h-1z"/>
  <path fill="#544c4a" d="M29 71h1v1h-1z"/>
  <path fill="#544d4a" d="M62 38h1v1h-1z M66 47h1v1h-1z"/>
  <path fill="#554d4a" d="M47 52h1v1h-1z M52 52h1v1h-1z"/>
  <path fill="#554d4b" d="M60 38h1v1h-1z M33 47h1v1h-1z"/>
  <path fill="#564e4b" d="M66 36h1v1h-1z M66 78h1v1h-1z"/>
  <path fill="#565758" d="M40 45h1v1h-1z"/>
  <path fill="#574e4b" d="M66 38h1v1h-1z M34 52h1v1h-1z"/>
  <path fill="#574f4c" d="M47 50h1v1h-1z M52 50h1v1h-1z M64 79h1v1h-1z"/>
  <path fill="#584f4c" d="M47 46h1v1h-1z M52 46h1v1h-1z M65 52h1v1h-1z M33 78h1v1h-1z"/>
  <path fill="#59504c" d="M61 38h1v1h-1z"/>
  <path fill="#59514f" d="M29 70h1v1h-1z"/>
  <path fill="#595959" d="M42 45h1v1h-1z M57 45h1v1h-1z"/>
  <path fill="#5a504c" d="M29 72h1v1h-1z M70 72h1v1h-1z M30 75h1v1h-1z"/>
  <path fill="#5a504d" d="M40 38h1v1h-1z M69 75h1v1h-1z M35 79h1v1h-1z"/>
  <path fill="#5b504d" d="M45 43h1v1h-1z"/>
  <path fill="#5b514d" d="M54 43h1v1h-1z"/>
  <path fill="#5b5b5b" d="M41 45h1v1h-1z"/>
  <path fill="#5c5d5e" d="M58 45h1v1h-1z"/>
  <path fill="#5d524e" d="M38 38h2v1h-2z"/>
  <path fill="#5d5d5d" d="M62 53h1v1h-1z"/>
  <path fill="#5e524e" d="M44 35h1v1h-1z M56 35h1v1h-1z M33 49h1v1h-1z M66 49h1v1h-1z"/>
  <path fill="#5e5450" d="M70 70h1v1h-1z"/>
  <path fill="#5e5a59" d="M45 57h1v1h-1z M54 57h1v1h-1z"/>
  <path fill="#5e5e5e" d="M54 51h1v1h-1z M37 53h1v1h-1z"/>
  <path fill="#5f534f" d="M65 35h1v1h-1z"/>
  <path fill="#5f5f5f" d="M45 8h1v1h-1z M45 16h1v1h-1z M45 51h1v1h-1z"/>
  <path fill="#5f666b" d="M59 45h1v1h-1z"/>
  <path fill="#606060" d="M42 8h2v1h-2z"/>
  <path fill="#625550" d="M46 44h1v1h-1z M53 44h1v1h-1z"/>
  <path fill="#635550" d="M38 34h1v1h-1z"/>
  <path fill="#636363" d="M44 8h1v1h-1z"/>
  <path fill="#645651" d="M56 39h1v1h-1z"/>
  <path fill="#646464" d="M42 16h3v1h-3z"/>
  <path fill="#655651" d="M39 34h1v1h-1z"/>
  <path fill="#655751" d="M40 41h1v1h-1z M59 41h1v1h-1z"/>
  <path fill="#656565" d="M64 47h1v1h-1z"/>
  <path fill="#665752" d="M35 39h1v1h-1z"/>
  <path fill="#666666" d="M35 47h1v1h-1z"/>
  <path fill="#675852" d="M40 34h1v1h-1z"/>
  <path fill="#676160" d="M31 61h1v1h-1z"/>
  <path fill="#686361" d="M68 61h1v1h-1z"/>
  <path fill="#696969" d="M36 52h1v1h-1z M63 52h1v1h-1z"/>
  <path fill="#6a5953" d="M29 73h1v1h-1z M70 73h1v1h-1z"/>
  <path fill="#6a5954" d="M64 39h1v1h-1z M33 50h1v1h-1z M66 50h1v1h-1z"/>
  <path fill="#6a5a54" d="M61 34h1v1h-1z M65 39h1v1h-1z"/>
  <path fill="#6b6b6b" d="M62 77h1v1h-1z"/>
  <path fill="#6b89a1" d="M41 48h1v1h-1z"/>
  <path fill="#6b89a2" d="M58 48h1v1h-1z"/>
  <path fill="#6c5b55" d="M60 34h1v1h-1z M62 34h1v1h-1z M64 43h1v1h-1z"/>
  <path fill="#6c6c6c" d="M45 9h1v7h-1z M37 77h1v1h-1z"/>
  <path fill="#6d5b55" d="M37 34h1v1h-1z M41 41h1v1h-1z M58 41h1v1h-1z M35 43h1v1h-1z M47 51h1v1h-1z M52 51h1v1h-1z"/>
  <path fill="#6d6d6d" d="M45 21h1v4h-1z M43 78h1v3h-1z M56 78h1v3h-1z"/>
  <path fill="#6e5c55" d="M44 39h1v1h-1z M57 39h1v1h-1z"/>
  <path fill="#6e5c56" d="M54 37h1v1h-1z"/>
  <path fill="#6f5c55" d="M39 41h1v1h-1z M60 41h1v1h-1z"/>
  <path fill="#6f90ac" d="M41 49h1v1h-1z"/>
  <path fill="#705c56" d="M33 46h1v1h-1z M66 46h1v1h-1z"/>
  <path fill="#705d56" d="M43 39h1v1h-1z"/>
  <path fill="#7091ad" d="M58 49h1v1h-1z"/>
  <path fill="#715d56" d="M44 42h1v1h-1z M55 42h1v1h-1z"/>
  <path fill="#715e57" d="M36 39h1v1h-1z"/>
  <path fill="#716a68" d="M36 58h1v1h-1z M63 58h1v1h-1z"/>
  <path fill="#725e57" d="M41 34h1v1h-1z"/>
  <path fill="#726b68" d="M33 72h1v1h-1z M66 72h1v1h-1z"/>
  <path fill="#726b69" d="M33 65h1v1h-1z M65 66h1v1h-1z"/>
  <path fill="#736c6a" d="M66 65h1v1h-1z M34 66h1v1h-1z"/>
  <path fill="#756058" d="M59 34h1v1h-1z M63 34h1v1h-1z M34 44h1v1h-1z M65 44h1v1h-1z"/>
  <path fill="#757575" d="M42 9h3v7h-3z M42 21h3v4h-3z"/>
  <path fill="#78625a" d="M33 37h1v1h-1z M65 79h1v1h-1z"/>
  <path fill="#79635b" d="M48 81h4v1h-4z"/>
  <path fill="#7a635b" d="M34 79h1v1h-1z"/>
  <path fill="#7a716f" d="M68 71h1v1h-1z"/>
  <path fill="#7a726f" d="M31 71h1v1h-1z"/>
  <path fill="#7c645c" d="M68 77h1v1h-1z"/>
  <path fill="#7ca8cb" d="M60 48h1v1h-1z"/>
  <path fill="#7d645c" d="M55 35h1v1h-1z M55 39h1v1h-1z"/>
  <path fill="#7d655c" d="M36 34h1v1h-1z"/>
  <path fill="#7d7471" d="M42 56h1v1h-1z M35 59h1v1h-1z"/>
  <path fill="#7d7572" d="M57 56h1v1h-1z M44 57h1v1h-1z M64 59h1v1h-1z"/>
  <path fill="#7d7d7d" d="M64 50h1v1h-1z"/>
  <path fill="#7da8cc" d="M39 48h1v1h-1z"/>
  <path fill="#7e655c" d="M34 35h1v1h-1z M31 77h1v1h-1z"/>
  <path fill="#7e655d" d="M36 42h1v1h-1z"/>
  <path fill="#7e7572" d="M55 57h1v1h-1z M67 60h1v1h-1z"/>
  <path fill="#7f665d" d="M63 42h1v1h-1z"/>
  <path fill="#7f7673" d="M32 60h1v1h-1z"/>
  <path fill="#7facd1" d="M39 49h1v1h-1z M60 49h1v1h-1z"/>
  <path fill="#80665d" d="M54 36h1v1h-1z M54 38h1v1h-1z M58 39h1v1h-1z M33 51h1v1h-1z M66 51h1v1h-1z M29 74h1v1h-1z M70 74h1v1h-1z"/>
  <path fill="#80675e" d="M42 34h1v1h-1z"/>
  <path fill="#808080" d="M35 50h1v1h-1z"/>
  <path fill="#81675d" d="M46 37h1v1h-1z"/>
  <path fill="#81675e" d="M58 34h1v1h-1z"/>
  <path fill="#82675e" d="M34 39h1v1h-1z"/>
  <path fill="#82685e" d="M45 35h1v1h-1z"/>
  <path fill="#82685f" d="M42 41h1v1h-1z M57 41h1v1h-1z"/>
  <path fill="#828282" d="M41 77h1v1h-1z"/>
  <path fill="#83685e" d="M52 45h1v1h-1z"/>
  <path fill="#83685f" d="M47 45h1v1h-1z M65 53h1v1h-1z M69 76h1v1h-1z"/>
  <path fill="#838383" d="M58 77h1v1h-1z"/>
  <path fill="#84695f" d="M42 39h1v1h-1z M34 53h1v1h-1z M67 78h1v1h-1z"/>
  <path fill="#856960" d="M30 76h1v1h-1z M32 78h1v1h-1z"/>
  <path fill="#856d64" d="M56 81h1v1h-1z"/>
  <path fill="#858585" d="M55 52h1v1h-1z"/>
  <path fill="#866a60" d="M33 36h1v1h-1z M42 81h1v1h-1z M57 81h1v1h-1z"/>
  <path fill="#866e65" d="M43 81h1v1h-1z"/>
  <path fill="#876a60" d="M33 38h1v1h-1z M63 39h1v1h-1z M63 80h1v1h-1z"/>
  <path fill="#876b61" d="M64 34h1v1h-1z"/>
  <path fill="#877d79" d="M37 59h1v1h-1z"/>
  <path fill="#877d7a" d="M62 59h1v1h-1z"/>
  <path fill="#878787" d="M44 52h1v1h-1z"/>
  <path fill="#886b60" d="M45 39h1v1h-1z"/>
  <path fill="#896b61" d="M66 39h1v1h-1z"/>
  <path fill="#896c61" d="M66 35h1v1h-1z M38 41h1v1h-1z M61 41h1v1h-1z M36 80h1v1h-1z"/>
  <path fill="#897e7b" d="M67 62h1v1h-1z"/>
  <path fill="#8a7f7b" d="M32 62h1v1h-1z"/>
  <path fill="#8b6d62" d="M46 36h1v1h-1z M46 38h1v1h-1z"/>
  <path fill="#8c6e62" d="M76 51h1v1h-1z"/>
  <path fill="#8c6e63" d="M35 34h1v1h-1z M43 34h1v1h-1z M59 39h1v1h-1z M66 45h1v1h-1z"/>
  <path fill="#8d6d63" d="M25 37h1v1h-1z"/>
  <path fill="#8d6e63" d="M17 23h3v4h-3z M80 23h3v4h-3z M14 24h3v3h-3z M20 24h4v3h-4z M76 24h4v3h-4z M83 24h3v3h-3z M12 25h2v3h-2z M24 25h1v4h-1z M36 25h28v9h-28z M75 25h1v4h-1z M86 25h2v3h-2z M11 26h1v14h-1z M25 26h1v11h-1z M35 26h1v8h-1z M64 26h1v8h-1z M74 26h1v45h-1z M88 26h1v14h-1z M10 27h1v12h-1z M23 27h1v1h-1z M26 27h1v55h-1z M33 27h2v8h-2z M65 27h2v8h-2z M73 27h1v55h-1z M76 27h1v1h-1z M89 27h1v12h-1z M12 28h1v1h-1z M32 28h1v26h-1z M67 28h1v26h-1z M87 28h1v1h-1z M9 29h1v7h-1z M27 29h1v4h-1z M31 29h1v26h-1z M68 29h1v26h-1z M72 29h1v4h-1z M90 29h1v7h-1z M30 30h1v25h-1z M69 30h1v26h-1z M29 31h1v25h-1z M70 31h1v25h-1z M24 33h1v6h-1z M28 33h1v24h-1z M71 33h1v24h-1z M75 33h1v6h-1z M27 34h1v25h-1z M44 34h14v1h-14z M72 34h1v25h-1z M87 34h1v7h-1z M12 35h1v6h-1z M33 35h1v1h-1z M46 35h9v1h-9z M23 36h1v5h-1z M47 36h7v8h-7z M76 36h1v5h-1z M86 36h1v6h-1z M13 37h1v5h-1z M22 37h1v5h-1z M77 37h1v5h-1z M14 38h1v4h-1z M25 38h1v33h-1z M85 38h1v4h-1z M15 39h2v4h-2z M21 39h1v4h-1z M33 39h1v7h-1z M37 39h5v2h-5z M46 39h1v5h-1z M54 39h1v4h-1z M60 39h3v2h-3z M78 39h1v4h-1z M83 39h2v4h-2z M17 40h4v3h-4z M34 40h3v2h-3z M42 40h4v1h-4z M55 40h5v1h-5z M63 40h4v2h-4z M79 40h4v3h-4z M24 41h1v29h-1z M37 41h1v1h-1z M43 41h3v1h-3z M55 41h2v1h-2z M62 41h1v1h-1z M75 41h1v29h-1z M34 42h2v1h-2z M45 42h1v1h-1z M64 42h3v1h-3z M34 43h1v1h-1z M65 43h2v1h-2z M47 44h6v1h-6z M66 44h1v1h-1z M48 45h4v7h-4z M23 46h1v3h-1z M76 47h1v2h-1z M23 51h1v18h-1z M33 52h1v2h-1z M66 52h1v2h-1z M76 52h1v17h-1z M22 53h1v15h-1z M77 53h1v15h-1z M21 54h1v13h-1z M78 54h1v13h-1z M20 55h1v10h-1z M79 55h1v10h-1z M19 58h1v4h-1z M80 58h1v4h-1z M27 68h1v16h-1z M72 68h1v16h-1z M28 69h1v17h-1z M49 70h2v2h-2z M71 70h1v16h-1z M48 71h1v1h-1z M51 71h1v1h-1z M29 75h1v12h-1z M70 75h1v12h-1z M30 77h1v11h-1z M69 77h1v11h-1z M31 78h1v11h-1z M68 78h1v11h-1z M32 79h2v10h-2z M66 79h2v10h-2z M34 80h2v11h-2z M64 80h2v10h-2z M36 81h5v10h-5z M59 81h5v10h-5z M41 82h18v11h-18z M33 89h1v1h-1z M66 89h1v1h-1z M64 90h1v1h-1z M37 91h4v1h-4z M59 91h4v1h-4z"/>
  <path fill="#8d6f64" d="M12 34h1v1h-1z M23 35h1v1h-1z M13 36h1v1h-1z M30 55h1v1h-1z M28 57h1v1h-1z M71 57h1v1h-1z M71 69h1v1h-1z M41 81h1v1h-1z M58 81h1v1h-1z"/>
  <path fill="#8d7c76" d="M37 80h1v1h-1z"/>
  <path fill="#8d7e78" d="M62 80h1v1h-1z"/>
  <path fill="#8dc5f2" d="M40 47h1v1h-1z M59 47h1v1h-1z"/>
  <path fill="#8e6f64" d="M22 27h1v1h-1z M76 35h1v1h-1z"/>
  <path fill="#8e6f65" d="M77 27h1v1h-1z M50 69h1v1h-1z"/>
  <path fill="#8e7165" d="M85 37h1v1h-1z"/>
  <path fill="#8f7065" d="M84 38h1v1h-1z M67 54h1v1h-1z M29 56h1v1h-1z M70 56h1v1h-1z"/>
  <path fill="#8f7066" d="M15 38h1v1h-1z M32 54h1v1h-1z"/>
  <path fill="#8f7166" d="M49 69h1v1h-1z"/>
  <path fill="#8f7167" d="M14 37h1v1h-1z M27 59h1v1h-1z"/>
  <path fill="#907166" d="M72 59h1v1h-1z"/>
  <path fill="#907266" d="M47 72h2v1h-2z M51 72h2v1h-2z"/>
  <path fill="#907267" d="M20 39h1v1h-1z M49 72h2v1h-2z"/>
  <path fill="#907268" d="M24 29h1v1h-1z M79 39h1v1h-1z M27 67h1v1h-1z"/>
  <path fill="#907368" d="M85 27h1v1h-1z"/>
  <path fill="#908581" d="M36 60h1v1h-1z M63 60h1v1h-1z"/>
  <path fill="#90caf9" d="M40 46h1v1h-1z M59 46h1v1h-1z M39 47h1v1h-1z M41 47h2v1h-2z M57 47h2v1h-2z M60 47h1v1h-1z M38 48h1v2h-1z M42 48h1v3h-1z M57 48h1v3h-1z M61 48h1v2h-1z M39 50h3v1h-3z M58 50h3v1h-3z M40 51h1v1h-1z M59 51h1v1h-1z"/>
  <path fill="#917267" d="M87 29h1v1h-1z M21 38h1v1h-1z M72 67h1v1h-1z"/>
  <path fill="#917369" d="M14 27h1v1h-1z M78 38h1v1h-1z"/>
  <path fill="#917469" d="M12 29h1v1h-1z M75 29h1v1h-1z"/>
  <path fill="#918581" d="M34 64h1v1h-1z M65 64h1v1h-1z M35 65h1v1h-1z M64 65h1v1h-1z"/>
  <path fill="#927f79" d="M55 81h1v1h-1z"/>
  <path fill="#948884" d="M65 72h1v1h-1z"/>
  <path fill="#94ccf9" d="M41 46h1v1h-1z M58 46h1v1h-1z"/>
  <path fill="#95796f" d="M24 32h1v1h-1z M53 72h1v1h-1z"/>
  <path fill="#95817a" d="M44 81h1v1h-1z"/>
  <path fill="#95827b" d="M45 81h1v1h-1z"/>
  <path fill="#958884" d="M34 72h1v1h-1z"/>
  <path fill="#95ccf9" d="M38 47h1v1h-1z M61 47h1v1h-1z"/>
  <path fill="#96796f" d="M87 33h1v1h-1z M82 39h1v1h-1z"/>
  <path fill="#96857f" d="M47 81h1v1h-1z M52 81h1v1h-1z M54 81h1v1h-1z"/>
  <path fill="#977a70" d="M17 39h1v1h-1z"/>
  <path fill="#977b72" d="M23 28h1v1h-1z M75 32h1v1h-1z"/>
  <path fill="#977c72" d="M46 72h1v1h-1z"/>
  <path fill="#97cef9" d="M38 50h1v1h-1z M61 50h1v1h-1z"/>
  <path fill="#987c73" d="M12 33h1v1h-1z"/>
  <path fill="#988b87" d="M49 58h2v1h-2z M69 70h1v1h-1z"/>
  <path fill="#989898" d="M37 78h1v1h-1z M62 78h1v1h-1z"/>
  <path fill="#98cbf4" d="M39 46h1v1h-1z"/>
  <path fill="#997c73" d="M86 28h1v1h-1z"/>
  <path fill="#997d73" d="M76 28h1v1h-1z"/>
  <path fill="#998983" d="M46 81h1v1h-1z M53 81h1v1h-1z"/>
  <path fill="#998c88" d="M30 70h1v1h-1z"/>
  <path fill="#999999" d="M37 79h1v1h-1z M62 79h1v1h-1z"/>
  <path fill="#9a7e73" d="M51 70h1v1h-1z"/>
  <path fill="#9a7f75" d="M22 36h1v1h-1z"/>
  <path fill="#9a8d88" d="M66 61h1v1h-1z"/>
  <path fill="#9a8d89" d="M33 61h1v1h-1z"/>
  <path fill="#9acef9" d="M60 46h1v1h-1z"/>
  <path fill="#9b8076" d="M13 28h1v1h-1z"/>
  <path fill="#9b8177" d="M66 54h1v1h-1z"/>
  <path fill="#9b8e8a" d="M41 54h1v1h-1z M58 54h1v1h-1z"/>
  <path fill="#9bcffa" d="M41 51h1v1h-1z M58 51h1v1h-1z"/>
  <path fill="#9c8077" d="M33 54h1v1h-1z"/>
  <path fill="#9c8178" d="M77 36h1v1h-1z"/>
  <path fill="#9c8278" d="M21 27h1v1h-1z"/>
  <path fill="#9c8279" d="M50 68h1v1h-1z"/>
  <path fill="#9d8279" d="M78 27h1v1h-1z"/>
  <path fill="#9d837a" d="M24 30h1v1h-1z M87 30h1v1h-1z M52 71h1v1h-1z"/>
  <path fill="#9e8379" d="M23 34h1v1h-1z M86 35h1v1h-1z M48 70h1v1h-1z"/>
  <path fill="#9f847b" d="M24 31h1v1h-1z M72 60h1v1h-1z"/>
  <path fill="#9f857b" d="M68 55h1v1h-1z"/>
  <path fill="#9f857c" d="M87 32h1v1h-1z M27 60h1v1h-1z M72 66h1v1h-1z M49 68h1v1h-1z"/>
  <path fill="#9f857d" d="M75 30h1v1h-1z M31 55h1v1h-1z M27 66h1v1h-1z"/>
  <path fill="#9f928d" d="M58 55h1v1h-1z"/>
  <path fill="#9f9f9f" d="M37 46h1v1h-1z"/>
  <path fill="#a0867c" d="M76 34h1v1h-1z"/>
  <path fill="#a0867d" d="M12 30h1v1h-1z"/>
  <path fill="#a0867e" d="M75 31h1v1h-1z M71 58h1v1h-1z"/>
  <path fill="#a0877d" d="M13 35h1v1h-1z"/>
  <path fill="#a0928d" d="M41 55h1v1h-1z"/>
  <path fill="#a0a0a0" d="M62 46h1v1h-1z"/>
  <path fill="#a1877e" d="M28 58h1v1h-1z"/>
  <path fill="#a1938e" d="M48 58h1v1h-1z M51 58h1v1h-1z M31 60h1v1h-1z M33 66h1v1h-1z"/>
  <path fill="#a1938f" d="M68 60h1v1h-1z M66 66h1v1h-1z"/>
  <path fill="#a28880" d="M47 71h1v1h-1z"/>
  <path fill="#a28980" d="M87 31h1v1h-1z M12 32h1v1h-1z M19 39h1v1h-1z M71 68h1v1h-1z"/>
  <path fill="#a38981" d="M80 39h1v1h-1z"/>
  <path fill="#a38a82" d="M84 27h1v1h-1z M28 68h1v1h-1z"/>
  <path fill="#a39590" d="M37 54h2v1h-2z M61 54h2v1h-2z"/>
  <path fill="#a48b82" d="M15 27h1v1h-1z"/>
  <path fill="#a48c83" d="M81 39h1v1h-1z"/>
  <path fill="#a49691" d="M60 54h1v1h-1z"/>
  <path fill="#a4d4fa" d="M39 51h1v1h-1z M60 51h1v1h-1z"/>
  <path fill="#a58c84" d="M12 31h1v1h-1z"/>
  <path fill="#a58d85" d="M18 39h1v1h-1z"/>
  <path fill="#a59088" d="M54 72h1v1h-1z"/>
  <path fill="#a59691" d="M36 54h1v1h-1z M63 54h1v1h-1z"/>
  <path fill="#a59792" d="M39 54h1v1h-1z"/>
  <path fill="#a5a5a5" d="M64 49h1v1h-1z"/>
  <path fill="#a6928b" d="M45 72h1v1h-1z"/>
  <path fill="#a6a6a6" d="M35 49h1v1h-1z"/>
  <path fill="#a79893" d="M35 58h1v1h-1z M64 58h1v1h-1z M35 72h1v1h-1z M64 72h1v1h-1z"/>
  <path fill="#a7a7a7" d="M64 48h1v1h-1z"/>
  <path fill="#a89088" d="M83 38h1v1h-1z"/>
  <path fill="#a8958e" d="M29 69h1v1h-1z"/>
  <path fill="#a89a95" d="M40 54h1v1h-1z M59 54h1v1h-1z"/>
  <path fill="#a8a8a8" d="M35 48h1v1h-1z M47 77h1v1h-1z"/>
  <path fill="#a99189" d="M20 27h1v1h-1z"/>
  <path fill="#a9928a" d="M79 27h1v1h-1z M65 54h1v1h-1z"/>
  <path fill="#a9928b" d="M16 38h1v1h-1z"/>
  <path fill="#a99994" d="M68 62h1v1h-1z"/>
  <path fill="#a99a95" d="M31 62h1v1h-1z"/>
  <path fill="#a9a9a9" d="M52 77h1v1h-1z"/>
  <path fill="#aa938a" d="M34 54h1v1h-1z"/>
  <path fill="#aa9b96" d="M52 58h1v1h-1z"/>
  <path fill="#ab958d" d="M69 56h1v1h-1z"/>
  <path fill="#ab958e" d="M29 57h1v1h-1z"/>
  <path fill="#ab9b96" d="M43 57h1v1h-1z M56 57h1v1h-1z M47 58h1v1h-1z"/>
  <path fill="#ababab" d="M54 50h1v1h-1z"/>
  <path fill="#ac958d" d="M30 56h1v1h-1z"/>
  <path fill="#ac968e" d="M50 67h1v1h-1z"/>
  <path fill="#ac968f" d="M85 36h1v1h-1z M21 37h1v1h-1z M70 57h1v1h-1z M27 61h1v1h-1z"/>
  <path fill="#ac9891" d="M35 54h1v1h-1z M64 54h1v1h-1z"/>
  <path fill="#ac9d97" d="M37 58h1v1h-1z"/>
  <path fill="#acacac" d="M45 50h1v1h-1z"/>
  <path fill="#ad968e" d="M72 61h1v1h-1z"/>
  <path fill="#ad978f" d="M72 65h1v1h-1z M49 67h1v1h-1z"/>
  <path fill="#ad9d98" d="M62 58h1v1h-1z"/>
  <path fill="#ae9790" d="M27 65h1v1h-1z"/>
  <path fill="#ae9891" d="M78 37h1v1h-1z"/>
  <path fill="#ae9991" d="M70 69h1v1h-1z"/>
  <path fill="#af9992" d="M14 36h1v1h-1z"/>
  <path fill="#af9a94" d="M84 37h1v1h-1z"/>
  <path fill="#af9d96" d="M55 72h1v1h-1z"/>
  <path fill="#af9e96" d="M44 72h1v1h-1z"/>
  <path fill="#b09c94" d="M83 27h1v1h-1z"/>
  <path fill="#b19c95" d="M16 27h1v1h-1z"/>
  <path fill="#b1a19b" d="M33 64h1v1h-1z M66 64h1v1h-1z M64 66h1v1h-1z"/>
  <path fill="#b1b1b1" d="M54 47h1v1h-1z"/>
  <path fill="#b29d95" d="M15 37h1v1h-1z"/>
  <path fill="#b29e97" d="M19 27h1v1h-1z M80 27h1v1h-1z"/>
  <path fill="#b2a19c" d="M35 66h1v1h-1z M36 72h1v1h-1z M63 72h1v1h-1z"/>
  <path fill="#b2aba9" d="M38 80h1v1h-1z"/>
  <path fill="#b39f98" d="M27 62h1v1h-1z M72 64h1v1h-1z"/>
  <path fill="#b3a39d" d="M67 71h1v1h-1z M37 72h7v1h-7z M56 72h7v1h-7z"/>
  <path fill="#b3b3b3" d="M45 47h1v1h-1z"/>
  <path fill="#b49f98" d="M72 62h1v1h-1z M27 64h1v1h-1z"/>
  <path fill="#b4a099" d="M23 33h1v1h-1z M20 38h1v1h-1z"/>
  <path fill="#b4a39e" d="M35 60h1v1h-1z M32 71h1v1h-1z"/>
  <path fill="#b4aeac" d="M61 80h1v1h-1z"/>
  <path fill="#b4b4b4" d="M41 80h1v1h-1z"/>
  <path fill="#b5a19a" d="M86 34h1v1h-1z M22 35h1v1h-1z"/>
  <path fill="#b5a29b" d="M76 33h1v1h-1z M79 38h1v1h-1z M51 69h1v1h-1z"/>
  <path fill="#b5a49e" d="M64 60h1v1h-1z"/>
  <path fill="#b5b5b5" d="M41 78h1v2h-1z M58 78h1v3h-1z"/>
  <path fill="#b6a29b" d="M77 35h1v1h-1z M50 66h1v1h-1z"/>
  <path fill="#b6a29c" d="M17 27h1v1h-1z"/>
  <path fill="#b6a39b" d="M82 27h1v1h-1z M49 66h1v1h-1z"/>
  <path fill="#b6dcfb" d="M43 48h1v1h-1z"/>
  <path fill="#b7a39d" d="M22 28h1v1h-1z"/>
  <path fill="#b7a49c" d="M13 34h1v1h-1z"/>
  <path fill="#b7a49d" d="M18 27h1v1h-1z M81 27h1v1h-1z M77 28h1v1h-1z M32 55h1v1h-1z M67 55h1v1h-1z M27 63h1v1h-1z M72 63h1v1h-1z"/>
  <path fill="#b7a6a0" d="M37 60h1v1h-1z M66 60h1v1h-1z"/>
  <path fill="#b7dcfb" d="M56 48h1v1h-1z"/>
  <path fill="#b8a49f" d="M71 59h1v1h-1z"/>
  <path fill="#b8a59e" d="M48 69h1v1h-1z"/>
  <path fill="#b8a6a0" d="M71 67h1v1h-1z"/>
  <path fill="#b8a6a1" d="M62 60h1v1h-1z"/>
  <path fill="#b8a7a1" d="M46 58h1v1h-1z M33 60h1v1h-1z"/>
  <path fill="#b8ddfb" d="M43 49h1v1h-1z M56 49h1v1h-1z"/>
  <path fill="#b9a59e" d="M85 28h1v1h-1z M28 59h1v1h-1z"/>
  <path fill="#b9a69f" d="M86 29h1v1h-1z"/>
  <path fill="#b9a6a0" d="M14 28h1v1h-1z M23 29h1v1h-1z M28 67h1v1h-1z"/>
  <path fill="#b9a7a1" d="M53 58h1v1h-1z"/>
  <path fill="#b9a8a2" d="M66 62h1v1h-1z M35 64h1v1h-1z"/>
  <path fill="#baa7a1" d="M13 29h1v1h-1z"/>
  <path fill="#baa8a1" d="M76 29h1v1h-1z"/>
  <path fill="#baa8a2" d="M33 62h1v1h-1z M64 64h1v1h-1z"/>
  <path fill="#bac7d1" d="M38 46h1v1h-1z"/>
  <path fill="#bba7a2" d="M49 65h2v1h-2z M53 71h1v1h-1z"/>
  <path fill="#bba9a3" d="M52 70h1v1h-1z M46 71h1v1h-1z"/>
  <path fill="#bca9a3" d="M82 38h1v1h-1z M47 70h1v1h-1z"/>
  <path fill="#bcaaa4" d="M15 28h7v9h-7z M78 28h7v9h-7z M14 29h1v7h-1z M22 29h1v6h-1z M77 29h1v6h-1z M85 29h1v7h-1z M13 30h1v4h-1z M23 30h1v3h-1z M76 30h1v3h-1z M86 30h1v4h-1z M16 37h5v1h-5z M79 37h5v1h-5z M17 38h3v1h-3z M80 38h2v1h-2z M33 55h8v3h-8z M59 55h8v3h-8z M31 56h2v4h-2z M41 56h1v16h-1z M58 56h1v16h-1z M67 56h2v4h-2z M30 57h1v13h-1z M42 57h1v15h-1z M57 57h1v15h-1z M69 57h1v13h-1z M29 58h1v11h-1z M33 58h2v2h-2z M38 58h3v14h-3z M43 58h3v14h-3z M54 58h3v14h-3z M59 58h3v14h-3z M65 58h2v2h-2z M70 58h1v11h-1z M46 59h8v6h-8z M28 60h1v7h-1z M34 60h1v4h-1z M65 60h1v4h-1z M71 60h1v7h-1z M35 61h3v3h-3z M62 61h3v3h-3z M31 63h3v1h-3z M66 63h3v1h-3z M31 64h2v7h-2z M36 64h2v8h-2z M62 64h2v8h-2z M67 64h2v7h-2z M46 65h3v4h-3z M51 65h3v4h-3z M33 67h3v5h-3z M64 67h3v5h-3z M46 69h2v1h-2z M52 69h2v1h-2z M46 70h1v1h-1z M53 70h1v1h-1z"/>
  <path fill="#bcbcbc" d="M57 53h1v1h-1z"/>
  <path fill="#bdbdbd" d="M42 53h1v1h-1z"/>
  <path fill="#c0d1de" d="M61 46h1v1h-1z"/>
  <path fill="#c1c1c1" d="M61 53h1v1h-1z"/>
  <path fill="#c4c4c4" d="M38 53h1v1h-1z"/>
  <path fill="#c9c7c6" d="M39 80h1v1h-1z"/>
  <path fill="#cbe6fc" d="M42 46h1v1h-1z"/>
  <path fill="#cce6fc" d="M57 46h1v1h-1z"/>
  <path fill="#cdcbcb" d="M60 80h1v1h-1z"/>
  <path fill="#d1d1d1" d="M44 77h1v1h-1z M55 77h1v1h-1z"/>
  <path fill="#d1e9fd" d="M62 48h1v1h-1z"/>
  <path fill="#d2e9fd" d="M37 48h1v1h-1z"/>
  <path fill="#d3d3d3" d="M54 49h1v1h-1z"/>
  <path fill="#d3eafd" d="M37 49h1v1h-1z M62 49h1v1h-1z"/>
  <path fill="#d4d4d4" d="M55 46h1v1h-1z M54 48h1v1h-1z M45 49h1v1h-1z"/>
  <path fill="#d5d5d5" d="M44 46h1v1h-1z"/>
  <path fill="#d5ebfd" d="M42 51h1v1h-1z M57 51h1v1h-1z"/>
  <path fill="#d6d6d6" d="M45 48h1v1h-1z"/>
  <path fill="#dbeefd" d="M43 47h1v1h-1z M56 47h1v1h-1z"/>
  <path fill="#dddddd" d="M38 77h1v1h-1z M61 77h1v1h-1z"/>
  <path fill="#dfdede" d="M40 80h1v1h-1z"/>
  <path fill="#e0e0e0" d="M40 77h1v1h-1z M59 77h1v1h-1z M47 78h1v3h-1z M52 78h1v3h-1z M59 80h1v1h-1z"/>
  <path fill="#e1f0fd" d="M43 50h1v1h-1z M56 50h1v1h-1z"/>
  <path fill="#e3e3e3" d="M39 77h1v1h-1z M45 77h2v1h-2z M53 77h2v1h-2z M60 77h1v1h-1z"/>
  <path fill="#e4e4e4" d="M63 51h1v1h-1z"/>
  <path fill="#e6e6e6" d="M36 51h1v1h-1z"/>
  <path fill="#e6f3fe" d="M61 51h1v1h-1z"/>
  <path fill="#e7f3fe" d="M38 51h1v1h-1z"/>
  <path fill="#efefef" d="M38 78h3v2h-3z M44 78h3v3h-3z M53 78h3v3h-3z M59 78h3v2h-3z"/>
  <path fill="#f2f9fe" d="M37 47h1v1h-1z M62 47h1v1h-1z"/>
  <path fill="#f3f3f3" d="M62 52h1v1h-1z"/>
  <path fill="#f4f4f4" d="M37 52h1v1h-1z"/>
  <path fill="#f4fafe" d="M37 50h1v1h-1z M62 50h1v1h-1z"/>
  <path fill="#f8f8f8" d="M43 46h1v1h-1z M56 46h1v1h-1z"/>
  <path fill="#fafafa" d="M36 47h1v1h-1z M63 47h1v1h-1z M60 53h1v1h-1z"/>
  <path fill="#fbfbfb" d="M44 51h1v1h-1z M55 51h1v1h-1z M39 53h1v1h-1z"/>
  <path fill="#fcfdff" d="M40 52h1v1h-1z M59 52h1v1h-1z"/>
  <path fill="#fefefe" d="M43 52h1v1h-1z M56 52h1v1h-1z M41 53h1v1h-1z M58 53h1v1h-1z"/>
  <path fill="#ffffff" d="M44 47h1v4h-1z M55 47h1v4h-1z M36 48h1v3h-1z M63 48h1v3h-1z M37 51h1v1h-1z M43 51h1v1h-1z M56 51h1v1h-1z M62 51h1v1h-1z M38 52h2v1h-2z M41 52h2v1h-2z M57 52h2v1h-2z M60 52h2v1h-2z M40 53h1v1h-1z M59 53h1v1h-1z"/>
</svg>