<?xml version="1.0" encoding="UTF-8"?>
<svg xmlns="http://www.w3.org/2000/svg" width="100" height="100" viewBox="0 0 100 100" role="img" aria-labelledby="title" shape-rendering="crispEdges">
  <title id="title">icons8 elden ring 100</title>
  <desc>Pixel-perfect vector conversion from the supplied PNG, preserving transparency.</desc>
  <path fill="#ffff00" fill-opacity="0.0039" d="M53 67h1v1h-1zM67 72h1v1h-1zM35 96h1v1h-1z"/>
  <path fill="#ffffff" fill-opacity="0.0039" d="M65 60h1v1h-1z"/>
  <path fill="#ffff00" fill-opacity="0.0078" d="M80 83h1v1h-1z"/>
  <path fill="#ffaa00" fill-opacity="0.0118" d="M41 28h1v1h-1zM58 28h1v1h-1zM43 33h1v1h-1zM56 33h1v1h-1zM14 82h1v1h-1zM19 83h1v1h-1zM29 94h1v1h-1z"/>
  <path fill="#ffffaa" fill-opacity="0.0118" d="M46 40h1v1h-1zM53 40h1v1h-1z"/>
  <path fill="#ffbf3f" fill-opacity="0.0157" d="M68 40h1v1h-1zM36 49h1v1h-1zM63 49h1v1h-1zM57 51h1v1h-1zM41 69h1v1h-1zM58 69h1v1h-1zM24 71h1v1h-1zM75 71h1v1h-1zM32 72h1v1h-1zM85 82h1v1h-1z"/>
  <path fill="#ffcc33" fill-opacity="0.0196" d="M33 13h1v1h-1zM66 13h1v1h-1zM40 14h1v1h-1zM59 14h1v1h-1zM31 40h1v1h-1zM42 51h1v1h-1zM61 80h1v1h-1zM14 86h1v1h-1zM17 88h1v1h-1z"/>
  <path fill="#ffcc99" fill-opacity="0.0196" d="M56 41h1v1h-1zM67 68h1v1h-1z"/>
  <path fill="#ffd42a" fill-opacity="0.0235" d="M35 58h1v1h-1zM62 60h1v1h-1zM70 69h1v1h-1zM43 80h1v1h-1zM70 94h1v1h-1z"/>
  <path fill="#ffd47f" fill-opacity="0.0235" d="M61 67h1v1h-1zM32 68h1v1h-1z"/>
  <path fill="#ffda24" fill-opacity="0.0275" d="M39 47h1v1h-1zM42 47h1v1h-1zM37 60h1v1h-1zM29 69h1v1h-1zM38 80h1v1h-1zM85 86h1v1h-1zM26 87h1v1h-1zM73 87h1v1h-1z"/>
  <path fill="#ffda91" fill-opacity="0.0275" d="M38 67h1v1h-1z"/>
  <path fill="#ffbf1f" fill-opacity="0.0314" d="M24 51h1v1h-1zM75 51h1v1h-1zM41 53h1v1h-1zM58 53h1v1h-1zM45 57h1v1h-1zM64 58h1v1h-1zM23 69h1v1h-1zM76 69h1v1h-1zM56 80h1v1h-1zM16 81h1v1h-1zM83 81h1v1h-1zM82 88h1v1h-1zM40 97h1v1h-1zM59 97h1v1h-1z"/>
  <path fill="#ffdf7f" fill-opacity="0.0314" d="M43 41h1v1h-1z"/>
  <path fill="#ffc61c" fill-opacity="0.0353" d="M72 57h1v1h-1zM45 64h1v1h-1zM54 64h1v1h-1z"/>
  <path fill="#ffe28d" fill-opacity="0.0353" d="M62 73h1v1h-1z"/>
  <path fill="#ffcc33" fill-opacity="0.0392" d="M30 11h1v1h-1zM27 57h1v1h-1zM72 65h1v1h-1zM39 75h1v1h-1zM75 86h1v1h-1zM67 95h1v1h-1z"/>
  <path fill="#ffd02e" fill-opacity="0.0431" d="M69 11h1v1h-1zM40 35h1v1h-1zM59 35h1v1h-1zM56 42h1v1h-1zM76 53h1v1h-1zM59 66h1v1h-1zM65 79h1v1h-1zM32 95h1v1h-1z"/>
  <path fill="#ffe78b" fill-opacity="0.0431" d="M60 68h1v1h-1z"/>
  <path fill="#ffd42a" fill-opacity="0.0471" d="M34 34h1v1h-1zM40 66h1v1h-1z"/>
  <path fill="#ffe97f" fill-opacity="0.0471" d="M39 68h1v1h-1zM37 73h1v1h-1z"/>
  <path fill="#ffc427" fill-opacity="0.051" d="M23 53h1v1h-1zM63 59h1v1h-1zM41 92h1v1h-1zM58 92h1v1h-1z"/>
  <path fill="#ffd789" fill-opacity="0.051" d="M37 66h1v1h-1zM62 66h1v1h-1z"/>
  <path fill="#ffc824" fill-opacity="0.0549" d="M45 32h1v1h-1zM54 32h1v1h-1zM65 34h1v1h-1zM39 36h1v1h-1zM60 36h1v1h-1zM36 59h1v1h-1zM24 86h1v1h-1z"/>
  <path fill="#ffbb00" fill-opacity="0.0588" d="M47 7h1v1h-1z"/>
  <path fill="#ffcc22" fill-opacity="0.0588" d="M34 8h1v1h-1zM27 65h1v1h-1zM34 79h1v1h-1zM15 81h1v1h-1zM84 81h1v1h-1z"/>
  <path fill="#ffaf00" fill-opacity="0.0627" d="M52 7h1v1h-1z"/>
  <path fill="#ffcf2f" fill-opacity="0.0627" d="M65 8h1v1h-1zM77 66h1v1h-1z"/>
  <path fill="#ffc32d" fill-opacity="0.0667" d="M45 65h1v1h-1zM69 77h1v1h-1z"/>
  <path fill="#ffc62a" fill-opacity="0.0706" d="M41 9h1v1h-1zM58 9h1v1h-1zM61 30h1v1h-1zM54 57h1v1h-1zM46 59h1v1h-1zM22 66h1v1h-1zM30 77h1v1h-1zM77 85h1v1h-1z"/>
  <path fill="#ffe27f" fill-opacity="0.0706" d="M64 63h1v1h-1z"/>
  <path fill="#ffc928" fill-opacity="0.0745" d="M38 30h1v1h-1zM53 59h1v1h-1zM60 75h1v1h-1zM22 85h1v1h-1zM66 90h1v1h-1z"/>
  <path fill="#ffcc26" fill-opacity="0.0784" d="M35 74h1v1h-1z"/>
  <path fill="#ffb600" fill-opacity="0.0824" d="M47 17h1v10h-1zM52 17h1v10h-1zM47 32h1v3h-1zM52 32h1v3h-1zM47 40h1v3h-1zM52 40h1v3h-1zM47 54h1v6h-1zM52 54h1v6h-1zM47 65h1v4h-1zM52 65h1v4h-1zM47 80h1v13h-1zM52 80h1v13h-1z"/>
  <path fill="#ffda85" fill-opacity="0.0824" d="M54 35h1v1h-1z"/>
  <path fill="#ffc522" fill-opacity="0.0863" d="M22 56h1v1h-1zM71 88h1v1h-1z"/>
  <path fill="#ffdc7f" fill-opacity="0.0863" d="M45 35h1v1h-1zM35 63h1v1h-1z"/>
  <path fill="#ffc72c" fill-opacity="0.0902" d="M55 27h1v1h-1zM77 56h1v1h-1z"/>
  <path fill="#ffc92a" fill-opacity="0.0941" d="M30 12h1v1h-1zM69 12h1v1h-1zM44 27h1v1h-1zM54 65h1v1h-1zM60 80h1v1h-1z"/>
  <path fill="#ffcc28" fill-opacity="0.098" d="M72 93h1v1h-1z"/>
  <path fill="#ffba09" fill-opacity="0.102" d="M47 53h1v1h-1zM52 53h1v1h-1z"/>
  <path fill="#ffcd27" fill-opacity="0.102" d="M64 74h1v1h-1zM27 93h1v1h-1z"/>
  <path fill="#ffc625" fill-opacity="0.1059" d="M43 42h1v1h-1z"/>
  <path fill="#ffe284" fill-opacity="0.1059" d="M30 64h1v1h-1z"/>
  <path fill="#ffc824" fill-opacity="0.1098" d="M58 34h1v1h-1zM69 45h1v1h-1zM61 47h1v1h-1zM57 80h1v1h-1zM28 88h1v1h-1z"/>
  <path fill="#ffe37f" fill-opacity="0.1098" d="M31 66h1v1h-1z"/>
  <path fill="#ffdb83" fill-opacity="0.1137" d="M33 69h1v1h-1z"/>
  <path fill="#ffcc2a" fill-opacity="0.1176" d="M38 47h1v1h-1zM56 47h1v1h-1z"/>
  <path fill="#ffdd7f" fill-opacity="0.1176" d="M29 61h1v1h-1zM66 69h1v1h-1z"/>
  <path fill="#ffbd10" fill-opacity="0.1216" d="M47 69h1v1h-1zM52 69h1v1h-1zM52 79h1v1h-1z"/>
  <path fill="#ffcd29" fill-opacity="0.1216" d="M33 73h1v1h-1zM33 90h1v1h-1z"/>
  <path fill="#ffde83" fill-opacity="0.1216" d="M38 38h1v1h-1zM69 64h1v1h-1z"/>
  <path fill="#ffbf0f" fill-opacity="0.1255" d="M47 79h1v1h-1z"/>
  <path fill="#ffc727" fill-opacity="0.1255" d="M58 14h1v1h-1zM41 34h1v1h-1zM43 47h1v1h-1zM66 73h1v1h-1z"/>
  <path fill="#ffdf7f" fill-opacity="0.1255" d="M70 61h1v1h-1z"/>
  <path fill="#ffc826" fill-opacity="0.1294" d="M41 14h1v1h-1zM30 45h1v1h-1zM42 80h1v1h-1z"/>
  <path fill="#ffca25" fill-opacity="0.1333" d="M38 37h1v1h-1zM62 52h1v1h-1zM39 80h1v1h-1z"/>
  <path fill="#ffe17f" fill-opacity="0.1333" d="M68 66h1v1h-1zM36 72h1v1h-1z"/>
  <path fill="#ffb600" fill-opacity="0.1373" d="M48 4h1v1h-1zM51 4h1v1h-1z"/>
  <path fill="#ffcc24" fill-opacity="0.1373" d="M61 37h1v1h-1zM37 52h1v1h-1z"/>
  <path fill="#ffe27f" fill-opacity="0.1412" d="M40 69h1v1h-1zM59 69h1v1h-1z"/>
  <path fill="#ffc729" fill-opacity="0.1451" d="M80 89h1v1h-1z"/>
  <path fill="#ffdc82" fill-opacity="0.1451" d="M63 72h1v1h-1z"/>
  <path fill="#ffc928" fill-opacity="0.149" d="M67 78h1v1h-1z"/>
  <path fill="#ffca27" fill-opacity="0.1529" d="M19 89h1v1h-1z"/>
  <path fill="#ffcc26" fill-opacity="0.1569" d="M13 85h1v1h-1zM86 85h1v1h-1z"/>
  <path fill="#ffdf7f" fill-opacity="0.1569" d="M61 38h1v1h-1z"/>
  <path fill="#ffc725" fill-opacity="0.1608" d="M64 33h1v1h-1zM57 42h1v1h-1zM32 78h1v1h-1zM63 91h1v1h-1zM36 96h1v1h-1zM63 96h1v1h-1z"/>
  <path fill="#ffc82a" fill-opacity="0.1647" d="M82 82h1v1h-1z"/>
  <path fill="#ffe07f" fill-opacity="0.1647" d="M42 36h1v1h-1zM57 36h1v1h-1z"/>
  <path fill="#ffc929" fill-opacity="0.1686" d="M35 33h1v1h-1zM59 80h1v1h-1zM36 91h1v1h-1z"/>
  <path fill="#ffca28" fill-opacity="0.1725" d="M62 31h1v1h-1zM25 72h1v1h-1zM74 72h1v1h-1z"/>
  <path fill="#ffcc27" fill-opacity="0.1765" d="M34 13h1v1h-1zM65 13h1v1h-1zM58 80h1v1h-1z"/>
  <path fill="#ffbc16" fill-opacity="0.1804" d="M52 43h1v1h-1z"/>
  <path fill="#ffc726" fill-opacity="0.1804" d="M37 31h1v1h-1z"/>
  <path fill="#ffbd15" fill-opacity="0.1843" d="M47 43h1v1h-1z"/>
  <path fill="#ffc825" fill-opacity="0.1843" d="M40 9h1v1h-1zM40 80h2v1h-2z"/>
  <path fill="#ffc92a" fill-opacity="0.1882" d="M31 8h1v1h-1zM68 8h1v1h-1zM59 9h1v1h-1zM38 75h1v1h-1zM17 82h1v1h-1zM69 89h1v1h-1z"/>
  <path fill="#ffdf7f" fill-opacity="0.1882" d="M63 65h1v1h-1z"/>
  <path fill="#ffca29" fill-opacity="0.1922" d="M79 84h1v1h-1z"/>
  <path fill="#ffcc28" fill-opacity="0.1961" d="M43 50h1v1h-1zM56 50h1v1h-1zM60 55h1v1h-1zM30 89h1v1h-1zM41 97h1v1h-1zM58 97h1v1h-1z"/>
  <path fill="#ffe07f" fill-opacity="0.1961" d="M65 70h1v1h-1z"/>
  <path fill="#ffc828" fill-opacity="0.2" d="M20 84h1v1h-1z"/>
  <path fill="#ffe182" fill-opacity="0.2" d="M36 65h1v1h-1zM34 70h1v1h-1z"/>
  <path fill="#ffe184" fill-opacity="0.2039" d="M65 61h1v1h-1zM60 74h1v1h-1z"/>
  <path fill="#ffca26" fill-opacity="0.2078" d="M74 92h1v1h-1z"/>
  <path fill="#ffcb25" fill-opacity="0.2118" d="M42 42h1v1h-1zM39 55h1v1h-1zM21 90h1v1h-1zM25 92h1v1h-1z"/>
  <path fill="#ffdd84" fill-opacity="0.2118" d="M45 40h1v1h-1zM64 71h1v1h-1zM39 74h1v1h-1z"/>
  <path fill="#ffcc29" fill-opacity="0.2157" d="M63 32h1v1h-1zM25 50h1v1h-1z"/>
  <path fill="#ffde81" fill-opacity="0.2157" d="M54 40h1v1h-1zM34 61h1v1h-1zM35 71h1v1h-1z"/>
  <path fill="#ffc828" fill-opacity="0.2196" d="M36 32h1v1h-1zM68 41h1v1h-1zM46 54h1v1h-1zM61 75h1v1h-1z"/>
  <path fill="#ffca27" fill-opacity="0.2275" d="M74 50h1v1h-1zM40 92h1v1h-1zM59 92h1v1h-1z"/>
  <path fill="#ffe083" fill-opacity="0.2275" d="M40 37h1v1h-1zM41 75h1v1h-1z"/>
  <path fill="#ffcb26" fill-opacity="0.2314" d="M31 41h1v1h-1zM53 64h1v1h-1z"/>
  <path fill="#ffcc26" fill-opacity="0.2353" d="M66 36h1v1h-1zM28 54h1v1h-1zM71 54h1v1h-1zM46 64h1v1h-1zM71 68h1v1h-1zM78 90h1v1h-1z"/>
  <path fill="#ffc829" fill-opacity="0.2392" d="M33 8h1v1h-1zM66 8h1v1h-1zM57 14h1v1h-1zM67 38h1v1h-1z"/>
  <path fill="#ffe181" fill-opacity="0.2392" d="M58 75h1v1h-1z"/>
  <path fill="#ffc929" fill-opacity="0.2431" d="M42 14h1v1h-1zM70 76h1v1h-1z"/>
  <path fill="#ffca28" fill-opacity="0.2471" d="M32 38h1v1h-1z"/>
  <path fill="#ffcb27" fill-opacity="0.251" d="M33 36h1v1h-1zM36 50h1v1h-1z"/>
  <path fill="#ffc827" fill-opacity="0.2549" d="M83 87h1v1h-1z"/>
  <path fill="#ffc826" fill-opacity="0.2588" d="M29 76h1v1h-1z"/>
  <path fill="#ffc929" fill-opacity="0.2627" d="M63 50h1v1h-1zM40 65h1v1h-1zM16 87h1v1h-1z"/>
  <path fill="#ffb400" fill-opacity="0.2667" d="M53 15h1v1h-1z"/>
  <path fill="#ffca29" fill-opacity="0.2667" d="M30 94h1v1h-1z"/>
  <path fill="#ffe183" fill-opacity="0.2667" d="M46 35h1v1h-1zM53 35h1v1h-1zM59 37h1v1h-1z"/>
  <path fill="#ffc728" fill-opacity="0.2706" d="M59 56h1v1h-1z"/>
  <path fill="#ffcb28" fill-opacity="0.2706" d="M40 56h1v1h-1zM59 65h1v1h-1z"/>
  <path fill="#ffb200" fill-opacity="0.2745" d="M46 15h1v1h-1z"/>
  <path fill="#ffc927" fill-opacity="0.2784" d="M76 91h1v1h-1z"/>
  <path fill="#ffc926" fill-opacity="0.2824" d="M23 91h1v1h-1z"/>
  <path fill="#ffca26" fill-opacity="0.2863" d="M53 54h1v1h-1z"/>
  <path fill="#ffce30" fill-opacity="0.2863" d="M58 42h1v1h-1z"/>
  <path fill="#ffcb29" fill-opacity="0.2902" d="M28 68h1v1h-1z"/>
  <path fill="#ffb100" fill-opacity="0.298" d="M52 16h1v1h-1z"/>
  <path fill="#ffc928" fill-opacity="0.298" d="M46 68h1v1h-1z"/>
  <path fill="#ffca27" fill-opacity="0.302" d="M39 9h1v1h-1z"/>
  <path fill="#ffcd34" fill-opacity="0.302" d="M41 42h1v1h-1z"/>
  <path fill="#ffca27" fill-opacity="0.3059" d="M60 9h1v1h-1zM62 47h1v1h-1zM66 95h1v1h-1z"/>
  <path fill="#ffcb26" fill-opacity="0.3098" d="M59 29h1v1h-1zM77 65h1v1h-1zM33 95h1v1h-1z"/>
  <path fill="#ffc829" fill-opacity="0.3137" d="M27 56h1v1h-1z"/>
  <path fill="#ffc928" fill-opacity="0.3176" d="M43 14h1v1h-1zM56 14h1v1h-1zM40 29h1v1h-1zM55 47h1v1h-1zM77 57h1v1h-1zM22 65h1v1h-1z"/>
  <path fill="#ffca27" fill-opacity="0.3255" d="M72 66h1v1h-1z"/>
  <path fill="#ffcb27" fill-opacity="0.3294" d="M60 61h1v1h-1z"/>
  <path fill="#ffc927" fill-opacity="0.3333" d="M69 94h1v1h-1z"/>
  <path fill="#ffb400" fill-opacity="0.3373" d="M47 16h1v1h-1z"/>
  <path fill="#ffc926" fill-opacity="0.3373" d="M70 46h1v1h-1zM37 47h1v1h-1zM41 68h1v1h-1zM58 68h1v1h-1z"/>
  <path fill="#ffb200" fill-opacity="0.3412" d="M52 8h1v1h-1z"/>
  <path fill="#ffca29" fill-opacity="0.3412" d="M57 28h1v1h-1zM22 57h1v1h-1zM39 61h1v1h-1zM53 68h1v1h-1zM53 79h1v1h-1z"/>
  <path fill="#ffb300" fill-opacity="0.3451" d="M47 8h1v1h-1z"/>
  <path fill="#ffca28" fill-opacity="0.3451" d="M42 28h1v1h-1zM38 54h1v1h-1zM27 66h1v1h-1zM73 73h1v1h-1z"/>
  <path fill="#ffdf82" fill-opacity="0.3451" d="M29 60h1v1h-1z"/>
  <path fill="#ffc828" fill-opacity="0.349" d="M64 13h1v1h-1zM44 47h1v1h-1zM72 56h1v1h-1z"/>
  <path fill="#ffdf80" fill-opacity="0.349" d="M66 56h1v1h-1z"/>
  <path fill="#ffc927" fill-opacity="0.3529" d="M35 13h1v1h-1zM54 27h1v1h-1zM44 32h1v1h-1zM29 46h1v1h-1zM61 54h1v1h-1zM45 56h1v1h-1zM46 79h1v1h-1z"/>
  <path fill="#ffdf82" fill-opacity="0.3529" d="M33 56h1v1h-1z"/>
  <path fill="#ffc927" fill-opacity="0.3569" d="M45 27h1v1h-1zM55 32h1v1h-1zM64 79h1v1h-1z"/>
  <path fill="#ffca26" fill-opacity="0.3608" d="M57 97h1v1h-1z"/>
  <path fill="#ffdd79" fill-opacity="0.3608" d="M37 39h1v1h-1z"/>
  <path fill="#ffca29" fill-opacity="0.3647" d="M76 68h1v1h-1zM26 73h1v1h-1zM42 97h1v1h-1z"/>
  <path fill="#ffc828" fill-opacity="0.3686" d="M54 56h1v1h-1zM45 59h1v1h-1zM13 84h1v1h-1zM86 84h1v1h-1z"/>
  <path fill="#ffc928" fill-opacity="0.3725" d="M58 54h1v1h-1zM54 59h1v1h-1zM35 79h1v1h-1z"/>
  <path fill="#ffc927" fill-opacity="0.3765" d="M41 54h1v1h-1z"/>
  <path fill="#ffdf82" fill-opacity="0.3765" d="M70 60h1v1h-1z"/>
  <path fill="#ffca27" fill-opacity="0.3804" d="M44 14h1v1h-1zM55 14h1v1h-1zM65 56h1v1h-1z"/>
  <path fill="#ffca27" fill-opacity="0.3843" d="M42 33h1v1h-1zM23 68h1v1h-1z"/>
  <path fill="#ffca2c" fill-opacity="0.3843" d="M57 70h1v1h-1z"/>
  <path fill="#ffdf82" fill-opacity="0.3843" d="M57 41h1v1h-1z"/>
  <path fill="#ffc621" fill-opacity="0.3882" d="M47 93h1v1h-1zM52 93h1v1h-1z"/>
  <path fill="#ffc928" fill-opacity="0.3922" d="M57 33h1v1h-1zM55 49h1v1h-1zM62 96h1v1h-1z"/>
  <path fill="#ffdb77" fill-opacity="0.3922" d="M62 39h1v1h-1z"/>
  <path fill="#ffc928" fill-opacity="0.3961" d="M44 49h1v1h-1zM34 56h1v1h-1zM37 96h1v1h-1z"/>
  <path fill="#ffca28" fill-opacity="0.4" d="M26 61h1v1h-1zM54 66h1v1h-1zM67 90h1v1h-1z"/>
  <path fill="#ffca2a" fill-opacity="0.4" d="M42 70h1v1h-1z"/>
  <path fill="#ffe182" fill-opacity="0.4" d="M66 57h1v1h-1z"/>
  <path fill="#ffcb27" fill-opacity="0.4039" d="M71 75h1v1h-1zM74 87h1v1h-1zM46 93h1v1h-1zM53 93h1v1h-1z"/>
  <path fill="#ffc927" fill-opacity="0.4078" d="M76 54h1v1h-1z"/>
  <path fill="#ffc926" fill-opacity="0.4118" d="M45 66h1v1h-1zM28 75h1v1h-1z"/>
  <path fill="#ffca28" fill-opacity="0.4157" d="M75 70h1v1h-1zM25 87h1v1h-1z"/>
  <path fill="#ffca28" fill-opacity="0.4196" d="M23 54h1v1h-1z"/>
  <path fill="#ffe083" fill-opacity="0.4196" d="M33 57h1v1h-1z"/>
  <path fill="#ffcb28" fill-opacity="0.4235" d="M57 52h1v1h-1zM37 75h1v1h-1z"/>
  <path fill="#ffc927" fill-opacity="0.4275" d="M38 9h1v1h-1zM24 70h1v1h-1zM62 75h1v1h-1zM39 92h1v1h-1zM60 92h1v1h-1z"/>
  <path fill="#ffc927" fill-opacity="0.4314" d="M61 9h1v1h-1zM68 42h1v1h-1z"/>
  <path fill="#ffca27" fill-opacity="0.4353" d="M73 49h1v1h-1z"/>
  <path fill="#ffda6b" fill-opacity="0.4353" d="M66 55h1v1h-1z"/>
  <path fill="#ffca28" fill-opacity="0.4392" d="M31 42h1v1h-1zM42 52h1v1h-1zM18 83h1v1h-1zM81 83h1v1h-1z"/>
  <path fill="#ffdc76" fill-opacity="0.4392" d="M33 55h1v1h-1z"/>
  <path fill="#ffb200" fill-opacity="0.4431" d="M51 5h1v1h-1z"/>
  <path fill="#ffc624" fill-opacity="0.4431" d="M47 64h1v1h-1zM52 64h1v1h-1z"/>
  <path fill="#ffcb28" fill-opacity="0.4431" d="M32 8h1v1h-1zM67 8h1v1h-1zM53 43h1v1h-1zM26 49h1v1h-1z"/>
  <path fill="#ffb200" fill-opacity="0.4471" d="M48 5h1v1h-1z"/>
  <path fill="#ffdf81" fill-opacity="0.4471" d="M41 70h1v1h-1z"/>
  <path fill="#ffc927" fill-opacity="0.451" d="M72 74h1v1h-1z"/>
  <path fill="#ffdf82" fill-opacity="0.451" d="M58 70h1v1h-1z"/>
  <path fill="#ffca27" fill-opacity="0.4549" d="M46 43h1v1h-1zM59 64h1v1h-1zM27 74h1v1h-1z"/>
  <path fill="#ffc829" fill-opacity="0.4627" d="M37 38h1v1h-1zM75 52h1v1h-1zM73 60h1v1h-1zM64 91h1v1h-1z"/>
  <path fill="#ffd86c" fill-opacity="0.4627" d="M47 35h1v1h-1zM52 35h1v1h-1z"/>
  <path fill="#ffc928" fill-opacity="0.4667" d="M30 71h1v1h-1zM76 86h1v1h-1zM18 88h1v1h-1zM72 88h1v1h-1zM35 91h1v1h-1z"/>
  <path fill="#ffe182" fill-opacity="0.4667" d="M42 41h1v1h-1z"/>
  <path fill="#ffc928" fill-opacity="0.4706" d="M62 38h1v1h-1zM73 61h1v1h-1zM40 64h1v1h-1z"/>
  <path fill="#ffc823" fill-opacity="0.4784" d="M54 14h1v1h-1z"/>
  <path fill="#ffca27" fill-opacity="0.4784" d="M69 71h1v1h-1z"/>
  <path fill="#ffc423" fill-opacity="0.4824" d="M45 14h1v1h-1z"/>
  <path fill="#ffc927" fill-opacity="0.4824" d="M24 52h1v1h-1z"/>
  <path fill="#ffc927" fill-opacity="0.4863" d="M26 60h1v1h-1zM43 97h1v1h-1zM56 97h1v1h-1z"/>
  <path fill="#ffe081" fill-opacity="0.4863" d="M30 63h1v1h-1z"/>
  <path fill="#ffe082" fill-opacity="0.4902" d="M32 67h1v1h-1zM67 67h1v1h-1z"/>
  <path fill="#ffca28" fill-opacity="0.4941" d="M77 64h1v1h-1z"/>
  <path fill="#ffe081" fill-opacity="0.4941" d="M69 63h1v1h-1z"/>
  <path fill="#ffca28" fill-opacity="0.498" d="M54 48h1v1h-1zM26 62h1v1h-1zM73 62h1v1h-1zM45 93h1v1h-1zM54 93h1v1h-1z"/>
  <path fill="#ffc927" fill-opacity="0.502" d="M22 64h1v1h-1zM15 86h1v1h-1zM32 90h1v1h-1z"/>
  <path fill="#ffdf81" fill-opacity="0.502" d="M33 58h1v1h-1z"/>
  <path fill="#ffdf82" fill-opacity="0.5059" d="M66 58h1v1h-1z"/>
  <path fill="#ffca27" fill-opacity="0.5098" d="M28 47h1v1h-1zM71 47h1v1h-1zM77 58h1v1h-1zM71 93h1v1h-1z"/>
  <path fill="#ffca28" fill-opacity="0.5137" d="M28 93h1v1h-1z"/>
  <path fill="#ffca28" fill-opacity="0.5176" d="M45 48h1v1h-1zM22 58h1v1h-1z"/>
  <path fill="#ffc928" fill-opacity="0.5216" d="M31 9h1v1h-1zM68 9h1v1h-1z"/>
  <path fill="#ffc927" fill-opacity="0.5255" d="M36 13h1v1h-1zM63 13h1v1h-1z"/>
  <path fill="#ffe081" fill-opacity="0.5255" d="M56 36h1v1h-1z"/>
  <path fill="#ffe082" fill-opacity="0.5294" d="M43 36h1v1h-1z"/>
  <path fill="#ffca27" fill-opacity="0.5333" d="M65 74h1v1h-1zM23 86h1v1h-1zM27 88h1v1h-1zM81 88h1v1h-1z"/>
  <path fill="#ffdf81" fill-opacity="0.5333" d="M44 40h1v1h-1zM55 40h1v1h-1z"/>
  <path fill="#ffc724" fill-opacity="0.5412" d="M52 31h1v1h-1z"/>
  <path fill="#ffc924" fill-opacity="0.5412" d="M47 31h1v1h-1z"/>
  <path fill="#ffc928" fill-opacity="0.5412" d="M27 48h1v1h-1z"/>
  <path fill="#ffc928" fill-opacity="0.5451" d="M37 9h1v1h-1zM62 9h1v1h-1zM72 48h1v1h-1z"/>
  <path fill="#ffdf82" fill-opacity="0.5451" d="M70 59h1v1h-1z"/>
  <path fill="#ffca28" fill-opacity="0.549" d="M34 74h1v1h-1z"/>
  <path fill="#ffca27" fill-opacity="0.5529" d="M14 83h1v1h-1zM85 83h1v1h-1z"/>
  <path fill="#ffe082" fill-opacity="0.5529" d="M35 64h1v1h-1zM64 64h1v1h-1z"/>
  <path fill="#ffc927" fill-opacity="0.5569" d="M68 72h1v1h-1zM68 77h1v1h-1z"/>
  <path fill="#ffe082" fill-opacity="0.5608" d="M29 59h1v1h-1z"/>
  <path fill="#ffc621" fill-opacity="0.5647" d="M47 52h1v1h-1z"/>
  <path fill="#ffc928" fill-opacity="0.5647" d="M78 85h1v1h-1z"/>
  <path fill="#ffca28" fill-opacity="0.5686" d="M70 70h1v1h-1zM21 85h1v1h-1zM84 86h1v1h-1z"/>
  <path fill="#ffdf82" fill-opacity="0.5686" d="M65 62h1v1h-1z"/>
  <path fill="#ffdf81" fill-opacity="0.5725" d="M38 73h1v1h-1z"/>
  <path fill="#ffc927" fill-opacity="0.5765" d="M53 27h1v1h-1zM73 63h1v1h-1z"/>
  <path fill="#ffc927" fill-opacity="0.5804" d="M46 27h1v1h-1z"/>
  <path fill="#ffdf81" fill-opacity="0.5804" d="M61 73h1v1h-1z"/>
  <path fill="#ffc927" fill-opacity="0.5843" d="M68 43h1v1h-1z"/>
  <path fill="#ffe082" fill-opacity="0.5843" d="M34 62h1v1h-1z"/>
  <path fill="#ffca28" fill-opacity="0.5882" d="M26 59h1v1h-1zM44 97h1v1h-1zM55 97h1v1h-1z"/>
  <path fill="#ffca28" fill-opacity="0.5922" d="M31 43h1v1h-1zM36 51h1v1h-1z"/>
  <path fill="#ffc928" fill-opacity="0.5961" d="M61 60h1v1h-1zM66 78h1v1h-1z"/>
  <path fill="#ffc928" fill-opacity="0.6" d="M63 51h1v1h-1zM26 63h1v1h-1zM31 72h1v1h-1zM31 77h1v1h-1z"/>
  <path fill="#ffca27" fill-opacity="0.6039" d="M31 12h1v1h-1zM68 12h1v1h-1zM73 59h1v1h-1zM59 63h1v1h-1z"/>
  <path fill="#ffca27" fill-opacity="0.6078" d="M38 60h1v1h-1zM40 63h1v1h-1zM63 79h1v1h-1zM44 93h1v1h-1zM55 93h1v1h-1zM65 95h1v1h-1z"/>
  <path fill="#ffca27" fill-opacity="0.6118" d="M54 47h1v1h-1zM34 95h1v1h-1z"/>
  <path fill="#ffc928" fill-opacity="0.6157" d="M65 35h1v1h-1z"/>
  <path fill="#ffcb28" fill-opacity="0.6157" d="M63 47h1v1h-1z"/>
  <path fill="#ffc928" fill-opacity="0.6196" d="M67 39h1v1h-1zM70 89h1v1h-1z"/>
  <path fill="#ffca27" fill-opacity="0.6275" d="M45 79h1v1h-1z"/>
  <path fill="#ffe081" fill-opacity="0.6275" d="M29 53h1v1h-1z"/>
  <path fill="#ffe082" fill-opacity="0.6275" d="M68 65h1v1h-1z"/>
  <path fill="#ffc926" fill-opacity="0.6314" d="M52 52h1v1h-1z"/>
  <path fill="#ffca27" fill-opacity="0.6314" d="M34 35h1v1h-1zM32 39h1v1h-1zM29 70h1v1h-1zM33 78h1v1h-1zM29 89h1v1h-1zM61 96h1v1h-1z"/>
  <path fill="#ffdf7e" fill-opacity="0.6314" d="M70 53h1v1h-1z"/>
  <path fill="#ffc927" fill-opacity="0.6353" d="M64 57h1v1h-1zM31 94h1v1h-1zM38 96h1v1h-1z"/>
  <path fill="#ffc925" fill-opacity="0.6392" d="M47 70h1v1h-1z"/>
  <path fill="#ffc928" fill-opacity="0.6392" d="M77 59h1v1h-1zM36 79h1v1h-1zM54 79h1v1h-1z"/>
  <path fill="#ffb200" fill-opacity="0.6431" d="M52 9h1v1h-1z"/>
  <path fill="#ffca28" fill-opacity="0.6431" d="M77 63h1v1h-1zM73 92h1v1h-1z"/>
  <path fill="#ffb300" fill-opacity="0.6471" d="M47 9h1v1h-1z"/>
  <path fill="#ffca28" fill-opacity="0.6471" d="M22 63h1v1h-1zM26 92h1v1h-1z"/>
  <path fill="#ffe081" fill-opacity="0.6471" d="M31 65h1v1h-1z"/>
  <path fill="#ffc927" fill-opacity="0.651" d="M37 13h1v1h-1zM62 13h1v1h-1zM37 53h1v1h-1zM35 57h1v1h-1z"/>
  <path fill="#ffc92a" fill-opacity="0.6549" d="M36 47h1v1h-1z"/>
  <path fill="#ffc927" fill-opacity="0.6588" d="M62 53h1v1h-1zM22 59h1v1h-1z"/>
  <path fill="#ffca28" fill-opacity="0.6627" d="M45 47h1v1h-1z"/>
  <path fill="#ffdf81" fill-opacity="0.6627" d="M29 58h1v1h-1z"/>
  <path fill="#ffca28" fill-opacity="0.6667" d="M61 92h1v1h-1z"/>
  <path fill="#ffc928" fill-opacity="0.6706" d="M46 10h1v1h-1zM38 92h1v1h-1z"/>
  <path fill="#ffca28" fill-opacity="0.6706" d="M53 10h1v1h-1z"/>
  <path fill="#ffdf81" fill-opacity="0.6706" d="M66 59h1v1h-1z"/>
  <path fill="#ffc928" fill-opacity="0.6745" d="M79 89h1v1h-1z"/>
  <path fill="#ffc927" fill-opacity="0.6784" d="M68 44h1v1h-1z"/>
  <path fill="#ffd862" fill-opacity="0.6784" d="M59 42h1v1h-1z"/>
  <path fill="#ffdd78" fill-opacity="0.6784" d="M57 75h1v1h-1z"/>
  <path fill="#ffde7b" fill-opacity="0.6784" d="M42 75h1v1h-1z"/>
  <path fill="#ffca27" fill-opacity="0.6824" d="M60 30h1v1h-1zM20 89h1v1h-1z"/>
  <path fill="#ffca27" fill-opacity="0.6863" d="M31 44h1v1h-1z"/>
  <path fill="#ffc928" fill-opacity="0.6902" d="M39 30h1v1h-1z"/>
  <path fill="#ffca27" fill-opacity="0.6902" d="M22 61h1v1h-1z"/>
  <path fill="#ffe082" fill-opacity="0.6902" d="M33 59h1v1h-1z"/>
  <path fill="#ffc928" fill-opacity="0.6941" d="M59 62h1v1h-1z"/>
  <path fill="#ffdf81" fill-opacity="0.6941" d="M70 58h1v1h-1z"/>
  <path fill="#ffc928" fill-opacity="0.698" d="M27 55h1v1h-1zM45 97h1v1h-1zM54 97h1v1h-1z"/>
  <path fill="#ffc723" fill-opacity="0.702" d="M52 70h1v1h-1z"/>
  <path fill="#ffca27" fill-opacity="0.702" d="M36 9h1v1h-1zM63 9h1v1h-1zM54 43h1v1h-1zM58 67h1v1h-1zM68 94h1v1h-1z"/>
  <path fill="#ffca27" fill-opacity="0.7059" d="M41 67h1v1h-1z"/>
  <path fill="#ffdf82" fill-opacity="0.7059" d="M29 54h1v1h-1zM38 68h1v1h-1zM61 68h1v1h-1z"/>
  <path fill="#ffc928" fill-opacity="0.7137" d="M77 62h1v1h-1zM15 82h1v1h-1zM43 93h1v1h-1zM56 93h1v1h-1z"/>
  <path fill="#ffdd75" fill-opacity="0.7137" d="M40 42h1v1h-1z"/>
  <path fill="#ffe082" fill-opacity="0.7137" d="M39 38h1v1h-1z"/>
  <path fill="#ffca28" fill-opacity="0.7176" d="M46 31h1v1h-1zM39 35h1v1h-1zM26 58h1v1h-1zM22 62h1v1h-1zM67 73h1v1h-1z"/>
  <path fill="#ffcb28" fill-opacity="0.7176" d="M40 62h1v1h-1z"/>
  <path fill="#ffca28" fill-opacity="0.7216" d="M53 31h1v1h-1zM60 35h1v1h-1zM45 43h1v1h-1zM32 73h1v1h-1zM63 75h1v1h-1z"/>
  <path fill="#ffca27" fill-opacity="0.7255" d="M72 55h1v1h-1zM22 60h1v1h-1zM77 60h1v1h-1z"/>
  <path fill="#ffe081" fill-opacity="0.7255" d="M62 67h1v1h-1z"/>
  <path fill="#ffc927" fill-opacity="0.7294" d="M45 10h1v1h-1zM54 10h1v1h-1zM36 58h1v1h-1z"/>
  <path fill="#ffc927" fill-opacity="0.7333" d="M56 28h1v1h-1zM62 59h1v1h-1zM72 67h1v1h-1zM84 82h1v1h-1z"/>
  <path fill="#ffca27" fill-opacity="0.7373" d="M58 55h1v1h-1zM26 64h1v1h-1zM36 75h1v1h-1z"/>
  <path fill="#ffdf82" fill-opacity="0.7373" d="M70 54h1v1h-1zM37 67h1v1h-1z"/>
  <path fill="#ffca28" fill-opacity="0.7412" d="M43 28h1v1h-1zM37 59h1v1h-1zM22 90h1v1h-1z"/>
  <path fill="#ffdf81" fill-opacity="0.7412" d="M60 38h1v1h-1zM29 57h1v1h-1z"/>
  <path fill="#ffb200" fill-opacity="0.7451" d="M51 6h1v1h-1z"/>
  <path fill="#ffca28" fill-opacity="0.7451" d="M27 67h1v1h-1z"/>
  <path fill="#ffb200" fill-opacity="0.749" d="M48 6h1v1h-1z"/>
  <path fill="#ffc928" fill-opacity="0.749" d="M45 55h1v1h-1zM54 55h1v1h-1zM63 58h1v1h-1zM77 61h1v1h-1zM76 67h1v1h-1z"/>
  <path fill="#ffd042" fill-opacity="0.749" d="M70 52h1v1h-1z"/>
  <path fill="#ffe081" fill-opacity="0.749" d="M58 37h1v1h-1z"/>
  <path fill="#ffe082" fill-opacity="0.749" d="M41 37h1v1h-1z"/>
  <path fill="#ffc927" fill-opacity="0.7529" d="M41 55h1v1h-1zM23 67h1v1h-1z"/>
  <path fill="#ffe082" fill-opacity="0.7529" d="M59 74h1v1h-1z"/>
  <path fill="#ffc826" fill-opacity="0.7569" d="M47 27h1v1h-1zM52 27h1v1h-1z"/>
  <path fill="#ffe081" fill-opacity="0.7569" d="M40 74h1v1h-1z"/>
  <path fill="#ffca27" fill-opacity="0.7608" d="M55 58h1v1h-1z"/>
  <path fill="#ffd85f" fill-opacity="0.7608" d="M29 52h1v1h-1z"/>
  <path fill="#ffc928" fill-opacity="0.7647" d="M66 37h1v1h-1z"/>
  <path fill="#ffdf81" fill-opacity="0.7647" d="M70 57h1v1h-1z"/>
  <path fill="#ffc928" fill-opacity="0.7686" d="M38 13h1v1h-1zM61 13h1v1h-1zM76 55h1v1h-1zM73 58h1v1h-1zM68 90h1v1h-1zM77 90h1v1h-1zM65 91h1v1h-1z"/>
  <path fill="#ffc928" fill-opacity="0.7725" d="M31 10h1v1h-1zM68 10h1v1h-1zM34 91h1v1h-1z"/>
  <path fill="#ffcf3c" fill-opacity="0.7725" d="M66 54h1v1h-1z"/>
  <path fill="#ffd24c" fill-opacity="0.7725" d="M63 40h1v1h-1z"/>
  <path fill="#ffd96b" fill-opacity="0.7725" d="M36 40h1v1h-1z"/>
  <path fill="#ffca27" fill-opacity="0.7765" d="M44 58h1v1h-1zM75 91h1v1h-1z"/>
  <path fill="#ffcb30" fill-opacity="0.7765" d="M64 48h1v1h-1z"/>
  <path fill="#ffe082" fill-opacity="0.7765" d="M66 68h1v1h-1z"/>
  <path fill="#ffca27" fill-opacity="0.7804" d="M33 37h1v1h-1zM28 53h1v1h-1zM24 91h1v1h-1z"/>
  <path fill="#ffe081" fill-opacity="0.7804" d="M29 55h1v1h-1zM33 68h1v1h-1z"/>
  <path fill="#ffc927" fill-opacity="0.7843" d="M55 64h1v1h-1zM45 67h1v1h-1z"/>
  <path fill="#ffd148" fill-opacity="0.7843" d="M35 48h1v1h-1z"/>
  <path fill="#ffc928" fill-opacity="0.7882" d="M23 55h1v1h-1z"/>
  <path fill="#ffd75c" fill-opacity="0.7882" d="M33 54h1v1h-1z"/>
  <path fill="#ffc928" fill-opacity="0.7922" d="M54 67h1v1h-1zM80 84h1v1h-1zM46 97h1v1h-1zM53 97h1v1h-1z"/>
  <path fill="#ffdf82" fill-opacity="0.7922" d="M70 55h1v1h-1z"/>
  <path fill="#ffca28" fill-opacity="0.7961" d="M44 10h1v1h-1zM55 10h1v1h-1zM74 71h1v1h-1zM19 84h1v1h-1z"/>
  <path fill="#ffb200" fill-opacity="0.8" d="M49 4h2v1h-2z"/>
  <path fill="#ffca28" fill-opacity="0.8" d="M59 34h1v1h-1zM73 64h1v1h-1z"/>
  <path fill="#ffdc74" fill-opacity="0.8039" d="M47 39h1v1h-1zM52 39h1v1h-1z"/>
  <path fill="#ffc927" fill-opacity="0.8078" d="M44 64h1v1h-1zM85 85h1v1h-1z"/>
  <path fill="#ffe081" fill-opacity="0.8078" d="M29 56h1v1h-1zM60 69h1v1h-1z"/>
  <path fill="#ffca27" fill-opacity="0.8118" d="M43 51h1v1h-1zM83 82h1v1h-1zM14 85h1v1h-1z"/>
  <path fill="#ffe082" fill-opacity="0.8118" d="M39 69h1v1h-1z"/>
  <path fill="#ffca28" fill-opacity="0.8157" d="M32 12h1v1h-1zM67 12h1v1h-1zM46 53h1v1h-1zM25 71h1v1h-1zM47 97h1v1h-1zM52 97h1v1h-1z"/>
  <path fill="#ffe081" fill-opacity="0.8157" d="M70 56h1v1h-1z"/>
  <path fill="#ffca28" fill-opacity="0.8196" d="M40 34h1v1h-1zM56 51h1v1h-1z"/>
  <path fill="#ffc928" fill-opacity="0.8235" d="M53 53h1v1h-1zM71 69h1v1h-1z"/>
  <path fill="#ffdf81" fill-opacity="0.8235" d="M55 36h1v1h-1zM37 72h1v1h-1zM62 72h1v1h-1z"/>
  <path fill="#ffc926" fill-opacity="0.8275" d="M47 60h1v1h-1z"/>
  <path fill="#ffc927" fill-opacity="0.8275" d="M71 53h1v1h-1zM28 69h1v1h-1z"/>
  <path fill="#ffdf82" fill-opacity="0.8275" d="M44 36h1v1h-1z"/>
  <path fill="#ffca27" fill-opacity="0.8314" d="M43 32h1v1h-1zM38 36h1v1h-1zM52 60h1v1h-1zM62 79h1v1h-1z"/>
  <path fill="#ffca28" fill-opacity="0.8314" d="M69 76h1v1h-1z"/>
  <path fill="#ffca27" fill-opacity="0.8353" d="M56 32h1v1h-1zM61 36h1v1h-1zM55 79h1v1h-1zM16 82h1v1h-1zM31 90h1v1h-1z"/>
  <path fill="#ffe081" fill-opacity="0.8392" d="M43 40h1v1h-1z"/>
  <path fill="#ffc928" fill-opacity="0.8431" d="M39 96h1v1h-1zM60 96h1v1h-1z"/>
  <path fill="#ffe082" fill-opacity="0.8431" d="M36 66h1v1h-1z"/>
  <path fill="#ffc928" fill-opacity="0.8471" d="M35 34h1v1h-1zM55 43h1v1h-1z"/>
  <path fill="#ffca27" fill-opacity="0.851" d="M58 29h1v1h-1zM82 87h1v1h-1z"/>
  <path fill="#ffe082" fill-opacity="0.851" d="M69 62h1v1h-1zM63 66h1v1h-1z"/>
  <path fill="#ffca27" fill-opacity="0.8549" d="M74 51h1v1h-1zM44 79h1v1h-1zM17 87h1v1h-1z"/>
  <path fill="#ffc927" fill-opacity="0.8588" d="M43 10h1v1h-1zM41 29h1v1h-1zM64 34h1v1h-1zM25 51h1v1h-1z"/>
  <path fill="#ffdf82" fill-opacity="0.8588" d="M30 62h1v1h-1z"/>
  <path fill="#ffc928" fill-opacity="0.8627" d="M56 10h1v1h-1zM53 69h1v1h-1z"/>
  <path fill="#ffc928" fill-opacity="0.8667" d="M57 69h1v1h-1zM37 79h1v1h-1zM42 93h1v1h-1zM57 93h1v1h-1zM48 97h1v1h-1zM51 97h1v1h-1z"/>
  <path fill="#ffcc32" fill-opacity="0.8667" d="M56 71h1v1h-1z"/>
  <path fill="#ffca29" fill-opacity="0.8706" d="M44 59h1v1h-1z"/>
  <path fill="#ffca28" fill-opacity="0.8745" d="M55 59h1v1h-1z"/>
  <path fill="#ffe082" fill-opacity="0.8745" d="M57 71h1v1h-1z"/>
  <path fill="#ffc927" fill-opacity="0.8784" d="M35 9h1v1h-1zM64 9h1v1h-1zM61 31h1v1h-1zM46 69h1v1h-1z"/>
  <path fill="#ffcc31" fill-opacity="0.8824" d="M43 71h1v1h-1z"/>
  <path fill="#ffe081" fill-opacity="0.8824" d="M42 71h1v1h-1z"/>
  <path fill="#ffe082" fill-opacity="0.8824" d="M35 65h1v1h-1z"/>
  <path fill="#ffc927" fill-opacity="0.8863" d="M38 31h1v1h-1zM63 39h1v1h-1zM42 69h1v1h-1z"/>
  <path fill="#ffca28" fill-opacity="0.8902" d="M73 88h1v1h-1z"/>
  <path fill="#ffdf82" fill-opacity="0.8902" d="M58 41h1v1h-1z"/>
  <path fill="#ffca27" fill-opacity="0.8941" d="M55 63h1v1h-1z"/>
  <path fill="#ffca28" fill-opacity="0.8941" d="M39 13h1v1h-1zM60 13h1v1h-1zM36 39h1v1h-1zM42 53h1v1h-1zM75 69h1v1h-1z"/>
  <path fill="#ffdf81" fill-opacity="0.8941" d="M56 40h1v1h-1z"/>
  <path fill="#ffc928" fill-opacity="0.898" d="M57 53h1v1h-1zM75 87h1v1h-1zM49 97h2v1h-2z"/>
  <path fill="#ffc927" fill-opacity="0.902" d="M24 69h1v1h-1zM64 95h1v1h-1z"/>
  <path fill="#ffca27" fill-opacity="0.902" d="M44 63h1v1h-1z"/>
  <path fill="#ffca27" fill-opacity="0.9059" d="M59 46h1v1h-1zM30 76h1v1h-1zM24 87h1v1h-1zM62 92h1v1h-1zM35 95h1v1h-1z"/>
  <path fill="#ffe082" fill-opacity="0.9059" d="M33 60h1v1h-1zM66 60h1v1h-1z"/>
  <path fill="#ffca27" fill-opacity="0.9098" d="M39 56h1v1h-1zM37 92h1v1h-1z"/>
  <path fill="#ffe081" fill-opacity="0.9098" d="M65 69h1v1h-1z"/>
  <path fill="#ffca28" fill-opacity="0.9137" d="M41 33h1v1h-1zM58 46h1v1h-1zM60 56h1v1h-1zM29 93h1v1h-1zM70 93h1v1h-1z"/>
  <path fill="#ffe082" fill-opacity="0.9137" d="M41 41h1v1h-1z"/>
  <path fill="#ffc928" fill-opacity="0.9176" d="M58 33h1v1h-1zM68 45h1v1h-1zM40 46h1v1h-1zM26 88h1v1h-1z"/>
  <path fill="#ffe081" fill-opacity="0.9176" d="M63 71h1v1h-1z"/>
  <path fill="#ffc928" fill-opacity="0.9216" d="M31 45h1v1h-1z"/>
  <path fill="#ffdf82" fill-opacity="0.9216" d="M34 69h1v1h-1z"/>
  <path fill="#ffca27" fill-opacity="0.9255" d="M63 33h1v1h-1zM41 46h1v1h-1zM35 49h1v1h-1z"/>
  <path fill="#ffdf81" fill-opacity="0.9255" d="M36 71h1v1h-1z"/>
  <path fill="#ffca27" fill-opacity="0.9294" d="M36 33h1v1h-1zM64 49h1v1h-1zM24 53h1v1h-1z"/>
  <path fill="#ffc927" fill-opacity="0.9333" d="M25 61h1v1h-1z"/>
  <path fill="#ffca27" fill-opacity="0.9333" d="M62 32h1v1h-1zM75 53h1v1h-1zM45 54h1v1h-1z"/>
  <path fill="#ffdf81" fill-opacity="0.9333" d="M38 39h1v1h-1zM33 67h1v1h-1z"/>
  <path fill="#ffc927" fill-opacity="0.9373" d="M37 32h1v1h-1zM37 37h1v1h-1zM34 55h1v1h-1zM77 86h1v1h-1z"/>
  <path fill="#ffe082" fill-opacity="0.9373" d="M35 70h1v1h-1z"/>
  <path fill="#ffc928" fill-opacity="0.9412" d="M62 37h1v1h-1zM67 40h1v1h-1zM65 55h1v1h-1z"/>
  <path fill="#ffca28" fill-opacity="0.9451" d="M69 46h1v1h-1zM65 78h1v1h-1z"/>
  <path fill="#ffe082" fill-opacity="0.9451" d="M64 70h1v1h-1z"/>
  <path fill="#ffca28" fill-opacity="0.949" d="M32 40h1v1h-1zM44 43h1v1h-1zM30 46h1v1h-1z"/>
  <path fill="#ffe081" fill-opacity="0.949" d="M46 39h1v1h-1zM53 39h1v1h-1zM65 63h1v1h-1z"/>
  <path fill="#ffc927" fill-opacity="0.9529" d="M42 10h1v1h-1zM57 10h1v1h-1zM73 57h1v1h-1zM66 74h1v1h-1zM22 86h1v1h-1zM32 94h1v1h-1z"/>
  <path fill="#ffdf82" fill-opacity="0.9529" d="M34 63h1v1h-1zM59 70h1v1h-1z"/>
  <path fill="#ffc927" fill-opacity="0.9569" d="M59 61h1v1h-1z"/>
  <path fill="#ffdf81" fill-opacity="0.9569" d="M61 39h1v1h-1zM32 66h1v1h-1z"/>
  <path fill="#ffc724" fill-opacity="0.9608" d="M47 78h1v1h-1z"/>
  <path fill="#ffc927" fill-opacity="0.9608" d="M61 55h1v1h-1zM44 57h1v1h-1zM26 72h1v1h-1z"/>
  <path fill="#ffc928" fill-opacity="0.9608" d="M43 53h1v1h-1z"/>
  <path fill="#ffdf82" fill-opacity="0.9608" d="M40 70h1v1h-1z"/>
  <path fill="#ffb300" fill-opacity="0.9647" d="M52 15h1v1h-1z"/>
  <path fill="#ffc928" fill-opacity="0.9647" d="M68 75h1v1h-1z"/>
  <path fill="#ffca27" fill-opacity="0.9647" d="M52 78h1v1h-1z"/>
  <path fill="#ffca28" fill-opacity="0.9647" d="M53 47h1v1h-1zM26 57h1v1h-1zM73 72h1v1h-1z"/>
  <path fill="#ffdf81" fill-opacity="0.9647" d="M67 66h1v1h-1z"/>
  <path fill="#ffca28" fill-opacity="0.9686" d="M60 46h1v1h-1zM38 55h1v1h-1zM33 74h1v1h-1zM34 78h1v1h-1zM17 83h1v1h-1zM82 83h1v1h-1zM67 94h1v1h-1z"/>
  <path fill="#ffdb6f" fill-opacity="0.9686" d="M43 75h1v1h-1z"/>
  <path fill="#ffb100" fill-opacity="0.9725" d="M47 15h1v1h-1z"/>
  <path fill="#ffc928" fill-opacity="0.9725" d="M45 31h1v1h-1zM55 50h1v1h-1zM45 63h1v1h-1zM54 63h1v1h-1zM41 66h1v1h-1zM19 88h1v1h-1zM71 89h1v1h-1z"/>
  <path fill="#ffca28" fill-opacity="0.9725" d="M46 47h1v1h-1z"/>
  <path fill="#ffdb6e" fill-opacity="0.9725" d="M56 75h1v1h-1z"/>
  <path fill="#ffb302" fill-opacity="0.9765" d="M52 10h1v1h-1z"/>
  <path fill="#ffb402" fill-opacity="0.9765" d="M47 10h1v1h-1z"/>
  <path fill="#ffc927" fill-opacity="0.9765" d="M31 11h1v1h-1zM33 12h1v1h-1zM66 12h1v1h-1zM54 31h1v1h-1zM44 50h1v1h-1zM36 52h1v1h-1zM63 52h1v1h-1zM23 61h1v1h-1zM40 61h1v1h-1zM26 65h1v1h-1zM44 65h1v1h-1zM58 66h1v1h-1zM64 75h1v1h-1zM28 89h1v1h-1zM27 92h1v1h-1zM72 92h1v1h-1z"/>
  <path fill="#ffca27" fill-opacity="0.9765" d="M44 54h1v1h-1z"/>
  <path fill="#ffb200" fill-opacity="0.9804" d="M48 7h1v1h-1z"/>
  <path fill="#ffb301" fill-opacity="0.9804" d="M53 14h1v1h-1z"/>
  <path fill="#ffc927" fill-opacity="0.9804" d="M68 11h1v1h-1zM26 50h1v1h-1zM59 57h1v1h-1zM73 65h1v1h-1zM67 77h1v1h-1zM80 88h1v1h-1z"/>
  <path fill="#ffc928" fill-opacity="0.9804" d="M40 57h1v1h-1z"/>
  <path fill="#ffe081" fill-opacity="0.9804" d="M68 64h1v1h-1z"/>
  <path fill="#ffb200" fill-opacity="0.9843" d="M51 7h1v1h-1z"/>
  <path fill="#ffb201" fill-opacity="0.9843" d="M46 14h1v1h-1z"/>
  <path fill="#ffca27" fill-opacity="0.9843" d="M58 56h1v1h-1zM55 57h1v1h-1zM46 60h1v1h-1zM76 66h1v1h-1zM35 75h1v1h-1zM70 75h1v1h-1zM59 96h1v1h-1z"/>
  <path fill="#ffdf82" fill-opacity="0.9843" d="M64 65h1v1h-1z"/>
  <path fill="#ffc927" fill-opacity="0.9882" d="M57 46h1v1h-1z"/>
  <path fill="#ffca27" fill-opacity="0.9882" d="M56 44h1v1h-1z"/>
  <path fill="#ffca28" fill-opacity="0.9882" d="M73 50h1v1h-1zM41 56h1v1h-1zM53 60h1v1h-1zM29 75h1v1h-1zM40 76h2v1h-2zM38 79h1v1h-1zM43 79h1v1h-1zM56 79h1v1h-1zM20 85h1v1h-1zM79 85h1v1h-1zM66 91h1v1h-1zM40 96h1v1h-1z"/>
  <path fill="#ffca29" fill-opacity="0.9882" d="M66 53h1v1h-1z"/>
  <path fill="#ffd65c" fill-opacity="0.9882" d="M33 53h1v1h-1z"/>
  <path fill="#ffdf81" fill-opacity="0.9882" d="M31 64h1v1h-1z"/>
  <path fill="#ffc825" fill-opacity="0.9922" d="M52 44h1v1h-1z"/>
  <path fill="#ffc927" fill-opacity="0.9922" d="M68 74h1v1h-1z"/>
  <path fill="#ffc928" fill-opacity="0.9922" d="M40 13h1v1h-1zM59 13h1v1h-1zM44 28h1v1h-1zM55 28h1v1h-1zM47 44h1v1h-1zM76 56h1v1h-1zM55 65h1v1h-1zM23 66h1v1h-1zM32 77h1v1h-1zM61 79h1v1h-1zM16 86h1v1h-1zM33 91h1v1h-1z"/>
  <path fill="#ffca2a" fill-opacity="0.9922" d="M64 47h1v1h-1z"/>
  <path fill="#ffdf82" fill-opacity="0.9922" d="M39 73h1v1h-1zM60 73h1v1h-1z"/>
  <path fill="#ffc725" fill-opacity="0.9961" d="M47 51h1v1h-1z"/>
  <path fill="#ffc928" fill-opacity="0.9961" d="M34 36h1v1h-1zM65 36h1v1h-1zM70 47h1v1h-1zM37 54h1v1h-1zM62 54h1v1h-1zM72 54h1v1h-1zM23 56h1v1h-1zM27 73h1v1h-1zM72 73h1v1h-1zM71 74h1v1h-1zM83 86h1v1h-1zM21 89h1v1h-1zM78 89h1v1h-1zM41 93h1v1h-1zM58 93h1v1h-1z"/>
  <path fill="#ffdc73" fill-opacity="0.9961" d="M35 47h1v1h-1z"/>
  <path fill="#ffdf81" fill-opacity="0.9961" d="M45 36h1v1h-1zM54 36h1v1h-1z"/>
  <path fill="#ffb300" d="M49 5h2v3h-2zM48 8h4v3h-4zM47 11h6v4h-6zM48 15h4v12h-4zM48 32h4v12h-4zM50 44h2v1h-2zM48 50h2v1h-2zM48 51h3v1h-3zM48 52h4v8h-4zM48 65h4v6h-4zM49 71h3v1h-3zM51 72h1v1h-1zM48 78h2v1h-2zM48 79h4v14h-4z"/>
  <path fill="#ffb301" d="M50 72h1v1h-1z"/>
  <path fill="#ffb402" d="M48 77h1v1h-1z"/>
  <path fill="#ffb503" d="M48 49h1v1h-1z"/>
  <path fill="#ffb504" d="M51 45h1v1h-1z"/>
  <path fill="#ffb605" d="M51 73h1v1h-1zM50 78h1v1h-1z"/>
  <path fill="#ffb706" d="M46 13h1v1h-1zM53 13h1v1h-1z"/>
  <path fill="#ffb809" d="M49 44h1v1h-1z"/>
  <path fill="#ffb90b" d="M49 93h2v1h-2z"/>
  <path fill="#ffba0c" d="M49 31h2v1h-2z"/>
  <path fill="#ffba0d" d="M48 93h1v1h-1zM51 93h1v1h-1z"/>
  <path fill="#ffbc10" d="M48 31h1v1h-1zM51 31h1v1h-1z"/>
  <path fill="#ffbd11" d="M51 51h1v1h-1z"/>
  <path fill="#ffbd13" d="M50 50h1v1h-1z"/>
  <path fill="#ffbe12" d="M46 12h1v1h-1zM53 12h1v1h-1z"/>
  <path fill="#ffbe14" d="M48 64h1v1h-1zM51 64h1v1h-1z"/>
  <path fill="#ffbf15" d="M48 71h1v1h-1z"/>
  <path fill="#ffc015" d="M49 72h1v1h-1z"/>
  <path fill="#ffc016" d="M49 64h2v1h-2z"/>
  <path fill="#ffc017" d="M49 77h1v1h-1z"/>
  <path fill="#ffc118" d="M49 60h2v1h-2zM51 78h1v1h-1z"/>
  <path fill="#ffc21b" d="M50 45h1v1h-1zM49 49h1v1h-1z"/>
  <path fill="#ffc31b" d="M48 60h1v1h-1zM51 60h1v1h-1z"/>
  <path fill="#ffc41c" d="M48 44h1v1h-1z"/>
  <path fill="#ffc41e" d="M46 11h1v1h-1z"/>
  <path fill="#ffc51e" d="M53 11h1v1h-1z"/>
  <path fill="#ffc51f" d="M50 73h1v1h-1z"/>
  <path fill="#ffc622" d="M48 27h1v1h-1zM51 27h1v1h-1z"/>
  <path fill="#ffc824" d="M49 27h2v1h-2zM48 76h1v1h-1z"/>
  <path fill="#ffc825" d="M52 45h1v1h-1zM47 49h1v2h-1zM52 71h1v3h-1zM47 77h1v1h-1z"/>
  <path fill="#ffc826" d="M52 46h1v1h-1zM47 76h1v1h-1z"/>
  <path fill="#ffc925" d="M51 46h1v1h-1z"/>
  <path fill="#ffc926" d="M47 48h2v1h-2zM51 74h1v1h-1z"/>
  <path fill="#ffc927" d="M52 74h1v1h-1z"/>
  <path fill="#ffc928" d="M51 50h1v1h-1z"/>
  <path fill="#ffca27" d="M50 77h1v1h-1z"/>
  <path fill="#ffca28" d="M32 9h3v1h-3zM65 9h3v1h-3zM32 10h10v1h-10zM58 10h10v1h-10zM32 11h14v1h-14zM54 11h14v1h-14zM34 12h12v1h-12zM54 12h12v1h-12zM41 13h5v1h-5zM54 13h5v1h-5zM45 28h10v1h-10zM42 29h16v1h-16zM40 30h20v1h-20zM39 31h6v1h-6zM55 31h6v1h-6zM38 32h5v1h-5zM57 32h5v1h-5zM37 33h4v1h-4zM59 33h4v1h-4zM36 34h4v1h-4zM60 34h4v1h-4zM35 35h4v1h-4zM61 35h4v1h-4zM35 36h3v1h-3zM62 36h3v1h-3zM34 37h3v1h-3zM63 37h3v1h-3zM33 38h4v1h-4zM63 38h4v1h-4zM33 39h3v1h-3zM64 39h3v2h-3zM33 40h2v1h-2zM64 41h4v1h-4zM32 41h2v2h-2zM65 42h3v2h-3zM32 43h1v1h-1zM40 43h4v1h-4zM56 43h6v1h-6zM39 44h8v1h-8zM53 44h3v1h-3zM57 44h11v1h-11zM38 45h12v1h-12zM53 45h15v1h-15zM37 46h3v1h-3zM42 46h9v1h-9zM53 46h4v1h-4zM61 46h8v1h-8zM29 47h1v1h-1zM47 47h6v1h-6zM65 47h5v1h-5zM28 48h2v1h-2zM46 48h1v1h-1zM49 48h5v1h-5zM65 48h7v1h-7zM27 49h3v1h-3zM50 49h5v1h-5zM65 49h8v1h-8zM45 49h2v2h-2zM27 50h2v1h-2zM52 50h3v1h-3zM64 50h4v1h-4zM70 50h3v1h-3zM35 50h1v2h-1zM26 51h3v1h-3zM44 51h3v1h-3zM52 51h4v1h-4zM70 51h4v1h-4zM64 51h3v2h-3zM25 52h4v1h-4zM34 52h2v1h-2zM43 52h4v1h-4zM53 52h4v1h-4zM71 52h4v1h-4zM25 53h3v1h-3zM44 53h2v1h-2zM54 53h3v1h-3zM72 53h3v1h-3zM34 53h3v2h-3zM63 53h3v2h-3zM24 54h4v1h-4zM42 54h2v1h-2zM54 54h4v1h-4zM35 55h3v1h-3zM62 55h3v1h-3zM73 54h3v3h-3zM24 55h3v2h-3zM42 55h3v2h-3zM55 55h3v2h-3zM35 56h4v1h-4zM61 56h4v1h-4zM36 57h4v1h-4zM41 57h3v1h-3zM56 57h3v1h-3zM60 57h4v1h-4zM37 58h7v1h-7zM56 58h7v1h-7zM38 59h6v1h-6zM56 59h6v1h-6zM23 57h3v4h-3zM39 60h7v1h-7zM54 60h7v1h-7zM24 61h1v1h-1zM41 61h18v2h-18zM46 63h8v1h-8zM74 57h3v9h-3zM23 62h3v4h-3zM41 63h3v3h-3zM56 63h3v3h-3zM24 66h3v2h-3zM42 66h3v2h-3zM55 66h3v2h-3zM73 66h3v2h-3zM24 68h4v1h-4zM42 68h4v1h-4zM54 68h4v1h-4zM72 68h4v1h-4zM25 69h3v1h-3zM43 69h3v1h-3zM54 69h3v1h-3zM72 69h3v1h-3zM25 70h4v1h-4zM43 70h4v1h-4zM53 70h4v1h-4zM71 70h4v1h-4zM26 71h4v1h-4zM44 71h4v1h-4zM53 71h3v1h-3zM70 71h4v1h-4zM27 72h4v1h-4zM45 72h4v1h-4zM53 72h2v1h-2zM69 72h4v1h-4zM28 73h4v1h-4zM46 73h4v1h-4zM53 73h1v1h-1zM68 73h4v1h-4zM28 74h5v1h-5zM46 74h5v1h-5zM67 74h1v1h-1zM69 74h2v1h-2zM30 75h5v1h-5zM47 75h6v1h-6zM65 75h3v1h-3zM69 75h1v1h-1zM31 76h9v1h-9zM42 76h5v1h-5zM49 76h20v1h-20zM33 77h14v1h-14zM51 77h16v1h-16zM35 78h12v1h-12zM53 78h12v1h-12zM39 79h4v1h-4zM57 79h4v1h-4zM15 83h2v1h-2zM83 83h2v1h-2zM14 84h5v1h-5zM81 84h5v1h-5zM15 85h5v1h-5zM80 85h5v1h-5zM17 86h5v1h-5zM78 86h5v1h-5zM18 87h6v1h-6zM76 87h6v1h-6zM20 88h6v1h-6zM74 88h6v1h-6zM22 89h6v1h-6zM72 89h6v1h-6zM23 90h8v1h-8zM69 90h8v1h-8zM25 91h8v1h-8zM67 91h8v1h-8zM28 92h9v1h-9zM63 92h9v1h-9zM30 93h11v1h-11zM59 93h11v1h-11zM33 94h34v1h-34zM36 95h28v1h-28zM41 96h18v1h-18z"/>
  <path fill="#ffca29" d="M35 40h1v1h-1zM30 47h1v1h-1zM69 50h1v1h-1zM45 73h1v1h-1zM54 73h1v1h-1zM53 74h1v2h-1z"/>
  <path fill="#ffca2b" d="M29 50h1v1h-1z"/>
  <path fill="#ffca2c" d="M55 72h1v1h-1z"/>
  <path fill="#ffcb29" d="M46 75h1v1h-1z"/>
  <path fill="#ffcb2a" d="M34 41h1v1h-1z"/>
  <path fill="#ffcb2b" d="M44 72h1v1h-1z"/>
  <path fill="#ffcb2d" d="M62 43h1v1h-1zM34 51h1v1h-1z"/>
  <path fill="#ffcd35" d="M67 51h1v1h-1z"/>
  <path fill="#ffcd36" d="M64 42h1v1h-1z"/>
  <path fill="#ffce39" d="M32 44h1v1h-1z"/>
  <path fill="#ffce3a" d="M64 43h1v1h-1z"/>
  <path fill="#ffcf3d" d="M29 51h1v1h-1z"/>
  <path fill="#ffcf3e" d="M45 75h1v1h-1z"/>
  <path fill="#ffd03f" d="M63 43h1v1h-1z"/>
  <path fill="#ffd041" d="M38 44h1v1h-1zM54 75h1v1h-1z"/>
  <path fill="#ffd042" d="M30 48h1v1h-1z"/>
  <path fill="#ffd044" d="M37 45h1v1h-1z"/>
  <path fill="#ffd146" d="M39 43h1v1h-1z"/>
  <path fill="#ffd248" d="M31 46h1v1h-1z"/>
  <path fill="#ffd34b" d="M34 50h1v1h-1z"/>
  <path fill="#ffd34c" d="M33 43h1v1h-1z"/>
  <path fill="#ffd556" d="M67 52h1v1h-1z"/>
  <path fill="#ffd656" d="M68 50h1v1h-1z"/>
  <path fill="#ffd657" d="M36 46h1v1h-1z"/>
  <path fill="#ffd65a" d="M45 74h1v1h-1z"/>
  <path fill="#ffd65b" d="M69 51h1v1h-1z"/>
  <path fill="#ffd75a" d="M44 75h1v1h-1z"/>
  <path fill="#ffd75c" d="M54 74h1v1h-1zM55 75h1v1h-1z"/>
  <path fill="#ffd760" d="M34 42h1v1h-1z"/>
  <path fill="#ffd85f" d="M35 41h1v1h-1z"/>
  <path fill="#ffd864" d="M44 73h1v1h-1z"/>
  <path fill="#ffd965" d="M30 49h1v1h-1zM55 73h1v1h-1z"/>
  <path fill="#ffdb6e" d="M32 45h1v1h-1z"/>
  <path fill="#ffdb6f" d="M33 52h1v1h-1z"/>
  <path fill="#ffdc6f" d="M34 49h1v1h-1z"/>
  <path fill="#ffdc73" d="M60 42h1v1h-1z"/>
  <path fill="#ffdc75" d="M63 41h1v1h-1z"/>
  <path fill="#ffdd74" d="M43 72h1v1h-1zM56 72h1v1h-1z"/>
  <path fill="#ffdd77" d="M47 36h1v3h-1zM52 36h1v3h-1z"/>
  <path fill="#ffdd78" d="M67 53h1v1h-1z"/>
  <path fill="#ffde77" d="M31 47h1v1h-1z"/>
  <path fill="#ffde7a" d="M61 42h1v1h-1z"/>
  <path fill="#ffdf7f" d="M37 44h1v1h-1zM30 50h1v1h-1z"/>
  <path fill="#ffdf81" d="M33 51h1v1h-1z"/>
  <path fill="#ffdf82" d="M42 39h1v1h-1z"/>
  <path fill="#ffe07f" d="M38 43h1v1h-1zM33 44h1v1h-1z"/>
  <path fill="#ffe081" d="M62 42h1v1h-1zM36 45h1v1h-1z"/>
  <path fill="#ffe082" d="M46 36h1v1h-1zM53 36h1v1h-1zM42 37h5v1h-5zM53 37h5v1h-5zM40 38h7v1h-7zM53 38h7v1h-7zM39 39h3v1h-3zM43 39h3v1h-3zM54 39h7v1h-7zM37 40h6v1h-6zM57 40h6v1h-6zM36 41h5v1h-5zM59 41h4v1h-4zM35 42h5v1h-5zM63 42h1v1h-1zM34 43h4v1h-4zM34 44h3v1h-3zM33 45h3v1h-3zM32 46h4v1h-4zM32 47h3v1h-3zM31 48h4v1h-4zM31 49h3v2h-3zM68 51h1v1h-1zM68 52h2v2h-2zM30 51h3v10h-3zM67 54h3v7h-3zM30 61h4v1h-4zM66 61h4v1h-4zM31 62h3v2h-3zM66 62h3v2h-3zM32 64h3v2h-3zM65 64h3v2h-3zM33 66h3v1h-3zM64 66h3v1h-3zM34 67h3v1h-3zM63 67h4v1h-4zM34 68h4v1h-4zM62 68h4v1h-4zM35 69h4v1h-4zM61 69h4v1h-4zM36 70h4v1h-4zM60 70h4v1h-4zM37 71h5v1h-5zM58 71h5v1h-5zM38 72h5v1h-5zM57 72h5v1h-5zM40 73h4v1h-4zM56 73h4v1h-4zM41 74h4v1h-4zM55 74h4v1h-4z"/>
</svg>