<?xml version="1.0" encoding="UTF-8"?>
<svg xmlns="http://www.w3.org/2000/svg" width="100" height="100" viewBox="0 0 100 100" shape-rendering="crispEdges" role="img">
  <title>icons8-scary-tree-100</title>
  <desc>Pixel-perfect vector conversion from the provided PNG icon. Transparent background preserved.</desc>
  <path fill="#000000" fill-opacity="0.0039" d="M22 8h1v1h-1z M63 8h1v1h-1z M61 13h1v1h-1z M26 20h1v1h-1z M87 31h1v1h-1z M86 35h1v1h-1z M85 39h1v1h-1z M78 40h1v1h-1z M22 42h1v1h-1z M73 43h1v1h-1z M84 43h1v1h-1z M27 44h1v1h-1z M68 92h1v1h-1z"/>
  <path fill="#007f7f" fill-opacity="0.0078" d="M77 8h1v1h-1z M27 24h1v1h-1z M27 70h1v1h-1z M26 74h1v1h-1z M25 77h1v1h-1z M64 90h1v1h-1z M85 93h1v1h-1z"/>
  <path fill="#7f7f7f" fill-opacity="0.0078" d="M12 33h1v1h-1z M13 37h1v1h-1z M14 41h1v1h-1z M15 45h1v1h-1z"/>
  <path fill="#555555" fill-opacity="0.0118" d="M82 47h1v1h-1z M71 58h1v1h-1z M73 75h1v1h-1z M78 95h1v1h-1z"/>
  <path fill="#3f3f7f" fill-opacity="0.0157" d="M83 46h1v1h-1z M16 48h1v1h-1z M81 48h1v1h-1z M80 49h1v1h-1z M79 50h1v1h-1z M78 51h1v1h-1z M77 52h1v1h-1z M22 53h1v1h-1z M76 53h1v1h-1z M75 54h1v1h-1z M74 55h1v1h-1z M73 56h1v1h-1z M72 57h1v1h-1z"/>
  <path fill="#333366" fill-opacity="0.0196" d="M28 30h1v1h-1z M43 87h1v1h-1z M56 87h1v1h-1z M47 90h1v1h-1z M52 90h1v1h-1z M66 91h1v1h-1z"/>
  <path fill="#336666" fill-opacity="0.0196" d="M14 33h1v1h-1z M17 38h1v1h-1z"/>
  <path fill="#2a5555" fill-opacity="0.0235" d="M62 5h1v1h-1z M61 6h1v1h-1z M60 7h1v1h-1z M58 9h1v1h-1z M76 11h1v1h-1z M55 12h1v1h-1z M54 13h1v1h-1z"/>
  <path fill="#555555" fill-opacity="0.0235" d="M28 58h1v1h-1z"/>
  <path fill="#484848" fill-opacity="0.0275" d="M71 63h1v1h-1z M27 91h1v1h-1z"/>
  <path fill="#3f3f3f" fill-opacity="0.0314" d="M63 4h1v1h-1z M59 8h1v1h-1z M57 10h1v1h-1z M56 11h1v1h-1z M21 85h1v1h-1z"/>
  <path fill="#385555" fill-opacity="0.0353" d="M75 14h1v1h-1z"/>
  <path fill="#385571" fill-opacity="0.0353" d="M85 31h1v1h-1z M82 36h1v1h-1z"/>
  <path fill="#334c4c" fill-opacity="0.0392" d="M76 83h1v1h-1z M78 86h1v1h-1z"/>
  <path fill="#2e4545" fill-opacity="0.0431" d="M71 30h1v1h-1z M28 63h1v1h-1z M75 81h1v1h-1z M16 91h1v1h-1z"/>
  <path fill="#3f3f55" fill-opacity="0.0471" d="M50 22h1v1h-1z"/>
  <path fill="#3a4e4e" fill-opacity="0.051" d="M52 17h1v1h-1z M74 17h1v1h-1z M86 94h1v1h-1z"/>
  <path fill="#364848" fill-opacity="0.0549" d="M61 88h1v1h-1z"/>
  <path fill="#334455" fill-opacity="0.0588" d="M72 71h1v1h-1z M74 94h1v1h-1z"/>
  <path fill="#445566" fill-opacity="0.0588" d="M80 39h1v1h-1z M75 42h1v1h-1z"/>
  <path fill="#4b5a69" fill-opacity="0.0667" d="M19 41h1v1h-1z"/>
  <path fill="#465563" fill-opacity="0.0706" d="M21 52h1v1h-1z M27 57h1v1h-1z"/>
  <path fill="#354350" fill-opacity="0.0745" d="M87 95h1v1h-1z"/>
  <path fill="#334c4c" fill-opacity="0.0784" d="M62 10h1v1h-1z"/>
  <path fill="#3f5966" fill-opacity="0.0784" d="M24 43h1v1h-1z"/>
  <path fill="#3c4855" fill-opacity="0.0824" d="M64 5h1v1h-1z"/>
  <path fill="#394551" fill-opacity="0.0863" d="M71 93h1v1h-1z"/>
  <path fill="#37424d" fill-opacity="0.0902" d="M28 29h1v1h-1z M18 89h1v1h-1z M31 90h1v1h-1z"/>
  <path fill="#354a4a" fill-opacity="0.0941" d="M23 82h1v1h-1z"/>
  <path fill="#334751" fill-opacity="0.098" d="M34 89h1v1h-1z"/>
  <path fill="#475b66" fill-opacity="0.098" d="M12 31h1v1h-1z"/>
  <path fill="#425e67" fill-opacity="0.1059" d="M15 35h1v1h-1z M18 40h1v1h-1z"/>
  <path fill="#364851" fill-opacity="0.1098" d="M24 80h1v1h-1z"/>
  <path fill="#34464f" fill-opacity="0.1137" d="M25 16h1v1h-1z M71 64h1v1h-1z M42 86h1v1h-1z M57 86h1v1h-1z"/>
  <path fill="#33444c" fill-opacity="0.1176" d="M46 89h1v1h-1z M53 89h1v1h-1z M17 90h1v1h-1z"/>
  <path fill="#415a62" fill-opacity="0.1216" d="M87 29h1v1h-1z M84 33h1v1h-1z"/>
  <path fill="#36454d" fill-opacity="0.1294" d="M23 8h1v1h-1z"/>
  <path fill="#435a61" fill-opacity="0.1333" d="M81 38h1v1h-1z"/>
  <path fill="#3a4850" fill-opacity="0.1373" d="M76 8h1v1h-1z"/>
  <path fill="#38464d" fill-opacity="0.1412" d="M24 13h1v1h-1z M28 64h1v1h-1z"/>
  <path fill="#37444b" fill-opacity="0.1451" d="M72 24h1v1h-1z M79 95h1v1h-1z"/>
  <path fill="#435764" fill-opacity="0.149" d="M20 51h1v1h-1z M26 56h1v1h-1z"/>
  <path fill="#34474e" fill-opacity="0.1529" d="M19 88h1v1h-1z"/>
  <path fill="#39464c" fill-opacity="0.1569" d="M75 9h1v1h-1z M72 12h1v1h-1z M71 13h1v1h-1z M69 15h1v1h-1z M66 18h1v1h-1z M65 19h1v1h-1z M62 22h1v1h-1z M61 23h1v1h-1z"/>
  <path fill="#36484e" fill-opacity="0.1647" d="M73 20h1v1h-1z M71 29h1v1h-1z"/>
  <path fill="#425b61" fill-opacity="0.1647" d="M87 30h1v1h-1z M86 34h1v1h-1z M85 38h1v1h-1z M84 42h1v1h-1z"/>
  <path fill="#35474d" fill-opacity="0.1686" d="M32 17h1v1h-1z M67 17h1v1h-1z M35 20h1v1h-1z M64 20h1v1h-1z M36 21h1v1h-1z M63 21h1v1h-1z"/>
  <path fill="#344551" fill-opacity="0.1725" d="M39 4h1v1h-1z M25 10h1v1h-1z M74 10h1v1h-1z M26 11h1v1h-1z M73 11h1v1h-1z M29 14h1v1h-1z M70 14h1v1h-1z M31 16h1v1h-1z M68 16h1v1h-1z"/>
  <path fill="#38494f" fill-opacity="0.1765" d="M64 4h1v1h-1z M24 9h1v1h-1z M27 12h1v1h-1z M28 13h1v1h-1z M30 15h1v1h-1z M33 18h1v1h-1z M34 19h1v1h-1z M37 22h1v1h-1z M27 23h1v1h-1z M38 23h1v1h-1z M77 85h1v1h-1z"/>
  <path fill="#37484d" fill-opacity="0.1804" d="M27 71h1v1h-1z"/>
  <path fill="#425863" fill-opacity="0.1804" d="M72 44h1v1h-1z"/>
  <path fill="#465c61" fill-opacity="0.1843" d="M12 32h1v1h-1z M77 41h1v1h-1z"/>
  <path fill="#35454f" fill-opacity="0.1882" d="M53 15h1v1h-1z"/>
  <path fill="#455a64" fill-opacity="0.1882" d="M13 36h1v1h-1z M14 40h1v1h-1z M15 44h1v1h-1z"/>
  <path fill="#39484e" fill-opacity="0.1922" d="M22 84h1v1h-1z M40 86h1v1h-1z M26 91h1v1h-1z"/>
  <path fill="#374650" fill-opacity="0.2" d="M51 20h1v1h-1z M71 65h1v1h-1z"/>
  <path fill="#35444e" fill-opacity="0.2039" d="M26 19h1v1h-1z M74 79h1v1h-1z"/>
  <path fill="#37454e" fill-opacity="0.2157" d="M23 10h1v1h-1z M73 76h1v1h-1z"/>
  <path fill="#38454d" fill-opacity="0.2314" d="M28 28h1v1h-1z M26 75h1v1h-1z M60 87h1v1h-1z M63 89h1v1h-1z"/>
  <path fill="#374850" fill-opacity="0.2353" d="M28 65h1v1h-1z"/>
  <path fill="#35454e" fill-opacity="0.2431" d="M72 72h1v1h-1z"/>
  <path fill="#384850" fill-opacity="0.2471" d="M40 5h1v1h-1z M41 7h1v1h-1z M63 7h1v1h-1z M42 9h1v1h-1z M43 11h1v1h-1z M61 12h1v1h-1z M44 13h1v1h-1z M45 15h1v1h-1z M47 19h1v1h-1z M49 23h1v1h-1z"/>
  <path fill="#37474f" fill-opacity="0.251" d="M46 17h1v1h-1z M48 21h1v1h-1z"/>
  <path fill="#36464e" fill-opacity="0.2549" d="M20 87h1v1h-1z"/>
  <path fill="#465a62" fill-opacity="0.2549" d="M13 32h1v1h-1z M16 37h1v1h-1z"/>
  <path fill="#35484f" fill-opacity="0.2627" d="M25 78h1v1h-1z"/>
  <path fill="#435a65" fill-opacity="0.2667" d="M21 42h1v1h-1z M26 44h1v1h-1z"/>
  <path fill="#364550" fill-opacity="0.2745" d="M36 88h1v1h-1z"/>
  <path fill="#445964" fill-opacity="0.2784" d="M19 50h1v1h-1z M25 55h1v1h-1z"/>
  <path fill="#435863" fill-opacity="0.2824" d="M86 30h1v1h-1z"/>
  <path fill="#374550" fill-opacity="0.2863" d="M69 92h1v1h-1z"/>
  <path fill="#36474e" fill-opacity="0.2941" d="M71 66h1v1h-1z"/>
  <path fill="#354650" fill-opacity="0.298" d="M45 88h1v1h-1z M54 88h1v1h-1z M49 91h2v1h-2z"/>
  <path fill="#455963" fill-opacity="0.302" d="M83 35h1v1h-1z"/>
  <path fill="#37474e" fill-opacity="0.3059" d="M76 10h1v1h-1z"/>
  <path fill="#36474d" fill-opacity="0.3098" d="M75 94h1v1h-1z"/>
  <path fill="#36464f" fill-opacity="0.3137" d="M75 13h1v1h-1z M38 87h1v1h-1z"/>
  <path fill="#37474d" fill-opacity="0.3216" d="M80 95h1v1h-1z"/>
  <path fill="#37464f" fill-opacity="0.3255" d="M80 89h1v1h-1z"/>
  <path fill="#36454e" fill-opacity="0.3294" d="M28 66h1v1h-1z M81 90h1v1h-1z"/>
  <path fill="#37464f" fill-opacity="0.3412" d="M71 28h1v1h-1z"/>
  <path fill="#37454e" fill-opacity="0.3451" d="M74 16h1v1h-1z"/>
  <path fill="#38464e" fill-opacity="0.3569" d="M25 91h1v1h-1z M82 91h1v1h-1z"/>
  <path fill="#36474f" fill-opacity="0.3647" d="M67 91h1v1h-1z"/>
  <path fill="#36464e" fill-opacity="0.3686" d="M30 90h1v1h-1z"/>
  <path fill="#435964" fill-opacity="0.3686" d="M79 40h1v1h-1z M74 43h1v1h-1z"/>
  <path fill="#36464e" fill-opacity="0.3843" d="M83 92h1v1h-1z"/>
  <path fill="#36484f" fill-opacity="0.3882" d="M72 23h1v1h-1z"/>
  <path fill="#37464e" fill-opacity="0.3961" d="M28 27h1v1h-1z M65 90h1v1h-1z"/>
  <path fill="#465a64" fill-opacity="0.4" d="M18 49h1v1h-1z M24 54h1v1h-1z"/>
  <path fill="#36474f" fill-opacity="0.4039" d="M52 18h1v1h-1z M50 23h1v1h-1z"/>
  <path fill="#455963" fill-opacity="0.4039" d="M83 45h1v1h-1z"/>
  <path fill="#35474e" fill-opacity="0.4078" d="M59 86h1v1h-1z"/>
  <path fill="#37484f" fill-opacity="0.4157" d="M27 22h1v1h-1z"/>
  <path fill="#455965" fill-opacity="0.4157" d="M86 33h1v1h-1z M85 37h1v1h-1z M84 41h1v1h-1z"/>
  <path fill="#36474e" fill-opacity="0.4196" d="M39 5h1v19h-1z M60 15h1v9h-1z M27 72h1v1h-1z"/>
  <path fill="#36464d" fill-opacity="0.4235" d="M71 67h1v1h-1z"/>
  <path fill="#38464f" fill-opacity="0.4275" d="M72 93h1v1h-1z"/>
  <path fill="#445965" fill-opacity="0.4353" d="M14 39h1v1h-1z M28 45h1v1h-1z M16 47h1v1h-1z"/>
  <path fill="#36464f" fill-opacity="0.4392" d="M72 73h1v1h-1z M75 82h1v1h-1z M81 95h1v1h-1z"/>
  <path fill="#445b64" fill-opacity="0.4392" d="M13 35h1v1h-1z M15 43h1v1h-1z"/>
  <path fill="#37474e" fill-opacity="0.4471" d="M73 19h1v1h-1z M24 91h1v1h-1z"/>
  <path fill="#455964" fill-opacity="0.4471" d="M14 34h1v1h-1z"/>
  <path fill="#37464f" fill-opacity="0.451" d="M62 9h1v1h-1z M79 88h1v1h-1z"/>
  <path fill="#445a63" fill-opacity="0.451" d="M17 39h1v1h-1z"/>
  <path fill="#36464f" fill-opacity="0.4549" d="M25 15h1v1h-1z"/>
  <path fill="#36474f" fill-opacity="0.4627" d="M33 89h1v1h-1z"/>
  <path fill="#37464f" fill-opacity="0.4667" d="M28 67h1v1h-1z"/>
  <path fill="#445a64" fill-opacity="0.4667" d="M23 43h1v1h-1z"/>
  <path fill="#37474e" fill-opacity="0.4863" d="M60 14h1v1h-1z"/>
  <path fill="#36464e" fill-opacity="0.4941" d="M73 77h1v1h-1z"/>
  <path fill="#36464e" fill-opacity="0.498" d="M26 18h1v1h-1z"/>
  <path fill="#37474f" fill-opacity="0.502" d="M24 12h1v1h-1z"/>
  <path fill="#455963" fill-opacity="0.502" d="M85 32h1v1h-1z M82 37h1v1h-1z"/>
  <path fill="#36464e" fill-opacity="0.5098" d="M23 91h1v1h-1z M84 93h1v1h-1z"/>
  <path fill="#36474f" fill-opacity="0.5176" d="M71 27h1v1h-1z"/>
  <path fill="#37464f" fill-opacity="0.5255" d="M76 84h1v1h-1z"/>
  <path fill="#36474e" fill-opacity="0.5333" d="M23 9h1v1h-1z"/>
  <path fill="#37464f" fill-opacity="0.5412" d="M26 76h1v1h-1z M44 87h1v1h-1z M55 87h1v1h-1z"/>
  <path fill="#37474e" fill-opacity="0.5451" d="M48 90h1v1h-1z M51 90h1v1h-1z"/>
  <path fill="#36474e" fill-opacity="0.549" d="M21 86h1v1h-1z M76 94h1v1h-1z"/>
  <path fill="#36464f" fill-opacity="0.5529" d="M82 95h1v1h-1z"/>
  <path fill="#37474f" fill-opacity="0.5569" d="M71 68h1v1h-1z"/>
  <path fill="#37474e" fill-opacity="0.5608" d="M24 81h1v1h-1z M17 91h1v1h-1z"/>
  <path fill="#36464f" fill-opacity="0.5647" d="M76 9h1v1h-1z M28 26h1v1h-1z"/>
  <path fill="#36464f" fill-opacity="0.5686" d="M22 91h1v1h-1z"/>
  <path fill="#445964" fill-opacity="0.5686" d="M76 42h1v1h-1z M71 45h1v1h-1z"/>
  <path fill="#445963" fill-opacity="0.5804" d="M17 48h1v1h-1z M23 53h1v1h-1z"/>
  <path fill="#36474e" fill-opacity="0.5882" d="M39 24h1v1h-1z M60 24h1v1h-1z"/>
  <path fill="#37464f" fill-opacity="0.5922" d="M74 80h1v1h-1z"/>
  <path fill="#37474e" fill-opacity="0.6" d="M53 16h1v1h-1z M51 21h1v1h-1z M23 83h1v1h-1z"/>
  <path fill="#36474f" fill-opacity="0.6039" d="M41 85h1v1h-1z"/>
  <path fill="#37474f" fill-opacity="0.6157" d="M78 87h1v1h-1z"/>
  <path fill="#36474f" fill-opacity="0.6196" d="M62 88h1v1h-1z"/>
  <path fill="#37474f" fill-opacity="0.6275" d="M72 22h1v1h-1z M28 68h1v1h-1z M21 91h1v1h-1z"/>
  <path fill="#37464e" fill-opacity="0.6353" d="M75 12h1v1h-1z"/>
  <path fill="#36474f" fill-opacity="0.6431" d="M29 90h1v1h-1z"/>
  <path fill="#37474e" fill-opacity="0.6471" d="M63 6h1v1h-1z M58 85h1v1h-1z M83 95h1v1h-1z M86 95h1v1h-1z"/>
  <path fill="#455964" fill-opacity="0.6471" d="M15 36h1v1h-1z"/>
  <path fill="#37464e" fill-opacity="0.651" d="M61 11h1v1h-1z M27 73h1v1h-1z M25 79h1v1h-1z"/>
  <path fill="#455a63" fill-opacity="0.651" d="M81 47h1v1h-1z"/>
  <path fill="#36464f" fill-opacity="0.6549" d="M27 21h1v1h-1z"/>
  <path fill="#36464e" fill-opacity="0.6627" d="M72 74h1v1h-1z"/>
  <path fill="#455a63" fill-opacity="0.6627" d="M86 32h1v1h-1z M85 36h1v1h-1z M84 40h1v1h-1z M83 44h1v1h-1z M82 46h1v1h-1z M80 48h1v1h-1z M79 49h1v1h-1z M78 50h1v1h-1z M77 51h1v1h-1z M76 52h1v1h-1z M75 53h1v1h-1z M74 54h1v1h-1z M73 55h1v1h-1z M72 56h1v1h-1z M71 57h1v1h-1z"/>
  <path fill="#37464f" fill-opacity="0.6667" d="M74 15h1v1h-1z M18 91h3v1h-3z"/>
  <path fill="#455a64" fill-opacity="0.6667" d="M20 42h1v1h-1z M25 44h1v1h-1z"/>
  <path fill="#36474e" fill-opacity="0.6745" d="M63 5h1v1h-1z"/>
  <path fill="#445a64" fill-opacity="0.6863" d="M13 34h1v1h-1z M14 38h1v1h-1z M18 41h1v1h-1z M15 42h1v1h-1z M16 46h1v1h-1z"/>
  <path fill="#37464f" fill-opacity="0.6902" d="M85 94h1v1h-1z"/>
  <path fill="#36464f" fill-opacity="0.6941" d="M71 69h1v1h-1z"/>
  <path fill="#36474e" fill-opacity="0.698" d="M54 14h1v1h-1z M71 26h1v1h-1z"/>
  <path fill="#37474e" fill-opacity="0.702" d="M62 6h1v1h-1z M61 7h1v1h-1z M59 9h1v1h-1z M56 12h1v1h-1z M55 13h1v1h-1z M70 92h1v1h-1z"/>
  <path fill="#445963" fill-opacity="0.702" d="M84 34h1v1h-1z"/>
  <path fill="#37464f" fill-opacity="0.7059" d="M35 88h1v1h-1z"/>
  <path fill="#36474f" fill-opacity="0.7176" d="M60 8h1v1h-1z M58 10h1v1h-1z M57 11h1v1h-1z"/>
  <path fill="#36474f" fill-opacity="0.7294" d="M73 18h1v1h-1z M28 25h1v1h-1z"/>
  <path fill="#36464f" fill-opacity="0.7333" d="M84 95h1v1h-1z"/>
  <path fill="#455a63" fill-opacity="0.7333" d="M81 39h1v1h-1z"/>
  <path fill="#37464e" fill-opacity="0.7373" d="M73 93h1v1h-1z"/>
  <path fill="#37474f" fill-opacity="0.7451" d="M40 6h1v1h-1z M43 12h1v1h-1z M46 18h1v1h-1z M48 22h1v1h-1z"/>
  <path fill="#445964" fill-opacity="0.7451" d="M22 52h1v1h-1z M28 57h1v1h-1z"/>
  <path fill="#36464e" fill-opacity="0.749" d="M41 8h1v1h-1z M42 10h1v1h-1z M44 14h1v1h-1z M45 16h1v1h-1z M47 20h1v1h-1z M49 24h1v1h-1z"/>
  <path fill="#37474f" fill-opacity="0.7569" d="M85 95h1v1h-1z"/>
  <path fill="#445963" fill-opacity="0.7608" d="M13 33h1v1h-1z"/>
  <path fill="#36464e" fill-opacity="0.7647" d="M39 86h1v1h-1z"/>
  <path fill="#455a63" fill-opacity="0.7647" d="M78 41h1v1h-1z M73 44h1v1h-1z"/>
  <path fill="#36474e" fill-opacity="0.7725" d="M43 86h1v1h-1z M56 86h1v1h-1z M47 89h1v1h-1z M52 89h1v1h-1z"/>
  <path fill="#37464f" fill-opacity="0.7804" d="M77 94h1v1h-1z"/>
  <path fill="#455963" fill-opacity="0.7804" d="M86 31h1v1h-1z"/>
  <path fill="#36474e" fill-opacity="0.7882" d="M26 17h1v1h-1z"/>
  <path fill="#37474f" fill-opacity="0.7961" d="M28 69h1v1h-1z"/>
  <path fill="#37474e" fill-opacity="0.8" d="M52 19h1v1h-1z M50 24h1v1h-1z"/>
  <path fill="#36464f" fill-opacity="0.8039" d="M25 14h1v1h-1z M37 87h1v1h-1z M32 89h1v1h-1z M64 89h1v1h-1z"/>
  <path fill="#37474e" fill-opacity="0.8157" d="M73 78h1v1h-1z"/>
  <path fill="#36464e" fill-opacity="0.8235" d="M68 91h1v1h-1z"/>
  <path fill="#37474e" fill-opacity="0.8275" d="M22 85h1v1h-1z"/>
  <path fill="#37464f" fill-opacity="0.8314" d="M29 34h1v11h-1z M70 34h1v11h-1z"/>
  <path fill="#37464f" fill-opacity="0.8353" d="M29 33h1v1h-1z M70 33h1v1h-1z M77 86h1v1h-1z"/>
  <path fill="#455964" fill-opacity="0.8353" d="M16 38h1v1h-1z M27 45h1v1h-1z"/>
  <path fill="#36474f" fill-opacity="0.8392" d="M29 45h1v1h-1z"/>
  <path fill="#38474f" fill-opacity="0.8392" d="M70 45h1v1h-1z"/>
  <path fill="#36474f" fill-opacity="0.8431" d="M18 90h1v1h-1z M28 90h1v1h-1z"/>
  <path fill="#36484f" fill-opacity="0.8471" d="M29 58h1v1h-1z M70 58h1v1h-1z"/>
  <path fill="#37464f" fill-opacity="0.8471" d="M62 8h1v1h-1z M60 13h1v1h-1z"/>
  <path fill="#445964" fill-opacity="0.8471" d="M22 43h1v1h-1z M21 51h1v1h-1z M27 56h1v1h-1z"/>
  <path fill="#37464e" fill-opacity="0.851" d="M24 11h1v1h-1z M71 70h1v1h-1z"/>
  <path fill="#374850" fill-opacity="0.8588" d="M29 46h1v12h-1z M70 46h1v12h-1z"/>
  <path fill="#455a64" fill-opacity="0.8667" d="M83 36h1v1h-1z"/>
  <path fill="#37474f" fill-opacity="0.8706" d="M29 59h1v1h-1z M70 59h1v1h-1z M26 77h1v1h-1z M61 87h1v1h-1z M19 89h1v1h-1z"/>
  <path fill="#37474f" fill-opacity="0.8824" d="M72 21h1v1h-1z"/>
  <path fill="#37474e" fill-opacity="0.8863" d="M66 90h1v1h-1z"/>
  <path fill="#37464e" fill-opacity="0.8902" d="M29 32h1v1h-1z"/>
  <path fill="#36464f" fill-opacity="0.8941" d="M70 32h1v1h-1z"/>
  <path fill="#37464e" fill-opacity="0.902" d="M67 18h1v1h-1z M66 19h1v1h-1z M63 22h1v1h-1z M62 23h1v1h-1z M29 60h1v1h-1z M70 60h1v1h-1z"/>
  <path fill="#37464f" fill-opacity="0.9059" d="M73 12h1v1h-1z M72 13h1v1h-1z M70 15h1v1h-1z M27 20h1v1h-1z M71 25h1v1h-1z M27 74h1v1h-1z M75 83h1v1h-1z"/>
  <path fill="#455a64" fill-opacity="0.9098" d="M80 40h1v1h-1z M75 43h1v1h-1z"/>
  <path fill="#36474e" fill-opacity="0.9137" d="M24 10h1v1h-1z M75 10h1v1h-1z M25 11h1v1h-1z M74 11h1v1h-1z M28 14h1v1h-1z M71 14h1v1h-1z M30 16h1v1h-1z M69 16h1v1h-1z M31 17h1v1h-1z M68 17h1v1h-1z M34 20h1v1h-1z M65 20h1v1h-1z M35 21h1v1h-1z M64 21h1v1h-1z M38 24h1v1h-1z M61 24h1v1h-1z"/>
  <path fill="#445963" fill-opacity="0.9137" d="M85 35h1v1h-1z M84 39h1v1h-1z M83 43h1v1h-1z"/>
  <path fill="#36464e" fill-opacity="0.9176" d="M26 12h1v1h-1z M27 13h1v1h-1z M29 15h1v1h-1z M32 18h1v1h-1z M33 19h1v1h-1z M36 22h1v1h-1z M37 23h1v1h-1z"/>
  <path fill="#37474e" fill-opacity="0.9255" d="M42 85h1v1h-1z M57 85h1v1h-1z M20 88h1v1h-1z M46 88h1v1h-1z M53 88h1v1h-1z"/>
  <path fill="#455964" fill-opacity="0.9255" d="M14 37h1v1h-1z"/>
  <path fill="#36474e" fill-opacity="0.9294" d="M28 24h1v1h-1z"/>
  <path fill="#445a64" fill-opacity="0.9294" d="M15 41h1v1h-1z M16 45h1v1h-1z"/>
  <path fill="#36464f" fill-opacity="0.9333" d="M72 75h1v1h-1z"/>
  <path fill="#37474e" fill-opacity="0.9373" d="M29 61h1v1h-1z M70 61h1v1h-1z"/>
  <path fill="#455964" fill-opacity="0.9373" d="M20 50h1v1h-1z M26 55h1v1h-1z"/>
  <path fill="#37474e" fill-opacity="0.9412" d="M75 11h1v1h-1z"/>
  <path fill="#37464f" fill-opacity="0.9451" d="M51 22h1v1h-1z M74 81h1v1h-1z"/>
  <path fill="#36464f" fill-opacity="0.949" d="M53 17h1v1h-1z"/>
  <path fill="#445964" fill-opacity="0.949" d="M14 35h1v1h-1z M17 40h1v1h-1z"/>
  <path fill="#36474e" fill-opacity="0.9529" d="M28 70h1v1h-1z"/>
  <path fill="#37474f" fill-opacity="0.9569" d="M74 14h1v1h-1z M29 31h1v1h-1z M24 82h1v1h-1z"/>
  <path fill="#445963" fill-opacity="0.9608" d="M85 33h1v1h-1z"/>
  <path fill="#36474f" fill-opacity="0.9686" d="M70 31h1v1h-1z M29 62h1v1h-1z M78 94h1v1h-1z"/>
  <path fill="#455964" fill-opacity="0.9686" d="M82 38h1v1h-1z"/>
  <path fill="#36464f" fill-opacity="0.9725" d="M61 10h1v1h-1z M73 17h1v1h-1z M70 62h1v1h-1z"/>
  <path fill="#445a63" fill-opacity="0.9725" d="M19 42h1v1h-1z M24 44h1v1h-1z"/>
  <path fill="#37464e" fill-opacity="0.9765" d="M25 80h1v1h-1z M76 85h1v1h-1z"/>
  <path fill="#37474e" fill-opacity="0.9804" d="M80 90h1v1h-1z M74 93h1v1h-1z"/>
  <path fill="#36474f" fill-opacity="0.9843" d="M40 85h1v1h-1z M60 86h1v1h-1z M27 90h1v1h-1z M81 91h1v1h-1z M71 92h1v1h-1z"/>
  <path fill="#455a63" fill-opacity="0.9843" d="M77 42h1v1h-1z M72 45h1v1h-1z M19 49h1v1h-1z M25 54h1v1h-1z"/>
  <path fill="#36464e" fill-opacity="0.9882" d="M23 84h1v1h-1z M34 88h1v1h-1z M82 92h1v1h-1z"/>
  <path fill="#37464e" fill-opacity="0.9922" d="M26 16h1v1h-1z M21 87h1v1h-1z M79 89h1v1h-1z"/>
  <path fill="#37474f" fill-opacity="0.9961" d="M71 71h1v1h-1z M45 87h1v1h-1z M54 87h1v1h-1z M63 88h1v1h-1z M31 89h1v1h-1z M49 90h2v1h-2z M83 93h1v1h-1z"/>
  <path fill="#263238" d="M40 50h1v10h-1z M59 50h1v10h-1z M39 51h1v13h-1z M41 51h1v5h-1z M49 51h2v4h-2z M58 51h1v5h-1z M60 51h1v13h-1z M42 52h1v4h-1z M48 52h1v4h-1z M51 52h1v4h-1z M57 52h1v4h-1z M43 53h1v4h-1z M47 53h1v4h-1z M52 53h1v4h-1z M56 53h1v4h-1z M44 54h1v4h-1z M46 54h1v4h-1z M53 54h1v4h-1z M55 54h1v4h-1z M38 55h1v17h-1z M45 55h1v4h-1z M54 55h1v4h-1z M61 55h1v17h-1z M37 59h1v13h-1z M62 59h1v13h-1z M36 64h1v9h-1z M46 64h1v5h-1z M53 64h1v5h-1z M63 64h1v9h-1z M44 65h2v3h-2z M47 65h1v5h-1z M52 65h1v5h-1z M54 65h2v3h-2z M42 66h2v3h-2z M48 66h1v5h-1z M51 66h1v5h-1z M56 66h2v3h-2z M40 67h2v3h-2z M49 67h2v5h-2z M58 67h2v3h-2z M35 68h1v5h-1z M39 68h1v3h-1z M44 68h1v1h-1z M55 68h1v1h-1z M60 68h1v3h-1z M64 68h1v5h-1z M42 69h1v1h-1z M57 69h1v1h-1z M40 70h1v1h-1z M59 70h1v1h-1z M34 72h1v2h-1z M65 72h1v2h-1z"/>
  <path fill="#263239" d="M60 50h1v1h-1z"/>
  <path fill="#263339" d="M39 50h1v1h-1z M36 63h1v1h-1z M63 63h1v1h-1z"/>
  <path fill="#273238" d="M49 55h2v1h-2z M48 56h1v1h-1z M51 56h1v1h-1z M47 57h1v1h-1z M46 58h1v1h-1z"/>
  <path fill="#273338" d="M45 54h1v1h-1z M54 54h1v1h-1z"/>
  <path fill="#273339" d="M40 49h1v1h-1z M41 50h1v1h-1z M42 51h1v1h-1z M43 52h1v1h-1z M44 53h1v1h-1z"/>
  <path fill="#27333a" d="M38 54h1v1h-1z M61 54h1v1h-1z M35 67h1v1h-1z M64 67h1v1h-1z"/>
  <path fill="#273439" d="M59 49h1v1h-1z M58 50h1v1h-1z M57 51h1v1h-1z M56 52h1v1h-1z M55 53h1v1h-1z"/>
  <path fill="#283339" d="M52 57h1v1h-1z M53 58h1v1h-1z"/>
  <path fill="#28333a" d="M45 68h1v1h-1z M54 68h1v1h-1z"/>
  <path fill="#28343c" d="M37 58h1v1h-1z M56 69h1v1h-1z M58 70h1v1h-1z M34 71h1v1h-1z M60 71h1v1h-1z M64 73h1v1h-1z"/>
  <path fill="#28353b" d="M43 69h1v1h-1z M41 70h1v1h-1z M39 71h1v1h-1z M37 72h1v1h-1z M62 72h1v1h-1z M35 73h1v1h-1z"/>
  <path fill="#293238" d="M39 64h1v1h-1z M60 64h1v1h-1z"/>
  <path fill="#29353b" d="M62 58h1v1h-1z M65 71h1v1h-1z"/>
  <path fill="#2a363d" d="M39 49h1v1h-1z M60 49h1v1h-1z M36 62h1v1h-1z M63 62h1v1h-1z"/>
  <path fill="#2b383f" d="M38 53h1v1h-1z M61 53h1v1h-1z M35 66h1v1h-1z M64 66h1v1h-1z"/>
  <path fill="#2c3a40" d="M62 57h1v1h-1z M65 70h1v1h-1z"/>
  <path fill="#2c3a41" d="M37 57h1v1h-1z M34 70h1v1h-1z"/>
  <path fill="#2d3b42" d="M36 61h1v1h-1z"/>
  <path fill="#2e3c42" d="M63 61h1v1h-1z"/>
  <path fill="#2e3c43" d="M39 48h1v1h-1z M49 50h2v1h-2z M48 51h1v1h-1z M51 51h1v1h-1z M47 52h1v1h-1z M52 52h1v1h-1z M46 53h1v1h-1z M53 53h1v1h-1z"/>
  <path fill="#2e3c44" d="M60 48h1v1h-1z"/>
  <path fill="#2f3d44" d="M38 52h1v1h-1z"/>
  <path fill="#2f3d45" d="M61 52h1v1h-1z M35 65h1v1h-1z M64 65h1v1h-1z"/>
  <path fill="#2f3e45" d="M53 69h1v1h-1z M52 70h1v1h-1z M51 71h1v1h-1z"/>
  <path fill="#303e45" d="M44 69h1v1h-1z M42 70h1v1h-1z M40 71h1v1h-1z M38 72h1v1h-1z M49 72h2v1h-2z M61 72h1v1h-1z M36 73h1v1h-1z M33 74h2v1h-2z M65 74h2v1h-2z"/>
  <path fill="#303e46" d="M34 69h1v1h-1z"/>
  <path fill="#303f45" d="M37 56h1v1h-1z M62 56h1v1h-1z M65 69h1v1h-1z"/>
  <path fill="#303f46" d="M46 69h1v1h-1z M47 70h1v1h-1z M48 71h1v1h-1z"/>
  <path fill="#313439" d="M40 60h1v1h-1z M59 60h1v1h-1z"/>
  <path fill="#313f47" d="M55 69h1v1h-1z M57 70h1v1h-1z M59 71h1v1h-1z M63 73h1v1h-1z"/>
  <path fill="#314047" d="M33 73h1v1h-1z"/>
  <path fill="#314048" d="M36 60h1v1h-1z M63 60h1v1h-1z M66 73h1v1h-1z"/>
  <path fill="#324149" d="M38 51h1v1h-1z M35 64h1v1h-1z"/>
  <path fill="#33424a" d="M40 48h1v1h-1z M41 49h1v1h-1z M42 50h1v1h-1z M43 51h1v1h-1z M61 51h1v1h-1z M44 52h1v1h-1z M45 53h1v1h-1z M64 64h1v1h-1z"/>
  <path fill="#34434a" d="M59 48h1v1h-1z M58 49h1v1h-1z M57 50h1v1h-1z M56 51h1v1h-1z M55 52h1v1h-1z M54 53h1v1h-1z"/>
  <path fill="#34434b" d="M37 55h1v1h-1z M62 55h1v1h-1z M34 68h1v1h-1z M65 68h1v1h-1z"/>
  <path fill="#35464d" d="M36 59h1v1h-1z M33 72h1v1h-1z M66 72h1v1h-1z"/>
  <path fill="#36454c" d="M63 59h1v1h-1z"/>
  <path fill="#36464e" d="M38 50h1v1h-1z M61 50h1v1h-1z M35 63h1v1h-1z M64 63h1v1h-1z"/>
  <path fill="#36464f" d="M39 72h1v1h-1z M60 72h1v1h-1z M35 74h1v1h-1z M64 74h1v1h-1z"/>
  <path fill="#36474f" d="M45 69h1v1h-1z M43 70h1v1h-1z M41 71h1v1h-1z M37 73h1v1h-1z"/>
  <path fill="#37464e" d="M34 67h1v1h-1z M65 67h1v1h-1z M54 69h1v1h-1z M56 70h1v1h-1z M58 71h1v1h-1z M62 73h1v1h-1z"/>
  <path fill="#37474f" d="M40 7h1v31h-1z M62 7h1v1h-1z M61 8h1v2h-1z M41 9h1v29h-1z M60 9h1v4h-1z M59 10h1v28h-1z M42 11h1v27h-1z M58 11h1v27h-1z M25 12h1v2h-1z M57 12h1v26h-1z M74 12h1v2h-1z M26 13h1v3h-1z M43 13h1v26h-1z M56 13h1v26h-1z M73 13h1v4h-1z M27 14h1v6h-1z M55 14h1v25h-1z M72 14h1v7h-1z M28 15h1v9h-1z M44 15h1v24h-1z M54 15h1v24h-1z M71 15h1v10h-1z M29 16h1v15h-1z M70 16h1v15h-1z M30 17h1v73h-1z M45 17h1v22h-1z M69 17h1v75h-1z M31 18h1v71h-1z M53 18h1v35h-1z M68 18h1v73h-1z M32 19h1v70h-1z M46 19h1v34h-1z M67 19h1v72h-1z M33 20h1v52h-1z M52 20h1v32h-1z M66 20h1v52h-1z M34 21h1v46h-1z M47 21h1v31h-1z M65 21h1v46h-1z M35 22h1v15h-1z M64 22h1v15h-1z M36 23h1v14h-1z M48 23h1v28h-1z M51 23h1v28h-1z M63 23h1v14h-1z M37 24h1v13h-1z M62 24h1v13h-1z M38 25h2v13h-2z M49 25h2v25h-2z M60 25h2v13h-2z M35 40h1v23h-1z M64 40h1v23h-1z M36 42h1v17h-1z M63 42h1v17h-1z M37 43h2v7h-2z M45 43h1v10h-1z M54 43h1v10h-1z M61 43h2v7h-2z M39 44h6v4h-6z M55 44h6v4h-6z M41 48h4v1h-4z M55 48h4v1h-4z M42 49h3v1h-3z M55 49h3v1h-3z M37 50h1v5h-1z M43 50h2v1h-2z M55 50h2v1h-2z M62 50h1v5h-1z M44 51h1v1h-1z M55 51h1v1h-1z M29 63h1v27h-1z M70 63h1v29h-1z M44 70h3v17h-3z M53 70h3v17h-3z M28 71h1v19h-1z M42 71h2v14h-2z M47 71h1v18h-1z M52 71h1v18h-1z M56 71h2v14h-2z M40 72h2v13h-2z M48 72h1v18h-1z M51 72h1v18h-1z M58 72h2v13h-2z M71 72h1v20h-1z M38 73h2v13h-2z M49 73h2v17h-2z M60 73h2v13h-2z M36 74h2v13h-2z M62 74h2v14h-2z M27 75h1v15h-1z M33 75h3v13h-3z M64 75h3v14h-3z M72 76h1v17h-1z M26 78h1v13h-1z M73 79h1v14h-1z M25 81h1v10h-1z M74 82h1v11h-1z M24 83h1v8h-1z M75 84h1v10h-1z M23 85h1v6h-1z M43 85h1v1h-1z M56 85h1v1h-1z M59 85h1v1h-1z M22 86h1v5h-1z M38 86h1v1h-1z M61 86h1v1h-1z M76 86h1v8h-1z M36 87h1v1h-1z M46 87h1v1h-1z M53 87h1v1h-1z M77 87h1v7h-1z M21 88h1v3h-1z M33 88h1v1h-1z M78 88h1v6h-1z M20 89h1v2h-1z M65 89h2v1h-2z M19 90h1v1h-1z M79 90h1v5h-1z M80 91h1v4h-1z M81 92h1v3h-1z M82 93h1v2h-1z M83 94h2v1h-2z"/>
  <path fill="#384850" d="M45 42h1v1h-1z"/>
  <path fill="#39343a" d="M39 67h1v1h-1z M60 67h1v1h-1z"/>
  <path fill="#39484f" d="M54 42h1v1h-1z"/>
  <path fill="#394950" d="M44 43h1v1h-1z"/>
  <path fill="#3a4a50" d="M36 41h1v1h-1z M63 41h1v1h-1z M55 43h1v1h-1z"/>
  <path fill="#3c4c51" d="M64 39h1v1h-1z"/>
  <path fill="#3d353b" d="M41 56h1v1h-1z M58 56h1v1h-1z"/>
  <path fill="#3e4d52" d="M35 39h1v1h-1z"/>
  <path fill="#425054" d="M62 42h1v1h-1z"/>
  <path fill="#435153" d="M37 42h1v1h-1z"/>
  <path fill="#455a64" d="M85 34h1v1h-1z M84 35h1v4h-1z M14 36h1v1h-1z M15 37h1v4h-1z M83 37h1v6h-1z M16 39h1v6h-1z M82 39h1v7h-1z M81 40h1v7h-1z M17 41h1v7h-1z M79 41h2v7h-2z M18 42h1v7h-1z M78 42h1v8h-1z M19 43h3v6h-3z M76 43h2v8h-2z M22 44h2v8h-2z M74 44h2v9h-2z M24 45h3v9h-3z M73 45h1v10h-1z M27 46h2v10h-2z M71 46h2v10h-2z M79 48h1v1h-1z M20 49h2v1h-2z M21 50h1v1h-1z M76 51h1v1h-1z M23 52h1v1h-1z M74 53h1v1h-1z M26 54h1v1h-1z M28 56h1v1h-1z M71 56h1v1h-1z"/>
  <path fill="#475555" d="M37 37h1v1h-1z M62 37h1v1h-1z M42 38h1v1h-1z M57 38h1v1h-1z"/>
  <path fill="#4e383d" d="M39 65h1v1h-1z M60 65h1v1h-1z"/>
  <path fill="#54393e" d="M54 64h1v1h-1z"/>
  <path fill="#5a3a3f" d="M43 65h1v1h-1z M56 65h1v1h-1z M41 66h1v1h-1z M58 66h1v1h-1z"/>
  <path fill="#5e3b3e" d="M40 61h1v1h-1z"/>
  <path fill="#5e3b3f" d="M59 61h1v1h-1z"/>
  <path fill="#5f3c3f" d="M56 57h1v1h-1z M55 58h1v1h-1z"/>
  <path fill="#613b40" d="M54 59h1v1h-1z"/>
  <path fill="#623c3f" d="M42 56h1v1h-1z M57 56h1v1h-1z M45 64h1v1h-1z"/>
  <path fill="#643d40" d="M43 57h1v1h-1z M44 58h1v1h-1z"/>
  <path fill="#646e60" d="M35 37h1v1h-1z M64 37h1v1h-1z"/>
  <path fill="#653c3f" d="M45 59h1v1h-1z"/>
  <path fill="#6d3d40" d="M58 57h1v1h-1z"/>
  <path fill="#6d3e41" d="M41 57h1v1h-1z"/>
  <path fill="#6e7764" d="M60 43h1v1h-1z"/>
  <path fill="#6f7765" d="M39 43h1v1h-1z"/>
  <path fill="#6f7865" d="M36 37h1v1h-1z M63 37h1v1h-1z M41 38h1v1h-1z M58 38h1v1h-1z"/>
  <path fill="#767e67" d="M64 38h1v1h-1z"/>
  <path fill="#777f68" d="M35 38h1v1h-1z"/>
  <path fill="#7b836a" d="M45 41h1v1h-1z"/>
  <path fill="#7c4042" d="M39 66h1v1h-1z M60 66h1v1h-1z"/>
  <path fill="#7c836a" d="M54 41h1v1h-1z"/>
  <path fill="#7e856b" d="M43 43h1v1h-1z M56 43h1v1h-1z"/>
  <path fill="#898e6f" d="M45 39h1v1h-1z M54 39h1v1h-1z"/>
  <path fill="#8c4344" d="M59 62h1v1h-1z"/>
  <path fill="#8d4344" d="M40 62h1v1h-1z M47 64h1v1h-1z"/>
  <path fill="#8f4345" d="M51 65h1v1h-1z M50 66h1v1h-1z"/>
  <path fill="#904445" d="M48 65h1v1h-1z M49 66h1v1h-1z"/>
  <path fill="#924445" d="M52 64h1v1h-1z"/>
  <path fill="#929672" d="M63 40h1v1h-1z"/>
  <path fill="#939673" d="M36 40h1v1h-1z"/>
  <path fill="#979b75" d="M40 38h1v1h-1z M59 38h1v1h-1z"/>
  <path fill="#9c4546" d="M48 57h1v1h-1z M47 58h1v1h-1z M58 58h1v1h-1z M46 59h1v1h-1z"/>
  <path fill="#9d4646" d="M41 58h1v1h-1z"/>
  <path fill="#9f4646" d="M49 56h2v1h-2z"/>
  <path fill="#a24647" d="M51 57h1v1h-1z M52 58h1v1h-1z M53 59h1v1h-1z"/>
  <path fill="#aaaa7c" d="M40 43h1v1h-1z M59 43h1v1h-1z"/>
  <path fill="#b7b780" d="M42 43h1v1h-1z M57 43h1v1h-1z"/>
  <path fill="#ba4a4a" d="M40 63h1v1h-1z M59 63h1v1h-1z M55 64h1v1h-1z"/>
  <path fill="#bebc84" d="M45 40h1v1h-1z"/>
  <path fill="#bf4b4a" d="M42 65h1v1h-1z M57 65h1v1h-1z M40 66h1v1h-1z M59 66h1v1h-1z"/>
  <path fill="#bfbd84" d="M54 40h1v1h-1z M44 42h1v1h-1z"/>
  <path fill="#bfbe84" d="M39 38h1v1h-1z M60 38h1v1h-1z M44 39h1v1h-1z M55 39h1v1h-1z"/>
  <path fill="#c0be85" d="M55 42h1v1h-1z"/>
  <path fill="#c14c4a" d="M44 64h1v1h-1z"/>
  <path fill="#c5c386" d="M41 43h1v1h-1z M58 43h1v1h-1z"/>
  <path fill="#c7c587" d="M61 42h1v1h-1z"/>
  <path fill="#c9c688" d="M38 42h1v1h-1z"/>
  <path fill="#ca4d4b" d="M58 59h1v1h-1z"/>
  <path fill="#cb4d4c" d="M41 59h1v1h-1z"/>
  <path fill="#cfcb8a" d="M62 41h1v1h-1z"/>
  <path fill="#d04e4d" d="M46 63h1v1h-1z M53 63h1v1h-1z"/>
  <path fill="#d2cd8b" d="M37 41h1v1h-1z"/>
  <path fill="#e6514f" d="M40 64h1v1h-1z"/>
  <path fill="#e7514f" d="M59 64h1v1h-1z"/>
  <path fill="#e7e094" d="M38 38h1v1h-1z M61 38h1v1h-1z M43 39h1v1h-1z M56 39h1v1h-1z"/>
  <path fill="#e8524f" d="M57 57h1v1h-1z M56 58h1v1h-1z M55 59h1v1h-1z"/>
  <path fill="#ea524f" d="M42 57h1v1h-1z M43 58h1v1h-1z M44 59h1v1h-1z"/>
  <path fill="#ec5350" d="M41 60h1v1h-1z M58 60h1v1h-1z"/>
  <path fill="#ee5350" d="M45 60h1v1h-1z M54 60h1v1h-1z"/>
  <path fill="#ef5350" d="M49 57h2v9h-2z M42 58h1v7h-1z M48 58h1v7h-1z M51 58h1v7h-1z M57 58h1v7h-1z M43 59h1v6h-1z M47 59h1v5h-1z M52 59h1v5h-1z M56 59h1v6h-1z M44 60h1v4h-1z M46 60h1v3h-1z M53 60h1v3h-1z M55 60h1v4h-1z M41 61h1v5h-1z M45 61h1v3h-1z M54 61h1v3h-1z M58 61h1v5h-1z M40 65h1v1h-1z M59 65h1v1h-1z"/>
  <path fill="#efe797" d="M63 39h1v1h-1z"/>
  <path fill="#f0e897" d="M36 39h1v1h-1z"/>
  <path fill="#fff59d" d="M36 38h2v1h-2z M62 38h2v1h-2z M37 39h6v2h-6z M57 39h6v2h-6z M43 40h2v2h-2z M55 40h2v2h-2z M38 41h5v1h-5z M57 41h5v1h-5z M39 42h5v1h-5z M56 42h5v1h-5z"/>
</svg>