<?xml version="1.0" encoding="UTF-8"?>
<svg xmlns="http://www.w3.org/2000/svg" width="100" height="100" viewBox="0 0 100 100" role="img" aria-labelledby="title" shape-rendering="crispEdges">
  <title id="title">icons8 call of duty warzone 100</title>
  <desc>Pixel-perfect vector conversion from the supplied PNG, preserving transparency.</desc>
  <path fill="#000000" fill-opacity="0.0039" d="M31 11h1v1h-1zM68 11h1v1h-1z"/>
  <path fill="#ffffff" fill-opacity="0.0039" d="M6 42h1v1h-1zM6 63h1v1h-1zM93 63h1v1h-1zM9 66h1v1h-1zM90 66h1v1h-1z"/>
  <path fill="#3f3f7f" fill-opacity="0.0157" d="M39 7h1v1h-1zM60 7h1v1h-1z"/>
  <path fill="#cccccc" fill-opacity="0.0196" d="M65 81h1v1h-1z"/>
  <path fill="#d4d4d4" fill-opacity="0.0235" d="M79 69h1v1h-1zM21 70h1v1h-1zM78 70h1v1h-1zM34 81h1v1h-1z"/>
  <path fill="#9191b6" fill-opacity="0.0275" d="M13 29h1v1h-1zM86 29h1v1h-1z"/>
  <path fill="#dadab6" fill-opacity="0.0275" d="M20 69h1v1h-1z"/>
  <path fill="#9f9f9f" fill-opacity="0.0314" d="M12 32h1v1h-1zM87 32h1v1h-1z"/>
  <path fill="#e2c6c6" fill-opacity="0.0353" d="M30 73h1v1h-1zM69 73h1v1h-1z"/>
  <path fill="#8ba2b9" fill-opacity="0.0431" d="M17 25h1v1h-1zM82 25h1v1h-1z"/>
  <path fill="#3f556a" fill-opacity="0.0471" d="M77 21h1v1h-1z"/>
  <path fill="#4e6262" fill-opacity="0.051" d="M43 6h1v1h-1zM56 6h1v1h-1zM22 21h1v1h-1z"/>
  <path fill="#485b5b" fill-opacity="0.0549" d="M24 18h1v1h-1zM75 18h1v1h-1z"/>
  <path fill="#dac8c8" fill-opacity="0.0549" d="M36 90h1v1h-1zM63 90h1v1h-1z"/>
  <path fill="#3f5f5f" fill-opacity="0.0627" d="M21 23h1v1h-1z"/>
  <path fill="#465563" fill-opacity="0.0706" d="M78 23h1v1h-1z"/>
  <path fill="#3f5966" fill-opacity="0.0784" d="M30 12h1v1h-1z"/>
  <path fill="#d8cccc" fill-opacity="0.0784" d="M59 91h1v1h-1z"/>
  <path fill="#dacec2" fill-opacity="0.0824" d="M40 91h1v1h-1z"/>
  <path fill="#3f555f" fill-opacity="0.0941" d="M69 12h1v1h-1z"/>
  <path fill="#425e67" fill-opacity="0.1059" d="M33 10h1v1h-1z"/>
  <path fill="#8ca7af" fill-opacity="0.1137" d="M91 41h1v1h-1z"/>
  <path fill="#90a1aa" fill-opacity="0.1176" d="M8 41h1v1h-1z"/>
  <path fill="#415a62" fill-opacity="0.1216" d="M66 10h1v1h-1z"/>
  <path fill="#8fa7af" fill-opacity="0.1255" d="M7 64h1v1h-1z"/>
  <path fill="#435a61" fill-opacity="0.1333" d="M25 17h1v1h-1z"/>
  <path fill="#8ea5ac" fill-opacity="0.1333" d="M91 65h1v1h-1z"/>
  <path fill="#91a7ae" fill-opacity="0.1373" d="M8 65h1v1h-1z"/>
  <path fill="#daccc4" fill-opacity="0.1373" d="M65 80h1v1h-1z"/>
  <path fill="#465c63" fill-opacity="0.1412" d="M37 8h1v1h-1zM62 8h1v1h-1z"/>
  <path fill="#8da2b1" fill-opacity="0.1412" d="M92 64h1v1h-1z"/>
  <path fill="#435764" fill-opacity="0.149" d="M74 17h1v1h-1z"/>
  <path fill="#d6c9c9" fill-opacity="0.149" d="M25 72h1v1h-1zM74 72h1v1h-1zM34 80h1v1h-1z"/>
  <path fill="#d7ccc6" fill-opacity="0.1765" d="M66 76h1v1h-1z"/>
  <path fill="#90a6ab" fill-opacity="0.1804" d="M87 33h1v1h-1z"/>
  <path fill="#d9cec8" fill-opacity="0.1843" d="M33 76h1v1h-1z"/>
  <path fill="#8fa4af" fill-opacity="0.1882" d="M12 33h1v1h-1z"/>
  <path fill="#445862" fill-opacity="0.2039" d="M70 13h1v1h-1z"/>
  <path fill="#d7cdc9" fill-opacity="0.2039" d="M58 91h1v1h-1z"/>
  <path fill="#435b65" fill-opacity="0.2078" d="M29 13h1v1h-1z"/>
  <path fill="#d8caca" fill-opacity="0.2078" d="M41 91h1v1h-1z"/>
  <path fill="#445b64" fill-opacity="0.2196" d="M64 9h1v1h-1z"/>
  <path fill="#435962" fill-opacity="0.2235" d="M55 6h1v1h-1zM35 9h1v1h-1z"/>
  <path fill="#465765" fill-opacity="0.2275" d="M44 6h1v1h-1z"/>
  <path fill="#91a2af" fill-opacity="0.2275" d="M10 66h1v1h-1zM89 66h1v1h-1z"/>
  <path fill="#445966" fill-opacity="0.2353" d="M26 16h1v1h-1z"/>
  <path fill="#445965" fill-opacity="0.2471" d="M28 14h1v1h-1z"/>
  <path fill="#465a62" fill-opacity="0.2549" d="M40 7h1v1h-1zM59 7h1v1h-1zM73 16h1v1h-1z"/>
  <path fill="#d7ccc8" fill-opacity="0.2549" d="M64 89h1v1h-1z"/>
  <path fill="#d5cdc9" fill-opacity="0.2627" d="M35 89h1v1h-1z"/>
  <path fill="#465863" fill-opacity="0.2706" d="M71 14h1v1h-1z"/>
  <path fill="#d6ccc8" fill-opacity="0.2745" d="M76 71h1v1h-1z"/>
  <path fill="#8fa5ac" fill-opacity="0.2784" d="M6 62h1v1h-1z"/>
  <path fill="#d7ccc9" fill-opacity="0.2784" d="M23 71h1v1h-1z"/>
  <path fill="#91a2ad" fill-opacity="0.2824" d="M93 62h1v1h-1z"/>
  <path fill="#d5cbc7" fill-opacity="0.2902" d="M19 67h1v1h-1z"/>
  <path fill="#445862" fill-opacity="0.2941" d="M76 20h1v1h-1z"/>
  <path fill="#465a64" fill-opacity="0.298" d="M23 20h1v1h-1z"/>
  <path fill="#90a4ae" fill-opacity="0.298" d="M14 28h1v1h-1z"/>
  <path fill="#d7cdc6" fill-opacity="0.302" d="M65 79h1v1h-1z"/>
  <path fill="#445b65" fill-opacity="0.3059" d="M72 15h1v1h-1z"/>
  <path fill="#8fa3ad" fill-opacity="0.3059" d="M90 41h1v1h-1z"/>
  <path fill="#435a64" fill-opacity="0.3098" d="M27 15h1v1h-1z"/>
  <path fill="#91a4ae" fill-opacity="0.3098" d="M9 41h1v1h-1z"/>
  <path fill="#8fa2af" fill-opacity="0.3137" d="M85 28h1v1h-1z"/>
  <path fill="#d6ccc9" fill-opacity="0.3176" d="M34 79h1v1h-1z"/>
  <path fill="#8fa4ae" fill-opacity="0.3216" d="M87 34h1v1h-1z"/>
  <path fill="#90a2af" fill-opacity="0.3255" d="M12 34h1v1h-1z"/>
  <path fill="#d7cbc8" fill-opacity="0.3294" d="M42 91h1v1h-1zM57 91h1v1h-1z"/>
  <path fill="#90a5ae" fill-opacity="0.3333" d="M10 41h2v1h-2zM88 41h2v1h-2z"/>
  <path fill="#d6cac7" fill-opacity="0.3451" d="M80 67h1v1h-1z"/>
  <path fill="#90a3ae" fill-opacity="0.3608" d="M83 26h1v1h-1zM93 43h1v1h-1z"/>
  <path fill="#91a4ac" fill-opacity="0.3647" d="M6 43h1v1h-1z"/>
  <path fill="#8fa2ad" fill-opacity="0.3686" d="M16 26h1v1h-1z"/>
  <path fill="#8fa3ae" fill-opacity="0.3843" d="M86 30h1v1h-1z"/>
  <path fill="#d5cbc8" fill-opacity="0.3882" d="M32 74h1v1h-1z"/>
  <path fill="#8ea3ad" fill-opacity="0.3922" d="M13 30h1v1h-1z"/>
  <path fill="#d7cdc8" fill-opacity="0.4" d="M26 72h1v1h-1zM73 72h1v1h-1z"/>
  <path fill="#455963" fill-opacity="0.4039" d="M45 6h1v1h-1zM54 6h1v1h-1z"/>
  <path fill="#d7cbc8" fill-opacity="0.4039" d="M43 91h1v1h-1zM56 91h1v1h-1z"/>
  <path fill="#d8ccc7" fill-opacity="0.4118" d="M67 74h1v1h-1z"/>
  <path fill="#8ea4ad" fill-opacity="0.4196" d="M87 35h1v1h-1z"/>
  <path fill="#d6ccc8" fill-opacity="0.4196" d="M62 90h1v1h-1z"/>
  <path fill="#90a2ae" fill-opacity="0.4235" d="M12 35h1v1h-1z"/>
  <path fill="#d6cbc8" fill-opacity="0.4235" d="M37 90h1v1h-1z"/>
  <path fill="#91a3ad" fill-opacity="0.4275" d="M81 25h1v1h-1z"/>
  <path fill="#8fa4ad" fill-opacity="0.4314" d="M18 25h1v1h-1z"/>
  <path fill="#455964" fill-opacity="0.4471" d="M67 11h1v1h-1z"/>
  <path fill="#445a63" fill-opacity="0.451" d="M32 11h1v1h-1z"/>
  <path fill="#90a4af" fill-opacity="0.4627" d="M87 36h1v1h-1z"/>
  <path fill="#8fa5ad" fill-opacity="0.4667" d="M12 36h1v1h-1z"/>
  <path fill="#d6cbc7" fill-opacity="0.4667" d="M68 73h1v1h-1zM44 91h1v1h-1zM55 91h1v1h-1z"/>
  <path fill="#d6ccc8" fill-opacity="0.4745" d="M31 73h1v1h-1z"/>
  <path fill="#445963" fill-opacity="0.4824" d="M77 22h1v1h-1z"/>
  <path fill="#445963" fill-opacity="0.4941" d="M22 22h1v1h-1z"/>
  <path fill="#8fa3ae" fill-opacity="0.4941" d="M84 27h1v1h-1zM12 37h1v1h-1z"/>
  <path fill="#90a4ae" fill-opacity="0.498" d="M87 37h1v1h-1z"/>
  <path fill="#8fa3ad" fill-opacity="0.502" d="M12 38h1v3h-1zM87 38h1v3h-1z"/>
  <path fill="#90a4ad" fill-opacity="0.5059" d="M15 27h1v1h-1z"/>
  <path fill="#d6ccc8" fill-opacity="0.5137" d="M27 72h1v1h-1z"/>
  <path fill="#455a64" fill-opacity="0.5176" d="M78 24h1v1h-1z"/>
  <path fill="#d6ccc8" fill-opacity="0.5176" d="M72 72h1v1h-1zM65 78h1v1h-1z"/>
  <path fill="#455a63" fill-opacity="0.5216" d="M21 24h1v1h-1z"/>
  <path fill="#d7ccc8" fill-opacity="0.5294" d="M34 78h1v1h-1z"/>
  <path fill="#90a3ae" fill-opacity="0.5333" d="M11 66h1v1h-1zM88 66h1v1h-1z"/>
  <path fill="#d7ccc8" fill-opacity="0.5333" d="M45 91h1v1h-1zM54 91h1v1h-1z"/>
  <path fill="#455964" fill-opacity="0.5451" d="M53 6h1v1h-1z"/>
  <path fill="#455964" fill-opacity="0.549" d="M46 6h1v1h-1z"/>
  <path fill="#445a63" fill-opacity="0.5529" d="M58 7h1v1h-1z"/>
  <path fill="#445964" fill-opacity="0.5569" d="M41 7h1v1h-1z"/>
  <path fill="#90a4ae" fill-opacity="0.5608" d="M92 42h1v1h-1z"/>
  <path fill="#455a63" fill-opacity="0.5647" d="M61 8h1v1h-1z"/>
  <path fill="#90a3ae" fill-opacity="0.5686" d="M7 42h1v1h-1z"/>
  <path fill="#455a63" fill-opacity="0.5725" d="M38 8h1v1h-1z"/>
  <path fill="#d6ccc7" fill-opacity="0.5922" d="M35 88h1v1h-1zM64 88h1v1h-1zM46 91h1v1h-1zM53 91h1v1h-1z"/>
  <path fill="#8fa3ad" fill-opacity="0.6" d="M6 61h1v1h-1zM93 61h1v1h-1z"/>
  <path fill="#d7cbc8" fill-opacity="0.6" d="M28 72h1v1h-1z"/>
  <path fill="#455963" fill-opacity="0.6039" d="M47 6h1v1h-1zM52 6h1v1h-1z"/>
  <path fill="#d7cbc8" fill-opacity="0.6039" d="M77 70h1v1h-1z"/>
  <path fill="#d7ccc8" fill-opacity="0.6078" d="M22 70h1v1h-1zM71 72h1v1h-1z"/>
  <path fill="#445963" fill-opacity="0.6118" d="M75 19h1v1h-1z"/>
  <path fill="#445964" fill-opacity="0.6157" d="M24 19h1v1h-1z"/>
  <path fill="#d6cbc8" fill-opacity="0.6196" d="M64 87h1v1h-1z"/>
  <path fill="#d6cbc8" fill-opacity="0.6235" d="M20 68h1v1h-1zM35 87h1v1h-1z"/>
  <path fill="#d7ccc7" fill-opacity="0.6275" d="M79 68h1v1h-1z"/>
  <path fill="#455964" fill-opacity="0.6353" d="M34 10h1v1h-1z"/>
  <path fill="#90a4ad" fill-opacity="0.651" d="M12 66h1v1h-1zM87 66h1v1h-1z"/>
  <path fill="#d7ccc7" fill-opacity="0.651" d="M64 86h1v1h-1zM47 91h1v1h-1zM52 91h1v1h-1z"/>
  <path fill="#d7ccc8" fill-opacity="0.6549" d="M66 75h1v1h-1zM35 86h1v1h-1z"/>
  <path fill="#455a64" fill-opacity="0.6667" d="M48 6h1v1h-1zM51 6h1v1h-1zM65 10h1v1h-1z"/>
  <path fill="#90a3ae" fill-opacity="0.6667" d="M12 41h1v1h-1zM6 44h1v1h-1zM93 44h1v1h-1zM13 66h5v1h-5zM82 66h5v1h-5z"/>
  <path fill="#d6ccc7" fill-opacity="0.6667" d="M33 75h1v1h-1zM48 91h1v1h-1zM51 91h1v1h-1z"/>
  <path fill="#90a4ae" fill-opacity="0.6706" d="M87 41h1v1h-1z"/>
  <path fill="#93a6af" fill-opacity="0.6784" d="M18 66h1v1h-1z"/>
  <path fill="#96a6b0" fill-opacity="0.6863" d="M81 66h1v1h-1z"/>
  <path fill="#d7ccc7" fill-opacity="0.6863" d="M35 85h1v1h-1zM64 85h1v1h-1z"/>
  <path fill="#d6ccc7" fill-opacity="0.6902" d="M38 90h1v1h-1zM61 90h1v1h-1z"/>
  <path fill="#445a64" fill-opacity="0.698" d="M36 9h1v1h-1zM63 9h1v1h-1z"/>
  <path fill="#8fa3ad" fill-opacity="0.702" d="M19 25h1v1h-1zM80 25h1v1h-1z"/>
  <path fill="#d7cbc7" fill-opacity="0.702" d="M49 91h2v1h-2z"/>
  <path fill="#455a64" fill-opacity="0.7059" d="M31 12h1v1h-1z"/>
  <path fill="#d7ccc8" fill-opacity="0.7098" d="M29 72h1v1h-1zM70 72h1v1h-1z"/>
  <path fill="#d6cbc8" fill-opacity="0.7176" d="M78 69h1v1h-1z"/>
  <path fill="#90a3ae" fill-opacity="0.7216" d="M86 31h1v1h-1z"/>
  <path fill="#8fa4ad" fill-opacity="0.7255" d="M6 60h1v1h-1z"/>
  <path fill="#d7ccc7" fill-opacity="0.7255" d="M21 69h1v1h-1z"/>
  <path fill="#445a64" fill-opacity="0.7294" d="M49 6h2v1h-2z"/>
  <path fill="#8fa4ae" fill-opacity="0.7294" d="M93 60h1v1h-1z"/>
  <path fill="#455a63" fill-opacity="0.7333" d="M68 12h1v1h-1z"/>
  <path fill="#90a3ae" fill-opacity="0.7333" d="M13 31h1v1h-1z"/>
  <path fill="#d6ccc7" fill-opacity="0.7451" d="M64 84h1v1h-1z"/>
  <path fill="#90a4ad" fill-opacity="0.749" d="M6 45h1v15h-1z"/>
  <path fill="#d6ccc8" fill-opacity="0.749" d="M35 84h1v1h-1z"/>
  <path fill="#8fa3ad" fill-opacity="0.7529" d="M93 45h1v15h-1z"/>
  <path fill="#8fa4ad" fill-opacity="0.7725" d="M90 65h1v1h-1z"/>
  <path fill="#d6ccc8" fill-opacity="0.7725" d="M75 71h1v1h-1z"/>
  <path fill="#90a3ad" fill-opacity="0.7765" d="M9 65h1v1h-1z"/>
  <path fill="#d7cbc7" fill-opacity="0.7765" d="M24 71h1v1h-1z"/>
  <path fill="#90a4ae" fill-opacity="0.7961" d="M92 63h1v1h-1z"/>
  <path fill="#8fa3ad" fill-opacity="0.8" d="M7 63h1v1h-1z"/>
  <path fill="#d7cbc8" fill-opacity="0.8" d="M65 77h1v1h-1z"/>
  <path fill="#d7ccc7" fill-opacity="0.8118" d="M34 77h1v1h-1z"/>
  <path fill="#d7cbc7" fill-opacity="0.8353" d="M64 83h1v1h-1z"/>
  <path fill="#d6cbc8" fill-opacity="0.8392" d="M35 83h1v1h-1z"/>
  <path fill="#445964" fill-opacity="0.8471" d="M42 7h1v1h-1zM57 7h1v1h-1z"/>
  <path fill="#455a63" fill-opacity="0.851" d="M25 18h1v1h-1z"/>
  <path fill="#455a63" fill-opacity="0.8549" d="M74 18h1v1h-1z"/>
  <path fill="#455963" fill-opacity="0.8941" d="M30 13h1v1h-1zM69 13h1v1h-1z"/>
  <path fill="#455a64" fill-opacity="0.898" d="M76 21h1v1h-1z"/>
  <path fill="#445963" fill-opacity="0.902" d="M23 21h1v1h-1z"/>
  <path fill="#90a4ae" fill-opacity="0.902" d="M85 29h1v1h-1z"/>
  <path fill="#d7ccc7" fill-opacity="0.902" d="M60 90h1v1h-1z"/>
  <path fill="#8fa4ae" fill-opacity="0.9059" d="M14 29h1v1h-1z"/>
  <path fill="#d7ccc7" fill-opacity="0.9059" d="M39 90h1v1h-1z"/>
  <path fill="#90a4ae" fill-opacity="0.9137" d="M8 64h1v1h-1z"/>
  <path fill="#445a64" fill-opacity="0.9176" d="M26 17h1v1h-1z"/>
  <path fill="#8ea2ac" fill-opacity="0.9216" d="M79 25h1v1h-1z"/>
  <path fill="#8fa1ab" fill-opacity="0.9216" d="M20 25h1v1h-1z"/>
  <path fill="#90a3ad" fill-opacity="0.9216" d="M17 26h1v1h-1zM82 26h1v1h-1z"/>
  <path fill="#d6ccc7" fill-opacity="0.9216" d="M64 82h1v1h-1z"/>
  <path fill="#8fa4ad" fill-opacity="0.9255" d="M91 64h1v1h-1z"/>
  <path fill="#445a64" fill-opacity="0.9294" d="M73 17h1v1h-1z"/>
  <path fill="#d7ccc8" fill-opacity="0.9294" d="M35 82h1v1h-1z"/>
  <path fill="#445a63" fill-opacity="0.9333" d="M60 8h1v1h-1zM22 23h1v1h-1z"/>
  <path fill="#d7cbc8" fill-opacity="0.9333" d="M30 72h1v1h-1zM69 72h1v1h-1z"/>
  <path fill="#455964" fill-opacity="0.9373" d="M39 8h1v1h-1z"/>
  <path fill="#c0b9b7" fill-opacity="0.9373" d="M78 46h1v1h-1z"/>
  <path fill="#455a63" fill-opacity="0.9412" d="M77 23h1v1h-1z"/>
  <path fill="#bfb9b7" fill-opacity="0.9412" d="M76 43h1v1h-1z"/>
  <path fill="#445964" fill-opacity="0.9451" d="M29 14h1v1h-1z"/>
  <path fill="#d6ccc8" fill-opacity="0.949" d="M36 89h1v1h-1zM63 89h1v1h-1z"/>
  <path fill="#cfc8c5" fill-opacity="0.9529" d="M19 66h1v1h-1z"/>
  <path fill="#445964" fill-opacity="0.9569" d="M66 11h1v1h-1zM70 14h1v1h-1z"/>
  <path fill="#a7a7a7" fill-opacity="0.9569" d="M80 49h1v1h-1z"/>
  <path fill="#445963" fill-opacity="0.9608" d="M33 11h1v1h-1z"/>
  <path fill="#8a9194" fill-opacity="0.9647" d="M77 44h1v1h-1z"/>
  <path fill="#90a3ae" fill-opacity="0.9647" d="M13 32h1v1h-1zM86 32h1v1h-1z"/>
  <path fill="#455964" fill-opacity="0.9686" d="M28 15h1v1h-1zM71 15h1v1h-1z"/>
  <path fill="#d2cac6" fill-opacity="0.9686" d="M80 66h1v1h-1z"/>
  <path fill="#445a63" fill-opacity="0.9725" d="M27 16h1v1h-1z"/>
  <path fill="#878d92" fill-opacity="0.9725" d="M79 47h1v1h-1z"/>
  <path fill="#d3c9c5" fill-opacity="0.9725" d="M79 48h1v1h-1z"/>
  <path fill="#455963" fill-opacity="0.9804" d="M72 16h1v1h-1z"/>
  <path fill="#d7ccc7" fill-opacity="0.9804" d="M67 73h1v1h-1z"/>
  <path fill="#d5cac7" fill-opacity="0.9843" d="M77 45h1v1h-1z"/>
  <path fill="#d7ccc8" fill-opacity="0.9843" d="M32 73h1v1h-1z"/>
  <path fill="#445963" fill-opacity="0.9922" d="M37 9h1v1h-1zM62 9h1v1h-1z"/>
  <path fill="#455a64" fill-opacity="0.9961" d="M43 7h1v1h-1zM56 7h1v1h-1zM35 10h1v1h-1zM64 10h1v1h-1z"/>
  <path fill="#4e636d" fill-opacity="0.9961" d="M19 32h1v1h-1zM80 32h1v1h-1z"/>
  <path fill="#8fa3ad" fill-opacity="0.9961" d="M15 28h1v1h-1zM84 28h1v1h-1zM8 42h1v1h-1zM91 42h1v1h-1z"/>
  <path fill="#cdc6c3" fill-opacity="0.9961" d="M82 61h1v1h-1z"/>
  <path fill="#cdc6c4" fill-opacity="0.9961" d="M17 61h1v1h-1z"/>
  <path fill="#d5cac6" fill-opacity="0.9961" d="M75 42h1v1h-1zM80 50h1v1h-1z"/>
  <path fill="#d6cbc7" fill-opacity="0.9961" d="M34 76h1v1h-1zM65 76h1v1h-1zM35 81h1v1h-1zM64 81h1v1h-1z"/>
  <path fill="#263238" d="M36 47h2v1h-2zM62 47h2v1h-2zM33 48h8v1h-8zM59 48h8v1h-8zM31 49h11v1h-11zM58 49h11v1h-11zM30 50h13v1h-13zM57 50h13v1h-13zM30 51h14v1h-14zM56 51h14v1h-14zM29 52h15v1h-15zM56 52h15v1h-15zM29 53h16v1h-16zM55 53h16v2h-16zM28 54h17v6h-17zM55 55h17v5h-17zM28 60h16v2h-16zM56 60h16v2h-16zM28 62h15v1h-15zM57 62h15v1h-15zM29 63h13v1h-13zM58 63h13v1h-13zM30 64h11v1h-11zM59 64h11v1h-11zM31 65h8v1h-8zM49 65h1v1h-1zM61 65h8v1h-8zM48 66h3v1h-3zM48 67h4v1h-4zM47 68h6v1h-6zM46 69h8v2h-8zM45 71h10v1h-10zM45 72h4v1h-4zM51 72h4v2h-4zM44 73h5v2h-5zM52 74h4v1h-4zM45 75h3v1h-3zM52 75h3v1h-3z"/>
  <path fill="#273339" d="M35 47h1v1h-1zM64 47h1v1h-1zM44 52h1v1h-1zM55 52h1v1h-1zM71 54h1v1h-1zM51 66h1v1h-1zM47 67h1v1h-1zM46 76h1v1h-1z"/>
  <path fill="#28343a" d="M42 49h1v1h-1zM50 65h1v1h-1zM55 73h1v1h-1zM44 75h1v1h-1z"/>
  <path fill="#293339" d="M57 49h1v1h-1zM51 74h1v1h-1zM53 76h1v1h-1z"/>
  <path fill="#2a363c" d="M55 75h1v1h-1z"/>
  <path fill="#2c363c" d="M61 47h1v1h-1z"/>
  <path fill="#2d373d" d="M38 47h1v1h-1zM56 50h1v1h-1zM52 67h1v1h-1zM49 72h1v1h-1z"/>
  <path fill="#2d383e" d="M45 70h1v1h-1z"/>
  <path fill="#2d393f" d="M43 50h1v1h-1zM29 64h1v1h-1z"/>
  <path fill="#2e3a3e" d="M50 72h1v1h-1z"/>
  <path fill="#2f393f" d="M70 64h1v1h-1z"/>
  <path fill="#303a40" d="M45 76h1v1h-1z"/>
  <path fill="#313b41" d="M32 48h1v1h-1z"/>
  <path fill="#313c41" d="M67 48h1v1h-1z"/>
  <path fill="#313d41" d="M54 76h1v1h-1z"/>
  <path fill="#353f43" d="M54 70h1v1h-1z"/>
  <path fill="#363f45" d="M58 48h1v1h-1zM29 51h1v1h-1z"/>
  <path fill="#364046" d="M41 48h1v1h-1z"/>
  <path fill="#394347" d="M70 51h1v1h-1z"/>
  <path fill="#3a4348" d="M46 68h1v1h-1z"/>
  <path fill="#3b4449" d="M27 58h1v1h-1z"/>
  <path fill="#3c464a" d="M27 59h1v1h-1z"/>
  <path fill="#3f474b" d="M60 65h1v1h-1z"/>
  <path fill="#3f484c" d="M34 47h1v1h-1z"/>
  <path fill="#3f494d" d="M72 58h1v1h-1zM39 65h1v1h-1z"/>
  <path fill="#40494e" d="M65 47h1v1h-1z"/>
  <path fill="#41494e" d="M72 59h1v1h-1z"/>
  <path fill="#424a4e" d="M28 63h1v1h-1z"/>
  <path fill="#434b4f" d="M48 75h1v1h-1z"/>
  <path fill="#444c51" d="M44 72h1v1h-1z"/>
  <path fill="#454d51" d="M28 53h1v1h-1zM57 63h1v1h-1z"/>
  <path fill="#455a64" d="M44 7h12v1h-12zM40 8h20v1h-20zM38 9h24v1h-24zM36 10h28v1h-28zM34 11h32v1h-32zM32 12h36v1h-36zM31 13h38v1h-38zM30 14h40v1h-40zM29 15h42v1h-42zM28 16h44v1h-44zM27 17h46v1h-46zM26 18h48v1h-48zM25 19h50v1h-50zM24 20h52v2h-52zM23 22h54v2h-54zM22 24h56v2h-56zM21 26h58v1h-58zM21 27h7v1h-7zM72 27h7v1h-7zM21 28h6v1h-6zM73 28h6v1h-6zM20 29h7v1h-7zM73 29h7v1h-7zM74 30h6v3h-6zM20 30h6v4h-6zM74 33h7v3h-7zM19 34h7v2h-7zM75 36h6v3h-6zM19 36h6v4h-6zM76 39h5v3h-5zM19 40h5v2h-5zM19 42h4v1h-4zM77 42h4v1h-4zM19 43h3v2h-3zM78 43h3v2h-3zM19 45h2v1h-2zM79 45h2v1h-2zM19 46h1v2h-1zM80 46h1v2h-1z"/>
  <path fill="#455a65" d="M19 33h1v1h-1z"/>
  <path fill="#464e52" d="M71 63h1v1h-1z"/>
  <path fill="#465b65" d="M25 36h1v1h-1z"/>
  <path fill="#474f53" d="M27 60h1v1h-1z"/>
  <path fill="#475b65" d="M77 43h1v1h-1zM20 46h1v1h-1zM79 46h1v1h-1z"/>
  <path fill="#475c65" d="M75 39h1v1h-1zM22 43h1v1h-1z"/>
  <path fill="#484f53" d="M71 53h1v1h-1z"/>
  <path fill="#485c67" d="M79 28h1v1h-1z"/>
  <path fill="#485d66" d="M20 28h1v1h-1z"/>
  <path fill="#495054" d="M54 56h1v1h-1zM42 63h1v1h-1zM30 65h1v1h-1zM53 68h1v1h-1z"/>
  <path fill="#495e66" d="M26 30h1v1h-1z"/>
  <path fill="#4a5256" d="M55 60h1v1h-1zM69 65h1v1h-1z"/>
  <path fill="#4a5d67" d="M73 30h1v1h-1z"/>
  <path fill="#4b5256" d="M54 55h1v1h-1zM49 73h1v1h-1z"/>
  <path fill="#4b606a" d="M21 25h1v1h-1z"/>
  <path fill="#4c5357" d="M72 60h1v1h-1z"/>
  <path fill="#4c616b" d="M78 25h1v1h-1z"/>
  <path fill="#4e5558" d="M45 56h1v1h-1zM44 60h1v1h-1zM55 72h1v1h-1z"/>
  <path fill="#4e626a" d="M28 27h1v1h-1z"/>
  <path fill="#4f5559" d="M27 57h1v1h-1z"/>
  <path fill="#4f626b" d="M71 27h1v1h-1z"/>
  <path fill="#50565a" d="M45 55h1v1h-1z"/>
  <path fill="#50575b" d="M58 64h1v1h-1z"/>
  <path fill="#50626c" d="M74 36h1v1h-1z"/>
  <path fill="#52646d" d="M27 28h1v1h-1z"/>
  <path fill="#53656e" d="M72 28h1v1h-1zM19 48h1v1h-1z"/>
  <path fill="#545a5e" d="M72 57h1v1h-1zM41 64h1v1h-1z"/>
  <path fill="#555b5e" d="M60 47h1v1h-1z"/>
  <path fill="#55666e" d="M80 48h1v1h-1z"/>
  <path fill="#565b5f" d="M39 47h1v1h-1zM47 76h1v1h-1z"/>
  <path fill="#575d60" d="M54 57h1v1h-1z"/>
  <path fill="#585e60" d="M55 51h1v1h-1z"/>
  <path fill="#5b6b74" d="M26 31h1v1h-1z"/>
  <path fill="#5b6f79" d="M19 31h1v1h-1z"/>
  <path fill="#5b7079" d="M20 27h1v1h-1z"/>
  <path fill="#5b707a" d="M80 31h1v1h-1z"/>
  <path fill="#5b717b" d="M79 27h1v1h-1z"/>
  <path fill="#5c6164" d="M44 51h1v1h-1zM45 57h1v1h-1zM56 62h1v1h-1z"/>
  <path fill="#5c6c73" d="M21 45h1v1h-1z"/>
  <path fill="#5d6265" d="M54 54h1v1h-1z"/>
  <path fill="#5d6d75" d="M78 45h1v1h-1z"/>
  <path fill="#606f77" d="M73 31h1v1h-1z"/>
  <path fill="#616568" d="M43 62h1v1h-1zM35 66h1v1h-1zM64 66h1v1h-1z"/>
  <path fill="#617077" d="M23 42h1v1h-1z"/>
  <path fill="#627178" d="M25 37h1v1h-1z"/>
  <path fill="#63676a" d="M45 54h1v1h-1z"/>
  <path fill="#637279" d="M24 40h1v1h-1z"/>
  <path fill="#647279" d="M76 42h1v1h-1z"/>
  <path fill="#65696b" d="M27 56h1v1h-1zM50 73h1v1h-1z"/>
  <path fill="#687d86" d="M19 30h1v1h-1z"/>
  <path fill="#697d87" d="M80 30h1v1h-1z"/>
  <path fill="#6a6d6f" d="M72 56h1v1h-1zM27 61h1v1h-1z"/>
  <path fill="#6c6f71" d="M34 66h1v1h-1zM65 66h1v1h-1z"/>
  <path fill="#6c787e" d="M75 40h1v1h-1z"/>
  <path fill="#6d7980" d="M26 32h1v1h-1z"/>
  <path fill="#6e7072" d="M52 76h1v1h-1z"/>
  <path fill="#6e7173" d="M72 61h1v1h-1z"/>
  <path fill="#6f7274" d="M63 66h1v1h-1z"/>
  <path fill="#707374" d="M36 66h1v1h-1z"/>
  <path fill="#737d83" d="M74 37h1v1h-1z"/>
  <path fill="#747678" d="M33 66h1v1h-1z"/>
  <path fill="#757778" d="M66 66h1v1h-1z"/>
  <path fill="#757f84" d="M73 32h1v1h-1z"/>
  <path fill="#778b95" d="M20 26h1v1h-1z"/>
  <path fill="#78797a" d="M51 75h1v1h-1z"/>
  <path fill="#787a7b" d="M48 65h1v1h-1z"/>
  <path fill="#788c96" d="M79 26h1v1h-1z"/>
  <path fill="#7a7b7c" d="M45 69h1v1h-1z"/>
  <path fill="#7b9099" d="M19 29h1v1h-1z"/>
  <path fill="#7c7d7f" d="M33 47h1v1h-1z"/>
  <path fill="#7c919a" d="M80 29h1v1h-1z"/>
  <path fill="#7d919b" d="M18 37h1v13h-1z"/>
  <path fill="#7d929b" d="M81 37h1v13h-1z"/>
  <path fill="#7e7f80" d="M66 47h1v1h-1zM54 58h1v1h-1zM47 66h1v1h-1z"/>
  <path fill="#7e878b" d="M26 33h1v1h-1z"/>
  <path fill="#7f939d" d="M18 36h1v1h-1z"/>
  <path fill="#7f949e" d="M81 36h1v1h-1z"/>
  <path fill="#818283" d="M30 49h1v1h-1z"/>
  <path fill="#828283" d="M45 58h1v1h-1z"/>
  <path fill="#838384" d="M44 71h1v1h-1z"/>
  <path fill="#8398a1" d="M18 35h1v1h-1zM81 35h1v1h-1z"/>
  <path fill="#858485" d="M54 53h1v1h-1z"/>
  <path fill="#868686" d="M69 49h1v1h-1z"/>
  <path fill="#869ba5" d="M18 34h1v1h-1z"/>
  <path fill="#878d91" d="M20 47h1v1h-1z"/>
  <path fill="#888788" d="M62 66h1v1h-1z"/>
  <path fill="#889ca6" d="M81 34h1v1h-1z"/>
  <path fill="#898888" d="M37 66h1v1h-1z"/>
  <path fill="#898f92" d="M73 33h1v1h-1z"/>
  <path fill="#8a8989" d="M45 53h1v1h-1z"/>
  <path fill="#8a8a8a" d="M59 47h1v1h-1zM28 52h1v1h-1z"/>
  <path fill="#8a9094" d="M22 44h1v1h-1z"/>
  <path fill="#8b8a8b" d="M40 47h1v1h-1z"/>
  <path fill="#8c8b8b" d="M49 74h1v1h-1z"/>
  <path fill="#8c9ba3" d="M18 50h1v1h-1z"/>
  <path fill="#8da1aa" d="M18 33h1v1h-1z"/>
  <path fill="#8da1ac" d="M81 33h1v1h-1z"/>
  <path fill="#8da2ac" d="M19 28h1v1h-1z"/>
  <path fill="#8e8c8c" d="M54 69h1v1h-1z"/>
  <path fill="#8e8d8d" d="M71 52h1v1h-1zM55 71h1v1h-1z"/>
  <path fill="#8e9da3" d="M81 50h1v1h-1z"/>
  <path fill="#8ea1ac" d="M80 28h1v1h-1z"/>
  <path fill="#8f8e8e" d="M44 76h1v1h-1z"/>
  <path fill="#908e8e" d="M27 55h1v1h-1z"/>
  <path fill="#90a4ae" d="M18 26h2v1h-2zM80 26h2v1h-2zM16 27h4v1h-4zM80 27h4v1h-4zM16 28h3v1h-3zM81 28h3v1h-3zM15 29h4v1h-4zM81 29h4v1h-4zM14 30h5v3h-5zM81 30h5v3h-5zM13 33h5v9h-5zM82 33h5v9h-5zM9 42h9v1h-9zM82 42h9v1h-9zM7 43h11v9h-11zM82 43h11v9h-11zM7 52h10v3h-10zM83 52h10v3h-10zM7 55h9v6h-9zM84 55h9v6h-9zM7 61h10v2h-10zM83 61h10v2h-10zM8 63h9v1h-9zM83 63h9v1h-9zM9 64h8v1h-8zM83 64h8v1h-8zM10 65h8v1h-8zM82 65h8v1h-8z"/>
  <path fill="#91a4ae" d="M17 64h1v1h-1zM82 64h1v1h-1z"/>
  <path fill="#929090" d="M31 48h1v1h-1z"/>
  <path fill="#929698" d="M25 38h1v1h-1z"/>
  <path fill="#939090" d="M59 65h1v1h-1z"/>
  <path fill="#949292" d="M72 55h1v1h-1z"/>
  <path fill="#94a6af" d="M83 55h1v1h-1z"/>
  <path fill="#94a7b0" d="M16 60h1v1h-1z"/>
  <path fill="#959392" d="M68 48h1v1h-1zM51 65h1v1h-1zM55 76h1v1h-1z"/>
  <path fill="#95a6b0" d="M16 55h1v1h-1zM83 60h1v1h-1z"/>
  <path fill="#969393" d="M56 49h1v1h-1zM40 65h1v1h-1zM32 66h1v1h-1z"/>
  <path fill="#979493" d="M67 66h1v1h-1z"/>
  <path fill="#979a9b" d="M26 34h1v1h-1z"/>
  <path fill="#979a9c" d="M29 27h1v1h-1zM70 27h1v1h-1z"/>
  <path fill="#98a9b1" d="M17 52h1v1h-1z"/>
  <path fill="#999696" d="M43 49h1v1h-1zM52 66h1v1h-1z"/>
  <path fill="#99a9b1" d="M82 52h1v1h-1z"/>
  <path fill="#9b9797" d="M55 61h1v1h-1z"/>
  <path fill="#9d9998" d="M27 62h1v1h-1z"/>
  <path fill="#9e9a9a" d="M29 50h1v1h-1z"/>
  <path fill="#9fa0a2" d="M74 38h1v1h-1z"/>
  <path fill="#9fadb3" d="M83 59h1v1h-1z"/>
  <path fill="#9fadb4" d="M83 56h1v1h-1z"/>
  <path fill="#a09c9b" d="M44 61h1v1h-1z"/>
  <path fill="#a0adb4" d="M16 56h1v1h-1zM16 59h1v1h-1z"/>
  <path fill="#a19d9c" d="M57 48h1v1h-1zM72 62h1v1h-1z"/>
  <path fill="#a29e9d" d="M70 50h1v1h-1z"/>
  <path fill="#a3a3a5" d="M19 49h1v1h-1z"/>
  <path fill="#a3a4a4" d="M73 34h1v1h-1z"/>
  <path fill="#a4a09e" d="M42 48h1v1h-1z"/>
  <path fill="#a4afb6" d="M83 58h1v1h-1zM82 63h1v1h-1z"/>
  <path fill="#a5a0a0" d="M46 67h1v1h-1z"/>
  <path fill="#a5a5a6" d="M24 41h1v1h-1z"/>
  <path fill="#a5a5a7" d="M72 29h1v1h-1z"/>
  <path fill="#a5b0b6" d="M83 57h1v1h-1zM16 58h1v1h-1zM17 63h1v1h-1z"/>
  <path fill="#a6b0b5" d="M16 57h1v1h-1z"/>
  <path fill="#a9a9a9" d="M75 41h1v1h-1z"/>
  <path fill="#aaa8a8" d="M27 29h1v1h-1z"/>
  <path fill="#afa9a8" d="M49 64h1v1h-1z"/>
  <path fill="#b1acaa" d="M61 66h1v1h-1zM43 74h1v1h-1z"/>
  <path fill="#b1b6ba" d="M18 65h1v1h-1zM81 65h1v1h-1z"/>
  <path fill="#b3acaa" d="M38 66h1v1h-1z"/>
  <path fill="#b3b7ba" d="M82 53h1v1h-1z"/>
  <path fill="#b3b8bb" d="M17 53h1v1h-1z"/>
  <path fill="#b4aeac" d="M54 59h1v1h-1z"/>
  <path fill="#b5afad" d="M28 64h1v1h-1z"/>
  <path fill="#b5b1b0" d="M26 35h1v1h-1z"/>
  <path fill="#b6afad" d="M29 65h1v1h-1z"/>
  <path fill="#b8b1af" d="M45 59h1v1h-1zM56 74h1v1h-1z"/>
  <path fill="#b8b4b3" d="M21 46h1v1h-1z"/>
  <path fill="#b8b5b3" d="M23 43h1v1h-1z"/>
  <path fill="#b9b2af" d="M55 50h1v1h-1zM50 64h1v1h-1zM71 64h1v1h-1zM70 65h1v1h-1zM53 67h1v1h-1zM50 74h1v1h-1z"/>
  <path fill="#b9b9b9" d="M18 51h1v1h-1z"/>
  <path fill="#b9bcbe" d="M82 62h1v1h-1z"/>
  <path fill="#bab2b0" d="M54 52h1v1h-1zM31 66h1v1h-1z"/>
  <path fill="#bab3b1" d="M44 50h1v1h-1zM68 66h1v1h-1z"/>
  <path fill="#babcbd" d="M17 62h1v1h-1z"/>
  <path fill="#bbb6b5" d="M30 27h1v1h-1zM69 27h1v1h-1z"/>
  <path fill="#bcbcbc" d="M81 51h1v1h-1z"/>
  <path fill="#beb5b3" d="M45 52h1v1h-1z"/>
  <path fill="#bfb8b4" d="M36 46h1v1h-1zM63 46h1v1h-1z"/>
  <path fill="#c1bbb8" d="M25 39h1v1h-1z"/>
  <path fill="#c2b9b7" d="M27 54h1v1h-1z"/>
  <path fill="#c3bcba" d="M73 35h1v1h-1z"/>
  <path fill="#c4bbb9" d="M72 54h1v1h-1zM48 76h1v1h-1z"/>
  <path fill="#c5bcba" d="M32 47h1v1h-1z"/>
  <path fill="#c6bdb9" d="M67 47h1v1h-1z"/>
  <path fill="#c7beba" d="M43 73h1v1h-1zM43 75h1v1h-1z"/>
  <path fill="#c7bebc" d="M37 46h1v1h-1z"/>
  <path fill="#c7bfbb" d="M62 46h1v1h-1z"/>
  <path fill="#c7c0bd" d="M28 28h1v1h-1zM71 28h1v1h-1z"/>
  <path fill="#c8bfbd" d="M56 63h1v1h-1z"/>
  <path fill="#c9c0bc" d="M57 64h1v1h-1zM44 70h1v1h-1z"/>
  <path fill="#cac4c3" d="M17 54h1v1h-1z"/>
  <path fill="#cac5c3" d="M82 54h1v1h-1z"/>
  <path fill="#cbc2be" d="M43 63h1v1h-1z"/>
  <path fill="#ccc2bf" d="M42 64h1v1h-1zM56 75h1v1h-1z"/>
  <path fill="#ccc3bf" d="M28 51h1v1h-1zM56 73h1v1h-1z"/>
  <path fill="#ccc4c0" d="M74 39h1v1h-1z"/>
  <path fill="#cec4c2" d="M31 27h38v1h-38z"/>
  <path fill="#cec5c1" d="M45 68h1v1h-1z"/>
  <path fill="#cfc4c2" d="M71 51h1v1h-1z"/>
  <path fill="#cfc6c2" d="M20 48h1v1h-1z"/>
  <path fill="#cfc7c4" d="M18 64h1v1h-1zM81 64h1v1h-1z"/>
  <path fill="#d0c5c1" d="M58 47h1v1h-1z"/>
  <path fill="#d0c6c2" d="M41 47h1v1h-1z"/>
  <path fill="#d0c7c3" d="M26 36h1v1h-1zM35 46h1v1h-1zM55 70h1v1h-1zM46 77h1v1h-1zM53 77h1v1h-1z"/>
  <path fill="#d1c7c3" d="M72 30h1v1h-1z"/>
  <path fill="#d1c8c4" d="M64 46h1v1h-1zM49 75h1v1h-1z"/>
  <path fill="#d2c9c5" d="M22 45h1v1h-1z"/>
  <path fill="#d3c8c4" d="M61 46h1v1h-1z"/>
  <path fill="#d4c9c5" d="M38 46h1v1h-1z"/>
  <path fill="#d4cbc7" d="M27 63h1v1h-1z"/>
  <path fill="#d5cac6" d="M72 63h1v1h-1zM54 68h1v1h-1zM51 76h1v1h-1z"/>
  <path fill="#d5cac7" d="M27 30h1v1h-1z"/>
  <path fill="#d5cbc7" d="M19 50h1v1h-1z"/>
  <path fill="#d6cbc7" d="M73 36h1v1h-1zM24 42h1v1h-1zM17 55h1v1h-1zM82 55h1v1h-1zM41 65h1v1h-1zM47 65h1v1h-1zM58 65h1v1h-1zM45 77h1v1h-1z"/>
  <path fill="#d6cbc8" d="M17 60h1v1h-1zM82 60h1v1h-1z"/>
  <path fill="#d6ccc8" d="M18 52h1v1h-1zM81 52h1v1h-1z"/>
  <path fill="#d7ccc8" d="M29 28h42v1h-42zM28 29h44v2h-44zM27 31h46v6h-46zM26 37h48v3h-48zM25 40h50v3h-50zM24 43h52v1h-52zM23 44h54v2h-54zM22 46h13v1h-13zM39 46h22v1h-22zM65 46h13v1h-13zM21 47h11v1h-11zM42 47h16v1h-16zM68 47h11v1h-11zM21 48h10v1h-10zM43 48h14v1h-14zM69 48h10v1h-10zM20 49h10v1h-10zM44 49h12v1h-12zM70 49h10v1h-10zM20 50h9v1h-9zM71 50h9v1h-9zM45 50h10v2h-10zM19 51h9v2h-9zM72 51h9v2h-9zM18 53h10v1h-10zM72 53h10v1h-10zM18 54h9v2h-9zM73 54h9v2h-9zM46 52h8v8h-8zM17 56h10v4h-10zM73 56h10v4h-10zM45 60h10v2h-10zM18 60h9v4h-9zM73 60h9v4h-9zM44 62h12v2h-12zM19 64h9v1h-9zM43 64h6v1h-6zM51 64h6v1h-6zM72 64h9v1h-9zM19 65h10v1h-10zM42 65h5v1h-5zM52 65h6v1h-6zM71 65h10v1h-10zM20 66h11v1h-11zM39 66h8v1h-8zM53 66h8v1h-8zM69 66h11v1h-11zM20 67h26v1h-26zM54 67h26v1h-26zM21 68h24v1h-24zM55 68h24v1h-24zM22 69h23v1h-23zM55 69h23v1h-23zM23 70h21v1h-21zM56 70h21v1h-21zM25 71h19v1h-19zM56 71h19v1h-19zM31 72h13v1h-13zM56 72h13v1h-13zM33 73h10v2h-10zM57 73h10v2h-10zM34 75h9v1h-9zM50 75h1v1h-1zM57 75h9v1h-9zM35 76h9v1h-9zM49 76h2v1h-2zM56 76h9v1h-9zM35 77h10v1h-10zM47 77h6v1h-6zM54 77h11v1h-11zM35 78h30v3h-30zM36 81h28v8h-28zM37 89h26v1h-26zM40 90h20v1h-20z"/>
</svg>