<?xml version="1.0" encoding="UTF-8"?>
<svg xmlns="http://www.w3.org/2000/svg" width="100" height="100" viewBox="0 0 100 100" role="img" aria-labelledby="title" shape-rendering="crispEdges">
  <title id="title">icons8 diamonds 100</title>
  <desc>Pixel-perfect vector conversion from the supplied PNG, preserving transparency.</desc>
  <path fill="#ff0000" fill-opacity="0.0039" d="M78 57h1v1h-1z"/>
  <path fill="#ff0000" fill-opacity="0.0078" d="M42 21h1v1h-1zM21 42h1v1h-1zM78 42h1v1h-1zM21 57h1v1h-1zM72 62h1v1h-1zM37 72h1v1h-1zM42 78h1v1h-1zM57 78h1v1h-1z"/>
  <path fill="#ff5500" fill-opacity="0.0118" d="M57 21h1v1h-1zM37 27h1v1h-1zM27 37h1v1h-1zM27 62h1v1h-1zM62 72h1v1h-1z"/>
  <path fill="#ff3f00" fill-opacity="0.0157" d="M62 27h1v1h-1zM72 37h1v1h-1zM91 50h1v1h-1z"/>
  <path fill="#ff3300" fill-opacity="0.0196" d="M49 8h2v1h-2zM91 49h1v1h-1zM8 49h1v2h-1zM49 91h2v1h-2z"/>
  <path fill="#ff4800" fill-opacity="0.0275" d="M26 38h1v1h-1zM26 61h1v1h-1z"/>
  <path fill="#ff3f00" fill-opacity="0.0314" d="M61 73h1v1h-1z"/>
  <path fill="#ff3800" fill-opacity="0.0353" d="M38 26h1v1h-1zM61 26h1v1h-1zM73 38h1v1h-1zM17 45h1v1h-1zM17 54h1v1h-1zM73 61h1v1h-1zM38 73h1v1h-1z"/>
  <path fill="#ff3300" fill-opacity="0.0392" d="M45 17h1v1h-1zM45 82h1v1h-1z"/>
  <path fill="#ff4500" fill-opacity="0.0431" d="M54 82h1v1h-1z"/>
  <path fill="#ff3f00" fill-opacity="0.0471" d="M54 17h1v1h-1zM82 45h1v1h-1zM82 54h1v1h-1z"/>
  <path fill="#ff3800" fill-opacity="0.0706" d="M74 60h1v1h-1zM39 74h1v1h-1z"/>
  <path fill="#ff4300" fill-opacity="0.0745" d="M39 25h1v1h-1zM25 60h1v1h-1z"/>
  <path fill="#ff3f00" fill-opacity="0.0784" d="M74 39h1v1h-1zM60 74h1v1h-1z"/>
  <path fill="#ff3c00" fill-opacity="0.0824" d="M60 25h1v1h-1zM25 39h1v1h-1zM20 43h1v1h-1zM20 56h1v1h-1z"/>
  <path fill="#ff3900" fill-opacity="0.0863" d="M43 20h1v1h-1zM43 79h1v1h-1z"/>
  <path fill="#ff3f00" fill-opacity="0.0941" d="M56 20h1v1h-1zM79 56h1v1h-1zM56 79h1v1h-1z"/>
  <path fill="#ff3d00" fill-opacity="0.098" d="M79 43h1v1h-1z"/>
  <path fill="#ff3900" fill-opacity="0.1216" d="M90 50h1v1h-1z"/>
  <path fill="#ff3f00" fill-opacity="0.1255" d="M50 9h1v1h-1zM9 50h1v1h-1zM87 51h1v1h-1zM48 87h1v1h-1zM50 90h1v1h-1z"/>
  <path fill="#ff3d00" fill-opacity="0.1294" d="M48 12h1v1h-1zM87 48h1v1h-1zM9 49h1v1h-1zM90 49h1v1h-1zM12 51h1v1h-1zM85 52h1v1h-1zM47 85h1v1h-1z"/>
  <path fill="#ff3c00" fill-opacity="0.1333" d="M49 9h1v1h-1zM47 14h1v1h-1zM12 48h1v1h-1zM14 52h1v1h-1zM51 87h1v1h-1zM49 90h1v1h-1z"/>
  <path fill="#ff3a00" fill-opacity="0.1373" d="M51 12h1v1h-1zM85 47h1v1h-1zM52 85h1v1h-1z"/>
  <path fill="#ff3f00" fill-opacity="0.1412" d="M52 14h1v1h-1zM14 47h1v1h-1z"/>
  <path fill="#ff3a00" fill-opacity="0.1529" d="M24 59h1v1h-1z"/>
  <path fill="#ff3e00" fill-opacity="0.1608" d="M40 75h1v1h-1z"/>
  <path fill="#ff3c00" fill-opacity="0.1647" d="M40 24h1v1h-1z"/>
  <path fill="#ff3b00" fill-opacity="0.1686" d="M75 59h1v1h-1z"/>
  <path fill="#ff3f00" fill-opacity="0.1725" d="M75 40h1v1h-1zM59 75h1v1h-1z"/>
  <path fill="#ff3e00" fill-opacity="0.1765" d="M59 24h1v1h-1zM24 40h1v1h-1z"/>
  <path fill="#ff3b00" fill-opacity="0.2353" d="M16 53h1v1h-1z"/>
  <path fill="#ff3e00" fill-opacity="0.2392" d="M16 46h1v1h-1z"/>
  <path fill="#ff3d00" fill-opacity="0.2431" d="M53 83h1v1h-1z"/>
  <path fill="#ff3c00" fill-opacity="0.2471" d="M80 55h1v1h-1zM55 80h1v1h-1z"/>
  <path fill="#ff3b00" fill-opacity="0.251" d="M53 16h1v1h-1zM55 19h1v1h-1zM80 44h1v1h-1zM19 55h1v1h-1zM44 80h1v1h-1z"/>
  <path fill="#ff3e00" fill-opacity="0.2549" d="M44 19h1v1h-1zM19 44h1v1h-1zM46 83h1v1h-1z"/>
  <path fill="#ff3d00" fill-opacity="0.2588" d="M83 53h1v1h-1z"/>
  <path fill="#ff3c00" fill-opacity="0.2627" d="M46 16h1v1h-1zM83 46h1v1h-1z"/>
  <path fill="#ff3b00" fill-opacity="0.2863" d="M23 58h1v1h-1zM41 76h1v1h-1z"/>
  <path fill="#ff3e00" fill-opacity="0.2902" d="M23 41h1v1h-1z"/>
  <path fill="#ff3b00" fill-opacity="0.302" d="M58 76h1v1h-1z"/>
  <path fill="#ff3e00" fill-opacity="0.3059" d="M58 23h1v1h-1z"/>
  <path fill="#ff3d00" fill-opacity="0.3098" d="M76 58h1v1h-1z"/>
  <path fill="#ff3c00" fill-opacity="0.3137" d="M41 23h1v1h-1zM76 41h1v1h-1z"/>
  <path fill="#ff3c00" fill-opacity="0.3647" d="M89 50h1v1h-1zM50 89h1v1h-1z"/>
  <path fill="#ff3b00" fill-opacity="0.3686" d="M50 10h1v1h-1zM89 49h1v1h-1zM10 50h1v1h-1zM49 89h1v1h-1z"/>
  <path fill="#ff3d00" fill-opacity="0.3725" d="M49 10h1v1h-1zM33 32h1v1h-1zM10 49h1v1h-1zM33 67h1v1h-1z"/>
  <path fill="#ff3d00" fill-opacity="0.3765" d="M67 66h1v1h-1z"/>
  <path fill="#ff3c00" fill-opacity="0.3804" d="M67 33h1v1h-1zM32 66h1v1h-1z"/>
  <path fill="#ff3b00" fill-opacity="0.3843" d="M32 33h1v1h-1z"/>
  <path fill="#ff3d00" fill-opacity="0.3882" d="M34 68h1v1h-1z"/>
  <path fill="#ff3c00" fill-opacity="0.3961" d="M66 67h1v1h-1z"/>
  <path fill="#ff3c00" fill-opacity="0.4" d="M66 32h1v1h-1zM31 65h1v1h-1z"/>
  <path fill="#ff3d00" fill-opacity="0.4078" d="M31 34h1v1h-1z"/>
  <path fill="#ff3c00" fill-opacity="0.4118" d="M65 68h1v1h-1z"/>
  <path fill="#ff3c00" fill-opacity="0.4157" d="M65 31h1v1h-1zM30 64h1v1h-1z"/>
  <path fill="#ff3d00" fill-opacity="0.4196" d="M34 31h1v1h-1z"/>
  <path fill="#ff3d00" fill-opacity="0.4235" d="M68 65h1v1h-1z"/>
  <path fill="#ff3c00" fill-opacity="0.4314" d="M68 34h1v1h-1z"/>
  <path fill="#ff3e00" fill-opacity="0.4353" d="M35 69h1v1h-1z"/>
  <path fill="#ff3d00" fill-opacity="0.4392" d="M35 30h1v1h-1zM69 64h1v1h-1z"/>
  <path fill="#ff3c00" fill-opacity="0.4471" d="M69 35h1v1h-1z"/>
  <path fill="#ff3d00" fill-opacity="0.4549" d="M30 35h1v1h-1z"/>
  <path fill="#ff3d00" fill-opacity="0.4588" d="M64 69h1v1h-1z"/>
  <path fill="#ff3c00" fill-opacity="0.4627" d="M64 30h1v1h-1z"/>
  <path fill="#ff3d00" fill-opacity="0.4745" d="M77 57h1v1h-1zM57 77h1v1h-1z"/>
  <path fill="#ff3c00" fill-opacity="0.4784" d="M70 63h1v1h-1zM63 70h1v1h-1z"/>
  <path fill="#ff3d00" fill-opacity="0.4863" d="M57 22h1v1h-1zM77 42h1v1h-1zM22 57h1v1h-1zM42 77h1v1h-1z"/>
  <path fill="#ff3d00" fill-opacity="0.4902" d="M63 29h1v1h-1zM29 63h1v1h-1z"/>
  <path fill="#ff3c00" fill-opacity="0.4941" d="M70 36h1v1h-1zM36 70h1v1h-1z"/>
  <path fill="#ff3c00" fill-opacity="0.498" d="M42 22h1v1h-1zM22 42h1v1h-1z"/>
  <path fill="#ff3d00" fill-opacity="0.5059" d="M36 29h1v1h-1zM29 36h1v1h-1z"/>
  <path fill="#ff3d00" fill-opacity="0.5333" d="M18 45h1v1h-1zM18 54h1v1h-1z"/>
  <path fill="#ff3c00" fill-opacity="0.549" d="M54 81h1v1h-1z"/>
  <path fill="#ff3c00" fill-opacity="0.5608" d="M54 18h1v1h-1zM45 81h1v1h-1z"/>
  <path fill="#ff3c00" fill-opacity="0.5647" d="M86 51h1v1h-1zM51 86h1v1h-1z"/>
  <path fill="#ff3d00" fill-opacity="0.5686" d="M45 18h1v1h-1zM86 48h1v1h-1zM48 86h1v1h-1z"/>
  <path fill="#ff3d00" fill-opacity="0.5725" d="M51 13h1v1h-1zM13 51h1v1h-1zM37 71h1v1h-1z"/>
  <path fill="#ff3c00" fill-opacity="0.5765" d="M48 13h1v1h-1zM37 28h1v1h-1zM13 48h1v1h-1zM71 62h1v1h-1z"/>
  <path fill="#ff3d00" fill-opacity="0.5843" d="M28 62h1v1h-1z"/>
  <path fill="#ff3c00" fill-opacity="0.5922" d="M28 37h1v1h-1zM62 71h1v1h-1z"/>
  <path fill="#ff3d00" fill-opacity="0.6" d="M62 28h1v1h-1zM81 45h1v1h-1zM81 54h1v1h-1z"/>
  <path fill="#ff3d00" fill-opacity="0.6157" d="M71 37h1v1h-1z"/>
  <path fill="#ff3d00" fill-opacity="0.6392" d="M52 84h1v1h-1z"/>
  <path fill="#ff3c00" fill-opacity="0.6471" d="M84 52h1v1h-1z"/>
  <path fill="#ff3d00" fill-opacity="0.6549" d="M52 15h1v1h-1zM84 47h1v1h-1zM15 52h1v1h-1zM47 84h1v1h-1z"/>
  <path fill="#ff3c00" fill-opacity="0.6627" d="M15 47h1v1h-1zM27 61h1v1h-1z"/>
  <path fill="#ff3d00" fill-opacity="0.6667" d="M47 15h1v1h-1z"/>
  <path fill="#ff3d00" fill-opacity="0.6706" d="M27 38h1v1h-1z"/>
  <path fill="#ff3c00" fill-opacity="0.6745" d="M38 72h1v1h-1z"/>
  <path fill="#ff3c00" fill-opacity="0.6784" d="M38 27h1v1h-1z"/>
  <path fill="#ff3d00" fill-opacity="0.6863" d="M72 61h1v1h-1z"/>
  <path fill="#ff3c00" fill-opacity="0.6902" d="M72 38h1v1h-1z"/>
  <path fill="#ff3c00" fill-opacity="0.6941" d="M61 72h1v1h-1z"/>
  <path fill="#ff3d00" fill-opacity="0.698" d="M61 27h1v1h-1z"/>
  <path fill="#ff3d00" fill-opacity="0.7137" d="M21 56h1v1h-1z"/>
  <path fill="#ff3d00" fill-opacity="0.7176" d="M56 78h1v1h-1z"/>
  <path fill="#ff3c00" fill-opacity="0.7216" d="M21 43h1v1h-1z"/>
  <path fill="#ff3c00" fill-opacity="0.7255" d="M43 78h1v1h-1z"/>
  <path fill="#ff3c00" fill-opacity="0.7294" d="M43 21h1v1h-1zM88 50h1v1h-1zM50 88h1v1h-1z"/>
  <path fill="#ff3d00" fill-opacity="0.7333" d="M50 11h1v1h-1zM88 49h1v1h-1zM11 50h1v1h-1z"/>
  <path fill="#ff3d00" fill-opacity="0.7373" d="M78 56h1v1h-1zM49 88h1v1h-1z"/>
  <path fill="#ff3c00" fill-opacity="0.7412" d="M49 11h1v1h-1zM78 43h1v1h-1zM11 49h1v1h-1z"/>
  <path fill="#ff3c00" fill-opacity="0.7451" d="M56 21h1v1h-1z"/>
  <path fill="#ff3c00" fill-opacity="0.7569" d="M73 60h1v1h-1zM60 73h1v1h-1z"/>
  <path fill="#ff3d00" fill-opacity="0.7647" d="M60 26h1v1h-1zM73 39h1v1h-1zM26 60h1v1h-1zM39 73h1v1h-1z"/>
  <path fill="#ff3c00" fill-opacity="0.7725" d="M39 26h1v1h-1zM26 39h1v1h-1z"/>
  <path fill="#ff3d00" fill-opacity="0.8471" d="M25 59h1v1h-1z"/>
  <path fill="#ff3d00" fill-opacity="0.851" d="M17 46h1v1h-1zM17 53h1v1h-1z"/>
  <path fill="#ff3c00" fill-opacity="0.8588" d="M40 74h1v1h-1zM46 82h1v1h-1z"/>
  <path fill="#ff3d00" fill-opacity="0.8627" d="M46 17h1v1h-1zM40 25h1v1h-1zM74 59h1v1h-1z"/>
  <path fill="#ff3d00" fill-opacity="0.8667" d="M74 40h1v1h-1zM82 53h1v1h-1z"/>
  <path fill="#ff3c00" fill-opacity="0.8706" d="M53 17h1v1h-1zM25 40h1v1h-1zM82 46h1v1h-1zM59 74h1v1h-1zM53 82h1v1h-1z"/>
  <path fill="#ff3c00" fill-opacity="0.8745" d="M59 25h1v1h-1z"/>
  <path fill="#ff3d00" fill-opacity="0.898" d="M44 20h1v1h-1zM79 44h1v1h-1zM79 55h1v1h-1zM44 79h1v1h-1z"/>
  <path fill="#ff3c00" fill-opacity="0.902" d="M20 44h1v1h-1zM20 55h1v1h-1z"/>
  <path fill="#ff3c00" fill-opacity="0.9098" d="M55 20h1v1h-1zM55 79h1v1h-1z"/>
  <path fill="#ff3c00" fill-opacity="0.9412" d="M24 58h1v1h-1zM41 75h1v1h-1z"/>
  <path fill="#ff3d00" fill-opacity="0.9451" d="M41 24h1v1h-1zM24 41h1v1h-1z"/>
  <path fill="#ff3d00" fill-opacity="0.949" d="M75 58h1v1h-1zM58 75h1v1h-1z"/>
  <path fill="#ff3c00" fill-opacity="0.9529" d="M58 24h1v1h-1zM75 41h1v1h-1z"/>
  <path fill="#ff3c00" fill-opacity="0.9725" d="M48 85h1v1h-1z"/>
  <path fill="#ff3d00" fill-opacity="0.9765" d="M48 14h1v1h-1zM85 48h1v1h-1zM14 51h1v1h-1zM85 51h1v1h-1zM51 85h1v1h-1z"/>
  <path fill="#ff3d00" fill-opacity="0.9804" d="M51 14h1v1h-1zM14 48h1v1h-1z"/>
  <path fill="#ff3c00" fill-opacity="0.9882" d="M66 33h1v1h-1zM19 45h1v1h-1zM19 54h1v1h-1zM76 57h1v1h-1zM33 66h1v1h-1zM66 66h1v1h-1zM42 76h1v1h-1zM54 80h1v1h-1z"/>
  <path fill="#ff3d00" fill-opacity="0.9922" d="M49 12h1v1h-1zM45 19h1v1h-1zM54 19h1v1h-1zM42 23h1v1h-1zM57 23h1v1h-1zM34 32h1v1h-1zM33 33h1v1h-1zM32 34h1v1h-1zM23 42h1v1h-1zM76 42h1v1h-1zM87 49h1v2h-1zM12 50h1v1h-1zM80 54h1v1h-1zM23 57h1v1h-1zM32 65h1v1h-1zM34 67h1v1h-1zM57 76h1v1h-1zM45 80h1v1h-1zM52 83h1v1h-1zM49 87h1v1h-1z"/>
  <path fill="#ff3d00" fill-opacity="0.9961" d="M50 12h1v1h-1zM47 16h1v1h-1zM52 16h1v1h-1zM35 31h1v1h-1zM64 31h1v1h-1zM65 32h1v1h-1zM67 34h1v1h-1zM31 35h1v1h-1zM68 35h1v1h-1zM80 45h1v1h-1zM16 47h1v1h-1zM83 47h1v1h-1zM12 49h1v1h-1zM16 52h1v1h-1zM83 52h1v1h-1zM31 64h1v1h-1zM68 64h1v1h-1zM67 65h1v1h-1zM65 67h1v1h-1zM35 68h1v1h-1zM64 68h1v1h-1zM47 83h1v1h-1zM50 87h1v1h-1z"/>
  <path fill="#ff3d00" d="M49 13h2v2h-2zM48 15h4v2h-4zM47 17h6v1h-6zM46 18h8v2h-8zM45 20h10v1h-10zM44 21h12v1h-12zM43 22h14v2h-14zM42 24h16v1h-16zM41 25h18v1h-18zM40 26h20v1h-20zM39 27h22v1h-22zM38 28h24v1h-24zM37 29h26v1h-26zM36 30h28v2h-28zM35 32h30v1h-30zM34 33h32v1h-32zM33 34h34v1h-34zM32 35h36v1h-36zM30 36h40v1h-40zM29 37h42v1h-42zM28 38h44v1h-44zM27 39h46v1h-46zM26 40h48v1h-48zM25 41h50v1h-50zM24 42h52v1h-52zM22 43h56v1h-56zM21 44h58v1h-58zM20 45h60v1h-60zM18 46h64v1h-64zM17 47h66v1h-66zM15 48h70v1h-70zM13 49h74v2h-74zM15 51h70v1h-70zM17 52h66v1h-66zM18 53h64v1h-64zM20 54h60v1h-60zM21 55h58v1h-58zM22 56h56v1h-56zM24 57h52v1h-52zM25 58h50v1h-50zM26 59h48v1h-48zM27 60h46v1h-46zM28 61h44v1h-44zM29 62h42v1h-42zM30 63h40v1h-40zM32 64h36v1h-36zM33 65h34v1h-34zM34 66h32v1h-32zM35 67h30v1h-30zM36 68h28v2h-28zM37 70h26v1h-26zM38 71h24v1h-24zM39 72h22v1h-22zM40 73h20v1h-20zM41 74h18v1h-18zM42 75h16v1h-16zM43 76h14v2h-14zM44 78h12v1h-12zM45 79h10v1h-10zM46 80h8v2h-8zM47 82h6v1h-6zM48 83h4v2h-4zM49 85h2v2h-2z"/>
</svg>