<?xml version="1.0" encoding="UTF-8"?>
<svg xmlns="http://www.w3.org/2000/svg" width="100" height="100" viewBox="0 0 100 100" role="img" aria-labelledby="title" shape-rendering="crispEdges">
  <title id="title">icons8 favorite 100</title>
  <desc>Pixel-perfect vector conversion from the supplied PNG, preserving transparency.</desc>
  <path fill="#ff0000" fill-opacity="0.0039" d="M14 24h1v1h-1zM50 24h1v1h-1zM85 24h1v1h-1zM12 27h1v1h-1zM85 51h1v1h-1zM70 65h1v1h-1zM58 74h1v1h-1zM47 80h1v1h-1z"/>
  <path fill="#ff3f00" fill-opacity="0.0157" d="M24 61h1v1h-1z"/>
  <path fill="#ff3300" fill-opacity="0.0196" d="M46 21h1v1h-1z"/>
  <path fill="#ff2a00" fill-opacity="0.0235" d="M17 21h1v1h-1zM53 21h1v1h-1zM82 21h1v1h-1z"/>
  <path fill="#ff4800" fill-opacity="0.0275" d="M36 70h1v1h-1z"/>
  <path fill="#ff3f00" fill-opacity="0.0314" d="M71 16h1v1h-1zM39 17h1v1h-1zM84 23h1v1h-1zM32 67h1v1h-1zM49 83h2v1h-2z"/>
  <path fill="#ff3800" fill-opacity="0.0353" d="M28 16h1v1h-1zM35 16h1v1h-1zM64 16h1v1h-1zM24 17h1v1h-1zM60 17h1v1h-1zM75 17h1v1h-1zM15 23h1v1h-1zM48 23h1v1h-1zM51 23h1v1h-1zM40 73h1v1h-1z"/>
  <path fill="#ff3300" fill-opacity="0.0392" d="M63 70h1v1h-1zM59 73h1v1h-1z"/>
  <path fill="#ff4500" fill-opacity="0.0431" d="M47 22h1v1h-1zM52 22h1v1h-1zM75 61h1v1h-1z"/>
  <path fill="#ff3f00" fill-opacity="0.0471" d="M83 22h1v1h-1zM67 67h1v1h-1z"/>
  <path fill="#ff3a00" fill-opacity="0.051" d="M16 22h1v1h-1zM28 64h1v1h-1z"/>
  <path fill="#ff3800" fill-opacity="0.0706" d="M10 42h1v1h-1z"/>
  <path fill="#ff4300" fill-opacity="0.0745" d="M89 42h1v1h-1z"/>
  <path fill="#ff3f00" fill-opacity="0.0784" d="M89 33h1v1h-1zM23 60h1v1h-1z"/>
  <path fill="#ff3c00" fill-opacity="0.0824" d="M43 19h1v1h-1zM56 19h1v1h-1zM48 81h1v1h-1z"/>
  <path fill="#ff3900" fill-opacity="0.0863" d="M79 19h1v1h-1zM10 33h1v1h-1zM15 52h1v1h-1z"/>
  <path fill="#ff3700" fill-opacity="0.0902" d="M20 19h1v1h-1zM71 64h1v1h-1zM51 81h1v1h-1z"/>
  <path fill="#ff3800" fill-opacity="0.1059" d="M84 52h1v1h-1zM76 60h1v1h-1z"/>
  <path fill="#ff3b00" fill-opacity="0.1176" d="M35 69h1v1h-1z"/>
  <path fill="#ff3f00" fill-opacity="0.1255" d="M13 49h1v1h-1z"/>
  <path fill="#ff3c00" fill-opacity="0.1333" d="M41 18h1v1h-1zM58 18h1v1h-1z"/>
  <path fill="#ff3a00" fill-opacity="0.1373" d="M77 18h1v1h-1zM22 59h1v1h-1z"/>
  <path fill="#ff3f00" fill-opacity="0.1412" d="M22 18h1v1h-1zM11 45h1v1h-1z"/>
  <path fill="#ff3e00" fill-opacity="0.1451" d="M86 49h1v1h-1zM39 72h1v1h-1z"/>
  <path fill="#ff3c00" fill-opacity="0.149" d="M88 45h1v1h-1z"/>
  <path fill="#ff3a00" fill-opacity="0.1529" d="M31 66h1v1h-1z"/>
  <path fill="#ff3f00" fill-opacity="0.1569" d="M16 53h1v1h-1z"/>
  <path fill="#ff3e00" fill-opacity="0.1608" d="M86 26h1v1h-1z"/>
  <path fill="#ff3b00" fill-opacity="0.1686" d="M11 30h1v1h-1zM64 69h1v1h-1z"/>
  <path fill="#ff3f00" fill-opacity="0.1725" d="M13 26h1v1h-1zM88 30h1v1h-1z"/>
  <path fill="#ff3e00" fill-opacity="0.1765" d="M29 16h1v1h-1zM34 16h1v1h-1zM70 16h1v1h-1zM60 72h1v1h-1z"/>
  <path fill="#ff3c00" fill-opacity="0.1804" d="M65 16h1v1h-1z"/>
  <path fill="#ff3e00" fill-opacity="0.1922" d="M83 53h1v1h-1zM27 63h1v1h-1zM68 66h1v1h-1z"/>
  <path fill="#ff3c00" fill-opacity="0.2" d="M77 59h1v1h-1z"/>
  <path fill="#ff3b00" fill-opacity="0.2353" d="M12 47h1v1h-1zM72 63h1v1h-1z"/>
  <path fill="#ff3e00" fill-opacity="0.2392" d="M33 16h1v1h-1zM66 16h1v1h-1z"/>
  <path fill="#ff3d00" fill-opacity="0.2431" d="M17 54h1v1h-1zM45 77h1v1h-1z"/>
  <path fill="#ff3c00" fill-opacity="0.2471" d="M87 47h1v1h-1zM21 58h1v1h-1z"/>
  <path fill="#ff3e00" fill-opacity="0.2549" d="M89 34h1v1h-1z"/>
  <path fill="#ff3c00" fill-opacity="0.2627" d="M89 41h1v1h-1z"/>
  <path fill="#ff3c00" fill-opacity="0.2667" d="M30 16h1v1h-1zM69 16h1v1h-1zM10 34h1v1h-1zM10 41h1v1h-1zM54 77h1v1h-1z"/>
  <path fill="#ff3e00" fill-opacity="0.2706" d="M44 76h1v1h-1z"/>
  <path fill="#ff3c00" fill-opacity="0.2824" d="M87 28h1v1h-1zM20 57h1v1h-1zM46 78h1v1h-1zM53 78h1v1h-1z"/>
  <path fill="#ff3d00" fill-opacity="0.2941" d="M19 56h1v1h-1zM55 76h1v1h-1z"/>
  <path fill="#ff3c00" fill-opacity="0.298" d="M12 28h1v1h-1zM78 58h1v1h-1z"/>
  <path fill="#ff3b00" fill-opacity="0.302" d="M32 16h1v1h-1zM67 16h1v1h-1z"/>
  <path fill="#ff3e00" fill-opacity="0.3059" d="M82 54h1v1h-1z"/>
  <path fill="#ff3d00" fill-opacity="0.3098" d="M31 16h1v1h-1zM68 16h1v1h-1zM38 17h1v1h-1z"/>
  <path fill="#ff3c00" fill-opacity="0.3137" d="M61 17h1v1h-1z"/>
  <path fill="#ff3b00" fill-opacity="0.3176" d="M38 71h1v1h-1z"/>
  <path fill="#ff3e00" fill-opacity="0.3216" d="M34 68h1v1h-1z"/>
  <path fill="#ff3c00" fill-opacity="0.3333" d="M74 17h1v1h-1zM18 55h1v1h-1z"/>
  <path fill="#ff3e00" fill-opacity="0.3373" d="M43 75h1v1h-1z"/>
  <path fill="#ff3d00" fill-opacity="0.3412" d="M25 17h1v1h-1z"/>
  <path fill="#ff3c00" fill-opacity="0.3451" d="M56 75h1v1h-1z"/>
  <path fill="#ff3e00" fill-opacity="0.3529" d="M80 20h1v1h-1z"/>
  <path fill="#ff3d00" fill-opacity="0.3569" d="M26 62h1v1h-1zM65 68h1v1h-1z"/>
  <path fill="#ff3c00" fill-opacity="0.3608" d="M79 57h1v1h-1z"/>
  <path fill="#ff3c00" fill-opacity="0.3647" d="M19 20h1v1h-1zM44 20h1v1h-1z"/>
  <path fill="#ff3b00" fill-opacity="0.3686" d="M30 65h1v1h-1z"/>
  <path fill="#ff3d00" fill-opacity="0.3725" d="M55 20h1v1h-1zM80 56h1v1h-1z"/>
  <path fill="#ff3c00" fill-opacity="0.3804" d="M81 55h1v1h-1z"/>
  <path fill="#ff3d00" fill-opacity="0.3882" d="M14 50h1v1h-1z"/>
  <path fill="#ff3d00" fill-opacity="0.3922" d="M61 71h1v1h-1z"/>
  <path fill="#ff3c00" fill-opacity="0.4118" d="M89 35h1v1h-1zM89 40h1v1h-1z"/>
  <path fill="#ff3c00" fill-opacity="0.4157" d="M85 50h1v1h-1z"/>
  <path fill="#ff3d00" fill-opacity="0.4196" d="M10 35h1v1h-1zM10 40h1v1h-1z"/>
  <path fill="#ff3e00" fill-opacity="0.4353" d="M49 25h1v1h-1zM69 65h1v1h-1zM42 74h1v1h-1z"/>
  <path fill="#ff3d00" fill-opacity="0.4392" d="M85 25h1v1h-1z"/>
  <path fill="#ff3c00" fill-opacity="0.4431" d="M50 25h1v1h-1z"/>
  <path fill="#ff3e00" fill-opacity="0.451" d="M52 79h1v1h-1z"/>
  <path fill="#ff3d00" fill-opacity="0.4588" d="M14 25h1v1h-1zM47 79h1v1h-1zM50 82h1v1h-1z"/>
  <path fill="#ff3c00" fill-opacity="0.4667" d="M73 62h1v1h-1zM49 82h1v1h-1z"/>
  <path fill="#ff3c00" fill-opacity="0.4941" d="M11 44h1v1h-1zM88 44h1v1h-1z"/>
  <path fill="#ff3c00" fill-opacity="0.498" d="M89 36h1v1h-1z"/>
  <path fill="#ff3d00" fill-opacity="0.5059" d="M10 36h1v1h-1zM89 39h1v1h-1z"/>
  <path fill="#ff3c00" fill-opacity="0.5137" d="M10 39h1v1h-1z"/>
  <path fill="#ff3c00" fill-opacity="0.5294" d="M88 31h1v1h-1z"/>
  <path fill="#ff3d00" fill-opacity="0.5333" d="M25 61h1v1h-1zM57 74h1v1h-1z"/>
  <path fill="#ff3c00" fill-opacity="0.5412" d="M11 31h1v1h-1z"/>
  <path fill="#ff3c00" fill-opacity="0.549" d="M89 37h1v1h-1z"/>
  <path fill="#ff3d00" fill-opacity="0.5569" d="M10 37h1v1h-1z"/>
  <path fill="#ff3c00" fill-opacity="0.5608" d="M10 38h1v1h-1zM89 38h1v1h-1z"/>
  <path fill="#ff3d00" fill-opacity="0.5686" d="M33 67h1v1h-1zM37 70h1v1h-1z"/>
  <path fill="#ff3d00" fill-opacity="0.5843" d="M40 18h1v1h-1z"/>
  <path fill="#ff3c00" fill-opacity="0.5922" d="M59 18h1v1h-1zM76 18h1v1h-1zM45 21h1v1h-1z"/>
  <path fill="#ff3c00" fill-opacity="0.5961" d="M23 18h1v1h-1zM54 21h1v1h-1z"/>
  <path fill="#ff3c00" fill-opacity="0.6078" d="M73 17h1v1h-1zM81 21h1v1h-1z"/>
  <path fill="#ff3c00" fill-opacity="0.6118" d="M26 17h1v1h-1z"/>
  <path fill="#ff3d00" fill-opacity="0.6157" d="M78 19h1v1h-1zM18 21h1v1h-1z"/>
  <path fill="#ff3d00" fill-opacity="0.6196" d="M37 17h1v1h-1zM42 19h1v1h-1z"/>
  <path fill="#ff3c00" fill-opacity="0.6235" d="M62 17h1v1h-1zM21 19h1v1h-1zM57 19h1v1h-1z"/>
  <path fill="#ff3c00" fill-opacity="0.6275" d="M41 73h1v1h-1z"/>
  <path fill="#ff3d00" fill-opacity="0.6353" d="M66 67h1v1h-1zM62 70h1v1h-1z"/>
  <path fill="#ff3d00" fill-opacity="0.6392" d="M29 64h1v1h-1z"/>
  <path fill="#ff3c00" fill-opacity="0.6471" d="M58 73h1v1h-1z"/>
  <path fill="#ff3d00" fill-opacity="0.651" d="M74 61h1v1h-1z"/>
  <path fill="#ff3d00" fill-opacity="0.6549" d="M51 80h1v1h-1z"/>
  <path fill="#ff3c00" fill-opacity="0.6627" d="M48 80h1v1h-1z"/>
  <path fill="#ff3d00" fill-opacity="0.6667" d="M48 24h1v1h-1zM84 24h1v1h-1z"/>
  <path fill="#ff3c00" fill-opacity="0.6745" d="M51 24h1v1h-1z"/>
  <path fill="#ff3c00" fill-opacity="0.6784" d="M15 51h1v1h-1z"/>
  <path fill="#ff3d00" fill-opacity="0.6824" d="M15 24h1v1h-1z"/>
  <path fill="#ff3c00" fill-opacity="0.6941" d="M13 48h1v1h-1z"/>
  <path fill="#ff3c00" fill-opacity="0.7059" d="M12 46h1v1h-1z"/>
  <path fill="#ff3c00" fill-opacity="0.7098" d="M86 48h1v1h-1z"/>
  <path fill="#ff3d00" fill-opacity="0.7137" d="M87 46h1v1h-1z"/>
  <path fill="#ff3c00" fill-opacity="0.7255" d="M82 22h1v1h-1zM70 64h1v1h-1z"/>
  <path fill="#ff3d00" fill-opacity="0.7333" d="M17 22h1v1h-1z"/>
  <path fill="#ff3d00" fill-opacity="0.7373" d="M47 23h1v1h-1zM84 51h1v1h-1z"/>
  <path fill="#ff3c00" fill-opacity="0.7412" d="M52 23h1v1h-1z"/>
  <path fill="#ff3c00" fill-opacity="0.7451" d="M46 22h1v1h-1z"/>
  <path fill="#ff3d00" fill-opacity="0.749" d="M53 22h1v1h-1zM83 23h1v1h-1zM86 27h1v1h-1z"/>
  <path fill="#ff3d00" fill-opacity="0.7529" d="M16 23h1v1h-1z"/>
  <path fill="#ff3c00" fill-opacity="0.7608" d="M13 27h1v1h-1z"/>
  <path fill="#ff3d00" fill-opacity="0.7647" d="M87 29h1v1h-1zM24 60h1v1h-1z"/>
  <path fill="#ff3c00" fill-opacity="0.7765" d="M12 29h1v1h-1z"/>
  <path fill="#ff3d00" fill-opacity="0.7804" d="M36 69h1v1h-1z"/>
  <path fill="#ff3c00" fill-opacity="0.8078" d="M75 60h1v1h-1z"/>
  <path fill="#ff3d00" fill-opacity="0.8118" d="M11 43h1v1h-1zM88 43h1v1h-1zM32 66h1v1h-1zM40 72h1v1h-1z"/>
  <path fill="#ff3d00" fill-opacity="0.8157" d="M88 32h1v1h-1z"/>
  <path fill="#ff3c00" fill-opacity="0.8275" d="M11 32h1v1h-1z"/>
  <path fill="#ff3d00" fill-opacity="0.8314" d="M36 17h1v1h-1z"/>
  <path fill="#ff3d00" fill-opacity="0.8353" d="M63 17h1v1h-1z"/>
  <path fill="#ff3c00" fill-opacity="0.8392" d="M63 69h1v1h-1z"/>
  <path fill="#ff3c00" fill-opacity="0.8431" d="M59 72h1v1h-1z"/>
  <path fill="#ff3d00" fill-opacity="0.8471" d="M23 59h1v1h-1zM67 66h1v1h-1z"/>
  <path fill="#ff3c00" fill-opacity="0.8549" d="M27 17h1v1h-1zM72 17h1v1h-1z"/>
  <path fill="#ff3c00" fill-opacity="0.8588" d="M28 63h1v1h-1z"/>
  <path fill="#ff3c00" fill-opacity="0.8706" d="M16 52h1v1h-1z"/>
  <path fill="#ff3d00" fill-opacity="0.8941" d="M71 63h1v1h-1z"/>
  <path fill="#ff3d00" fill-opacity="0.898" d="M83 52h1v1h-1zM76 59h1v1h-1z"/>
  <path fill="#ff3c00" fill-opacity="0.9255" d="M43 20h1v1h-1z"/>
  <path fill="#ff3d00" fill-opacity="0.9294" d="M56 20h1v1h-1zM22 58h1v1h-1z"/>
  <path fill="#ff3d00" fill-opacity="0.9333" d="M79 20h1v1h-1zM17 53h1v1h-1z"/>
  <path fill="#ff3c00" fill-opacity="0.9373" d="M20 20h1v1h-1zM35 68h1v1h-1zM39 71h1v1h-1z"/>
  <path fill="#ff3c00" fill-opacity="0.9412" d="M75 18h1v1h-1zM49 81h1v1h-1z"/>
  <path fill="#ff3d00" fill-opacity="0.9451" d="M24 18h1v1h-1zM14 49h1v1h-1z"/>
  <path fill="#ff3d00" fill-opacity="0.949" d="M64 68h1v1h-1zM50 81h1v1h-1z"/>
  <path fill="#ff3c00" fill-opacity="0.9529" d="M39 18h1v1h-1zM60 18h1v1h-1zM82 53h1v1h-1zM77 58h1v1h-1zM31 65h1v1h-1zM46 77h1v1h-1z"/>
  <path fill="#ff3d00" fill-opacity="0.9608" d="M85 49h1v1h-1zM27 62h1v1h-1z"/>
  <path fill="#ff3d00" fill-opacity="0.9647" d="M21 57h1v1h-1zM60 71h1v1h-1zM45 76h1v1h-1zM53 77h1v1h-1z"/>
  <path fill="#ff3c00" fill-opacity="0.9686" d="M20 56h1v1h-1zM44 75h1v1h-1zM55 75h1v1h-1z"/>
  <path fill="#ff3c00" fill-opacity="0.9725" d="M18 54h1v1h-1zM68 65h1v1h-1zM54 76h1v1h-1z"/>
  <path fill="#ff3d00" fill-opacity="0.9765" d="M49 26h2v1h-2zM85 26h1v1h-1z"/>
  <path fill="#ff3d00" fill-opacity="0.9804" d="M14 26h1v1h-1zM19 55h1v1h-1z"/>
  <path fill="#ff3c00" fill-opacity="0.9843" d="M72 62h1v1h-1z"/>
  <path fill="#ff3c00" fill-opacity="0.9882" d="M35 17h1v1h-1zM64 17h1v1h-1zM22 19h1v1h-1zM41 19h1v1h-1zM58 19h1v1h-1zM77 19h1v1h-1zM81 54h1v1h-1zM79 56h1v1h-1zM78 57h1v1h-1zM47 78h1v1h-1zM52 78h1v1h-1z"/>
  <path fill="#ff3d00" fill-opacity="0.9922" d="M71 17h1v1h-1zM11 42h1v1h-1zM88 42h1v1h-1zM80 55h1v1h-1zM43 74h1v1h-1z"/>
  <path fill="#ff3d00" fill-opacity="0.9961" d="M28 17h1v1h-1zM11 33h1v1h-1zM88 33h1v1h-1zM12 45h1v1h-1zM87 45h1v1h-1zM34 67h1v1h-1zM56 74h1v1h-1z"/>
  <path fill="#ff3d00" d="M29 17h6v1h-6zM65 17h6v1h-6zM25 18h14v1h-14zM61 18h14v1h-14zM23 19h18v1h-18zM59 19h18v1h-18zM21 20h22v1h-22zM57 20h22v1h-22zM19 21h26v1h-26zM55 21h26v1h-26zM18 22h28v1h-28zM54 22h28v1h-28zM17 23h30v1h-30zM53 23h30v1h-30zM16 24h32v1h-32zM52 24h32v1h-32zM15 25h34v2h-34zM51 25h34v2h-34zM14 27h72v1h-72zM13 28h74v2h-74zM12 30h76v4h-76zM11 34h78v8h-78zM12 42h76v3h-76zM13 45h74v3h-74zM14 48h72v1h-72zM15 49h70v2h-70zM16 51h68v1h-68zM17 52h66v1h-66zM18 53h64v1h-64zM19 54h62v1h-62zM20 55h60v1h-60zM21 56h58v1h-58zM22 57h56v1h-56zM23 58h54v1h-54zM24 59h52v1h-52zM25 60h50v1h-50zM26 61h48v1h-48zM28 62h44v1h-44zM29 63h42v1h-42zM30 64h40v1h-40zM32 65h36v1h-36zM33 66h34v1h-34zM35 67h31v1h-31zM36 68h28v1h-28zM37 69h26v1h-26zM38 70h24v1h-24zM40 71h20v1h-20zM41 72h18v1h-18zM42 73h16v1h-16zM44 74h12v1h-12zM45 75h10v1h-10zM46 76h8v1h-8zM47 77h6v1h-6zM48 78h4v2h-4zM49 80h2v1h-2z"/>
</svg>