<?xml version="1.0" encoding="UTF-8"?>
<svg xmlns="http://www.w3.org/2000/svg" width="100" height="100" viewBox="0 0 100 100" role="img" aria-labelledby="title" shape-rendering="crispEdges">
  <title id="title">icons8 color by number 100</title>
  <desc>Pixel-perfect vector conversion from the supplied PNG, preserving transparency.</desc>
  <path fill="#382a1c" fill-opacity="0.0706" d="M4 52h1v1h-1zM95 52h1v1h-1zM29 77h1v1h-1zM70 77h1v1h-1z"/>
  <path fill="#392222" fill-opacity="0.0863" d="M5 52h7v1h-7zM88 52h7v1h-7zM30 77h7v1h-7zM63 77h7v1h-7z"/>
  <path fill="#3f2a1f" fill-opacity="0.0941" d="M79 10h1v1h-1z"/>
  <path fill="#3d281e" fill-opacity="0.098" d="M20 10h1v1h-1z"/>
  <path fill="#412920" fill-opacity="0.1216" d="M12 18h1v1h-1zM87 18h1v1h-1zM79 68h1v1h-1zM54 93h1v1h-1z"/>
  <path fill="#3f271f" fill-opacity="0.1255" d="M20 68h1v1h-1zM45 93h1v1h-1z"/>
  <path fill="#3c2424" fill-opacity="0.1647" d="M79 11h1v7h-1zM79 61h1v7h-1zM54 86h1v7h-1z"/>
  <path fill="#3b2923" fill-opacity="0.1686" d="M20 11h1v7h-1zM20 61h1v7h-1zM45 86h1v7h-1z"/>
  <path fill="#3f2722" fill-opacity="0.2039" d="M45 18h1v1h-1zM54 18h1v1h-1z"/>
  <path fill="#3e2621" fill-opacity="0.2078" d="M12 60h1v1h-1zM87 60h1v1h-1zM37 85h1v1h-1zM62 85h1v1h-1z"/>
  <path fill="#3c2824" fill-opacity="0.2471" d="M13 18h7v1h-7zM38 18h7v1h-7zM55 18h7v1h-7zM80 18h7v1h-7z"/>
  <path fill="#3e2622" fill-opacity="0.2863" d="M37 10h1v1h-1z"/>
  <path fill="#3d2522" fill-opacity="0.2941" d="M62 10h1v1h-1z"/>
  <path fill="#413a20" fill-opacity="0.3961" d="M79 18h1v1h-1z"/>
  <path fill="#502d2d" fill-opacity="0.4" d="M20 18h1v1h-1z"/>
  <path fill="#3d2623" fill-opacity="0.4196" d="M13 60h7v1h-7zM80 60h7v1h-7zM38 85h7v1h-7zM55 85h7v1h-7z"/>
  <path fill="#3e2622" fill-opacity="0.498" d="M37 11h1v7h-1zM87 19h1v8h-1zM87 53h1v7h-1zM62 78h1v7h-1z"/>
  <path fill="#3d2723" fill-opacity="0.5059" d="M62 11h1v7h-1zM12 19h1v8h-1zM12 53h1v7h-1zM37 78h1v7h-1z"/>
  <path fill="#54403c" fill-opacity="0.5451" d="M79 60h1v1h-1zM54 85h1v1h-1z"/>
  <path fill="#36363c" fill-opacity="0.549" d="M20 60h1v1h-1z"/>
  <path fill="#533f3c" fill-opacity="0.549" d="M45 85h1v1h-1z"/>
  <path fill="#472a2c" fill-opacity="0.5608" d="M12 52h1v1h-1z"/>
  <path fill="#4a3330" fill-opacity="0.5608" d="M87 52h1v1h-1zM62 77h1v1h-1z"/>
  <path fill="#4c3531" fill-opacity="0.5647" d="M37 77h1v1h-1z"/>
  <path fill="#3d2722" fill-opacity="0.5843" d="M21 10h16v1h-16zM63 10h16v1h-16z"/>
  <path fill="#563444" fill-opacity="0.6706" d="M37 18h1v1h-1z"/>
  <path fill="#464920" fill-opacity="0.6784" d="M62 18h1v1h-1z"/>
  <path fill="#3e2722" fill-opacity="0.7569" d="M21 68h8v1h-8zM71 68h8v1h-8zM46 93h8v1h-8z"/>
  <path fill="#3d2723" fill-opacity="0.7608" d="M95 27h1v1h-1z"/>
  <path fill="#3d2723" fill-opacity="0.7647" d="M4 27h1v1h-1z"/>
  <path fill="#3e2722" fill-opacity="0.8353" d="M45 19h1v8h-1zM95 28h1v24h-1zM70 69h1v8h-1z"/>
  <path fill="#3d2722" fill-opacity="0.8392" d="M54 19h1v8h-1zM4 28h1v24h-1zM29 69h1v8h-1z"/>
  <path fill="#3e2722" fill-opacity="0.9176" d="M5 27h7v1h-7zM46 27h8v1h-8zM88 27h7v1h-7z"/>
  <path fill="#8e8483" fill-opacity="0.9765" d="M87 27h1v1h-1z"/>
  <path fill="#934357" fill-opacity="0.9804" d="M12 27h1v1h-1z"/>
  <path fill="#56971b" fill-opacity="0.9843" d="M29 68h1v1h-1z"/>
  <path fill="#aca6a6" fill-opacity="0.9843" d="M70 68h1v1h-1z"/>
  <path fill="#108cc5" fill-opacity="0.9961" d="M45 27h1v1h-1z"/>
  <path fill="#5db51a" fill-opacity="0.9961" d="M54 27h1v1h-1z"/>
  <path fill="#03a9f4" d="M38 28h7v15h-7zM21 44h16v8h-16zM21 52h8v8h-8z"/>
  <path fill="#07a1e6" d="M39 27h6v1h-6z"/>
  <path fill="#08a2e7" d="M38 27h1v1h-1z"/>
  <path fill="#0c93d1" d="M45 28h1v7h-1z"/>
  <path fill="#11a4cd" d="M45 35h1v1h-1z"/>
  <path fill="#13b1cf" d="M45 36h1v7h-1z"/>
  <path fill="#1db7b9" d="M38 43h7v1h-7z"/>
  <path fill="#265b77" d="M21 60h8v1h-8z"/>
  <path fill="#2abd9e" d="M45 43h1v1h-1z"/>
  <path fill="#34c386" d="M37 44h1v8h-1z"/>
  <path fill="#353c46" d="M20 53h1v7h-1z"/>
  <path fill="#3a404e" d="M20 52h1v1h-1z"/>
  <path fill="#3e2723" d="M21 11h16v7h-16zM63 11h16v7h-16zM13 19h7v8h-7zM38 19h7v8h-7zM55 19h7v8h-7zM80 19h7v8h-7zM46 28h8v7h-8zM5 28h7v24h-7zM88 28h7v24h-7zM13 53h7v7h-7zM80 53h7v7h-7zM21 61h8v7h-8zM71 61h8v7h-8zM30 69h7v8h-7zM63 69h7v8h-7zM38 78h7v7h-7zM55 78h7v7h-7zM46 86h8v7h-8z"/>
  <path fill="#454521" d="M79 19h1v8h-1z"/>
  <path fill="#462b2e" d="M13 52h7v1h-7z"/>
  <path fill="#485820" d="M63 18h16v1h-16z"/>
  <path fill="#4bb4c3" d="M37 43h1v1h-1z"/>
  <path fill="#4d3935" d="M80 52h7v1h-7zM38 77h7v1h-7zM55 77h7v1h-7z"/>
  <path fill="#51d148" d="M29 52h1v1h-1z"/>
  <path fill="#52821d" d="M62 19h1v8h-1z"/>
  <path fill="#549923" d="M46 35h1v1h-1z"/>
  <path fill="#55d53b" d="M29 53h1v7h-1z"/>
  <path fill="#56951c" d="M47 35h7v1h-7z"/>
  <path fill="#5b4845" d="M79 53h1v7h-1zM54 78h1v7h-1z"/>
  <path fill="#5bc827" d="M29 60h1v1h-1z"/>
  <path fill="#5c3135" d="M20 19h1v8h-1z"/>
  <path fill="#5c4846" d="M45 78h1v7h-1z"/>
  <path fill="#5cac1a" d="M30 68h7v1h-7z"/>
  <path fill="#5e394f" d="M30 18h7v1h-7z"/>
  <path fill="#5fbf19" d="M54 28h1v7h-1zM29 61h1v7h-1z"/>
  <path fill="#5fd925" d="M30 52h7v1h-7z"/>
  <path fill="#62394f" d="M29 18h1v1h-1z"/>
  <path fill="#63d117" d="M55 27h7v1h-7zM54 35h1v1h-1z"/>
  <path fill="#63db1e" d="M37 52h1v1h-1z"/>
  <path fill="#65d717" d="M62 27h1v1h-1z"/>
  <path fill="#66dd17" d="M63 19h16v8h-16zM63 27h7v1h-7zM55 28h15v7h-15zM55 35h7v1h-7zM46 36h16v7h-16zM46 43h8v1h-8zM38 44h16v8h-16zM38 52h7v1h-7zM30 53h15v7h-15zM30 60h7v8h-7z"/>
  <path fill="#675654" d="M79 52h1v1h-1zM54 77h1v1h-1z"/>
  <path fill="#675755" d="M45 77h1v1h-1z"/>
  <path fill="#6d3741" d="M21 18h7v1h-7z"/>
  <path fill="#6e3741" d="M28 18h1v1h-1z"/>
  <path fill="#6ebae0" d="M37 27h1v1h-1z"/>
  <path fill="#78ccf2" d="M37 28h1v15h-1z"/>
  <path fill="#7ae038" d="M70 27h1v1h-1zM45 52h1v1h-1z"/>
  <path fill="#7b4876" d="M37 19h1v8h-1z"/>
  <path fill="#7c4775" d="M12 36h1v16h-1z"/>
  <path fill="#7de03c" d="M70 28h1v7h-1zM45 53h1v7h-1z"/>
  <path fill="#81e143" d="M54 43h1v1h-1z"/>
  <path fill="#877b79" d="M71 60h8v1h-8zM46 85h8v1h-8z"/>
  <path fill="#87e14d" d="M55 43h7v1h-7z"/>
  <path fill="#8979d4" d="M21 43h8v1h-8z"/>
  <path fill="#8d486e" d="M12 35h1v1h-1z"/>
  <path fill="#8de257" d="M62 35h1v1h-1zM37 60h1v1h-1z"/>
  <path fill="#958b8a" d="M87 28h1v24h-1zM62 69h1v8h-1z"/>
  <path fill="#968c8b" d="M37 69h1v8h-1z"/>
  <path fill="#97445a" d="M12 28h1v7h-1z"/>
  <path fill="#9a72ce" d="M20 51h1v1h-1z"/>
  <path fill="#9b72cf" d="M20 44h1v7h-1z"/>
  <path fill="#a4ce87" d="M37 68h1v1h-1z"/>
  <path fill="#a7c9ec" d="M29 43h1v1h-1z"/>
  <path fill="#a9e685" d="M62 36h1v7h-1zM37 61h1v7h-1z"/>
  <path fill="#aedcf2" d="M30 43h7v1h-7z"/>
  <path fill="#b16bca" d="M20 43h1v1h-1z"/>
  <path fill="#b4e897" d="M63 35h7v1h-7zM38 60h7v1h-7z"/>
  <path fill="#b968c8" d="M30 19h7v8h-7zM13 36h16v7h-16zM13 43h7v9h-7z"/>
  <path fill="#bae8a0" d="M62 43h1v1h-1z"/>
  <path fill="#bee9a5" d="M70 35h1v1h-1zM45 60h1v1h-1z"/>
  <path fill="#c2bebf" d="M63 68h7v1h-7z"/>
  <path fill="#c367bf" d="M29 19h1v8h-1z"/>
  <path fill="#cd9ed8" d="M22 35h7v1h-7z"/>
  <path fill="#ce9ed7" d="M21 35h1v1h-1z"/>
  <path fill="#cf65b2" d="M13 35h7v1h-7z"/>
  <path fill="#cfcecf" d="M70 61h1v7h-1z"/>
  <path fill="#d06fb6" d="M20 35h1v1h-1z"/>
  <path fill="#d6edce" d="M54 44h1v8h-1z"/>
  <path fill="#d7d7d8" d="M62 68h1v1h-1z"/>
  <path fill="#dbdcdc" d="M70 60h1v1h-1z"/>
  <path fill="#dedee0" d="M80 27h7v1h-7z"/>
  <path fill="#dfe1e0" d="M79 27h1v1h-1z"/>
  <path fill="#e1eddf" d="M71 27h8v1h-8zM46 52h8v1h-8z"/>
  <path fill="#e3d9ea" d="M29 36h1v7h-1z"/>
  <path fill="#e45e89" d="M13 27h7v1h-7z"/>
  <path fill="#e7759b" d="M20 27h1v1h-1z"/>
  <path fill="#e7e2ed" d="M29 35h1v1h-1z"/>
  <path fill="#e8e6ed" d="M36 27h1v1h-1z"/>
  <path fill="#e8e6ee" d="M30 27h6v1h-6z"/>
  <path fill="#e9e6ee" d="M29 27h1v1h-1z"/>
  <path fill="#eaefee" d="M54 52h1v1h-1z"/>
  <path fill="#ece6eb" d="M21 27h8v1h-8z"/>
  <path fill="#eceff1" d="M21 28h16v7h-16zM71 28h16v8h-16zM30 35h7v8h-7zM63 36h24v8h-24zM55 44h32v8h-32zM55 52h24v1h-24zM46 53h33v7h-33zM46 60h24v1h-24zM38 61h32v7h-32zM38 68h24v9h-24zM46 77h8v8h-8z"/>
  <path fill="#f06291" d="M21 19h8v8h-8zM13 28h7v7h-7z"/>
  <path fill="#f079a2" d="M20 28h1v7h-1z"/>
</svg>