<?xml version="1.0" encoding="UTF-8"?>
<svg xmlns="http://www.w3.org/2000/svg" width="100" height="100" viewBox="0 0 100 100" shape-rendering="crispEdges" role="img">
  <title>icons8-greek-helmet-100</title>
  <desc>Pixel-perfect vector conversion from the provided PNG icon. Transparent background preserved.</desc>
  <path fill="#ff0000" fill-opacity="0.0039" d="M14 36h1v1h-1z"/>
  <path fill="#ffffff" fill-opacity="0.0039" d="M74 41h1v1h-1z M77 45h1v1h-1z M31 73h1v1h-1z M66 87h1v1h-1z M28 88h1v1h-1z"/>
  <path fill="#ff007f" fill-opacity="0.0078" d="M28 16h1v1h-1z"/>
  <path fill="#ffffff" fill-opacity="0.0078" d="M72 39h1v1h-1z M73 40h1v1h-1z M65 61h1v1h-1z M84 61h1v1h-1z M79 69h1v1h-1z M29 86h1v1h-1z M25 93h1v1h-1z"/>
  <path fill="#ff0055" fill-opacity="0.0118" d="M32 13h1v1h-1z"/>
  <path fill="#bfbfff" fill-opacity="0.0157" d="M68 58h1v1h-1z"/>
  <path fill="#ff003f" fill-opacity="0.0157" d="M58 10h1v1h-1z"/>
  <path fill="#ff0033" fill-opacity="0.0196" d="M49 6h1v1h-1z M23 82h1v1h-1z"/>
  <path fill="#aaaaff" fill-opacity="0.0235" d="M82 56h1v1h-1z M81 74h1v1h-1z M42 92h1v1h-1z"/>
  <path fill="#ff2448" fill-opacity="0.0275" d="M85 15h1v1h-1z M13 61h1v1h-1z"/>
  <path fill="#9fbfdf" fill-opacity="0.0314" d="M80 92h1v1h-1z"/>
  <path fill="#ff1c38" fill-opacity="0.0353" d="M45 7h1v1h-1z M42 8h1v1h-1z"/>
  <path fill="#b2b2e5" fill-opacity="0.0392" d="M83 79h1v1h-1z"/>
  <path fill="#cccce5" fill-opacity="0.0392" d="M80 51h1v1h-1z"/>
  <path fill="#ff194c" fill-opacity="0.0392" d="M79 11h1v1h-1z M12 55h1v1h-1z M19 76h1v1h-1z"/>
  <path fill="#ff1745" fill-opacity="0.0431" d="M75 9h1v1h-1z M27 17h1v1h-1z"/>
  <path fill="#bfbfd4" fill-opacity="0.0471" d="M69 88h1v1h-1z"/>
  <path fill="#ff153f" fill-opacity="0.0471" d="M12 45h1v1h-1z"/>
  <path fill="#c4c4eb" fill-opacity="0.051" d="M31 79h1v1h-1z"/>
  <path fill="#a3c8da" fill-opacity="0.0549" d="M45 91h1v1h-1z"/>
  <path fill="#c8c8ec" fill-opacity="0.0549" d="M78 47h1v1h-1z"/>
  <path fill="#aabbdd" fill-opacity="0.0588" d="M85 84h1v1h-1z"/>
  <path fill="#ff1144" fill-opacity="0.0588" d="M16 70h1v1h-1z M24 83h1v1h-1z"/>
  <path fill="#afafdf" fill-opacity="0.0627" d="M87 69h1v1h-1z"/>
  <path fill="#ff0f3f" fill-opacity="0.0627" d="M24 20h1v1h-1z"/>
  <path fill="#b8b8e2" fill-opacity="0.0706" d="M77 67h2v1h-2z"/>
  <path fill="#aebbe4" fill-opacity="0.0745" d="M78 58h1v1h-1z"/>
  <path fill="#ff1a43" fill-opacity="0.0745" d="M77 10h1v1h-1z M57 12h1v1h-1z M26 18h1v1h-1z M25 19h1v1h-1z"/>
  <path fill="#ff1848" fill-opacity="0.0824" d="M65 6h1v1h-1z M25 84h1v1h-1z"/>
  <path fill="#adc5e7" fill-opacity="0.0863" d="M87 89h1v1h-1z"/>
  <path fill="#b9c5e7" fill-opacity="0.0863" d="M27 90h1v1h-1z"/>
  <path fill="#ff1745" fill-opacity="0.0863" d="M17 72h1v1h-1z"/>
  <path fill="#c7c7e8" fill-opacity="0.0902" d="M76 44h1v1h-1z M31 72h1v1h-1z"/>
  <path fill="#c9c9e9" fill-opacity="0.0941" d="M79 49h1v1h-1z"/>
  <path fill="#ff153f" fill-opacity="0.0941" d="M18 28h1v1h-1z"/>
  <path fill="#adb7e0" fill-opacity="0.098" d="M80 63h1v1h-1z M83 93h1v1h-1z"/>
  <path fill="#ff1344" fill-opacity="0.102" d="M13 40h1v1h-1z"/>
  <path fill="#ff1242" fill-opacity="0.1059" d="M86 16h1v1h-1z"/>
  <path fill="#ff1b3f" fill-opacity="0.1098" d="M82 13h1v1h-1z M21 79h1v1h-1z"/>
  <path fill="#afb8e4" fill-opacity="0.1137" d="M85 64h1v1h-1z"/>
  <path fill="#ff1a46" fill-opacity="0.1137" d="M54 6h1v1h-1z"/>
  <path fill="#ff1944" fill-opacity="0.1176" d="M15 34h1v1h-1z M18 74h1v1h-1z M26 85h1v1h-1z"/>
  <path fill="#acbde6" fill-opacity="0.1216" d="M82 68h1v1h-1z M72 89h1v1h-1z"/>
  <path fill="#ff1841" fill-opacity="0.1216" d="M34 12h1v1h-1z M12 54h1v1h-1z"/>
  <path fill="#ff1747" fill-opacity="0.1255" d="M31 14h1v1h-1z"/>
  <path fill="#ff1643" fill-opacity="0.1333" d="M60 7h1v1h-1z M69 7h1v1h-1z"/>
  <path fill="#ff1443" fill-opacity="0.149" d="M50 6h1v1h-1z"/>
  <path fill="#b0b7e4" fill-opacity="0.1529" d="M61 85h1v1h-1z"/>
  <path fill="#ff1a41" fill-opacity="0.1529" d="M15 67h1v1h-1z"/>
  <path fill="#c5cceb" fill-opacity="0.1569" d="M69 37h1v1h-1z"/>
  <path fill="#ff1946" fill-opacity="0.1569" d="M14 64h1v1h-1z"/>
  <path fill="#ff1844" fill-opacity="0.1608" d="M12 46h1v1h-1z"/>
  <path fill="#b6b6e0" fill-opacity="0.1647" d="M66 65h1v1h-1z"/>
  <path fill="#c3c9e7" fill-opacity="0.1686" d="M30 84h1v1h-1z"/>
  <path fill="#ff1741" fill-opacity="0.1686" d="M54 7h1v10h-1z"/>
  <path fill="#adb3e2" fill-opacity="0.1725" d="M83 59h1v1h-1z"/>
  <path fill="#ff1745" fill-opacity="0.1725" d="M72 8h1v1h-1z"/>
  <path fill="#afb5e2" fill-opacity="0.1765" d="M80 72h1v1h-1z"/>
  <path fill="#ff1642" fill-opacity="0.1804" d="M56 14h1v1h-1z"/>
  <path fill="#ff1546" fill-opacity="0.1843" d="M17 30h1v1h-1z"/>
  <path fill="#c4c9e9" fill-opacity="0.1882" d="M31 80h1v1h-1z"/>
  <path fill="#ff1443" fill-opacity="0.1922" d="M40 9h1v1h-1z"/>
  <path fill="#ff1946" fill-opacity="0.2" d="M54 17h1v1h-1z"/>
  <path fill="#ff1844" fill-opacity="0.2039" d="M12 53h1v1h-1z"/>
  <path fill="#b2b6e2" fill-opacity="0.2078" d="M69 67h1v1h-1z"/>
  <path fill="#ff1843" fill-opacity="0.2078" d="M87 17h1v1h-1z M16 32h1v1h-1z"/>
  <path fill="#ff1742" fill-opacity="0.2118" d="M13 60h1v1h-1z"/>
  <path fill="#b1bae3" fill-opacity="0.2196" d="M88 72h1v1h-1z M47 90h1v1h-1z"/>
  <path fill="#ff1644" fill-opacity="0.2196" d="M20 27h1v1h-1z M21 28h1v1h-1z M22 29h1v1h-1z M23 30h1v1h-1z"/>
  <path fill="#ff1643" fill-opacity="0.2235" d="M14 37h1v1h-1z"/>
  <path fill="#afb8e0" fill-opacity="0.2275" d="M82 77h1v1h-1z M75 90h1v1h-1z M37 93h1v1h-1z"/>
  <path fill="#ff1545" fill-opacity="0.2314" d="M87 18h1v1h-1z M86 19h1v1h-1z"/>
  <path fill="#b2b6dd" fill-opacity="0.2353" d="M81 54h1v1h-1z"/>
  <path fill="#ff1544" fill-opacity="0.2353" d="M38 10h1v1h-1z M36 11h1v1h-1z"/>
  <path fill="#ff1442" fill-opacity="0.2392" d="M84 21h1v1h-1z"/>
  <path fill="#ff1845" fill-opacity="0.2431" d="M12 47h1v1h-1z"/>
  <path fill="#ff1844" fill-opacity="0.2471" d="M64 6h1v1h-1z"/>
  <path fill="#ff1743" fill-opacity="0.251" d="M85 20h1v1h-1z"/>
  <path fill="#ff1742" fill-opacity="0.2549" d="M83 22h1v1h-1z M82 23h1v1h-1z"/>
  <path fill="#ff1745" fill-opacity="0.2588" d="M81 24h1v1h-1z M80 25h1v1h-1z M79 26h1v1h-1z M78 27h1v1h-1z"/>
  <path fill="#afbae0" fill-opacity="0.2627" d="M65 64h1v1h-1z"/>
  <path fill="#ff1644" fill-opacity="0.2627" d="M46 7h1v1h-1z M77 28h1v1h-1z"/>
  <path fill="#ff1643" fill-opacity="0.2667" d="M59 9h1v1h-1z M76 29h1v1h-1z"/>
  <path fill="#c3cbe8" fill-opacity="0.2706" d="M31 71h1v1h-1z"/>
  <path fill="#b2b9e1" fill-opacity="0.2745" d="M84 82h1v1h-1z"/>
  <path fill="#ff1545" fill-opacity="0.2745" d="M12 48h1v1h-1z"/>
  <path fill="#aeb9df" fill-opacity="0.2863" d="M64 86h1v1h-1z"/>
  <path fill="#ff1842" fill-opacity="0.2863" d="M12 52h1v1h-1z M22 80h1v1h-1z"/>
  <path fill="#ff1744" fill-opacity="0.2941" d="M75 30h1v1h-1z"/>
  <path fill="#ff1745" fill-opacity="0.302" d="M12 49h1v1h-1z"/>
  <path fill="#c4cae8" fill-opacity="0.3059" d="M75 43h1v1h-1z"/>
  <path fill="#ff1644" fill-opacity="0.3059" d="M51 6h1v1h-1z"/>
  <path fill="#aeb4de" fill-opacity="0.3098" d="M78 91h1v1h-1z"/>
  <path fill="#b0b9df" fill-opacity="0.3176" d="M86 87h1v1h-1z"/>
  <path fill="#b1badf" fill-opacity="0.3216" d="M67 66h1v1h-1z"/>
  <path fill="#ff1543" fill-opacity="0.3255" d="M55 16h1v1h-1z"/>
  <path fill="#c5cbe9" fill-opacity="0.3294" d="M28 89h1v1h-1z"/>
  <path fill="#ff1842" fill-opacity="0.3294" d="M12 50h1v1h-1z M20 77h1v1h-1z"/>
  <path fill="#aeb7e1" fill-opacity="0.3333" d="M79 60h1v1h-1z M86 67h1v1h-1z"/>
  <path fill="#ff1845" fill-opacity="0.3333" d="M43 8h1v1h-1z"/>
  <path fill="#c4cae7" fill-opacity="0.3412" d="M29 87h1v1h-1z"/>
  <path fill="#ff1644" fill-opacity="0.349" d="M13 41h1v1h-1z M12 51h1v1h-1z"/>
  <path fill="#afb8e2" fill-opacity="0.3529" d="M74 56h1v1h-1z M64 62h1v1h-1z"/>
  <path fill="#ff1644" fill-opacity="0.3529" d="M30 15h1v1h-1z"/>
  <path fill="#ff1643" fill-opacity="0.3569" d="M80 12h1v1h-1z"/>
  <path fill="#c5cae9" fill-opacity="0.3647" d="M31 81h1v1h-1z"/>
  <path fill="#ff1544" fill-opacity="0.3647" d="M83 14h1v1h-1z"/>
  <path fill="#b0b5e1" fill-opacity="0.3686" d="M88 92h1v1h-1z"/>
  <path fill="#c3c9e9" fill-opacity="0.3725" d="M70 38h1v1h-1z M80 52h1v1h-1z"/>
  <path fill="#b0b8df" fill-opacity="0.3804" d="M81 65h1v1h-1z"/>
  <path fill="#ff1743" fill-opacity="0.3843" d="M63 6h1v1h-1z M19 27h1v1h-1z"/>
  <path fill="#acb6e0" fill-opacity="0.3882" d="M67 87h1v1h-1z"/>
  <path fill="#afb6e0" fill-opacity="0.3882" d="M26 92h1v1h-1z"/>
  <path fill="#c3c8e7" fill-opacity="0.3882" d="M77 46h1v1h-1z"/>
  <path fill="#ff1742" fill-opacity="0.3882" d="M61 6h1v1h-1z"/>
  <path fill="#b0b8e0" fill-opacity="0.3961" d="M73 56h1v1h-1z"/>
  <path fill="#ff1644" fill-opacity="0.3961" d="M13 59h1v1h-1z"/>
  <path fill="#afb7e1" fill-opacity="0.4039" d="M49 89h1v1h-1z"/>
  <path fill="#ff1644" fill-opacity="0.4078" d="M74 9h1v1h-1z M16 69h1v1h-1z"/>
  <path fill="#adb9df" fill-opacity="0.4157" d="M84 62h1v1h-1z M55 86h1v1h-1z"/>
  <path fill="#adb7e0" fill-opacity="0.4196" d="M83 70h1v1h-1z"/>
  <path fill="#ff1744" fill-opacity="0.4235" d="M68 7h1v1h-1z M58 11h1v1h-1z"/>
  <path fill="#afb6de" fill-opacity="0.4275" d="M57 85h1v1h-1z"/>
  <path fill="#afb6e0" fill-opacity="0.4275" d="M69 57h1v1h-1z"/>
  <path fill="#e90b20" fill-opacity="0.4275" d="M74 31h1v1h-1z"/>
  <path fill="#b0b9e0" fill-opacity="0.4314" d="M53 87h1v1h-1z"/>
  <path fill="#ff1743" fill-opacity="0.4314" d="M14 63h1v1h-1z"/>
  <path fill="#b0b7e1" fill-opacity="0.4353" d="M51 88h1v1h-1z"/>
  <path fill="#b0b6e1" fill-opacity="0.4431" d="M79 70h1v1h-1z M41 92h1v1h-1z"/>
  <path fill="#ff1743" fill-opacity="0.4588" d="M52 6h1v1h-1z"/>
  <path fill="#ff1744" fill-opacity="0.4706" d="M33 13h1v1h-1z"/>
  <path fill="#e60a1e" fill-opacity="0.4863" d="M73 32h1v1h-1z"/>
  <path fill="#afb5e0" fill-opacity="0.4902" d="M75 56h1v1h-1z M82 57h1v1h-1z"/>
  <path fill="#c5c9e8" fill-opacity="0.4902" d="M74 42h1v1h-1z"/>
  <path fill="#ff1643" fill-opacity="0.4902" d="M78 11h1v1h-1z"/>
  <path fill="#b0b6e0" fill-opacity="0.4941" d="M81 92h1v1h-1z"/>
  <path fill="#acb6de" fill-opacity="0.498" d="M81 75h1v1h-1z"/>
  <path fill="#ff1743" fill-opacity="0.502" d="M76 10h1v1h-1z M15 35h1v1h-1z"/>
  <path fill="#e5091b" fill-opacity="0.5059" d="M72 33h1v1h-1z"/>
  <path fill="#adb6df" fill-opacity="0.5137" d="M44 91h1v1h-1z M36 93h1v1h-1z"/>
  <path fill="#c4cae9" fill-opacity="0.5137" d="M78 48h1v1h-1z M79 50h1v1h-1z"/>
  <path fill="#ff1744" fill-opacity="0.5137" d="M47 7h1v1h-1z"/>
  <path fill="#afb5e0" fill-opacity="0.5176" d="M72 56h1v1h-1z"/>
  <path fill="#acb6de" fill-opacity="0.5216" d="M70 88h1v1h-1z"/>
  <path fill="#ff1743" fill-opacity="0.5216" d="M62 6h1v1h-1z M19 75h1v1h-1z"/>
  <path fill="#ff1644" fill-opacity="0.5255" d="M15 66h1v1h-1z"/>
  <path fill="#c4cae8" fill-opacity="0.5333" d="M30 85h1v1h-1z"/>
  <path fill="#ff1643" fill-opacity="0.5333" d="M29 16h1v1h-1z M17 71h1v1h-1z"/>
  <path fill="#ff1644" fill-opacity="0.5373" d="M71 8h1v1h-1z"/>
  <path fill="#adb6e1" fill-opacity="0.5412" d="M83 80h1v1h-1z"/>
  <path fill="#ff1743" fill-opacity="0.5451" d="M14 38h1v1h-1z M23 81h1v1h-1z"/>
  <path fill="#ff1744" fill-opacity="0.5569" d="M13 42h1v1h-1z"/>
  <path fill="#c4cae8" fill-opacity="0.5686" d="M71 39h1v1h-1z"/>
  <path fill="#ff1644" fill-opacity="0.5725" d="M13 58h1v1h-1z"/>
  <path fill="#ff1643" fill-opacity="0.5765" d="M18 73h1v1h-1z"/>
  <path fill="#aeb4df" fill-opacity="0.5804" d="M87 70h1v1h-1z"/>
  <path fill="#ff1644" fill-opacity="0.5843" d="M57 13h1v1h-1z"/>
  <path fill="#adb5e0" fill-opacity="0.5882" d="M85 85h1v1h-1z"/>
  <path fill="#adb6de" fill-opacity="0.5922" d="M66 59h1v1h-1z"/>
  <path fill="#ff1743" fill-opacity="0.5922" d="M84 15h1v1h-1z M24 21h1v1h-1z"/>
  <path fill="#afb5df" fill-opacity="0.6" d="M78 57h1v1h-1z"/>
  <path fill="#cb4262" fill-opacity="0.6" d="M71 34h1v1h-1z"/>
  <path fill="#c5cae9" fill-opacity="0.6039" d="M73 41h1v1h-1z"/>
  <path fill="#ff1743" fill-opacity="0.6039" d="M53 6h1v1h-1z"/>
  <path fill="#acb6df" fill-opacity="0.6078" d="M84 93h1v1h-1z"/>
  <path fill="#c5cae9" fill-opacity="0.6118" d="M31 82h1v1h-1z"/>
  <path fill="#c4c9e8" fill-opacity="0.6196" d="M72 40h1v1h-1z"/>
  <path fill="#ff1643" fill-opacity="0.6196" d="M24 22h1v9h-1z"/>
  <path fill="#ff1643" fill-opacity="0.6235" d="M41 9h1v1h-1z"/>
  <path fill="#acb6df" fill-opacity="0.6314" d="M87 90h1v1h-1z"/>
  <path fill="#adb5df" fill-opacity="0.6353" d="M80 62h1v1h-1z M73 89h1v1h-1z"/>
  <path fill="#adb5df" fill-opacity="0.6392" d="M35 93h1v1h-1z"/>
  <path fill="#aeb5df" fill-opacity="0.6431" d="M85 65h1v1h-1z"/>
  <path fill="#ff1744" fill-opacity="0.6471" d="M18 29h1v1h-1z"/>
  <path fill="#acb3e0" fill-opacity="0.651" d="M88 93h1v1h-1z"/>
  <path fill="#acb5de" fill-opacity="0.651" d="M59 84h1v1h-1z"/>
  <path fill="#c74f70" fill-opacity="0.651" d="M70 35h1v1h-1z"/>
  <path fill="#ff1743" fill-opacity="0.651" d="M67 7h1v1h-1z"/>
  <path fill="#c45274" fill-opacity="0.6549" d="M69 36h1v1h-1z"/>
  <path fill="#ff1644" fill-opacity="0.6549" d="M54 18h1v1h-1z"/>
  <path fill="#adb4e0" fill-opacity="0.6588" d="M76 56h1v1h-1z"/>
  <path fill="#ff1644" fill-opacity="0.6588" d="M35 12h1v1h-1z"/>
  <path fill="#acb3df" fill-opacity="0.6627" d="M62 85h1v1h-1z"/>
  <path fill="#adb3df" fill-opacity="0.6627" d="M82 67h1v1h-1z"/>
  <path fill="#acb4df" fill-opacity="0.6706" d="M84 72h1v1h-1z"/>
  <path fill="#ff1744" fill-opacity="0.6745" d="M16 33h1v1h-1z"/>
  <path fill="#ff1743" fill-opacity="0.6824" d="M28 17h1v1h-1z"/>
  <path fill="#ff1744" fill-opacity="0.6863" d="M60 8h1v1h-1z"/>
  <path fill="#aab3df" fill-opacity="0.6902" d="M73 68h1v1h-1z M78 68h1v1h-1z"/>
  <path fill="#ff1744" fill-opacity="0.6902" d="M44 8h1v1h-1z"/>
  <path fill="#adb4df" fill-opacity="0.698" d="M65 60h1v1h-1z M72 68h1v1h-1z"/>
  <path fill="#acb3df" fill-opacity="0.702" d="M83 60h1v1h-1z M64 63h1v1h-1z"/>
  <path fill="#ff1644" fill-opacity="0.702" d="M39 10h1v1h-1z"/>
  <path fill="#ff1643" fill-opacity="0.7098" d="M81 13h1v1h-1z M14 62h1v1h-1z"/>
  <path fill="#c4cae8" fill-opacity="0.7216" d="M76 45h1v1h-1z"/>
  <path fill="#ff1743" fill-opacity="0.7216" d="M17 31h1v1h-1z"/>
  <path fill="#aab4dd" fill-opacity="0.7255" d="M76 90h1v1h-1z"/>
  <path fill="#acb3df" fill-opacity="0.7255" d="M80 73h1v1h-1z"/>
  <path fill="#ff1744" fill-opacity="0.7294" d="M21 78h1v1h-1z"/>
  <path fill="#acb3de" fill-opacity="0.7412" d="M67 58h1v1h-1z"/>
  <path fill="#abb3de" fill-opacity="0.7451" d="M34 93h1v1h-1z"/>
  <path fill="#ff1644" fill-opacity="0.7451" d="M56 15h1v1h-1z"/>
  <path fill="#aab4de" fill-opacity="0.749" d="M40 92h1v1h-1z"/>
  <path fill="#ff1644" fill-opacity="0.749" d="M13 43h1v1h-1z"/>
  <path fill="#aab2dd" fill-opacity="0.7569" d="M81 55h1v1h-1z M74 68h1v1h-1z"/>
  <path fill="#ff1643" fill-opacity="0.7569" d="M32 14h1v1h-1z M13 57h1v1h-1z"/>
  <path fill="#aab2de" fill-opacity="0.7608" d="M82 78h1v1h-1z"/>
  <path fill="#abb3de" fill-opacity="0.7647" d="M65 86h1v1h-1z"/>
  <path fill="#ff1744" fill-opacity="0.7647" d="M24 82h1v1h-1z"/>
  <path fill="#ff1743" fill-opacity="0.7686" d="M48 7h1v1h-1z"/>
  <path fill="#abb1de" fill-opacity="0.7765" d="M71 56h1v1h-1z"/>
  <path fill="#abb3de" fill-opacity="0.7804" d="M79 91h1v1h-1z"/>
  <path fill="#ff1743" fill-opacity="0.7804" d="M16 68h1v1h-1z"/>
  <path fill="#abb2df" fill-opacity="0.7882" d="M84 83h1v1h-1z M46 90h1v1h-1z"/>
  <path fill="#ff1644" fill-opacity="0.7882" d="M37 11h1v1h-1z M85 16h1v1h-1z"/>
  <path fill="#ff1644" fill-opacity="0.7922" d="M73 9h1v1h-1z"/>
  <path fill="#aab2df" fill-opacity="0.7961" d="M68 67h1v1h-1z"/>
  <path fill="#ff1643" fill-opacity="0.7961" d="M25 20h1v1h-1z"/>
  <path fill="#abb2df" fill-opacity="0.8" d="M27 91h1v1h-1z"/>
  <path fill="#ff1643" fill-opacity="0.8" d="M27 18h1v1h-1z M24 31h1v1h-1z"/>
  <path fill="#abb3de" fill-opacity="0.8039" d="M71 68h1v1h-1z"/>
  <path fill="#ff1644" fill-opacity="0.8039" d="M25 83h1v1h-1z"/>
  <path fill="#b8bee3" fill-opacity="0.8078" d="M80 53h1v1h-1z"/>
  <path fill="#ff1743" fill-opacity="0.8118" d="M26 19h1v1h-1z"/>
  <path fill="#aab2df" fill-opacity="0.8196" d="M86 68h1v1h-1z"/>
  <path fill="#c4cae9" fill-opacity="0.8196" d="M29 88h1v1h-1z"/>
  <path fill="#aab1de" fill-opacity="0.8235" d="M68 87h1v1h-1z"/>
  <path fill="#aab2de" fill-opacity="0.8235" d="M86 88h1v1h-1z"/>
  <path fill="#aab2df" fill-opacity="0.8235" d="M75 68h1v1h-1z M33 93h1v1h-1z"/>
  <path fill="#ff1744" fill-opacity="0.8235" d="M59 10h1v1h-1z"/>
  <path fill="#a9b1dd" fill-opacity="0.8275" d="M79 59h1v1h-1z"/>
  <path fill="#c4c9e9" fill-opacity="0.8275" d="M32 75h1v1h-1z"/>
  <path fill="#aab2de" fill-opacity="0.8314" d="M26 93h1v1h-1z"/>
  <path fill="#ff1643" fill-opacity="0.8392" d="M70 8h1v1h-1z M26 84h1v1h-1z"/>
  <path fill="#a9b0de" fill-opacity="0.8431" d="M81 64h1v1h-1z"/>
  <path fill="#ff1644" fill-opacity="0.8471" d="M14 39h1v1h-1z"/>
  <path fill="#c5cae8" fill-opacity="0.851" d="M32 76h1v1h-1z"/>
  <path fill="#a9b0dd" fill-opacity="0.8627" d="M84 63h1v1h-1z"/>
  <path fill="#a9b1de" fill-opacity="0.8627" d="M83 69h1v1h-1z"/>
  <path fill="#c5c9e8" fill-opacity="0.8627" d="M31 83h1v1h-1z"/>
  <path fill="#9fa8da" fill-opacity="0.8667" d="M29 70h2v1h-2z"/>
  <path fill="#a9b1dd" fill-opacity="0.8667" d="M43 91h1v1h-1z"/>
  <path fill="#ff1744" fill-opacity="0.8667" d="M66 7h1v1h-1z"/>
  <path fill="#c5cae9" fill-opacity="0.8706" d="M32 77h1v1h-1z"/>
  <path fill="#a9b1dd" fill-opacity="0.8745" d="M82 92h1v1h-1z"/>
  <path fill="#ff1643" fill-opacity="0.8745" d="M55 17h1v1h-1z M15 65h1v1h-1z M20 76h1v1h-1z"/>
  <path fill="#ff1644" fill-opacity="0.8784" d="M15 36h1v1h-1z"/>
  <path fill="#a7afdd" fill-opacity="0.8824" d="M71 88h1v1h-1z"/>
  <path fill="#a8b0dd" fill-opacity="0.8863" d="M79 71h1v1h-1z"/>
  <path fill="#c5c9e8" fill-opacity="0.8863" d="M32 74h1v1h-1z M30 86h1v1h-1z"/>
  <path fill="#a8b0dd" fill-opacity="0.8902" d="M48 89h1v1h-1z"/>
  <path fill="#ff1644" fill-opacity="0.8902" d="M79 12h1v1h-1z"/>
  <path fill="#a7afdd" fill-opacity="0.8941" d="M77 56h1v1h-1z"/>
  <path fill="#a8b0dd" fill-opacity="0.8941" d="M82 58h1v1h-1z"/>
  <path fill="#a8b1de" fill-opacity="0.898" d="M32 93h1v1h-1z"/>
  <path fill="#ff1743" fill-opacity="0.902" d="M86 17h1v1h-1z"/>
  <path fill="#a7afdc" fill-opacity="0.9059" d="M85 93h1v1h-1z"/>
  <path fill="#a7b0dd" fill-opacity="0.9059" d="M81 76h1v1h-1z"/>
  <path fill="#a7b0dd" fill-opacity="0.9137" d="M39 92h1v1h-1z"/>
  <path fill="#c4cae9" fill-opacity="0.9137" d="M77 47h1v1h-1z"/>
  <path fill="#a6afde" fill-opacity="0.9176" d="M60 84h1v1h-1z"/>
  <path fill="#c5c9e9" fill-opacity="0.9176" d="M75 44h1v1h-1z"/>
  <path fill="#c5c9e9" fill-opacity="0.9216" d="M79 51h1v1h-1z"/>
  <path fill="#ff1644" fill-opacity="0.9216" d="M75 10h1v1h-1z M13 44h1v1h-1z M22 79h1v1h-1z"/>
  <path fill="#a7b0dd" fill-opacity="0.9255" d="M83 81h1v1h-1z M58 84h1v1h-1z"/>
  <path fill="#c4b7d8" fill-opacity="0.9255" d="M68 37h1v1h-1z"/>
  <path fill="#c4cae9" fill-opacity="0.9255" d="M32 78h1v1h-1z"/>
  <path fill="#a6aedd" fill-opacity="0.9294" d="M27 93h5v1h-5z M86 93h2v1h-2z"/>
  <path fill="#a6afdd" fill-opacity="0.9294" d="M54 86h1v1h-1z"/>
  <path fill="#ff1643" fill-opacity="0.9294" d="M58 12h1v1h-1z"/>
  <path fill="#a6aedc" fill-opacity="0.9333" d="M87 71h1v1h-1z"/>
  <path fill="#a7afdd" fill-opacity="0.9333" d="M76 68h1v1h-1z"/>
  <path fill="#b2bae2" fill-opacity="0.9333" d="M31 70h1v1h-1z"/>
  <path fill="#ff1643" fill-opacity="0.9333" d="M13 56h1v1h-1z"/>
  <path fill="#a7aedc" fill-opacity="0.9373" d="M68 57h1v1h-1z"/>
  <path fill="#a7aedd" fill-opacity="0.9373" d="M56 85h1v1h-1z"/>
  <path fill="#ff1744" fill-opacity="0.9373" d="M19 28h1v1h-1z"/>
  <path fill="#a5aedd" fill-opacity="0.9412" d="M74 89h1v1h-1z"/>
  <path fill="#a5afdd" fill-opacity="0.9412" d="M50 88h1v1h-1z"/>
  <path fill="#a6afdd" fill-opacity="0.9412" d="M64 61h1v1h-1z M52 87h1v1h-1z"/>
  <path fill="#ff1744" fill-opacity="0.9412" d="M82 14h1v1h-1z M31 15h1v1h-1z"/>
  <path fill="#a6aedd" fill-opacity="0.9451" d="M70 68h1v1h-1z M85 86h1v1h-1z"/>
  <path fill="#ff1743" fill-opacity="0.9451" d="M42 9h1v1h-1z M20 28h1v1h-1z M21 29h1v1h-1z M22 30h1v1h-1z M23 31h1v1h-1z M17 70h1v1h-1z"/>
  <path fill="#ff1744" fill-opacity="0.949" d="M86 18h1v1h-1z M85 19h1v1h-1z"/>
  <path fill="#a4addc" fill-opacity="0.9529" d="M63 85h1v1h-1z"/>
  <path fill="#ff1744" fill-opacity="0.9529" d="M77 11h1v1h-1z M83 21h1v1h-1z"/>
  <path fill="#a498c5" fill-opacity="0.9569" d="M28 70h1v1h-1z"/>
  <path fill="#a5addc" fill-opacity="0.9569" d="M80 61h1v1h-1z"/>
  <path fill="#a6aedd" fill-opacity="0.9569" d="M85 66h1v1h-1z"/>
  <path fill="#c4c9e9" fill-opacity="0.9569" d="M69 38h1v1h-1z"/>
  <path fill="#ff1643" fill-opacity="0.9569" d="M84 20h1v1h-1z M14 61h1v1h-1z"/>
  <path fill="#c4c9e9" fill-opacity="0.9608" d="M78 49h1v1h-1z"/>
  <path fill="#ff1643" fill-opacity="0.9608" d="M82 22h1v1h-1z M81 23h1v1h-1z M80 24h1v1h-1z M79 25h1v1h-1z M78 26h1v1h-1z M77 27h1v1h-1z"/>
  <path fill="#a4addb" fill-opacity="0.9647" d="M70 56h1v1h-1z"/>
  <path fill="#a4addc" fill-opacity="0.9647" d="M87 91h1v1h-1z"/>
  <path fill="#a5addc" fill-opacity="0.9647" d="M82 66h1v1h-1z"/>
  <path fill="#ff1644" fill-opacity="0.9647" d="M34 13h1v1h-1z M76 28h1v1h-1z M75 29h1v1h-1z M18 72h1v1h-1z"/>
  <path fill="#ff1644" fill-opacity="0.9686" d="M61 7h1v1h-1z"/>
  <path fill="#a4acdc" fill-opacity="0.9725" d="M84 71h1v1h-1z M77 90h1v1h-1z"/>
  <path fill="#a4acdd" fill-opacity="0.9725" d="M65 65h1v1h-1z"/>
  <path fill="#a596c2" fill-opacity="0.9725" d="M27 70h1v1h-1z"/>
  <path fill="#fd1642" fill-opacity="0.9725" d="M74 30h1v1h-1z"/>
  <path fill="#ff1643" fill-opacity="0.9725" d="M45 8h1v1h-1z M19 74h1v1h-1z"/>
  <path fill="#a4acdc" fill-opacity="0.9765" d="M83 61h1v1h-1z M78 69h1v1h-1z"/>
  <path fill="#a3acdb" fill-opacity="0.9804" d="M66 66h1v1h-1z"/>
  <path fill="#a5acdc" fill-opacity="0.9804" d="M28 90h1v1h-1z"/>
  <path fill="#c4c9e8" fill-opacity="0.9804" d="M32 73h1v1h-1z"/>
  <path fill="#ff1744" fill-opacity="0.9804" d="M49 7h1v1h-1z"/>
  <path fill="#a2abdb" fill-opacity="0.9843" d="M80 74h1v1h-1z M66 86h1v1h-1z"/>
  <path fill="#a2abda" fill-opacity="0.9882" d="M81 56h1v1h-1z"/>
  <path fill="#ff1743" fill-opacity="0.9882" d="M57 14h1v1h-1z M16 34h1v1h-1z"/>
  <path fill="#a1abdb" fill-opacity="0.9922" d="M82 79h1v1h-1z"/>
  <path fill="#a2aada" fill-opacity="0.9922" d="M80 91h1v1h-1z"/>
  <path fill="#a2abda" fill-opacity="0.9922" d="M38 92h1v1h-1z"/>
  <path fill="#a2abdb" fill-opacity="0.9922" d="M84 84h1v1h-1z"/>
  <path fill="#ff1743" fill-opacity="0.9922" d="M18 30h1v1h-1z"/>
  <path fill="#a0aad9" fill-opacity="0.9961" d="M86 69h1v1h-1z M85 72h2v1h-2z M45 90h1v1h-1z"/>
  <path fill="#a1a9da" fill-opacity="0.9961" d="M78 56h1v1h-1z M79 58h1v1h-1z M81 63h1v1h-1z M64 64h1v1h-1z M87 72h1v1h-1z M69 87h1v1h-1z M86 89h1v1h-1z M42 91h1v1h-1z"/>
  <path fill="#c4c9e8" fill-opacity="0.9961" d="M74 43h1v1h-1z"/>
  <path fill="#ff1744" fill-opacity="0.9961" d="M40 10h1v1h-1z M36 12h1v1h-1z M54 19h1v1h-1z M26 71h1v13h-1z M23 80h1v1h-1z"/>
  <path fill="#9fa7d9" d="M40 33h1v1h-1z"/>
  <path fill="#9fa8da" d="M48 30h14v3h-14z M45 31h3v3h-3z M62 31h3v3h-3z M42 32h3v3h-3z M65 32h2v3h-2z M41 33h1v3h-1z M61 33h1v1h-1z M67 33h2v3h-2z M39 34h2v3h-2z M69 34h1v1h-1z M37 35h2v3h-2z M42 35h1v1h-1z M36 36h1v4h-1z M35 37h1v4h-1z M39 37h1v1h-1z M34 38h1v4h-1z M37 38h1v1h-1z M33 39h1v4h-1z M32 40h1v5h-1z M31 41h1v6h-1z M30 43h1v6h-1z M29 44h1v8h-1z M28 46h1v24h-1z M27 48h1v22h-1z M26 51h1v15h-1z M74 52h1v4h-1z M69 53h5v3h-5z M75 53h4v3h-4z M67 54h2v3h-2z M79 54h1v4h-1z M66 55h1v3h-1z M80 55h1v6h-1z M64 56h2v4h-2z M69 56h1v1h-1z M63 57h1v11h-1z M67 57h1v1h-1z M81 57h1v6h-1z M62 58h1v9h-1z M61 60h1v6h-1z M64 60h1v1h-1z M82 60h1v6h-1z M60 62h1v2h-1z M83 62h1v6h-1z M64 65h1v4h-1z M84 65h1v6h-1z M29 66h1v4h-1z M65 66h1v4h-1z M66 67h1v3h-1z M85 67h1v5h-1z M67 68h3v3h-3z M30 69h1v1h-1z M70 69h8v3h-8z M78 70h1v8h-1z M86 70h1v2h-1z M69 71h1v1h-1z M76 72h2v1h-2z M77 73h1v3h-1z M79 73h1v8h-1z M80 75h1v8h-1z M81 77h1v9h-1z M59 80h1v4h-1z M82 80h1v12h-1z M57 81h2v3h-2z M60 81h2v3h-2z M55 82h2v3h-2z M62 82h3v3h-3z M83 82h1v10h-1z M53 83h2v3h-2z M65 83h3v3h-3z M51 84h2v3h-2z M57 84h1v1h-1z M68 84h2v3h-2z M49 85h2v3h-2z M55 85h1v1h-1z M64 85h1v1h-1z M70 85h3v3h-3z M84 85h1v8h-1z M47 86h2v3h-2z M53 86h1v1h-1z M67 86h1v1h-1z M73 86h3v3h-3z M45 87h2v3h-2z M51 87h1v1h-1z M76 87h3v3h-3z M85 87h1v6h-1z M42 88h3v3h-3z M49 88h1v1h-1z M79 88h3v3h-3z M38 89h4v3h-4z M75 89h1v1h-1z M30 90h8v3h-8z M78 90h1v1h-1z M86 90h1v3h-1z M28 91h2v2h-2z M81 91h1v1h-1z M87 92h1v1h-1z"/>
  <path fill="#a0a4d5" d="M30 42h1v1h-1z"/>
  <path fill="#a0a7d8" d="M25 57h1v1h-1z"/>
  <path fill="#a0a8da" d="M72 88h1v1h-1z"/>
  <path fill="#a0a8db" d="M66 58h1v1h-1z M82 59h1v1h-1z M29 65h1v1h-1z M61 84h1v1h-1z M47 89h1v1h-1z M27 92h1v1h-1z"/>
  <path fill="#a0a9da" d="M48 33h1v1h-1z M45 34h1v1h-1z M64 34h1v1h-1z M33 43h1v1h-1z M80 54h1v1h-1z M65 55h1v1h-1z M67 67h1v1h-1z M77 68h1v1h-1z M83 68h1v1h-1z M66 70h1v1h-1z M79 72h1v1h-1z M62 81h1v1h-1z M70 84h1v1h-1z M73 85h1v1h-1z M83 92h1v1h-1z"/>
  <path fill="#a0a9db" d="M84 64h1v1h-1z"/>
  <path fill="#a0aadb" d="M76 73h1v1h-1z"/>
  <path fill="#a1a1d1" d="M47 30h1v1h-1z M69 33h1v1h-1z M26 66h1v1h-1z"/>
  <path fill="#a1a2d2" d="M44 31h1v1h-1z M25 56h1v1h-1z"/>
  <path fill="#a1a3d3" d="M70 34h1v1h-1z M25 58h1v1h-1z"/>
  <path fill="#a1a3d4" d="M67 32h1v1h-1z M69 35h1v1h-1z"/>
  <path fill="#a1a5d5" d="M68 36h1v1h-1z"/>
  <path fill="#a1a9da" d="M66 35h1v1h-1z M73 52h1v1h-1z M60 61h1v1h-1z"/>
  <path fill="#a1a9db" d="M38 38h1v1h-1z M29 90h1v1h-1z"/>
  <path fill="#a1aadb" d="M41 36h1v1h-1z M30 68h1v1h-1z M68 71h1v1h-1z M44 87h1v1h-1z M37 89h1v1h-1z"/>
  <path fill="#a29dcc" d="M38 34h1v1h-1z"/>
  <path fill="#a29fce" d="M25 59h1v1h-1z"/>
  <path fill="#a2aadb" d="M78 78h1v1h-1z M76 86h1v1h-1z"/>
  <path fill="#a2abdb" d="M34 42h1v1h-1z M75 52h1v1h-1z M80 83h1v1h-1z M41 88h1v1h-1z"/>
  <path fill="#a2acdc" d="M65 82h1v1h-1z"/>
  <path fill="#a3abdc" d="M29 52h1v1h-1z M72 52h1v1h-1z M58 80h1v1h-1z M56 81h1v1h-1z M46 86h1v1h-1z"/>
  <path fill="#a3acdb" d="M43 35h1v1h-1z M66 54h1v1h-1z"/>
  <path fill="#a3acdc" d="M37 39h1v1h-1z"/>
  <path fill="#a498c5" d="M54 29h1v1h-1z M62 30h1v1h-1z"/>
  <path fill="#a49bc9" d="M65 31h1v1h-1z"/>
  <path fill="#a4acdc" d="M60 33h1v1h-1z M68 53h1v1h-1z M61 59h1v1h-1z M54 82h1v1h-1z M52 83h1v1h-1z M50 84h1v1h-1z M48 85h1v1h-1z"/>
  <path fill="#a4addc" d="M35 41h1v1h-1z M32 45h1v1h-1z M79 87h1v1h-1z"/>
  <path fill="#a4addd" d="M49 33h1v1h-1z M30 49h1v1h-1z"/>
  <path fill="#a595c1" d="M26 50h1v1h-1z M25 60h1v1h-1z"/>
  <path fill="#a596c3" d="M55 29h1v1h-1z"/>
  <path fill="#a5addc" d="M63 68h1v1h-1z M68 83h1v1h-1z"/>
  <path fill="#a691bc" d="M56 29h1v1h-1z"/>
  <path fill="#a692bd" d="M53 29h1v1h-1z"/>
  <path fill="#a694bf" d="M28 45h1v1h-1z"/>
  <path fill="#a6aedc" d="M36 40h1v1h-1z"/>
  <path fill="#a6aedd" d="M79 53h1v1h-1z M62 67h1v1h-1z M77 76h1v1h-1z"/>
  <path fill="#a78eb8" d="M34 37h1v1h-1z M33 38h1v1h-1z"/>
  <path fill="#a790ba" d="M25 55h1v1h-1z"/>
  <path fill="#a7afdd" d="M76 52h1v1h-1z M64 69h1v1h-1z"/>
  <path fill="#a7b0dd" d="M29 64h1v1h-1z"/>
  <path fill="#a8b0dd" d="M36 89h1v1h-1z"/>
  <path fill="#a8b0de" d="M63 34h1v1h-1z M31 47h1v1h-1z M71 52h1v1h-1z M79 81h1v1h-1z"/>
  <path fill="#a8b1dd" d="M71 84h1v1h-1z"/>
  <path fill="#a989b2" d="M52 29h1v1h-1z"/>
  <path fill="#a98ab4" d="M27 47h1v1h-1z"/>
  <path fill="#a9b1de" d="M75 72h1v1h-1z"/>
  <path fill="#aa84ac" d="M26 67h1v1h-1z"/>
  <path fill="#aa85ad" d="M57 29h1v1h-1z"/>
  <path fill="#aa86ae" d="M32 39h1v1h-1z"/>
  <path fill="#aab1de" d="M73 72h1v1h-1z M60 80h1v1h-1z M81 86h1v1h-1z"/>
  <path fill="#aab2df" d="M60 64h1v1h-1z M72 72h1v1h-1z"/>
  <path fill="#abb3df" d="M40 37h1v1h-1z M29 53h1v1h-1z"/>
  <path fill="#ac7ea3" d="M35 36h1v1h-1z M29 43h1v1h-1z"/>
  <path fill="#ac80a7" d="M25 61h1v1h-1z"/>
  <path fill="#acb3df" d="M59 33h1v1h-1z M30 67h1v1h-1z M63 81h1v1h-1z M74 85h1v1h-1z M40 88h1v1h-1z"/>
  <path fill="#acb4df" d="M50 33h1v1h-1z M46 34h1v1h-1z M74 72h1v1h-1z"/>
  <path fill="#ad7da2" d="M25 54h1v1h-1z"/>
  <path fill="#adb5df" d="M71 72h1v1h-1z"/>
  <path fill="#adb5e0" d="M43 87h1v1h-1z"/>
  <path fill="#ae7b9f" d="M41 32h1v1h-1z"/>
  <path fill="#aeb5e0" d="M67 36h1v1h-1z M76 74h1v1h-1z M35 89h1v1h-1z"/>
  <path fill="#af7699" d="M51 29h1v1h-1z"/>
  <path fill="#afb6e0" d="M29 63h1v1h-1z M61 66h1v1h-1z M77 86h1v1h-1z"/>
  <path fill="#afb6e1" d="M65 35h1v1h-1z"/>
  <path fill="#afb7e1" d="M67 71h1v1h-1z M78 79h1v1h-1z M66 82h1v1h-1z"/>
  <path fill="#b07193" d="M31 40h1v1h-1z"/>
  <path fill="#b07395" d="M58 29h1v1h-1z"/>
  <path fill="#b07396" d="M46 30h1v1h-1z"/>
  <path fill="#b0b7e1" d="M77 52h1v1h-1z M80 84h1v1h-1z"/>
  <path fill="#b0b8e0" d="M63 56h1v1h-1z"/>
  <path fill="#b1b8e1" d="M70 52h1v1h-1z"/>
  <path fill="#b1b8e2" d="M58 33h1v1h-1z"/>
  <path fill="#b1b9e1" d="M33 44h1v1h-1z M65 70h1v1h-1z M80 87h1v1h-1z"/>
  <path fill="#b26d8e" d="M63 30h1v1h-1z"/>
  <path fill="#b2b8e1" d="M60 60h1v1h-1z"/>
  <path fill="#b2b9e1" d="M69 83h1v1h-1z"/>
  <path fill="#b2b9e2" d="M30 50h1v1h-1z"/>
  <path fill="#b2bae2" d="M51 33h1v1h-1z"/>
  <path fill="#b36b8a" d="M39 33h1v1h-1z M25 62h1v1h-1z"/>
  <path fill="#b36b8b" d="M43 31h1v1h-1z"/>
  <path fill="#b3b9e2" d="M64 55h1v1h-1z M70 72h1v1h-1z"/>
  <path fill="#b3bae1" d="M62 57h1v1h-1z M59 62h1v1h-1z M81 87h1v1h-1z"/>
  <path fill="#b3bae2" d="M44 35h1v1h-1z M42 36h1v1h-1z M67 53h1v1h-1z M29 54h1v1h-1z M34 89h1v1h-1z"/>
  <path fill="#b56381" d="M68 32h1v1h-1z"/>
  <path fill="#b56482" d="M25 53h1v1h-1z"/>
  <path fill="#b56685" d="M36 35h1v1h-1z"/>
  <path fill="#b5bbe2" d="M49 84h1v1h-1z M47 85h1v1h-1z"/>
  <path fill="#b5bce2" d="M45 86h1v1h-1z"/>
  <path fill="#b5bce3" d="M62 34h1v1h-1z M39 88h1v1h-1z"/>
  <path fill="#b6617e" d="M50 29h1v1h-1z"/>
  <path fill="#b6bce3" d="M29 62h1v1h-1z M57 80h1v1h-1z M55 81h1v1h-1z M53 82h1v1h-1z M51 83h1v1h-1z"/>
  <path fill="#b6bde3" d="M52 33h1v1h-1z M57 33h1v1h-1z M77 77h1v1h-1z"/>
  <path fill="#b75d79" d="M26 49h1v1h-1z"/>
  <path fill="#b75e79" d="M66 31h1v1h-1z"/>
  <path fill="#b75f7b" d="M26 68h1v1h-1z"/>
  <path fill="#b7bde4" d="M39 38h1v1h-1z M79 82h1v1h-1z M72 84h1v1h-1z"/>
  <path fill="#b7bee3" d="M47 34h1v1h-1z M61 80h1v1h-1z"/>
  <path fill="#b7bee4" d="M33 89h1v1h-1z"/>
  <path fill="#b85c77" d="M59 29h1v1h-1z"/>
  <path fill="#b8bee4" d="M29 55h1v1h-1z M30 66h1v1h-1z"/>
  <path fill="#b9566f" d="M25 63h1v1h-1z"/>
  <path fill="#babfe5" d="M53 33h1v1h-1z M56 33h1v1h-1z M75 85h1v1h-1z"/>
  <path fill="#bac0e4" d="M32 46h1v1h-1z M31 48h1v1h-1z"/>
  <path fill="#bac0e5" d="M29 61h1v1h-1z M31 69h1v1h-1z M64 81h1v1h-1z"/>
  <path fill="#bac1e5" d="M54 33h2v1h-2z M34 43h1v1h-1z M69 52h1v1h-1z"/>
  <path fill="#bbc0e5" d="M61 58h1v1h-1z M69 72h1v1h-1z M42 87h1v1h-1z"/>
  <path fill="#bbc1e5" d="M65 54h1v1h-1z"/>
  <path fill="#bc4e66" d="M70 33h1v1h-1z"/>
  <path fill="#bcc2e5" d="M67 82h1v1h-1z M32 89h1v1h-1z"/>
  <path fill="#bcc2e6" d="M78 86h1v1h-1z"/>
  <path fill="#bdc3e6" d="M78 52h1v1h-1z M29 56h1v1h-1z M60 65h1v1h-1z M76 75h1v1h-1z"/>
  <path fill="#be465b" d="M49 29h1v1h-1z"/>
  <path fill="#be485d" d="M30 41h1v1h-1z"/>
  <path fill="#bec3e6" d="M38 39h1v1h-1z"/>
  <path fill="#bec4e6" d="M29 60h1v1h-1z"/>
  <path fill="#bfc4e7" d="M59 63h1v1h-1z"/>
  <path fill="#bfc5e7" d="M30 51h1v1h-1z M78 80h1v1h-1z M80 85h1v1h-1z M38 88h1v1h-1z"/>
  <path fill="#c04053" d="M25 52h1v1h-1z"/>
  <path fill="#c04154" d="M60 29h1v1h-1z M45 30h1v1h-1z"/>
  <path fill="#c0c5e6" d="M29 57h1v1h-1z"/>
  <path fill="#c0c5e7" d="M35 42h1v1h-1z M66 71h1v1h-1z M70 83h1v1h-1z"/>
  <path fill="#c0c6e7" d="M61 34h1v1h-1z M64 35h1v1h-1z M29 59h1v1h-1z M31 89h1v1h-1z"/>
  <path fill="#c13d4f" d="M28 44h1v1h-1z M27 46h1v1h-1z"/>
  <path fill="#c1c6e7" d="M37 40h1v1h-1z M29 58h1v1h-1z"/>
  <path fill="#c1c7e7" d="M62 68h1v1h-1z M63 69h1v1h-1z"/>
  <path fill="#c23b4d" d="M25 64h1v1h-1z"/>
  <path fill="#c2c6e7" d="M36 41h1v1h-1z M59 61h1v1h-1z"/>
  <path fill="#c2c7e8" d="M48 34h1v1h-1z M45 35h1v1h-1z M66 36h1v1h-1z M59 79h1v1h-1z"/>
  <path fill="#c2c8e8" d="M41 37h1v1h-1z M30 65h1v1h-1z M75 73h1v1h-1z M73 84h1v1h-1z"/>
  <path fill="#c3394a" d="M37 34h1v1h-1z"/>
  <path fill="#c3c8e8" d="M77 78h1v1h-1z M62 80h1v1h-1z"/>
  <path fill="#c43747" d="M26 69h1v1h-1z"/>
  <path fill="#c4c9e9" d="M43 36h1v1h-1z M33 45h1v1h-1z M68 52h1v1h-1z M66 53h1v1h-1z M60 59h1v1h-1z M61 67h1v1h-1z M31 68h1v1h-1z M64 70h1v1h-1z M68 72h1v1h-1z M58 79h1v1h-1z M56 80h1v1h-1z M54 81h1v1h-1z M52 82h1v1h-1z M50 83h1v1h-1z M79 83h1v1h-1z M48 84h1v1h-1z M46 85h1v1h-1z M76 85h1v1h-1z M44 86h1v1h-1z M37 88h1v1h-1z M30 89h1v1h-1z"/>
  <path fill="#c4cae8" d="M65 81h1v1h-1z"/>
  <path fill="#c53342" d="M64 30h1v1h-1z"/>
  <path fill="#c5cae9" d="M49 34h12v25h-12z M46 35h3v49h-3z M61 35h3v21h-3z M44 36h2v50h-2z M64 36h2v18h-2z M42 37h2v50h-2z M66 37h2v16h-2z M40 38h2v50h-2z M68 38h1v14h-1z M39 39h1v49h-1z M69 39h2v13h-2z M38 40h1v48h-1z M71 40h1v12h-1z M37 41h1v47h-1z M72 41h1v11h-1z M36 42h1v47h-1z M73 42h1v10h-1z M35 43h1v46h-1z M34 44h1v45h-1z M74 44h1v8h-1z M75 45h1v7h-1z M33 46h1v43h-1z M76 46h1v6h-1z M32 47h1v26h-1z M77 48h1v4h-1z M31 49h1v19h-1z M78 50h1v2h-1z M30 52h1v13h-1z M79 52h1v1h-1z M64 54h1v1h-1z M61 56h2v1h-2z M61 57h1v1h-1z M49 59h11v2h-11z M49 61h10v18h-10z M59 64h1v15h-1z M60 66h1v14h-1z M61 68h1v12h-1z M62 69h1v11h-1z M63 70h1v11h-1z M64 71h2v10h-2z M66 72h2v10h-2z M68 73h7v10h-7z M75 74h1v11h-1z M76 76h1v9h-1z M32 79h1v10h-1z M49 79h9v1h-9z M77 79h1v7h-1z M49 80h7v1h-7z M49 81h5v1h-5z M78 81h1v5h-1z M49 82h3v1h-3z M49 83h1v1h-1z M71 83h4v1h-4z M31 84h1v5h-1z M46 84h2v1h-2z M74 84h1v1h-1z M79 84h1v3h-1z M80 86h1v1h-1z M30 87h1v2h-1z M29 89h1v1h-1z"/>
  <path fill="#c92530" d="M42 31h1v1h-1z"/>
  <path fill="#c92631" d="M40 32h1v1h-1z"/>
  <path fill="#ca222c" d="M48 29h1v1h-1z"/>
  <path fill="#ca242e" d="M26 48h1v1h-1z"/>
  <path fill="#cb1e26" d="M29 42h1v1h-1z"/>
  <path fill="#cc1c24" d="M25 65h1v1h-1z"/>
  <path fill="#cd1920" d="M61 29h1v1h-1z M25 51h1v1h-1z"/>
  <path fill="#cf1116" d="M69 32h1v1h-1z"/>
  <path fill="#cf1217" d="M67 31h1v1h-1z"/>
  <path fill="#cf1319" d="M33 37h1v1h-1z"/>
  <path fill="#d00e12" d="M32 38h1v1h-1z"/>
  <path fill="#d01015" d="M38 33h1v1h-1z"/>
  <path fill="#d2090c" d="M31 39h1v1h-1z"/>
  <path fill="#d20b0e" d="M44 30h1v1h-1z"/>
  <path fill="#d20b0f" d="M34 36h1v1h-1z"/>
  <path fill="#d30506" d="M35 35h1v1h-1z"/>
  <path fill="#d40203" d="M25 66h1v1h-1z"/>
  <path fill="#d40304" d="M47 29h1v1h-1z M65 30h1v1h-1z M27 45h1v1h-1z"/>
  <path fill="#d50000" d="M52 25h5v4h-5z M47 26h5v3h-5z M57 26h6v3h-6z M44 27h3v3h-3z M63 27h3v3h-3z M41 28h3v3h-3z M66 28h3v3h-3z M39 29h2v3h-2z M62 29h1v1h-1z M69 29h2v3h-2z M37 30h2v3h-2z M71 30h1v3h-1z M36 31h1v4h-1z M41 31h1v1h-1z M68 31h1v1h-1z M72 31h1v1h-1z M34 32h2v3h-2z M39 32h1v1h-1z M70 32h1v1h-1z M33 33h1v4h-1z M37 33h1v1h-1z M32 34h1v4h-1z M31 35h1v4h-1z M34 35h1v1h-1z M30 36h1v5h-1z M29 37h1v5h-1z M28 38h1v5h-1z M27 40h1v5h-1z M26 41h1v6h-1z M25 43h1v7h-1z M24 45h1v25h-1z M23 47h1v23h-1z M22 50h1v17h-1z M21 55h1v7h-1z M25 67h1v3h-1z"/>
  <path fill="#d50001" d="M43 27h1v1h-1z"/>
  <path fill="#d50101" d="M28 43h1v1h-1z M26 47h1v1h-1z M25 50h1v1h-1z"/>
  <path fill="#d50305" d="M71 33h1v1h-1z"/>
  <path fill="#d60001" d="M46 26h1v1h-1z M21 62h1v1h-1z M22 67h1v1h-1z"/>
  <path fill="#d60102" d="M57 25h1v1h-1z M73 31h1v1h-1z M72 32h1v1h-1z"/>
  <path fill="#d70103" d="M66 27h1v1h-1z M72 30h1v1h-1z M27 39h1v1h-1z M24 44h1v1h-1z"/>
  <path fill="#d70104" d="M63 26h1v1h-1z"/>
  <path fill="#d80205" d="M35 31h1v1h-1z M25 42h1v1h-1z M22 49h1v1h-1z M21 54h1v1h-1z"/>
  <path fill="#d81320" d="M26 70h1v1h-1z"/>
  <path fill="#d90206" d="M23 46h1v1h-1z"/>
  <path fill="#d90207" d="M51 25h1v1h-1z"/>
  <path fill="#da0308" d="M58 25h1v1h-1z M21 63h1v1h-1z"/>
  <path fill="#db0309" d="M40 28h1v1h-1z M38 29h1v1h-1z"/>
  <path fill="#dd040d" d="M26 40h1v1h-1z M21 53h1v1h-1z"/>
  <path fill="#dd050e" d="M23 70h3v1h-3z"/>
  <path fill="#de050f" d="M31 34h1v1h-1z"/>
  <path fill="#df050f" d="M50 25h1v1h-1z"/>
  <path fill="#df0510" d="M30 35h1v1h-1z"/>
  <path fill="#e00611" d="M59 25h1v1h-1z"/>
  <path fill="#e00612" d="M45 26h1v1h-1z M69 28h1v1h-1z M22 68h1v1h-1z"/>
  <path fill="#e10613" d="M42 27h1v1h-1z"/>
  <path fill="#e10713" d="M29 36h1v1h-1z"/>
  <path fill="#e20714" d="M36 30h1v1h-1z"/>
  <path fill="#e20715" d="M64 26h1v1h-1z M71 29h1v1h-1z M21 64h1v1h-1z"/>
  <path fill="#e30817" d="M32 33h1v1h-1z"/>
  <path fill="#e40818" d="M49 25h1v1h-1z M67 27h1v1h-1z M21 52h1v1h-1z"/>
  <path fill="#e50919" d="M28 37h1v1h-1z"/>
  <path fill="#e5091a" d="M22 48h1v1h-1z"/>
  <path fill="#e5091b" d="M60 25h1v1h-1z"/>
  <path fill="#e80a1e" d="M33 32h1v1h-1z M24 43h1v1h-1z"/>
  <path fill="#ea0b22" d="M21 65h1v1h-1z"/>
  <path fill="#ea0c22" d="M23 45h1v1h-1z"/>
  <path fill="#ec0c25" d="M73 30h1v1h-1z"/>
  <path fill="#ec0d25" d="M48 25h1v1h-1z"/>
  <path fill="#ed0d26" d="M22 69h1v1h-1z"/>
  <path fill="#ed0d27" d="M61 25h1v1h-1z M44 26h1v1h-1z M21 51h1v1h-1z"/>
  <path fill="#ee0d28" d="M25 41h1v1h-1z"/>
  <path fill="#ef0e2a" d="M39 28h1v1h-1z M27 38h1v1h-1z"/>
  <path fill="#f00f2b" d="M65 26h1v1h-1z"/>
  <path fill="#f10f2e" d="M41 27h1v1h-1z"/>
  <path fill="#f2102f" d="M34 31h1v1h-1z M21 66h1v1h-1z"/>
  <path fill="#f21030" d="M37 29h1v1h-1z"/>
  <path fill="#f41132" d="M22 47h1v1h-1z"/>
  <path fill="#f41133" d="M70 28h1v1h-1z"/>
  <path fill="#f51133" d="M47 25h1v1h-1z"/>
  <path fill="#f61236" d="M68 27h1v1h-1z M20 59h1v1h-1z"/>
  <path fill="#f71337" d="M62 25h1v1h-1z M21 50h1v1h-1z M20 58h1v1h-1z"/>
  <path fill="#f71338" d="M20 57h1v1h-1z"/>
  <path fill="#f81338" d="M26 39h1v1h-1z"/>
  <path fill="#f81339" d="M20 60h1v1h-1z"/>
  <path fill="#f9143a" d="M20 56h1v1h-1z"/>
  <path fill="#fa143b" d="M22 70h1v1h-1z"/>
  <path fill="#fa143c" d="M43 26h1v1h-1z M72 29h1v1h-1z"/>
  <path fill="#fa143d" d="M35 30h1v1h-1z"/>
  <path fill="#fc153e" d="M24 42h1v1h-1z"/>
  <path fill="#fc153f" d="M54 24h2v1h-2z M30 34h1v1h-1z M23 44h1v1h-1z M20 61h1v1h-1z"/>
  <path fill="#fc1640" d="M21 67h1v1h-1z"/>
  <path fill="#fd1641" d="M46 25h1v1h-1z M66 26h1v1h-1z M29 35h1v1h-1z M20 55h1v1h-1z"/>
  <path fill="#fe1642" d="M53 24h1v1h-1z M31 33h1v1h-1z"/>
  <path fill="#fe1743" d="M40 27h1v1h-1z M38 28h1v1h-1z M28 36h1v1h-1z M22 46h1v1h-1z"/>
  <path fill="#ff1743" d="M56 24h1v1h-1z M63 25h1v1h-1z M32 32h1v1h-1z M25 40h1v1h-1z M21 49h1v1h-1z"/>
  <path fill="#ff1744" d="M50 7h4v17h-4z M62 7h4v18h-4z M46 8h4v17h-4z M61 8h1v17h-1z M66 8h4v18h-4z M43 9h3v17h-3z M60 9h1v16h-1z M70 9h3v19h-3z M41 10h2v17h-2z M73 10h2v20h-2z M38 11h3v16h-3z M59 11h1v14h-1z M75 11h2v17h-2z M37 12h1v17h-1z M77 12h2v14h-2z M35 13h2v17h-2z M58 13h1v12h-1z M79 13h2v11h-2z M33 14h2v17h-2z M81 14h1v9h-1z M32 15h1v17h-1z M57 15h1v10h-1z M82 15h2v6h-2z M30 16h2v17h-2z M56 16h1v8h-1z M84 16h1v4h-1z M29 17h1v18h-1z M85 17h1v2h-1z M28 18h1v18h-1z M55 18h1v6h-1z M27 19h1v19h-1z M26 20h1v19h-1z M54 20h1v4h-1z M25 21h1v19h-1z M82 21h1v1h-1z M50 24h3v1h-3z M79 24h1v1h-1z M64 25h2v1h-2z M67 26h3v1h-3z M77 26h1v1h-1z M38 27h2v1h-2z M69 27h1v1h-1z M71 28h2v1h-2z M75 28h1v1h-1z M19 29h2v26h-2z M21 30h1v19h-1z M18 31h1v41h-1z M22 31h1v15h-1z M33 31h1v1h-1z M17 32h1v38h-1z M23 32h2v10h-2z M30 33h1v1h-1z M16 35h1v33h-1z M15 37h1v28h-1z M14 40h1v21h-1z M23 42h1v2h-1z M13 45h1v11h-1z M19 55h1v19h-1z M20 62h1v14h-1z M21 68h1v10h-1z M22 71h4v8h-4z M23 79h3v1h-3z M24 80h2v2h-2z M25 82h1v1h-1z"/>
</svg>