<?xml version="1.0" encoding="UTF-8"?>
<svg xmlns="http://www.w3.org/2000/svg" width="100" height="100" viewBox="0 0 100 100" shape-rendering="crispEdges" role="img">
  <title>icons8-pixel-cat-100</title>
  <desc>Pixel-perfect vector conversion from the provided PNG icon. Transparent background preserved.</desc>
  <path fill="#9999b2" fill-opacity="0.0392" d="M37 22h1v1h-1z M62 22h1v1h-1z"/>
  <path fill="#91aaaa" fill-opacity="0.0824" d="M31 16h1v1h-1z M68 16h1v1h-1z M32 22h5v1h-5z M63 22h5v1h-5z"/>
  <path fill="#8fa7af" fill-opacity="0.1255" d="M12 43h1v1h-1z M87 43h1v1h-1z"/>
  <path fill="#90a5ac" fill-opacity="0.1451" d="M18 10h1v1h-1z M81 10h1v1h-1z"/>
  <path fill="#475b62" fill-opacity="0.1529" d="M20 77h1v1h-1z M79 77h1v1h-1z"/>
  <path fill="#475864" fill-opacity="0.1686" d="M20 78h1v3h-1z M79 78h1v3h-1z"/>
  <path fill="#445965" fill-opacity="0.2471" d="M16 81h1v1h-1z M83 81h1v1h-1z"/>
  <path fill="#435b63" fill-opacity="0.251" d="M21 81h4v1h-4z M75 81h4v1h-4z"/>
  <path fill="#8fa3af" fill-opacity="0.251" d="M18 11h1v32h-1z M81 11h1v32h-1z M31 17h1v5h-1z M68 17h1v5h-1z M13 43h5v1h-5z M82 43h5v1h-5z M18 69h1v6h-1z M81 69h1v6h-1z M25 81h6v1h-6z M69 81h6v1h-6z"/>
  <path fill="#445963" fill-opacity="0.2902" d="M12 85h1v1h-1z M87 85h1v1h-1z M12 89h1v1h-1z M87 89h1v1h-1z"/>
  <path fill="#90a5ac" fill-opacity="0.2902" d="M37 89h1v1h-1z M62 89h1v1h-1z"/>
  <path fill="#91a4ae" fill-opacity="0.3098" d="M31 22h1v1h-1z M68 22h1v1h-1z"/>
  <path fill="#465962" fill-opacity="0.3137" d="M31 85h1v1h-1z M68 85h1v1h-1z"/>
  <path fill="#455a63" fill-opacity="0.3333" d="M16 82h1v3h-1z M83 82h1v3h-1z"/>
  <path fill="#90a5ae" fill-opacity="0.3333" d="M25 16h6v1h-6z M69 16h6v1h-6z"/>
  <path fill="#445864" fill-opacity="0.349" d="M4 64h1v1h-1z M95 64h1v1h-1z M20 85h1v1h-1z M79 85h1v1h-1z"/>
  <path fill="#455a64" fill-opacity="0.3882" d="M16 89h1v1h-1z M83 89h1v1h-1z"/>
  <path fill="#455a64" fill-opacity="0.4196" d="M5 64h7v1h-7z M88 64h7v1h-7z M17 85h3v1h-3z M32 85h5v1h-5z M63 85h5v1h-5z M80 85h3v1h-3z"/>
  <path fill="#8fa3ad" fill-opacity="0.4392" d="M18 43h1v1h-1z M81 43h1v1h-1z"/>
  <path fill="#465966" fill-opacity="0.4706" d="M83 85h1v1h-1z"/>
  <path fill="#455963" fill-opacity="0.502" d="M12 86h1v3h-1z M87 86h1v3h-1z"/>
  <path fill="#8fa3ad" fill-opacity="0.502" d="M37 23h1v6h-1z M62 23h1v6h-1z M12 44h1v20h-1z M87 44h1v20h-1z M37 86h1v3h-1z M62 86h1v3h-1z"/>
  <path fill="#455a64" fill-opacity="0.5294" d="M16 85h1v1h-1z"/>
  <path fill="#445a63" fill-opacity="0.5843" d="M13 85h3v1h-3z M84 85h3v1h-3z M13 89h3v1h-3z M84 89h3v1h-3z"/>
  <path fill="#8fa4ae" fill-opacity="0.5843" d="M19 10h6v1h-6z M75 10h6v1h-6z M38 89h24v1h-24z"/>
  <path fill="#445963" fill-opacity="0.6235" d="M4 68h1v1h-1z M95 68h1v1h-1z"/>
  <path fill="#445a64" fill-opacity="0.6392" d="M79 81h1v1h-1z"/>
  <path fill="#455a64" fill-opacity="0.6667" d="M20 81h1v1h-1z"/>
  <path fill="#445963" fill-opacity="0.6706" d="M16 86h1v3h-1z M83 86h1v3h-1z"/>
  <path fill="#51666f" fill-opacity="0.6745" d="M31 81h1v1h-1z M68 81h1v1h-1z"/>
  <path fill="#647981" fill-opacity="0.7098" d="M12 64h1v1h-1z M87 64h1v1h-1z M37 85h1v1h-1z M62 85h1v1h-1z"/>
  <path fill="#455a63" fill-opacity="0.7529" d="M5 68h7v1h-7z M88 68h7v1h-7z M17 81h3v1h-3z M80 81h3v1h-3z M31 82h1v3h-1z M68 82h1v3h-1z"/>
  <path fill="#4a5f69" fill-opacity="0.8157" d="M32 81h5v1h-5z M63 81h5v1h-5z"/>
  <path fill="#455964" fill-opacity="0.8353" d="M4 65h1v3h-1z M95 65h1v3h-1z M20 82h1v3h-1z M79 82h1v3h-1z"/>
  <path fill="#8fa4ad" fill-opacity="0.8353" d="M42 29h5v1h-5z M53 29h5v1h-5z"/>
  <path fill="#4c616b" fill-opacity="0.8471" d="M12 68h1v1h-1z M87 68h1v1h-1z"/>
  <path fill="#8a9ea7" fill-opacity="0.8471" d="M47 29h1v1h-1z M52 29h1v1h-1z"/>
  <path fill="#516670" fill-opacity="0.9098" d="M37 81h1v1h-1z M62 81h1v1h-1z"/>
  <path fill="#455a63" fill-opacity="0.9216" d="M21 77h4v1h-4z M75 77h4v1h-4z"/>
  <path fill="#627781" fill-opacity="0.9255" d="M41 29h1v1h-1z M58 29h1v1h-1z"/>
  <path fill="#546872" fill-opacity="0.9373" d="M13 68h5v1h-5z M82 68h5v1h-5z"/>
  <path fill="#556973" fill-opacity="0.9529" d="M18 68h1v1h-1z M81 68h1v1h-1z"/>
  <path fill="#6f838d" fill-opacity="0.9529" d="M37 29h1v1h-1z M62 29h1v1h-1z"/>
  <path fill="#50646f" fill-opacity="0.9725" d="M38 29h3v1h-3z M48 29h4v1h-4z M59 29h3v1h-3z"/>
  <path fill="#000000" d="M32 50h3v4h-3z M63 50h3v4h-3z"/>
  <path fill="#3b3f10" d="M31 50h1v4h-1z"/>
  <path fill="#455a64" d="M38 30h3v9h-3z M48 30h4v9h-4z M59 30h3v9h-3z M5 65h24v3h-24z M44 65h12v3h-12z M71 65h24v3h-24z M48 69h4v8h-4z M25 73h4v4h-4z M71 73h4v4h-4z M21 78h4v3h-4z M44 78h3v3h-3z M53 78h3v3h-3z M75 78h4v3h-4z M17 82h3v3h-3z M32 82h11v3h-11z M57 82h11v3h-11z M80 82h3v3h-3z M13 86h3v3h-3z M84 86h3v3h-3z"/>
  <path fill="#4b606a" d="M44 77h3v1h-3z M53 77h3v1h-3z M47 78h1v3h-1z M52 78h1v3h-1z"/>
  <path fill="#4e5415" d="M66 50h1v4h-1z"/>
  <path fill="#50656f" d="M47 77h1v1h-1z"/>
  <path fill="#50666f" d="M52 77h1v1h-1z"/>
  <path fill="#536971" d="M48 68h4v1h-4z"/>
  <path fill="#576d76" d="M47 68h1v1h-1z M52 68h1v1h-1z"/>
  <path fill="#586d76" d="M19 68h10v1h-10z M44 68h3v1h-3z M53 68h3v1h-3z M71 68h10v1h-10z M38 81h5v1h-5z M57 81h5v1h-5z M43 82h1v3h-1z M56 82h1v3h-1z"/>
  <path fill="#5d727c" d="M41 30h1v9h-1z M58 30h1v9h-1z"/>
  <path fill="#617580" d="M56 81h1v1h-1z"/>
  <path fill="#647982" d="M38 39h3v1h-3z M48 39h4v1h-4z M59 39h3v1h-3z M43 81h1v1h-1z"/>
  <path fill="#6b7f89" d="M37 30h1v9h-1z M62 30h1v9h-1z"/>
  <path fill="#71858f" d="M13 64h16v1h-16z M44 64h12v1h-12z M71 64h16v1h-16z M38 85h5v1h-5z M57 85h5v1h-5z"/>
  <path fill="#738791" d="M41 39h1v1h-1z M58 39h1v1h-1z"/>
  <path fill="#777f20" d="M62 50h1v4h-1z"/>
  <path fill="#798d96" d="M43 85h1v1h-1z M56 85h1v1h-1z"/>
  <path fill="#7a8e99" d="M37 39h1v1h-1z M62 39h1v1h-1z"/>
  <path fill="#7d929b" d="M43 65h1v3h-1z M56 65h1v3h-1z M43 78h1v3h-1z M56 78h1v3h-1z M44 81h3v1h-3z M53 81h3v1h-3z"/>
  <path fill="#7f939d" d="M43 77h1v1h-1z M56 77h1v1h-1z M47 81h1v1h-1z M52 81h1v1h-1z"/>
  <path fill="#8296a0" d="M43 68h1v1h-1z M56 68h1v1h-1z"/>
  <path fill="#8497a2" d="M29 65h1v3h-1z M70 65h1v3h-1z M29 73h1v4h-1z M70 73h1v4h-1z"/>
  <path fill="#879aa5" d="M29 68h1v1h-1z M70 68h1v1h-1z"/>
  <path fill="#889ca6" d="M43 64h1v1h-1z M56 64h1v1h-1z"/>
  <path fill="#8a9426" d="M35 50h1v4h-1z"/>
  <path fill="#8a9da8" d="M47 30h1v9h-1z M52 30h1v9h-1z M47 69h1v8h-1z M52 69h1v8h-1z M25 72h4v1h-4z M71 72h4v1h-4z M25 77h4v1h-4z M48 77h4v1h-4z M71 77h4v1h-4z"/>
  <path fill="#8b9fa9" d="M29 64h1v1h-1z M70 64h1v1h-1z"/>
  <path fill="#8ca0ab" d="M47 39h1v1h-1z M52 39h1v1h-1z"/>
  <path fill="#8fa3ad" d="M29 72h1v1h-1z M70 72h1v1h-1z M29 77h1v1h-1z M70 77h1v1h-1z"/>
  <path fill="#90a4ae" d="M19 11h6v9h-6z M75 11h6v9h-6z M25 17h6v3h-6z M69 17h6v3h-6z M19 20h3v44h-3z M28 20h3v7h-3z M69 20h3v7h-3z M78 20h3v44h-3z M31 23h6v4h-6z M63 23h6v4h-6z M32 27h5v18h-5z M63 27h5v18h-5z M42 30h5v34h-5z M53 30h5v20h-5z M28 36h4v9h-4z M68 36h4v9h-4z M22 40h6v10h-6z M37 40h5v5h-5z M47 40h6v24h-6z M58 40h5v5h-5z M72 40h6v10h-6z M13 44h6v20h-6z M81 44h6v20h-6z M28 45h1v5h-1z M38 45h4v5h-4z M58 45h2v5h-2z M69 45h3v5h-3z M22 50h3v14h-3z M53 50h3v14h-3z M73 50h5v14h-5z M25 55h4v9h-4z M38 55h4v26h-4z M56 55h4v9h-4z M69 55h4v9h-4z M29 59h9v5h-9z M60 59h9v22h-9z M30 64h8v17h-8z M42 64h1v17h-1z M57 64h3v17h-3z M69 64h1v17h-1z M19 69h11v3h-11z M43 69h4v8h-4z M53 69h4v8h-4z M70 69h11v3h-11z M19 72h6v3h-6z M75 72h6v3h-6z M25 78h5v3h-5z M48 78h4v11h-4z M70 78h5v3h-5z M44 82h4v7h-4z M52 82h4v7h-4z M38 86h6v3h-6z M56 86h6v3h-6z"/>
  <path fill="#90a5af" d="M22 20h1v1h-1z M27 20h1v1h-1z M72 20h1v1h-1z M77 20h1v1h-1z"/>
  <path fill="#93a6b0" d="M22 39h1v1h-1z M27 39h1v1h-1z M72 39h1v1h-1z M77 39h1v1h-1z"/>
  <path fill="#95a8b2" d="M22 21h1v18h-1z M27 21h1v6h-1z M72 21h1v6h-1z M77 21h1v18h-1z M27 36h1v3h-1z M72 36h1v3h-1z"/>
  <path fill="#96a9b2" d="M31 35h1v1h-1z M68 35h1v1h-1z"/>
  <path fill="#98aba5" d="M37 45h1v1h-1z"/>
  <path fill="#99ada3" d="M60 45h1v1h-1z"/>
  <path fill="#9aaea2" d="M41 54h1v1h-1z"/>
  <path fill="#9bacb6" d="M23 20h4v1h-4z M73 20h4v1h-4z"/>
  <path fill="#9cafa0" d="M68 45h1v1h-1z M56 54h1v1h-1z"/>
  <path fill="#9db09f" d="M29 45h1v1h-1z"/>
  <path fill="#9eb0b8" d="M31 27h1v1h-1z M68 27h1v1h-1z"/>
  <path fill="#9eb29d" d="M72 54h1v1h-1z"/>
  <path fill="#9fb39c" d="M37 58h1v1h-1z"/>
  <path fill="#a0b1b9" d="M31 28h1v7h-1z M68 28h1v7h-1z"/>
  <path fill="#a0b39c" d="M30 45h7v1h-7z M61 45h7v1h-7z M25 54h4v1h-4z M38 54h3v1h-3z M57 54h3v1h-3z M69 54h3v1h-3z"/>
  <path fill="#a2b599" d="M60 58h1v1h-1z"/>
  <path fill="#a7ba93" d="M68 58h1v1h-1z"/>
  <path fill="#a9bd90" d="M29 58h1v1h-1z"/>
  <path fill="#abbac1" d="M28 35h3v1h-3z M69 35h3v1h-3z"/>
  <path fill="#acbac3" d="M72 35h1v1h-1z"/>
  <path fill="#aebcc4" d="M27 35h1v1h-1z"/>
  <path fill="#afc28a" d="M30 58h7v1h-7z M61 58h7v1h-7z"/>
  <path fill="#b5c2c9" d="M23 39h4v1h-4z M73 39h4v1h-4z"/>
  <path fill="#bfd278" d="M37 46h1v4h-1z M37 55h1v3h-1z"/>
  <path fill="#c6d0d5" d="M72 27h1v1h-1z"/>
  <path fill="#c6d436" d="M32 54h3v1h-3z M63 54h3v1h-3z"/>
  <path fill="#c7d96e" d="M60 46h1v4h-1z M37 54h1v1h-1z M60 55h1v3h-1z"/>
  <path fill="#cad4d9" d="M28 27h3v1h-3z M69 27h3v1h-3z"/>
  <path fill="#cbd4d9" d="M27 27h1v1h-1z M72 28h1v7h-1z"/>
  <path fill="#cddf67" d="M60 54h1v1h-1z"/>
  <path fill="#cfd8dc" d="M23 21h4v18h-4z M73 21h4v18h-4z M27 28h4v7h-4z M69 28h3v7h-3z"/>
  <path fill="#cfe165" d="M41 50h1v4h-1z"/>
  <path fill="#d0df39" d="M31 54h1v1h-1z"/>
  <path fill="#d4e33a" d="M66 54h1v1h-1z"/>
  <path fill="#d7e95c" d="M68 46h1v4h-1z M56 50h1v4h-1z M68 55h1v3h-1z"/>
  <path fill="#daea3c" d="M62 54h1v1h-1z"/>
  <path fill="#dbec57" d="M68 54h1v1h-1z"/>
  <path fill="#deee3d" d="M35 54h1v1h-1z"/>
  <path fill="#dff053" d="M29 46h1v4h-1z M29 55h1v3h-1z"/>
  <path fill="#e1f350" d="M29 54h1v1h-1z"/>
  <path fill="#e6f84a" d="M72 50h1v4h-1z"/>
  <path fill="#eeff41" d="M30 46h7v4h-7z M61 46h7v4h-7z M25 50h6v4h-6z M36 50h5v4h-5z M57 50h5v4h-5z M67 50h5v4h-5z M30 54h1v4h-1z M36 54h1v4h-1z M61 54h1v4h-1z M67 54h1v4h-1z M31 55h5v3h-5z M62 55h5v3h-5z"/>
</svg>