<?xml version="1.0" encoding="UTF-8"?>
<svg xmlns="http://www.w3.org/2000/svg" width="512" height="1024" viewBox="0 0 16 32" shape-rendering="crispEdges">
  <title>B_Knight</title>
  <desc>Pixel-perfect vector conversion from PNG. Transparent background preserved.</desc>
  <path fill="#1f1f29" d="M8 12h2v1h-2zM7 13h2v1h-2zM10 13h2v1h-2zM5 14h2v1h-2zM12 14h1v1h-1zM13 15h1v1h-1zM1 16h1v1h-1zM13 16h1v1h-1zM1 17h1v1h-1zM13 17h1v1h-1zM2 18h3v1h-3zM13 18h1v1h-1zM5 19h1v1h-1zM13 19h1v1h-1zM6 20h1v1h-1zM13 20h1v1h-1zM6 21h1v1h-1zM13 21h1v1h-1zM6 22h1v1h-1zM12 22h1v1h-1zM5 23h1v1h-1zM12 23h1v1h-1zM12 24h1v1h-1zM12 25h1v1h-1zM2 26h1v1h-1zM13 26h1v1h-1zM2 27h1v1h-1zM13 27h1v1h-1zM2 28h1v1h-1zM13 28h1v1h-1zM1 29h1v1h-1zM14 29h1v1h-1zM1 30h2v1h-2zM13 30h2v1h-2zM2 31h12v1h-12z"/>
  <path fill="#413a42" d="M3 14h2v1h-2zM7 14h3v1h-3zM11 14h1v1h-1zM2 15h1v1h-1zM10 15h3v1h-3zM11 16h2v1h-2zM11 17h2v1h-2zM5 18h1v1h-1zM11 18h2v1h-2zM6 19h1v1h-1zM11 19h2v1h-2zM7 20h1v1h-1zM11 20h2v1h-2zM11 21h2v1h-2zM11 22h1v1h-1zM10 23h2v1h-2zM4 24h1v1h-1zM10 24h2v1h-2zM3 25h1v1h-1zM10 25h2v1h-2zM11 26h2v1h-2zM11 27h2v1h-2zM7 28h6v1h-6zM10 29h4v1h-4zM3 30h10v1h-10z"/>
  <path fill="#596070" d="M9 13h1v1h-1zM10 14h1v1h-1zM7 15h3v1h-3zM3 16h8v1h-8zM2 17h9v1h-9zM6 18h5v1h-5zM7 19h4v1h-4zM8 20h3v1h-3zM7 21h4v1h-4zM7 22h4v1h-4zM7 23h3v1h-3zM6 24h4v1h-4zM5 25h5v1h-5zM4 26h7v1h-7zM6 27h5v1h-5zM3 28h4v1h-4zM7 29h3v1h-3z"/>
  <path fill="#96a2b3" d="M3 15h4v1h-4zM2 16h1v1h-1zM6 23h1v1h-1zM5 24h1v1h-1zM4 25h1v1h-1zM3 26h1v1h-1zM3 27h3v1h-3zM2 29h5v1h-5z"/>
</svg>