<?xml version="1.0" encoding="UTF-8"?>
<svg xmlns="http://www.w3.org/2000/svg" width="512" height="1024" viewBox="0 0 16 32" shape-rendering="crispEdges">
  <title>B_Queen</title>
  <desc>Pixel-perfect vector conversion from PNG. Transparent background preserved.</desc>
  <path fill="#1f1f29" d="M7 8h2v1h-2zM6 9h1v1h-1zM9 9h1v1h-1zM6 10h5v1h-5zM11 11h2v1h-2zM2 12h1v1h-1zM13 12h1v1h-1zM2 13h1v1h-1zM13 13h1v1h-1zM3 14h1v1h-1zM12 14h1v1h-1zM4 15h1v1h-1zM11 15h1v1h-1zM4 16h1v1h-1zM11 16h1v1h-1zM5 17h1v1h-1zM10 17h1v1h-1zM5 18h1v1h-1zM10 18h1v1h-1zM5 19h1v1h-1zM10 19h1v1h-1zM5 20h1v1h-1zM10 20h1v1h-1zM5 21h1v1h-1zM10 21h1v1h-1zM5 22h1v1h-1zM10 22h1v1h-1zM5 23h1v1h-1zM10 23h1v1h-1zM11 24h1v1h-1zM12 25h1v1h-1zM2 26h1v1h-1zM13 26h1v1h-1zM2 27h1v1h-1zM13 27h1v1h-1zM2 28h1v1h-1zM13 28h1v1h-1zM1 29h1v1h-1zM14 29h1v1h-1zM1 30h2v1h-2zM13 30h2v1h-2zM2 31h12v1h-12z"/>
  <path fill="#413a42" d="M5 10h1v1h-1zM3 11h2v1h-2zM10 11h1v1h-1zM11 12h2v1h-2zM6 13h7v1h-7zM10 14h2v1h-2zM10 15h1v1h-1zM5 16h1v1h-1zM9 16h2v1h-2zM8 17h2v1h-2zM9 18h1v1h-1zM9 19h1v1h-1zM9 20h1v1h-1zM9 21h1v1h-1zM9 22h1v1h-1zM9 23h1v1h-1zM4 24h1v1h-1zM9 24h2v1h-2zM3 25h1v1h-1zM7 25h5v1h-5zM11 26h2v1h-2zM11 27h2v1h-2zM7 28h6v1h-6zM10 29h4v1h-4zM3 30h10v1h-10z"/>
  <path fill="#596070" d="M7 11h3v1h-3zM5 12h6v1h-6zM4 13h2v1h-2zM5 14h5v1h-5zM5 15h5v1h-5zM6 16h3v1h-3zM6 17h2v1h-2zM6 18h3v1h-3zM6 19h3v1h-3zM6 20h3v1h-3zM6 21h3v1h-3zM6 22h3v1h-3zM6 23h3v1h-3zM6 24h3v1h-3zM5 25h2v1h-2zM4 26h7v1h-7zM6 27h5v1h-5zM3 28h4v1h-4zM7 29h3v1h-3z"/>
  <path fill="#96a2b3" d="M7 9h2v1h-2zM5 11h2v1h-2zM3 12h2v1h-2zM3 13h1v1h-1zM4 14h1v1h-1zM5 24h1v1h-1zM4 25h1v1h-1zM3 26h1v1h-1zM3 27h3v1h-3zM2 29h5v1h-5z"/>
</svg>