<?xml version="1.0" encoding="UTF-8"?>
<svg xmlns="http://www.w3.org/2000/svg" width="768" height="512" viewBox="0 0 96 64" shape-rendering="crispEdges">
  <title>chess_pieces_sprite_sheet</title>
  <desc>All chess pieces converted to pixel-perfect vector paths.</desc>
  <g id="B_Bishop" transform="translate(0 0)">
    <path fill="#1f1f29" d="M7 11h2v1h-2zM9 12h1v1h-1zM10 13h1v1h-1zM11 14h1v1h-1zM3 15h1v1h-1zM12 15h1v1h-1zM3 16h1v1h-1zM12 16h1v1h-1zM3 17h1v1h-1zM12 17h1v1h-1zM4 18h1v1h-1zM11 18h1v1h-1zM5 19h1v1h-1zM10 19h1v1h-1zM5 20h1v1h-1zM10 20h1v1h-1zM5 21h1v1h-1zM10 21h1v1h-1zM5 22h1v1h-1zM10 22h1v1h-1zM5 23h1v1h-1zM10 23h1v1h-1zM11 24h1v1h-1zM12 25h1v1h-1zM2 26h1v1h-1zM13 26h1v1h-1zM2 27h1v1h-1zM13 27h1v1h-1zM2 28h1v1h-1zM13 28h1v1h-1zM1 29h1v1h-1zM14 29h1v1h-1zM1 30h2v1h-2zM13 30h2v1h-2zM2 31h12v1h-12z"/>
    <path fill="#413a42" d="M6 12h1v1h-1zM5 13h1v1h-1zM4 14h1v1h-1zM10 14h1v1h-1zM7 15h1v1h-1zM11 15h1v1h-1zM6 16h3v1h-3zM11 16h1v1h-1zM7 17h1v1h-1zM10 17h2v1h-2zM9 18h2v1h-2zM8 19h2v1h-2zM9 20h1v1h-1zM9 21h1v1h-1zM9 22h1v1h-1zM9 23h1v1h-1zM4 24h1v1h-1zM9 24h2v1h-2zM3 25h1v1h-1zM7 25h5v1h-5zM11 26h2v1h-2zM11 27h2v1h-2zM7 28h6v1h-6zM10 29h4v1h-4zM3 30h10v1h-10z"/>
    <path fill="#596070" d="M8 12h1v1h-1zM7 13h3v1h-3zM6 14h4v1h-4zM5 15h2v1h-2zM8 15h3v1h-3zM4 16h2v1h-2zM9 16h2v1h-2zM4 17h3v1h-3zM8 17h2v1h-2zM5 18h4v1h-4zM6 19h2v1h-2zM6 20h3v1h-3zM6 21h3v1h-3zM6 22h3v1h-3zM6 23h3v1h-3zM6 24h3v1h-3zM5 25h2v1h-2zM4 26h7v1h-7zM6 27h5v1h-5zM3 28h4v1h-4zM7 29h3v1h-3z"/>
    <path fill="#96a2b3" d="M7 12h1v1h-1zM6 13h1v1h-1zM5 14h1v1h-1zM4 15h1v1h-1zM5 24h1v1h-1zM4 25h1v1h-1zM3 26h1v1h-1zM3 27h3v1h-3zM2 29h5v1h-5z"/>
  </g>
  <g id="B_King" transform="translate(16 0)">
    <path fill="#1f1f29" d="M8 6h1v1h-1zM7 7h1v1h-1zM9 7h1v1h-1zM6 8h1v1h-1zM8 8h2v1h-2zM7 9h2v1h-2zM6 10h4v1h-4zM10 11h1v1h-1zM11 12h1v1h-1zM3 13h2v1h-2zM8 13h1v1h-1zM11 13h2v1h-2zM2 14h1v1h-1zM9 14h2v1h-2zM13 14h1v1h-1zM2 15h1v1h-1zM13 15h1v1h-1zM3 16h1v1h-1zM12 16h1v1h-1zM4 17h1v1h-1zM11 17h1v1h-1zM5 18h1v1h-1zM10 18h1v1h-1zM5 19h1v1h-1zM10 19h1v1h-1zM5 20h1v1h-1zM10 20h1v1h-1zM5 21h1v1h-1zM10 21h1v1h-1zM5 22h1v1h-1zM10 22h1v1h-1zM5 23h1v1h-1zM10 23h1v1h-1zM11 24h1v1h-1zM12 25h1v1h-1zM2 26h1v1h-1zM13 26h1v1h-1zM2 27h1v1h-1zM13 27h1v1h-1zM2 28h1v1h-1zM13 28h1v1h-1zM1 29h1v1h-1zM14 29h1v1h-1zM1 30h2v1h-2zM13 30h2v1h-2zM2 31h12v1h-12z"/>
    <path fill="#413a42" d="M7 6h1v1h-1zM6 7h1v1h-1zM5 11h1v1h-1zM4 12h1v1h-1zM7 13h1v1h-1zM5 14h2v1h-2zM12 14h1v1h-1zM5 15h1v1h-1zM11 15h2v1h-2zM10 16h2v1h-2zM9 17h2v1h-2zM8 18h2v1h-2zM9 19h1v1h-1zM9 20h1v1h-1zM9 21h1v1h-1zM9 22h1v1h-1zM9 23h1v1h-1zM4 24h1v1h-1zM9 24h2v1h-2zM3 25h1v1h-1zM7 25h5v1h-5zM11 26h2v1h-2zM11 27h2v1h-2zM7 28h6v1h-6zM10 29h4v1h-4zM3 30h10v1h-10z"/>
    <path fill="#596070" d="M8 7h1v1h-1zM7 8h1v1h-1zM9 11h1v1h-1zM10 12h1v1h-1zM9 13h2v1h-2zM8 14h1v1h-1zM11 14h1v1h-1zM4 15h1v1h-1zM7 15h4v1h-4zM5 16h5v1h-5zM5 17h4v1h-4zM6 18h2v1h-2zM6 19h3v1h-3zM6 20h3v1h-3zM6 21h3v1h-3zM6 22h3v1h-3zM6 23h3v1h-3zM6 24h3v1h-3zM5 25h2v1h-2zM4 26h7v1h-7zM6 27h5v1h-5zM3 28h4v1h-4zM7 29h3v1h-3z"/>
    <path fill="#96a2b3" d="M6 11h3v1h-3zM5 12h5v1h-5zM5 13h2v1h-2zM3 14h2v1h-2zM7 14h1v1h-1zM3 15h1v1h-1zM6 15h1v1h-1zM4 16h1v1h-1zM5 24h1v1h-1zM4 25h1v1h-1zM3 26h1v1h-1zM3 27h3v1h-3zM2 29h5v1h-5z"/>
  </g>
  <g id="B_Knight" transform="translate(32 0)">
    <path fill="#1f1f29" d="M8 12h2v1h-2zM7 13h2v1h-2zM10 13h2v1h-2zM5 14h2v1h-2zM12 14h1v1h-1zM13 15h1v1h-1zM1 16h1v1h-1zM13 16h1v1h-1zM1 17h1v1h-1zM13 17h1v1h-1zM2 18h3v1h-3zM13 18h1v1h-1zM5 19h1v1h-1zM13 19h1v1h-1zM6 20h1v1h-1zM13 20h1v1h-1zM6 21h1v1h-1zM13 21h1v1h-1zM6 22h1v1h-1zM12 22h1v1h-1zM5 23h1v1h-1zM12 23h1v1h-1zM12 24h1v1h-1zM12 25h1v1h-1zM2 26h1v1h-1zM13 26h1v1h-1zM2 27h1v1h-1zM13 27h1v1h-1zM2 28h1v1h-1zM13 28h1v1h-1zM1 29h1v1h-1zM14 29h1v1h-1zM1 30h2v1h-2zM13 30h2v1h-2zM2 31h12v1h-12z"/>
    <path fill="#413a42" d="M3 14h2v1h-2zM7 14h3v1h-3zM11 14h1v1h-1zM2 15h1v1h-1zM10 15h3v1h-3zM11 16h2v1h-2zM11 17h2v1h-2zM5 18h1v1h-1zM11 18h2v1h-2zM6 19h1v1h-1zM11 19h2v1h-2zM7 20h1v1h-1zM11 20h2v1h-2zM11 21h2v1h-2zM11 22h1v1h-1zM10 23h2v1h-2zM4 24h1v1h-1zM10 24h2v1h-2zM3 25h1v1h-1zM10 25h2v1h-2zM11 26h2v1h-2zM11 27h2v1h-2zM7 28h6v1h-6zM10 29h4v1h-4zM3 30h10v1h-10z"/>
    <path fill="#596070" d="M9 13h1v1h-1zM10 14h1v1h-1zM7 15h3v1h-3zM3 16h8v1h-8zM2 17h9v1h-9zM6 18h5v1h-5zM7 19h4v1h-4zM8 20h3v1h-3zM7 21h4v1h-4zM7 22h4v1h-4zM7 23h3v1h-3zM6 24h4v1h-4zM5 25h5v1h-5zM4 26h7v1h-7zM6 27h5v1h-5zM3 28h4v1h-4zM7 29h3v1h-3z"/>
    <path fill="#96a2b3" d="M3 15h4v1h-4zM2 16h1v1h-1zM6 23h1v1h-1zM5 24h1v1h-1zM4 25h1v1h-1zM3 26h1v1h-1zM3 27h3v1h-3zM2 29h5v1h-5z"/>
  </g>
  <g id="B_Pawn" transform="translate(48 0)">
    <path fill="#1f1f29" d="M7 16h3v1h-3zM10 17h1v1h-1zM11 18h1v1h-1zM4 19h1v1h-1zM11 19h1v1h-1zM4 20h1v1h-1zM11 20h1v1h-1zM4 21h1v1h-1zM11 21h1v1h-1zM5 22h1v1h-1zM10 22h1v1h-1zM5 23h1v1h-1zM10 23h1v1h-1zM11 24h1v1h-1zM12 25h1v1h-1zM2 26h1v1h-1zM13 26h1v1h-1zM2 27h1v1h-1zM13 27h1v1h-1zM2 28h1v1h-1zM13 28h1v1h-1zM1 29h1v1h-1zM14 29h1v1h-1zM1 30h2v1h-2zM13 30h2v1h-2zM2 31h12v1h-12z"/>
    <path fill="#413a42" d="M6 16h1v1h-1zM5 17h1v1h-1zM4 18h1v1h-1zM10 20h1v1h-1zM5 21h1v1h-1zM9 21h2v1h-2zM6 22h1v1h-1zM8 22h2v1h-2zM9 23h1v1h-1zM4 24h1v1h-1zM9 24h2v1h-2zM3 25h1v1h-1zM10 25h2v1h-2zM11 26h2v1h-2zM11 27h2v1h-2zM7 28h6v1h-6zM10 29h4v1h-4zM3 30h10v1h-10z"/>
    <path fill="#596070" d="M8 17h2v1h-2zM6 18h5v1h-5zM5 19h6v1h-6zM5 20h5v1h-5zM6 21h3v1h-3zM7 22h1v1h-1zM6 23h3v1h-3zM5 24h4v1h-4zM5 25h5v1h-5zM4 26h7v1h-7zM6 27h5v1h-5zM3 28h4v1h-4zM7 29h3v1h-3z"/>
    <path fill="#96a2b3" d="M6 17h2v1h-2zM5 18h1v1h-1zM4 25h1v1h-1zM3 26h1v1h-1zM3 27h3v1h-3zM2 29h5v1h-5z"/>
  </g>
  <g id="B_Queen" transform="translate(64 0)">
    <path fill="#1f1f29" d="M7 8h2v1h-2zM6 9h1v1h-1zM9 9h1v1h-1zM6 10h5v1h-5zM11 11h2v1h-2zM2 12h1v1h-1zM13 12h1v1h-1zM2 13h1v1h-1zM13 13h1v1h-1zM3 14h1v1h-1zM12 14h1v1h-1zM4 15h1v1h-1zM11 15h1v1h-1zM4 16h1v1h-1zM11 16h1v1h-1zM5 17h1v1h-1zM10 17h1v1h-1zM5 18h1v1h-1zM10 18h1v1h-1zM5 19h1v1h-1zM10 19h1v1h-1zM5 20h1v1h-1zM10 20h1v1h-1zM5 21h1v1h-1zM10 21h1v1h-1zM5 22h1v1h-1zM10 22h1v1h-1zM5 23h1v1h-1zM10 23h1v1h-1zM11 24h1v1h-1zM12 25h1v1h-1zM2 26h1v1h-1zM13 26h1v1h-1zM2 27h1v1h-1zM13 27h1v1h-1zM2 28h1v1h-1zM13 28h1v1h-1zM1 29h1v1h-1zM14 29h1v1h-1zM1 30h2v1h-2zM13 30h2v1h-2zM2 31h12v1h-12z"/>
    <path fill="#413a42" d="M5 10h1v1h-1zM3 11h2v1h-2zM10 11h1v1h-1zM11 12h2v1h-2zM6 13h7v1h-7zM10 14h2v1h-2zM10 15h1v1h-1zM5 16h1v1h-1zM9 16h2v1h-2zM8 17h2v1h-2zM9 18h1v1h-1zM9 19h1v1h-1zM9 20h1v1h-1zM9 21h1v1h-1zM9 22h1v1h-1zM9 23h1v1h-1zM4 24h1v1h-1zM9 24h2v1h-2zM3 25h1v1h-1zM7 25h5v1h-5zM11 26h2v1h-2zM11 27h2v1h-2zM7 28h6v1h-6zM10 29h4v1h-4zM3 30h10v1h-10z"/>
    <path fill="#596070" d="M7 11h3v1h-3zM5 12h6v1h-6zM4 13h2v1h-2zM5 14h5v1h-5zM5 15h5v1h-5zM6 16h3v1h-3zM6 17h2v1h-2zM6 18h3v1h-3zM6 19h3v1h-3zM6 20h3v1h-3zM6 21h3v1h-3zM6 22h3v1h-3zM6 23h3v1h-3zM6 24h3v1h-3zM5 25h2v1h-2zM4 26h7v1h-7zM6 27h5v1h-5zM3 28h4v1h-4zM7 29h3v1h-3z"/>
    <path fill="#96a2b3" d="M7 9h2v1h-2zM5 11h2v1h-2zM3 12h2v1h-2zM3 13h1v1h-1zM4 14h1v1h-1zM5 24h1v1h-1zM4 25h1v1h-1zM3 26h1v1h-1zM3 27h3v1h-3zM2 29h5v1h-5z"/>
  </g>
  <g id="B_Rook" transform="translate(80 0)">
    <path fill="#1f1f29" d="M4 13h1v1h-1zM6 13h3v1h-3zM10 13h4v1h-4zM5 14h2v1h-2zM9 14h2v1h-2zM13 14h1v1h-1zM13 15h1v1h-1zM2 16h1v1h-1zM13 16h1v1h-1zM2 17h1v1h-1zM13 17h1v1h-1zM3 18h1v1h-1zM12 18h1v1h-1zM4 19h1v1h-1zM11 19h1v1h-1zM4 20h1v1h-1zM11 20h1v1h-1zM4 21h1v1h-1zM11 21h1v1h-1zM11 22h1v1h-1zM12 23h1v1h-1zM12 24h1v1h-1zM13 25h1v1h-1zM2 26h1v1h-1zM13 26h1v1h-1zM2 27h1v1h-1zM13 27h1v1h-1zM2 28h1v1h-1zM13 28h1v1h-1zM1 29h1v1h-1zM14 29h1v1h-1zM1 30h2v1h-2zM13 30h2v1h-2zM2 31h12v1h-12z"/>
    <path fill="#413a42" d="M2 13h2v1h-2zM2 14h1v1h-1zM2 15h1v1h-1zM5 15h2v1h-2zM9 15h2v1h-2zM12 15h1v1h-1zM11 16h2v1h-2zM11 17h2v1h-2zM10 18h2v1h-2zM9 19h2v1h-2zM10 20h1v1h-1zM10 21h1v1h-1zM4 22h1v1h-1zM9 22h2v1h-2zM3 23h1v1h-1zM10 23h2v1h-2zM3 24h1v1h-1zM10 24h2v1h-2zM2 25h1v1h-1zM7 25h6v1h-6zM11 26h2v1h-2zM11 27h2v1h-2zM7 28h6v1h-6zM10 29h4v1h-4zM3 30h10v1h-10z"/>
    <path fill="#596070" d="M11 14h2v1h-2zM4 15h1v1h-1zM8 15h1v1h-1zM11 15h1v1h-1zM4 16h7v1h-7zM3 17h8v1h-8zM4 18h6v1h-6zM5 19h4v1h-4zM5 20h5v1h-5zM5 21h5v1h-5zM6 22h3v1h-3zM5 23h5v1h-5zM5 24h5v1h-5zM4 25h3v1h-3zM4 26h7v1h-7zM6 27h5v1h-5zM3 28h4v1h-4zM7 29h3v1h-3z"/>
    <path fill="#96a2b3" d="M3 14h2v1h-2zM7 14h2v1h-2zM3 15h1v1h-1zM7 15h1v1h-1zM3 16h1v1h-1zM5 22h1v1h-1zM4 23h1v1h-1zM4 24h1v1h-1zM3 25h1v1h-1zM3 26h1v1h-1zM3 27h3v1h-3zM2 29h5v1h-5z"/>
  </g>
  <g id="W_Bishop" transform="translate(0 32)">
    <path fill="#1f1f29" d="M7 11h2v1h-2zM9 12h1v1h-1zM10 13h1v1h-1zM11 14h1v1h-1zM3 15h1v1h-1zM12 15h1v1h-1zM3 16h1v1h-1zM12 16h1v1h-1zM3 17h1v1h-1zM12 17h1v1h-1zM4 18h1v1h-1zM11 18h1v1h-1zM5 19h1v1h-1zM10 19h1v1h-1zM5 20h1v1h-1zM10 20h1v1h-1zM5 21h1v1h-1zM10 21h1v1h-1zM5 22h1v1h-1zM10 22h1v1h-1zM5 23h1v1h-1zM10 23h1v1h-1zM11 24h1v1h-1zM12 25h1v1h-1zM2 26h1v1h-1zM13 26h1v1h-1zM2 27h1v1h-1zM13 27h1v1h-1zM2 28h1v1h-1zM13 28h1v1h-1zM1 29h1v1h-1zM14 29h1v1h-1zM1 30h2v1h-2zM13 30h2v1h-2zM2 31h12v1h-12z"/>
    <path fill="#596070" d="M6 12h1v1h-1zM5 13h1v1h-1zM4 14h1v1h-1zM10 14h1v1h-1zM7 15h1v1h-1zM11 15h1v1h-1zM6 16h3v1h-3zM11 16h1v1h-1zM7 17h1v1h-1zM10 17h2v1h-2zM9 18h2v1h-2zM8 19h2v1h-2zM9 20h1v1h-1zM9 21h1v1h-1zM9 22h1v1h-1zM9 23h1v1h-1zM4 24h1v1h-1zM9 24h2v1h-2zM3 25h1v1h-1zM7 25h5v1h-5zM11 26h2v1h-2zM11 27h2v1h-2zM7 28h6v1h-6zM10 29h4v1h-4zM3 30h10v1h-10z"/>
    <path fill="#96a2b3" d="M8 12h1v1h-1zM7 13h3v1h-3zM6 14h4v1h-4zM5 15h2v1h-2zM8 15h3v1h-3zM4 16h2v1h-2zM9 16h2v1h-2zM4 17h3v1h-3zM8 17h2v1h-2zM5 18h4v1h-4zM6 19h2v1h-2zM6 20h3v1h-3zM6 21h3v1h-3zM6 22h3v1h-3zM6 23h3v1h-3zM6 24h3v1h-3zM5 25h2v1h-2zM4 26h7v1h-7zM6 27h5v1h-5zM3 28h4v1h-4zM7 29h3v1h-3z"/>
    <path fill="#eaf0d8" d="M7 12h1v1h-1zM6 13h1v1h-1zM5 14h1v1h-1zM4 15h1v1h-1zM5 24h1v1h-1zM4 25h1v1h-1zM3 26h1v1h-1zM3 27h3v1h-3zM2 29h5v1h-5z"/>
  </g>
  <g id="W_King" transform="translate(16 32)">
    <path fill="#1f1f29" d="M8 6h1v1h-1zM7 7h1v1h-1zM9 7h1v1h-1zM6 8h1v1h-1zM8 8h2v1h-2zM7 9h2v1h-2zM6 10h4v1h-4zM10 11h1v1h-1zM11 12h1v1h-1zM3 13h2v1h-2zM8 13h1v1h-1zM11 13h2v1h-2zM2 14h1v1h-1zM9 14h2v1h-2zM13 14h1v1h-1zM2 15h1v1h-1zM13 15h1v1h-1zM3 16h1v1h-1zM12 16h1v1h-1zM4 17h1v1h-1zM11 17h1v1h-1zM5 18h1v1h-1zM10 18h1v1h-1zM5 19h1v1h-1zM10 19h1v1h-1zM5 20h1v1h-1zM10 20h1v1h-1zM5 21h1v1h-1zM10 21h1v1h-1zM5 22h1v1h-1zM10 22h1v1h-1zM5 23h1v1h-1zM10 23h1v1h-1zM11 24h1v1h-1zM12 25h1v1h-1zM2 26h1v1h-1zM13 26h1v1h-1zM2 27h1v1h-1zM13 27h1v1h-1zM2 28h1v1h-1zM13 28h1v1h-1zM1 29h1v1h-1zM14 29h1v1h-1zM1 30h2v1h-2zM13 30h2v1h-2zM2 31h12v1h-12z"/>
    <path fill="#596070" d="M7 6h1v1h-1zM6 7h1v1h-1zM5 11h1v1h-1zM4 12h1v1h-1zM7 13h1v1h-1zM5 14h2v1h-2zM12 14h1v1h-1zM5 15h1v1h-1zM11 15h2v1h-2zM10 16h2v1h-2zM9 17h2v1h-2zM8 18h2v1h-2zM9 19h1v1h-1zM9 20h1v1h-1zM9 21h1v1h-1zM9 22h1v1h-1zM9 23h1v1h-1zM4 24h1v1h-1zM9 24h2v1h-2zM3 25h1v1h-1zM7 25h5v1h-5zM11 26h2v1h-2zM11 27h2v1h-2zM7 28h6v1h-6zM10 29h4v1h-4zM3 30h10v1h-10z"/>
    <path fill="#96a2b3" d="M8 7h1v1h-1zM7 8h1v1h-1zM9 11h1v1h-1zM10 12h1v1h-1zM9 13h2v1h-2zM8 14h1v1h-1zM11 14h1v1h-1zM4 15h1v1h-1zM7 15h4v1h-4zM5 16h5v1h-5zM5 17h4v1h-4zM6 18h2v1h-2zM6 19h3v1h-3zM6 20h3v1h-3zM6 21h3v1h-3zM6 22h3v1h-3zM6 23h3v1h-3zM6 24h3v1h-3zM5 25h2v1h-2zM4 26h7v1h-7zM6 27h5v1h-5zM3 28h4v1h-4zM7 29h3v1h-3z"/>
    <path fill="#eaf0d8" d="M6 11h3v1h-3zM5 12h5v1h-5zM5 13h2v1h-2zM3 14h2v1h-2zM7 14h1v1h-1zM3 15h1v1h-1zM6 15h1v1h-1zM4 16h1v1h-1zM5 24h1v1h-1zM4 25h1v1h-1zM3 26h1v1h-1zM3 27h3v1h-3zM2 29h5v1h-5z"/>
  </g>
  <g id="W_Knight" transform="translate(32 32)">
    <path fill="#1f1f29" d="M8 12h2v1h-2zM7 13h2v1h-2zM10 13h2v1h-2zM5 14h2v1h-2zM12 14h1v1h-1zM13 15h1v1h-1zM1 16h1v1h-1zM13 16h1v1h-1zM1 17h1v1h-1zM13 17h1v1h-1zM2 18h3v1h-3zM13 18h1v1h-1zM5 19h1v1h-1zM13 19h1v1h-1zM6 20h1v1h-1zM13 20h1v1h-1zM6 21h1v1h-1zM13 21h1v1h-1zM6 22h1v1h-1zM12 22h1v1h-1zM5 23h1v1h-1zM12 23h1v1h-1zM12 24h1v1h-1zM12 25h1v1h-1zM2 26h1v1h-1zM13 26h1v1h-1zM2 27h1v1h-1zM13 27h1v1h-1zM2 28h1v1h-1zM13 28h1v1h-1zM1 29h1v1h-1zM14 29h1v1h-1zM1 30h2v1h-2zM13 30h2v1h-2zM2 31h12v1h-12z"/>
    <path fill="#596070" d="M3 14h2v1h-2zM7 14h3v1h-3zM11 14h1v1h-1zM2 15h1v1h-1zM10 15h3v1h-3zM11 16h2v1h-2zM11 17h2v1h-2zM5 18h1v1h-1zM11 18h2v1h-2zM6 19h1v1h-1zM11 19h2v1h-2zM7 20h1v1h-1zM11 20h2v1h-2zM11 21h2v1h-2zM11 22h1v1h-1zM10 23h2v1h-2zM4 24h1v1h-1zM10 24h2v1h-2zM3 25h1v1h-1zM10 25h2v1h-2zM11 26h2v1h-2zM11 27h2v1h-2zM7 28h6v1h-6zM10 29h4v1h-4zM3 30h10v1h-10z"/>
    <path fill="#96a2b3" d="M9 13h1v1h-1zM10 14h1v1h-1zM7 15h3v1h-3zM3 16h8v1h-8zM2 17h9v1h-9zM6 18h5v1h-5zM7 19h4v1h-4zM8 20h3v1h-3zM7 21h4v1h-4zM7 22h4v1h-4zM7 23h3v1h-3zM6 24h4v1h-4zM5 25h5v1h-5zM4 26h7v1h-7zM6 27h5v1h-5zM3 28h4v1h-4zM7 29h3v1h-3z"/>
    <path fill="#eaf0d8" d="M3 15h4v1h-4zM2 16h1v1h-1zM6 23h1v1h-1zM5 24h1v1h-1zM4 25h1v1h-1zM3 26h1v1h-1zM3 27h3v1h-3zM2 29h5v1h-5z"/>
  </g>
  <g id="W_Pawn" transform="translate(48 32)">
    <path fill="#1f1f29" d="M7 16h3v1h-3zM10 17h1v1h-1zM11 18h1v1h-1zM4 19h1v1h-1zM11 19h1v1h-1zM4 20h1v1h-1zM11 20h1v1h-1zM4 21h1v1h-1zM11 21h1v1h-1zM5 22h1v1h-1zM10 22h1v1h-1zM5 23h1v1h-1zM10 23h1v1h-1zM11 24h1v1h-1zM12 25h1v1h-1zM2 26h1v1h-1zM13 26h1v1h-1zM2 27h1v1h-1zM13 27h1v1h-1zM2 28h1v1h-1zM13 28h1v1h-1zM1 29h1v1h-1zM14 29h1v1h-1zM1 30h2v1h-2zM13 30h2v1h-2zM2 31h12v1h-12z"/>
    <path fill="#596070" d="M6 16h1v1h-1zM5 17h1v1h-1zM4 18h1v1h-1zM10 20h1v1h-1zM5 21h1v1h-1zM9 21h2v1h-2zM6 22h1v1h-1zM8 22h2v1h-2zM9 23h1v1h-1zM4 24h1v1h-1zM9 24h2v1h-2zM3 25h1v1h-1zM10 25h2v1h-2zM11 26h2v1h-2zM11 27h2v1h-2zM7 28h6v1h-6zM10 29h4v1h-4zM3 30h10v1h-10z"/>
    <path fill="#96a2b3" d="M8 17h2v1h-2zM6 18h5v1h-5zM5 19h6v1h-6zM5 20h5v1h-5zM6 21h3v1h-3zM7 22h1v1h-1zM6 23h3v1h-3zM5 24h4v1h-4zM5 25h5v1h-5zM4 26h7v1h-7zM6 27h5v1h-5zM3 28h4v1h-4zM7 29h3v1h-3z"/>
    <path fill="#eaf0d8" d="M6 17h2v1h-2zM5 18h1v1h-1zM4 25h1v1h-1zM3 26h1v1h-1zM3 27h3v1h-3zM2 29h5v1h-5z"/>
  </g>
  <g id="W_Queen" transform="translate(64 32)">
    <path fill="#1f1f29" d="M7 8h2v1h-2zM6 9h1v1h-1zM9 9h1v1h-1zM6 10h5v1h-5zM11 11h2v1h-2zM2 12h1v1h-1zM13 12h1v1h-1zM2 13h1v1h-1zM13 13h1v1h-1zM3 14h1v1h-1zM12 14h1v1h-1zM4 15h1v1h-1zM11 15h1v1h-1zM4 16h1v1h-1zM11 16h1v1h-1zM5 17h1v1h-1zM10 17h1v1h-1zM5 18h1v1h-1zM10 18h1v1h-1zM5 19h1v1h-1zM10 19h1v1h-1zM5 20h1v1h-1zM10 20h1v1h-1zM5 21h1v1h-1zM10 21h1v1h-1zM5 22h1v1h-1zM10 22h1v1h-1zM5 23h1v1h-1zM10 23h1v1h-1zM11 24h1v1h-1zM12 25h1v1h-1zM2 26h1v1h-1zM13 26h1v1h-1zM2 27h1v1h-1zM13 27h1v1h-1zM2 28h1v1h-1zM13 28h1v1h-1zM1 29h1v1h-1zM14 29h1v1h-1zM1 30h2v1h-2zM13 30h2v1h-2zM2 31h12v1h-12z"/>
    <path fill="#596070" d="M5 10h1v1h-1zM3 11h2v1h-2zM10 11h1v1h-1zM11 12h2v1h-2zM6 13h7v1h-7zM10 14h2v1h-2zM10 15h1v1h-1zM5 16h1v1h-1zM9 16h2v1h-2zM8 17h2v1h-2zM9 18h1v1h-1zM9 19h1v1h-1zM9 20h1v1h-1zM9 21h1v1h-1zM9 22h1v1h-1zM9 23h1v1h-1zM4 24h1v1h-1zM9 24h2v1h-2zM3 25h1v1h-1zM7 25h5v1h-5zM11 26h2v1h-2zM11 27h2v1h-2zM7 28h6v1h-6zM10 29h4v1h-4zM3 30h10v1h-10z"/>
    <path fill="#96a2b3" d="M7 11h3v1h-3zM5 12h6v1h-6zM4 13h2v1h-2zM5 14h5v1h-5zM5 15h5v1h-5zM6 16h3v1h-3zM6 17h2v1h-2zM6 18h3v1h-3zM6 19h3v1h-3zM6 20h3v1h-3zM6 21h3v1h-3zM6 22h3v1h-3zM6 23h3v1h-3zM6 24h3v1h-3zM5 25h2v1h-2zM4 26h7v1h-7zM6 27h5v1h-5zM3 28h4v1h-4zM7 29h3v1h-3z"/>
    <path fill="#eaf0d8" d="M7 9h2v1h-2zM5 11h2v1h-2zM3 12h2v1h-2zM3 13h1v1h-1zM4 14h1v1h-1zM5 24h1v1h-1zM4 25h1v1h-1zM3 26h1v1h-1zM3 27h3v1h-3zM2 29h5v1h-5z"/>
  </g>
  <g id="W_Rook" transform="translate(80 32)">
    <path fill="#1f1f29" d="M4 13h1v1h-1zM6 13h3v1h-3zM10 13h4v1h-4zM5 14h2v1h-2zM9 14h2v1h-2zM13 14h1v1h-1zM13 15h1v1h-1zM2 16h1v1h-1zM13 16h1v1h-1zM2 17h1v1h-1zM13 17h1v1h-1zM3 18h1v1h-1zM12 18h1v1h-1zM4 19h1v1h-1zM11 19h1v1h-1zM4 20h1v1h-1zM11 20h1v1h-1zM4 21h1v1h-1zM11 21h1v1h-1zM11 22h1v1h-1zM12 23h1v1h-1zM12 24h1v1h-1zM13 25h1v1h-1zM2 26h1v1h-1zM13 26h1v1h-1zM2 27h1v1h-1zM13 27h1v1h-1zM2 28h1v1h-1zM13 28h1v1h-1zM1 29h1v1h-1zM14 29h1v1h-1zM1 30h2v1h-2zM13 30h2v1h-2zM2 31h12v1h-12z"/>
    <path fill="#596070" d="M2 13h2v1h-2zM2 14h1v1h-1zM2 15h1v1h-1zM5 15h2v1h-2zM9 15h2v1h-2zM12 15h1v1h-1zM11 16h2v1h-2zM11 17h2v1h-2zM10 18h2v1h-2zM9 19h2v1h-2zM10 20h1v1h-1zM10 21h1v1h-1zM4 22h1v1h-1zM9 22h2v1h-2zM3 23h1v1h-1zM10 23h2v1h-2zM3 24h1v1h-1zM10 24h2v1h-2zM2 25h1v1h-1zM7 25h6v1h-6zM11 26h2v1h-2zM11 27h2v1h-2zM7 28h6v1h-6zM10 29h4v1h-4zM3 30h10v1h-10z"/>
    <path fill="#96a2b3" d="M11 14h2v1h-2zM4 15h1v1h-1zM8 15h1v1h-1zM11 15h1v1h-1zM4 16h7v1h-7zM3 17h8v1h-8zM4 18h6v1h-6zM5 19h4v1h-4zM5 20h5v1h-5zM5 21h5v1h-5zM6 22h3v1h-3zM5 23h5v1h-5zM5 24h5v1h-5zM4 25h3v1h-3zM4 26h7v1h-7zM6 27h5v1h-5zM3 28h4v1h-4zM7 29h3v1h-3z"/>
    <path fill="#eaf0d8" d="M3 14h2v1h-2zM7 14h2v1h-2zM3 15h1v1h-1zM7 15h1v1h-1zM3 16h1v1h-1zM5 22h1v1h-1zM4 23h1v1h-1zM4 24h1v1h-1zM3 25h1v1h-1zM3 26h1v1h-1zM3 27h3v1h-3zM2 29h5v1h-5z"/>
  </g>
</svg>