<?xml version="1.0" encoding="UTF-8"?>
<svg xmlns="http://www.w3.org/2000/svg" width="512" height="1024" viewBox="0 0 16 32" shape-rendering="crispEdges">
  <title>W_Pawn</title>
  <desc>Pixel-perfect vector conversion from PNG. Transparent background preserved.</desc>
  <path fill="#1f1f29" d="M7 16h3v1h-3zM10 17h1v1h-1zM11 18h1v1h-1zM4 19h1v1h-1zM11 19h1v1h-1zM4 20h1v1h-1zM11 20h1v1h-1zM4 21h1v1h-1zM11 21h1v1h-1zM5 22h1v1h-1zM10 22h1v1h-1zM5 23h1v1h-1zM10 23h1v1h-1zM11 24h1v1h-1zM12 25h1v1h-1zM2 26h1v1h-1zM13 26h1v1h-1zM2 27h1v1h-1zM13 27h1v1h-1zM2 28h1v1h-1zM13 28h1v1h-1zM1 29h1v1h-1zM14 29h1v1h-1zM1 30h2v1h-2zM13 30h2v1h-2zM2 31h12v1h-12z"/>
  <path fill="#596070" d="M6 16h1v1h-1zM5 17h1v1h-1zM4 18h1v1h-1zM10 20h1v1h-1zM5 21h1v1h-1zM9 21h2v1h-2zM6 22h1v1h-1zM8 22h2v1h-2zM9 23h1v1h-1zM4 24h1v1h-1zM9 24h2v1h-2zM3 25h1v1h-1zM10 25h2v1h-2zM11 26h2v1h-2zM11 27h2v1h-2zM7 28h6v1h-6zM10 29h4v1h-4zM3 30h10v1h-10z"/>
  <path fill="#96a2b3" d="M8 17h2v1h-2zM6 18h5v1h-5zM5 19h6v1h-6zM5 20h5v1h-5zM6 21h3v1h-3zM7 22h1v1h-1zM6 23h3v1h-3zM5 24h4v1h-4zM5 25h5v1h-5zM4 26h7v1h-7zM6 27h5v1h-5zM3 28h4v1h-4zM7 29h3v1h-3z"/>
  <path fill="#eaf0d8" d="M6 17h2v1h-2zM5 18h1v1h-1zM4 25h1v1h-1zM3 26h1v1h-1zM3 27h3v1h-3zM2 29h5v1h-5z"/>
</svg>